0
SECTION
2
HEADER
9
$INSUNITS
70
4
9
$ACADVER
1
AC1014
9
$HANDSEED
5
FFFF
0
ENDSEC
0
SECTION
2
TABLES
0
TABLE
2
VPORT
5
8
100
AcDbSymbolTable
0
ENDTAB
0
TABLE
2
LTYPE
5
5
100
AcDbSymbolTable
0
LTYPE
5
14
100
AcDbSymbolTableRecord
100
AcDbLinetypeTableRecord
2
BYBLOCK
70
0
0
LTYPE
5
15
100
AcDbSymbolTableRecord
100
AcDbLinetypeTableRecord
2
BYLAYER
70
0
0
ENDTAB
0
TABLE
2
LAYER
5
2
100
AcDbSymbolTable
70
2
0
LAYER
5
50
100
AcDbSymbolTableRecord
100
AcDbLayerTableRecord
2
0
70
0
6
CONTINUOUS
0
ENDTAB
0
TABLE
2
STYLE
5
3
100
AcDbSymbolTable
70
1
0
STYLE
5
11
100
AcDbSymbolTableRecord
100
AcDbTextStyleTableRecord
2
STANDARD
70
0
0
ENDTAB
0
TABLE
2
VIEW
5
6
100
AcDbSymbolTable
70
0
0
ENDTAB
0
TABLE
2
UCS
5
7
100
AcDbSymbolTable
70
0
0
ENDTAB
0
TABLE
2
APPID
5
9
100
AcDbSymbolTable
70
2
0
APPID
5
12
100
AcDbSymbolTableRecord
100
AcDbRegAppTableRecord
2
ACAD
70
0
0
ENDTAB
0
TABLE
2
DIMSTYLE
5
A
100
AcDbSymbolTable
70
1
0
ENDTAB
0
TABLE
2
BLOCK_RECORD
5
1
100
AcDbSymbolTable
70
1
0
BLOCK_RECORD
5
1F
100
AcDbSymbolTableRecord
100
AcDbBlockTableRecord
2
*MODEL_SPACE
0
BLOCK_RECORD
5
1B
100
AcDbSymbolTableRecord
100
AcDbBlockTableRecord
2
*PAPER_SPACE
0
ENDTAB
0
ENDSEC
0
SECTION
2
BLOCKS
0
BLOCK
5
20
100
AcDbEntity
100
AcDbBlockBegin
2
*MODEL_SPACE
0
ENDBLK
5
21
100
AcDbEntity
100
AcDbBlockEnd
0
BLOCK
5
1C
100
AcDbEntity
100
AcDbBlockBegin
2
*PAPER_SPACE
0
ENDBLK
5
1D
100
AcDbEntity
100
AcDbBlockEnd
0
ENDSEC
0
SECTION
2
ENTITIES
0
LWPOLYLINE
5
100
100
AcDbEntity
8
0
100
AcDbPolyline
90
4
70
1
43
0.0
10
199.999639
20
0.00030499999999378247
10
199.999639
20
129.99989299999999
10
0
20
129.99989299999999
10
0
20
0.00030499999999999999
0
CIRCLE
5
101
100
AcDbEntity
8
0
100
AcDbCircle
10
15
20
15
30
0
40
3.5000000000000004
210
0
220
0
230
1
0
CIRCLE
5
102
100
AcDbEntity
8
0
100
AcDbCircle
10
39.285714285714285
20
15
30
0
40
3.5000000000000004
210
0
220
0
230
1
0
CIRCLE
5
103
100
AcDbEntity
8
0
100
AcDbCircle
10
63.571428571428569
20
15
30
0
40
3.5000000000000004
210
0
220
0
230
1
0
CIRCLE
5
104
100
AcDbEntity
8
0
100
AcDbCircle
10
87.857142857142847
20
15
30
0
40
3.5000000000000004
210
0
220
0
230
1
0
CIRCLE
5
105
100
AcDbEntity
8
0
100
AcDbCircle
10
112.14285714285714
20
15
30
0
40
3.5000000000000004
210
0
220
0
230
1
0
CIRCLE
5
106
100
AcDbEntity
8
0
100
AcDbCircle
10
136.42857142857142
20
15
30
0
40
3.5000000000000004
210
0
220
0
230
1
0
CIRCLE
5
107
100
AcDbEntity
8
0
100
AcDbCircle
10
160.71428571428569
20
15
30
0
40
3.5000000000000004
210
0
220
0
230
1
0
CIRCLE
5
108
100
AcDbEntity
8
0
100
AcDbCircle
10
185
20
15
30
0
40
3.5000000000000004
210
0
220
0
230
1
0
CIRCLE
5
109
100
AcDbEntity
8
0
100
AcDbCircle
10
15
20
39
30
0
40
3.5000000000000004
210
0
220
0
230
1
0
CIRCLE
5
110
100
AcDbEntity
8
0
100
AcDbCircle
10
39.285714285714285
20
39
30
0
40
3.5000000000000004
210
0
220
0
230
1
0
CIRCLE
5
111
100
AcDbEntity
8
0
100
AcDbCircle
10
63.571428571428569
20
39
30
0
40
3.5000000000000004
210
0
220
0
230
1
0
CIRCLE
5
112
100
AcDbEntity
8
0
100
AcDbCircle
10
87.857142857142847
20
39
30
0
40
3.5000000000000004
210
0
220
0
230
1
0
CIRCLE
5
113
100
AcDbEntity
8
0
100
AcDbCircle
10
112.14285714285714
20
39
30
0
40
3.5000000000000004
210
0
220
0
230
1
0
CIRCLE
5
114
100
AcDbEntity
8
0
100
AcDbCircle
10
136.42857142857142
20
39
30
0
40
3.5000000000000004
210
0
220
0
230
1
0
CIRCLE
5
115
100
AcDbEntity
8
0
100
AcDbCircle
10
160.71428571428569
20
39
30
0
40
3.5000000000000004
210
0
220
0
230
1
0
CIRCLE
5
116
100
AcDbEntity
8
0
100
AcDbCircle
10
185
20
39
30
0
40
3.5000000000000004
210
0
220
0
230
1
0
CIRCLE
5
117
100
AcDbEntity
8
0
100
AcDbCircle
10
15
20
63.000000000000007
30
0
40
3.5000000000000004
210
0
220
0
230
1
0
CIRCLE
5
118
100
AcDbEntity
8
0
100
AcDbCircle
10
39.285714285714285
20
63.000000000000007
30
0
40
3.5000000000000004
210
0
220
0
230
1
0
CIRCLE
5
119
100
AcDbEntity
8
0
100
AcDbCircle
10
63.571428571428569
20
63.000000000000007
30
0
40
3.5000000000000004
210
0
220
0
230
1
0
CIRCLE
5
120
100
AcDbEntity
8
0
100
AcDbCircle
10
87.857142857142847
20
63.000000000000007
30
0
40
3.5000000000000004
210
0
220
0
230
1
0
CIRCLE
5
121
100
AcDbEntity
8
0
100
AcDbCircle
10
112.14285714285714
20
63.000000000000007
30
0
40
3.5000000000000004
210
0
220
0
230
1
0
CIRCLE
5
122
100
AcDbEntity
8
0
100
AcDbCircle
10
136.42857142857142
20
63.000000000000007
30
0
40
3.5000000000000004
210
0
220
0
230
1
0
CIRCLE
5
123
100
AcDbEntity
8
0
100
AcDbCircle
10
160.71428571428569
20
63.000000000000007
30
0
40
3.5000000000000004
210
0
220
0
230
1
0
CIRCLE
5
124
100
AcDbEntity
8
0
100
AcDbCircle
10
185
20
63.000000000000007
30
0
40
3.5000000000000004
210
0
220
0
230
1
0
CIRCLE
5
125
100
AcDbEntity
8
0
100
AcDbCircle
10
15
20
87.000000000000014
30
0
40
3.5000000000000004
210
0
220
0
230
1
0
CIRCLE
5
126
100
AcDbEntity
8
0
100
AcDbCircle
10
39.285714285714285
20
87.000000000000014
30
0
40
3.5000000000000004
210
0
220
0
230
1
0
CIRCLE
5
127
100
AcDbEntity
8
0
100
AcDbCircle
10
63.571428571428569
20
87.000000000000014
30
0
40
3.5000000000000004
210
0
220
0
230
1
0
CIRCLE
5
128
100
AcDbEntity
8
0
100
AcDbCircle
10
87.857142857142847
20
87.000000000000014
30
0
40
3.5000000000000004
210
0
220
0
230
1
0
CIRCLE
5
129
100
AcDbEntity
8
0
100
AcDbCircle
10
112.14285714285714
20
87.000000000000014
30
0
40
3.5000000000000004
210
0
220
0
230
1
0
CIRCLE
5
130
100
AcDbEntity
8
0
100
AcDbCircle
10
136.42857142857142
20
87.000000000000014
30
0
40
3.5000000000000004
210
0
220
0
230
1
0
CIRCLE
5
131
100
AcDbEntity
8
0
100
AcDbCircle
10
160.71428571428569
20
87.000000000000014
30
0
40
3.5000000000000004
210
0
220
0
230
1
0
CIRCLE
5
132
100
AcDbEntity
8
0
100
AcDbCircle
10
185
20
87.000000000000014
30
0
40
3.5000000000000004
210
0
220
0
230
1
0
CIRCLE
5
133
100
AcDbEntity
8
0
100
AcDbCircle
10
4
20
3.9999999999999996
30
0
40
1.7499999999999996
210
0
220
0
230
1
0
CIRCLE
5
134
100
AcDbEntity
8
0
100
AcDbCircle
10
100.00000000000001
20
3.9999999999999996
30
0
40
1.7499999999999996
210
0
220
0
230
1
0
CIRCLE
5
135
100
AcDbEntity
8
0
100
AcDbCircle
10
196
20
3.9999999999999996
30
0
40
1.7499999999999996
210
0
220
0
230
1
0
CIRCLE
5
136
100
AcDbEntity
8
0
100
AcDbCircle
10
4
20
126.00000000000001
30
0
40
1.7499999999999996
210
0
220
0
230
1
0
CIRCLE
5
137
100
AcDbEntity
8
0
100
AcDbCircle
10
100.00000000000001
20
126.00000000000001
30
0
40
1.7499999999999996
210
0
220
0
230
1
0
CIRCLE
5
138
100
AcDbEntity
8
0
100
AcDbCircle
10
196
20
126.00000000000001
30
0
40
1.7499999999999996
210
0
220
0
230
1
0
LWPOLYLINE
5
139
100
AcDbEntity
8
0
100
AcDbPolyline
90
8
70
1
43
0.0
10
8.4000000000000021
20
109.43346199999075
10
21.599999999999998
20
109.43346199999075
42
0.41421356237309637
10
22.600000000000001
20
110.43346199999075
10
22.600000000000001
20
120.14546199999074
42
0.41421356237309509
10
21.599999999999998
20
121.14546199999074
10
8.4000000000000021
20
121.14546199999076
42
0.41421356237309537
10
7.4000000000000021
20
120.14546199999074
10
7.4000000000000021
20
110.43346199999075
42
0.41421356237309509
0
CIRCLE
5
140
100
AcDbEntity
8
0
100
AcDbCircle
10
39.286000000000016
20
120.09999821186059
30
0
40
1.999999999999996
210
0
220
0
230
1
0
CIRCLE
5
141
100
AcDbEntity
8
0
100
AcDbCircle
10
39.286000000000016
20
110.47892578812093
30
0
40
1.999999999999996
210
0
220
0
230
1
0
LWPOLYLINE
5
142
100
AcDbEntity
8
0
100
AcDbPolyline
90
4
70
1
43
0.0
10
-0.19999999999999574
20
-0.19969500000000004
10
200.19963899999999
20
-0.19969500000000195
10
200.19963899999999
20
130.19989299999997
10
-0.20000000000000004
20
130.19989299999997
0
CIRCLE
5
143
100
AcDbEntity
8
0
100
AcDbCircle
10
100.0998195
20
65.000099000000006
30
0
40
0.99999999999999811
210
0
220
0
230
1
0
ENDSEC
0
SECTION
2
OBJECTS
0
DICTIONARY
5
C
100
AcDbDictionary
3
ACAD_GROUP
350
D
3
ACAD_MLINESTYLE
350
17
0
DICTIONARY
5
D
100
AcDbDictionary
0
DICTIONARY
5
1A
330
C
100
AcDbDictionary
0
DICTIONARY
5
17
100
AcDbDictionary
0
ENDSEC
0
EOF
