0
SECTION
2
HEADER
9
$INSUNITS
70
4
9
$ACADVER
1
AC1014
9
$HANDSEED
5
FFFF
0
ENDSEC
0
SECTION
2
TABLES
0
TABLE
2
VPORT
5
8
100
AcDbSymbolTable
0
ENDTAB
0
TABLE
2
LTYPE
5
5
100
AcDbSymbolTable
0
LTYPE
5
14
100
AcDbSymbolTableRecord
100
AcDbLinetypeTableRecord
2
BYBLOCK
70
0
0
LTYPE
5
15
100
AcDbSymbolTableRecord
100
AcDbLinetypeTableRecord
2
BYLAYER
70
0
0
ENDTAB
0
TABLE
2
LAYER
5
2
100
AcDbSymbolTable
70
2
0
LAYER
5
50
100
AcDbSymbolTableRecord
100
AcDbLayerTableRecord
2
0
70
0
6
CONTINUOUS
0
ENDTAB
0
TABLE
2
STYLE
5
3
100
AcDbSymbolTable
70
1
0
STYLE
5
11
100
AcDbSymbolTableRecord
100
AcDbTextStyleTableRecord
2
STANDARD
70
0
0
ENDTAB
0
TABLE
2
VIEW
5
6
100
AcDbSymbolTable
70
0
0
ENDTAB
0
TABLE
2
UCS
5
7
100
AcDbSymbolTable
70
0
0
ENDTAB
0
TABLE
2
APPID
5
9
100
AcDbSymbolTable
70
2
0
APPID
5
12
100
AcDbSymbolTableRecord
100
AcDbRegAppTableRecord
2
ACAD
70
0
0
ENDTAB
0
TABLE
2
DIMSTYLE
5
A
100
AcDbSymbolTable
70
1
0
ENDTAB
0
TABLE
2
BLOCK_RECORD
5
1
100
AcDbSymbolTable
70
1
0
BLOCK_RECORD
5
1F
100
AcDbSymbolTableRecord
100
AcDbBlockTableRecord
2
*MODEL_SPACE
0
BLOCK_RECORD
5
1B
100
AcDbSymbolTableRecord
100
AcDbBlockTableRecord
2
*PAPER_SPACE
0
ENDTAB
0
ENDSEC
0
SECTION
2
BLOCKS
0
BLOCK
5
20
100
AcDbEntity
100
AcDbBlockBegin
2
*MODEL_SPACE
0
ENDBLK
5
21
100
AcDbEntity
100
AcDbBlockEnd
0
BLOCK
5
1C
100
AcDbEntity
100
AcDbBlockBegin
2
*PAPER_SPACE
0
ENDBLK
5
1D
100
AcDbEntity
100
AcDbBlockEnd
0
ENDSEC
0
SECTION
2
ENTITIES
0
LWPOLYLINE
5
100
100
AcDbEntity
8
0
100
AcDbPolyline
90
8
70
1
43
0.0
10
21.600206095377622
20
-20.566672335730658
10
8.4001935492621698
20
-20.566672335730662
42
-0.41421430141939142
10
7.4001899888780551
20
-19.566670121086968
10
7.4001899888780542
20
-9.8546559386783166
42
-0.41421430141939047
10
8.4001935492621715
20
-8.8546537240346286
10
21.600206095377622
20
-8.8546537240346286
42
-0.41421430141939014
10
22.600209655761738
20
-9.8546559386783201
10
22.600209655761741
20
-19.566670121086972
42
-0.41421430141939014
0
ARC
5
101
100
AcDbEntity
8
0
100
AcDbCircle
10
-39.286228196885872
20
-9.9001190874311682
30
0
40
2.0000071207682284
210
0
220
0
230
-1
100
AcDbArc
50
-180
51
0
0
ARC
5
102
100
AcDbEntity
8
0
100
AcDbCircle
10
-39.286228196885872
20
-9.9001190874311682
30
0
40
2.0000071207682284
210
0
220
0
230
-1
100
AcDbArc
50
0
51
180
0
ARC
5
103
100
AcDbEntity
8
0
100
AcDbCircle
10
-39.286228196885872
20
-19.521205626593698
30
0
40
2.0000071207682284
210
0
220
0
230
-1
100
AcDbArc
50
-180
51
0
0
ARC
5
104
100
AcDbEntity
8
0
100
AcDbCircle
10
-39.286228196885872
20
-19.521205626593698
30
0
40
2.0000071207682284
210
0
220
0
230
-1
100
AcDbArc
50
0
51
180
0
ARC
5
105
100
AcDbEntity
8
0
100
AcDbCircle
10
-15.000199822319896
20
-114.9951905056122
30
0
40
3.5000053962071749
210
-0
220
0
230
-1
100
AcDbArc
50
-0.083320200734467817
51
180.08332020073445
0
ARC
5
106
100
AcDbEntity
8
0
100
AcDbCircle
10
-15.000199822319896
20
-115.00537000057271
30
0
40
3.5000053962071713
210
0
220
0
230
-1
100
AcDbArc
50
-180.08332020073445
51
0.083320200734443906
0
ARC
5
107
100
AcDbEntity
8
0
100
AcDbCircle
10
-39.285948282877627
20
-114.99474711396417
30
0
40
3.5000060690773886
210
-0
220
0
230
-1
100
AcDbArc
50
-0.09057860052321634
51
180.0905786005232
0
ARC
5
108
100
AcDbEntity
8
0
100
AcDbCircle
10
-39.285948282877627
20
-115.00581339222077
30
0
40
3.5000060690773886
210
0
220
0
230
-1
100
AcDbArc
50
-180.0905786005232
51
0.090578600523226832
0
LWPOLYLINE
5
109
100
AcDbEntity
8
0
100
AcDbPolyline
90
2
70
1
43
0.0
10
67.071698438856359
20
-115.00028025309247
42
1.0013874987694502
10
60.071695048014348
20
-115.00028025309228
42
1.0014552702283215
0
ARC
5
110
100
AcDbEntity
8
0
100
AcDbCircle
10
-87.857455969916472
20
-114.99542736939804
30
0
40
3.5000050597720627
210
-0
220
0
230
-1
100
AcDbArc
50
-0.079442697508137219
51
180.07944269751275
0
ARC
5
111
100
AcDbEntity
8
0
100
AcDbCircle
10
-87.857455969916472
20
-115.00513313678688
30
0
40
3.500005059772064
210
0
220
0
230
-1
100
AcDbArc
50
-180.07944269750814
51
0.079442697508135235
0
ARC
5
112
100
AcDbEntity
8
0
100
AcDbCircle
10
-112.14319904751251
20
-115.00028025309246
30
0
40
3.5000070783826942
210
0
220
0
230
-1
100
AcDbArc
50
-180
51
0
0
ARC
5
113
100
AcDbEntity
8
0
100
AcDbCircle
10
-112.14319904751251
20
-115.00028025309246
30
0
40
3.5000070783826942
210
0
220
0
230
-1
100
AcDbArc
50
0
51
180
0
LWPOLYLINE
5
114
100
AcDbEntity
8
0
100
AcDbPolyline
90
2
70
1
43
0.0
10
139.92895458645296
20
-115.00028025309247
42
1.0013874987694502
10
132.92895119561092
20
-115.00028025309243
42
1.0014552702283024
0
ARC
5
115
100
AcDbEntity
8
0
100
AcDbCircle
10
-160.71470135158964
20
-114.99542736939804
30
0
40
3.5000050597720751
210
-0
220
0
230
-1
100
AcDbArc
50
-0.079442697512717222
51
180.07944269751275
0
ARC
5
116
100
AcDbEntity
8
0
100
AcDbCircle
10
-160.71470135158964
20
-115.00513313678688
30
0
40
3.500005059772076
210
0
220
0
230
-1
100
AcDbArc
50
-180.07944269750814
51
0.07944269751272301
0
ARC
5
117
100
AcDbEntity
8
0
100
AcDbCircle
10
-185.00045250362825
20
-114.99684874521651
30
0
40
3.5000060690773842
210
-0
220
0
230
-1
100
AcDbArc
50
-0.056174459780000109
51
180.05617445976699
0
ARC
5
118
100
AcDbEntity
8
0
100
AcDbCircle
10
-185.00045250362825
20
-115.00371176096841
30
0
40
3.5000060690773855
210
0
220
0
230
-1
100
AcDbArc
50
-180.05617445978646
51
0.056174459779980368
0
ARC
5
119
100
AcDbEntity
8
0
100
AcDbCircle
10
-15.000199822319896
20
-90.995148120087038
30
0
40
3.5000053962071749
210
-0
220
0
230
-1
100
AcDbArc
50
-0.083320200734467817
51
180.08332020073007
0
ARC
5
120
100
AcDbEntity
8
0
100
AcDbCircle
10
-15.000199822319896
20
-91.00532761504752
30
0
40
3.5000053962071713
210
0
220
0
230
-1
100
AcDbArc
50
-180.08332020073445
51
0.083320200734443906
0
ARC
5
121
100
AcDbEntity
8
0
100
AcDbCircle
10
-39.285948282877627
20
-90.994704728438975
30
0
40
3.5000060690773886
210
-0
220
0
230
-1
100
AcDbArc
50
-0.09057860052321634
51
180.0905786005232
0
ARC
5
122
100
AcDbEntity
8
0
100
AcDbCircle
10
-39.285948282877627
20
-91.005771006695568
30
0
40
3.5000060690773886
210
0
220
0
230
-1
100
AcDbArc
50
-180.0905786005232
51
0.090578600523226832
0
LWPOLYLINE
5
123
100
AcDbEntity
8
0
100
AcDbPolyline
90
2
70
1
43
0.0
10
67.071698438856359
20
-91.000237867567279
42
1.0013874987694502
10
60.071695048014348
20
-91.000237867567108
42
1.0014552702283215
0
ARC
5
124
100
AcDbEntity
8
0
100
AcDbCircle
10
-87.857455969916472
20
-90.995384983872867
30
0
40
3.5000050597720627
210
-0
220
0
230
-1
100
AcDbArc
50
-0.079442697508137219
51
180.07944269751275
0
ARC
5
125
100
AcDbEntity
8
0
100
AcDbCircle
10
-87.857455969916472
20
-91.00509075126169
30
0
40
3.500005059772064
210
0
220
0
230
-1
100
AcDbArc
50
-180.07944269750814
51
0.079442697508135235
0
ARC
5
126
100
AcDbEntity
8
0
100
AcDbCircle
10
-112.14319904751251
20
-91.000237867567293
30
0
40
3.5000070783826942
210
0
220
0
230
-1
100
AcDbArc
50
-180
51
0
0
ARC
5
127
100
AcDbEntity
8
0
100
AcDbCircle
10
-112.14319904751251
20
-91.000237867567293
30
0
40
3.5000070783826942
210
0
220
0
230
-1
100
AcDbArc
50
0
51
180
0
LWPOLYLINE
5
128
100
AcDbEntity
8
0
100
AcDbPolyline
90
2
70
1
43
0.0
10
139.92895458645296
20
-91.000237867567279
42
1.0013874987694502
10
132.92895119561092
20
-91.00023786756725
42
1.0014552702283024
0
ARC
5
129
100
AcDbEntity
8
0
100
AcDbCircle
10
-160.71470135158964
20
-90.995384983872867
30
0
40
3.5000050597720742
210
-0
220
0
230
-1
100
AcDbArc
50
-0.079442697512717222
51
180.07944269751275
0
ARC
5
130
100
AcDbEntity
8
0
100
AcDbCircle
10
-160.71470135158964
20
-91.00509075126169
30
0
40
3.500005059772076
210
0
220
0
230
-1
100
AcDbArc
50
-180.07944269750814
51
0.07944269751272301
0
ARC
5
131
100
AcDbEntity
8
0
100
AcDbCircle
10
-185.00045250362825
20
-90.996806359691348
30
0
40
3.5000060690773842
210
-0
220
0
230
-1
100
AcDbArc
50
-0.056174459780000109
51
180.05617445976699
0
ARC
5
132
100
AcDbEntity
8
0
100
AcDbCircle
10
-185.00045250362825
20
-91.003669375443224
30
0
40
3.5000060690773855
210
0
220
0
230
-1
100
AcDbArc
50
-180.05617445978646
51
0.056174459779980368
0
ARC
5
133
100
AcDbEntity
8
0
100
AcDbCircle
10
-15.000199822319896
20
-66.99511111752355
30
0
40
3.5000053962071749
210
-0
220
0
230
-1
100
AcDbArc
50
-0.083320200734467817
51
180.08332020073445
0
ARC
5
134
100
AcDbEntity
8
0
100
AcDbCircle
10
-15.000199822319896
20
-67.005290612484046
30
0
40
3.5000053962071713
210
0
220
0
230
-1
100
AcDbArc
50
-180.08332020073445
51
0.083320200734443906
0
ARC
5
135
100
AcDbEntity
8
0
100
AcDbCircle
10
-39.285948282877627
20
-66.994667725875502
30
0
40
3.5000060690773886
210
-0
220
0
230
-1
100
AcDbArc
50
-0.09057860052321634
51
180.0905786005232
0
ARC
5
136
100
AcDbEntity
8
0
100
AcDbCircle
10
-39.285948282877627
20
-67.005734004132108
30
0
40
3.5000060690773886
210
0
220
0
230
-1
100
AcDbArc
50
-180.0905786005232
51
0.090578600523226832
0
LWPOLYLINE
5
137
100
AcDbEntity
8
0
100
AcDbPolyline
90
2
70
1
43
0.0
10
67.071698438856359
20
-67.000200865003791
42
1.0013874987694502
10
60.071695048014348
20
-67.000200865003649
42
1.0014552702283215
0
ARC
5
138
100
AcDbEntity
8
0
100
AcDbCircle
10
-87.857455969916472
20
-66.995347981309394
30
0
40
3.5000050597720627
210
-0
220
0
230
-1
100
AcDbArc
50
-0.079442697508137219
51
180.07944269751275
0
ARC
5
139
100
AcDbEntity
8
0
100
AcDbCircle
10
-87.857455969916472
20
-67.005053748698217
30
0
40
3.500005059772064
210
0
220
0
230
-1
100
AcDbArc
50
-180.07944269750814
51
0.079442697508135235
0
ARC
5
140
100
AcDbEntity
8
0
100
AcDbCircle
10
-112.14319904751251
20
-67.000200865003805
30
0
40
3.5000070783826942
210
0
220
0
230
-1
100
AcDbArc
50
-180
51
0
0
ARC
5
141
100
AcDbEntity
8
0
100
AcDbCircle
10
-112.14319904751251
20
-67.000200865003805
30
0
40
3.5000070783826942
210
0
220
0
230
-1
100
AcDbArc
50
0
51
180
0
LWPOLYLINE
5
142
100
AcDbEntity
8
0
100
AcDbPolyline
90
2
70
1
43
0.0
10
139.92895458645296
20
-67.000200865003791
42
1.0013874987694502
10
132.92895119561092
20
-67.000200865003777
42
1.0014552702283024
0
ARC
5
143
100
AcDbEntity
8
0
100
AcDbCircle
10
-160.71470135158964
20
-66.995347981309394
30
0
40
3.5000050597720742
210
-0
220
0
230
-1
100
AcDbArc
50
-0.079442697512717222
51
180.07944269751275
0
ARC
5
144
100
AcDbEntity
8
0
100
AcDbCircle
10
-160.71470135158964
20
-67.005053748698217
30
0
40
3.500005059772076
210
0
220
0
230
-1
100
AcDbArc
50
-180.07944269750814
51
0.07944269751272301
0
ARC
5
145
100
AcDbEntity
8
0
100
AcDbCircle
10
-185.00045250362825
20
-66.99676935712786
30
0
40
3.5000060690773847
210
-0
220
0
230
-1
100
AcDbArc
50
-0.056174459780000109
51
180.05617445976699
0
ARC
5
146
100
AcDbEntity
8
0
100
AcDbCircle
10
-185.00045250362825
20
-67.00363237287975
30
0
40
3.5000060690773855
210
0
220
0
230
-1
100
AcDbArc
50
-180.05617445978646
51
0.056174459779980368
0
ARC
5
147
100
AcDbEntity
8
0
100
AcDbCircle
10
-15.000199822319896
20
-42.995079497921779
30
0
40
3.5000053962071749
210
-0
220
0
230
-1
100
AcDbArc
50
-0.083320200734467817
51
180.08332020073007
0
ARC
5
148
100
AcDbEntity
8
0
100
AcDbCircle
10
-15.000199822319896
20
-43.005258992882275
30
0
40
3.5000053962071713
210
0
220
0
230
-1
100
AcDbArc
50
-180.08332020073445
51
0.083320200734443906
0
ARC
5
149
100
AcDbEntity
8
0
100
AcDbCircle
10
-39.285948282877627
20
-42.994636106273717
30
0
40
3.5000060690773886
210
-0
220
0
230
-1
100
AcDbArc
50
-0.09057860052321634
51
180.0905786005232
0
ARC
5
150
100
AcDbEntity
8
0
100
AcDbCircle
10
-39.285948282877627
20
-43.005702384530331
30
0
40
3.5000060690773886
210
0
220
0
230
-1
100
AcDbArc
50
-180.0905786005232
51
0.090578600523226832
0
LWPOLYLINE
5
151
100
AcDbEntity
8
0
100
AcDbPolyline
90
2
70
1
43
0.0
10
67.071698438856359
20
-43.000169245402013
42
1.0013874987694502
10
60.071695048014348
20
-43.000169245401885
42
1.0014552702283215
0
ARC
5
152
100
AcDbEntity
8
0
100
AcDbCircle
10
-87.857455969916472
20
-42.995316361707609
30
0
40
3.5000050597720627
210
-0
220
0
230
-1
100
AcDbArc
50
-0.079442697508137219
51
180.07944269751275
0
ARC
5
153
100
AcDbEntity
8
0
100
AcDbCircle
10
-87.857455969916472
20
-43.005022129096432
30
0
40
3.500005059772064
210
0
220
0
230
-1
100
AcDbArc
50
-180.07944269750814
51
0.079442697508135235
0
ARC
5
154
100
AcDbEntity
8
0
100
AcDbCircle
10
-112.14319904751251
20
-43.00016924540202
30
0
40
3.5000070783826942
210
0
220
0
230
-1
100
AcDbArc
50
-180
51
0
0
ARC
5
155
100
AcDbEntity
8
0
100
AcDbCircle
10
-112.14319904751251
20
-43.00016924540202
30
0
40
3.5000070783826942
210
0
220
0
230
-1
100
AcDbArc
50
0
51
180
0
LWPOLYLINE
5
156
100
AcDbEntity
8
0
100
AcDbPolyline
90
2
70
1
43
0.0
10
139.92895458645296
20
-43.000169245402013
42
1.0013874987694502
10
132.92895119561092
20
-43.00016924540202
42
1.0014552702283024
0
ARC
5
157
100
AcDbEntity
8
0
100
AcDbCircle
10
-160.71470135158964
20
-42.995316361707609
30
0
40
3.5000050597720742
210
-0
220
0
230
-1
100
AcDbArc
50
-0.079442697512717222
51
180.07944269751275
0
ARC
5
158
100
AcDbEntity
8
0
100
AcDbCircle
10
-160.71470135158964
20
-43.005022129096432
30
0
40
3.500005059772076
210
0
220
0
230
-1
100
AcDbArc
50
-180.07944269750814
51
0.07944269751272301
0
ARC
5
159
100
AcDbEntity
8
0
100
AcDbCircle
10
-185.00045250362825
20
-42.996737737526075
30
0
40
3.5000060690773842
210
-0
220
0
230
-1
100
AcDbArc
50
-0.056174459780000109
51
180.05617445976699
0
ARC
5
160
100
AcDbEntity
8
0
100
AcDbCircle
10
-185.00045250362825
20
-43.003600753277965
30
0
40
3.5000060690773855
210
0
220
0
230
-1
100
AcDbArc
50
-180.05617445978646
51
0.056174459779980368
0
ARC
5
161
100
AcDbEntity
8
0
100
AcDbCircle
10
-4.0001821899414223
20
-125.99722865188953
30
0
40
1.750003539191352
210
-0
220
0
230
-1
100
AcDbArc
50
-0.10048792289352253
51
180.1004879228899
0
ARC
5
162
100
AcDbEntity
8
0
100
AcDbCircle
10
-4.0001821899414223
20
-126.00336711905236
30
0
40
1.7500035391913529
210
0
220
0
230
-1
100
AcDbArc
50
-180.10048792289712
51
0.10048792289351718
0
ARC
5
163
100
AcDbEntity
8
0
100
AcDbCircle
10
-100.00033020019532
20
-125.99753131590677
30
0
40
1.7500030345386965
210
-0
220
0
230
-1
100
AcDbArc
50
-0.09057860052321634
51
180.09057860051919
0
ARC
5
164
100
AcDbEntity
8
0
100
AcDbCircle
10
-100.00033020019532
20
-126.00306445503507
30
0
40
1.7500030345386965
210
0
220
0
230
-1
100
AcDbArc
50
-180.0905786005232
51
0.090578600523226832
0
ARC
5
165
100
AcDbEntity
8
0
100
AcDbCircle
10
-196.00047282748756
20
-125.99775301173082
30
0
40
1.7500026981035792
210
-0
220
0
230
-1
100
AcDbArc
50
-0.083320200734467817
51
180.08332020073007
0
ARC
5
166
100
AcDbEntity
8
0
100
AcDbCircle
10
-196.00047282748756
20
-126.00284275921106
30
0
40
1.750002698103579
210
0
220
0
230
-1
100
AcDbArc
50
-180.08332020073445
51
0.083320200734443906
0
ARC
5
167
100
AcDbEntity
8
0
100
AcDbCircle
10
-4.0001821899414223
20
-3.99703920978475
30
0
40
1.750003539191352
210
-0
220
0
230
-1
100
AcDbArc
50
-0.10048792289352253
51
180.1004879228899
0
ARC
5
168
100
AcDbEntity
8
0
100
AcDbCircle
10
-4.0001821899414223
20
-4.0031776769475638
30
0
40
1.7500035391913529
210
0
220
0
230
-1
100
AcDbArc
50
-180.10048792289712
51
0.10048792289351718
0
ARC
5
169
100
AcDbEntity
8
0
100
AcDbCircle
10
-100.00033020019532
20
-3.9973418738020055
30
0
40
1.7500030345386965
210
-0
220
0
230
-1
100
AcDbArc
50
-0.09057860052321634
51
180.09057860051919
0
ARC
5
170
100
AcDbEntity
8
0
100
AcDbCircle
10
-100.00033020019532
20
-4.0028750129303079
30
0
40
1.7500030345386965
210
0
220
0
230
-1
100
AcDbArc
50
-180.0905786005232
51
0.090578600523226832
0
ARC
5
171
100
AcDbEntity
8
0
100
AcDbCircle
10
-196.00047282748756
20
-3.997563569626033
30
0
40
1.7500026981035792
210
-0
220
0
230
-1
100
AcDbArc
50
-0.083320200734467817
51
180.08332020073445
0
ARC
5
172
100
AcDbEntity
8
0
100
AcDbCircle
10
-196.00047282748756
20
-4.0026533171062812
30
0
40
1.7500026981035786
210
0
220
0
230
-1
100
AcDbArc
50
-180.08332020073445
51
0.083320200734443906
0
LWPOLYLINE
5
173
100
AcDbEntity
8
0
100
AcDbPolyline
90
4
70
1
43
0.0
10
200.00012274723989
20
-0.00021149997960989708
10
200.00012274723989
20
-129.99999470951397
10
0.00018049735652777779
20
-129.99999470951397
10
0.00018049735651004539
20
-0.00021149997961297611
0
ENDSEC
0
SECTION
2
OBJECTS
0
DICTIONARY
5
C
100
AcDbDictionary
3
ACAD_GROUP
350
D
3
ACAD_MLINESTYLE
350
17
0
DICTIONARY
5
D
100
AcDbDictionary
0
DICTIONARY
5
1A
330
C
100
AcDbDictionary
0
DICTIONARY
5
17
100
AcDbDictionary
0
ENDSEC
0
EOF
