G04 #@! TF.GenerationSoftware,KiCad,Pcbnew,(5.1.2-1)-1*
G04 #@! TF.CreationDate,2020-08-28T09:47:19+03:00*
G04 #@! TF.ProjectId,N32B,4e333242-2e6b-4696-9361-645f70636258,V0.1*
G04 #@! TF.SameCoordinates,Original*
G04 #@! TF.FileFunction,Legend,Top*
G04 #@! TF.FilePolarity,Positive*
%FSLAX46Y46*%
G04 Gerber Fmt 4.6, Leading zero omitted, Abs format (unit mm)*
G04 Created by KiCad (PCBNEW (5.1.2-1)-1) date 2020-08-28 09:47:19*
%MOMM*%
%LPD*%
G04 APERTURE LIST*
%ADD10C,0.120000*%
%ADD11C,0.203200*%
%ADD12C,0.127000*%
%ADD13C,0.254000*%
%ADD14C,0.152400*%
%ADD15C,0.150000*%
%ADD16C,0.015000*%
G04 APERTURE END LIST*
D10*
X226558000Y-50272000D02*
X226558000Y-32502000D01*
X226558000Y-32502000D02*
X193548000Y-32502000D01*
X193548000Y-32502000D02*
X193548000Y-50272000D01*
X193548000Y-50272000D02*
X226538000Y-50272000D01*
X226568000Y-37582000D02*
X227848000Y-37582000D01*
X227848000Y-37582000D02*
X227848000Y-45212000D01*
X227848000Y-45212000D02*
X226568000Y-45212000D01*
X226318000Y-77938000D02*
X228318000Y-77938000D01*
X226318000Y-72938000D02*
X228318000Y-72938000D01*
X226318000Y-71938000D02*
X214218000Y-71938000D01*
X228318000Y-72938000D02*
X228318000Y-77938000D01*
X226318000Y-78938000D02*
X226318000Y-77938000D01*
X226318000Y-72938000D02*
X226318000Y-71938000D01*
X226318000Y-78938000D02*
X214168000Y-78938000D01*
X215968000Y-77338000D02*
X215468000Y-76838000D01*
X215468000Y-76838000D02*
X216468000Y-76838000D01*
X216468000Y-76838000D02*
X215968000Y-77338000D01*
X214218000Y-71938000D02*
X214118000Y-71938000D01*
X214118000Y-71938000D02*
X214118000Y-72938000D01*
X214168000Y-78938000D02*
X214118000Y-78938000D01*
X214118000Y-78938000D02*
X214118000Y-74338000D01*
D11*
X77168000Y-43751000D02*
X77168000Y-45021000D01*
X100028000Y-43751000D02*
X100028000Y-45021000D01*
D10*
X104830000Y-53206000D02*
X146630000Y-53206000D01*
X146630000Y-53206000D02*
X146630000Y-31406000D01*
X146630000Y-31406000D02*
X104830000Y-31406000D01*
X104830000Y-31406000D02*
X104830000Y-53206000D01*
X148518000Y-53206000D02*
X190318000Y-53206000D01*
X190318000Y-53206000D02*
X190318000Y-31406000D01*
X190318000Y-31406000D02*
X148518000Y-31406000D01*
X148518000Y-31406000D02*
X148518000Y-53206000D01*
X208512001Y-142410000D02*
X218252001Y-142410000D01*
X208512001Y-130820000D02*
X210002001Y-130820000D01*
X208512001Y-139350000D02*
X208512001Y-142410000D01*
X218262001Y-130820000D02*
X218262001Y-135540000D01*
X218252001Y-139350000D02*
X218252001Y-142410000D01*
X208512001Y-130820000D02*
X208512001Y-135540000D01*
X217072001Y-130820000D02*
X218252001Y-130820000D01*
X214172001Y-130820000D02*
X214702001Y-130820000D01*
X211722001Y-130820000D02*
X212552001Y-130820000D01*
X184226001Y-142410000D02*
X193966001Y-142410000D01*
X184226001Y-130820000D02*
X185716001Y-130820000D01*
X184226001Y-139350000D02*
X184226001Y-142410000D01*
X193976001Y-130820000D02*
X193976001Y-135540000D01*
X193966001Y-139350000D02*
X193966001Y-142410000D01*
X184226001Y-130820000D02*
X184226001Y-135540000D01*
X192786001Y-130820000D02*
X193966001Y-130820000D01*
X189886001Y-130820000D02*
X190416001Y-130820000D01*
X187436001Y-130820000D02*
X188266001Y-130820000D01*
X159940001Y-142410000D02*
X169680001Y-142410000D01*
X159940001Y-130820000D02*
X161430001Y-130820000D01*
X159940001Y-139350000D02*
X159940001Y-142410000D01*
X169690001Y-130820000D02*
X169690001Y-135540000D01*
X169680001Y-139350000D02*
X169680001Y-142410000D01*
X159940001Y-130820000D02*
X159940001Y-135540000D01*
X168500001Y-130820000D02*
X169680001Y-130820000D01*
X165600001Y-130820000D02*
X166130001Y-130820000D01*
X163150001Y-130820000D02*
X163980001Y-130820000D01*
X135654001Y-142410000D02*
X145394001Y-142410000D01*
X135654001Y-130820000D02*
X137144001Y-130820000D01*
X135654001Y-139350000D02*
X135654001Y-142410000D01*
X145404001Y-130820000D02*
X145404001Y-135540000D01*
X145394001Y-139350000D02*
X145394001Y-142410000D01*
X135654001Y-130820000D02*
X135654001Y-135540000D01*
X144214001Y-130820000D02*
X145394001Y-130820000D01*
X141314001Y-130820000D02*
X141844001Y-130820000D01*
X138864001Y-130820000D02*
X139694001Y-130820000D01*
X111368002Y-142410000D02*
X121108002Y-142410000D01*
X111368002Y-130820000D02*
X112858002Y-130820000D01*
X111368002Y-139350000D02*
X111368002Y-142410000D01*
X121118002Y-130820000D02*
X121118002Y-135540000D01*
X121108002Y-139350000D02*
X121108002Y-142410000D01*
X111368002Y-130820000D02*
X111368002Y-135540000D01*
X119928002Y-130820000D02*
X121108002Y-130820000D01*
X117028002Y-130820000D02*
X117558002Y-130820000D01*
X114578002Y-130820000D02*
X115408002Y-130820000D01*
X87082001Y-142410000D02*
X96822001Y-142410000D01*
X87082001Y-130820000D02*
X88572001Y-130820000D01*
X87082001Y-139350000D02*
X87082001Y-142410000D01*
X96832001Y-130820000D02*
X96832001Y-135540000D01*
X96822001Y-139350000D02*
X96822001Y-142410000D01*
X87082001Y-130820000D02*
X87082001Y-135540000D01*
X95642001Y-130820000D02*
X96822001Y-130820000D01*
X92742001Y-130820000D02*
X93272001Y-130820000D01*
X90292001Y-130820000D02*
X91122001Y-130820000D01*
X62796001Y-142410000D02*
X72536001Y-142410000D01*
X62796001Y-130820000D02*
X64286001Y-130820000D01*
X62796001Y-139350000D02*
X62796001Y-142410000D01*
X72546001Y-130820000D02*
X72546001Y-135540000D01*
X72536001Y-139350000D02*
X72536001Y-142410000D01*
X62796001Y-130820000D02*
X62796001Y-135540000D01*
X71356001Y-130820000D02*
X72536001Y-130820000D01*
X68456001Y-130820000D02*
X68986001Y-130820000D01*
X66006001Y-130820000D02*
X66836001Y-130820000D01*
X208512001Y-118409999D02*
X218252001Y-118409999D01*
X208512001Y-106819999D02*
X210002001Y-106819999D01*
X208512001Y-115349999D02*
X208512001Y-118409999D01*
X218262001Y-106819999D02*
X218262001Y-111539999D01*
X218252001Y-115349999D02*
X218252001Y-118409999D01*
X208512001Y-106819999D02*
X208512001Y-111539999D01*
X217072001Y-106819999D02*
X218252001Y-106819999D01*
X214172001Y-106819999D02*
X214702001Y-106819999D01*
X211722001Y-106819999D02*
X212552001Y-106819999D01*
X184226001Y-118409999D02*
X193966001Y-118409999D01*
X184226001Y-106819999D02*
X185716001Y-106819999D01*
X184226001Y-115349999D02*
X184226001Y-118409999D01*
X193976001Y-106819999D02*
X193976001Y-111539999D01*
X193966001Y-115349999D02*
X193966001Y-118409999D01*
X184226001Y-106819999D02*
X184226001Y-111539999D01*
X192786001Y-106819999D02*
X193966001Y-106819999D01*
X189886001Y-106819999D02*
X190416001Y-106819999D01*
X187436001Y-106819999D02*
X188266001Y-106819999D01*
X159940001Y-118409999D02*
X169680001Y-118409999D01*
X159940001Y-106819999D02*
X161430001Y-106819999D01*
X159940001Y-115349999D02*
X159940001Y-118409999D01*
X169690001Y-106819999D02*
X169690001Y-111539999D01*
X169680001Y-115349999D02*
X169680001Y-118409999D01*
X159940001Y-106819999D02*
X159940001Y-111539999D01*
X168500001Y-106819999D02*
X169680001Y-106819999D01*
X165600001Y-106819999D02*
X166130001Y-106819999D01*
X163150001Y-106819999D02*
X163980001Y-106819999D01*
X135654001Y-118409999D02*
X145394001Y-118409999D01*
X135654001Y-106819999D02*
X137144001Y-106819999D01*
X135654001Y-115349999D02*
X135654001Y-118409999D01*
X145404001Y-106819999D02*
X145404001Y-111539999D01*
X145394001Y-115349999D02*
X145394001Y-118409999D01*
X135654001Y-106819999D02*
X135654001Y-111539999D01*
X144214001Y-106819999D02*
X145394001Y-106819999D01*
X141314001Y-106819999D02*
X141844001Y-106819999D01*
X138864001Y-106819999D02*
X139694001Y-106819999D01*
X111368002Y-118409999D02*
X121108002Y-118409999D01*
X111368002Y-106819999D02*
X112858002Y-106819999D01*
X111368002Y-115349999D02*
X111368002Y-118409999D01*
X121118002Y-106819999D02*
X121118002Y-111539999D01*
X121108002Y-115349999D02*
X121108002Y-118409999D01*
X111368002Y-106819999D02*
X111368002Y-111539999D01*
X119928002Y-106819999D02*
X121108002Y-106819999D01*
X117028002Y-106819999D02*
X117558002Y-106819999D01*
X114578002Y-106819999D02*
X115408002Y-106819999D01*
X87082001Y-118409999D02*
X96822001Y-118409999D01*
X87082001Y-106819999D02*
X88572001Y-106819999D01*
X87082001Y-115349999D02*
X87082001Y-118409999D01*
X96832001Y-106819999D02*
X96832001Y-111539999D01*
X96822001Y-115349999D02*
X96822001Y-118409999D01*
X87082001Y-106819999D02*
X87082001Y-111539999D01*
X95642001Y-106819999D02*
X96822001Y-106819999D01*
X92742001Y-106819999D02*
X93272001Y-106819999D01*
X90292001Y-106819999D02*
X91122001Y-106819999D01*
X62796001Y-118409999D02*
X72536001Y-118409999D01*
X62796001Y-106819999D02*
X64286001Y-106819999D01*
X62796001Y-115349999D02*
X62796001Y-118409999D01*
X72546001Y-106819999D02*
X72546001Y-111539999D01*
X72536001Y-115349999D02*
X72536001Y-118409999D01*
X62796001Y-106819999D02*
X62796001Y-111539999D01*
X71356001Y-106819999D02*
X72536001Y-106819999D01*
X68456001Y-106819999D02*
X68986001Y-106819999D01*
X66006001Y-106819999D02*
X66836001Y-106819999D01*
X38510001Y-118409999D02*
X48250001Y-118409999D01*
X38510001Y-106819999D02*
X40000001Y-106819999D01*
X38510001Y-115349999D02*
X38510001Y-118409999D01*
X48260001Y-106819999D02*
X48260001Y-111539999D01*
X48250001Y-115349999D02*
X48250001Y-118409999D01*
X38510001Y-106819999D02*
X38510001Y-111539999D01*
X47070001Y-106819999D02*
X48250001Y-106819999D01*
X44170001Y-106819999D02*
X44700001Y-106819999D01*
X41720001Y-106819999D02*
X42550001Y-106819999D01*
X208512001Y-94409999D02*
X218252001Y-94409999D01*
X208512001Y-82819999D02*
X210002001Y-82819999D01*
X208512001Y-91349999D02*
X208512001Y-94409999D01*
X218262001Y-82819999D02*
X218262001Y-87539999D01*
X218252001Y-91349999D02*
X218252001Y-94409999D01*
X208512001Y-82819999D02*
X208512001Y-87539999D01*
X217072001Y-82819999D02*
X218252001Y-82819999D01*
X214172001Y-82819999D02*
X214702001Y-82819999D01*
X211722001Y-82819999D02*
X212552001Y-82819999D01*
X184226001Y-94409999D02*
X193966001Y-94409999D01*
X184226001Y-82819999D02*
X185716001Y-82819999D01*
X184226001Y-91349999D02*
X184226001Y-94409999D01*
X193976001Y-82819999D02*
X193976001Y-87539999D01*
X193966001Y-91349999D02*
X193966001Y-94409999D01*
X184226001Y-82819999D02*
X184226001Y-87539999D01*
X192786001Y-82819999D02*
X193966001Y-82819999D01*
X189886001Y-82819999D02*
X190416001Y-82819999D01*
X187436001Y-82819999D02*
X188266001Y-82819999D01*
X159940001Y-94409999D02*
X169680001Y-94409999D01*
X159940001Y-82819999D02*
X161430001Y-82819999D01*
X159940001Y-91349999D02*
X159940001Y-94409999D01*
X169690001Y-82819999D02*
X169690001Y-87539999D01*
X169680001Y-91349999D02*
X169680001Y-94409999D01*
X159940001Y-82819999D02*
X159940001Y-87539999D01*
X168500001Y-82819999D02*
X169680001Y-82819999D01*
X165600001Y-82819999D02*
X166130001Y-82819999D01*
X163150001Y-82819999D02*
X163980001Y-82819999D01*
X135654001Y-94409999D02*
X145394001Y-94409999D01*
X135654001Y-82819999D02*
X137144001Y-82819999D01*
X135654001Y-91349999D02*
X135654001Y-94409999D01*
X145404001Y-82819999D02*
X145404001Y-87539999D01*
X145394001Y-91349999D02*
X145394001Y-94409999D01*
X135654001Y-82819999D02*
X135654001Y-87539999D01*
X144214001Y-82819999D02*
X145394001Y-82819999D01*
X141314001Y-82819999D02*
X141844001Y-82819999D01*
X138864001Y-82819999D02*
X139694001Y-82819999D01*
X111368002Y-94409999D02*
X121108002Y-94409999D01*
X111368002Y-82819999D02*
X112858002Y-82819999D01*
X111368002Y-91349999D02*
X111368002Y-94409999D01*
X121118002Y-82819999D02*
X121118002Y-87539999D01*
X121108002Y-91349999D02*
X121108002Y-94409999D01*
X111368002Y-82819999D02*
X111368002Y-87539999D01*
X119928002Y-82819999D02*
X121108002Y-82819999D01*
X117028002Y-82819999D02*
X117558002Y-82819999D01*
X114578002Y-82819999D02*
X115408002Y-82819999D01*
X87082001Y-94409999D02*
X96822001Y-94409999D01*
X87082001Y-82819999D02*
X88572001Y-82819999D01*
X87082001Y-91349999D02*
X87082001Y-94409999D01*
X96832001Y-82819999D02*
X96832001Y-87539999D01*
X96822001Y-91349999D02*
X96822001Y-94409999D01*
X87082001Y-82819999D02*
X87082001Y-87539999D01*
X95642001Y-82819999D02*
X96822001Y-82819999D01*
X92742001Y-82819999D02*
X93272001Y-82819999D01*
X90292001Y-82819999D02*
X91122001Y-82819999D01*
X62796001Y-94409999D02*
X72536001Y-94409999D01*
X62796001Y-82819999D02*
X64286001Y-82819999D01*
X62796001Y-91349999D02*
X62796001Y-94409999D01*
X72546001Y-82819999D02*
X72546001Y-87539999D01*
X72536001Y-91349999D02*
X72536001Y-94409999D01*
X62796001Y-82819999D02*
X62796001Y-87539999D01*
X71356001Y-82819999D02*
X72536001Y-82819999D01*
X68456001Y-82819999D02*
X68986001Y-82819999D01*
X66006001Y-82819999D02*
X66836001Y-82819999D01*
X38510001Y-94409999D02*
X48250001Y-94409999D01*
X38510001Y-82819999D02*
X40000001Y-82819999D01*
X38510001Y-91349999D02*
X38510001Y-94409999D01*
X48260001Y-82819999D02*
X48260001Y-87539999D01*
X48250001Y-91349999D02*
X48250001Y-94409999D01*
X38510001Y-82819999D02*
X38510001Y-87539999D01*
X47070001Y-82819999D02*
X48250001Y-82819999D01*
X44170001Y-82819999D02*
X44700001Y-82819999D01*
X41720001Y-82819999D02*
X42550001Y-82819999D01*
X208512001Y-70410000D02*
X218252001Y-70410000D01*
X208512001Y-58820000D02*
X210002001Y-58820000D01*
X208512001Y-67350000D02*
X208512001Y-70410000D01*
X218262001Y-58820000D02*
X218262001Y-63540000D01*
X218252001Y-67350000D02*
X218252001Y-70410000D01*
X208512001Y-58820000D02*
X208512001Y-63540000D01*
X217072001Y-58820000D02*
X218252001Y-58820000D01*
X214172001Y-58820000D02*
X214702001Y-58820000D01*
X211722001Y-58820000D02*
X212552001Y-58820000D01*
X184226001Y-70410000D02*
X193966001Y-70410000D01*
X184226001Y-58820000D02*
X185716001Y-58820000D01*
X184226001Y-67350000D02*
X184226001Y-70410000D01*
X193976001Y-58820000D02*
X193976001Y-63540000D01*
X193966001Y-67350000D02*
X193966001Y-70410000D01*
X184226001Y-58820000D02*
X184226001Y-63540000D01*
X192786001Y-58820000D02*
X193966001Y-58820000D01*
X189886001Y-58820000D02*
X190416001Y-58820000D01*
X187436001Y-58820000D02*
X188266001Y-58820000D01*
X159940001Y-70410000D02*
X169680001Y-70410000D01*
X159940001Y-58820000D02*
X161430001Y-58820000D01*
X159940001Y-67350000D02*
X159940001Y-70410000D01*
X169690001Y-58820000D02*
X169690001Y-63540000D01*
X169680001Y-67350000D02*
X169680001Y-70410000D01*
X159940001Y-58820000D02*
X159940001Y-63540000D01*
X168500001Y-58820000D02*
X169680001Y-58820000D01*
X165600001Y-58820000D02*
X166130001Y-58820000D01*
X163150001Y-58820000D02*
X163980001Y-58820000D01*
X135654001Y-70410000D02*
X145394001Y-70410000D01*
X135654001Y-58820000D02*
X137144001Y-58820000D01*
X135654001Y-67350000D02*
X135654001Y-70410000D01*
X145404001Y-58820000D02*
X145404001Y-63540000D01*
X145394001Y-67350000D02*
X145394001Y-70410000D01*
X135654001Y-58820000D02*
X135654001Y-63540000D01*
X144214001Y-58820000D02*
X145394001Y-58820000D01*
X141314001Y-58820000D02*
X141844001Y-58820000D01*
X138864001Y-58820000D02*
X139694001Y-58820000D01*
X111368002Y-70410000D02*
X121108002Y-70410000D01*
X111368002Y-58820000D02*
X112858002Y-58820000D01*
X111368002Y-67350000D02*
X111368002Y-70410000D01*
X121118002Y-58820000D02*
X121118002Y-63540000D01*
X121108002Y-67350000D02*
X121108002Y-70410000D01*
X111368002Y-58820000D02*
X111368002Y-63540000D01*
X119928002Y-58820000D02*
X121108002Y-58820000D01*
X117028002Y-58820000D02*
X117558002Y-58820000D01*
X114578002Y-58820000D02*
X115408002Y-58820000D01*
X62796001Y-70410000D02*
X72536001Y-70410000D01*
X62796001Y-58820000D02*
X64286001Y-58820000D01*
X62796001Y-67350000D02*
X62796001Y-70410000D01*
X72546001Y-58820000D02*
X72546001Y-63540000D01*
X72536001Y-67350000D02*
X72536001Y-70410000D01*
X62796001Y-58820000D02*
X62796001Y-63540000D01*
X71356001Y-58820000D02*
X72536001Y-58820000D01*
X68456001Y-58820000D02*
X68986001Y-58820000D01*
X66006001Y-58820000D02*
X66836001Y-58820000D01*
X87082001Y-70410000D02*
X96822001Y-70410000D01*
X87082001Y-58820000D02*
X88572001Y-58820000D01*
X87082001Y-67350000D02*
X87082001Y-70410000D01*
X96832001Y-58820000D02*
X96832001Y-63540000D01*
X96822001Y-67350000D02*
X96822001Y-70410000D01*
X87082001Y-58820000D02*
X87082001Y-63540000D01*
X95642001Y-58820000D02*
X96822001Y-58820000D01*
X92742001Y-58820000D02*
X93272001Y-58820000D01*
X90292001Y-58820000D02*
X91122001Y-58820000D01*
X38510001Y-142410000D02*
X48250001Y-142410000D01*
X38510001Y-130820000D02*
X40000001Y-130820000D01*
X38510001Y-139350000D02*
X38510001Y-142410000D01*
X48260001Y-130820000D02*
X48260001Y-135540000D01*
X48250001Y-139350000D02*
X48250001Y-142410000D01*
X38510001Y-130820000D02*
X38510001Y-135540000D01*
X47070001Y-130820000D02*
X48250001Y-130820000D01*
X44170001Y-130820000D02*
X44700001Y-130820000D01*
X41720001Y-130820000D02*
X42550001Y-130820000D01*
X38510001Y-70410000D02*
X48250001Y-70410000D01*
X38510001Y-58820000D02*
X40000001Y-58820000D01*
X38510001Y-67350000D02*
X38510001Y-70410000D01*
X48260001Y-58820000D02*
X48260001Y-63540000D01*
X48250001Y-67350000D02*
X48250001Y-70410000D01*
X38510001Y-58820000D02*
X38510001Y-63540000D01*
X47070001Y-58820000D02*
X48250001Y-58820000D01*
X44170001Y-58820000D02*
X44700001Y-58820000D01*
X41720001Y-58820000D02*
X42550001Y-58820000D01*
D12*
X197454094Y-77099156D02*
X197391232Y-77176386D01*
X197495403Y-77011149D02*
X197454094Y-77099156D01*
X197518752Y-76915958D02*
X197495403Y-77011149D01*
X197520548Y-76817176D02*
X197518752Y-76915958D01*
X197498995Y-76720189D02*
X197520548Y-76817176D01*
X197457686Y-76632182D02*
X197498995Y-76720189D01*
X197394824Y-76554952D02*
X197457686Y-76632182D01*
X197321186Y-76492090D02*
X197394824Y-76554952D01*
X197229588Y-76447189D02*
X197321186Y-76492090D01*
X197132601Y-76422044D02*
X197229588Y-76447189D01*
X197032022Y-76422044D02*
X197132601Y-76422044D01*
X196933239Y-76441801D02*
X197032022Y-76422044D01*
X196843437Y-76484906D02*
X196933239Y-76441801D01*
X196762614Y-76547768D02*
X196843437Y-76484906D01*
X196701548Y-76626794D02*
X196762614Y-76547768D01*
X196658443Y-76720189D02*
X196701548Y-76626794D01*
X196638687Y-76818972D02*
X196658443Y-76720189D01*
X196642279Y-76923143D02*
X196638687Y-76818972D01*
X196665627Y-77021925D02*
X196642279Y-76923143D01*
X196712325Y-77111728D02*
X196665627Y-77021925D01*
X196775187Y-77188958D02*
X196712325Y-77111728D01*
X196854213Y-77246432D02*
X196775187Y-77188958D01*
X196942219Y-77287741D02*
X196854213Y-77246432D01*
X197037410Y-77307498D02*
X196942219Y-77287741D01*
X197136193Y-77305701D02*
X197037410Y-77307498D01*
X197229588Y-77280557D02*
X197136193Y-77305701D01*
X197315798Y-77237452D02*
X197229588Y-77280557D01*
X197391232Y-77176386D02*
X197315798Y-77237452D01*
X197870778Y-77390116D02*
X197752238Y-77533800D01*
X197958784Y-77230267D02*
X197870778Y-77390116D01*
X198014462Y-77056050D02*
X197958784Y-77230267D01*
X198034218Y-76871057D02*
X198014462Y-77056050D01*
X198018054Y-76689656D02*
X198034218Y-76871057D01*
X197965969Y-76511847D02*
X198018054Y-76689656D01*
X197881554Y-76348406D02*
X197965969Y-76511847D01*
X197768403Y-76206518D02*
X197881554Y-76348406D01*
X197642679Y-76098755D02*
X197768403Y-76206518D01*
X197497199Y-76010749D02*
X197642679Y-76098755D01*
X197339147Y-75953275D02*
X197497199Y-76010749D01*
X197173910Y-75920946D02*
X197339147Y-75953275D01*
X197006877Y-75919150D02*
X197173910Y-75920946D01*
X196841640Y-75944295D02*
X197006877Y-75919150D01*
X196681792Y-75999972D02*
X196841640Y-75944295D01*
X196534516Y-76082591D02*
X196681792Y-75999972D01*
X196403404Y-76188558D02*
X196534516Y-76082591D01*
X196299233Y-76317873D02*
X196403404Y-76188558D01*
X196216615Y-76465150D02*
X196299233Y-76317873D01*
X196160937Y-76624998D02*
X196216615Y-76465150D01*
X196133996Y-76788439D02*
X196160937Y-76624998D01*
X196133996Y-76957268D02*
X196133996Y-76788439D01*
X196166325Y-77122504D02*
X196133996Y-76957268D01*
X196225595Y-77278761D02*
X196166325Y-77122504D01*
X196313601Y-77424241D02*
X196225595Y-77278761D01*
X196419568Y-77548168D02*
X196313601Y-77424241D01*
X196565049Y-77664912D02*
X196419568Y-77548168D01*
X196728489Y-77749326D02*
X196565049Y-77664912D01*
X196906298Y-77801412D02*
X196728489Y-77749326D01*
X197089496Y-77815780D02*
X196906298Y-77801412D01*
X197274489Y-77796023D02*
X197089496Y-77815780D01*
X197448706Y-77740346D02*
X197274489Y-77796023D01*
X197610350Y-77650543D02*
X197448706Y-77740346D01*
X197752238Y-77533800D02*
X197610350Y-77650543D01*
X202840452Y-71702022D02*
X202777590Y-71779252D01*
X202881761Y-71614015D02*
X202840452Y-71702022D01*
X202905109Y-71518824D02*
X202881761Y-71614015D01*
X202906905Y-71420042D02*
X202905109Y-71518824D01*
X202885353Y-71323055D02*
X202906905Y-71420042D01*
X202844044Y-71235048D02*
X202885353Y-71323055D01*
X202781182Y-71157818D02*
X202844044Y-71235048D01*
X202707544Y-71094956D02*
X202781182Y-71157818D01*
X202615945Y-71050055D02*
X202707544Y-71094956D01*
X202518958Y-71024910D02*
X202615945Y-71050055D01*
X202418380Y-71024910D02*
X202518958Y-71024910D01*
X202319597Y-71044667D02*
X202418380Y-71024910D01*
X202229794Y-71087772D02*
X202319597Y-71044667D01*
X202148972Y-71150634D02*
X202229794Y-71087772D01*
X202087906Y-71229660D02*
X202148972Y-71150634D01*
X202044801Y-71323055D02*
X202087906Y-71229660D01*
X202025044Y-71421838D02*
X202044801Y-71323055D01*
X202028636Y-71526009D02*
X202025044Y-71421838D01*
X202051985Y-71624791D02*
X202028636Y-71526009D01*
X202098682Y-71714594D02*
X202051985Y-71624791D01*
X202163340Y-71793620D02*
X202098682Y-71714594D01*
X202240570Y-71849298D02*
X202163340Y-71793620D01*
X202328577Y-71890607D02*
X202240570Y-71849298D01*
X202423768Y-71910364D02*
X202328577Y-71890607D01*
X202522550Y-71908568D02*
X202423768Y-71910364D01*
X202615945Y-71883423D02*
X202522550Y-71908568D01*
X202702156Y-71840318D02*
X202615945Y-71883423D01*
X202777590Y-71779252D02*
X202702156Y-71840318D01*
X203257135Y-71992982D02*
X203138596Y-72136666D01*
X203345142Y-71833133D02*
X203257135Y-71992982D01*
X203400820Y-71658916D02*
X203345142Y-71833133D01*
X203420576Y-71473923D02*
X203400820Y-71658916D01*
X203404412Y-71292522D02*
X203420576Y-71473923D01*
X203352326Y-71114713D02*
X203404412Y-71292522D01*
X203267912Y-70951272D02*
X203352326Y-71114713D01*
X203154761Y-70809384D02*
X203267912Y-70951272D01*
X203029037Y-70701621D02*
X203154761Y-70809384D01*
X202883557Y-70613615D02*
X203029037Y-70701621D01*
X202725504Y-70556141D02*
X202883557Y-70613615D01*
X202560268Y-70523812D02*
X202725504Y-70556141D01*
X202393235Y-70522016D02*
X202560268Y-70523812D01*
X202227998Y-70547161D02*
X202393235Y-70522016D01*
X202068150Y-70602838D02*
X202227998Y-70547161D01*
X201920873Y-70685457D02*
X202068150Y-70602838D01*
X201789762Y-70791424D02*
X201920873Y-70685457D01*
X201685591Y-70920739D02*
X201789762Y-70791424D01*
X201602972Y-71068016D02*
X201685591Y-70920739D01*
X201547295Y-71227864D02*
X201602972Y-71068016D01*
X201520354Y-71391305D02*
X201547295Y-71227864D01*
X201520354Y-71560134D02*
X201520354Y-71391305D01*
X201552683Y-71725370D02*
X201520354Y-71560134D01*
X201611953Y-71881627D02*
X201552683Y-71725370D01*
X201699959Y-72027107D02*
X201611953Y-71881627D01*
X201805926Y-72151034D02*
X201699959Y-72027107D01*
X201951406Y-72267778D02*
X201805926Y-72151034D01*
X202114847Y-72352192D02*
X201951406Y-72267778D01*
X202292656Y-72404278D02*
X202114847Y-72352192D01*
X202475853Y-72418646D02*
X202292656Y-72404278D01*
X202660846Y-72398890D02*
X202475853Y-72418646D01*
X202835063Y-72343212D02*
X202660846Y-72398890D01*
X202996708Y-72253409D02*
X202835063Y-72343212D01*
X203138596Y-72136666D02*
X202996708Y-72253409D01*
D13*
X197974949Y-75964051D02*
X197795344Y-76143656D01*
X201567051Y-72371949D02*
X201746656Y-72192344D01*
X197974949Y-75964051D02*
X197076923Y-75066026D01*
X198872974Y-76862077D02*
X197974949Y-75964051D01*
X202465077Y-73269974D02*
X198872974Y-76862077D01*
X201567051Y-72371949D02*
X202465077Y-73269974D01*
X200669026Y-71473923D02*
X201567051Y-72371949D01*
X197076923Y-75066026D02*
X200669026Y-71473923D01*
D12*
X205135906Y-74411844D02*
X205198768Y-74334614D01*
X205094597Y-74499851D02*
X205135906Y-74411844D01*
X205071248Y-74595042D02*
X205094597Y-74499851D01*
X205069452Y-74693824D02*
X205071248Y-74595042D01*
X205091005Y-74790811D02*
X205069452Y-74693824D01*
X205132314Y-74878818D02*
X205091005Y-74790811D01*
X205195176Y-74956048D02*
X205132314Y-74878818D01*
X205268814Y-75018910D02*
X205195176Y-74956048D01*
X205360412Y-75063811D02*
X205268814Y-75018910D01*
X205457399Y-75088956D02*
X205360412Y-75063811D01*
X205557978Y-75088956D02*
X205457399Y-75088956D01*
X205656761Y-75069199D02*
X205557978Y-75088956D01*
X205746563Y-75026094D02*
X205656761Y-75069199D01*
X205827386Y-74963232D02*
X205746563Y-75026094D01*
X205888452Y-74884206D02*
X205827386Y-74963232D01*
X205931557Y-74790811D02*
X205888452Y-74884206D01*
X205951313Y-74692028D02*
X205931557Y-74790811D01*
X205947721Y-74587857D02*
X205951313Y-74692028D01*
X205924373Y-74489075D02*
X205947721Y-74587857D01*
X205877675Y-74399272D02*
X205924373Y-74489075D01*
X205814813Y-74322042D02*
X205877675Y-74399272D01*
X205735787Y-74264568D02*
X205814813Y-74322042D01*
X205647781Y-74223259D02*
X205735787Y-74264568D01*
X205552590Y-74203502D02*
X205647781Y-74223259D01*
X205453807Y-74205299D02*
X205552590Y-74203502D01*
X205360412Y-74230443D02*
X205453807Y-74205299D01*
X205274202Y-74273548D02*
X205360412Y-74230443D01*
X205198768Y-74334614D02*
X205274202Y-74273548D01*
X204719222Y-74120884D02*
X204837762Y-73977200D01*
X204631216Y-74280733D02*
X204719222Y-74120884D01*
X204575538Y-74454950D02*
X204631216Y-74280733D01*
X204555782Y-74639943D02*
X204575538Y-74454950D01*
X204571946Y-74821344D02*
X204555782Y-74639943D01*
X204624031Y-74999153D02*
X204571946Y-74821344D01*
X204708446Y-75162594D02*
X204624031Y-74999153D01*
X204821597Y-75304482D02*
X204708446Y-75162594D01*
X204947321Y-75412245D02*
X204821597Y-75304482D01*
X205092801Y-75500251D02*
X204947321Y-75412245D01*
X205250853Y-75557725D02*
X205092801Y-75500251D01*
X205416090Y-75590054D02*
X205250853Y-75557725D01*
X205583123Y-75591850D02*
X205416090Y-75590054D01*
X205748360Y-75566705D02*
X205583123Y-75591850D01*
X205908208Y-75511028D02*
X205748360Y-75566705D01*
X206055484Y-75428409D02*
X205908208Y-75511028D01*
X206186596Y-75322442D02*
X206055484Y-75428409D01*
X206290767Y-75193127D02*
X206186596Y-75322442D01*
X206373385Y-75045850D02*
X206290767Y-75193127D01*
X206429063Y-74886002D02*
X206373385Y-75045850D01*
X206456004Y-74722561D02*
X206429063Y-74886002D01*
X206456004Y-74553732D02*
X206456004Y-74722561D01*
X206423675Y-74388496D02*
X206456004Y-74553732D01*
X206364405Y-74232239D02*
X206423675Y-74388496D01*
X206276399Y-74086759D02*
X206364405Y-74232239D01*
X206170432Y-73962832D02*
X206276399Y-74086759D01*
X206024951Y-73846088D02*
X206170432Y-73962832D01*
X205861511Y-73761674D02*
X206024951Y-73846088D01*
X205683702Y-73709588D02*
X205861511Y-73761674D01*
X205500504Y-73695220D02*
X205683702Y-73709588D01*
X205315511Y-73714977D02*
X205500504Y-73695220D01*
X205141294Y-73770654D02*
X205315511Y-73714977D01*
X204979650Y-73860457D02*
X205141294Y-73770654D01*
X204837762Y-73977200D02*
X204979650Y-73860457D01*
X199749548Y-79808978D02*
X199812410Y-79731748D01*
X199708239Y-79896985D02*
X199749548Y-79808978D01*
X199684891Y-79992176D02*
X199708239Y-79896985D01*
X199683095Y-80090958D02*
X199684891Y-79992176D01*
X199704647Y-80187945D02*
X199683095Y-80090958D01*
X199745956Y-80275952D02*
X199704647Y-80187945D01*
X199808818Y-80353182D02*
X199745956Y-80275952D01*
X199882456Y-80416044D02*
X199808818Y-80353182D01*
X199974055Y-80460945D02*
X199882456Y-80416044D01*
X200071042Y-80486090D02*
X199974055Y-80460945D01*
X200171620Y-80486090D02*
X200071042Y-80486090D01*
X200270403Y-80466333D02*
X200171620Y-80486090D01*
X200360206Y-80423228D02*
X200270403Y-80466333D01*
X200441028Y-80360366D02*
X200360206Y-80423228D01*
X200502094Y-80281340D02*
X200441028Y-80360366D01*
X200545199Y-80187945D02*
X200502094Y-80281340D01*
X200564956Y-80089162D02*
X200545199Y-80187945D01*
X200561364Y-79984991D02*
X200564956Y-80089162D01*
X200538015Y-79886209D02*
X200561364Y-79984991D01*
X200491318Y-79796406D02*
X200538015Y-79886209D01*
X200426660Y-79717380D02*
X200491318Y-79796406D01*
X200349430Y-79661702D02*
X200426660Y-79717380D01*
X200261423Y-79620393D02*
X200349430Y-79661702D01*
X200166232Y-79600636D02*
X200261423Y-79620393D01*
X200067450Y-79602432D02*
X200166232Y-79600636D01*
X199974055Y-79627577D02*
X200067450Y-79602432D01*
X199887844Y-79670682D02*
X199974055Y-79627577D01*
X199812410Y-79731748D02*
X199887844Y-79670682D01*
X199332865Y-79518018D02*
X199451404Y-79374334D01*
X199244858Y-79677867D02*
X199332865Y-79518018D01*
X199189180Y-79852084D02*
X199244858Y-79677867D01*
X199169424Y-80037077D02*
X199189180Y-79852084D01*
X199185588Y-80218478D02*
X199169424Y-80037077D01*
X199237674Y-80396287D02*
X199185588Y-80218478D01*
X199322088Y-80559728D02*
X199237674Y-80396287D01*
X199435239Y-80701616D02*
X199322088Y-80559728D01*
X199560963Y-80809379D02*
X199435239Y-80701616D01*
X199706443Y-80897385D02*
X199560963Y-80809379D01*
X199864496Y-80954859D02*
X199706443Y-80897385D01*
X200029732Y-80987188D02*
X199864496Y-80954859D01*
X200196765Y-80988984D02*
X200029732Y-80987188D01*
X200362002Y-80963839D02*
X200196765Y-80988984D01*
X200521850Y-80908162D02*
X200362002Y-80963839D01*
X200669127Y-80825543D02*
X200521850Y-80908162D01*
X200800238Y-80719576D02*
X200669127Y-80825543D01*
X200904409Y-80590261D02*
X200800238Y-80719576D01*
X200987028Y-80442984D02*
X200904409Y-80590261D01*
X201042705Y-80283136D02*
X200987028Y-80442984D01*
X201069646Y-80119695D02*
X201042705Y-80283136D01*
X201069646Y-79950866D02*
X201069646Y-80119695D01*
X201037317Y-79785630D02*
X201069646Y-79950866D01*
X200978047Y-79629373D02*
X201037317Y-79785630D01*
X200890041Y-79483893D02*
X200978047Y-79629373D01*
X200784074Y-79359966D02*
X200890041Y-79483893D01*
X200638594Y-79243222D02*
X200784074Y-79359966D01*
X200475153Y-79158808D02*
X200638594Y-79243222D01*
X200297344Y-79106722D02*
X200475153Y-79158808D01*
X200114147Y-79092354D02*
X200297344Y-79106722D01*
X199929154Y-79112110D02*
X200114147Y-79092354D01*
X199754937Y-79167788D02*
X199929154Y-79112110D01*
X199593292Y-79257591D02*
X199754937Y-79167788D01*
X199451404Y-79374334D02*
X199593292Y-79257591D01*
D13*
X204615051Y-75546949D02*
X204794656Y-75367344D01*
X201022949Y-79139051D02*
X200843344Y-79318656D01*
X204615051Y-75546949D02*
X205513077Y-76444974D01*
X203717026Y-74648923D02*
X204615051Y-75546949D01*
X200124923Y-78241026D02*
X203717026Y-74648923D01*
X201022949Y-79139051D02*
X200124923Y-78241026D01*
X201920974Y-80037077D02*
X201022949Y-79139051D01*
X205513077Y-76444974D02*
X201920974Y-80037077D01*
D10*
X38682000Y-40448000D02*
G75*
G03X38682000Y-40448000I-254000J0D01*
G01*
X36008000Y-43892000D02*
X36008000Y-29892000D01*
X51008000Y-29892000D02*
X36008000Y-29892000D01*
X51008000Y-43892000D02*
X51008000Y-29892000D01*
X36008000Y-43892000D02*
X51008000Y-43892000D01*
D14*
X103584000Y-37846000D02*
X103584000Y-35687000D01*
X103584000Y-37846000D02*
X73612000Y-37846000D01*
X103584000Y-32258000D02*
X73612000Y-32258000D01*
X73612000Y-32258000D02*
X73612000Y-37846000D01*
X103584000Y-35687000D02*
G75*
G02X103584000Y-34417000I0J635000D01*
G01*
X103584000Y-34417000D02*
X103584000Y-32258000D01*
D12*
X92308940Y-44011660D02*
X92408000Y-44001500D01*
X92217500Y-44044680D02*
X92308940Y-44011660D01*
X92133680Y-44095480D02*
X92217500Y-44044680D01*
X92062560Y-44164060D02*
X92133680Y-44095480D01*
X92009220Y-44247880D02*
X92062560Y-44164060D01*
X91976200Y-44339320D02*
X92009220Y-44247880D01*
X91966040Y-44438380D02*
X91976200Y-44339320D01*
X91973660Y-44534900D02*
X91966040Y-44438380D01*
X92006680Y-44631420D02*
X91973660Y-44534900D01*
X92057480Y-44717780D02*
X92006680Y-44631420D01*
X92128600Y-44788900D02*
X92057480Y-44717780D01*
X92212420Y-44844780D02*
X92128600Y-44788900D01*
X92306400Y-44877800D02*
X92212420Y-44844780D01*
X92408000Y-44890500D02*
X92306400Y-44877800D01*
X92507060Y-44877800D02*
X92408000Y-44890500D01*
X92603580Y-44842240D02*
X92507060Y-44877800D01*
X92687400Y-44786360D02*
X92603580Y-44842240D01*
X92758520Y-44710160D02*
X92687400Y-44786360D01*
X92811860Y-44623800D02*
X92758520Y-44710160D01*
X92842340Y-44527280D02*
X92811860Y-44623800D01*
X92852500Y-44428220D02*
X92842340Y-44527280D01*
X92837260Y-44331700D02*
X92852500Y-44428220D01*
X92804240Y-44240260D02*
X92837260Y-44331700D01*
X92750900Y-44158980D02*
X92804240Y-44240260D01*
X92679780Y-44090400D02*
X92750900Y-44158980D01*
X92595960Y-44042140D02*
X92679780Y-44090400D01*
X92504520Y-44011660D02*
X92595960Y-44042140D01*
X92408000Y-44001500D02*
X92504520Y-44011660D01*
X92220040Y-43511280D02*
X92405460Y-43493500D01*
X92044780Y-43562080D02*
X92220040Y-43511280D01*
X91882220Y-43645900D02*
X92044780Y-43562080D01*
X91737440Y-43762740D02*
X91882220Y-43645900D01*
X91620600Y-43902440D02*
X91737440Y-43762740D01*
X91531700Y-44065000D02*
X91620600Y-43902440D01*
X91475820Y-44240260D02*
X91531700Y-44065000D01*
X91455500Y-44420600D02*
X91475820Y-44240260D01*
X91468200Y-44585700D02*
X91455500Y-44420600D01*
X91508840Y-44750800D02*
X91468200Y-44585700D01*
X91579960Y-44903200D02*
X91508840Y-44750800D01*
X91673940Y-45042900D02*
X91579960Y-44903200D01*
X91790780Y-45162280D02*
X91673940Y-45042900D01*
X91925400Y-45261340D02*
X91790780Y-45162280D01*
X92077800Y-45335000D02*
X91925400Y-45261340D01*
X92240360Y-45380720D02*
X92077800Y-45335000D01*
X92408000Y-45398500D02*
X92240360Y-45380720D01*
X92573100Y-45380720D02*
X92408000Y-45398500D01*
X92735660Y-45335000D02*
X92573100Y-45380720D01*
X92888060Y-45261340D02*
X92735660Y-45335000D01*
X93022680Y-45164820D02*
X92888060Y-45261340D01*
X93142060Y-45045440D02*
X93022680Y-45164820D01*
X93236040Y-44905740D02*
X93142060Y-45045440D01*
X93304620Y-44753340D02*
X93236040Y-44905740D01*
X93345260Y-44588240D02*
X93304620Y-44753340D01*
X93357960Y-44425680D02*
X93345260Y-44588240D01*
X93337640Y-44240260D02*
X93357960Y-44425680D01*
X93281760Y-44065000D02*
X93337640Y-44240260D01*
X93192860Y-43902440D02*
X93281760Y-44065000D01*
X93073480Y-43762740D02*
X93192860Y-43902440D01*
X92928700Y-43645900D02*
X93073480Y-43762740D01*
X92766140Y-43562080D02*
X92928700Y-43645900D01*
X92588340Y-43511280D02*
X92766140Y-43562080D01*
X92405460Y-43493500D02*
X92588340Y-43511280D01*
X84683860Y-44019280D02*
X84782920Y-44009120D01*
X84592420Y-44052300D02*
X84683860Y-44019280D01*
X84508600Y-44103100D02*
X84592420Y-44052300D01*
X84437480Y-44171680D02*
X84508600Y-44103100D01*
X84384140Y-44255500D02*
X84437480Y-44171680D01*
X84351120Y-44346940D02*
X84384140Y-44255500D01*
X84340960Y-44446000D02*
X84351120Y-44346940D01*
X84348580Y-44542520D02*
X84340960Y-44446000D01*
X84381600Y-44639040D02*
X84348580Y-44542520D01*
X84432400Y-44725400D02*
X84381600Y-44639040D01*
X84503520Y-44796520D02*
X84432400Y-44725400D01*
X84587340Y-44852400D02*
X84503520Y-44796520D01*
X84681320Y-44885420D02*
X84587340Y-44852400D01*
X84782920Y-44898120D02*
X84681320Y-44885420D01*
X84881980Y-44885420D02*
X84782920Y-44898120D01*
X84978500Y-44849860D02*
X84881980Y-44885420D01*
X85062320Y-44793980D02*
X84978500Y-44849860D01*
X85133440Y-44717780D02*
X85062320Y-44793980D01*
X85186780Y-44631420D02*
X85133440Y-44717780D01*
X85217260Y-44534900D02*
X85186780Y-44631420D01*
X85227420Y-44433300D02*
X85217260Y-44534900D01*
X85212180Y-44339320D02*
X85227420Y-44433300D01*
X85179160Y-44247880D02*
X85212180Y-44339320D01*
X85125820Y-44166600D02*
X85179160Y-44247880D01*
X85054700Y-44098020D02*
X85125820Y-44166600D01*
X84970880Y-44049760D02*
X85054700Y-44098020D01*
X84879440Y-44019280D02*
X84970880Y-44049760D01*
X84782920Y-44009120D02*
X84879440Y-44019280D01*
X84594960Y-43518900D02*
X84780380Y-43501120D01*
X84419700Y-43569700D02*
X84594960Y-43518900D01*
X84257140Y-43653520D02*
X84419700Y-43569700D01*
X84112360Y-43770360D02*
X84257140Y-43653520D01*
X83995520Y-43910060D02*
X84112360Y-43770360D01*
X83906620Y-44072620D02*
X83995520Y-43910060D01*
X83850740Y-44247880D02*
X83906620Y-44072620D01*
X83830420Y-44428220D02*
X83850740Y-44247880D01*
X83843120Y-44593320D02*
X83830420Y-44428220D01*
X83883760Y-44758420D02*
X83843120Y-44593320D01*
X83954880Y-44910820D02*
X83883760Y-44758420D01*
X84048860Y-45050520D02*
X83954880Y-44910820D01*
X84165700Y-45169900D02*
X84048860Y-45050520D01*
X84300320Y-45268960D02*
X84165700Y-45169900D01*
X84452720Y-45342620D02*
X84300320Y-45268960D01*
X84615280Y-45388340D02*
X84452720Y-45342620D01*
X84782920Y-45406120D02*
X84615280Y-45388340D01*
X84948020Y-45388340D02*
X84782920Y-45406120D01*
X85110580Y-45342620D02*
X84948020Y-45388340D01*
X85262980Y-45268960D02*
X85110580Y-45342620D01*
X85397600Y-45172440D02*
X85262980Y-45268960D01*
X85516980Y-45053060D02*
X85397600Y-45172440D01*
X85610960Y-44913360D02*
X85516980Y-45053060D01*
X85679540Y-44760960D02*
X85610960Y-44913360D01*
X85720180Y-44595860D02*
X85679540Y-44760960D01*
X85732880Y-44433300D02*
X85720180Y-44595860D01*
X85712560Y-44247880D02*
X85732880Y-44433300D01*
X85656680Y-44072620D02*
X85712560Y-44247880D01*
X85567780Y-43910060D02*
X85656680Y-44072620D01*
X85448400Y-43770360D02*
X85567780Y-43910060D01*
X85303620Y-43653520D02*
X85448400Y-43770360D01*
X85141060Y-43569700D02*
X85303620Y-43653520D01*
X84963260Y-43518900D02*
X85141060Y-43569700D01*
X84780380Y-43501120D02*
X84963260Y-43518900D01*
D13*
X91138000Y-44446000D02*
X91392000Y-44446000D01*
X86058000Y-44446000D02*
X85804000Y-44446000D01*
X91138000Y-44446000D02*
X91138000Y-45716000D01*
X91138000Y-43176000D02*
X91138000Y-44446000D01*
X86058000Y-43176000D02*
X91138000Y-43176000D01*
X86058000Y-44446000D02*
X86058000Y-43176000D01*
X86058000Y-45716000D02*
X86058000Y-44446000D01*
X91138000Y-45716000D02*
X86058000Y-45716000D01*
D11*
X69479999Y-41612002D02*
G75*
G03X69479999Y-41612002I-1778000J0D01*
G01*
X70749999Y-42638162D02*
X70749999Y-40596002D01*
X64653999Y-42607682D02*
X64653999Y-40596002D01*
X69860999Y-38564002D02*
X65542999Y-38564002D01*
X65542999Y-44660002D02*
X69860999Y-44660002D01*
X69480000Y-32212002D02*
G75*
G03X69480000Y-32212002I-1778000J0D01*
G01*
X70750000Y-33238162D02*
X70750000Y-31196002D01*
X64654000Y-33207682D02*
X64654000Y-31196002D01*
X69861000Y-29164002D02*
X65543000Y-29164002D01*
X65543000Y-35260002D02*
X69861000Y-35260002D01*
D15*
X220884666Y-74890380D02*
X220884666Y-75604666D01*
X220837047Y-75747523D01*
X220741809Y-75842761D01*
X220598952Y-75890380D01*
X220503714Y-75890380D01*
X221884666Y-75890380D02*
X221313238Y-75890380D01*
X221598952Y-75890380D02*
X221598952Y-74890380D01*
X221503714Y-75033238D01*
X221408476Y-75128476D01*
X221313238Y-75176095D01*
D12*
X77066400Y-43282914D02*
X77037371Y-43311942D01*
X76950285Y-43340971D01*
X76892228Y-43340971D01*
X76805142Y-43311942D01*
X76747085Y-43253885D01*
X76718057Y-43195828D01*
X76689028Y-43079714D01*
X76689028Y-42992628D01*
X76718057Y-42876514D01*
X76747085Y-42818457D01*
X76805142Y-42760400D01*
X76892228Y-42731371D01*
X76950285Y-42731371D01*
X77037371Y-42760400D01*
X77066400Y-42789428D01*
X77298628Y-42789428D02*
X77327657Y-42760400D01*
X77385714Y-42731371D01*
X77530857Y-42731371D01*
X77588914Y-42760400D01*
X77617942Y-42789428D01*
X77646971Y-42847485D01*
X77646971Y-42905542D01*
X77617942Y-42992628D01*
X77269600Y-43340971D01*
X77646971Y-43340971D01*
X99926400Y-43282914D02*
X99897371Y-43311942D01*
X99810285Y-43340971D01*
X99752228Y-43340971D01*
X99665142Y-43311942D01*
X99607085Y-43253885D01*
X99578057Y-43195828D01*
X99549028Y-43079714D01*
X99549028Y-42992628D01*
X99578057Y-42876514D01*
X99607085Y-42818457D01*
X99665142Y-42760400D01*
X99752228Y-42731371D01*
X99810285Y-42731371D01*
X99897371Y-42760400D01*
X99926400Y-42789428D01*
X100506971Y-43340971D02*
X100158628Y-43340971D01*
X100332800Y-43340971D02*
X100332800Y-42731371D01*
X100274742Y-42818457D01*
X100216685Y-42876514D01*
X100158628Y-42905542D01*
D15*
X123920476Y-42822380D02*
X123920476Y-41822380D01*
X124253809Y-42536666D01*
X124587142Y-41822380D01*
X124587142Y-42822380D01*
X125063333Y-41822380D02*
X125063333Y-42631904D01*
X125110952Y-42727142D01*
X125158571Y-42774761D01*
X125253809Y-42822380D01*
X125444285Y-42822380D01*
X125539523Y-42774761D01*
X125587142Y-42727142D01*
X125634761Y-42631904D01*
X125634761Y-41822380D01*
X126015714Y-41822380D02*
X126682380Y-42822380D01*
X126682380Y-41822380D02*
X126015714Y-42822380D01*
X127587142Y-42822380D02*
X127015714Y-42822380D01*
X127301428Y-42822380D02*
X127301428Y-41822380D01*
X127206190Y-41965238D01*
X127110952Y-42060476D01*
X127015714Y-42108095D01*
X167608476Y-42822380D02*
X167608476Y-41822380D01*
X167941809Y-42536666D01*
X168275142Y-41822380D01*
X168275142Y-42822380D01*
X168751333Y-41822380D02*
X168751333Y-42631904D01*
X168798952Y-42727142D01*
X168846571Y-42774761D01*
X168941809Y-42822380D01*
X169132285Y-42822380D01*
X169227523Y-42774761D01*
X169275142Y-42727142D01*
X169322761Y-42631904D01*
X169322761Y-41822380D01*
X169703714Y-41822380D02*
X170370380Y-42822380D01*
X170370380Y-41822380D02*
X169703714Y-42822380D01*
X170703714Y-41917619D02*
X170751333Y-41870000D01*
X170846571Y-41822380D01*
X171084666Y-41822380D01*
X171179904Y-41870000D01*
X171227523Y-41917619D01*
X171275142Y-42012857D01*
X171275142Y-42108095D01*
X171227523Y-42250952D01*
X170656095Y-42822380D01*
X171275142Y-42822380D01*
X209406286Y-131822380D02*
X209739620Y-132822380D01*
X210072953Y-131822380D01*
X210977715Y-132822380D02*
X210644381Y-132346190D01*
X210406286Y-132822380D02*
X210406286Y-131822380D01*
X210787239Y-131822380D01*
X210882477Y-131870000D01*
X210930096Y-131917619D01*
X210977715Y-132012857D01*
X210977715Y-132155714D01*
X210930096Y-132250952D01*
X210882477Y-132298571D01*
X210787239Y-132346190D01*
X210406286Y-132346190D01*
X211311048Y-131822380D02*
X211930096Y-131822380D01*
X211596762Y-132203333D01*
X211739620Y-132203333D01*
X211834858Y-132250952D01*
X211882477Y-132298571D01*
X211930096Y-132393809D01*
X211930096Y-132631904D01*
X211882477Y-132727142D01*
X211834858Y-132774761D01*
X211739620Y-132822380D01*
X211453905Y-132822380D01*
X211358667Y-132774761D01*
X211311048Y-132727142D01*
X212311048Y-131917619D02*
X212358667Y-131870000D01*
X212453905Y-131822380D01*
X212692001Y-131822380D01*
X212787239Y-131870000D01*
X212834858Y-131917619D01*
X212882477Y-132012857D01*
X212882477Y-132108095D01*
X212834858Y-132250952D01*
X212263429Y-132822380D01*
X212882477Y-132822380D01*
X185120286Y-131822380D02*
X185453620Y-132822380D01*
X185786953Y-131822380D01*
X186691715Y-132822380D02*
X186358381Y-132346190D01*
X186120286Y-132822380D02*
X186120286Y-131822380D01*
X186501239Y-131822380D01*
X186596477Y-131870000D01*
X186644096Y-131917619D01*
X186691715Y-132012857D01*
X186691715Y-132155714D01*
X186644096Y-132250952D01*
X186596477Y-132298571D01*
X186501239Y-132346190D01*
X186120286Y-132346190D01*
X187025048Y-131822380D02*
X187644096Y-131822380D01*
X187310762Y-132203333D01*
X187453620Y-132203333D01*
X187548858Y-132250952D01*
X187596477Y-132298571D01*
X187644096Y-132393809D01*
X187644096Y-132631904D01*
X187596477Y-132727142D01*
X187548858Y-132774761D01*
X187453620Y-132822380D01*
X187167905Y-132822380D01*
X187072667Y-132774761D01*
X187025048Y-132727142D01*
X188596477Y-132822380D02*
X188025048Y-132822380D01*
X188310762Y-132822380D02*
X188310762Y-131822380D01*
X188215524Y-131965238D01*
X188120286Y-132060476D01*
X188025048Y-132108095D01*
X160834286Y-131822380D02*
X161167620Y-132822380D01*
X161500953Y-131822380D01*
X162405715Y-132822380D02*
X162072381Y-132346190D01*
X161834286Y-132822380D02*
X161834286Y-131822380D01*
X162215239Y-131822380D01*
X162310477Y-131870000D01*
X162358096Y-131917619D01*
X162405715Y-132012857D01*
X162405715Y-132155714D01*
X162358096Y-132250952D01*
X162310477Y-132298571D01*
X162215239Y-132346190D01*
X161834286Y-132346190D01*
X162739048Y-131822380D02*
X163358096Y-131822380D01*
X163024762Y-132203333D01*
X163167620Y-132203333D01*
X163262858Y-132250952D01*
X163310477Y-132298571D01*
X163358096Y-132393809D01*
X163358096Y-132631904D01*
X163310477Y-132727142D01*
X163262858Y-132774761D01*
X163167620Y-132822380D01*
X162881905Y-132822380D01*
X162786667Y-132774761D01*
X162739048Y-132727142D01*
X163977143Y-131822380D02*
X164072381Y-131822380D01*
X164167620Y-131870000D01*
X164215239Y-131917619D01*
X164262858Y-132012857D01*
X164310477Y-132203333D01*
X164310477Y-132441428D01*
X164262858Y-132631904D01*
X164215239Y-132727142D01*
X164167620Y-132774761D01*
X164072381Y-132822380D01*
X163977143Y-132822380D01*
X163881905Y-132774761D01*
X163834286Y-132727142D01*
X163786667Y-132631904D01*
X163739048Y-132441428D01*
X163739048Y-132203333D01*
X163786667Y-132012857D01*
X163834286Y-131917619D01*
X163881905Y-131870000D01*
X163977143Y-131822380D01*
X136548286Y-131822380D02*
X136881620Y-132822380D01*
X137214953Y-131822380D01*
X138119715Y-132822380D02*
X137786381Y-132346190D01*
X137548286Y-132822380D02*
X137548286Y-131822380D01*
X137929239Y-131822380D01*
X138024477Y-131870000D01*
X138072096Y-131917619D01*
X138119715Y-132012857D01*
X138119715Y-132155714D01*
X138072096Y-132250952D01*
X138024477Y-132298571D01*
X137929239Y-132346190D01*
X137548286Y-132346190D01*
X138500667Y-131917619D02*
X138548286Y-131870000D01*
X138643524Y-131822380D01*
X138881620Y-131822380D01*
X138976858Y-131870000D01*
X139024477Y-131917619D01*
X139072096Y-132012857D01*
X139072096Y-132108095D01*
X139024477Y-132250952D01*
X138453048Y-132822380D01*
X139072096Y-132822380D01*
X139548286Y-132822380D02*
X139738762Y-132822380D01*
X139834001Y-132774761D01*
X139881620Y-132727142D01*
X139976858Y-132584285D01*
X140024477Y-132393809D01*
X140024477Y-132012857D01*
X139976858Y-131917619D01*
X139929239Y-131870000D01*
X139834001Y-131822380D01*
X139643524Y-131822380D01*
X139548286Y-131870000D01*
X139500667Y-131917619D01*
X139453048Y-132012857D01*
X139453048Y-132250952D01*
X139500667Y-132346190D01*
X139548286Y-132393809D01*
X139643524Y-132441428D01*
X139834001Y-132441428D01*
X139929239Y-132393809D01*
X139976858Y-132346190D01*
X140024477Y-132250952D01*
X112262287Y-131822380D02*
X112595621Y-132822380D01*
X112928954Y-131822380D01*
X113833716Y-132822380D02*
X113500382Y-132346190D01*
X113262287Y-132822380D02*
X113262287Y-131822380D01*
X113643240Y-131822380D01*
X113738478Y-131870000D01*
X113786097Y-131917619D01*
X113833716Y-132012857D01*
X113833716Y-132155714D01*
X113786097Y-132250952D01*
X113738478Y-132298571D01*
X113643240Y-132346190D01*
X113262287Y-132346190D01*
X114214668Y-131917619D02*
X114262287Y-131870000D01*
X114357525Y-131822380D01*
X114595621Y-131822380D01*
X114690859Y-131870000D01*
X114738478Y-131917619D01*
X114786097Y-132012857D01*
X114786097Y-132108095D01*
X114738478Y-132250952D01*
X114167049Y-132822380D01*
X114786097Y-132822380D01*
X115357525Y-132250952D02*
X115262287Y-132203333D01*
X115214668Y-132155714D01*
X115167049Y-132060476D01*
X115167049Y-132012857D01*
X115214668Y-131917619D01*
X115262287Y-131870000D01*
X115357525Y-131822380D01*
X115548002Y-131822380D01*
X115643240Y-131870000D01*
X115690859Y-131917619D01*
X115738478Y-132012857D01*
X115738478Y-132060476D01*
X115690859Y-132155714D01*
X115643240Y-132203333D01*
X115548002Y-132250952D01*
X115357525Y-132250952D01*
X115262287Y-132298571D01*
X115214668Y-132346190D01*
X115167049Y-132441428D01*
X115167049Y-132631904D01*
X115214668Y-132727142D01*
X115262287Y-132774761D01*
X115357525Y-132822380D01*
X115548002Y-132822380D01*
X115643240Y-132774761D01*
X115690859Y-132727142D01*
X115738478Y-132631904D01*
X115738478Y-132441428D01*
X115690859Y-132346190D01*
X115643240Y-132298571D01*
X115548002Y-132250952D01*
X87976286Y-131822380D02*
X88309620Y-132822380D01*
X88642953Y-131822380D01*
X89547715Y-132822380D02*
X89214381Y-132346190D01*
X88976286Y-132822380D02*
X88976286Y-131822380D01*
X89357239Y-131822380D01*
X89452477Y-131870000D01*
X89500096Y-131917619D01*
X89547715Y-132012857D01*
X89547715Y-132155714D01*
X89500096Y-132250952D01*
X89452477Y-132298571D01*
X89357239Y-132346190D01*
X88976286Y-132346190D01*
X89928667Y-131917619D02*
X89976286Y-131870000D01*
X90071524Y-131822380D01*
X90309620Y-131822380D01*
X90404858Y-131870000D01*
X90452477Y-131917619D01*
X90500096Y-132012857D01*
X90500096Y-132108095D01*
X90452477Y-132250952D01*
X89881048Y-132822380D01*
X90500096Y-132822380D01*
X90833429Y-131822380D02*
X91500096Y-131822380D01*
X91071524Y-132822380D01*
X63690286Y-131822380D02*
X64023620Y-132822380D01*
X64356953Y-131822380D01*
X65261715Y-132822380D02*
X64928381Y-132346190D01*
X64690286Y-132822380D02*
X64690286Y-131822380D01*
X65071239Y-131822380D01*
X65166477Y-131870000D01*
X65214096Y-131917619D01*
X65261715Y-132012857D01*
X65261715Y-132155714D01*
X65214096Y-132250952D01*
X65166477Y-132298571D01*
X65071239Y-132346190D01*
X64690286Y-132346190D01*
X65642667Y-131917619D02*
X65690286Y-131870000D01*
X65785524Y-131822380D01*
X66023620Y-131822380D01*
X66118858Y-131870000D01*
X66166477Y-131917619D01*
X66214096Y-132012857D01*
X66214096Y-132108095D01*
X66166477Y-132250952D01*
X65595048Y-132822380D01*
X66214096Y-132822380D01*
X67071239Y-131822380D02*
X66880762Y-131822380D01*
X66785524Y-131870000D01*
X66737905Y-131917619D01*
X66642667Y-132060476D01*
X66595048Y-132250952D01*
X66595048Y-132631904D01*
X66642667Y-132727142D01*
X66690286Y-132774761D01*
X66785524Y-132822380D01*
X66976001Y-132822380D01*
X67071239Y-132774761D01*
X67118858Y-132727142D01*
X67166477Y-132631904D01*
X67166477Y-132393809D01*
X67118858Y-132298571D01*
X67071239Y-132250952D01*
X66976001Y-132203333D01*
X66785524Y-132203333D01*
X66690286Y-132250952D01*
X66642667Y-132298571D01*
X66595048Y-132393809D01*
X209406286Y-107822379D02*
X209739620Y-108822379D01*
X210072953Y-107822379D01*
X210977715Y-108822379D02*
X210644381Y-108346189D01*
X210406286Y-108822379D02*
X210406286Y-107822379D01*
X210787239Y-107822379D01*
X210882477Y-107869999D01*
X210930096Y-107917618D01*
X210977715Y-108012856D01*
X210977715Y-108155713D01*
X210930096Y-108250951D01*
X210882477Y-108298570D01*
X210787239Y-108346189D01*
X210406286Y-108346189D01*
X211358667Y-107917618D02*
X211406286Y-107869999D01*
X211501524Y-107822379D01*
X211739620Y-107822379D01*
X211834858Y-107869999D01*
X211882477Y-107917618D01*
X211930096Y-108012856D01*
X211930096Y-108108094D01*
X211882477Y-108250951D01*
X211311048Y-108822379D01*
X211930096Y-108822379D01*
X212787239Y-108155713D02*
X212787239Y-108822379D01*
X212549143Y-107774760D02*
X212311048Y-108489046D01*
X212930096Y-108489046D01*
X185120286Y-107822379D02*
X185453620Y-108822379D01*
X185786953Y-107822379D01*
X186691715Y-108822379D02*
X186358381Y-108346189D01*
X186120286Y-108822379D02*
X186120286Y-107822379D01*
X186501239Y-107822379D01*
X186596477Y-107869999D01*
X186644096Y-107917618D01*
X186691715Y-108012856D01*
X186691715Y-108155713D01*
X186644096Y-108250951D01*
X186596477Y-108298570D01*
X186501239Y-108346189D01*
X186120286Y-108346189D01*
X187072667Y-107917618D02*
X187120286Y-107869999D01*
X187215524Y-107822379D01*
X187453620Y-107822379D01*
X187548858Y-107869999D01*
X187596477Y-107917618D01*
X187644096Y-108012856D01*
X187644096Y-108108094D01*
X187596477Y-108250951D01*
X187025048Y-108822379D01*
X187644096Y-108822379D01*
X187977429Y-107822379D02*
X188596477Y-107822379D01*
X188263143Y-108203332D01*
X188406001Y-108203332D01*
X188501239Y-108250951D01*
X188548858Y-108298570D01*
X188596477Y-108393808D01*
X188596477Y-108631903D01*
X188548858Y-108727141D01*
X188501239Y-108774760D01*
X188406001Y-108822379D01*
X188120286Y-108822379D01*
X188025048Y-108774760D01*
X187977429Y-108727141D01*
X160834286Y-107822379D02*
X161167620Y-108822379D01*
X161500953Y-107822379D01*
X162405715Y-108822379D02*
X162072381Y-108346189D01*
X161834286Y-108822379D02*
X161834286Y-107822379D01*
X162215239Y-107822379D01*
X162310477Y-107869999D01*
X162358096Y-107917618D01*
X162405715Y-108012856D01*
X162405715Y-108155713D01*
X162358096Y-108250951D01*
X162310477Y-108298570D01*
X162215239Y-108346189D01*
X161834286Y-108346189D01*
X162786667Y-107917618D02*
X162834286Y-107869999D01*
X162929524Y-107822379D01*
X163167620Y-107822379D01*
X163262858Y-107869999D01*
X163310477Y-107917618D01*
X163358096Y-108012856D01*
X163358096Y-108108094D01*
X163310477Y-108250951D01*
X162739048Y-108822379D01*
X163358096Y-108822379D01*
X163739048Y-107917618D02*
X163786667Y-107869999D01*
X163881905Y-107822379D01*
X164120001Y-107822379D01*
X164215239Y-107869999D01*
X164262858Y-107917618D01*
X164310477Y-108012856D01*
X164310477Y-108108094D01*
X164262858Y-108250951D01*
X163691429Y-108822379D01*
X164310477Y-108822379D01*
X136548286Y-107822379D02*
X136881620Y-108822379D01*
X137214953Y-107822379D01*
X138119715Y-108822379D02*
X137786381Y-108346189D01*
X137548286Y-108822379D02*
X137548286Y-107822379D01*
X137929239Y-107822379D01*
X138024477Y-107869999D01*
X138072096Y-107917618D01*
X138119715Y-108012856D01*
X138119715Y-108155713D01*
X138072096Y-108250951D01*
X138024477Y-108298570D01*
X137929239Y-108346189D01*
X137548286Y-108346189D01*
X138500667Y-107917618D02*
X138548286Y-107869999D01*
X138643524Y-107822379D01*
X138881620Y-107822379D01*
X138976858Y-107869999D01*
X139024477Y-107917618D01*
X139072096Y-108012856D01*
X139072096Y-108108094D01*
X139024477Y-108250951D01*
X138453048Y-108822379D01*
X139072096Y-108822379D01*
X140024477Y-108822379D02*
X139453048Y-108822379D01*
X139738762Y-108822379D02*
X139738762Y-107822379D01*
X139643524Y-107965237D01*
X139548286Y-108060475D01*
X139453048Y-108108094D01*
X112262287Y-107822379D02*
X112595621Y-108822379D01*
X112928954Y-107822379D01*
X113833716Y-108822379D02*
X113500382Y-108346189D01*
X113262287Y-108822379D02*
X113262287Y-107822379D01*
X113643240Y-107822379D01*
X113738478Y-107869999D01*
X113786097Y-107917618D01*
X113833716Y-108012856D01*
X113833716Y-108155713D01*
X113786097Y-108250951D01*
X113738478Y-108298570D01*
X113643240Y-108346189D01*
X113262287Y-108346189D01*
X114214668Y-107917618D02*
X114262287Y-107869999D01*
X114357525Y-107822379D01*
X114595621Y-107822379D01*
X114690859Y-107869999D01*
X114738478Y-107917618D01*
X114786097Y-108012856D01*
X114786097Y-108108094D01*
X114738478Y-108250951D01*
X114167049Y-108822379D01*
X114786097Y-108822379D01*
X115405144Y-107822379D02*
X115500382Y-107822379D01*
X115595621Y-107869999D01*
X115643240Y-107917618D01*
X115690859Y-108012856D01*
X115738478Y-108203332D01*
X115738478Y-108441427D01*
X115690859Y-108631903D01*
X115643240Y-108727141D01*
X115595621Y-108774760D01*
X115500382Y-108822379D01*
X115405144Y-108822379D01*
X115309906Y-108774760D01*
X115262287Y-108727141D01*
X115214668Y-108631903D01*
X115167049Y-108441427D01*
X115167049Y-108203332D01*
X115214668Y-108012856D01*
X115262287Y-107917618D01*
X115309906Y-107869999D01*
X115405144Y-107822379D01*
X87976286Y-107822379D02*
X88309620Y-108822379D01*
X88642953Y-107822379D01*
X89547715Y-108822379D02*
X89214381Y-108346189D01*
X88976286Y-108822379D02*
X88976286Y-107822379D01*
X89357239Y-107822379D01*
X89452477Y-107869999D01*
X89500096Y-107917618D01*
X89547715Y-108012856D01*
X89547715Y-108155713D01*
X89500096Y-108250951D01*
X89452477Y-108298570D01*
X89357239Y-108346189D01*
X88976286Y-108346189D01*
X90500096Y-108822379D02*
X89928667Y-108822379D01*
X90214381Y-108822379D02*
X90214381Y-107822379D01*
X90119143Y-107965237D01*
X90023905Y-108060475D01*
X89928667Y-108108094D01*
X90976286Y-108822379D02*
X91166762Y-108822379D01*
X91262001Y-108774760D01*
X91309620Y-108727141D01*
X91404858Y-108584284D01*
X91452477Y-108393808D01*
X91452477Y-108012856D01*
X91404858Y-107917618D01*
X91357239Y-107869999D01*
X91262001Y-107822379D01*
X91071524Y-107822379D01*
X90976286Y-107869999D01*
X90928667Y-107917618D01*
X90881048Y-108012856D01*
X90881048Y-108250951D01*
X90928667Y-108346189D01*
X90976286Y-108393808D01*
X91071524Y-108441427D01*
X91262001Y-108441427D01*
X91357239Y-108393808D01*
X91404858Y-108346189D01*
X91452477Y-108250951D01*
X63690286Y-107822379D02*
X64023620Y-108822379D01*
X64356953Y-107822379D01*
X65261715Y-108822379D02*
X64928381Y-108346189D01*
X64690286Y-108822379D02*
X64690286Y-107822379D01*
X65071239Y-107822379D01*
X65166477Y-107869999D01*
X65214096Y-107917618D01*
X65261715Y-108012856D01*
X65261715Y-108155713D01*
X65214096Y-108250951D01*
X65166477Y-108298570D01*
X65071239Y-108346189D01*
X64690286Y-108346189D01*
X66214096Y-108822379D02*
X65642667Y-108822379D01*
X65928381Y-108822379D02*
X65928381Y-107822379D01*
X65833143Y-107965237D01*
X65737905Y-108060475D01*
X65642667Y-108108094D01*
X66785524Y-108250951D02*
X66690286Y-108203332D01*
X66642667Y-108155713D01*
X66595048Y-108060475D01*
X66595048Y-108012856D01*
X66642667Y-107917618D01*
X66690286Y-107869999D01*
X66785524Y-107822379D01*
X66976001Y-107822379D01*
X67071239Y-107869999D01*
X67118858Y-107917618D01*
X67166477Y-108012856D01*
X67166477Y-108060475D01*
X67118858Y-108155713D01*
X67071239Y-108203332D01*
X66976001Y-108250951D01*
X66785524Y-108250951D01*
X66690286Y-108298570D01*
X66642667Y-108346189D01*
X66595048Y-108441427D01*
X66595048Y-108631903D01*
X66642667Y-108727141D01*
X66690286Y-108774760D01*
X66785524Y-108822379D01*
X66976001Y-108822379D01*
X67071239Y-108774760D01*
X67118858Y-108727141D01*
X67166477Y-108631903D01*
X67166477Y-108441427D01*
X67118858Y-108346189D01*
X67071239Y-108298570D01*
X66976001Y-108250951D01*
X39404286Y-107822379D02*
X39737620Y-108822379D01*
X40070953Y-107822379D01*
X40975715Y-108822379D02*
X40642381Y-108346189D01*
X40404286Y-108822379D02*
X40404286Y-107822379D01*
X40785239Y-107822379D01*
X40880477Y-107869999D01*
X40928096Y-107917618D01*
X40975715Y-108012856D01*
X40975715Y-108155713D01*
X40928096Y-108250951D01*
X40880477Y-108298570D01*
X40785239Y-108346189D01*
X40404286Y-108346189D01*
X41928096Y-108822379D02*
X41356667Y-108822379D01*
X41642381Y-108822379D02*
X41642381Y-107822379D01*
X41547143Y-107965237D01*
X41451905Y-108060475D01*
X41356667Y-108108094D01*
X42261429Y-107822379D02*
X42928096Y-107822379D01*
X42499524Y-108822379D01*
X209406286Y-83822379D02*
X209739620Y-84822379D01*
X210072953Y-83822379D01*
X210977715Y-84822379D02*
X210644381Y-84346189D01*
X210406286Y-84822379D02*
X210406286Y-83822379D01*
X210787239Y-83822379D01*
X210882477Y-83869999D01*
X210930096Y-83917618D01*
X210977715Y-84012856D01*
X210977715Y-84155713D01*
X210930096Y-84250951D01*
X210882477Y-84298570D01*
X210787239Y-84346189D01*
X210406286Y-84346189D01*
X211930096Y-84822379D02*
X211358667Y-84822379D01*
X211644381Y-84822379D02*
X211644381Y-83822379D01*
X211549143Y-83965237D01*
X211453905Y-84060475D01*
X211358667Y-84108094D01*
X212787239Y-83822379D02*
X212596762Y-83822379D01*
X212501524Y-83869999D01*
X212453905Y-83917618D01*
X212358667Y-84060475D01*
X212311048Y-84250951D01*
X212311048Y-84631903D01*
X212358667Y-84727141D01*
X212406286Y-84774760D01*
X212501524Y-84822379D01*
X212692001Y-84822379D01*
X212787239Y-84774760D01*
X212834858Y-84727141D01*
X212882477Y-84631903D01*
X212882477Y-84393808D01*
X212834858Y-84298570D01*
X212787239Y-84250951D01*
X212692001Y-84203332D01*
X212501524Y-84203332D01*
X212406286Y-84250951D01*
X212358667Y-84298570D01*
X212311048Y-84393808D01*
X185120286Y-83822379D02*
X185453620Y-84822379D01*
X185786953Y-83822379D01*
X186691715Y-84822379D02*
X186358381Y-84346189D01*
X186120286Y-84822379D02*
X186120286Y-83822379D01*
X186501239Y-83822379D01*
X186596477Y-83869999D01*
X186644096Y-83917618D01*
X186691715Y-84012856D01*
X186691715Y-84155713D01*
X186644096Y-84250951D01*
X186596477Y-84298570D01*
X186501239Y-84346189D01*
X186120286Y-84346189D01*
X187644096Y-84822379D02*
X187072667Y-84822379D01*
X187358381Y-84822379D02*
X187358381Y-83822379D01*
X187263143Y-83965237D01*
X187167905Y-84060475D01*
X187072667Y-84108094D01*
X188548858Y-83822379D02*
X188072667Y-83822379D01*
X188025048Y-84298570D01*
X188072667Y-84250951D01*
X188167905Y-84203332D01*
X188406001Y-84203332D01*
X188501239Y-84250951D01*
X188548858Y-84298570D01*
X188596477Y-84393808D01*
X188596477Y-84631903D01*
X188548858Y-84727141D01*
X188501239Y-84774760D01*
X188406001Y-84822379D01*
X188167905Y-84822379D01*
X188072667Y-84774760D01*
X188025048Y-84727141D01*
X160834286Y-83822379D02*
X161167620Y-84822379D01*
X161500953Y-83822379D01*
X162405715Y-84822379D02*
X162072381Y-84346189D01*
X161834286Y-84822379D02*
X161834286Y-83822379D01*
X162215239Y-83822379D01*
X162310477Y-83869999D01*
X162358096Y-83917618D01*
X162405715Y-84012856D01*
X162405715Y-84155713D01*
X162358096Y-84250951D01*
X162310477Y-84298570D01*
X162215239Y-84346189D01*
X161834286Y-84346189D01*
X163358096Y-84822379D02*
X162786667Y-84822379D01*
X163072381Y-84822379D02*
X163072381Y-83822379D01*
X162977143Y-83965237D01*
X162881905Y-84060475D01*
X162786667Y-84108094D01*
X164215239Y-84155713D02*
X164215239Y-84822379D01*
X163977143Y-83774760D02*
X163739048Y-84489046D01*
X164358096Y-84489046D01*
X136548286Y-83822379D02*
X136881620Y-84822379D01*
X137214953Y-83822379D01*
X138119715Y-84822379D02*
X137786381Y-84346189D01*
X137548286Y-84822379D02*
X137548286Y-83822379D01*
X137929239Y-83822379D01*
X138024477Y-83869999D01*
X138072096Y-83917618D01*
X138119715Y-84012856D01*
X138119715Y-84155713D01*
X138072096Y-84250951D01*
X138024477Y-84298570D01*
X137929239Y-84346189D01*
X137548286Y-84346189D01*
X139072096Y-84822379D02*
X138500667Y-84822379D01*
X138786381Y-84822379D02*
X138786381Y-83822379D01*
X138691143Y-83965237D01*
X138595905Y-84060475D01*
X138500667Y-84108094D01*
X139405429Y-83822379D02*
X140024477Y-83822379D01*
X139691143Y-84203332D01*
X139834001Y-84203332D01*
X139929239Y-84250951D01*
X139976858Y-84298570D01*
X140024477Y-84393808D01*
X140024477Y-84631903D01*
X139976858Y-84727141D01*
X139929239Y-84774760D01*
X139834001Y-84822379D01*
X139548286Y-84822379D01*
X139453048Y-84774760D01*
X139405429Y-84727141D01*
X112262287Y-83822379D02*
X112595621Y-84822379D01*
X112928954Y-83822379D01*
X113833716Y-84822379D02*
X113500382Y-84346189D01*
X113262287Y-84822379D02*
X113262287Y-83822379D01*
X113643240Y-83822379D01*
X113738478Y-83869999D01*
X113786097Y-83917618D01*
X113833716Y-84012856D01*
X113833716Y-84155713D01*
X113786097Y-84250951D01*
X113738478Y-84298570D01*
X113643240Y-84346189D01*
X113262287Y-84346189D01*
X114786097Y-84822379D02*
X114214668Y-84822379D01*
X114500382Y-84822379D02*
X114500382Y-83822379D01*
X114405144Y-83965237D01*
X114309906Y-84060475D01*
X114214668Y-84108094D01*
X115167049Y-83917618D02*
X115214668Y-83869999D01*
X115309906Y-83822379D01*
X115548002Y-83822379D01*
X115643240Y-83869999D01*
X115690859Y-83917618D01*
X115738478Y-84012856D01*
X115738478Y-84108094D01*
X115690859Y-84250951D01*
X115119430Y-84822379D01*
X115738478Y-84822379D01*
X87976286Y-83822379D02*
X88309620Y-84822379D01*
X88642953Y-83822379D01*
X89547715Y-84822379D02*
X89214381Y-84346189D01*
X88976286Y-84822379D02*
X88976286Y-83822379D01*
X89357239Y-83822379D01*
X89452477Y-83869999D01*
X89500096Y-83917618D01*
X89547715Y-84012856D01*
X89547715Y-84155713D01*
X89500096Y-84250951D01*
X89452477Y-84298570D01*
X89357239Y-84346189D01*
X88976286Y-84346189D01*
X90500096Y-84822379D02*
X89928667Y-84822379D01*
X90214381Y-84822379D02*
X90214381Y-83822379D01*
X90119143Y-83965237D01*
X90023905Y-84060475D01*
X89928667Y-84108094D01*
X91452477Y-84822379D02*
X90881048Y-84822379D01*
X91166762Y-84822379D02*
X91166762Y-83822379D01*
X91071524Y-83965237D01*
X90976286Y-84060475D01*
X90881048Y-84108094D01*
X63690286Y-83822379D02*
X64023620Y-84822379D01*
X64356953Y-83822379D01*
X65261715Y-84822379D02*
X64928381Y-84346189D01*
X64690286Y-84822379D02*
X64690286Y-83822379D01*
X65071239Y-83822379D01*
X65166477Y-83869999D01*
X65214096Y-83917618D01*
X65261715Y-84012856D01*
X65261715Y-84155713D01*
X65214096Y-84250951D01*
X65166477Y-84298570D01*
X65071239Y-84346189D01*
X64690286Y-84346189D01*
X66214096Y-84822379D02*
X65642667Y-84822379D01*
X65928381Y-84822379D02*
X65928381Y-83822379D01*
X65833143Y-83965237D01*
X65737905Y-84060475D01*
X65642667Y-84108094D01*
X66833143Y-83822379D02*
X66928381Y-83822379D01*
X67023620Y-83869999D01*
X67071239Y-83917618D01*
X67118858Y-84012856D01*
X67166477Y-84203332D01*
X67166477Y-84441427D01*
X67118858Y-84631903D01*
X67071239Y-84727141D01*
X67023620Y-84774760D01*
X66928381Y-84822379D01*
X66833143Y-84822379D01*
X66737905Y-84774760D01*
X66690286Y-84727141D01*
X66642667Y-84631903D01*
X66595048Y-84441427D01*
X66595048Y-84203332D01*
X66642667Y-84012856D01*
X66690286Y-83917618D01*
X66737905Y-83869999D01*
X66833143Y-83822379D01*
X39880477Y-83822379D02*
X40213810Y-84822379D01*
X40547143Y-83822379D01*
X41451905Y-84822379D02*
X41118572Y-84346189D01*
X40880477Y-84822379D02*
X40880477Y-83822379D01*
X41261429Y-83822379D01*
X41356667Y-83869999D01*
X41404286Y-83917618D01*
X41451905Y-84012856D01*
X41451905Y-84155713D01*
X41404286Y-84250951D01*
X41356667Y-84298570D01*
X41261429Y-84346189D01*
X40880477Y-84346189D01*
X41928096Y-84822379D02*
X42118572Y-84822379D01*
X42213810Y-84774760D01*
X42261429Y-84727141D01*
X42356667Y-84584284D01*
X42404286Y-84393808D01*
X42404286Y-84012856D01*
X42356667Y-83917618D01*
X42309048Y-83869999D01*
X42213810Y-83822379D01*
X42023334Y-83822379D01*
X41928096Y-83869999D01*
X41880477Y-83917618D01*
X41832858Y-84012856D01*
X41832858Y-84250951D01*
X41880477Y-84346189D01*
X41928096Y-84393808D01*
X42023334Y-84441427D01*
X42213810Y-84441427D01*
X42309048Y-84393808D01*
X42356667Y-84346189D01*
X42404286Y-84250951D01*
X209882477Y-59822380D02*
X210215810Y-60822380D01*
X210549143Y-59822380D01*
X211453905Y-60822380D02*
X211120572Y-60346190D01*
X210882477Y-60822380D02*
X210882477Y-59822380D01*
X211263429Y-59822380D01*
X211358667Y-59870000D01*
X211406286Y-59917619D01*
X211453905Y-60012857D01*
X211453905Y-60155714D01*
X211406286Y-60250952D01*
X211358667Y-60298571D01*
X211263429Y-60346190D01*
X210882477Y-60346190D01*
X212025334Y-60250952D02*
X211930096Y-60203333D01*
X211882477Y-60155714D01*
X211834858Y-60060476D01*
X211834858Y-60012857D01*
X211882477Y-59917619D01*
X211930096Y-59870000D01*
X212025334Y-59822380D01*
X212215810Y-59822380D01*
X212311048Y-59870000D01*
X212358667Y-59917619D01*
X212406286Y-60012857D01*
X212406286Y-60060476D01*
X212358667Y-60155714D01*
X212311048Y-60203333D01*
X212215810Y-60250952D01*
X212025334Y-60250952D01*
X211930096Y-60298571D01*
X211882477Y-60346190D01*
X211834858Y-60441428D01*
X211834858Y-60631904D01*
X211882477Y-60727142D01*
X211930096Y-60774761D01*
X212025334Y-60822380D01*
X212215810Y-60822380D01*
X212311048Y-60774761D01*
X212358667Y-60727142D01*
X212406286Y-60631904D01*
X212406286Y-60441428D01*
X212358667Y-60346190D01*
X212311048Y-60298571D01*
X212215810Y-60250952D01*
X185596477Y-59822380D02*
X185929810Y-60822380D01*
X186263143Y-59822380D01*
X187167905Y-60822380D02*
X186834572Y-60346190D01*
X186596477Y-60822380D02*
X186596477Y-59822380D01*
X186977429Y-59822380D01*
X187072667Y-59870000D01*
X187120286Y-59917619D01*
X187167905Y-60012857D01*
X187167905Y-60155714D01*
X187120286Y-60250952D01*
X187072667Y-60298571D01*
X186977429Y-60346190D01*
X186596477Y-60346190D01*
X187501239Y-59822380D02*
X188167905Y-59822380D01*
X187739334Y-60822380D01*
X161310477Y-59822380D02*
X161643810Y-60822380D01*
X161977143Y-59822380D01*
X162881905Y-60822380D02*
X162548572Y-60346190D01*
X162310477Y-60822380D02*
X162310477Y-59822380D01*
X162691429Y-59822380D01*
X162786667Y-59870000D01*
X162834286Y-59917619D01*
X162881905Y-60012857D01*
X162881905Y-60155714D01*
X162834286Y-60250952D01*
X162786667Y-60298571D01*
X162691429Y-60346190D01*
X162310477Y-60346190D01*
X163739048Y-59822380D02*
X163548572Y-59822380D01*
X163453334Y-59870000D01*
X163405715Y-59917619D01*
X163310477Y-60060476D01*
X163262858Y-60250952D01*
X163262858Y-60631904D01*
X163310477Y-60727142D01*
X163358096Y-60774761D01*
X163453334Y-60822380D01*
X163643810Y-60822380D01*
X163739048Y-60774761D01*
X163786667Y-60727142D01*
X163834286Y-60631904D01*
X163834286Y-60393809D01*
X163786667Y-60298571D01*
X163739048Y-60250952D01*
X163643810Y-60203333D01*
X163453334Y-60203333D01*
X163358096Y-60250952D01*
X163310477Y-60298571D01*
X163262858Y-60393809D01*
X137024477Y-59822380D02*
X137357810Y-60822380D01*
X137691143Y-59822380D01*
X138595905Y-60822380D02*
X138262572Y-60346190D01*
X138024477Y-60822380D02*
X138024477Y-59822380D01*
X138405429Y-59822380D01*
X138500667Y-59870000D01*
X138548286Y-59917619D01*
X138595905Y-60012857D01*
X138595905Y-60155714D01*
X138548286Y-60250952D01*
X138500667Y-60298571D01*
X138405429Y-60346190D01*
X138024477Y-60346190D01*
X139500667Y-59822380D02*
X139024477Y-59822380D01*
X138976858Y-60298571D01*
X139024477Y-60250952D01*
X139119715Y-60203333D01*
X139357810Y-60203333D01*
X139453048Y-60250952D01*
X139500667Y-60298571D01*
X139548286Y-60393809D01*
X139548286Y-60631904D01*
X139500667Y-60727142D01*
X139453048Y-60774761D01*
X139357810Y-60822380D01*
X139119715Y-60822380D01*
X139024477Y-60774761D01*
X138976858Y-60727142D01*
X112738478Y-59822380D02*
X113071811Y-60822380D01*
X113405144Y-59822380D01*
X114309906Y-60822380D02*
X113976573Y-60346190D01*
X113738478Y-60822380D02*
X113738478Y-59822380D01*
X114119430Y-59822380D01*
X114214668Y-59870000D01*
X114262287Y-59917619D01*
X114309906Y-60012857D01*
X114309906Y-60155714D01*
X114262287Y-60250952D01*
X114214668Y-60298571D01*
X114119430Y-60346190D01*
X113738478Y-60346190D01*
X115167049Y-60155714D02*
X115167049Y-60822380D01*
X114928954Y-59774761D02*
X114690859Y-60489047D01*
X115309906Y-60489047D01*
X64166477Y-59822380D02*
X64499810Y-60822380D01*
X64833143Y-59822380D01*
X65737905Y-60822380D02*
X65404572Y-60346190D01*
X65166477Y-60822380D02*
X65166477Y-59822380D01*
X65547429Y-59822380D01*
X65642667Y-59870000D01*
X65690286Y-59917619D01*
X65737905Y-60012857D01*
X65737905Y-60155714D01*
X65690286Y-60250952D01*
X65642667Y-60298571D01*
X65547429Y-60346190D01*
X65166477Y-60346190D01*
X66118858Y-59917619D02*
X66166477Y-59870000D01*
X66261715Y-59822380D01*
X66499810Y-59822380D01*
X66595048Y-59870000D01*
X66642667Y-59917619D01*
X66690286Y-60012857D01*
X66690286Y-60108095D01*
X66642667Y-60250952D01*
X66071239Y-60822380D01*
X66690286Y-60822380D01*
X88452477Y-59822380D02*
X88785810Y-60822380D01*
X89119143Y-59822380D01*
X90023905Y-60822380D02*
X89690572Y-60346190D01*
X89452477Y-60822380D02*
X89452477Y-59822380D01*
X89833429Y-59822380D01*
X89928667Y-59870000D01*
X89976286Y-59917619D01*
X90023905Y-60012857D01*
X90023905Y-60155714D01*
X89976286Y-60250952D01*
X89928667Y-60298571D01*
X89833429Y-60346190D01*
X89452477Y-60346190D01*
X90357239Y-59822380D02*
X90976286Y-59822380D01*
X90642953Y-60203333D01*
X90785810Y-60203333D01*
X90881048Y-60250952D01*
X90928667Y-60298571D01*
X90976286Y-60393809D01*
X90976286Y-60631904D01*
X90928667Y-60727142D01*
X90881048Y-60774761D01*
X90785810Y-60822380D01*
X90500096Y-60822380D01*
X90404858Y-60774761D01*
X90357239Y-60727142D01*
X39404286Y-131822380D02*
X39737620Y-132822380D01*
X40070953Y-131822380D01*
X40975715Y-132822380D02*
X40642381Y-132346190D01*
X40404286Y-132822380D02*
X40404286Y-131822380D01*
X40785239Y-131822380D01*
X40880477Y-131870000D01*
X40928096Y-131917619D01*
X40975715Y-132012857D01*
X40975715Y-132155714D01*
X40928096Y-132250952D01*
X40880477Y-132298571D01*
X40785239Y-132346190D01*
X40404286Y-132346190D01*
X41356667Y-131917619D02*
X41404286Y-131870000D01*
X41499524Y-131822380D01*
X41737620Y-131822380D01*
X41832858Y-131870000D01*
X41880477Y-131917619D01*
X41928096Y-132012857D01*
X41928096Y-132108095D01*
X41880477Y-132250952D01*
X41309048Y-132822380D01*
X41928096Y-132822380D01*
X42832858Y-131822380D02*
X42356667Y-131822380D01*
X42309048Y-132298571D01*
X42356667Y-132250952D01*
X42451905Y-132203333D01*
X42690001Y-132203333D01*
X42785239Y-132250952D01*
X42832858Y-132298571D01*
X42880477Y-132393809D01*
X42880477Y-132631904D01*
X42832858Y-132727142D01*
X42785239Y-132774761D01*
X42690001Y-132822380D01*
X42451905Y-132822380D01*
X42356667Y-132774761D01*
X42309048Y-132727142D01*
X39880477Y-59822380D02*
X40213810Y-60822380D01*
X40547143Y-59822380D01*
X41451905Y-60822380D02*
X41118572Y-60346190D01*
X40880477Y-60822380D02*
X40880477Y-59822380D01*
X41261429Y-59822380D01*
X41356667Y-59870000D01*
X41404286Y-59917619D01*
X41451905Y-60012857D01*
X41451905Y-60155714D01*
X41404286Y-60250952D01*
X41356667Y-60298571D01*
X41261429Y-60346190D01*
X40880477Y-60346190D01*
X42404286Y-60822380D02*
X41832858Y-60822380D01*
X42118572Y-60822380D02*
X42118572Y-59822380D01*
X42023334Y-59965238D01*
X41928096Y-60060476D01*
X41832858Y-60108095D01*
D12*
X199534947Y-74075631D02*
X199186000Y-74014052D01*
X199288632Y-74321947D02*
X198857579Y-73890895D01*
X199021790Y-73726684D01*
X199083369Y-73706158D01*
X199124421Y-73706158D01*
X199186000Y-73726684D01*
X199247579Y-73788263D01*
X199268105Y-73849842D01*
X199268105Y-73890895D01*
X199247579Y-73952474D01*
X199083369Y-74116684D01*
X199309158Y-73521421D02*
X199309158Y-73480369D01*
X199329684Y-73418790D01*
X199432316Y-73316158D01*
X199493895Y-73295632D01*
X199534947Y-73295632D01*
X199596526Y-73316158D01*
X199637579Y-73357211D01*
X199678631Y-73439316D01*
X199678631Y-73931947D01*
X199945473Y-73665105D01*
X202582947Y-77250631D02*
X202234000Y-77189052D01*
X202336632Y-77496947D02*
X201905579Y-77065895D01*
X202069790Y-76901684D01*
X202131369Y-76881158D01*
X202172421Y-76881158D01*
X202234000Y-76901684D01*
X202295579Y-76963263D01*
X202316105Y-77024842D01*
X202316105Y-77065895D01*
X202295579Y-77127474D01*
X202131369Y-77291684D01*
X202993473Y-76840105D02*
X202747158Y-77086421D01*
X202870315Y-76963263D02*
X202439263Y-76532211D01*
X202459790Y-76634842D01*
X202459790Y-76716948D01*
X202439263Y-76778527D01*
D15*
X40579428Y-37344380D02*
X40579428Y-36344380D01*
X40817523Y-36344380D01*
X40960380Y-36392000D01*
X41055619Y-36487238D01*
X41103238Y-36582476D01*
X41150857Y-36772952D01*
X41150857Y-36915809D01*
X41103238Y-37106285D01*
X41055619Y-37201523D01*
X40960380Y-37296761D01*
X40817523Y-37344380D01*
X40579428Y-37344380D01*
X41579428Y-37344380D02*
X41579428Y-36677714D01*
X41579428Y-36344380D02*
X41531809Y-36392000D01*
X41579428Y-36439619D01*
X41627047Y-36392000D01*
X41579428Y-36344380D01*
X41579428Y-36439619D01*
X42008000Y-37296761D02*
X42103238Y-37344380D01*
X42293714Y-37344380D01*
X42388952Y-37296761D01*
X42436571Y-37201523D01*
X42436571Y-37153904D01*
X42388952Y-37058666D01*
X42293714Y-37011047D01*
X42150857Y-37011047D01*
X42055619Y-36963428D01*
X42008000Y-36868190D01*
X42008000Y-36820571D01*
X42055619Y-36725333D01*
X42150857Y-36677714D01*
X42293714Y-36677714D01*
X42388952Y-36725333D01*
X42865142Y-36677714D02*
X42865142Y-37677714D01*
X42865142Y-36725333D02*
X42960380Y-36677714D01*
X43150857Y-36677714D01*
X43246095Y-36725333D01*
X43293714Y-36772952D01*
X43341333Y-36868190D01*
X43341333Y-37153904D01*
X43293714Y-37249142D01*
X43246095Y-37296761D01*
X43150857Y-37344380D01*
X42960380Y-37344380D01*
X42865142Y-37296761D01*
X43912761Y-37344380D02*
X43817523Y-37296761D01*
X43769904Y-37201523D01*
X43769904Y-36344380D01*
X44722285Y-37344380D02*
X44722285Y-36820571D01*
X44674666Y-36725333D01*
X44579428Y-36677714D01*
X44388952Y-36677714D01*
X44293714Y-36725333D01*
X44722285Y-37296761D02*
X44627047Y-37344380D01*
X44388952Y-37344380D01*
X44293714Y-37296761D01*
X44246095Y-37201523D01*
X44246095Y-37106285D01*
X44293714Y-37011047D01*
X44388952Y-36963428D01*
X44627047Y-36963428D01*
X44722285Y-36915809D01*
X45103238Y-36677714D02*
X45341333Y-37344380D01*
X45579428Y-36677714D02*
X45341333Y-37344380D01*
X45246095Y-37582476D01*
X45198476Y-37630095D01*
X45103238Y-37677714D01*
X46484190Y-37344380D02*
X45912761Y-37344380D01*
X46198476Y-37344380D02*
X46198476Y-36344380D01*
X46103238Y-36487238D01*
X46008000Y-36582476D01*
X45912761Y-36630095D01*
D16*
X77280019Y-35685942D02*
X77280019Y-34284596D01*
X78748096Y-35552480D02*
X78681365Y-35619211D01*
X78481173Y-35685942D01*
X78347711Y-35685942D01*
X78147519Y-35619211D01*
X78014057Y-35485749D01*
X77947327Y-35352288D01*
X77880596Y-35085365D01*
X77880596Y-34885173D01*
X77947327Y-34618250D01*
X78014057Y-34484788D01*
X78147519Y-34351327D01*
X78347711Y-34284596D01*
X78481173Y-34284596D01*
X78681365Y-34351327D01*
X78748096Y-34418057D01*
X80082711Y-35685942D02*
X79281942Y-35685942D01*
X79682326Y-35685942D02*
X79682326Y-34284596D01*
X79548865Y-34484788D01*
X79415403Y-34618250D01*
X79281942Y-34684980D01*
D12*
X88206114Y-44217771D02*
X88002914Y-43927485D01*
X87857771Y-44217771D02*
X87857771Y-43608171D01*
X88090000Y-43608171D01*
X88148057Y-43637200D01*
X88177085Y-43666228D01*
X88206114Y-43724285D01*
X88206114Y-43811371D01*
X88177085Y-43869428D01*
X88148057Y-43898457D01*
X88090000Y-43927485D01*
X87857771Y-43927485D01*
X88786685Y-44217771D02*
X88438342Y-44217771D01*
X88612514Y-44217771D02*
X88612514Y-43608171D01*
X88554457Y-43695257D01*
X88496400Y-43753314D01*
X88438342Y-43782342D01*
X89164057Y-43608171D02*
X89222114Y-43608171D01*
X89280171Y-43637200D01*
X89309200Y-43666228D01*
X89338228Y-43724285D01*
X89367257Y-43840400D01*
X89367257Y-43985542D01*
X89338228Y-44101657D01*
X89309200Y-44159714D01*
X89280171Y-44188742D01*
X89222114Y-44217771D01*
X89164057Y-44217771D01*
X89106000Y-44188742D01*
X89076971Y-44159714D01*
X89047942Y-44101657D01*
X89018914Y-43985542D01*
X89018914Y-43840400D01*
X89047942Y-43724285D01*
X89076971Y-43666228D01*
X89106000Y-43637200D01*
X89164057Y-43608171D01*
X66656970Y-41858744D02*
X66744056Y-41887773D01*
X66889199Y-41887773D01*
X66947256Y-41858744D01*
X66976284Y-41829716D01*
X67005313Y-41771659D01*
X67005313Y-41713602D01*
X66976284Y-41655544D01*
X66947256Y-41626516D01*
X66889199Y-41597487D01*
X66773084Y-41568459D01*
X66715027Y-41539430D01*
X66685999Y-41510402D01*
X66656970Y-41452344D01*
X66656970Y-41394287D01*
X66685999Y-41336230D01*
X66715027Y-41307202D01*
X66773084Y-41278173D01*
X66918227Y-41278173D01*
X67005313Y-41307202D01*
X67208513Y-41278173D02*
X67353656Y-41887773D01*
X67469770Y-41452344D01*
X67585884Y-41887773D01*
X67731027Y-41278173D01*
X67876170Y-41278173D02*
X68224513Y-41278173D01*
X68050341Y-41887773D02*
X68050341Y-41278173D01*
X68747027Y-41887773D02*
X68398684Y-41887773D01*
X68572856Y-41887773D02*
X68572856Y-41278173D01*
X68514799Y-41365259D01*
X68456741Y-41423316D01*
X68398684Y-41452344D01*
X66656971Y-32458744D02*
X66744057Y-32487773D01*
X66889200Y-32487773D01*
X66947257Y-32458744D01*
X66976285Y-32429716D01*
X67005314Y-32371659D01*
X67005314Y-32313602D01*
X66976285Y-32255544D01*
X66947257Y-32226516D01*
X66889200Y-32197487D01*
X66773085Y-32168459D01*
X66715028Y-32139430D01*
X66686000Y-32110402D01*
X66656971Y-32052344D01*
X66656971Y-31994287D01*
X66686000Y-31936230D01*
X66715028Y-31907202D01*
X66773085Y-31878173D01*
X66918228Y-31878173D01*
X67005314Y-31907202D01*
X67208514Y-31878173D02*
X67353657Y-32487773D01*
X67469771Y-32052344D01*
X67585885Y-32487773D01*
X67731028Y-31878173D01*
X67876171Y-31878173D02*
X68224514Y-31878173D01*
X68050342Y-32487773D02*
X68050342Y-31878173D01*
X68398685Y-31936230D02*
X68427714Y-31907202D01*
X68485771Y-31878173D01*
X68630914Y-31878173D01*
X68688971Y-31907202D01*
X68718000Y-31936230D01*
X68747028Y-31994287D01*
X68747028Y-32052344D01*
X68718000Y-32139430D01*
X68369657Y-32487773D01*
X68747028Y-32487773D01*
M02*
