G04 #@! TF.GenerationSoftware,KiCad,Pcbnew,(5.1.8-0-10_14)*
G04 #@! TF.CreationDate,2020-12-02T17:32:51+02:00*
G04 #@! TF.ProjectId,N32B_Top_panel_v1.3,4e333242-5f54-46f7-905f-70616e656c5f,rev?*
G04 #@! TF.SameCoordinates,Original*
G04 #@! TF.FileFunction,Profile,NP*
%FSLAX46Y46*%
G04 Gerber Fmt 4.6, Leading zero omitted, Abs format (unit mm)*
G04 Created by KiCad (PCBNEW (5.1.8-0-10_14)) date 2020-12-02 17:32:51*
%MOMM*%
%LPD*%
G01*
G04 APERTURE LIST*
G04 #@! TA.AperFunction,Profile*
%ADD10C,0.200000*%
G04 #@! TD*
G04 APERTURE END LIST*
D10*
X91256000Y-49501075D02*
G75*
G03*
X91256000Y-49501075I-2000000J0D01*
G01*
X91256000Y-39880002D02*
G75*
G03*
X91256000Y-39880002I-2000000J0D01*
G01*
X58370000Y-50546539D02*
G75*
G02*
X57370000Y-49546539I0J1000000D01*
G01*
X57370000Y-39834539D02*
X57370000Y-49546539D01*
X57370000Y-39834539D02*
G75*
G02*
X58370000Y-38834539I1000000J0D01*
G01*
X71569999Y-38834539D02*
X58370000Y-38834539D01*
X71570000Y-38834539D02*
G75*
G02*
X72570000Y-39834539I0J-1000000D01*
G01*
X72570000Y-49546539D02*
X72570000Y-39834539D01*
X72570000Y-49546540D02*
G75*
G02*
X71569999Y-50546539I-1000000J1D01*
G01*
X58370000Y-50546539D02*
X71569999Y-50546539D01*
X238470000Y-72980000D02*
G75*
G03*
X238470000Y-72980000I-3500000J0D01*
G01*
X214184285Y-72980000D02*
G75*
G03*
X214184285Y-72980000I-3500000J0D01*
G01*
X189898571Y-72980000D02*
G75*
G03*
X189898571Y-72980000I-3500000J0D01*
G01*
X165612857Y-72980000D02*
G75*
G03*
X165612857Y-72980000I-3500000J0D01*
G01*
X141327142Y-72980000D02*
G75*
G03*
X141327142Y-72980000I-3500000J0D01*
G01*
X117041428Y-72980000D02*
G75*
G03*
X117041428Y-72980000I-3500000J0D01*
G01*
X92755714Y-72980000D02*
G75*
G03*
X92755714Y-72980000I-3500000J0D01*
G01*
X68470000Y-72980000D02*
G75*
G03*
X68470000Y-72980000I-3500000J0D01*
G01*
X238470000Y-96980000D02*
G75*
G03*
X238470000Y-96980000I-3500000J0D01*
G01*
X214184285Y-96980000D02*
G75*
G03*
X214184285Y-96980000I-3500000J0D01*
G01*
X189898571Y-96980000D02*
G75*
G03*
X189898571Y-96980000I-3500000J0D01*
G01*
X165612857Y-96980000D02*
G75*
G03*
X165612857Y-96980000I-3500000J0D01*
G01*
X141327142Y-96980000D02*
G75*
G03*
X141327142Y-96980000I-3500000J0D01*
G01*
X117041428Y-96980000D02*
G75*
G03*
X117041428Y-96980000I-3500000J0D01*
G01*
X92755714Y-96980000D02*
G75*
G03*
X92755714Y-96980000I-3500000J0D01*
G01*
X68470000Y-96980000D02*
G75*
G03*
X68470000Y-96980000I-3500000J0D01*
G01*
X238470000Y-120980000D02*
G75*
G03*
X238470000Y-120980000I-3500000J0D01*
G01*
X214184285Y-120980000D02*
G75*
G03*
X214184285Y-120980000I-3500000J0D01*
G01*
X189898571Y-120980000D02*
G75*
G03*
X189898571Y-120980000I-3500000J0D01*
G01*
X165612857Y-120980000D02*
G75*
G03*
X165612857Y-120980000I-3500000J0D01*
G01*
X141327142Y-120980000D02*
G75*
G03*
X141327142Y-120980000I-3500000J0D01*
G01*
X117041428Y-120980000D02*
G75*
G03*
X117041428Y-120980000I-3500000J0D01*
G01*
X92755714Y-120980000D02*
G75*
G03*
X92755714Y-120980000I-3500000J0D01*
G01*
X68470000Y-120980000D02*
G75*
G03*
X68470000Y-120980000I-3500000J0D01*
G01*
X49970000Y-29980108D02*
X49970000Y-159979695D01*
X249969639Y-29980108D02*
X49970000Y-29980108D01*
X249969639Y-159979696D02*
X249969639Y-29980108D01*
X92755714Y-144980000D02*
G75*
G03*
X92755714Y-144980000I-3500000J0D01*
G01*
X68470000Y-144980000D02*
G75*
G03*
X68470000Y-144980000I-3500000J0D01*
G01*
X49970000Y-159979695D02*
X249969639Y-159979696D01*
X165612857Y-144980000D02*
G75*
G03*
X165612857Y-144980000I-3500000J0D01*
G01*
X141327142Y-144980000D02*
G75*
G03*
X141327142Y-144980000I-3500000J0D01*
G01*
X117041428Y-144980000D02*
G75*
G03*
X117041428Y-144980000I-3500000J0D01*
G01*
X238470000Y-144980000D02*
G75*
G03*
X238470000Y-144980000I-3500000J0D01*
G01*
X214184285Y-144980000D02*
G75*
G03*
X214184285Y-144980000I-3500000J0D01*
G01*
X189898571Y-144980000D02*
G75*
G03*
X189898571Y-144980000I-3500000J0D01*
G01*
M02*
