G04 #@! TF.GenerationSoftware,KiCad,Pcbnew,(5.1.10-1-10_14)*
G04 #@! TF.CreationDate,2021-10-10T16:36:06+03:00*
G04 #@! TF.ProjectId,N32B,4e333242-2e6b-4696-9361-645f70636258,V2.2*
G04 #@! TF.SameCoordinates,Original*
G04 #@! TF.FileFunction,Legend,Top*
G04 #@! TF.FilePolarity,Positive*
%FSLAX46Y46*%
G04 Gerber Fmt 4.6, Leading zero omitted, Abs format (unit mm)*
G04 Created by KiCad (PCBNEW (5.1.10-1-10_14)) date 2021-10-10 16:36:06*
%MOMM*%
%LPD*%
G01*
G04 APERTURE LIST*
%ADD10C,0.300000*%
%ADD11C,0.150000*%
%ADD12C,0.010000*%
%ADD13C,0.120000*%
%ADD14C,0.127000*%
%ADD15C,0.200000*%
%ADD16C,0.203200*%
%ADD17C,0.254000*%
%ADD18C,0.152400*%
%ADD19C,0.015000*%
%ADD20C,1.800000*%
%ADD21C,2.999740*%
%ADD22R,1.700000X1.700000*%
%ADD23O,1.700000X1.700000*%
%ADD24C,2.003200*%
%ADD25C,0.100000*%
%ADD26C,2.235200*%
%ADD27C,1.200000*%
%ADD28O,2.000000X1.400000*%
%ADD29R,2.000000X1.400000*%
%ADD30C,3.200000*%
%ADD31O,1.320800X2.641600*%
%ADD32C,2.082800*%
G04 APERTURE END LIST*
D10*
X42414523Y-148924095D02*
X42414523Y-147624095D01*
X43157380Y-148924095D01*
X43157380Y-147624095D01*
X43652619Y-147624095D02*
X44457380Y-147624095D01*
X44024047Y-148119333D01*
X44209761Y-148119333D01*
X44333571Y-148181238D01*
X44395476Y-148243142D01*
X44457380Y-148366952D01*
X44457380Y-148676476D01*
X44395476Y-148800285D01*
X44333571Y-148862190D01*
X44209761Y-148924095D01*
X43838333Y-148924095D01*
X43714523Y-148862190D01*
X43652619Y-148800285D01*
X44952619Y-147747904D02*
X45014523Y-147686000D01*
X45138333Y-147624095D01*
X45447857Y-147624095D01*
X45571666Y-147686000D01*
X45633571Y-147747904D01*
X45695476Y-147871714D01*
X45695476Y-147995523D01*
X45633571Y-148181238D01*
X44890714Y-148924095D01*
X45695476Y-148924095D01*
X46685952Y-148243142D02*
X46871666Y-148305047D01*
X46933571Y-148366952D01*
X46995476Y-148490761D01*
X46995476Y-148676476D01*
X46933571Y-148800285D01*
X46871666Y-148862190D01*
X46747857Y-148924095D01*
X46252619Y-148924095D01*
X46252619Y-147624095D01*
X46685952Y-147624095D01*
X46809761Y-147686000D01*
X46871666Y-147747904D01*
X46933571Y-147871714D01*
X46933571Y-147995523D01*
X46871666Y-148119333D01*
X46809761Y-148181238D01*
X46685952Y-148243142D01*
X46252619Y-148243142D01*
X48419285Y-148057428D02*
X48728809Y-148924095D01*
X49038333Y-148057428D01*
X49471666Y-147747904D02*
X49533571Y-147686000D01*
X49657380Y-147624095D01*
X49966904Y-147624095D01*
X50090714Y-147686000D01*
X50152619Y-147747904D01*
X50214523Y-147871714D01*
X50214523Y-147995523D01*
X50152619Y-148181238D01*
X49409761Y-148924095D01*
X50214523Y-148924095D01*
X50771666Y-148800285D02*
X50833571Y-148862190D01*
X50771666Y-148924095D01*
X50709761Y-148862190D01*
X50771666Y-148800285D01*
X50771666Y-148924095D01*
X51328809Y-147747904D02*
X51390714Y-147686000D01*
X51514523Y-147624095D01*
X51824047Y-147624095D01*
X51947857Y-147686000D01*
X52009761Y-147747904D01*
X52071666Y-147871714D01*
X52071666Y-147995523D01*
X52009761Y-148181238D01*
X51266904Y-148924095D01*
X52071666Y-148924095D01*
D11*
X183667666Y-30409000D02*
X183605761Y-30378047D01*
X183512904Y-30378047D01*
X183420047Y-30409000D01*
X183358142Y-30470904D01*
X183327190Y-30532809D01*
X183296238Y-30656619D01*
X183296238Y-30749476D01*
X183327190Y-30873285D01*
X183358142Y-30935190D01*
X183420047Y-30997095D01*
X183512904Y-31028047D01*
X183574809Y-31028047D01*
X183667666Y-30997095D01*
X183698619Y-30966142D01*
X183698619Y-30749476D01*
X183574809Y-30749476D01*
X183977190Y-31028047D02*
X183977190Y-30378047D01*
X184348619Y-31028047D01*
X184348619Y-30378047D01*
X184658142Y-31028047D02*
X184658142Y-30378047D01*
X184812904Y-30378047D01*
X184905761Y-30409000D01*
X184967666Y-30470904D01*
X184998619Y-30532809D01*
X185029571Y-30656619D01*
X185029571Y-30749476D01*
X184998619Y-30873285D01*
X184967666Y-30935190D01*
X184905761Y-30997095D01*
X184812904Y-31028047D01*
X184658142Y-31028047D01*
X185803380Y-31028047D02*
X185803380Y-30378047D01*
X186020047Y-30842333D01*
X186236714Y-30378047D01*
X186236714Y-31028047D01*
X186670047Y-30378047D02*
X186793857Y-30378047D01*
X186855761Y-30409000D01*
X186917666Y-30470904D01*
X186948619Y-30594714D01*
X186948619Y-30811380D01*
X186917666Y-30935190D01*
X186855761Y-30997095D01*
X186793857Y-31028047D01*
X186670047Y-31028047D01*
X186608142Y-30997095D01*
X186546238Y-30935190D01*
X186515285Y-30811380D01*
X186515285Y-30594714D01*
X186546238Y-30470904D01*
X186608142Y-30409000D01*
X186670047Y-30378047D01*
X187196238Y-30997095D02*
X187289095Y-31028047D01*
X187443857Y-31028047D01*
X187505761Y-30997095D01*
X187536714Y-30966142D01*
X187567666Y-30904238D01*
X187567666Y-30842333D01*
X187536714Y-30780428D01*
X187505761Y-30749476D01*
X187443857Y-30718523D01*
X187320047Y-30687571D01*
X187258142Y-30656619D01*
X187227190Y-30625666D01*
X187196238Y-30563761D01*
X187196238Y-30501857D01*
X187227190Y-30439952D01*
X187258142Y-30409000D01*
X187320047Y-30378047D01*
X187474809Y-30378047D01*
X187567666Y-30409000D01*
X187846238Y-31028047D02*
X187846238Y-30378047D01*
X188651000Y-31028047D02*
X188651000Y-30378047D01*
X188867666Y-30842333D01*
X189084333Y-30378047D01*
X189084333Y-31028047D01*
X189393857Y-31028047D02*
X189393857Y-30378047D01*
X189672428Y-30997095D02*
X189765285Y-31028047D01*
X189920047Y-31028047D01*
X189981952Y-30997095D01*
X190012904Y-30966142D01*
X190043857Y-30904238D01*
X190043857Y-30842333D01*
X190012904Y-30780428D01*
X189981952Y-30749476D01*
X189920047Y-30718523D01*
X189796238Y-30687571D01*
X189734333Y-30656619D01*
X189703380Y-30625666D01*
X189672428Y-30563761D01*
X189672428Y-30501857D01*
X189703380Y-30439952D01*
X189734333Y-30409000D01*
X189796238Y-30378047D01*
X189951000Y-30378047D01*
X190043857Y-30409000D01*
X190446238Y-30378047D02*
X190570047Y-30378047D01*
X190631952Y-30409000D01*
X190693857Y-30470904D01*
X190724809Y-30594714D01*
X190724809Y-30811380D01*
X190693857Y-30935190D01*
X190631952Y-30997095D01*
X190570047Y-31028047D01*
X190446238Y-31028047D01*
X190384333Y-30997095D01*
X190322428Y-30935190D01*
X190291476Y-30811380D01*
X190291476Y-30594714D01*
X190322428Y-30470904D01*
X190384333Y-30409000D01*
X190446238Y-30378047D01*
X191467666Y-30842333D02*
X191777190Y-30842333D01*
X191405761Y-31028047D02*
X191622428Y-30378047D01*
X191839095Y-31028047D01*
X192179571Y-30378047D02*
X192241476Y-30378047D01*
X192303380Y-30409000D01*
X192334333Y-30439952D01*
X192365285Y-30501857D01*
X192396238Y-30625666D01*
X192396238Y-30780428D01*
X192365285Y-30904238D01*
X192334333Y-30966142D01*
X192303380Y-30997095D01*
X192241476Y-31028047D01*
X192179571Y-31028047D01*
X192117666Y-30997095D01*
X192086714Y-30966142D01*
X192055761Y-30904238D01*
X192024809Y-30780428D01*
X192024809Y-30625666D01*
X192055761Y-30501857D01*
X192086714Y-30439952D01*
X192117666Y-30409000D01*
X192179571Y-30378047D01*
X193665285Y-31028047D02*
X193665285Y-30378047D01*
X193820047Y-30378047D01*
X193912904Y-30409000D01*
X193974809Y-30470904D01*
X194005761Y-30532809D01*
X194036714Y-30656619D01*
X194036714Y-30749476D01*
X194005761Y-30873285D01*
X193974809Y-30935190D01*
X193912904Y-30997095D01*
X193820047Y-31028047D01*
X193665285Y-31028047D01*
X194253380Y-30378047D02*
X194686714Y-30378047D01*
X194408142Y-31028047D01*
X183192666Y-23746666D02*
X183426000Y-24446666D01*
X183659333Y-23746666D01*
X184292666Y-24380000D02*
X184259333Y-24413333D01*
X184159333Y-24446666D01*
X184092666Y-24446666D01*
X183992666Y-24413333D01*
X183926000Y-24346666D01*
X183892666Y-24280000D01*
X183859333Y-24146666D01*
X183859333Y-24046666D01*
X183892666Y-23913333D01*
X183926000Y-23846666D01*
X183992666Y-23780000D01*
X184092666Y-23746666D01*
X184159333Y-23746666D01*
X184259333Y-23780000D01*
X184292666Y-23813333D01*
X184992666Y-24380000D02*
X184959333Y-24413333D01*
X184859333Y-24446666D01*
X184792666Y-24446666D01*
X184692666Y-24413333D01*
X184626000Y-24346666D01*
X184592666Y-24280000D01*
X184559333Y-24146666D01*
X184559333Y-24046666D01*
X184592666Y-23913333D01*
X184626000Y-23846666D01*
X184692666Y-23780000D01*
X184792666Y-23746666D01*
X184859333Y-23746666D01*
X184959333Y-23780000D01*
X184992666Y-23813333D01*
X186759333Y-24380000D02*
X186726000Y-24413333D01*
X186626000Y-24446666D01*
X186559333Y-24446666D01*
X186459333Y-24413333D01*
X186392666Y-24346666D01*
X186359333Y-24280000D01*
X186326000Y-24146666D01*
X186326000Y-24046666D01*
X186359333Y-23913333D01*
X186392666Y-23846666D01*
X186459333Y-23780000D01*
X186559333Y-23746666D01*
X186626000Y-23746666D01*
X186726000Y-23780000D01*
X186759333Y-23813333D01*
X187026000Y-24413333D02*
X187126000Y-24446666D01*
X187292666Y-24446666D01*
X187359333Y-24413333D01*
X187392666Y-24380000D01*
X187426000Y-24313333D01*
X187426000Y-24246666D01*
X187392666Y-24180000D01*
X187359333Y-24146666D01*
X187292666Y-24113333D01*
X187159333Y-24080000D01*
X187092666Y-24046666D01*
X187059333Y-24013333D01*
X187026000Y-23946666D01*
X187026000Y-23880000D01*
X187059333Y-23813333D01*
X187092666Y-23780000D01*
X187159333Y-23746666D01*
X187326000Y-23746666D01*
X187426000Y-23780000D01*
X188659333Y-24380000D02*
X188626000Y-24413333D01*
X188526000Y-24446666D01*
X188459333Y-24446666D01*
X188359333Y-24413333D01*
X188292666Y-24346666D01*
X188259333Y-24280000D01*
X188226000Y-24146666D01*
X188226000Y-24046666D01*
X188259333Y-23913333D01*
X188292666Y-23846666D01*
X188359333Y-23780000D01*
X188459333Y-23746666D01*
X188526000Y-23746666D01*
X188626000Y-23780000D01*
X188659333Y-23813333D01*
X189292666Y-24446666D02*
X188959333Y-24446666D01*
X188959333Y-23746666D01*
X189526000Y-24446666D02*
X189526000Y-23746666D01*
X189926000Y-24446666D02*
X189626000Y-24046666D01*
X189926000Y-23746666D02*
X189526000Y-24146666D01*
X191259333Y-24246666D02*
X191592666Y-24246666D01*
X191192666Y-24446666D02*
X191426000Y-23746666D01*
X191659333Y-24446666D01*
X192259333Y-24446666D02*
X191859333Y-24446666D01*
X192059333Y-24446666D02*
X192059333Y-23746666D01*
X191992666Y-23846666D01*
X191926000Y-23913333D01*
X191859333Y-23946666D01*
X193626000Y-24446666D02*
X193626000Y-23746666D01*
X193792666Y-23746666D01*
X193892666Y-23780000D01*
X193959333Y-23846666D01*
X193992666Y-23913333D01*
X194026000Y-24046666D01*
X194026000Y-24146666D01*
X193992666Y-24280000D01*
X193959333Y-24346666D01*
X193892666Y-24413333D01*
X193792666Y-24446666D01*
X193626000Y-24446666D01*
X194626000Y-23746666D02*
X194492666Y-23746666D01*
X194426000Y-23780000D01*
X194392666Y-23813333D01*
X194326000Y-23913333D01*
X194292666Y-24046666D01*
X194292666Y-24313333D01*
X194326000Y-24380000D01*
X194359333Y-24413333D01*
X194426000Y-24446666D01*
X194559333Y-24446666D01*
X194626000Y-24413333D01*
X194659333Y-24380000D01*
X194692666Y-24313333D01*
X194692666Y-24146666D01*
X194659333Y-24080000D01*
X194626000Y-24046666D01*
X194559333Y-24013333D01*
X194426000Y-24013333D01*
X194359333Y-24046666D01*
X194326000Y-24080000D01*
X194292666Y-24146666D01*
D12*
G36*
X32846799Y-46235790D02*
G01*
X32917688Y-46297226D01*
X32964415Y-46384101D01*
X32972901Y-46419410D01*
X32976000Y-46462448D01*
X32979184Y-46550630D01*
X32982351Y-46678250D01*
X32985402Y-46839602D01*
X32988236Y-47028979D01*
X32990753Y-47240675D01*
X32992851Y-47468985D01*
X32993864Y-47610889D01*
X33000905Y-48716895D01*
X33100050Y-48920298D01*
X33234191Y-49140700D01*
X33403733Y-49326690D01*
X33605001Y-49474559D01*
X33699686Y-49525164D01*
X33777404Y-49561357D01*
X33843222Y-49587260D01*
X33909191Y-49605302D01*
X33987362Y-49617909D01*
X34089785Y-49627512D01*
X34228513Y-49636540D01*
X34262126Y-49638516D01*
X34434531Y-49650705D01*
X34563439Y-49665934D01*
X34656199Y-49686613D01*
X34720160Y-49715153D01*
X34762673Y-49753964D01*
X34791085Y-49805455D01*
X34794028Y-49812947D01*
X34800084Y-49894176D01*
X34765094Y-49974055D01*
X34696880Y-50037172D01*
X34674115Y-50049189D01*
X34606539Y-50065912D01*
X34500336Y-50075678D01*
X34367234Y-50078623D01*
X34218961Y-50074880D01*
X34067245Y-50064583D01*
X33923812Y-50047865D01*
X33875178Y-50040076D01*
X33666448Y-49989842D01*
X33478033Y-49912715D01*
X33298038Y-49802348D01*
X33114565Y-49652394D01*
X33068487Y-49609614D01*
X32949668Y-49501457D01*
X32855879Y-49430926D01*
X32778581Y-49397446D01*
X32709236Y-49400445D01*
X32639309Y-49439348D01*
X32560262Y-49513582D01*
X32507468Y-49571922D01*
X32319774Y-49747542D01*
X32098800Y-49886710D01*
X31848393Y-49987720D01*
X31572403Y-50048864D01*
X31393738Y-50065826D01*
X31273992Y-50072259D01*
X31167537Y-50078748D01*
X31088152Y-50084410D01*
X31055441Y-50087487D01*
X30984599Y-50087394D01*
X30907584Y-50076418D01*
X30806322Y-50034979D01*
X30738581Y-49970373D01*
X30705615Y-49892869D01*
X30708680Y-49812738D01*
X30749032Y-49740250D01*
X30827925Y-49685675D01*
X30858473Y-49674580D01*
X30914599Y-49664090D01*
X31009082Y-49653328D01*
X31129452Y-49643461D01*
X31263236Y-49635657D01*
X31284270Y-49634711D01*
X31424031Y-49628159D01*
X31525992Y-49620714D01*
X31603166Y-49609634D01*
X31668572Y-49592180D01*
X31735225Y-49565608D01*
X31816140Y-49527178D01*
X31832162Y-49519313D01*
X32046736Y-49387214D01*
X32226174Y-49218759D01*
X32371683Y-49012713D01*
X32422769Y-48915085D01*
X32517403Y-48716895D01*
X32530116Y-47560038D01*
X32533219Y-47321318D01*
X32537053Y-47097563D01*
X32541459Y-46894043D01*
X32546282Y-46716029D01*
X32551364Y-46568791D01*
X32556548Y-46457599D01*
X32561678Y-46387725D01*
X32565680Y-46365043D01*
X32639256Y-46271110D01*
X32719289Y-46220294D01*
X32764533Y-46212491D01*
X32846799Y-46235790D01*
G37*
X32846799Y-46235790D02*
X32917688Y-46297226D01*
X32964415Y-46384101D01*
X32972901Y-46419410D01*
X32976000Y-46462448D01*
X32979184Y-46550630D01*
X32982351Y-46678250D01*
X32985402Y-46839602D01*
X32988236Y-47028979D01*
X32990753Y-47240675D01*
X32992851Y-47468985D01*
X32993864Y-47610889D01*
X33000905Y-48716895D01*
X33100050Y-48920298D01*
X33234191Y-49140700D01*
X33403733Y-49326690D01*
X33605001Y-49474559D01*
X33699686Y-49525164D01*
X33777404Y-49561357D01*
X33843222Y-49587260D01*
X33909191Y-49605302D01*
X33987362Y-49617909D01*
X34089785Y-49627512D01*
X34228513Y-49636540D01*
X34262126Y-49638516D01*
X34434531Y-49650705D01*
X34563439Y-49665934D01*
X34656199Y-49686613D01*
X34720160Y-49715153D01*
X34762673Y-49753964D01*
X34791085Y-49805455D01*
X34794028Y-49812947D01*
X34800084Y-49894176D01*
X34765094Y-49974055D01*
X34696880Y-50037172D01*
X34674115Y-50049189D01*
X34606539Y-50065912D01*
X34500336Y-50075678D01*
X34367234Y-50078623D01*
X34218961Y-50074880D01*
X34067245Y-50064583D01*
X33923812Y-50047865D01*
X33875178Y-50040076D01*
X33666448Y-49989842D01*
X33478033Y-49912715D01*
X33298038Y-49802348D01*
X33114565Y-49652394D01*
X33068487Y-49609614D01*
X32949668Y-49501457D01*
X32855879Y-49430926D01*
X32778581Y-49397446D01*
X32709236Y-49400445D01*
X32639309Y-49439348D01*
X32560262Y-49513582D01*
X32507468Y-49571922D01*
X32319774Y-49747542D01*
X32098800Y-49886710D01*
X31848393Y-49987720D01*
X31572403Y-50048864D01*
X31393738Y-50065826D01*
X31273992Y-50072259D01*
X31167537Y-50078748D01*
X31088152Y-50084410D01*
X31055441Y-50087487D01*
X30984599Y-50087394D01*
X30907584Y-50076418D01*
X30806322Y-50034979D01*
X30738581Y-49970373D01*
X30705615Y-49892869D01*
X30708680Y-49812738D01*
X30749032Y-49740250D01*
X30827925Y-49685675D01*
X30858473Y-49674580D01*
X30914599Y-49664090D01*
X31009082Y-49653328D01*
X31129452Y-49643461D01*
X31263236Y-49635657D01*
X31284270Y-49634711D01*
X31424031Y-49628159D01*
X31525992Y-49620714D01*
X31603166Y-49609634D01*
X31668572Y-49592180D01*
X31735225Y-49565608D01*
X31816140Y-49527178D01*
X31832162Y-49519313D01*
X32046736Y-49387214D01*
X32226174Y-49218759D01*
X32371683Y-49012713D01*
X32422769Y-48915085D01*
X32517403Y-48716895D01*
X32530116Y-47560038D01*
X32533219Y-47321318D01*
X32537053Y-47097563D01*
X32541459Y-46894043D01*
X32546282Y-46716029D01*
X32551364Y-46568791D01*
X32556548Y-46457599D01*
X32561678Y-46387725D01*
X32565680Y-46365043D01*
X32639256Y-46271110D01*
X32719289Y-46220294D01*
X32764533Y-46212491D01*
X32846799Y-46235790D01*
G36*
X32907175Y-44401116D02*
G01*
X32980504Y-44469245D01*
X33031813Y-44575430D01*
X33052002Y-44670766D01*
X33057125Y-44741826D01*
X33060507Y-44852097D01*
X33061996Y-44989967D01*
X33061445Y-45143822D01*
X33059613Y-45262170D01*
X33054189Y-45451671D01*
X33045709Y-45597161D01*
X33032465Y-45705463D01*
X33012753Y-45783398D01*
X32984865Y-45837790D01*
X32947095Y-45875460D01*
X32899495Y-45902436D01*
X32826598Y-45928371D01*
X32766722Y-45924892D01*
X32708094Y-45900301D01*
X32661546Y-45871969D01*
X32625400Y-45834927D01*
X32598383Y-45782896D01*
X32579222Y-45709595D01*
X32566642Y-45608746D01*
X32559369Y-45474069D01*
X32556130Y-45299284D01*
X32555581Y-45148465D01*
X32556704Y-44940333D01*
X32560971Y-44776886D01*
X32569676Y-44651991D01*
X32584114Y-44559517D01*
X32605581Y-44493330D01*
X32635371Y-44447299D01*
X32674779Y-44415290D01*
X32714588Y-44395454D01*
X32816858Y-44375149D01*
X32907175Y-44401116D01*
G37*
X32907175Y-44401116D02*
X32980504Y-44469245D01*
X33031813Y-44575430D01*
X33052002Y-44670766D01*
X33057125Y-44741826D01*
X33060507Y-44852097D01*
X33061996Y-44989967D01*
X33061445Y-45143822D01*
X33059613Y-45262170D01*
X33054189Y-45451671D01*
X33045709Y-45597161D01*
X33032465Y-45705463D01*
X33012753Y-45783398D01*
X32984865Y-45837790D01*
X32947095Y-45875460D01*
X32899495Y-45902436D01*
X32826598Y-45928371D01*
X32766722Y-45924892D01*
X32708094Y-45900301D01*
X32661546Y-45871969D01*
X32625400Y-45834927D01*
X32598383Y-45782896D01*
X32579222Y-45709595D01*
X32566642Y-45608746D01*
X32559369Y-45474069D01*
X32556130Y-45299284D01*
X32555581Y-45148465D01*
X32556704Y-44940333D01*
X32560971Y-44776886D01*
X32569676Y-44651991D01*
X32584114Y-44559517D01*
X32605581Y-44493330D01*
X32635371Y-44447299D01*
X32674779Y-44415290D01*
X32714588Y-44395454D01*
X32816858Y-44375149D01*
X32907175Y-44401116D01*
G36*
X31519455Y-44921798D02*
G01*
X32339425Y-44928507D01*
X32346772Y-45150979D01*
X32354118Y-45373452D01*
X30699485Y-45373452D01*
X30699485Y-44915090D01*
X31519455Y-44921798D01*
G37*
X31519455Y-44921798D02*
X32339425Y-44928507D01*
X32346772Y-45150979D01*
X32354118Y-45373452D01*
X30699485Y-45373452D01*
X30699485Y-44915090D01*
X31519455Y-44921798D01*
G36*
X34762187Y-45150979D02*
G01*
X34769533Y-45373452D01*
X33189197Y-45373452D01*
X33196544Y-45150979D01*
X33203890Y-44928507D01*
X34754841Y-44928507D01*
X34762187Y-45150979D01*
G37*
X34762187Y-45150979D02*
X34769533Y-45373452D01*
X33189197Y-45373452D01*
X33196544Y-45150979D01*
X33203890Y-44928507D01*
X34754841Y-44928507D01*
X34762187Y-45150979D01*
G36*
X34117209Y-42381320D02*
G01*
X34126406Y-42387508D01*
X34167370Y-42419833D01*
X34198968Y-42456771D01*
X34222400Y-42505016D01*
X34238863Y-42571264D01*
X34249557Y-42662210D01*
X34255678Y-42784551D01*
X34258426Y-42944982D01*
X34259005Y-43128395D01*
X34258504Y-43315761D01*
X34256694Y-43459531D01*
X34253073Y-43566953D01*
X34247140Y-43645277D01*
X34238391Y-43701751D01*
X34226325Y-43743623D01*
X34214511Y-43770369D01*
X34148835Y-43850782D01*
X34058043Y-43898451D01*
X33961164Y-43904930D01*
X33908277Y-43879806D01*
X33850277Y-43830041D01*
X33840393Y-43818895D01*
X33775962Y-43742323D01*
X33775962Y-42520719D01*
X33862408Y-42434272D01*
X33950191Y-42367656D01*
X34033592Y-42350277D01*
X34117209Y-42381320D01*
G37*
X34117209Y-42381320D02*
X34126406Y-42387508D01*
X34167370Y-42419833D01*
X34198968Y-42456771D01*
X34222400Y-42505016D01*
X34238863Y-42571264D01*
X34249557Y-42662210D01*
X34255678Y-42784551D01*
X34258426Y-42944982D01*
X34259005Y-43128395D01*
X34258504Y-43315761D01*
X34256694Y-43459531D01*
X34253073Y-43566953D01*
X34247140Y-43645277D01*
X34238391Y-43701751D01*
X34226325Y-43743623D01*
X34214511Y-43770369D01*
X34148835Y-43850782D01*
X34058043Y-43898451D01*
X33961164Y-43904930D01*
X33908277Y-43879806D01*
X33850277Y-43830041D01*
X33840393Y-43818895D01*
X33775962Y-43742323D01*
X33775962Y-42520719D01*
X33862408Y-42434272D01*
X33950191Y-42367656D01*
X34033592Y-42350277D01*
X34117209Y-42381320D01*
G36*
X33623409Y-43364843D02*
G01*
X30699485Y-43364843D01*
X30699485Y-42907185D01*
X33623409Y-42907185D01*
X33623409Y-43364843D01*
G37*
X33623409Y-43364843D02*
X30699485Y-43364843D01*
X30699485Y-42907185D01*
X33623409Y-42907185D01*
X33623409Y-43364843D01*
G36*
X34762187Y-43129658D02*
G01*
X34754841Y-43352130D01*
X34411597Y-43367166D01*
X34411597Y-42907185D01*
X34769533Y-42907185D01*
X34762187Y-43129658D01*
G37*
X34762187Y-43129658D02*
X34754841Y-43352130D01*
X34411597Y-43367166D01*
X34411597Y-42907185D01*
X34769533Y-42907185D01*
X34762187Y-43129658D01*
G36*
X32867353Y-40501623D02*
G01*
X32917453Y-40540490D01*
X33000486Y-40614636D01*
X33008201Y-41205719D01*
X33010217Y-41414607D01*
X33009605Y-41578936D01*
X33005509Y-41704969D01*
X32997073Y-41798967D01*
X32983441Y-41867191D01*
X32963758Y-41915902D01*
X32937167Y-41951363D01*
X32902813Y-41979835D01*
X32902336Y-41980170D01*
X32823637Y-42010222D01*
X32729674Y-42013444D01*
X32650886Y-41989833D01*
X32614553Y-41964241D01*
X32586242Y-41930731D01*
X32564977Y-41883134D01*
X32549780Y-41815281D01*
X32539673Y-41721005D01*
X32533679Y-41594138D01*
X32530819Y-41428510D01*
X32530116Y-41227827D01*
X32530116Y-40639237D01*
X32616562Y-40552791D01*
X32702609Y-40486670D01*
X32783854Y-40469710D01*
X32867353Y-40501623D01*
G37*
X32867353Y-40501623D02*
X32917453Y-40540490D01*
X33000486Y-40614636D01*
X33008201Y-41205719D01*
X33010217Y-41414607D01*
X33009605Y-41578936D01*
X33005509Y-41704969D01*
X32997073Y-41798967D01*
X32983441Y-41867191D01*
X32963758Y-41915902D01*
X32937167Y-41951363D01*
X32902813Y-41979835D01*
X32902336Y-41980170D01*
X32823637Y-42010222D01*
X32729674Y-42013444D01*
X32650886Y-41989833D01*
X32614553Y-41964241D01*
X32586242Y-41930731D01*
X32564977Y-41883134D01*
X32549780Y-41815281D01*
X32539673Y-41721005D01*
X32533679Y-41594138D01*
X32530819Y-41428510D01*
X32530116Y-41227827D01*
X32530116Y-40639237D01*
X32616562Y-40552791D01*
X32702609Y-40486670D01*
X32783854Y-40469710D01*
X32867353Y-40501623D01*
G36*
X32346772Y-41248176D02*
G01*
X32339425Y-41470649D01*
X31519455Y-41477357D01*
X30699485Y-41484066D01*
X30699485Y-41025704D01*
X32354118Y-41025704D01*
X32346772Y-41248176D01*
G37*
X32346772Y-41248176D02*
X32339425Y-41470649D01*
X31519455Y-41477357D01*
X30699485Y-41484066D01*
X30699485Y-41025704D01*
X32354118Y-41025704D01*
X32346772Y-41248176D01*
G36*
X34762187Y-41248176D02*
G01*
X34754841Y-41470649D01*
X33990325Y-41477371D01*
X33798009Y-41478502D01*
X33622288Y-41478462D01*
X33469556Y-41477339D01*
X33346210Y-41475218D01*
X33258645Y-41472186D01*
X33213257Y-41468330D01*
X33208493Y-41466777D01*
X33200532Y-41434945D01*
X33194502Y-41365377D01*
X33191393Y-41271183D01*
X33191177Y-41237582D01*
X33191177Y-41025704D01*
X34769533Y-41025704D01*
X34762187Y-41248176D01*
G37*
X34762187Y-41248176D02*
X34754841Y-41470649D01*
X33990325Y-41477371D01*
X33798009Y-41478502D01*
X33622288Y-41478462D01*
X33469556Y-41477339D01*
X33346210Y-41475218D01*
X33258645Y-41472186D01*
X33213257Y-41468330D01*
X33208493Y-41466777D01*
X33200532Y-41434945D01*
X33194502Y-41365377D01*
X33191393Y-41271183D01*
X33191177Y-41237582D01*
X33191177Y-41025704D01*
X34769533Y-41025704D01*
X34762187Y-41248176D01*
G36*
X32840173Y-35874212D02*
G01*
X32902336Y-35901468D01*
X32936792Y-35929893D01*
X32963473Y-35965229D01*
X32983237Y-36013739D01*
X32996938Y-36081683D01*
X33005433Y-36175324D01*
X33009577Y-36300922D01*
X33010227Y-36464740D01*
X33008239Y-36673039D01*
X33008201Y-36675919D01*
X33000486Y-37267002D01*
X32917453Y-37341148D01*
X32829639Y-37400161D01*
X32748009Y-37410463D01*
X32665508Y-37371764D01*
X32616562Y-37328847D01*
X32530116Y-37242401D01*
X32530116Y-36653811D01*
X32530896Y-36444769D01*
X32533908Y-36280443D01*
X32540160Y-36154713D01*
X32550660Y-36061460D01*
X32566416Y-35994562D01*
X32588436Y-35947901D01*
X32617727Y-35915357D01*
X32655299Y-35890809D01*
X32655835Y-35890522D01*
X32744256Y-35866438D01*
X32840173Y-35874212D01*
G37*
X32840173Y-35874212D02*
X32902336Y-35901468D01*
X32936792Y-35929893D01*
X32963473Y-35965229D01*
X32983237Y-36013739D01*
X32996938Y-36081683D01*
X33005433Y-36175324D01*
X33009577Y-36300922D01*
X33010227Y-36464740D01*
X33008239Y-36673039D01*
X33008201Y-36675919D01*
X33000486Y-37267002D01*
X32917453Y-37341148D01*
X32829639Y-37400161D01*
X32748009Y-37410463D01*
X32665508Y-37371764D01*
X32616562Y-37328847D01*
X32530116Y-37242401D01*
X32530116Y-36653811D01*
X32530896Y-36444769D01*
X32533908Y-36280443D01*
X32540160Y-36154713D01*
X32550660Y-36061460D01*
X32566416Y-35994562D01*
X32588436Y-35947901D01*
X32617727Y-35915357D01*
X32655299Y-35890809D01*
X32655835Y-35890522D01*
X32744256Y-35866438D01*
X32840173Y-35874212D01*
G36*
X31519455Y-36404281D02*
G01*
X32339425Y-36410989D01*
X32346772Y-36633462D01*
X32354118Y-36855934D01*
X30699485Y-36855934D01*
X30699485Y-36397572D01*
X31519455Y-36404281D01*
G37*
X31519455Y-36404281D02*
X32339425Y-36410989D01*
X32346772Y-36633462D01*
X32354118Y-36855934D01*
X30699485Y-36855934D01*
X30699485Y-36397572D01*
X31519455Y-36404281D01*
G36*
X34762187Y-36633462D02*
G01*
X34769533Y-36855934D01*
X33189197Y-36855934D01*
X33196544Y-36633462D01*
X33203890Y-36410989D01*
X34754841Y-36410989D01*
X34762187Y-36633462D01*
G37*
X34762187Y-36633462D02*
X34769533Y-36855934D01*
X33189197Y-36855934D01*
X33196544Y-36633462D01*
X33203890Y-36410989D01*
X34754841Y-36410989D01*
X34762187Y-36633462D01*
G36*
X33907553Y-30085112D02*
G01*
X34111253Y-30157126D01*
X34299902Y-30267944D01*
X34467474Y-30416323D01*
X34607937Y-30601022D01*
X34673097Y-30721094D01*
X34754841Y-30893672D01*
X34761910Y-32972200D01*
X34768980Y-35050729D01*
X34336780Y-35050729D01*
X34329694Y-33023051D01*
X34322609Y-30995374D01*
X34266383Y-30890253D01*
X34153689Y-30731971D01*
X34004129Y-30608340D01*
X33906595Y-30555656D01*
X33813628Y-30518684D01*
X33731313Y-30503115D01*
X33631974Y-30504294D01*
X33610581Y-30505891D01*
X33442630Y-30539962D01*
X33286680Y-30610067D01*
X33152483Y-30709149D01*
X33049790Y-30830151D01*
X32991856Y-30953636D01*
X32985016Y-30995046D01*
X32979140Y-31071690D01*
X32974191Y-31185629D01*
X32970130Y-31338923D01*
X32966921Y-31533635D01*
X32964525Y-31771823D01*
X32962905Y-32055550D01*
X32962024Y-32386875D01*
X32961837Y-32600125D01*
X32961357Y-32881386D01*
X32960152Y-33151603D01*
X32958294Y-33405774D01*
X32955853Y-33638897D01*
X32952900Y-33845971D01*
X32949505Y-34021993D01*
X32945741Y-34161962D01*
X32941677Y-34260876D01*
X32937567Y-34312520D01*
X32881447Y-34535028D01*
X32784052Y-34735662D01*
X32651172Y-34910565D01*
X32488601Y-35055881D01*
X32302128Y-35167754D01*
X32097547Y-35242328D01*
X31880648Y-35275746D01*
X31657223Y-35264153D01*
X31544376Y-35240138D01*
X31323206Y-35156334D01*
X31127014Y-35033277D01*
X30961521Y-34876323D01*
X30832452Y-34690827D01*
X30749885Y-34496634D01*
X30740714Y-34465334D01*
X30732727Y-34432455D01*
X30725842Y-34394442D01*
X30719979Y-34347736D01*
X30715054Y-34288780D01*
X30710987Y-34214018D01*
X30707696Y-34119891D01*
X30705098Y-34002843D01*
X30703113Y-33859316D01*
X30701659Y-33685753D01*
X30700653Y-33478597D01*
X30700015Y-33234290D01*
X30699662Y-32949276D01*
X30699513Y-32619997D01*
X30699485Y-32302105D01*
X30699485Y-30270749D01*
X31130259Y-30270749D01*
X31137345Y-32298427D01*
X31144430Y-34326104D01*
X31213100Y-34456276D01*
X31319478Y-34606973D01*
X31456343Y-34720463D01*
X31616760Y-34793971D01*
X31793797Y-34824723D01*
X31980519Y-34809943D01*
X32051944Y-34791999D01*
X32162115Y-34738979D01*
X32274168Y-34651508D01*
X32373387Y-34543202D01*
X32444544Y-34428775D01*
X32504194Y-34300679D01*
X32504442Y-32693772D01*
X32504970Y-32300244D01*
X32506429Y-31957261D01*
X32508822Y-31664529D01*
X32512156Y-31421750D01*
X32516433Y-31228628D01*
X32521661Y-31084868D01*
X32527843Y-30990172D01*
X32532903Y-30952131D01*
X32587975Y-30778713D01*
X32676432Y-30602641D01*
X32787128Y-30443553D01*
X32874333Y-30350559D01*
X33062843Y-30209927D01*
X33266450Y-30114308D01*
X33479123Y-30062461D01*
X33694834Y-30053142D01*
X33907553Y-30085112D01*
G37*
X33907553Y-30085112D02*
X34111253Y-30157126D01*
X34299902Y-30267944D01*
X34467474Y-30416323D01*
X34607937Y-30601022D01*
X34673097Y-30721094D01*
X34754841Y-30893672D01*
X34761910Y-32972200D01*
X34768980Y-35050729D01*
X34336780Y-35050729D01*
X34329694Y-33023051D01*
X34322609Y-30995374D01*
X34266383Y-30890253D01*
X34153689Y-30731971D01*
X34004129Y-30608340D01*
X33906595Y-30555656D01*
X33813628Y-30518684D01*
X33731313Y-30503115D01*
X33631974Y-30504294D01*
X33610581Y-30505891D01*
X33442630Y-30539962D01*
X33286680Y-30610067D01*
X33152483Y-30709149D01*
X33049790Y-30830151D01*
X32991856Y-30953636D01*
X32985016Y-30995046D01*
X32979140Y-31071690D01*
X32974191Y-31185629D01*
X32970130Y-31338923D01*
X32966921Y-31533635D01*
X32964525Y-31771823D01*
X32962905Y-32055550D01*
X32962024Y-32386875D01*
X32961837Y-32600125D01*
X32961357Y-32881386D01*
X32960152Y-33151603D01*
X32958294Y-33405774D01*
X32955853Y-33638897D01*
X32952900Y-33845971D01*
X32949505Y-34021993D01*
X32945741Y-34161962D01*
X32941677Y-34260876D01*
X32937567Y-34312520D01*
X32881447Y-34535028D01*
X32784052Y-34735662D01*
X32651172Y-34910565D01*
X32488601Y-35055881D01*
X32302128Y-35167754D01*
X32097547Y-35242328D01*
X31880648Y-35275746D01*
X31657223Y-35264153D01*
X31544376Y-35240138D01*
X31323206Y-35156334D01*
X31127014Y-35033277D01*
X30961521Y-34876323D01*
X30832452Y-34690827D01*
X30749885Y-34496634D01*
X30740714Y-34465334D01*
X30732727Y-34432455D01*
X30725842Y-34394442D01*
X30719979Y-34347736D01*
X30715054Y-34288780D01*
X30710987Y-34214018D01*
X30707696Y-34119891D01*
X30705098Y-34002843D01*
X30703113Y-33859316D01*
X30701659Y-33685753D01*
X30700653Y-33478597D01*
X30700015Y-33234290D01*
X30699662Y-32949276D01*
X30699513Y-32619997D01*
X30699485Y-32302105D01*
X30699485Y-30270749D01*
X31130259Y-30270749D01*
X31137345Y-32298427D01*
X31144430Y-34326104D01*
X31213100Y-34456276D01*
X31319478Y-34606973D01*
X31456343Y-34720463D01*
X31616760Y-34793971D01*
X31793797Y-34824723D01*
X31980519Y-34809943D01*
X32051944Y-34791999D01*
X32162115Y-34738979D01*
X32274168Y-34651508D01*
X32373387Y-34543202D01*
X32444544Y-34428775D01*
X32504194Y-34300679D01*
X32504442Y-32693772D01*
X32504970Y-32300244D01*
X32506429Y-31957261D01*
X32508822Y-31664529D01*
X32512156Y-31421750D01*
X32516433Y-31228628D01*
X32521661Y-31084868D01*
X32527843Y-30990172D01*
X32532903Y-30952131D01*
X32587975Y-30778713D01*
X32676432Y-30602641D01*
X32787128Y-30443553D01*
X32874333Y-30350559D01*
X33062843Y-30209927D01*
X33266450Y-30114308D01*
X33479123Y-30062461D01*
X33694834Y-30053142D01*
X33907553Y-30085112D01*
G36*
X40017700Y-149288500D02*
G01*
X40170100Y-149209760D01*
X40546020Y-149517100D01*
X40805100Y-149258020D01*
X40497760Y-148882100D01*
X40576500Y-148729700D01*
X40627300Y-148567140D01*
X41112440Y-148516340D01*
X41112440Y-148155660D01*
X40627300Y-148104860D01*
X40576500Y-147942300D01*
X40497760Y-147789900D01*
X40805100Y-147413980D01*
X40546020Y-147154900D01*
X40170100Y-147462240D01*
X40017700Y-147383500D01*
X39855140Y-147332700D01*
X39804340Y-146847560D01*
X39443660Y-146847560D01*
X39392860Y-147332700D01*
X39230300Y-147383500D01*
X39077900Y-147462240D01*
X38701980Y-147154900D01*
X38442900Y-147413980D01*
X38750240Y-147789900D01*
X38671500Y-147942300D01*
X38620700Y-148104860D01*
X38135560Y-148155660D01*
X38135560Y-148516340D01*
X38620700Y-148567140D01*
X38671500Y-148729700D01*
X38750240Y-148882100D01*
X38442900Y-149258020D01*
X38701980Y-149517100D01*
X39077900Y-149209760D01*
X39230300Y-149288500D01*
X39446200Y-148767800D01*
X39349680Y-148714460D01*
X39268400Y-148638260D01*
X39207440Y-148546820D01*
X39169340Y-148445220D01*
X39156640Y-148336000D01*
X39169340Y-148226780D01*
X39209980Y-148120100D01*
X39273480Y-148028660D01*
X39357300Y-147952460D01*
X39456360Y-147901660D01*
X39563040Y-147873720D01*
X39674800Y-147871180D01*
X39784020Y-147896580D01*
X39883080Y-147947380D01*
X39969440Y-148021040D01*
X40032940Y-148112480D01*
X40076120Y-148216620D01*
X40091360Y-148325840D01*
X40081200Y-148435060D01*
X40043100Y-148541740D01*
X39982140Y-148635720D01*
X39900860Y-148711920D01*
X39801800Y-148767800D01*
X40017700Y-149288500D01*
G37*
X40017700Y-149288500D02*
X40170100Y-149209760D01*
X40546020Y-149517100D01*
X40805100Y-149258020D01*
X40497760Y-148882100D01*
X40576500Y-148729700D01*
X40627300Y-148567140D01*
X41112440Y-148516340D01*
X41112440Y-148155660D01*
X40627300Y-148104860D01*
X40576500Y-147942300D01*
X40497760Y-147789900D01*
X40805100Y-147413980D01*
X40546020Y-147154900D01*
X40170100Y-147462240D01*
X40017700Y-147383500D01*
X39855140Y-147332700D01*
X39804340Y-146847560D01*
X39443660Y-146847560D01*
X39392860Y-147332700D01*
X39230300Y-147383500D01*
X39077900Y-147462240D01*
X38701980Y-147154900D01*
X38442900Y-147413980D01*
X38750240Y-147789900D01*
X38671500Y-147942300D01*
X38620700Y-148104860D01*
X38135560Y-148155660D01*
X38135560Y-148516340D01*
X38620700Y-148567140D01*
X38671500Y-148729700D01*
X38750240Y-148882100D01*
X38442900Y-149258020D01*
X38701980Y-149517100D01*
X39077900Y-149209760D01*
X39230300Y-149288500D01*
X39446200Y-148767800D01*
X39349680Y-148714460D01*
X39268400Y-148638260D01*
X39207440Y-148546820D01*
X39169340Y-148445220D01*
X39156640Y-148336000D01*
X39169340Y-148226780D01*
X39209980Y-148120100D01*
X39273480Y-148028660D01*
X39357300Y-147952460D01*
X39456360Y-147901660D01*
X39563040Y-147873720D01*
X39674800Y-147871180D01*
X39784020Y-147896580D01*
X39883080Y-147947380D01*
X39969440Y-148021040D01*
X40032940Y-148112480D01*
X40076120Y-148216620D01*
X40091360Y-148325840D01*
X40081200Y-148435060D01*
X40043100Y-148541740D01*
X39982140Y-148635720D01*
X39900860Y-148711920D01*
X39801800Y-148767800D01*
X40017700Y-149288500D01*
D13*
X211722001Y-130820000D02*
X212552001Y-130820000D01*
X214172001Y-130820000D02*
X214702001Y-130820000D01*
X217072001Y-130820000D02*
X218252001Y-130820000D01*
X208512001Y-130820000D02*
X208512001Y-135540000D01*
X218252001Y-139350000D02*
X218252001Y-142410000D01*
X218262001Y-130820000D02*
X218262001Y-135540000D01*
X208512001Y-139350000D02*
X208512001Y-142410000D01*
X208512001Y-130820000D02*
X210002001Y-130820000D01*
X208512001Y-142410000D02*
X218252001Y-142410000D01*
X187436001Y-130820000D02*
X188266001Y-130820000D01*
X189886001Y-130820000D02*
X190416001Y-130820000D01*
X192786001Y-130820000D02*
X193966001Y-130820000D01*
X184226001Y-130820000D02*
X184226001Y-135540000D01*
X193966001Y-139350000D02*
X193966001Y-142410000D01*
X193976001Y-130820000D02*
X193976001Y-135540000D01*
X184226001Y-139350000D02*
X184226001Y-142410000D01*
X184226001Y-130820000D02*
X185716001Y-130820000D01*
X184226001Y-142410000D02*
X193966001Y-142410000D01*
X163150001Y-130820000D02*
X163980001Y-130820000D01*
X165600001Y-130820000D02*
X166130001Y-130820000D01*
X168500001Y-130820000D02*
X169680001Y-130820000D01*
X159940001Y-130820000D02*
X159940001Y-135540000D01*
X169680001Y-139350000D02*
X169680001Y-142410000D01*
X169690001Y-130820000D02*
X169690001Y-135540000D01*
X159940001Y-139350000D02*
X159940001Y-142410000D01*
X159940001Y-130820000D02*
X161430001Y-130820000D01*
X159940001Y-142410000D02*
X169680001Y-142410000D01*
X138864001Y-130820000D02*
X139694001Y-130820000D01*
X141314001Y-130820000D02*
X141844001Y-130820000D01*
X144214001Y-130820000D02*
X145394001Y-130820000D01*
X135654001Y-130820000D02*
X135654001Y-135540000D01*
X145394001Y-139350000D02*
X145394001Y-142410000D01*
X145404001Y-130820000D02*
X145404001Y-135540000D01*
X135654001Y-139350000D02*
X135654001Y-142410000D01*
X135654001Y-130820000D02*
X137144001Y-130820000D01*
X135654001Y-142410000D02*
X145394001Y-142410000D01*
X114578002Y-130820000D02*
X115408002Y-130820000D01*
X117028002Y-130820000D02*
X117558002Y-130820000D01*
X119928002Y-130820000D02*
X121108002Y-130820000D01*
X111368002Y-130820000D02*
X111368002Y-135540000D01*
X121108002Y-139350000D02*
X121108002Y-142410000D01*
X121118002Y-130820000D02*
X121118002Y-135540000D01*
X111368002Y-139350000D02*
X111368002Y-142410000D01*
X111368002Y-130820000D02*
X112858002Y-130820000D01*
X111368002Y-142410000D02*
X121108002Y-142410000D01*
X90292001Y-130820000D02*
X91122001Y-130820000D01*
X92742001Y-130820000D02*
X93272001Y-130820000D01*
X95642001Y-130820000D02*
X96822001Y-130820000D01*
X87082001Y-130820000D02*
X87082001Y-135540000D01*
X96822001Y-139350000D02*
X96822001Y-142410000D01*
X96832001Y-130820000D02*
X96832001Y-135540000D01*
X87082001Y-139350000D02*
X87082001Y-142410000D01*
X87082001Y-130820000D02*
X88572001Y-130820000D01*
X87082001Y-142410000D02*
X96822001Y-142410000D01*
X66006001Y-130820000D02*
X66836001Y-130820000D01*
X68456001Y-130820000D02*
X68986001Y-130820000D01*
X71356001Y-130820000D02*
X72536001Y-130820000D01*
X62796001Y-130820000D02*
X62796001Y-135540000D01*
X72536001Y-139350000D02*
X72536001Y-142410000D01*
X72546001Y-130820000D02*
X72546001Y-135540000D01*
X62796001Y-139350000D02*
X62796001Y-142410000D01*
X62796001Y-130820000D02*
X64286001Y-130820000D01*
X62796001Y-142410000D02*
X72536001Y-142410000D01*
X211722001Y-106819999D02*
X212552001Y-106819999D01*
X214172001Y-106819999D02*
X214702001Y-106819999D01*
X217072001Y-106819999D02*
X218252001Y-106819999D01*
X208512001Y-106819999D02*
X208512001Y-111539999D01*
X218252001Y-115349999D02*
X218252001Y-118409999D01*
X218262001Y-106819999D02*
X218262001Y-111539999D01*
X208512001Y-115349999D02*
X208512001Y-118409999D01*
X208512001Y-106819999D02*
X210002001Y-106819999D01*
X208512001Y-118409999D02*
X218252001Y-118409999D01*
X187436001Y-106819999D02*
X188266001Y-106819999D01*
X189886001Y-106819999D02*
X190416001Y-106819999D01*
X192786001Y-106819999D02*
X193966001Y-106819999D01*
X184226001Y-106819999D02*
X184226001Y-111539999D01*
X193966001Y-115349999D02*
X193966001Y-118409999D01*
X193976001Y-106819999D02*
X193976001Y-111539999D01*
X184226001Y-115349999D02*
X184226001Y-118409999D01*
X184226001Y-106819999D02*
X185716001Y-106819999D01*
X184226001Y-118409999D02*
X193966001Y-118409999D01*
X163150001Y-106819999D02*
X163980001Y-106819999D01*
X165600001Y-106819999D02*
X166130001Y-106819999D01*
X168500001Y-106819999D02*
X169680001Y-106819999D01*
X159940001Y-106819999D02*
X159940001Y-111539999D01*
X169680001Y-115349999D02*
X169680001Y-118409999D01*
X169690001Y-106819999D02*
X169690001Y-111539999D01*
X159940001Y-115349999D02*
X159940001Y-118409999D01*
X159940001Y-106819999D02*
X161430001Y-106819999D01*
X159940001Y-118409999D02*
X169680001Y-118409999D01*
X138864001Y-106819999D02*
X139694001Y-106819999D01*
X141314001Y-106819999D02*
X141844001Y-106819999D01*
X144214001Y-106819999D02*
X145394001Y-106819999D01*
X135654001Y-106819999D02*
X135654001Y-111539999D01*
X145394001Y-115349999D02*
X145394001Y-118409999D01*
X145404001Y-106819999D02*
X145404001Y-111539999D01*
X135654001Y-115349999D02*
X135654001Y-118409999D01*
X135654001Y-106819999D02*
X137144001Y-106819999D01*
X135654001Y-118409999D02*
X145394001Y-118409999D01*
X114578002Y-106819999D02*
X115408002Y-106819999D01*
X117028002Y-106819999D02*
X117558002Y-106819999D01*
X119928002Y-106819999D02*
X121108002Y-106819999D01*
X111368002Y-106819999D02*
X111368002Y-111539999D01*
X121108002Y-115349999D02*
X121108002Y-118409999D01*
X121118002Y-106819999D02*
X121118002Y-111539999D01*
X111368002Y-115349999D02*
X111368002Y-118409999D01*
X111368002Y-106819999D02*
X112858002Y-106819999D01*
X111368002Y-118409999D02*
X121108002Y-118409999D01*
X90292001Y-106819999D02*
X91122001Y-106819999D01*
X92742001Y-106819999D02*
X93272001Y-106819999D01*
X95642001Y-106819999D02*
X96822001Y-106819999D01*
X87082001Y-106819999D02*
X87082001Y-111539999D01*
X96822001Y-115349999D02*
X96822001Y-118409999D01*
X96832001Y-106819999D02*
X96832001Y-111539999D01*
X87082001Y-115349999D02*
X87082001Y-118409999D01*
X87082001Y-106819999D02*
X88572001Y-106819999D01*
X87082001Y-118409999D02*
X96822001Y-118409999D01*
X66006001Y-106819999D02*
X66836001Y-106819999D01*
X68456001Y-106819999D02*
X68986001Y-106819999D01*
X71356001Y-106819999D02*
X72536001Y-106819999D01*
X62796001Y-106819999D02*
X62796001Y-111539999D01*
X72536001Y-115349999D02*
X72536001Y-118409999D01*
X72546001Y-106819999D02*
X72546001Y-111539999D01*
X62796001Y-115349999D02*
X62796001Y-118409999D01*
X62796001Y-106819999D02*
X64286001Y-106819999D01*
X62796001Y-118409999D02*
X72536001Y-118409999D01*
X41720001Y-106819999D02*
X42550001Y-106819999D01*
X44170001Y-106819999D02*
X44700001Y-106819999D01*
X47070001Y-106819999D02*
X48250001Y-106819999D01*
X38510001Y-106819999D02*
X38510001Y-111539999D01*
X48250001Y-115349999D02*
X48250001Y-118409999D01*
X48260001Y-106819999D02*
X48260001Y-111539999D01*
X38510001Y-115349999D02*
X38510001Y-118409999D01*
X38510001Y-106819999D02*
X40000001Y-106819999D01*
X38510001Y-118409999D02*
X48250001Y-118409999D01*
X211722001Y-82819999D02*
X212552001Y-82819999D01*
X214172001Y-82819999D02*
X214702001Y-82819999D01*
X217072001Y-82819999D02*
X218252001Y-82819999D01*
X208512001Y-82819999D02*
X208512001Y-87539999D01*
X218252001Y-91349999D02*
X218252001Y-94409999D01*
X218262001Y-82819999D02*
X218262001Y-87539999D01*
X208512001Y-91349999D02*
X208512001Y-94409999D01*
X208512001Y-82819999D02*
X210002001Y-82819999D01*
X208512001Y-94409999D02*
X218252001Y-94409999D01*
X187436001Y-82819999D02*
X188266001Y-82819999D01*
X189886001Y-82819999D02*
X190416001Y-82819999D01*
X192786001Y-82819999D02*
X193966001Y-82819999D01*
X184226001Y-82819999D02*
X184226001Y-87539999D01*
X193966001Y-91349999D02*
X193966001Y-94409999D01*
X193976001Y-82819999D02*
X193976001Y-87539999D01*
X184226001Y-91349999D02*
X184226001Y-94409999D01*
X184226001Y-82819999D02*
X185716001Y-82819999D01*
X184226001Y-94409999D02*
X193966001Y-94409999D01*
X163150001Y-82819999D02*
X163980001Y-82819999D01*
X165600001Y-82819999D02*
X166130001Y-82819999D01*
X168500001Y-82819999D02*
X169680001Y-82819999D01*
X159940001Y-82819999D02*
X159940001Y-87539999D01*
X169680001Y-91349999D02*
X169680001Y-94409999D01*
X169690001Y-82819999D02*
X169690001Y-87539999D01*
X159940001Y-91349999D02*
X159940001Y-94409999D01*
X159940001Y-82819999D02*
X161430001Y-82819999D01*
X159940001Y-94409999D02*
X169680001Y-94409999D01*
X138864001Y-82819999D02*
X139694001Y-82819999D01*
X141314001Y-82819999D02*
X141844001Y-82819999D01*
X144214001Y-82819999D02*
X145394001Y-82819999D01*
X135654001Y-82819999D02*
X135654001Y-87539999D01*
X145394001Y-91349999D02*
X145394001Y-94409999D01*
X145404001Y-82819999D02*
X145404001Y-87539999D01*
X135654001Y-91349999D02*
X135654001Y-94409999D01*
X135654001Y-82819999D02*
X137144001Y-82819999D01*
X135654001Y-94409999D02*
X145394001Y-94409999D01*
X114578002Y-82819999D02*
X115408002Y-82819999D01*
X117028002Y-82819999D02*
X117558002Y-82819999D01*
X119928002Y-82819999D02*
X121108002Y-82819999D01*
X111368002Y-82819999D02*
X111368002Y-87539999D01*
X121108002Y-91349999D02*
X121108002Y-94409999D01*
X121118002Y-82819999D02*
X121118002Y-87539999D01*
X111368002Y-91349999D02*
X111368002Y-94409999D01*
X111368002Y-82819999D02*
X112858002Y-82819999D01*
X111368002Y-94409999D02*
X121108002Y-94409999D01*
X90292001Y-82819999D02*
X91122001Y-82819999D01*
X92742001Y-82819999D02*
X93272001Y-82819999D01*
X95642001Y-82819999D02*
X96822001Y-82819999D01*
X87082001Y-82819999D02*
X87082001Y-87539999D01*
X96822001Y-91349999D02*
X96822001Y-94409999D01*
X96832001Y-82819999D02*
X96832001Y-87539999D01*
X87082001Y-91349999D02*
X87082001Y-94409999D01*
X87082001Y-82819999D02*
X88572001Y-82819999D01*
X87082001Y-94409999D02*
X96822001Y-94409999D01*
X66006001Y-82819999D02*
X66836001Y-82819999D01*
X68456001Y-82819999D02*
X68986001Y-82819999D01*
X71356001Y-82819999D02*
X72536001Y-82819999D01*
X62796001Y-82819999D02*
X62796001Y-87539999D01*
X72536001Y-91349999D02*
X72536001Y-94409999D01*
X72546001Y-82819999D02*
X72546001Y-87539999D01*
X62796001Y-91349999D02*
X62796001Y-94409999D01*
X62796001Y-82819999D02*
X64286001Y-82819999D01*
X62796001Y-94409999D02*
X72536001Y-94409999D01*
X41720001Y-82819999D02*
X42550001Y-82819999D01*
X44170001Y-82819999D02*
X44700001Y-82819999D01*
X47070001Y-82819999D02*
X48250001Y-82819999D01*
X38510001Y-82819999D02*
X38510001Y-87539999D01*
X48250001Y-91349999D02*
X48250001Y-94409999D01*
X48260001Y-82819999D02*
X48260001Y-87539999D01*
X38510001Y-91349999D02*
X38510001Y-94409999D01*
X38510001Y-82819999D02*
X40000001Y-82819999D01*
X38510001Y-94409999D02*
X48250001Y-94409999D01*
X211722001Y-58820000D02*
X212552001Y-58820000D01*
X214172001Y-58820000D02*
X214702001Y-58820000D01*
X217072001Y-58820000D02*
X218252001Y-58820000D01*
X208512001Y-58820000D02*
X208512001Y-63540000D01*
X218252001Y-67350000D02*
X218252001Y-70410000D01*
X218262001Y-58820000D02*
X218262001Y-63540000D01*
X208512001Y-67350000D02*
X208512001Y-70410000D01*
X208512001Y-58820000D02*
X210002001Y-58820000D01*
X208512001Y-70410000D02*
X218252001Y-70410000D01*
X187436001Y-58820000D02*
X188266001Y-58820000D01*
X189886001Y-58820000D02*
X190416001Y-58820000D01*
X192786001Y-58820000D02*
X193966001Y-58820000D01*
X184226001Y-58820000D02*
X184226001Y-63540000D01*
X193966001Y-67350000D02*
X193966001Y-70410000D01*
X193976001Y-58820000D02*
X193976001Y-63540000D01*
X184226001Y-67350000D02*
X184226001Y-70410000D01*
X184226001Y-58820000D02*
X185716001Y-58820000D01*
X184226001Y-70410000D02*
X193966001Y-70410000D01*
X163150001Y-58820000D02*
X163980001Y-58820000D01*
X165600001Y-58820000D02*
X166130001Y-58820000D01*
X168500001Y-58820000D02*
X169680001Y-58820000D01*
X159940001Y-58820000D02*
X159940001Y-63540000D01*
X169680001Y-67350000D02*
X169680001Y-70410000D01*
X169690001Y-58820000D02*
X169690001Y-63540000D01*
X159940001Y-67350000D02*
X159940001Y-70410000D01*
X159940001Y-58820000D02*
X161430001Y-58820000D01*
X159940001Y-70410000D02*
X169680001Y-70410000D01*
X138864001Y-58820000D02*
X139694001Y-58820000D01*
X141314001Y-58820000D02*
X141844001Y-58820000D01*
X144214001Y-58820000D02*
X145394001Y-58820000D01*
X135654001Y-58820000D02*
X135654001Y-63540000D01*
X145394001Y-67350000D02*
X145394001Y-70410000D01*
X145404001Y-58820000D02*
X145404001Y-63540000D01*
X135654001Y-67350000D02*
X135654001Y-70410000D01*
X135654001Y-58820000D02*
X137144001Y-58820000D01*
X135654001Y-70410000D02*
X145394001Y-70410000D01*
X114578002Y-58820000D02*
X115408002Y-58820000D01*
X117028002Y-58820000D02*
X117558002Y-58820000D01*
X119928002Y-58820000D02*
X121108002Y-58820000D01*
X111368002Y-58820000D02*
X111368002Y-63540000D01*
X121108002Y-67350000D02*
X121108002Y-70410000D01*
X121118002Y-58820000D02*
X121118002Y-63540000D01*
X111368002Y-67350000D02*
X111368002Y-70410000D01*
X111368002Y-58820000D02*
X112858002Y-58820000D01*
X111368002Y-70410000D02*
X121108002Y-70410000D01*
X66006001Y-58820000D02*
X66836001Y-58820000D01*
X68456001Y-58820000D02*
X68986001Y-58820000D01*
X71356001Y-58820000D02*
X72536001Y-58820000D01*
X62796001Y-58820000D02*
X62796001Y-63540000D01*
X72536001Y-67350000D02*
X72536001Y-70410000D01*
X72546001Y-58820000D02*
X72546001Y-63540000D01*
X62796001Y-67350000D02*
X62796001Y-70410000D01*
X62796001Y-58820000D02*
X64286001Y-58820000D01*
X62796001Y-70410000D02*
X72536001Y-70410000D01*
X90292001Y-58820000D02*
X91122001Y-58820000D01*
X92742001Y-58820000D02*
X93272001Y-58820000D01*
X95642001Y-58820000D02*
X96822001Y-58820000D01*
X87082001Y-58820000D02*
X87082001Y-63540000D01*
X96822001Y-67350000D02*
X96822001Y-70410000D01*
X96832001Y-58820000D02*
X96832001Y-63540000D01*
X87082001Y-67350000D02*
X87082001Y-70410000D01*
X87082001Y-58820000D02*
X88572001Y-58820000D01*
X87082001Y-70410000D02*
X96822001Y-70410000D01*
X41720001Y-130820000D02*
X42550001Y-130820000D01*
X44170001Y-130820000D02*
X44700001Y-130820000D01*
X47070001Y-130820000D02*
X48250001Y-130820000D01*
X38510001Y-130820000D02*
X38510001Y-135540000D01*
X48250001Y-139350000D02*
X48250001Y-142410000D01*
X48260001Y-130820000D02*
X48260001Y-135540000D01*
X38510001Y-139350000D02*
X38510001Y-142410000D01*
X38510001Y-130820000D02*
X40000001Y-130820000D01*
X38510001Y-142410000D02*
X48250001Y-142410000D01*
X41720001Y-58820000D02*
X42550001Y-58820000D01*
X44170001Y-58820000D02*
X44700001Y-58820000D01*
X47070001Y-58820000D02*
X48250001Y-58820000D01*
X38510001Y-58820000D02*
X38510001Y-63540000D01*
X48250001Y-67350000D02*
X48250001Y-70410000D01*
X48260001Y-58820000D02*
X48260001Y-63540000D01*
X38510001Y-67350000D02*
X38510001Y-70410000D01*
X38510001Y-58820000D02*
X40000001Y-58820000D01*
X38510001Y-70410000D02*
X48250001Y-70410000D01*
D14*
X189738000Y-49784000D02*
X149098000Y-49784000D01*
X149098000Y-49784000D02*
X149098000Y-32004000D01*
X149098000Y-32004000D02*
X189738000Y-32004000D01*
X189738000Y-32004000D02*
X189738000Y-49784000D01*
D15*
X178408000Y-30894000D02*
G75*
G03*
X178408000Y-30894000I-100000J0D01*
G01*
D14*
X146050000Y-49784000D02*
X105410000Y-49784000D01*
X105410000Y-49784000D02*
X105410000Y-32004000D01*
X105410000Y-32004000D02*
X146050000Y-32004000D01*
X146050000Y-32004000D02*
X146050000Y-49784000D01*
D15*
X134720000Y-30894000D02*
G75*
G03*
X134720000Y-30894000I-100000J0D01*
G01*
D13*
X182820000Y-30032000D02*
X182820000Y-28702000D01*
X184150000Y-30032000D02*
X182820000Y-30032000D01*
X182820000Y-27432000D02*
X182820000Y-24832000D01*
X185420000Y-27432000D02*
X182820000Y-27432000D01*
X185420000Y-30032000D02*
X185420000Y-27432000D01*
X182820000Y-24832000D02*
X195640000Y-24832000D01*
X185420000Y-30032000D02*
X195640000Y-30032000D01*
X195640000Y-30032000D02*
X195640000Y-24832000D01*
D16*
X77168000Y-43751000D02*
X77168000Y-45021000D01*
X100028000Y-43751000D02*
X100028000Y-45021000D01*
D13*
X36008000Y-43892000D02*
X51008000Y-43892000D01*
X51008000Y-43892000D02*
X51008000Y-29892000D01*
X51008000Y-29892000D02*
X36008000Y-29892000D01*
X36008000Y-43892000D02*
X36008000Y-29892000D01*
X38682000Y-40448000D02*
G75*
G03*
X38682000Y-40448000I-254000J0D01*
G01*
X199600315Y-111115766D02*
X201184234Y-112699685D01*
X199770021Y-110946060D02*
X201353940Y-112529979D01*
X199685168Y-111030913D02*
X201269087Y-112614832D01*
X203425763Y-108874237D02*
X202966143Y-109333857D01*
X199508391Y-112791609D02*
X199968010Y-112331990D01*
X202174184Y-108541897D02*
X199176051Y-111540030D01*
X203758103Y-110125816D02*
X202174184Y-108541897D01*
X200759970Y-113123949D02*
X203758103Y-110125816D01*
X199176051Y-111540030D02*
X200759970Y-113123949D01*
X203238298Y-127025400D02*
G75*
G03*
X203238298Y-127025400I-406598J0D01*
G01*
X202017366Y-128325400D02*
X203690699Y-128325400D01*
X202017366Y-127965400D02*
X202017366Y-128325400D01*
X200344034Y-127965400D02*
X202017366Y-127965400D01*
X200344034Y-128325400D02*
X200344034Y-127965400D01*
X198670700Y-128325400D02*
X200344034Y-128325400D01*
X198670701Y-118105400D02*
X198670700Y-128325400D01*
X203690700Y-118105400D02*
X198670701Y-118105400D01*
X203690699Y-128325400D02*
X203690700Y-118105400D01*
D14*
X197454094Y-77099156D02*
X197391232Y-77176386D01*
X197495403Y-77011149D02*
X197454094Y-77099156D01*
X197518752Y-76915958D02*
X197495403Y-77011149D01*
X197520548Y-76817176D02*
X197518752Y-76915958D01*
X197498995Y-76720189D02*
X197520548Y-76817176D01*
X197457686Y-76632182D02*
X197498995Y-76720189D01*
X197394824Y-76554952D02*
X197457686Y-76632182D01*
X197321186Y-76492090D02*
X197394824Y-76554952D01*
X197229588Y-76447189D02*
X197321186Y-76492090D01*
X197132601Y-76422044D02*
X197229588Y-76447189D01*
X197032022Y-76422044D02*
X197132601Y-76422044D01*
X196933239Y-76441801D02*
X197032022Y-76422044D01*
X196843437Y-76484906D02*
X196933239Y-76441801D01*
X196762614Y-76547768D02*
X196843437Y-76484906D01*
X196701548Y-76626794D02*
X196762614Y-76547768D01*
X196658443Y-76720189D02*
X196701548Y-76626794D01*
X196638687Y-76818972D02*
X196658443Y-76720189D01*
X196642279Y-76923143D02*
X196638687Y-76818972D01*
X196665627Y-77021925D02*
X196642279Y-76923143D01*
X196712325Y-77111728D02*
X196665627Y-77021925D01*
X196775187Y-77188958D02*
X196712325Y-77111728D01*
X196854213Y-77246432D02*
X196775187Y-77188958D01*
X196942219Y-77287741D02*
X196854213Y-77246432D01*
X197037410Y-77307498D02*
X196942219Y-77287741D01*
X197136193Y-77305701D02*
X197037410Y-77307498D01*
X197229588Y-77280557D02*
X197136193Y-77305701D01*
X197315798Y-77237452D02*
X197229588Y-77280557D01*
X197391232Y-77176386D02*
X197315798Y-77237452D01*
X197870778Y-77390116D02*
X197752238Y-77533800D01*
X197958784Y-77230267D02*
X197870778Y-77390116D01*
X198014462Y-77056050D02*
X197958784Y-77230267D01*
X198034218Y-76871057D02*
X198014462Y-77056050D01*
X198018054Y-76689656D02*
X198034218Y-76871057D01*
X197965969Y-76511847D02*
X198018054Y-76689656D01*
X197881554Y-76348406D02*
X197965969Y-76511847D01*
X197768403Y-76206518D02*
X197881554Y-76348406D01*
X197642679Y-76098755D02*
X197768403Y-76206518D01*
X197497199Y-76010749D02*
X197642679Y-76098755D01*
X197339147Y-75953275D02*
X197497199Y-76010749D01*
X197173910Y-75920946D02*
X197339147Y-75953275D01*
X197006877Y-75919150D02*
X197173910Y-75920946D01*
X196841640Y-75944295D02*
X197006877Y-75919150D01*
X196681792Y-75999972D02*
X196841640Y-75944295D01*
X196534516Y-76082591D02*
X196681792Y-75999972D01*
X196403404Y-76188558D02*
X196534516Y-76082591D01*
X196299233Y-76317873D02*
X196403404Y-76188558D01*
X196216615Y-76465150D02*
X196299233Y-76317873D01*
X196160937Y-76624998D02*
X196216615Y-76465150D01*
X196133996Y-76788439D02*
X196160937Y-76624998D01*
X196133996Y-76957268D02*
X196133996Y-76788439D01*
X196166325Y-77122504D02*
X196133996Y-76957268D01*
X196225595Y-77278761D02*
X196166325Y-77122504D01*
X196313601Y-77424241D02*
X196225595Y-77278761D01*
X196419568Y-77548168D02*
X196313601Y-77424241D01*
X196565049Y-77664912D02*
X196419568Y-77548168D01*
X196728489Y-77749326D02*
X196565049Y-77664912D01*
X196906298Y-77801412D02*
X196728489Y-77749326D01*
X197089496Y-77815780D02*
X196906298Y-77801412D01*
X197274489Y-77796023D02*
X197089496Y-77815780D01*
X197448706Y-77740346D02*
X197274489Y-77796023D01*
X197610350Y-77650543D02*
X197448706Y-77740346D01*
X197752238Y-77533800D02*
X197610350Y-77650543D01*
X202840452Y-71702022D02*
X202777590Y-71779252D01*
X202881761Y-71614015D02*
X202840452Y-71702022D01*
X202905109Y-71518824D02*
X202881761Y-71614015D01*
X202906905Y-71420042D02*
X202905109Y-71518824D01*
X202885353Y-71323055D02*
X202906905Y-71420042D01*
X202844044Y-71235048D02*
X202885353Y-71323055D01*
X202781182Y-71157818D02*
X202844044Y-71235048D01*
X202707544Y-71094956D02*
X202781182Y-71157818D01*
X202615945Y-71050055D02*
X202707544Y-71094956D01*
X202518958Y-71024910D02*
X202615945Y-71050055D01*
X202418380Y-71024910D02*
X202518958Y-71024910D01*
X202319597Y-71044667D02*
X202418380Y-71024910D01*
X202229794Y-71087772D02*
X202319597Y-71044667D01*
X202148972Y-71150634D02*
X202229794Y-71087772D01*
X202087906Y-71229660D02*
X202148972Y-71150634D01*
X202044801Y-71323055D02*
X202087906Y-71229660D01*
X202025044Y-71421838D02*
X202044801Y-71323055D01*
X202028636Y-71526009D02*
X202025044Y-71421838D01*
X202051985Y-71624791D02*
X202028636Y-71526009D01*
X202098682Y-71714594D02*
X202051985Y-71624791D01*
X202163340Y-71793620D02*
X202098682Y-71714594D01*
X202240570Y-71849298D02*
X202163340Y-71793620D01*
X202328577Y-71890607D02*
X202240570Y-71849298D01*
X202423768Y-71910364D02*
X202328577Y-71890607D01*
X202522550Y-71908568D02*
X202423768Y-71910364D01*
X202615945Y-71883423D02*
X202522550Y-71908568D01*
X202702156Y-71840318D02*
X202615945Y-71883423D01*
X202777590Y-71779252D02*
X202702156Y-71840318D01*
X203257135Y-71992982D02*
X203138596Y-72136666D01*
X203345142Y-71833133D02*
X203257135Y-71992982D01*
X203400820Y-71658916D02*
X203345142Y-71833133D01*
X203420576Y-71473923D02*
X203400820Y-71658916D01*
X203404412Y-71292522D02*
X203420576Y-71473923D01*
X203352326Y-71114713D02*
X203404412Y-71292522D01*
X203267912Y-70951272D02*
X203352326Y-71114713D01*
X203154761Y-70809384D02*
X203267912Y-70951272D01*
X203029037Y-70701621D02*
X203154761Y-70809384D01*
X202883557Y-70613615D02*
X203029037Y-70701621D01*
X202725504Y-70556141D02*
X202883557Y-70613615D01*
X202560268Y-70523812D02*
X202725504Y-70556141D01*
X202393235Y-70522016D02*
X202560268Y-70523812D01*
X202227998Y-70547161D02*
X202393235Y-70522016D01*
X202068150Y-70602838D02*
X202227998Y-70547161D01*
X201920873Y-70685457D02*
X202068150Y-70602838D01*
X201789762Y-70791424D02*
X201920873Y-70685457D01*
X201685591Y-70920739D02*
X201789762Y-70791424D01*
X201602972Y-71068016D02*
X201685591Y-70920739D01*
X201547295Y-71227864D02*
X201602972Y-71068016D01*
X201520354Y-71391305D02*
X201547295Y-71227864D01*
X201520354Y-71560134D02*
X201520354Y-71391305D01*
X201552683Y-71725370D02*
X201520354Y-71560134D01*
X201611953Y-71881627D02*
X201552683Y-71725370D01*
X201699959Y-72027107D02*
X201611953Y-71881627D01*
X201805926Y-72151034D02*
X201699959Y-72027107D01*
X201951406Y-72267778D02*
X201805926Y-72151034D01*
X202114847Y-72352192D02*
X201951406Y-72267778D01*
X202292656Y-72404278D02*
X202114847Y-72352192D01*
X202475853Y-72418646D02*
X202292656Y-72404278D01*
X202660846Y-72398890D02*
X202475853Y-72418646D01*
X202835063Y-72343212D02*
X202660846Y-72398890D01*
X202996708Y-72253409D02*
X202835063Y-72343212D01*
X203138596Y-72136666D02*
X202996708Y-72253409D01*
D17*
X197974949Y-75964051D02*
X197795344Y-76143656D01*
X201567051Y-72371949D02*
X201746656Y-72192344D01*
X197974949Y-75964051D02*
X197076923Y-75066026D01*
X198872974Y-76862077D02*
X197974949Y-75964051D01*
X202465077Y-73269974D02*
X198872974Y-76862077D01*
X201567051Y-72371949D02*
X202465077Y-73269974D01*
X200669026Y-71473923D02*
X201567051Y-72371949D01*
X197076923Y-75066026D02*
X200669026Y-71473923D01*
D14*
X205135906Y-74411844D02*
X205198768Y-74334614D01*
X205094597Y-74499851D02*
X205135906Y-74411844D01*
X205071248Y-74595042D02*
X205094597Y-74499851D01*
X205069452Y-74693824D02*
X205071248Y-74595042D01*
X205091005Y-74790811D02*
X205069452Y-74693824D01*
X205132314Y-74878818D02*
X205091005Y-74790811D01*
X205195176Y-74956048D02*
X205132314Y-74878818D01*
X205268814Y-75018910D02*
X205195176Y-74956048D01*
X205360412Y-75063811D02*
X205268814Y-75018910D01*
X205457399Y-75088956D02*
X205360412Y-75063811D01*
X205557978Y-75088956D02*
X205457399Y-75088956D01*
X205656761Y-75069199D02*
X205557978Y-75088956D01*
X205746563Y-75026094D02*
X205656761Y-75069199D01*
X205827386Y-74963232D02*
X205746563Y-75026094D01*
X205888452Y-74884206D02*
X205827386Y-74963232D01*
X205931557Y-74790811D02*
X205888452Y-74884206D01*
X205951313Y-74692028D02*
X205931557Y-74790811D01*
X205947721Y-74587857D02*
X205951313Y-74692028D01*
X205924373Y-74489075D02*
X205947721Y-74587857D01*
X205877675Y-74399272D02*
X205924373Y-74489075D01*
X205814813Y-74322042D02*
X205877675Y-74399272D01*
X205735787Y-74264568D02*
X205814813Y-74322042D01*
X205647781Y-74223259D02*
X205735787Y-74264568D01*
X205552590Y-74203502D02*
X205647781Y-74223259D01*
X205453807Y-74205299D02*
X205552590Y-74203502D01*
X205360412Y-74230443D02*
X205453807Y-74205299D01*
X205274202Y-74273548D02*
X205360412Y-74230443D01*
X205198768Y-74334614D02*
X205274202Y-74273548D01*
X204719222Y-74120884D02*
X204837762Y-73977200D01*
X204631216Y-74280733D02*
X204719222Y-74120884D01*
X204575538Y-74454950D02*
X204631216Y-74280733D01*
X204555782Y-74639943D02*
X204575538Y-74454950D01*
X204571946Y-74821344D02*
X204555782Y-74639943D01*
X204624031Y-74999153D02*
X204571946Y-74821344D01*
X204708446Y-75162594D02*
X204624031Y-74999153D01*
X204821597Y-75304482D02*
X204708446Y-75162594D01*
X204947321Y-75412245D02*
X204821597Y-75304482D01*
X205092801Y-75500251D02*
X204947321Y-75412245D01*
X205250853Y-75557725D02*
X205092801Y-75500251D01*
X205416090Y-75590054D02*
X205250853Y-75557725D01*
X205583123Y-75591850D02*
X205416090Y-75590054D01*
X205748360Y-75566705D02*
X205583123Y-75591850D01*
X205908208Y-75511028D02*
X205748360Y-75566705D01*
X206055484Y-75428409D02*
X205908208Y-75511028D01*
X206186596Y-75322442D02*
X206055484Y-75428409D01*
X206290767Y-75193127D02*
X206186596Y-75322442D01*
X206373385Y-75045850D02*
X206290767Y-75193127D01*
X206429063Y-74886002D02*
X206373385Y-75045850D01*
X206456004Y-74722561D02*
X206429063Y-74886002D01*
X206456004Y-74553732D02*
X206456004Y-74722561D01*
X206423675Y-74388496D02*
X206456004Y-74553732D01*
X206364405Y-74232239D02*
X206423675Y-74388496D01*
X206276399Y-74086759D02*
X206364405Y-74232239D01*
X206170432Y-73962832D02*
X206276399Y-74086759D01*
X206024951Y-73846088D02*
X206170432Y-73962832D01*
X205861511Y-73761674D02*
X206024951Y-73846088D01*
X205683702Y-73709588D02*
X205861511Y-73761674D01*
X205500504Y-73695220D02*
X205683702Y-73709588D01*
X205315511Y-73714977D02*
X205500504Y-73695220D01*
X205141294Y-73770654D02*
X205315511Y-73714977D01*
X204979650Y-73860457D02*
X205141294Y-73770654D01*
X204837762Y-73977200D02*
X204979650Y-73860457D01*
X199749548Y-79808978D02*
X199812410Y-79731748D01*
X199708239Y-79896985D02*
X199749548Y-79808978D01*
X199684891Y-79992176D02*
X199708239Y-79896985D01*
X199683095Y-80090958D02*
X199684891Y-79992176D01*
X199704647Y-80187945D02*
X199683095Y-80090958D01*
X199745956Y-80275952D02*
X199704647Y-80187945D01*
X199808818Y-80353182D02*
X199745956Y-80275952D01*
X199882456Y-80416044D02*
X199808818Y-80353182D01*
X199974055Y-80460945D02*
X199882456Y-80416044D01*
X200071042Y-80486090D02*
X199974055Y-80460945D01*
X200171620Y-80486090D02*
X200071042Y-80486090D01*
X200270403Y-80466333D02*
X200171620Y-80486090D01*
X200360206Y-80423228D02*
X200270403Y-80466333D01*
X200441028Y-80360366D02*
X200360206Y-80423228D01*
X200502094Y-80281340D02*
X200441028Y-80360366D01*
X200545199Y-80187945D02*
X200502094Y-80281340D01*
X200564956Y-80089162D02*
X200545199Y-80187945D01*
X200561364Y-79984991D02*
X200564956Y-80089162D01*
X200538015Y-79886209D02*
X200561364Y-79984991D01*
X200491318Y-79796406D02*
X200538015Y-79886209D01*
X200426660Y-79717380D02*
X200491318Y-79796406D01*
X200349430Y-79661702D02*
X200426660Y-79717380D01*
X200261423Y-79620393D02*
X200349430Y-79661702D01*
X200166232Y-79600636D02*
X200261423Y-79620393D01*
X200067450Y-79602432D02*
X200166232Y-79600636D01*
X199974055Y-79627577D02*
X200067450Y-79602432D01*
X199887844Y-79670682D02*
X199974055Y-79627577D01*
X199812410Y-79731748D02*
X199887844Y-79670682D01*
X199332865Y-79518018D02*
X199451404Y-79374334D01*
X199244858Y-79677867D02*
X199332865Y-79518018D01*
X199189180Y-79852084D02*
X199244858Y-79677867D01*
X199169424Y-80037077D02*
X199189180Y-79852084D01*
X199185588Y-80218478D02*
X199169424Y-80037077D01*
X199237674Y-80396287D02*
X199185588Y-80218478D01*
X199322088Y-80559728D02*
X199237674Y-80396287D01*
X199435239Y-80701616D02*
X199322088Y-80559728D01*
X199560963Y-80809379D02*
X199435239Y-80701616D01*
X199706443Y-80897385D02*
X199560963Y-80809379D01*
X199864496Y-80954859D02*
X199706443Y-80897385D01*
X200029732Y-80987188D02*
X199864496Y-80954859D01*
X200196765Y-80988984D02*
X200029732Y-80987188D01*
X200362002Y-80963839D02*
X200196765Y-80988984D01*
X200521850Y-80908162D02*
X200362002Y-80963839D01*
X200669127Y-80825543D02*
X200521850Y-80908162D01*
X200800238Y-80719576D02*
X200669127Y-80825543D01*
X200904409Y-80590261D02*
X200800238Y-80719576D01*
X200987028Y-80442984D02*
X200904409Y-80590261D01*
X201042705Y-80283136D02*
X200987028Y-80442984D01*
X201069646Y-80119695D02*
X201042705Y-80283136D01*
X201069646Y-79950866D02*
X201069646Y-80119695D01*
X201037317Y-79785630D02*
X201069646Y-79950866D01*
X200978047Y-79629373D02*
X201037317Y-79785630D01*
X200890041Y-79483893D02*
X200978047Y-79629373D01*
X200784074Y-79359966D02*
X200890041Y-79483893D01*
X200638594Y-79243222D02*
X200784074Y-79359966D01*
X200475153Y-79158808D02*
X200638594Y-79243222D01*
X200297344Y-79106722D02*
X200475153Y-79158808D01*
X200114147Y-79092354D02*
X200297344Y-79106722D01*
X199929154Y-79112110D02*
X200114147Y-79092354D01*
X199754937Y-79167788D02*
X199929154Y-79112110D01*
X199593292Y-79257591D02*
X199754937Y-79167788D01*
X199451404Y-79374334D02*
X199593292Y-79257591D01*
D17*
X204615051Y-75546949D02*
X204794656Y-75367344D01*
X201022949Y-79139051D02*
X200843344Y-79318656D01*
X204615051Y-75546949D02*
X205513077Y-76444974D01*
X203717026Y-74648923D02*
X204615051Y-75546949D01*
X200124923Y-78241026D02*
X203717026Y-74648923D01*
X201022949Y-79139051D02*
X200124923Y-78241026D01*
X201920974Y-80037077D02*
X201022949Y-79139051D01*
X205513077Y-76444974D02*
X201920974Y-80037077D01*
D14*
X92308940Y-44011660D02*
X92408000Y-44001500D01*
X92217500Y-44044680D02*
X92308940Y-44011660D01*
X92133680Y-44095480D02*
X92217500Y-44044680D01*
X92062560Y-44164060D02*
X92133680Y-44095480D01*
X92009220Y-44247880D02*
X92062560Y-44164060D01*
X91976200Y-44339320D02*
X92009220Y-44247880D01*
X91966040Y-44438380D02*
X91976200Y-44339320D01*
X91973660Y-44534900D02*
X91966040Y-44438380D01*
X92006680Y-44631420D02*
X91973660Y-44534900D01*
X92057480Y-44717780D02*
X92006680Y-44631420D01*
X92128600Y-44788900D02*
X92057480Y-44717780D01*
X92212420Y-44844780D02*
X92128600Y-44788900D01*
X92306400Y-44877800D02*
X92212420Y-44844780D01*
X92408000Y-44890500D02*
X92306400Y-44877800D01*
X92507060Y-44877800D02*
X92408000Y-44890500D01*
X92603580Y-44842240D02*
X92507060Y-44877800D01*
X92687400Y-44786360D02*
X92603580Y-44842240D01*
X92758520Y-44710160D02*
X92687400Y-44786360D01*
X92811860Y-44623800D02*
X92758520Y-44710160D01*
X92842340Y-44527280D02*
X92811860Y-44623800D01*
X92852500Y-44428220D02*
X92842340Y-44527280D01*
X92837260Y-44331700D02*
X92852500Y-44428220D01*
X92804240Y-44240260D02*
X92837260Y-44331700D01*
X92750900Y-44158980D02*
X92804240Y-44240260D01*
X92679780Y-44090400D02*
X92750900Y-44158980D01*
X92595960Y-44042140D02*
X92679780Y-44090400D01*
X92504520Y-44011660D02*
X92595960Y-44042140D01*
X92408000Y-44001500D02*
X92504520Y-44011660D01*
X92220040Y-43511280D02*
X92405460Y-43493500D01*
X92044780Y-43562080D02*
X92220040Y-43511280D01*
X91882220Y-43645900D02*
X92044780Y-43562080D01*
X91737440Y-43762740D02*
X91882220Y-43645900D01*
X91620600Y-43902440D02*
X91737440Y-43762740D01*
X91531700Y-44065000D02*
X91620600Y-43902440D01*
X91475820Y-44240260D02*
X91531700Y-44065000D01*
X91455500Y-44420600D02*
X91475820Y-44240260D01*
X91468200Y-44585700D02*
X91455500Y-44420600D01*
X91508840Y-44750800D02*
X91468200Y-44585700D01*
X91579960Y-44903200D02*
X91508840Y-44750800D01*
X91673940Y-45042900D02*
X91579960Y-44903200D01*
X91790780Y-45162280D02*
X91673940Y-45042900D01*
X91925400Y-45261340D02*
X91790780Y-45162280D01*
X92077800Y-45335000D02*
X91925400Y-45261340D01*
X92240360Y-45380720D02*
X92077800Y-45335000D01*
X92408000Y-45398500D02*
X92240360Y-45380720D01*
X92573100Y-45380720D02*
X92408000Y-45398500D01*
X92735660Y-45335000D02*
X92573100Y-45380720D01*
X92888060Y-45261340D02*
X92735660Y-45335000D01*
X93022680Y-45164820D02*
X92888060Y-45261340D01*
X93142060Y-45045440D02*
X93022680Y-45164820D01*
X93236040Y-44905740D02*
X93142060Y-45045440D01*
X93304620Y-44753340D02*
X93236040Y-44905740D01*
X93345260Y-44588240D02*
X93304620Y-44753340D01*
X93357960Y-44425680D02*
X93345260Y-44588240D01*
X93337640Y-44240260D02*
X93357960Y-44425680D01*
X93281760Y-44065000D02*
X93337640Y-44240260D01*
X93192860Y-43902440D02*
X93281760Y-44065000D01*
X93073480Y-43762740D02*
X93192860Y-43902440D01*
X92928700Y-43645900D02*
X93073480Y-43762740D01*
X92766140Y-43562080D02*
X92928700Y-43645900D01*
X92588340Y-43511280D02*
X92766140Y-43562080D01*
X92405460Y-43493500D02*
X92588340Y-43511280D01*
X84683860Y-44019280D02*
X84782920Y-44009120D01*
X84592420Y-44052300D02*
X84683860Y-44019280D01*
X84508600Y-44103100D02*
X84592420Y-44052300D01*
X84437480Y-44171680D02*
X84508600Y-44103100D01*
X84384140Y-44255500D02*
X84437480Y-44171680D01*
X84351120Y-44346940D02*
X84384140Y-44255500D01*
X84340960Y-44446000D02*
X84351120Y-44346940D01*
X84348580Y-44542520D02*
X84340960Y-44446000D01*
X84381600Y-44639040D02*
X84348580Y-44542520D01*
X84432400Y-44725400D02*
X84381600Y-44639040D01*
X84503520Y-44796520D02*
X84432400Y-44725400D01*
X84587340Y-44852400D02*
X84503520Y-44796520D01*
X84681320Y-44885420D02*
X84587340Y-44852400D01*
X84782920Y-44898120D02*
X84681320Y-44885420D01*
X84881980Y-44885420D02*
X84782920Y-44898120D01*
X84978500Y-44849860D02*
X84881980Y-44885420D01*
X85062320Y-44793980D02*
X84978500Y-44849860D01*
X85133440Y-44717780D02*
X85062320Y-44793980D01*
X85186780Y-44631420D02*
X85133440Y-44717780D01*
X85217260Y-44534900D02*
X85186780Y-44631420D01*
X85227420Y-44433300D02*
X85217260Y-44534900D01*
X85212180Y-44339320D02*
X85227420Y-44433300D01*
X85179160Y-44247880D02*
X85212180Y-44339320D01*
X85125820Y-44166600D02*
X85179160Y-44247880D01*
X85054700Y-44098020D02*
X85125820Y-44166600D01*
X84970880Y-44049760D02*
X85054700Y-44098020D01*
X84879440Y-44019280D02*
X84970880Y-44049760D01*
X84782920Y-44009120D02*
X84879440Y-44019280D01*
X84594960Y-43518900D02*
X84780380Y-43501120D01*
X84419700Y-43569700D02*
X84594960Y-43518900D01*
X84257140Y-43653520D02*
X84419700Y-43569700D01*
X84112360Y-43770360D02*
X84257140Y-43653520D01*
X83995520Y-43910060D02*
X84112360Y-43770360D01*
X83906620Y-44072620D02*
X83995520Y-43910060D01*
X83850740Y-44247880D02*
X83906620Y-44072620D01*
X83830420Y-44428220D02*
X83850740Y-44247880D01*
X83843120Y-44593320D02*
X83830420Y-44428220D01*
X83883760Y-44758420D02*
X83843120Y-44593320D01*
X83954880Y-44910820D02*
X83883760Y-44758420D01*
X84048860Y-45050520D02*
X83954880Y-44910820D01*
X84165700Y-45169900D02*
X84048860Y-45050520D01*
X84300320Y-45268960D02*
X84165700Y-45169900D01*
X84452720Y-45342620D02*
X84300320Y-45268960D01*
X84615280Y-45388340D02*
X84452720Y-45342620D01*
X84782920Y-45406120D02*
X84615280Y-45388340D01*
X84948020Y-45388340D02*
X84782920Y-45406120D01*
X85110580Y-45342620D02*
X84948020Y-45388340D01*
X85262980Y-45268960D02*
X85110580Y-45342620D01*
X85397600Y-45172440D02*
X85262980Y-45268960D01*
X85516980Y-45053060D02*
X85397600Y-45172440D01*
X85610960Y-44913360D02*
X85516980Y-45053060D01*
X85679540Y-44760960D02*
X85610960Y-44913360D01*
X85720180Y-44595860D02*
X85679540Y-44760960D01*
X85732880Y-44433300D02*
X85720180Y-44595860D01*
X85712560Y-44247880D02*
X85732880Y-44433300D01*
X85656680Y-44072620D02*
X85712560Y-44247880D01*
X85567780Y-43910060D02*
X85656680Y-44072620D01*
X85448400Y-43770360D02*
X85567780Y-43910060D01*
X85303620Y-43653520D02*
X85448400Y-43770360D01*
X85141060Y-43569700D02*
X85303620Y-43653520D01*
X84963260Y-43518900D02*
X85141060Y-43569700D01*
X84780380Y-43501120D02*
X84963260Y-43518900D01*
D17*
X91138000Y-44446000D02*
X91392000Y-44446000D01*
X86058000Y-44446000D02*
X85804000Y-44446000D01*
X91138000Y-44446000D02*
X91138000Y-45716000D01*
X91138000Y-43176000D02*
X91138000Y-44446000D01*
X86058000Y-43176000D02*
X91138000Y-43176000D01*
X86058000Y-44446000D02*
X86058000Y-43176000D01*
X86058000Y-45716000D02*
X86058000Y-44446000D01*
X91138000Y-45716000D02*
X86058000Y-45716000D01*
D14*
X205135906Y-97770844D02*
X205198768Y-97693614D01*
X205094597Y-97858851D02*
X205135906Y-97770844D01*
X205071248Y-97954042D02*
X205094597Y-97858851D01*
X205069452Y-98052824D02*
X205071248Y-97954042D01*
X205091005Y-98149811D02*
X205069452Y-98052824D01*
X205132314Y-98237818D02*
X205091005Y-98149811D01*
X205195176Y-98315048D02*
X205132314Y-98237818D01*
X205268814Y-98377910D02*
X205195176Y-98315048D01*
X205360412Y-98422811D02*
X205268814Y-98377910D01*
X205457399Y-98447956D02*
X205360412Y-98422811D01*
X205557978Y-98447956D02*
X205457399Y-98447956D01*
X205656761Y-98428199D02*
X205557978Y-98447956D01*
X205746563Y-98385094D02*
X205656761Y-98428199D01*
X205827386Y-98322232D02*
X205746563Y-98385094D01*
X205888452Y-98243206D02*
X205827386Y-98322232D01*
X205931557Y-98149811D02*
X205888452Y-98243206D01*
X205951313Y-98051028D02*
X205931557Y-98149811D01*
X205947721Y-97946857D02*
X205951313Y-98051028D01*
X205924373Y-97848075D02*
X205947721Y-97946857D01*
X205877675Y-97758272D02*
X205924373Y-97848075D01*
X205814813Y-97681042D02*
X205877675Y-97758272D01*
X205735787Y-97623568D02*
X205814813Y-97681042D01*
X205647781Y-97582259D02*
X205735787Y-97623568D01*
X205552590Y-97562502D02*
X205647781Y-97582259D01*
X205453807Y-97564299D02*
X205552590Y-97562502D01*
X205360412Y-97589443D02*
X205453807Y-97564299D01*
X205274202Y-97632548D02*
X205360412Y-97589443D01*
X205198768Y-97693614D02*
X205274202Y-97632548D01*
X204719222Y-97479884D02*
X204837762Y-97336200D01*
X204631216Y-97639733D02*
X204719222Y-97479884D01*
X204575538Y-97813950D02*
X204631216Y-97639733D01*
X204555782Y-97998943D02*
X204575538Y-97813950D01*
X204571946Y-98180344D02*
X204555782Y-97998943D01*
X204624031Y-98358153D02*
X204571946Y-98180344D01*
X204708446Y-98521594D02*
X204624031Y-98358153D01*
X204821597Y-98663482D02*
X204708446Y-98521594D01*
X204947321Y-98771245D02*
X204821597Y-98663482D01*
X205092801Y-98859251D02*
X204947321Y-98771245D01*
X205250853Y-98916725D02*
X205092801Y-98859251D01*
X205416090Y-98949054D02*
X205250853Y-98916725D01*
X205583123Y-98950850D02*
X205416090Y-98949054D01*
X205748360Y-98925705D02*
X205583123Y-98950850D01*
X205908208Y-98870028D02*
X205748360Y-98925705D01*
X206055484Y-98787409D02*
X205908208Y-98870028D01*
X206186596Y-98681442D02*
X206055484Y-98787409D01*
X206290767Y-98552127D02*
X206186596Y-98681442D01*
X206373385Y-98404850D02*
X206290767Y-98552127D01*
X206429063Y-98245002D02*
X206373385Y-98404850D01*
X206456004Y-98081561D02*
X206429063Y-98245002D01*
X206456004Y-97912732D02*
X206456004Y-98081561D01*
X206423675Y-97747496D02*
X206456004Y-97912732D01*
X206364405Y-97591239D02*
X206423675Y-97747496D01*
X206276399Y-97445759D02*
X206364405Y-97591239D01*
X206170432Y-97321832D02*
X206276399Y-97445759D01*
X206024951Y-97205088D02*
X206170432Y-97321832D01*
X205861511Y-97120674D02*
X206024951Y-97205088D01*
X205683702Y-97068588D02*
X205861511Y-97120674D01*
X205500504Y-97054220D02*
X205683702Y-97068588D01*
X205315511Y-97073977D02*
X205500504Y-97054220D01*
X205141294Y-97129654D02*
X205315511Y-97073977D01*
X204979650Y-97219457D02*
X205141294Y-97129654D01*
X204837762Y-97336200D02*
X204979650Y-97219457D01*
X199749548Y-103167978D02*
X199812410Y-103090748D01*
X199708239Y-103255985D02*
X199749548Y-103167978D01*
X199684891Y-103351176D02*
X199708239Y-103255985D01*
X199683095Y-103449958D02*
X199684891Y-103351176D01*
X199704647Y-103546945D02*
X199683095Y-103449958D01*
X199745956Y-103634952D02*
X199704647Y-103546945D01*
X199808818Y-103712182D02*
X199745956Y-103634952D01*
X199882456Y-103775044D02*
X199808818Y-103712182D01*
X199974055Y-103819945D02*
X199882456Y-103775044D01*
X200071042Y-103845090D02*
X199974055Y-103819945D01*
X200171620Y-103845090D02*
X200071042Y-103845090D01*
X200270403Y-103825333D02*
X200171620Y-103845090D01*
X200360206Y-103782228D02*
X200270403Y-103825333D01*
X200441028Y-103719366D02*
X200360206Y-103782228D01*
X200502094Y-103640340D02*
X200441028Y-103719366D01*
X200545199Y-103546945D02*
X200502094Y-103640340D01*
X200564956Y-103448162D02*
X200545199Y-103546945D01*
X200561364Y-103343991D02*
X200564956Y-103448162D01*
X200538015Y-103245209D02*
X200561364Y-103343991D01*
X200491318Y-103155406D02*
X200538015Y-103245209D01*
X200426660Y-103076380D02*
X200491318Y-103155406D01*
X200349430Y-103020702D02*
X200426660Y-103076380D01*
X200261423Y-102979393D02*
X200349430Y-103020702D01*
X200166232Y-102959636D02*
X200261423Y-102979393D01*
X200067450Y-102961432D02*
X200166232Y-102959636D01*
X199974055Y-102986577D02*
X200067450Y-102961432D01*
X199887844Y-103029682D02*
X199974055Y-102986577D01*
X199812410Y-103090748D02*
X199887844Y-103029682D01*
X199332865Y-102877018D02*
X199451404Y-102733334D01*
X199244858Y-103036867D02*
X199332865Y-102877018D01*
X199189180Y-103211084D02*
X199244858Y-103036867D01*
X199169424Y-103396077D02*
X199189180Y-103211084D01*
X199185588Y-103577478D02*
X199169424Y-103396077D01*
X199237674Y-103755287D02*
X199185588Y-103577478D01*
X199322088Y-103918728D02*
X199237674Y-103755287D01*
X199435239Y-104060616D02*
X199322088Y-103918728D01*
X199560963Y-104168379D02*
X199435239Y-104060616D01*
X199706443Y-104256385D02*
X199560963Y-104168379D01*
X199864496Y-104313859D02*
X199706443Y-104256385D01*
X200029732Y-104346188D02*
X199864496Y-104313859D01*
X200196765Y-104347984D02*
X200029732Y-104346188D01*
X200362002Y-104322839D02*
X200196765Y-104347984D01*
X200521850Y-104267162D02*
X200362002Y-104322839D01*
X200669127Y-104184543D02*
X200521850Y-104267162D01*
X200800238Y-104078576D02*
X200669127Y-104184543D01*
X200904409Y-103949261D02*
X200800238Y-104078576D01*
X200987028Y-103801984D02*
X200904409Y-103949261D01*
X201042705Y-103642136D02*
X200987028Y-103801984D01*
X201069646Y-103478695D02*
X201042705Y-103642136D01*
X201069646Y-103309866D02*
X201069646Y-103478695D01*
X201037317Y-103144630D02*
X201069646Y-103309866D01*
X200978047Y-102988373D02*
X201037317Y-103144630D01*
X200890041Y-102842893D02*
X200978047Y-102988373D01*
X200784074Y-102718966D02*
X200890041Y-102842893D01*
X200638594Y-102602222D02*
X200784074Y-102718966D01*
X200475153Y-102517808D02*
X200638594Y-102602222D01*
X200297344Y-102465722D02*
X200475153Y-102517808D01*
X200114147Y-102451354D02*
X200297344Y-102465722D01*
X199929154Y-102471110D02*
X200114147Y-102451354D01*
X199754937Y-102526788D02*
X199929154Y-102471110D01*
X199593292Y-102616591D02*
X199754937Y-102526788D01*
X199451404Y-102733334D02*
X199593292Y-102616591D01*
D17*
X204615051Y-98905949D02*
X204794656Y-98726344D01*
X201022949Y-102498051D02*
X200843344Y-102677656D01*
X204615051Y-98905949D02*
X205513077Y-99803974D01*
X203717026Y-98007923D02*
X204615051Y-98905949D01*
X200124923Y-101600026D02*
X203717026Y-98007923D01*
X201022949Y-102498051D02*
X200124923Y-101600026D01*
X201920974Y-103396077D02*
X201022949Y-102498051D01*
X205513077Y-99803974D02*
X201920974Y-103396077D01*
D14*
X203464906Y-134745844D02*
X203527768Y-134668614D01*
X203423597Y-134833851D02*
X203464906Y-134745844D01*
X203400248Y-134929042D02*
X203423597Y-134833851D01*
X203398452Y-135027824D02*
X203400248Y-134929042D01*
X203420005Y-135124811D02*
X203398452Y-135027824D01*
X203461314Y-135212818D02*
X203420005Y-135124811D01*
X203524176Y-135290048D02*
X203461314Y-135212818D01*
X203597814Y-135352910D02*
X203524176Y-135290048D01*
X203689412Y-135397811D02*
X203597814Y-135352910D01*
X203786399Y-135422956D02*
X203689412Y-135397811D01*
X203886978Y-135422956D02*
X203786399Y-135422956D01*
X203985761Y-135403199D02*
X203886978Y-135422956D01*
X204075563Y-135360094D02*
X203985761Y-135403199D01*
X204156386Y-135297232D02*
X204075563Y-135360094D01*
X204217452Y-135218206D02*
X204156386Y-135297232D01*
X204260557Y-135124811D02*
X204217452Y-135218206D01*
X204280313Y-135026028D02*
X204260557Y-135124811D01*
X204276721Y-134921857D02*
X204280313Y-135026028D01*
X204253373Y-134823075D02*
X204276721Y-134921857D01*
X204206675Y-134733272D02*
X204253373Y-134823075D01*
X204143813Y-134656042D02*
X204206675Y-134733272D01*
X204064787Y-134598568D02*
X204143813Y-134656042D01*
X203976781Y-134557259D02*
X204064787Y-134598568D01*
X203881590Y-134537502D02*
X203976781Y-134557259D01*
X203782807Y-134539299D02*
X203881590Y-134537502D01*
X203689412Y-134564443D02*
X203782807Y-134539299D01*
X203603202Y-134607548D02*
X203689412Y-134564443D01*
X203527768Y-134668614D02*
X203603202Y-134607548D01*
X203048222Y-134454884D02*
X203166762Y-134311200D01*
X202960216Y-134614733D02*
X203048222Y-134454884D01*
X202904538Y-134788950D02*
X202960216Y-134614733D01*
X202884782Y-134973943D02*
X202904538Y-134788950D01*
X202900946Y-135155344D02*
X202884782Y-134973943D01*
X202953031Y-135333153D02*
X202900946Y-135155344D01*
X203037446Y-135496594D02*
X202953031Y-135333153D01*
X203150597Y-135638482D02*
X203037446Y-135496594D01*
X203276321Y-135746245D02*
X203150597Y-135638482D01*
X203421801Y-135834251D02*
X203276321Y-135746245D01*
X203579853Y-135891725D02*
X203421801Y-135834251D01*
X203745090Y-135924054D02*
X203579853Y-135891725D01*
X203912123Y-135925850D02*
X203745090Y-135924054D01*
X204077360Y-135900705D02*
X203912123Y-135925850D01*
X204237208Y-135845028D02*
X204077360Y-135900705D01*
X204384484Y-135762409D02*
X204237208Y-135845028D01*
X204515596Y-135656442D02*
X204384484Y-135762409D01*
X204619767Y-135527127D02*
X204515596Y-135656442D01*
X204702385Y-135379850D02*
X204619767Y-135527127D01*
X204758063Y-135220002D02*
X204702385Y-135379850D01*
X204785004Y-135056561D02*
X204758063Y-135220002D01*
X204785004Y-134887732D02*
X204785004Y-135056561D01*
X204752675Y-134722496D02*
X204785004Y-134887732D01*
X204693405Y-134566239D02*
X204752675Y-134722496D01*
X204605399Y-134420759D02*
X204693405Y-134566239D01*
X204499432Y-134296832D02*
X204605399Y-134420759D01*
X204353951Y-134180088D02*
X204499432Y-134296832D01*
X204190511Y-134095674D02*
X204353951Y-134180088D01*
X204012702Y-134043588D02*
X204190511Y-134095674D01*
X203829504Y-134029220D02*
X204012702Y-134043588D01*
X203644511Y-134048977D02*
X203829504Y-134029220D01*
X203470294Y-134104654D02*
X203644511Y-134048977D01*
X203308650Y-134194457D02*
X203470294Y-134104654D01*
X203166762Y-134311200D02*
X203308650Y-134194457D01*
X198078548Y-140142978D02*
X198141410Y-140065748D01*
X198037239Y-140230985D02*
X198078548Y-140142978D01*
X198013891Y-140326176D02*
X198037239Y-140230985D01*
X198012095Y-140424958D02*
X198013891Y-140326176D01*
X198033647Y-140521945D02*
X198012095Y-140424958D01*
X198074956Y-140609952D02*
X198033647Y-140521945D01*
X198137818Y-140687182D02*
X198074956Y-140609952D01*
X198211456Y-140750044D02*
X198137818Y-140687182D01*
X198303055Y-140794945D02*
X198211456Y-140750044D01*
X198400042Y-140820090D02*
X198303055Y-140794945D01*
X198500620Y-140820090D02*
X198400042Y-140820090D01*
X198599403Y-140800333D02*
X198500620Y-140820090D01*
X198689206Y-140757228D02*
X198599403Y-140800333D01*
X198770028Y-140694366D02*
X198689206Y-140757228D01*
X198831094Y-140615340D02*
X198770028Y-140694366D01*
X198874199Y-140521945D02*
X198831094Y-140615340D01*
X198893956Y-140423162D02*
X198874199Y-140521945D01*
X198890364Y-140318991D02*
X198893956Y-140423162D01*
X198867015Y-140220209D02*
X198890364Y-140318991D01*
X198820318Y-140130406D02*
X198867015Y-140220209D01*
X198755660Y-140051380D02*
X198820318Y-140130406D01*
X198678430Y-139995702D02*
X198755660Y-140051380D01*
X198590423Y-139954393D02*
X198678430Y-139995702D01*
X198495232Y-139934636D02*
X198590423Y-139954393D01*
X198396450Y-139936432D02*
X198495232Y-139934636D01*
X198303055Y-139961577D02*
X198396450Y-139936432D01*
X198216844Y-140004682D02*
X198303055Y-139961577D01*
X198141410Y-140065748D02*
X198216844Y-140004682D01*
X197661865Y-139852018D02*
X197780404Y-139708334D01*
X197573858Y-140011867D02*
X197661865Y-139852018D01*
X197518180Y-140186084D02*
X197573858Y-140011867D01*
X197498424Y-140371077D02*
X197518180Y-140186084D01*
X197514588Y-140552478D02*
X197498424Y-140371077D01*
X197566674Y-140730287D02*
X197514588Y-140552478D01*
X197651088Y-140893728D02*
X197566674Y-140730287D01*
X197764239Y-141035616D02*
X197651088Y-140893728D01*
X197889963Y-141143379D02*
X197764239Y-141035616D01*
X198035443Y-141231385D02*
X197889963Y-141143379D01*
X198193496Y-141288859D02*
X198035443Y-141231385D01*
X198358732Y-141321188D02*
X198193496Y-141288859D01*
X198525765Y-141322984D02*
X198358732Y-141321188D01*
X198691002Y-141297839D02*
X198525765Y-141322984D01*
X198850850Y-141242162D02*
X198691002Y-141297839D01*
X198998127Y-141159543D02*
X198850850Y-141242162D01*
X199129238Y-141053576D02*
X198998127Y-141159543D01*
X199233409Y-140924261D02*
X199129238Y-141053576D01*
X199316028Y-140776984D02*
X199233409Y-140924261D01*
X199371705Y-140617136D02*
X199316028Y-140776984D01*
X199398646Y-140453695D02*
X199371705Y-140617136D01*
X199398646Y-140284866D02*
X199398646Y-140453695D01*
X199366317Y-140119630D02*
X199398646Y-140284866D01*
X199307047Y-139963373D02*
X199366317Y-140119630D01*
X199219041Y-139817893D02*
X199307047Y-139963373D01*
X199113074Y-139693966D02*
X199219041Y-139817893D01*
X198967594Y-139577222D02*
X199113074Y-139693966D01*
X198804153Y-139492808D02*
X198967594Y-139577222D01*
X198626344Y-139440722D02*
X198804153Y-139492808D01*
X198443147Y-139426354D02*
X198626344Y-139440722D01*
X198258154Y-139446110D02*
X198443147Y-139426354D01*
X198083937Y-139501788D02*
X198258154Y-139446110D01*
X197922292Y-139591591D02*
X198083937Y-139501788D01*
X197780404Y-139708334D02*
X197922292Y-139591591D01*
D17*
X202944051Y-135880949D02*
X203123656Y-135701344D01*
X199351949Y-139473051D02*
X199172344Y-139652656D01*
X202944051Y-135880949D02*
X203842077Y-136778974D01*
X202046026Y-134982923D02*
X202944051Y-135880949D01*
X198453923Y-138575026D02*
X202046026Y-134982923D01*
X199351949Y-139473051D02*
X198453923Y-138575026D01*
X200249974Y-140371077D02*
X199351949Y-139473051D01*
X203842077Y-136778974D02*
X200249974Y-140371077D01*
D14*
X197454094Y-100183156D02*
X197391232Y-100260386D01*
X197495403Y-100095149D02*
X197454094Y-100183156D01*
X197518752Y-99999958D02*
X197495403Y-100095149D01*
X197520548Y-99901176D02*
X197518752Y-99999958D01*
X197498995Y-99804189D02*
X197520548Y-99901176D01*
X197457686Y-99716182D02*
X197498995Y-99804189D01*
X197394824Y-99638952D02*
X197457686Y-99716182D01*
X197321186Y-99576090D02*
X197394824Y-99638952D01*
X197229588Y-99531189D02*
X197321186Y-99576090D01*
X197132601Y-99506044D02*
X197229588Y-99531189D01*
X197032022Y-99506044D02*
X197132601Y-99506044D01*
X196933239Y-99525801D02*
X197032022Y-99506044D01*
X196843437Y-99568906D02*
X196933239Y-99525801D01*
X196762614Y-99631768D02*
X196843437Y-99568906D01*
X196701548Y-99710794D02*
X196762614Y-99631768D01*
X196658443Y-99804189D02*
X196701548Y-99710794D01*
X196638687Y-99902972D02*
X196658443Y-99804189D01*
X196642279Y-100007143D02*
X196638687Y-99902972D01*
X196665627Y-100105925D02*
X196642279Y-100007143D01*
X196712325Y-100195728D02*
X196665627Y-100105925D01*
X196775187Y-100272958D02*
X196712325Y-100195728D01*
X196854213Y-100330432D02*
X196775187Y-100272958D01*
X196942219Y-100371741D02*
X196854213Y-100330432D01*
X197037410Y-100391498D02*
X196942219Y-100371741D01*
X197136193Y-100389701D02*
X197037410Y-100391498D01*
X197229588Y-100364557D02*
X197136193Y-100389701D01*
X197315798Y-100321452D02*
X197229588Y-100364557D01*
X197391232Y-100260386D02*
X197315798Y-100321452D01*
X197870778Y-100474116D02*
X197752238Y-100617800D01*
X197958784Y-100314267D02*
X197870778Y-100474116D01*
X198014462Y-100140050D02*
X197958784Y-100314267D01*
X198034218Y-99955057D02*
X198014462Y-100140050D01*
X198018054Y-99773656D02*
X198034218Y-99955057D01*
X197965969Y-99595847D02*
X198018054Y-99773656D01*
X197881554Y-99432406D02*
X197965969Y-99595847D01*
X197768403Y-99290518D02*
X197881554Y-99432406D01*
X197642679Y-99182755D02*
X197768403Y-99290518D01*
X197497199Y-99094749D02*
X197642679Y-99182755D01*
X197339147Y-99037275D02*
X197497199Y-99094749D01*
X197173910Y-99004946D02*
X197339147Y-99037275D01*
X197006877Y-99003150D02*
X197173910Y-99004946D01*
X196841640Y-99028295D02*
X197006877Y-99003150D01*
X196681792Y-99083972D02*
X196841640Y-99028295D01*
X196534516Y-99166591D02*
X196681792Y-99083972D01*
X196403404Y-99272558D02*
X196534516Y-99166591D01*
X196299233Y-99401873D02*
X196403404Y-99272558D01*
X196216615Y-99549150D02*
X196299233Y-99401873D01*
X196160937Y-99708998D02*
X196216615Y-99549150D01*
X196133996Y-99872439D02*
X196160937Y-99708998D01*
X196133996Y-100041268D02*
X196133996Y-99872439D01*
X196166325Y-100206504D02*
X196133996Y-100041268D01*
X196225595Y-100362761D02*
X196166325Y-100206504D01*
X196313601Y-100508241D02*
X196225595Y-100362761D01*
X196419568Y-100632168D02*
X196313601Y-100508241D01*
X196565049Y-100748912D02*
X196419568Y-100632168D01*
X196728489Y-100833326D02*
X196565049Y-100748912D01*
X196906298Y-100885412D02*
X196728489Y-100833326D01*
X197089496Y-100899780D02*
X196906298Y-100885412D01*
X197274489Y-100880023D02*
X197089496Y-100899780D01*
X197448706Y-100824346D02*
X197274489Y-100880023D01*
X197610350Y-100734543D02*
X197448706Y-100824346D01*
X197752238Y-100617800D02*
X197610350Y-100734543D01*
X202840452Y-94786022D02*
X202777590Y-94863252D01*
X202881761Y-94698015D02*
X202840452Y-94786022D01*
X202905109Y-94602824D02*
X202881761Y-94698015D01*
X202906905Y-94504042D02*
X202905109Y-94602824D01*
X202885353Y-94407055D02*
X202906905Y-94504042D01*
X202844044Y-94319048D02*
X202885353Y-94407055D01*
X202781182Y-94241818D02*
X202844044Y-94319048D01*
X202707544Y-94178956D02*
X202781182Y-94241818D01*
X202615945Y-94134055D02*
X202707544Y-94178956D01*
X202518958Y-94108910D02*
X202615945Y-94134055D01*
X202418380Y-94108910D02*
X202518958Y-94108910D01*
X202319597Y-94128667D02*
X202418380Y-94108910D01*
X202229794Y-94171772D02*
X202319597Y-94128667D01*
X202148972Y-94234634D02*
X202229794Y-94171772D01*
X202087906Y-94313660D02*
X202148972Y-94234634D01*
X202044801Y-94407055D02*
X202087906Y-94313660D01*
X202025044Y-94505838D02*
X202044801Y-94407055D01*
X202028636Y-94610009D02*
X202025044Y-94505838D01*
X202051985Y-94708791D02*
X202028636Y-94610009D01*
X202098682Y-94798594D02*
X202051985Y-94708791D01*
X202163340Y-94877620D02*
X202098682Y-94798594D01*
X202240570Y-94933298D02*
X202163340Y-94877620D01*
X202328577Y-94974607D02*
X202240570Y-94933298D01*
X202423768Y-94994364D02*
X202328577Y-94974607D01*
X202522550Y-94992568D02*
X202423768Y-94994364D01*
X202615945Y-94967423D02*
X202522550Y-94992568D01*
X202702156Y-94924318D02*
X202615945Y-94967423D01*
X202777590Y-94863252D02*
X202702156Y-94924318D01*
X203257135Y-95076982D02*
X203138596Y-95220666D01*
X203345142Y-94917133D02*
X203257135Y-95076982D01*
X203400820Y-94742916D02*
X203345142Y-94917133D01*
X203420576Y-94557923D02*
X203400820Y-94742916D01*
X203404412Y-94376522D02*
X203420576Y-94557923D01*
X203352326Y-94198713D02*
X203404412Y-94376522D01*
X203267912Y-94035272D02*
X203352326Y-94198713D01*
X203154761Y-93893384D02*
X203267912Y-94035272D01*
X203029037Y-93785621D02*
X203154761Y-93893384D01*
X202883557Y-93697615D02*
X203029037Y-93785621D01*
X202725504Y-93640141D02*
X202883557Y-93697615D01*
X202560268Y-93607812D02*
X202725504Y-93640141D01*
X202393235Y-93606016D02*
X202560268Y-93607812D01*
X202227998Y-93631161D02*
X202393235Y-93606016D01*
X202068150Y-93686838D02*
X202227998Y-93631161D01*
X201920873Y-93769457D02*
X202068150Y-93686838D01*
X201789762Y-93875424D02*
X201920873Y-93769457D01*
X201685591Y-94004739D02*
X201789762Y-93875424D01*
X201602972Y-94152016D02*
X201685591Y-94004739D01*
X201547295Y-94311864D02*
X201602972Y-94152016D01*
X201520354Y-94475305D02*
X201547295Y-94311864D01*
X201520354Y-94644134D02*
X201520354Y-94475305D01*
X201552683Y-94809370D02*
X201520354Y-94644134D01*
X201611953Y-94965627D02*
X201552683Y-94809370D01*
X201699959Y-95111107D02*
X201611953Y-94965627D01*
X201805926Y-95235034D02*
X201699959Y-95111107D01*
X201951406Y-95351778D02*
X201805926Y-95235034D01*
X202114847Y-95436192D02*
X201951406Y-95351778D01*
X202292656Y-95488278D02*
X202114847Y-95436192D01*
X202475853Y-95502646D02*
X202292656Y-95488278D01*
X202660846Y-95482890D02*
X202475853Y-95502646D01*
X202835063Y-95427212D02*
X202660846Y-95482890D01*
X202996708Y-95337409D02*
X202835063Y-95427212D01*
X203138596Y-95220666D02*
X202996708Y-95337409D01*
D17*
X197974949Y-99048051D02*
X197795344Y-99227656D01*
X201567051Y-95455949D02*
X201746656Y-95276344D01*
X197974949Y-99048051D02*
X197076923Y-98150026D01*
X198872974Y-99946077D02*
X197974949Y-99048051D01*
X202465077Y-96353974D02*
X198872974Y-99946077D01*
X201567051Y-95455949D02*
X202465077Y-96353974D01*
X200669026Y-94557923D02*
X201567051Y-95455949D01*
X197076923Y-98150026D02*
X200669026Y-94557923D01*
D13*
X226318000Y-77938000D02*
X228318000Y-77938000D01*
X226318000Y-72938000D02*
X228318000Y-72938000D01*
X226318000Y-71938000D02*
X214218000Y-71938000D01*
X228318000Y-72938000D02*
X228318000Y-77938000D01*
X226318000Y-78938000D02*
X226318000Y-77938000D01*
X226318000Y-72938000D02*
X226318000Y-71938000D01*
X226318000Y-78938000D02*
X214168000Y-78938000D01*
X215968000Y-77338000D02*
X215468000Y-76838000D01*
X215468000Y-76838000D02*
X216468000Y-76838000D01*
X216468000Y-76838000D02*
X215968000Y-77338000D01*
X214218000Y-71938000D02*
X214118000Y-71938000D01*
X214118000Y-71938000D02*
X214118000Y-72938000D01*
X214168000Y-78938000D02*
X214118000Y-78938000D01*
X214118000Y-78938000D02*
X214118000Y-74338000D01*
D18*
X103584000Y-37846000D02*
X103584000Y-35687000D01*
X103584000Y-37846000D02*
X73612000Y-37846000D01*
X103584000Y-32258000D02*
X73612000Y-32258000D01*
X73612000Y-32258000D02*
X73612000Y-37846000D01*
X103584000Y-34417000D02*
X103584000Y-32258000D01*
X103584000Y-35687000D02*
G75*
G02*
X103584000Y-34417000I0J635000D01*
G01*
D16*
X69512180Y-41874440D02*
G75*
G03*
X69512180Y-41874440I-1778000J0D01*
G01*
X70782180Y-42900600D02*
X70782180Y-40858440D01*
X64686180Y-42870120D02*
X64686180Y-40858440D01*
X69893180Y-38826440D02*
X65575180Y-38826440D01*
X65575180Y-44922440D02*
X69893180Y-44922440D01*
X69509640Y-32250380D02*
G75*
G03*
X69509640Y-32250380I-1778000J0D01*
G01*
X70779640Y-33276540D02*
X70779640Y-31234380D01*
X64683640Y-33246060D02*
X64683640Y-31234380D01*
X69890640Y-29202380D02*
X65572640Y-29202380D01*
X65572640Y-35298380D02*
X69890640Y-35298380D01*
D13*
X227848000Y-45212000D02*
X226568000Y-45212000D01*
X227848000Y-37582000D02*
X227848000Y-45212000D01*
X226568000Y-37582000D02*
X227848000Y-37582000D01*
X193548000Y-50272000D02*
X226538000Y-50272000D01*
X193548000Y-32502000D02*
X193548000Y-50272000D01*
X226558000Y-32502000D02*
X193548000Y-32502000D01*
X226558000Y-50272000D02*
X226558000Y-32502000D01*
X214118000Y-103068000D02*
X214118000Y-98468000D01*
X214168000Y-103068000D02*
X214118000Y-103068000D01*
X214118000Y-96068000D02*
X214118000Y-97068000D01*
X214218000Y-96068000D02*
X214118000Y-96068000D01*
X216468000Y-100968000D02*
X215968000Y-101468000D01*
X215468000Y-100968000D02*
X216468000Y-100968000D01*
X215968000Y-101468000D02*
X215468000Y-100968000D01*
X226318000Y-103068000D02*
X214168000Y-103068000D01*
X226318000Y-97068000D02*
X226318000Y-96068000D01*
X226318000Y-103068000D02*
X226318000Y-102068000D01*
X228318000Y-97068000D02*
X228318000Y-102068000D01*
X226318000Y-96068000D02*
X214218000Y-96068000D01*
X226318000Y-97068000D02*
X228318000Y-97068000D01*
X226318000Y-102068000D02*
X228318000Y-102068000D01*
D16*
X198729600Y-58369200D02*
X203047600Y-58369200D01*
X203047600Y-52273200D02*
X198729600Y-52273200D01*
X197840600Y-56316880D02*
X197840600Y-54305200D01*
X203936600Y-56347360D02*
X203936600Y-54305200D01*
X202666600Y-55321200D02*
G75*
G03*
X202666600Y-55321200I-1778000J0D01*
G01*
D11*
X209406286Y-131822380D02*
X209739620Y-132822380D01*
X210072953Y-131822380D01*
X210977715Y-132822380D02*
X210644381Y-132346190D01*
X210406286Y-132822380D02*
X210406286Y-131822380D01*
X210787239Y-131822380D01*
X210882477Y-131870000D01*
X210930096Y-131917619D01*
X210977715Y-132012857D01*
X210977715Y-132155714D01*
X210930096Y-132250952D01*
X210882477Y-132298571D01*
X210787239Y-132346190D01*
X210406286Y-132346190D01*
X211311048Y-131822380D02*
X211930096Y-131822380D01*
X211596762Y-132203333D01*
X211739620Y-132203333D01*
X211834858Y-132250952D01*
X211882477Y-132298571D01*
X211930096Y-132393809D01*
X211930096Y-132631904D01*
X211882477Y-132727142D01*
X211834858Y-132774761D01*
X211739620Y-132822380D01*
X211453905Y-132822380D01*
X211358667Y-132774761D01*
X211311048Y-132727142D01*
X212311048Y-131917619D02*
X212358667Y-131870000D01*
X212453905Y-131822380D01*
X212692001Y-131822380D01*
X212787239Y-131870000D01*
X212834858Y-131917619D01*
X212882477Y-132012857D01*
X212882477Y-132108095D01*
X212834858Y-132250952D01*
X212263429Y-132822380D01*
X212882477Y-132822380D01*
X185120286Y-131822380D02*
X185453620Y-132822380D01*
X185786953Y-131822380D01*
X186691715Y-132822380D02*
X186358381Y-132346190D01*
X186120286Y-132822380D02*
X186120286Y-131822380D01*
X186501239Y-131822380D01*
X186596477Y-131870000D01*
X186644096Y-131917619D01*
X186691715Y-132012857D01*
X186691715Y-132155714D01*
X186644096Y-132250952D01*
X186596477Y-132298571D01*
X186501239Y-132346190D01*
X186120286Y-132346190D01*
X187025048Y-131822380D02*
X187644096Y-131822380D01*
X187310762Y-132203333D01*
X187453620Y-132203333D01*
X187548858Y-132250952D01*
X187596477Y-132298571D01*
X187644096Y-132393809D01*
X187644096Y-132631904D01*
X187596477Y-132727142D01*
X187548858Y-132774761D01*
X187453620Y-132822380D01*
X187167905Y-132822380D01*
X187072667Y-132774761D01*
X187025048Y-132727142D01*
X188596477Y-132822380D02*
X188025048Y-132822380D01*
X188310762Y-132822380D02*
X188310762Y-131822380D01*
X188215524Y-131965238D01*
X188120286Y-132060476D01*
X188025048Y-132108095D01*
X160834286Y-131822380D02*
X161167620Y-132822380D01*
X161500953Y-131822380D01*
X162405715Y-132822380D02*
X162072381Y-132346190D01*
X161834286Y-132822380D02*
X161834286Y-131822380D01*
X162215239Y-131822380D01*
X162310477Y-131870000D01*
X162358096Y-131917619D01*
X162405715Y-132012857D01*
X162405715Y-132155714D01*
X162358096Y-132250952D01*
X162310477Y-132298571D01*
X162215239Y-132346190D01*
X161834286Y-132346190D01*
X162739048Y-131822380D02*
X163358096Y-131822380D01*
X163024762Y-132203333D01*
X163167620Y-132203333D01*
X163262858Y-132250952D01*
X163310477Y-132298571D01*
X163358096Y-132393809D01*
X163358096Y-132631904D01*
X163310477Y-132727142D01*
X163262858Y-132774761D01*
X163167620Y-132822380D01*
X162881905Y-132822380D01*
X162786667Y-132774761D01*
X162739048Y-132727142D01*
X163977143Y-131822380D02*
X164072381Y-131822380D01*
X164167620Y-131870000D01*
X164215239Y-131917619D01*
X164262858Y-132012857D01*
X164310477Y-132203333D01*
X164310477Y-132441428D01*
X164262858Y-132631904D01*
X164215239Y-132727142D01*
X164167620Y-132774761D01*
X164072381Y-132822380D01*
X163977143Y-132822380D01*
X163881905Y-132774761D01*
X163834286Y-132727142D01*
X163786667Y-132631904D01*
X163739048Y-132441428D01*
X163739048Y-132203333D01*
X163786667Y-132012857D01*
X163834286Y-131917619D01*
X163881905Y-131870000D01*
X163977143Y-131822380D01*
X136548286Y-131822380D02*
X136881620Y-132822380D01*
X137214953Y-131822380D01*
X138119715Y-132822380D02*
X137786381Y-132346190D01*
X137548286Y-132822380D02*
X137548286Y-131822380D01*
X137929239Y-131822380D01*
X138024477Y-131870000D01*
X138072096Y-131917619D01*
X138119715Y-132012857D01*
X138119715Y-132155714D01*
X138072096Y-132250952D01*
X138024477Y-132298571D01*
X137929239Y-132346190D01*
X137548286Y-132346190D01*
X138500667Y-131917619D02*
X138548286Y-131870000D01*
X138643524Y-131822380D01*
X138881620Y-131822380D01*
X138976858Y-131870000D01*
X139024477Y-131917619D01*
X139072096Y-132012857D01*
X139072096Y-132108095D01*
X139024477Y-132250952D01*
X138453048Y-132822380D01*
X139072096Y-132822380D01*
X139548286Y-132822380D02*
X139738762Y-132822380D01*
X139834001Y-132774761D01*
X139881620Y-132727142D01*
X139976858Y-132584285D01*
X140024477Y-132393809D01*
X140024477Y-132012857D01*
X139976858Y-131917619D01*
X139929239Y-131870000D01*
X139834001Y-131822380D01*
X139643524Y-131822380D01*
X139548286Y-131870000D01*
X139500667Y-131917619D01*
X139453048Y-132012857D01*
X139453048Y-132250952D01*
X139500667Y-132346190D01*
X139548286Y-132393809D01*
X139643524Y-132441428D01*
X139834001Y-132441428D01*
X139929239Y-132393809D01*
X139976858Y-132346190D01*
X140024477Y-132250952D01*
X112262287Y-131822380D02*
X112595621Y-132822380D01*
X112928954Y-131822380D01*
X113833716Y-132822380D02*
X113500382Y-132346190D01*
X113262287Y-132822380D02*
X113262287Y-131822380D01*
X113643240Y-131822380D01*
X113738478Y-131870000D01*
X113786097Y-131917619D01*
X113833716Y-132012857D01*
X113833716Y-132155714D01*
X113786097Y-132250952D01*
X113738478Y-132298571D01*
X113643240Y-132346190D01*
X113262287Y-132346190D01*
X114214668Y-131917619D02*
X114262287Y-131870000D01*
X114357525Y-131822380D01*
X114595621Y-131822380D01*
X114690859Y-131870000D01*
X114738478Y-131917619D01*
X114786097Y-132012857D01*
X114786097Y-132108095D01*
X114738478Y-132250952D01*
X114167049Y-132822380D01*
X114786097Y-132822380D01*
X115357525Y-132250952D02*
X115262287Y-132203333D01*
X115214668Y-132155714D01*
X115167049Y-132060476D01*
X115167049Y-132012857D01*
X115214668Y-131917619D01*
X115262287Y-131870000D01*
X115357525Y-131822380D01*
X115548002Y-131822380D01*
X115643240Y-131870000D01*
X115690859Y-131917619D01*
X115738478Y-132012857D01*
X115738478Y-132060476D01*
X115690859Y-132155714D01*
X115643240Y-132203333D01*
X115548002Y-132250952D01*
X115357525Y-132250952D01*
X115262287Y-132298571D01*
X115214668Y-132346190D01*
X115167049Y-132441428D01*
X115167049Y-132631904D01*
X115214668Y-132727142D01*
X115262287Y-132774761D01*
X115357525Y-132822380D01*
X115548002Y-132822380D01*
X115643240Y-132774761D01*
X115690859Y-132727142D01*
X115738478Y-132631904D01*
X115738478Y-132441428D01*
X115690859Y-132346190D01*
X115643240Y-132298571D01*
X115548002Y-132250952D01*
X87976286Y-131822380D02*
X88309620Y-132822380D01*
X88642953Y-131822380D01*
X89547715Y-132822380D02*
X89214381Y-132346190D01*
X88976286Y-132822380D02*
X88976286Y-131822380D01*
X89357239Y-131822380D01*
X89452477Y-131870000D01*
X89500096Y-131917619D01*
X89547715Y-132012857D01*
X89547715Y-132155714D01*
X89500096Y-132250952D01*
X89452477Y-132298571D01*
X89357239Y-132346190D01*
X88976286Y-132346190D01*
X89928667Y-131917619D02*
X89976286Y-131870000D01*
X90071524Y-131822380D01*
X90309620Y-131822380D01*
X90404858Y-131870000D01*
X90452477Y-131917619D01*
X90500096Y-132012857D01*
X90500096Y-132108095D01*
X90452477Y-132250952D01*
X89881048Y-132822380D01*
X90500096Y-132822380D01*
X90833429Y-131822380D02*
X91500096Y-131822380D01*
X91071524Y-132822380D01*
X63690286Y-131822380D02*
X64023620Y-132822380D01*
X64356953Y-131822380D01*
X65261715Y-132822380D02*
X64928381Y-132346190D01*
X64690286Y-132822380D02*
X64690286Y-131822380D01*
X65071239Y-131822380D01*
X65166477Y-131870000D01*
X65214096Y-131917619D01*
X65261715Y-132012857D01*
X65261715Y-132155714D01*
X65214096Y-132250952D01*
X65166477Y-132298571D01*
X65071239Y-132346190D01*
X64690286Y-132346190D01*
X65642667Y-131917619D02*
X65690286Y-131870000D01*
X65785524Y-131822380D01*
X66023620Y-131822380D01*
X66118858Y-131870000D01*
X66166477Y-131917619D01*
X66214096Y-132012857D01*
X66214096Y-132108095D01*
X66166477Y-132250952D01*
X65595048Y-132822380D01*
X66214096Y-132822380D01*
X67071239Y-131822380D02*
X66880762Y-131822380D01*
X66785524Y-131870000D01*
X66737905Y-131917619D01*
X66642667Y-132060476D01*
X66595048Y-132250952D01*
X66595048Y-132631904D01*
X66642667Y-132727142D01*
X66690286Y-132774761D01*
X66785524Y-132822380D01*
X66976001Y-132822380D01*
X67071239Y-132774761D01*
X67118858Y-132727142D01*
X67166477Y-132631904D01*
X67166477Y-132393809D01*
X67118858Y-132298571D01*
X67071239Y-132250952D01*
X66976001Y-132203333D01*
X66785524Y-132203333D01*
X66690286Y-132250952D01*
X66642667Y-132298571D01*
X66595048Y-132393809D01*
X209406286Y-107822379D02*
X209739620Y-108822379D01*
X210072953Y-107822379D01*
X210977715Y-108822379D02*
X210644381Y-108346189D01*
X210406286Y-108822379D02*
X210406286Y-107822379D01*
X210787239Y-107822379D01*
X210882477Y-107869999D01*
X210930096Y-107917618D01*
X210977715Y-108012856D01*
X210977715Y-108155713D01*
X210930096Y-108250951D01*
X210882477Y-108298570D01*
X210787239Y-108346189D01*
X210406286Y-108346189D01*
X211358667Y-107917618D02*
X211406286Y-107869999D01*
X211501524Y-107822379D01*
X211739620Y-107822379D01*
X211834858Y-107869999D01*
X211882477Y-107917618D01*
X211930096Y-108012856D01*
X211930096Y-108108094D01*
X211882477Y-108250951D01*
X211311048Y-108822379D01*
X211930096Y-108822379D01*
X212787239Y-108155713D02*
X212787239Y-108822379D01*
X212549143Y-107774760D02*
X212311048Y-108489046D01*
X212930096Y-108489046D01*
X185120286Y-107822379D02*
X185453620Y-108822379D01*
X185786953Y-107822379D01*
X186691715Y-108822379D02*
X186358381Y-108346189D01*
X186120286Y-108822379D02*
X186120286Y-107822379D01*
X186501239Y-107822379D01*
X186596477Y-107869999D01*
X186644096Y-107917618D01*
X186691715Y-108012856D01*
X186691715Y-108155713D01*
X186644096Y-108250951D01*
X186596477Y-108298570D01*
X186501239Y-108346189D01*
X186120286Y-108346189D01*
X187072667Y-107917618D02*
X187120286Y-107869999D01*
X187215524Y-107822379D01*
X187453620Y-107822379D01*
X187548858Y-107869999D01*
X187596477Y-107917618D01*
X187644096Y-108012856D01*
X187644096Y-108108094D01*
X187596477Y-108250951D01*
X187025048Y-108822379D01*
X187644096Y-108822379D01*
X187977429Y-107822379D02*
X188596477Y-107822379D01*
X188263143Y-108203332D01*
X188406001Y-108203332D01*
X188501239Y-108250951D01*
X188548858Y-108298570D01*
X188596477Y-108393808D01*
X188596477Y-108631903D01*
X188548858Y-108727141D01*
X188501239Y-108774760D01*
X188406001Y-108822379D01*
X188120286Y-108822379D01*
X188025048Y-108774760D01*
X187977429Y-108727141D01*
X160834286Y-107822379D02*
X161167620Y-108822379D01*
X161500953Y-107822379D01*
X162405715Y-108822379D02*
X162072381Y-108346189D01*
X161834286Y-108822379D02*
X161834286Y-107822379D01*
X162215239Y-107822379D01*
X162310477Y-107869999D01*
X162358096Y-107917618D01*
X162405715Y-108012856D01*
X162405715Y-108155713D01*
X162358096Y-108250951D01*
X162310477Y-108298570D01*
X162215239Y-108346189D01*
X161834286Y-108346189D01*
X162786667Y-107917618D02*
X162834286Y-107869999D01*
X162929524Y-107822379D01*
X163167620Y-107822379D01*
X163262858Y-107869999D01*
X163310477Y-107917618D01*
X163358096Y-108012856D01*
X163358096Y-108108094D01*
X163310477Y-108250951D01*
X162739048Y-108822379D01*
X163358096Y-108822379D01*
X163739048Y-107917618D02*
X163786667Y-107869999D01*
X163881905Y-107822379D01*
X164120001Y-107822379D01*
X164215239Y-107869999D01*
X164262858Y-107917618D01*
X164310477Y-108012856D01*
X164310477Y-108108094D01*
X164262858Y-108250951D01*
X163691429Y-108822379D01*
X164310477Y-108822379D01*
X136548286Y-107822379D02*
X136881620Y-108822379D01*
X137214953Y-107822379D01*
X138119715Y-108822379D02*
X137786381Y-108346189D01*
X137548286Y-108822379D02*
X137548286Y-107822379D01*
X137929239Y-107822379D01*
X138024477Y-107869999D01*
X138072096Y-107917618D01*
X138119715Y-108012856D01*
X138119715Y-108155713D01*
X138072096Y-108250951D01*
X138024477Y-108298570D01*
X137929239Y-108346189D01*
X137548286Y-108346189D01*
X138500667Y-107917618D02*
X138548286Y-107869999D01*
X138643524Y-107822379D01*
X138881620Y-107822379D01*
X138976858Y-107869999D01*
X139024477Y-107917618D01*
X139072096Y-108012856D01*
X139072096Y-108108094D01*
X139024477Y-108250951D01*
X138453048Y-108822379D01*
X139072096Y-108822379D01*
X140024477Y-108822379D02*
X139453048Y-108822379D01*
X139738762Y-108822379D02*
X139738762Y-107822379D01*
X139643524Y-107965237D01*
X139548286Y-108060475D01*
X139453048Y-108108094D01*
X112262287Y-107822379D02*
X112595621Y-108822379D01*
X112928954Y-107822379D01*
X113833716Y-108822379D02*
X113500382Y-108346189D01*
X113262287Y-108822379D02*
X113262287Y-107822379D01*
X113643240Y-107822379D01*
X113738478Y-107869999D01*
X113786097Y-107917618D01*
X113833716Y-108012856D01*
X113833716Y-108155713D01*
X113786097Y-108250951D01*
X113738478Y-108298570D01*
X113643240Y-108346189D01*
X113262287Y-108346189D01*
X114214668Y-107917618D02*
X114262287Y-107869999D01*
X114357525Y-107822379D01*
X114595621Y-107822379D01*
X114690859Y-107869999D01*
X114738478Y-107917618D01*
X114786097Y-108012856D01*
X114786097Y-108108094D01*
X114738478Y-108250951D01*
X114167049Y-108822379D01*
X114786097Y-108822379D01*
X115405144Y-107822379D02*
X115500382Y-107822379D01*
X115595621Y-107869999D01*
X115643240Y-107917618D01*
X115690859Y-108012856D01*
X115738478Y-108203332D01*
X115738478Y-108441427D01*
X115690859Y-108631903D01*
X115643240Y-108727141D01*
X115595621Y-108774760D01*
X115500382Y-108822379D01*
X115405144Y-108822379D01*
X115309906Y-108774760D01*
X115262287Y-108727141D01*
X115214668Y-108631903D01*
X115167049Y-108441427D01*
X115167049Y-108203332D01*
X115214668Y-108012856D01*
X115262287Y-107917618D01*
X115309906Y-107869999D01*
X115405144Y-107822379D01*
X87976286Y-107822379D02*
X88309620Y-108822379D01*
X88642953Y-107822379D01*
X89547715Y-108822379D02*
X89214381Y-108346189D01*
X88976286Y-108822379D02*
X88976286Y-107822379D01*
X89357239Y-107822379D01*
X89452477Y-107869999D01*
X89500096Y-107917618D01*
X89547715Y-108012856D01*
X89547715Y-108155713D01*
X89500096Y-108250951D01*
X89452477Y-108298570D01*
X89357239Y-108346189D01*
X88976286Y-108346189D01*
X90500096Y-108822379D02*
X89928667Y-108822379D01*
X90214381Y-108822379D02*
X90214381Y-107822379D01*
X90119143Y-107965237D01*
X90023905Y-108060475D01*
X89928667Y-108108094D01*
X90976286Y-108822379D02*
X91166762Y-108822379D01*
X91262001Y-108774760D01*
X91309620Y-108727141D01*
X91404858Y-108584284D01*
X91452477Y-108393808D01*
X91452477Y-108012856D01*
X91404858Y-107917618D01*
X91357239Y-107869999D01*
X91262001Y-107822379D01*
X91071524Y-107822379D01*
X90976286Y-107869999D01*
X90928667Y-107917618D01*
X90881048Y-108012856D01*
X90881048Y-108250951D01*
X90928667Y-108346189D01*
X90976286Y-108393808D01*
X91071524Y-108441427D01*
X91262001Y-108441427D01*
X91357239Y-108393808D01*
X91404858Y-108346189D01*
X91452477Y-108250951D01*
X63690286Y-107822379D02*
X64023620Y-108822379D01*
X64356953Y-107822379D01*
X65261715Y-108822379D02*
X64928381Y-108346189D01*
X64690286Y-108822379D02*
X64690286Y-107822379D01*
X65071239Y-107822379D01*
X65166477Y-107869999D01*
X65214096Y-107917618D01*
X65261715Y-108012856D01*
X65261715Y-108155713D01*
X65214096Y-108250951D01*
X65166477Y-108298570D01*
X65071239Y-108346189D01*
X64690286Y-108346189D01*
X66214096Y-108822379D02*
X65642667Y-108822379D01*
X65928381Y-108822379D02*
X65928381Y-107822379D01*
X65833143Y-107965237D01*
X65737905Y-108060475D01*
X65642667Y-108108094D01*
X66785524Y-108250951D02*
X66690286Y-108203332D01*
X66642667Y-108155713D01*
X66595048Y-108060475D01*
X66595048Y-108012856D01*
X66642667Y-107917618D01*
X66690286Y-107869999D01*
X66785524Y-107822379D01*
X66976001Y-107822379D01*
X67071239Y-107869999D01*
X67118858Y-107917618D01*
X67166477Y-108012856D01*
X67166477Y-108060475D01*
X67118858Y-108155713D01*
X67071239Y-108203332D01*
X66976001Y-108250951D01*
X66785524Y-108250951D01*
X66690286Y-108298570D01*
X66642667Y-108346189D01*
X66595048Y-108441427D01*
X66595048Y-108631903D01*
X66642667Y-108727141D01*
X66690286Y-108774760D01*
X66785524Y-108822379D01*
X66976001Y-108822379D01*
X67071239Y-108774760D01*
X67118858Y-108727141D01*
X67166477Y-108631903D01*
X67166477Y-108441427D01*
X67118858Y-108346189D01*
X67071239Y-108298570D01*
X66976001Y-108250951D01*
X39404286Y-107822379D02*
X39737620Y-108822379D01*
X40070953Y-107822379D01*
X40975715Y-108822379D02*
X40642381Y-108346189D01*
X40404286Y-108822379D02*
X40404286Y-107822379D01*
X40785239Y-107822379D01*
X40880477Y-107869999D01*
X40928096Y-107917618D01*
X40975715Y-108012856D01*
X40975715Y-108155713D01*
X40928096Y-108250951D01*
X40880477Y-108298570D01*
X40785239Y-108346189D01*
X40404286Y-108346189D01*
X41928096Y-108822379D02*
X41356667Y-108822379D01*
X41642381Y-108822379D02*
X41642381Y-107822379D01*
X41547143Y-107965237D01*
X41451905Y-108060475D01*
X41356667Y-108108094D01*
X42261429Y-107822379D02*
X42928096Y-107822379D01*
X42499524Y-108822379D01*
X209406286Y-83822379D02*
X209739620Y-84822379D01*
X210072953Y-83822379D01*
X210977715Y-84822379D02*
X210644381Y-84346189D01*
X210406286Y-84822379D02*
X210406286Y-83822379D01*
X210787239Y-83822379D01*
X210882477Y-83869999D01*
X210930096Y-83917618D01*
X210977715Y-84012856D01*
X210977715Y-84155713D01*
X210930096Y-84250951D01*
X210882477Y-84298570D01*
X210787239Y-84346189D01*
X210406286Y-84346189D01*
X211930096Y-84822379D02*
X211358667Y-84822379D01*
X211644381Y-84822379D02*
X211644381Y-83822379D01*
X211549143Y-83965237D01*
X211453905Y-84060475D01*
X211358667Y-84108094D01*
X212787239Y-83822379D02*
X212596762Y-83822379D01*
X212501524Y-83869999D01*
X212453905Y-83917618D01*
X212358667Y-84060475D01*
X212311048Y-84250951D01*
X212311048Y-84631903D01*
X212358667Y-84727141D01*
X212406286Y-84774760D01*
X212501524Y-84822379D01*
X212692001Y-84822379D01*
X212787239Y-84774760D01*
X212834858Y-84727141D01*
X212882477Y-84631903D01*
X212882477Y-84393808D01*
X212834858Y-84298570D01*
X212787239Y-84250951D01*
X212692001Y-84203332D01*
X212501524Y-84203332D01*
X212406286Y-84250951D01*
X212358667Y-84298570D01*
X212311048Y-84393808D01*
X185120286Y-83822379D02*
X185453620Y-84822379D01*
X185786953Y-83822379D01*
X186691715Y-84822379D02*
X186358381Y-84346189D01*
X186120286Y-84822379D02*
X186120286Y-83822379D01*
X186501239Y-83822379D01*
X186596477Y-83869999D01*
X186644096Y-83917618D01*
X186691715Y-84012856D01*
X186691715Y-84155713D01*
X186644096Y-84250951D01*
X186596477Y-84298570D01*
X186501239Y-84346189D01*
X186120286Y-84346189D01*
X187644096Y-84822379D02*
X187072667Y-84822379D01*
X187358381Y-84822379D02*
X187358381Y-83822379D01*
X187263143Y-83965237D01*
X187167905Y-84060475D01*
X187072667Y-84108094D01*
X188548858Y-83822379D02*
X188072667Y-83822379D01*
X188025048Y-84298570D01*
X188072667Y-84250951D01*
X188167905Y-84203332D01*
X188406001Y-84203332D01*
X188501239Y-84250951D01*
X188548858Y-84298570D01*
X188596477Y-84393808D01*
X188596477Y-84631903D01*
X188548858Y-84727141D01*
X188501239Y-84774760D01*
X188406001Y-84822379D01*
X188167905Y-84822379D01*
X188072667Y-84774760D01*
X188025048Y-84727141D01*
X160834286Y-83822379D02*
X161167620Y-84822379D01*
X161500953Y-83822379D01*
X162405715Y-84822379D02*
X162072381Y-84346189D01*
X161834286Y-84822379D02*
X161834286Y-83822379D01*
X162215239Y-83822379D01*
X162310477Y-83869999D01*
X162358096Y-83917618D01*
X162405715Y-84012856D01*
X162405715Y-84155713D01*
X162358096Y-84250951D01*
X162310477Y-84298570D01*
X162215239Y-84346189D01*
X161834286Y-84346189D01*
X163358096Y-84822379D02*
X162786667Y-84822379D01*
X163072381Y-84822379D02*
X163072381Y-83822379D01*
X162977143Y-83965237D01*
X162881905Y-84060475D01*
X162786667Y-84108094D01*
X164215239Y-84155713D02*
X164215239Y-84822379D01*
X163977143Y-83774760D02*
X163739048Y-84489046D01*
X164358096Y-84489046D01*
X136548286Y-83822379D02*
X136881620Y-84822379D01*
X137214953Y-83822379D01*
X138119715Y-84822379D02*
X137786381Y-84346189D01*
X137548286Y-84822379D02*
X137548286Y-83822379D01*
X137929239Y-83822379D01*
X138024477Y-83869999D01*
X138072096Y-83917618D01*
X138119715Y-84012856D01*
X138119715Y-84155713D01*
X138072096Y-84250951D01*
X138024477Y-84298570D01*
X137929239Y-84346189D01*
X137548286Y-84346189D01*
X139072096Y-84822379D02*
X138500667Y-84822379D01*
X138786381Y-84822379D02*
X138786381Y-83822379D01*
X138691143Y-83965237D01*
X138595905Y-84060475D01*
X138500667Y-84108094D01*
X139405429Y-83822379D02*
X140024477Y-83822379D01*
X139691143Y-84203332D01*
X139834001Y-84203332D01*
X139929239Y-84250951D01*
X139976858Y-84298570D01*
X140024477Y-84393808D01*
X140024477Y-84631903D01*
X139976858Y-84727141D01*
X139929239Y-84774760D01*
X139834001Y-84822379D01*
X139548286Y-84822379D01*
X139453048Y-84774760D01*
X139405429Y-84727141D01*
X112262287Y-83822379D02*
X112595621Y-84822379D01*
X112928954Y-83822379D01*
X113833716Y-84822379D02*
X113500382Y-84346189D01*
X113262287Y-84822379D02*
X113262287Y-83822379D01*
X113643240Y-83822379D01*
X113738478Y-83869999D01*
X113786097Y-83917618D01*
X113833716Y-84012856D01*
X113833716Y-84155713D01*
X113786097Y-84250951D01*
X113738478Y-84298570D01*
X113643240Y-84346189D01*
X113262287Y-84346189D01*
X114786097Y-84822379D02*
X114214668Y-84822379D01*
X114500382Y-84822379D02*
X114500382Y-83822379D01*
X114405144Y-83965237D01*
X114309906Y-84060475D01*
X114214668Y-84108094D01*
X115167049Y-83917618D02*
X115214668Y-83869999D01*
X115309906Y-83822379D01*
X115548002Y-83822379D01*
X115643240Y-83869999D01*
X115690859Y-83917618D01*
X115738478Y-84012856D01*
X115738478Y-84108094D01*
X115690859Y-84250951D01*
X115119430Y-84822379D01*
X115738478Y-84822379D01*
X87976286Y-83822379D02*
X88309620Y-84822379D01*
X88642953Y-83822379D01*
X89547715Y-84822379D02*
X89214381Y-84346189D01*
X88976286Y-84822379D02*
X88976286Y-83822379D01*
X89357239Y-83822379D01*
X89452477Y-83869999D01*
X89500096Y-83917618D01*
X89547715Y-84012856D01*
X89547715Y-84155713D01*
X89500096Y-84250951D01*
X89452477Y-84298570D01*
X89357239Y-84346189D01*
X88976286Y-84346189D01*
X90500096Y-84822379D02*
X89928667Y-84822379D01*
X90214381Y-84822379D02*
X90214381Y-83822379D01*
X90119143Y-83965237D01*
X90023905Y-84060475D01*
X89928667Y-84108094D01*
X91452477Y-84822379D02*
X90881048Y-84822379D01*
X91166762Y-84822379D02*
X91166762Y-83822379D01*
X91071524Y-83965237D01*
X90976286Y-84060475D01*
X90881048Y-84108094D01*
X63690286Y-83822379D02*
X64023620Y-84822379D01*
X64356953Y-83822379D01*
X65261715Y-84822379D02*
X64928381Y-84346189D01*
X64690286Y-84822379D02*
X64690286Y-83822379D01*
X65071239Y-83822379D01*
X65166477Y-83869999D01*
X65214096Y-83917618D01*
X65261715Y-84012856D01*
X65261715Y-84155713D01*
X65214096Y-84250951D01*
X65166477Y-84298570D01*
X65071239Y-84346189D01*
X64690286Y-84346189D01*
X66214096Y-84822379D02*
X65642667Y-84822379D01*
X65928381Y-84822379D02*
X65928381Y-83822379D01*
X65833143Y-83965237D01*
X65737905Y-84060475D01*
X65642667Y-84108094D01*
X66833143Y-83822379D02*
X66928381Y-83822379D01*
X67023620Y-83869999D01*
X67071239Y-83917618D01*
X67118858Y-84012856D01*
X67166477Y-84203332D01*
X67166477Y-84441427D01*
X67118858Y-84631903D01*
X67071239Y-84727141D01*
X67023620Y-84774760D01*
X66928381Y-84822379D01*
X66833143Y-84822379D01*
X66737905Y-84774760D01*
X66690286Y-84727141D01*
X66642667Y-84631903D01*
X66595048Y-84441427D01*
X66595048Y-84203332D01*
X66642667Y-84012856D01*
X66690286Y-83917618D01*
X66737905Y-83869999D01*
X66833143Y-83822379D01*
X39880477Y-83822379D02*
X40213810Y-84822379D01*
X40547143Y-83822379D01*
X41451905Y-84822379D02*
X41118572Y-84346189D01*
X40880477Y-84822379D02*
X40880477Y-83822379D01*
X41261429Y-83822379D01*
X41356667Y-83869999D01*
X41404286Y-83917618D01*
X41451905Y-84012856D01*
X41451905Y-84155713D01*
X41404286Y-84250951D01*
X41356667Y-84298570D01*
X41261429Y-84346189D01*
X40880477Y-84346189D01*
X41928096Y-84822379D02*
X42118572Y-84822379D01*
X42213810Y-84774760D01*
X42261429Y-84727141D01*
X42356667Y-84584284D01*
X42404286Y-84393808D01*
X42404286Y-84012856D01*
X42356667Y-83917618D01*
X42309048Y-83869999D01*
X42213810Y-83822379D01*
X42023334Y-83822379D01*
X41928096Y-83869999D01*
X41880477Y-83917618D01*
X41832858Y-84012856D01*
X41832858Y-84250951D01*
X41880477Y-84346189D01*
X41928096Y-84393808D01*
X42023334Y-84441427D01*
X42213810Y-84441427D01*
X42309048Y-84393808D01*
X42356667Y-84346189D01*
X42404286Y-84250951D01*
X209882477Y-59822380D02*
X210215810Y-60822380D01*
X210549143Y-59822380D01*
X211453905Y-60822380D02*
X211120572Y-60346190D01*
X210882477Y-60822380D02*
X210882477Y-59822380D01*
X211263429Y-59822380D01*
X211358667Y-59870000D01*
X211406286Y-59917619D01*
X211453905Y-60012857D01*
X211453905Y-60155714D01*
X211406286Y-60250952D01*
X211358667Y-60298571D01*
X211263429Y-60346190D01*
X210882477Y-60346190D01*
X212025334Y-60250952D02*
X211930096Y-60203333D01*
X211882477Y-60155714D01*
X211834858Y-60060476D01*
X211834858Y-60012857D01*
X211882477Y-59917619D01*
X211930096Y-59870000D01*
X212025334Y-59822380D01*
X212215810Y-59822380D01*
X212311048Y-59870000D01*
X212358667Y-59917619D01*
X212406286Y-60012857D01*
X212406286Y-60060476D01*
X212358667Y-60155714D01*
X212311048Y-60203333D01*
X212215810Y-60250952D01*
X212025334Y-60250952D01*
X211930096Y-60298571D01*
X211882477Y-60346190D01*
X211834858Y-60441428D01*
X211834858Y-60631904D01*
X211882477Y-60727142D01*
X211930096Y-60774761D01*
X212025334Y-60822380D01*
X212215810Y-60822380D01*
X212311048Y-60774761D01*
X212358667Y-60727142D01*
X212406286Y-60631904D01*
X212406286Y-60441428D01*
X212358667Y-60346190D01*
X212311048Y-60298571D01*
X212215810Y-60250952D01*
X185596477Y-59822380D02*
X185929810Y-60822380D01*
X186263143Y-59822380D01*
X187167905Y-60822380D02*
X186834572Y-60346190D01*
X186596477Y-60822380D02*
X186596477Y-59822380D01*
X186977429Y-59822380D01*
X187072667Y-59870000D01*
X187120286Y-59917619D01*
X187167905Y-60012857D01*
X187167905Y-60155714D01*
X187120286Y-60250952D01*
X187072667Y-60298571D01*
X186977429Y-60346190D01*
X186596477Y-60346190D01*
X187501239Y-59822380D02*
X188167905Y-59822380D01*
X187739334Y-60822380D01*
X161310477Y-59822380D02*
X161643810Y-60822380D01*
X161977143Y-59822380D01*
X162881905Y-60822380D02*
X162548572Y-60346190D01*
X162310477Y-60822380D02*
X162310477Y-59822380D01*
X162691429Y-59822380D01*
X162786667Y-59870000D01*
X162834286Y-59917619D01*
X162881905Y-60012857D01*
X162881905Y-60155714D01*
X162834286Y-60250952D01*
X162786667Y-60298571D01*
X162691429Y-60346190D01*
X162310477Y-60346190D01*
X163739048Y-59822380D02*
X163548572Y-59822380D01*
X163453334Y-59870000D01*
X163405715Y-59917619D01*
X163310477Y-60060476D01*
X163262858Y-60250952D01*
X163262858Y-60631904D01*
X163310477Y-60727142D01*
X163358096Y-60774761D01*
X163453334Y-60822380D01*
X163643810Y-60822380D01*
X163739048Y-60774761D01*
X163786667Y-60727142D01*
X163834286Y-60631904D01*
X163834286Y-60393809D01*
X163786667Y-60298571D01*
X163739048Y-60250952D01*
X163643810Y-60203333D01*
X163453334Y-60203333D01*
X163358096Y-60250952D01*
X163310477Y-60298571D01*
X163262858Y-60393809D01*
X137024477Y-59822380D02*
X137357810Y-60822380D01*
X137691143Y-59822380D01*
X138595905Y-60822380D02*
X138262572Y-60346190D01*
X138024477Y-60822380D02*
X138024477Y-59822380D01*
X138405429Y-59822380D01*
X138500667Y-59870000D01*
X138548286Y-59917619D01*
X138595905Y-60012857D01*
X138595905Y-60155714D01*
X138548286Y-60250952D01*
X138500667Y-60298571D01*
X138405429Y-60346190D01*
X138024477Y-60346190D01*
X139500667Y-59822380D02*
X139024477Y-59822380D01*
X138976858Y-60298571D01*
X139024477Y-60250952D01*
X139119715Y-60203333D01*
X139357810Y-60203333D01*
X139453048Y-60250952D01*
X139500667Y-60298571D01*
X139548286Y-60393809D01*
X139548286Y-60631904D01*
X139500667Y-60727142D01*
X139453048Y-60774761D01*
X139357810Y-60822380D01*
X139119715Y-60822380D01*
X139024477Y-60774761D01*
X138976858Y-60727142D01*
X112738478Y-59822380D02*
X113071811Y-60822380D01*
X113405144Y-59822380D01*
X114309906Y-60822380D02*
X113976573Y-60346190D01*
X113738478Y-60822380D02*
X113738478Y-59822380D01*
X114119430Y-59822380D01*
X114214668Y-59870000D01*
X114262287Y-59917619D01*
X114309906Y-60012857D01*
X114309906Y-60155714D01*
X114262287Y-60250952D01*
X114214668Y-60298571D01*
X114119430Y-60346190D01*
X113738478Y-60346190D01*
X115167049Y-60155714D02*
X115167049Y-60822380D01*
X114928954Y-59774761D02*
X114690859Y-60489047D01*
X115309906Y-60489047D01*
X64166477Y-59822380D02*
X64499810Y-60822380D01*
X64833143Y-59822380D01*
X65737905Y-60822380D02*
X65404572Y-60346190D01*
X65166477Y-60822380D02*
X65166477Y-59822380D01*
X65547429Y-59822380D01*
X65642667Y-59870000D01*
X65690286Y-59917619D01*
X65737905Y-60012857D01*
X65737905Y-60155714D01*
X65690286Y-60250952D01*
X65642667Y-60298571D01*
X65547429Y-60346190D01*
X65166477Y-60346190D01*
X66118858Y-59917619D02*
X66166477Y-59870000D01*
X66261715Y-59822380D01*
X66499810Y-59822380D01*
X66595048Y-59870000D01*
X66642667Y-59917619D01*
X66690286Y-60012857D01*
X66690286Y-60108095D01*
X66642667Y-60250952D01*
X66071239Y-60822380D01*
X66690286Y-60822380D01*
X88452477Y-59822380D02*
X88785810Y-60822380D01*
X89119143Y-59822380D01*
X90023905Y-60822380D02*
X89690572Y-60346190D01*
X89452477Y-60822380D02*
X89452477Y-59822380D01*
X89833429Y-59822380D01*
X89928667Y-59870000D01*
X89976286Y-59917619D01*
X90023905Y-60012857D01*
X90023905Y-60155714D01*
X89976286Y-60250952D01*
X89928667Y-60298571D01*
X89833429Y-60346190D01*
X89452477Y-60346190D01*
X90357239Y-59822380D02*
X90976286Y-59822380D01*
X90642953Y-60203333D01*
X90785810Y-60203333D01*
X90881048Y-60250952D01*
X90928667Y-60298571D01*
X90976286Y-60393809D01*
X90976286Y-60631904D01*
X90928667Y-60727142D01*
X90881048Y-60774761D01*
X90785810Y-60822380D01*
X90500096Y-60822380D01*
X90404858Y-60774761D01*
X90357239Y-60727142D01*
X39404286Y-131822380D02*
X39737620Y-132822380D01*
X40070953Y-131822380D01*
X40975715Y-132822380D02*
X40642381Y-132346190D01*
X40404286Y-132822380D02*
X40404286Y-131822380D01*
X40785239Y-131822380D01*
X40880477Y-131870000D01*
X40928096Y-131917619D01*
X40975715Y-132012857D01*
X40975715Y-132155714D01*
X40928096Y-132250952D01*
X40880477Y-132298571D01*
X40785239Y-132346190D01*
X40404286Y-132346190D01*
X41356667Y-131917619D02*
X41404286Y-131870000D01*
X41499524Y-131822380D01*
X41737620Y-131822380D01*
X41832858Y-131870000D01*
X41880477Y-131917619D01*
X41928096Y-132012857D01*
X41928096Y-132108095D01*
X41880477Y-132250952D01*
X41309048Y-132822380D01*
X41928096Y-132822380D01*
X42832858Y-131822380D02*
X42356667Y-131822380D01*
X42309048Y-132298571D01*
X42356667Y-132250952D01*
X42451905Y-132203333D01*
X42690001Y-132203333D01*
X42785239Y-132250952D01*
X42832858Y-132298571D01*
X42880477Y-132393809D01*
X42880477Y-132631904D01*
X42832858Y-132727142D01*
X42785239Y-132774761D01*
X42690001Y-132822380D01*
X42451905Y-132822380D01*
X42356667Y-132774761D01*
X42309048Y-132727142D01*
X39880477Y-59822380D02*
X40213810Y-60822380D01*
X40547143Y-59822380D01*
X41451905Y-60822380D02*
X41118572Y-60346190D01*
X40880477Y-60822380D02*
X40880477Y-59822380D01*
X41261429Y-59822380D01*
X41356667Y-59870000D01*
X41404286Y-59917619D01*
X41451905Y-60012857D01*
X41451905Y-60155714D01*
X41404286Y-60250952D01*
X41356667Y-60298571D01*
X41261429Y-60346190D01*
X40880477Y-60346190D01*
X42404286Y-60822380D02*
X41832858Y-60822380D01*
X42118572Y-60822380D02*
X42118572Y-59822380D01*
X42023334Y-59965238D01*
X41928096Y-60060476D01*
X41832858Y-60108095D01*
D19*
X150120666Y-34415333D02*
X150120666Y-33015333D01*
X150587333Y-34015333D01*
X151054000Y-33015333D01*
X151054000Y-34415333D01*
X151720666Y-33015333D02*
X151720666Y-34148666D01*
X151787333Y-34282000D01*
X151854000Y-34348666D01*
X151987333Y-34415333D01*
X152254000Y-34415333D01*
X152387333Y-34348666D01*
X152454000Y-34282000D01*
X152520666Y-34148666D01*
X152520666Y-33015333D01*
X153054000Y-33015333D02*
X153987333Y-34415333D01*
X153987333Y-33015333D02*
X153054000Y-34415333D01*
X154454000Y-33148666D02*
X154520666Y-33082000D01*
X154654000Y-33015333D01*
X154987333Y-33015333D01*
X155120666Y-33082000D01*
X155187333Y-33148666D01*
X155254000Y-33282000D01*
X155254000Y-33415333D01*
X155187333Y-33615333D01*
X154387333Y-34415333D01*
X155254000Y-34415333D01*
X106432666Y-34415333D02*
X106432666Y-33015333D01*
X106899333Y-34015333D01*
X107366000Y-33015333D01*
X107366000Y-34415333D01*
X108032666Y-33015333D02*
X108032666Y-34148666D01*
X108099333Y-34282000D01*
X108166000Y-34348666D01*
X108299333Y-34415333D01*
X108566000Y-34415333D01*
X108699333Y-34348666D01*
X108766000Y-34282000D01*
X108832666Y-34148666D01*
X108832666Y-33015333D01*
X109366000Y-33015333D02*
X110299333Y-34415333D01*
X110299333Y-33015333D02*
X109366000Y-34415333D01*
X111566000Y-34415333D02*
X110766000Y-34415333D01*
X111166000Y-34415333D02*
X111166000Y-33015333D01*
X111032666Y-33215333D01*
X110899333Y-33348666D01*
X110766000Y-33415333D01*
D11*
X182272380Y-29051047D02*
X181272380Y-29051047D01*
X181272380Y-28812952D01*
X181320000Y-28670095D01*
X181415238Y-28574857D01*
X181510476Y-28527238D01*
X181700952Y-28479619D01*
X181843809Y-28479619D01*
X182034285Y-28527238D01*
X182129523Y-28574857D01*
X182224761Y-28670095D01*
X182272380Y-28812952D01*
X182272380Y-29051047D01*
X181748571Y-28051047D02*
X181748571Y-27717714D01*
X182272380Y-27574857D02*
X182272380Y-28051047D01*
X181272380Y-28051047D01*
X181272380Y-27574857D01*
X181272380Y-27289142D02*
X182272380Y-26955809D01*
X181272380Y-26622476D01*
X182272380Y-25765333D02*
X182272380Y-26336761D01*
X182272380Y-26051047D02*
X181272380Y-26051047D01*
X181415238Y-26146285D01*
X181510476Y-26241523D01*
X181558095Y-26336761D01*
D14*
X76033333Y-46331142D02*
X75985714Y-46378761D01*
X75842857Y-46426380D01*
X75747619Y-46426380D01*
X75604761Y-46378761D01*
X75509523Y-46283523D01*
X75461904Y-46188285D01*
X75414285Y-45997809D01*
X75414285Y-45854952D01*
X75461904Y-45664476D01*
X75509523Y-45569238D01*
X75604761Y-45474000D01*
X75747619Y-45426380D01*
X75842857Y-45426380D01*
X75985714Y-45474000D01*
X76033333Y-45521619D01*
X76414285Y-45521619D02*
X76461904Y-45474000D01*
X76557142Y-45426380D01*
X76795238Y-45426380D01*
X76890476Y-45474000D01*
X76938095Y-45521619D01*
X76985714Y-45616857D01*
X76985714Y-45712095D01*
X76938095Y-45854952D01*
X76366666Y-46426380D01*
X76985714Y-46426380D01*
X99147333Y-46331142D02*
X99099714Y-46378761D01*
X98956857Y-46426380D01*
X98861619Y-46426380D01*
X98718761Y-46378761D01*
X98623523Y-46283523D01*
X98575904Y-46188285D01*
X98528285Y-45997809D01*
X98528285Y-45854952D01*
X98575904Y-45664476D01*
X98623523Y-45569238D01*
X98718761Y-45474000D01*
X98861619Y-45426380D01*
X98956857Y-45426380D01*
X99099714Y-45474000D01*
X99147333Y-45521619D01*
X100099714Y-46426380D02*
X99528285Y-46426380D01*
X99814000Y-46426380D02*
X99814000Y-45426380D01*
X99718761Y-45569238D01*
X99623523Y-45664476D01*
X99528285Y-45712095D01*
D11*
X40579428Y-37344380D02*
X40579428Y-36344380D01*
X40817523Y-36344380D01*
X40960380Y-36392000D01*
X41055619Y-36487238D01*
X41103238Y-36582476D01*
X41150857Y-36772952D01*
X41150857Y-36915809D01*
X41103238Y-37106285D01*
X41055619Y-37201523D01*
X40960380Y-37296761D01*
X40817523Y-37344380D01*
X40579428Y-37344380D01*
X41579428Y-37344380D02*
X41579428Y-36677714D01*
X41579428Y-36344380D02*
X41531809Y-36392000D01*
X41579428Y-36439619D01*
X41627047Y-36392000D01*
X41579428Y-36344380D01*
X41579428Y-36439619D01*
X42008000Y-37296761D02*
X42103238Y-37344380D01*
X42293714Y-37344380D01*
X42388952Y-37296761D01*
X42436571Y-37201523D01*
X42436571Y-37153904D01*
X42388952Y-37058666D01*
X42293714Y-37011047D01*
X42150857Y-37011047D01*
X42055619Y-36963428D01*
X42008000Y-36868190D01*
X42008000Y-36820571D01*
X42055619Y-36725333D01*
X42150857Y-36677714D01*
X42293714Y-36677714D01*
X42388952Y-36725333D01*
X42865142Y-36677714D02*
X42865142Y-37677714D01*
X42865142Y-36725333D02*
X42960380Y-36677714D01*
X43150857Y-36677714D01*
X43246095Y-36725333D01*
X43293714Y-36772952D01*
X43341333Y-36868190D01*
X43341333Y-37153904D01*
X43293714Y-37249142D01*
X43246095Y-37296761D01*
X43150857Y-37344380D01*
X42960380Y-37344380D01*
X42865142Y-37296761D01*
X43912761Y-37344380D02*
X43817523Y-37296761D01*
X43769904Y-37201523D01*
X43769904Y-36344380D01*
X44722285Y-37344380D02*
X44722285Y-36820571D01*
X44674666Y-36725333D01*
X44579428Y-36677714D01*
X44388952Y-36677714D01*
X44293714Y-36725333D01*
X44722285Y-37296761D02*
X44627047Y-37344380D01*
X44388952Y-37344380D01*
X44293714Y-37296761D01*
X44246095Y-37201523D01*
X44246095Y-37106285D01*
X44293714Y-37011047D01*
X44388952Y-36963428D01*
X44627047Y-36963428D01*
X44722285Y-36915809D01*
X45103238Y-36677714D02*
X45341333Y-37344380D01*
X45579428Y-36677714D02*
X45341333Y-37344380D01*
X45246095Y-37582476D01*
X45198476Y-37630095D01*
X45103238Y-37677714D01*
X46484190Y-37344380D02*
X45912761Y-37344380D01*
X46198476Y-37344380D02*
X46198476Y-36344380D01*
X46103238Y-36487238D01*
X46008000Y-36582476D01*
X45912761Y-36630095D01*
X201498532Y-111441230D02*
X200791425Y-110734124D01*
X200959784Y-110565765D01*
X201094471Y-110498421D01*
X201229158Y-110498421D01*
X201330173Y-110532093D01*
X201498532Y-110633108D01*
X201599547Y-110734124D01*
X201700563Y-110902482D01*
X201734234Y-111003498D01*
X201734234Y-111138185D01*
X201666891Y-111272872D01*
X201498532Y-111441230D01*
X202576028Y-110363734D02*
X202171967Y-110767795D01*
X202373998Y-110565765D02*
X201666891Y-109858658D01*
X201700563Y-110027017D01*
X201700563Y-110161704D01*
X201666891Y-110262719D01*
X200406095Y-119340380D02*
X200406095Y-120149904D01*
X200453714Y-120245142D01*
X200501333Y-120292761D01*
X200596571Y-120340380D01*
X200787047Y-120340380D01*
X200882285Y-120292761D01*
X200929904Y-120245142D01*
X200977523Y-120149904D01*
X200977523Y-119340380D01*
X201977523Y-120340380D02*
X201406095Y-120340380D01*
X201691809Y-120340380D02*
X201691809Y-119340380D01*
X201596571Y-119483238D01*
X201501333Y-119578476D01*
X201406095Y-119626095D01*
D14*
X200100031Y-74605732D02*
X199527611Y-74504717D01*
X199695970Y-75009793D02*
X198988863Y-74302687D01*
X199258237Y-74033312D01*
X199359252Y-73999641D01*
X199426596Y-73999641D01*
X199527611Y-74033312D01*
X199628626Y-74134328D01*
X199662298Y-74235343D01*
X199662298Y-74302687D01*
X199628626Y-74403702D01*
X199359252Y-74673076D01*
X199729642Y-73696595D02*
X199729642Y-73629251D01*
X199763313Y-73528236D01*
X199931672Y-73359877D01*
X200032688Y-73326206D01*
X200100031Y-73326206D01*
X200201046Y-73359877D01*
X200268390Y-73427221D01*
X200335733Y-73561908D01*
X200335733Y-74370030D01*
X200773466Y-73932297D01*
X203148030Y-77653732D02*
X202575610Y-77552717D01*
X202743969Y-78057793D02*
X202036862Y-77350687D01*
X202306236Y-77081312D01*
X202407251Y-77047641D01*
X202474595Y-77047641D01*
X202575610Y-77081312D01*
X202676625Y-77182328D01*
X202710297Y-77283343D01*
X202710297Y-77350687D01*
X202676625Y-77451702D01*
X202407251Y-77721076D01*
X203821465Y-76980297D02*
X203417404Y-77384358D01*
X203619435Y-77182328D02*
X202912328Y-76475221D01*
X202946000Y-76643580D01*
X202946000Y-76778267D01*
X202912328Y-76879282D01*
X87955142Y-44902380D02*
X87621809Y-44426190D01*
X87383714Y-44902380D02*
X87383714Y-43902380D01*
X87764666Y-43902380D01*
X87859904Y-43950000D01*
X87907523Y-43997619D01*
X87955142Y-44092857D01*
X87955142Y-44235714D01*
X87907523Y-44330952D01*
X87859904Y-44378571D01*
X87764666Y-44426190D01*
X87383714Y-44426190D01*
X88907523Y-44902380D02*
X88336095Y-44902380D01*
X88621809Y-44902380D02*
X88621809Y-43902380D01*
X88526571Y-44045238D01*
X88431333Y-44140476D01*
X88336095Y-44188095D01*
X89526571Y-43902380D02*
X89621809Y-43902380D01*
X89717047Y-43950000D01*
X89764666Y-43997619D01*
X89812285Y-44092857D01*
X89859904Y-44283333D01*
X89859904Y-44521428D01*
X89812285Y-44711904D01*
X89764666Y-44807142D01*
X89717047Y-44854761D01*
X89621809Y-44902380D01*
X89526571Y-44902380D01*
X89431333Y-44854761D01*
X89383714Y-44807142D01*
X89336095Y-44711904D01*
X89288476Y-44521428D01*
X89288476Y-44283333D01*
X89336095Y-44092857D01*
X89383714Y-43997619D01*
X89431333Y-43950000D01*
X89526571Y-43902380D01*
X203148030Y-101275732D02*
X202575610Y-101174717D01*
X202743969Y-101679793D02*
X202036862Y-100972687D01*
X202306236Y-100703312D01*
X202407251Y-100669641D01*
X202474595Y-100669641D01*
X202575610Y-100703312D01*
X202676625Y-100804328D01*
X202710297Y-100905343D01*
X202710297Y-100972687D01*
X202676625Y-101073702D01*
X202407251Y-101343076D01*
X202676625Y-100332923D02*
X203114358Y-99895190D01*
X203148030Y-100400267D01*
X203249045Y-100299251D01*
X203350061Y-100265580D01*
X203417404Y-100265580D01*
X203518419Y-100299251D01*
X203686778Y-100467610D01*
X203720450Y-100568625D01*
X203720450Y-100635969D01*
X203686778Y-100736984D01*
X203484748Y-100939015D01*
X203383732Y-100972687D01*
X203316389Y-100972687D01*
X201370030Y-138105732D02*
X200797610Y-138004717D01*
X200965969Y-138509793D02*
X200258862Y-137802687D01*
X200528236Y-137533312D01*
X200629251Y-137499641D01*
X200696595Y-137499641D01*
X200797610Y-137533312D01*
X200898625Y-137634328D01*
X200932297Y-137735343D01*
X200932297Y-137802687D01*
X200898625Y-137903702D01*
X200629251Y-138173076D01*
X201504717Y-137028236D02*
X201976122Y-137499641D01*
X201066984Y-136927221D02*
X201403702Y-137600656D01*
X201841435Y-137162923D01*
X200100030Y-97719732D02*
X199527610Y-97618717D01*
X199695969Y-98123793D02*
X198988862Y-97416687D01*
X199258236Y-97147312D01*
X199359251Y-97113641D01*
X199426595Y-97113641D01*
X199527610Y-97147312D01*
X199628625Y-97248328D01*
X199662297Y-97349343D01*
X199662297Y-97416687D01*
X199628625Y-97517702D01*
X199359251Y-97787076D01*
X200032687Y-96372862D02*
X199695969Y-96709580D01*
X199999015Y-97079969D01*
X199999015Y-97012625D01*
X200032687Y-96911610D01*
X200201045Y-96743251D01*
X200302061Y-96709580D01*
X200369404Y-96709580D01*
X200470419Y-96743251D01*
X200638778Y-96911610D01*
X200672450Y-97012625D01*
X200672450Y-97079969D01*
X200638778Y-97180984D01*
X200470419Y-97349343D01*
X200369404Y-97383015D01*
X200302061Y-97383015D01*
D11*
X220884666Y-74890380D02*
X220884666Y-75604666D01*
X220837047Y-75747523D01*
X220741809Y-75842761D01*
X220598952Y-75890380D01*
X220503714Y-75890380D01*
X221884666Y-75890380D02*
X221313238Y-75890380D01*
X221598952Y-75890380D02*
X221598952Y-74890380D01*
X221503714Y-75033238D01*
X221408476Y-75128476D01*
X221313238Y-75176095D01*
D14*
X77280019Y-35685942D02*
X77280019Y-34284596D01*
X78748096Y-35552480D02*
X78681365Y-35619211D01*
X78481173Y-35685942D01*
X78347711Y-35685942D01*
X78147519Y-35619211D01*
X78014057Y-35485749D01*
X77947327Y-35352288D01*
X77880596Y-35085365D01*
X77880596Y-34885173D01*
X77947327Y-34618250D01*
X78014057Y-34484788D01*
X78147519Y-34351327D01*
X78347711Y-34284596D01*
X78481173Y-34284596D01*
X78681365Y-34351327D01*
X78748096Y-34418057D01*
X80082711Y-35685942D02*
X79281942Y-35685942D01*
X79682326Y-35685942D02*
X79682326Y-34284596D01*
X79548865Y-34484788D01*
X79415403Y-34618250D01*
X79281942Y-34684980D01*
X66689151Y-42121182D02*
X66776237Y-42150211D01*
X66921380Y-42150211D01*
X66979437Y-42121182D01*
X67008465Y-42092154D01*
X67037494Y-42034097D01*
X67037494Y-41976040D01*
X67008465Y-41917982D01*
X66979437Y-41888954D01*
X66921380Y-41859925D01*
X66805265Y-41830897D01*
X66747208Y-41801868D01*
X66718180Y-41772840D01*
X66689151Y-41714782D01*
X66689151Y-41656725D01*
X66718180Y-41598668D01*
X66747208Y-41569640D01*
X66805265Y-41540611D01*
X66950408Y-41540611D01*
X67037494Y-41569640D01*
X67240694Y-41540611D02*
X67385837Y-42150211D01*
X67501951Y-41714782D01*
X67618065Y-42150211D01*
X67763208Y-41540611D01*
X67908351Y-41540611D02*
X68256694Y-41540611D01*
X68082522Y-42150211D02*
X68082522Y-41540611D01*
X68779208Y-42150211D02*
X68430865Y-42150211D01*
X68605037Y-42150211D02*
X68605037Y-41540611D01*
X68546980Y-41627697D01*
X68488922Y-41685754D01*
X68430865Y-41714782D01*
X66686611Y-32497122D02*
X66773697Y-32526151D01*
X66918840Y-32526151D01*
X66976897Y-32497122D01*
X67005925Y-32468094D01*
X67034954Y-32410037D01*
X67034954Y-32351980D01*
X67005925Y-32293922D01*
X66976897Y-32264894D01*
X66918840Y-32235865D01*
X66802725Y-32206837D01*
X66744668Y-32177808D01*
X66715640Y-32148780D01*
X66686611Y-32090722D01*
X66686611Y-32032665D01*
X66715640Y-31974608D01*
X66744668Y-31945580D01*
X66802725Y-31916551D01*
X66947868Y-31916551D01*
X67034954Y-31945580D01*
X67238154Y-31916551D02*
X67383297Y-32526151D01*
X67499411Y-32090722D01*
X67615525Y-32526151D01*
X67760668Y-31916551D01*
X67905811Y-31916551D02*
X68254154Y-31916551D01*
X68079982Y-32526151D02*
X68079982Y-31916551D01*
X68428325Y-31974608D02*
X68457354Y-31945580D01*
X68515411Y-31916551D01*
X68660554Y-31916551D01*
X68718611Y-31945580D01*
X68747640Y-31974608D01*
X68776668Y-32032665D01*
X68776668Y-32090722D01*
X68747640Y-32177808D01*
X68399297Y-32526151D01*
X68776668Y-32526151D01*
D11*
X220884666Y-99020380D02*
X220884666Y-99734666D01*
X220837047Y-99877523D01*
X220741809Y-99972761D01*
X220598952Y-100020380D01*
X220503714Y-100020380D01*
X221313238Y-99115619D02*
X221360857Y-99068000D01*
X221456095Y-99020380D01*
X221694190Y-99020380D01*
X221789428Y-99068000D01*
X221837047Y-99115619D01*
X221884666Y-99210857D01*
X221884666Y-99306095D01*
X221837047Y-99448952D01*
X221265619Y-100020380D01*
X221884666Y-100020380D01*
D14*
X199611342Y-57997271D02*
X199408142Y-57706985D01*
X199263000Y-57997271D02*
X199263000Y-57387671D01*
X199495228Y-57387671D01*
X199553285Y-57416700D01*
X199582314Y-57445728D01*
X199611342Y-57503785D01*
X199611342Y-57590871D01*
X199582314Y-57648928D01*
X199553285Y-57677957D01*
X199495228Y-57706985D01*
X199263000Y-57706985D01*
X199872600Y-57677957D02*
X200075800Y-57677957D01*
X200162885Y-57997271D02*
X199872600Y-57997271D01*
X199872600Y-57387671D01*
X200162885Y-57387671D01*
X200395114Y-57968242D02*
X200482200Y-57997271D01*
X200627342Y-57997271D01*
X200685400Y-57968242D01*
X200714428Y-57939214D01*
X200743457Y-57881157D01*
X200743457Y-57823100D01*
X200714428Y-57765042D01*
X200685400Y-57736014D01*
X200627342Y-57706985D01*
X200511228Y-57677957D01*
X200453171Y-57648928D01*
X200424142Y-57619900D01*
X200395114Y-57561842D01*
X200395114Y-57503785D01*
X200424142Y-57445728D01*
X200453171Y-57416700D01*
X200511228Y-57387671D01*
X200656371Y-57387671D01*
X200743457Y-57416700D01*
X201004714Y-57677957D02*
X201207914Y-57677957D01*
X201295000Y-57997271D02*
X201004714Y-57997271D01*
X201004714Y-57387671D01*
X201295000Y-57387671D01*
X201469171Y-57387671D02*
X201817514Y-57387671D01*
X201643342Y-57997271D02*
X201643342Y-57387671D01*
X202340028Y-57997271D02*
X201991685Y-57997271D01*
X202165857Y-57997271D02*
X202165857Y-57387671D01*
X202107800Y-57474757D01*
X202049742Y-57532814D01*
X201991685Y-57561842D01*
%LPC*%
D20*
X215882001Y-130440000D03*
X213382001Y-130440000D03*
X210882001Y-130440000D03*
D21*
X208582001Y-137440000D03*
X218182001Y-137440000D03*
D20*
X191596001Y-130440000D03*
X189096001Y-130440000D03*
X186596001Y-130440000D03*
D21*
X184296001Y-137440000D03*
X193896001Y-137440000D03*
D20*
X167310001Y-130440000D03*
X164810001Y-130440000D03*
X162310001Y-130440000D03*
D21*
X160010001Y-137440000D03*
X169610001Y-137440000D03*
D20*
X143024001Y-130440000D03*
X140524001Y-130440000D03*
X138024001Y-130440000D03*
D21*
X135724001Y-137440000D03*
X145324001Y-137440000D03*
D20*
X118738002Y-130440000D03*
X116238002Y-130440000D03*
X113738002Y-130440000D03*
D21*
X111438002Y-137440000D03*
X121038002Y-137440000D03*
D20*
X94452001Y-130440000D03*
X91952001Y-130440000D03*
X89452001Y-130440000D03*
D21*
X87152001Y-137440000D03*
X96752001Y-137440000D03*
D20*
X70166001Y-130440000D03*
X67666001Y-130440000D03*
X65166001Y-130440000D03*
D21*
X62866001Y-137440000D03*
X72466001Y-137440000D03*
D20*
X215882001Y-106439999D03*
X213382001Y-106439999D03*
X210882001Y-106439999D03*
D21*
X208582001Y-113439999D03*
X218182001Y-113439999D03*
D20*
X191596001Y-106439999D03*
X189096001Y-106439999D03*
X186596001Y-106439999D03*
D21*
X184296001Y-113439999D03*
X193896001Y-113439999D03*
D20*
X167310001Y-106439999D03*
X164810001Y-106439999D03*
X162310001Y-106439999D03*
D21*
X160010001Y-113439999D03*
X169610001Y-113439999D03*
D20*
X143024001Y-106439999D03*
X140524001Y-106439999D03*
X138024001Y-106439999D03*
D21*
X135724001Y-113439999D03*
X145324001Y-113439999D03*
D20*
X118738002Y-106439999D03*
X116238002Y-106439999D03*
X113738002Y-106439999D03*
D21*
X111438002Y-113439999D03*
X121038002Y-113439999D03*
D20*
X94452001Y-106439999D03*
X91952001Y-106439999D03*
X89452001Y-106439999D03*
D21*
X87152001Y-113439999D03*
X96752001Y-113439999D03*
D20*
X70166001Y-106439999D03*
X67666001Y-106439999D03*
X65166001Y-106439999D03*
D21*
X62866001Y-113439999D03*
X72466001Y-113439999D03*
D20*
X45880001Y-106439999D03*
X43380001Y-106439999D03*
X40880001Y-106439999D03*
D21*
X38580001Y-113439999D03*
X48180001Y-113439999D03*
D20*
X215882001Y-82439999D03*
X213382001Y-82439999D03*
X210882001Y-82439999D03*
D21*
X208582001Y-89439999D03*
X218182001Y-89439999D03*
D20*
X191596001Y-82439999D03*
X189096001Y-82439999D03*
X186596001Y-82439999D03*
D21*
X184296001Y-89439999D03*
X193896001Y-89439999D03*
D20*
X167310001Y-82439999D03*
X164810001Y-82439999D03*
X162310001Y-82439999D03*
D21*
X160010001Y-89439999D03*
X169610001Y-89439999D03*
D20*
X143024001Y-82439999D03*
X140524001Y-82439999D03*
X138024001Y-82439999D03*
D21*
X135724001Y-89439999D03*
X145324001Y-89439999D03*
D20*
X118738002Y-82439999D03*
X116238002Y-82439999D03*
X113738002Y-82439999D03*
D21*
X111438002Y-89439999D03*
X121038002Y-89439999D03*
D20*
X94452001Y-82439999D03*
X91952001Y-82439999D03*
X89452001Y-82439999D03*
D21*
X87152001Y-89439999D03*
X96752001Y-89439999D03*
D20*
X70166001Y-82439999D03*
X67666001Y-82439999D03*
X65166001Y-82439999D03*
D21*
X62866001Y-89439999D03*
X72466001Y-89439999D03*
D20*
X45880001Y-82439999D03*
X43380001Y-82439999D03*
X40880001Y-82439999D03*
D21*
X38580001Y-89439999D03*
X48180001Y-89439999D03*
D20*
X215882001Y-58440000D03*
X213382001Y-58440000D03*
X210882001Y-58440000D03*
D21*
X208582001Y-65440000D03*
X218182001Y-65440000D03*
D20*
X191596001Y-58440000D03*
X189096001Y-58440000D03*
X186596001Y-58440000D03*
D21*
X184296001Y-65440000D03*
X193896001Y-65440000D03*
D20*
X167310001Y-58440000D03*
X164810001Y-58440000D03*
X162310001Y-58440000D03*
D21*
X160010001Y-65440000D03*
X169610001Y-65440000D03*
D20*
X143024001Y-58440000D03*
X140524001Y-58440000D03*
X138024001Y-58440000D03*
D21*
X135724001Y-65440000D03*
X145324001Y-65440000D03*
D20*
X118738002Y-58440000D03*
X116238002Y-58440000D03*
X113738002Y-58440000D03*
D21*
X111438002Y-65440000D03*
X121038002Y-65440000D03*
D20*
X70166001Y-58440000D03*
X67666001Y-58440000D03*
X65166001Y-58440000D03*
D21*
X62866001Y-65440000D03*
X72466001Y-65440000D03*
D20*
X94452001Y-58440000D03*
X91952001Y-58440000D03*
X89452001Y-58440000D03*
D21*
X87152001Y-65440000D03*
X96752001Y-65440000D03*
D20*
X45880001Y-130440000D03*
X43380001Y-130440000D03*
X40880001Y-130440000D03*
D21*
X38580001Y-137440000D03*
X48180001Y-137440000D03*
D20*
X45880001Y-58440000D03*
X43380001Y-58440000D03*
X40880001Y-58440000D03*
D21*
X38580001Y-65440000D03*
X48180001Y-65440000D03*
D20*
X150368000Y-48514000D03*
X152908000Y-48514000D03*
X155448000Y-48514000D03*
X157988000Y-48514000D03*
X160528000Y-48514000D03*
X163068000Y-48514000D03*
X165608000Y-48514000D03*
X168148000Y-48514000D03*
X170688000Y-48514000D03*
X173228000Y-48514000D03*
X175768000Y-48514000D03*
X178308000Y-48514000D03*
X180848000Y-48514000D03*
X183388000Y-48514000D03*
X185928000Y-48514000D03*
X188468000Y-48514000D03*
X160528000Y-33274000D03*
X163068000Y-33274000D03*
X165608000Y-33274000D03*
X168148000Y-33274000D03*
X170688000Y-33274000D03*
X173228000Y-33274000D03*
X175768000Y-33274000D03*
X178308000Y-33274000D03*
X106680000Y-48514000D03*
X109220000Y-48514000D03*
X111760000Y-48514000D03*
X114300000Y-48514000D03*
X116840000Y-48514000D03*
X119380000Y-48514000D03*
X121920000Y-48514000D03*
X124460000Y-48514000D03*
X127000000Y-48514000D03*
X129540000Y-48514000D03*
X132080000Y-48514000D03*
X134620000Y-48514000D03*
X137160000Y-48514000D03*
X139700000Y-48514000D03*
X142240000Y-48514000D03*
X144780000Y-48514000D03*
X116840000Y-33274000D03*
X119380000Y-33274000D03*
X121920000Y-33274000D03*
X124460000Y-33274000D03*
X127000000Y-33274000D03*
X129540000Y-33274000D03*
X132080000Y-33274000D03*
X134620000Y-33274000D03*
D22*
X184150000Y-28702000D03*
D23*
X184150000Y-26162000D03*
X186690000Y-28702000D03*
X186690000Y-26162000D03*
X189230000Y-28702000D03*
X189230000Y-26162000D03*
X191770000Y-28702000D03*
X191770000Y-26162000D03*
X194310000Y-28702000D03*
X194310000Y-26162000D03*
D24*
X74628000Y-44386000D03*
X79708000Y-44386000D03*
X97488000Y-44386000D03*
X102568000Y-44386000D03*
D20*
X38428000Y-31832000D03*
X38428000Y-41952000D03*
X40968000Y-31832000D03*
X40968000Y-41952000D03*
X43508000Y-31832000D03*
X43508000Y-41952000D03*
X46048000Y-31832000D03*
X46048000Y-41952000D03*
X48588000Y-31832000D03*
X48588000Y-41952000D03*
G36*
G01*
X203524758Y-108775242D02*
X203524758Y-108775242D01*
G75*
G02*
X203524758Y-107502450I636396J636396D01*
G01*
X203524758Y-107502450D01*
G75*
G02*
X204797550Y-107502450I636396J-636396D01*
G01*
X204797550Y-107502450D01*
G75*
G02*
X204797550Y-108775242I-636396J-636396D01*
G01*
X204797550Y-108775242D01*
G75*
G02*
X203524758Y-108775242I-636396J636396D01*
G01*
G37*
D25*
G36*
X198773000Y-114799792D02*
G01*
X197500208Y-113527000D01*
X198773000Y-112254208D01*
X200045792Y-113527000D01*
X198773000Y-114799792D01*
G37*
D20*
X204990700Y-119405400D03*
X197370700Y-119405400D03*
X204990700Y-121945400D03*
X197370700Y-121945400D03*
X204990700Y-124485400D03*
X197370700Y-124485400D03*
X204990700Y-127025400D03*
X197370700Y-127025400D03*
D26*
X202465077Y-71473923D03*
X197076923Y-76862077D03*
X200124923Y-80037077D03*
X205513077Y-74648923D03*
X84788000Y-44446000D03*
X92408000Y-44446000D03*
X200124923Y-103396077D03*
X205513077Y-98007923D03*
X198453923Y-140371077D03*
X203842077Y-134982923D03*
X202465077Y-94557923D03*
X197076923Y-99946077D03*
D27*
X217668000Y-75838000D03*
X224668000Y-75838000D03*
D28*
X223068000Y-78138000D03*
X219968000Y-78138000D03*
D29*
X215968000Y-78138000D03*
D28*
X214818000Y-73638000D03*
D30*
X128416000Y-148312000D03*
X128416000Y-26312000D03*
X224416000Y-148312000D03*
X32416000Y-148312000D03*
X224416000Y-26312000D03*
X32416000Y-26312000D03*
D31*
X102568000Y-38862000D03*
X100028000Y-38862000D03*
X97488000Y-38862000D03*
X94948000Y-38862000D03*
X92408000Y-38862000D03*
X89868000Y-38862000D03*
X87328000Y-38862000D03*
X84788000Y-38862000D03*
X82248000Y-38862000D03*
X79708000Y-38862000D03*
X77168000Y-38862000D03*
X74628000Y-38862000D03*
X74628000Y-31242000D03*
X77168000Y-31242000D03*
X79708000Y-31242000D03*
X82248000Y-31242000D03*
X84788000Y-31242000D03*
X87328000Y-31242000D03*
X89868000Y-31242000D03*
X92408000Y-31242000D03*
X94948000Y-31242000D03*
X97488000Y-31242000D03*
X100028000Y-31242000D03*
X102568000Y-31242000D03*
D32*
X64482980Y-39613840D03*
X70985380Y-39613840D03*
X64482980Y-44135040D03*
X70985380Y-44135040D03*
X64480440Y-29989780D03*
X70982840Y-29989780D03*
X64480440Y-34510980D03*
X70982840Y-34510980D03*
X222758000Y-33782000D03*
X220218000Y-33782000D03*
X217678000Y-33782000D03*
X215138000Y-33782000D03*
X212598000Y-33782000D03*
X210058000Y-33782000D03*
X207518000Y-33782000D03*
X204978000Y-33782000D03*
X202438000Y-33782000D03*
X199898000Y-33782000D03*
X197358000Y-33782000D03*
X194818000Y-33782000D03*
X194818000Y-49022000D03*
X197358000Y-49022000D03*
X199898000Y-49022000D03*
X202438000Y-49022000D03*
X204978000Y-49022000D03*
X207518000Y-49022000D03*
X210058000Y-49022000D03*
X212598000Y-49022000D03*
X215138000Y-49022000D03*
X217678000Y-49022000D03*
X220218000Y-49022000D03*
X222758000Y-49022000D03*
D28*
X214818000Y-97768000D03*
D29*
X215968000Y-102268000D03*
D28*
X219968000Y-102268000D03*
X223068000Y-102268000D03*
D27*
X224668000Y-99968000D03*
X217668000Y-99968000D03*
D32*
X204139800Y-57581800D03*
X197637400Y-57581800D03*
X204139800Y-53060600D03*
X197637400Y-53060600D03*
M02*
