G04 #@! TF.GenerationSoftware,KiCad,Pcbnew,(5.1.10-1-10_14)*
G04 #@! TF.CreationDate,2021-10-10T16:36:06+03:00*
G04 #@! TF.ProjectId,N32B,4e333242-2e6b-4696-9361-645f70636258,V2.2*
G04 #@! TF.SameCoordinates,Original*
G04 #@! TF.FileFunction,Soldermask,Top*
G04 #@! TF.FilePolarity,Negative*
%FSLAX46Y46*%
G04 Gerber Fmt 4.6, Leading zero omitted, Abs format (unit mm)*
G04 Created by KiCad (PCBNEW (5.1.10-1-10_14)) date 2021-10-10 16:36:06*
%MOMM*%
%LPD*%
G01*
G04 APERTURE LIST*
%ADD10C,1.800000*%
%ADD11C,2.999740*%
%ADD12R,1.700000X1.700000*%
%ADD13O,1.700000X1.700000*%
%ADD14C,2.003200*%
%ADD15C,0.100000*%
%ADD16C,2.235200*%
%ADD17C,1.200000*%
%ADD18O,2.000000X1.400000*%
%ADD19R,2.000000X1.400000*%
%ADD20C,3.200000*%
%ADD21O,1.320800X2.641600*%
%ADD22C,2.082800*%
G04 APERTURE END LIST*
D10*
X215882001Y-130440000D03*
X213382001Y-130440000D03*
X210882001Y-130440000D03*
D11*
X208582001Y-137440000D03*
X218182001Y-137440000D03*
D10*
X191596001Y-130440000D03*
X189096001Y-130440000D03*
X186596001Y-130440000D03*
D11*
X184296001Y-137440000D03*
X193896001Y-137440000D03*
D10*
X167310001Y-130440000D03*
X164810001Y-130440000D03*
X162310001Y-130440000D03*
D11*
X160010001Y-137440000D03*
X169610001Y-137440000D03*
D10*
X143024001Y-130440000D03*
X140524001Y-130440000D03*
X138024001Y-130440000D03*
D11*
X135724001Y-137440000D03*
X145324001Y-137440000D03*
D10*
X118738002Y-130440000D03*
X116238002Y-130440000D03*
X113738002Y-130440000D03*
D11*
X111438002Y-137440000D03*
X121038002Y-137440000D03*
D10*
X94452001Y-130440000D03*
X91952001Y-130440000D03*
X89452001Y-130440000D03*
D11*
X87152001Y-137440000D03*
X96752001Y-137440000D03*
D10*
X70166001Y-130440000D03*
X67666001Y-130440000D03*
X65166001Y-130440000D03*
D11*
X62866001Y-137440000D03*
X72466001Y-137440000D03*
D10*
X215882001Y-106439999D03*
X213382001Y-106439999D03*
X210882001Y-106439999D03*
D11*
X208582001Y-113439999D03*
X218182001Y-113439999D03*
D10*
X191596001Y-106439999D03*
X189096001Y-106439999D03*
X186596001Y-106439999D03*
D11*
X184296001Y-113439999D03*
X193896001Y-113439999D03*
D10*
X167310001Y-106439999D03*
X164810001Y-106439999D03*
X162310001Y-106439999D03*
D11*
X160010001Y-113439999D03*
X169610001Y-113439999D03*
D10*
X143024001Y-106439999D03*
X140524001Y-106439999D03*
X138024001Y-106439999D03*
D11*
X135724001Y-113439999D03*
X145324001Y-113439999D03*
D10*
X118738002Y-106439999D03*
X116238002Y-106439999D03*
X113738002Y-106439999D03*
D11*
X111438002Y-113439999D03*
X121038002Y-113439999D03*
D10*
X94452001Y-106439999D03*
X91952001Y-106439999D03*
X89452001Y-106439999D03*
D11*
X87152001Y-113439999D03*
X96752001Y-113439999D03*
D10*
X70166001Y-106439999D03*
X67666001Y-106439999D03*
X65166001Y-106439999D03*
D11*
X62866001Y-113439999D03*
X72466001Y-113439999D03*
D10*
X45880001Y-106439999D03*
X43380001Y-106439999D03*
X40880001Y-106439999D03*
D11*
X38580001Y-113439999D03*
X48180001Y-113439999D03*
D10*
X215882001Y-82439999D03*
X213382001Y-82439999D03*
X210882001Y-82439999D03*
D11*
X208582001Y-89439999D03*
X218182001Y-89439999D03*
D10*
X191596001Y-82439999D03*
X189096001Y-82439999D03*
X186596001Y-82439999D03*
D11*
X184296001Y-89439999D03*
X193896001Y-89439999D03*
D10*
X167310001Y-82439999D03*
X164810001Y-82439999D03*
X162310001Y-82439999D03*
D11*
X160010001Y-89439999D03*
X169610001Y-89439999D03*
D10*
X143024001Y-82439999D03*
X140524001Y-82439999D03*
X138024001Y-82439999D03*
D11*
X135724001Y-89439999D03*
X145324001Y-89439999D03*
D10*
X118738002Y-82439999D03*
X116238002Y-82439999D03*
X113738002Y-82439999D03*
D11*
X111438002Y-89439999D03*
X121038002Y-89439999D03*
D10*
X94452001Y-82439999D03*
X91952001Y-82439999D03*
X89452001Y-82439999D03*
D11*
X87152001Y-89439999D03*
X96752001Y-89439999D03*
D10*
X70166001Y-82439999D03*
X67666001Y-82439999D03*
X65166001Y-82439999D03*
D11*
X62866001Y-89439999D03*
X72466001Y-89439999D03*
D10*
X45880001Y-82439999D03*
X43380001Y-82439999D03*
X40880001Y-82439999D03*
D11*
X38580001Y-89439999D03*
X48180001Y-89439999D03*
D10*
X215882001Y-58440000D03*
X213382001Y-58440000D03*
X210882001Y-58440000D03*
D11*
X208582001Y-65440000D03*
X218182001Y-65440000D03*
D10*
X191596001Y-58440000D03*
X189096001Y-58440000D03*
X186596001Y-58440000D03*
D11*
X184296001Y-65440000D03*
X193896001Y-65440000D03*
D10*
X167310001Y-58440000D03*
X164810001Y-58440000D03*
X162310001Y-58440000D03*
D11*
X160010001Y-65440000D03*
X169610001Y-65440000D03*
D10*
X143024001Y-58440000D03*
X140524001Y-58440000D03*
X138024001Y-58440000D03*
D11*
X135724001Y-65440000D03*
X145324001Y-65440000D03*
D10*
X118738002Y-58440000D03*
X116238002Y-58440000D03*
X113738002Y-58440000D03*
D11*
X111438002Y-65440000D03*
X121038002Y-65440000D03*
D10*
X70166001Y-58440000D03*
X67666001Y-58440000D03*
X65166001Y-58440000D03*
D11*
X62866001Y-65440000D03*
X72466001Y-65440000D03*
D10*
X94452001Y-58440000D03*
X91952001Y-58440000D03*
X89452001Y-58440000D03*
D11*
X87152001Y-65440000D03*
X96752001Y-65440000D03*
D10*
X45880001Y-130440000D03*
X43380001Y-130440000D03*
X40880001Y-130440000D03*
D11*
X38580001Y-137440000D03*
X48180001Y-137440000D03*
D10*
X45880001Y-58440000D03*
X43380001Y-58440000D03*
X40880001Y-58440000D03*
D11*
X38580001Y-65440000D03*
X48180001Y-65440000D03*
D10*
X150368000Y-48514000D03*
X152908000Y-48514000D03*
X155448000Y-48514000D03*
X157988000Y-48514000D03*
X160528000Y-48514000D03*
X163068000Y-48514000D03*
X165608000Y-48514000D03*
X168148000Y-48514000D03*
X170688000Y-48514000D03*
X173228000Y-48514000D03*
X175768000Y-48514000D03*
X178308000Y-48514000D03*
X180848000Y-48514000D03*
X183388000Y-48514000D03*
X185928000Y-48514000D03*
X188468000Y-48514000D03*
X160528000Y-33274000D03*
X163068000Y-33274000D03*
X165608000Y-33274000D03*
X168148000Y-33274000D03*
X170688000Y-33274000D03*
X173228000Y-33274000D03*
X175768000Y-33274000D03*
X178308000Y-33274000D03*
X106680000Y-48514000D03*
X109220000Y-48514000D03*
X111760000Y-48514000D03*
X114300000Y-48514000D03*
X116840000Y-48514000D03*
X119380000Y-48514000D03*
X121920000Y-48514000D03*
X124460000Y-48514000D03*
X127000000Y-48514000D03*
X129540000Y-48514000D03*
X132080000Y-48514000D03*
X134620000Y-48514000D03*
X137160000Y-48514000D03*
X139700000Y-48514000D03*
X142240000Y-48514000D03*
X144780000Y-48514000D03*
X116840000Y-33274000D03*
X119380000Y-33274000D03*
X121920000Y-33274000D03*
X124460000Y-33274000D03*
X127000000Y-33274000D03*
X129540000Y-33274000D03*
X132080000Y-33274000D03*
X134620000Y-33274000D03*
D12*
X184150000Y-28702000D03*
D13*
X184150000Y-26162000D03*
X186690000Y-28702000D03*
X186690000Y-26162000D03*
X189230000Y-28702000D03*
X189230000Y-26162000D03*
X191770000Y-28702000D03*
X191770000Y-26162000D03*
X194310000Y-28702000D03*
X194310000Y-26162000D03*
D14*
X74628000Y-44386000D03*
X79708000Y-44386000D03*
X97488000Y-44386000D03*
X102568000Y-44386000D03*
D10*
X38428000Y-31832000D03*
X38428000Y-41952000D03*
X40968000Y-31832000D03*
X40968000Y-41952000D03*
X43508000Y-31832000D03*
X43508000Y-41952000D03*
X46048000Y-31832000D03*
X46048000Y-41952000D03*
X48588000Y-31832000D03*
X48588000Y-41952000D03*
G36*
G01*
X203524758Y-108775242D02*
X203524758Y-108775242D01*
G75*
G02*
X203524758Y-107502450I636396J636396D01*
G01*
X203524758Y-107502450D01*
G75*
G02*
X204797550Y-107502450I636396J-636396D01*
G01*
X204797550Y-107502450D01*
G75*
G02*
X204797550Y-108775242I-636396J-636396D01*
G01*
X204797550Y-108775242D01*
G75*
G02*
X203524758Y-108775242I-636396J636396D01*
G01*
G37*
D15*
G36*
X198773000Y-114799792D02*
G01*
X197500208Y-113527000D01*
X198773000Y-112254208D01*
X200045792Y-113527000D01*
X198773000Y-114799792D01*
G37*
D10*
X204990700Y-119405400D03*
X197370700Y-119405400D03*
X204990700Y-121945400D03*
X197370700Y-121945400D03*
X204990700Y-124485400D03*
X197370700Y-124485400D03*
X204990700Y-127025400D03*
X197370700Y-127025400D03*
D16*
X202465077Y-71473923D03*
X197076923Y-76862077D03*
X200124923Y-80037077D03*
X205513077Y-74648923D03*
X84788000Y-44446000D03*
X92408000Y-44446000D03*
X200124923Y-103396077D03*
X205513077Y-98007923D03*
X198453923Y-140371077D03*
X203842077Y-134982923D03*
X202465077Y-94557923D03*
X197076923Y-99946077D03*
D17*
X217668000Y-75838000D03*
X224668000Y-75838000D03*
D18*
X223068000Y-78138000D03*
X219968000Y-78138000D03*
D19*
X215968000Y-78138000D03*
D18*
X214818000Y-73638000D03*
D20*
X128416000Y-148312000D03*
X128416000Y-26312000D03*
X224416000Y-148312000D03*
X32416000Y-148312000D03*
X224416000Y-26312000D03*
X32416000Y-26312000D03*
D21*
X102568000Y-38862000D03*
X100028000Y-38862000D03*
X97488000Y-38862000D03*
X94948000Y-38862000D03*
X92408000Y-38862000D03*
X89868000Y-38862000D03*
X87328000Y-38862000D03*
X84788000Y-38862000D03*
X82248000Y-38862000D03*
X79708000Y-38862000D03*
X77168000Y-38862000D03*
X74628000Y-38862000D03*
X74628000Y-31242000D03*
X77168000Y-31242000D03*
X79708000Y-31242000D03*
X82248000Y-31242000D03*
X84788000Y-31242000D03*
X87328000Y-31242000D03*
X89868000Y-31242000D03*
X92408000Y-31242000D03*
X94948000Y-31242000D03*
X97488000Y-31242000D03*
X100028000Y-31242000D03*
X102568000Y-31242000D03*
D22*
X64482980Y-39613840D03*
X70985380Y-39613840D03*
X64482980Y-44135040D03*
X70985380Y-44135040D03*
X64480440Y-29989780D03*
X70982840Y-29989780D03*
X64480440Y-34510980D03*
X70982840Y-34510980D03*
X222758000Y-33782000D03*
X220218000Y-33782000D03*
X217678000Y-33782000D03*
X215138000Y-33782000D03*
X212598000Y-33782000D03*
X210058000Y-33782000D03*
X207518000Y-33782000D03*
X204978000Y-33782000D03*
X202438000Y-33782000D03*
X199898000Y-33782000D03*
X197358000Y-33782000D03*
X194818000Y-33782000D03*
X194818000Y-49022000D03*
X197358000Y-49022000D03*
X199898000Y-49022000D03*
X202438000Y-49022000D03*
X204978000Y-49022000D03*
X207518000Y-49022000D03*
X210058000Y-49022000D03*
X212598000Y-49022000D03*
X215138000Y-49022000D03*
X217678000Y-49022000D03*
X220218000Y-49022000D03*
X222758000Y-49022000D03*
D18*
X214818000Y-97768000D03*
D19*
X215968000Y-102268000D03*
D18*
X219968000Y-102268000D03*
X223068000Y-102268000D03*
D17*
X224668000Y-99968000D03*
X217668000Y-99968000D03*
D22*
X204139800Y-57581800D03*
X197637400Y-57581800D03*
X204139800Y-53060600D03*
X197637400Y-53060600D03*
M02*
