M48
; DRILL file {KiCad (5.1.10-1-10_14)} date Sunday, October 10, 2021 at 04:36:35 PM
; FORMAT={-:-/ absolute / metric / decimal}
; #@! TF.CreationDate,2021-10-10T16:36:35+03:00
; #@! TF.GenerationSoftware,Kicad,Pcbnew,(5.1.10-1-10_14)
; #@! TF.FileFunction,Plated,1,2,PTH
FMAT,2
METRIC
T1C0.400
T2C0.600
T3C0.762
T4C0.800
T5C0.813
T6C1.000
T7C1.016
T8C1.020
T9C1.999
%
G90
G05
T1
X186.69Y-33.274
X187.96Y-33.274
X187.96Y-42.164
X189.23Y-33.274
X190.5Y-37.338
X190.5Y-33.274
X191.77Y-33.274
X193.04Y-33.274
T3
X38.428Y-31.832
X38.428Y-41.952
X40.968Y-31.832
X40.968Y-41.952
X43.508Y-31.832
X43.508Y-41.952
X46.048Y-31.832
X46.048Y-41.952
X48.588Y-31.832
X48.588Y-41.952
T4
X198.773Y-113.527
X204.161Y-108.139
T5
X74.628Y-31.242
X74.628Y-38.862
X77.168Y-31.242
X77.168Y-38.862
X79.708Y-31.242
X79.708Y-38.862
X82.248Y-31.242
X82.248Y-38.862
X84.788Y-31.242
X84.788Y-38.862
X87.328Y-31.242
X87.328Y-38.862
X89.868Y-31.242
X89.868Y-38.862
X92.408Y-31.242
X92.408Y-38.862
X94.948Y-31.242
X94.948Y-38.862
X97.488Y-31.242
X97.488Y-38.862
X100.028Y-31.242
X100.028Y-38.862
X102.568Y-31.242
X102.568Y-38.862
T6
X40.88Y-58.44
X40.88Y-82.44
X40.88Y-106.44
X40.88Y-130.44
X43.38Y-58.44
X43.38Y-82.44
X43.38Y-106.44
X43.38Y-130.44
X45.88Y-58.44
X45.88Y-82.44
X45.88Y-106.44
X45.88Y-130.44
X65.166Y-58.44
X65.166Y-82.44
X65.166Y-106.44
X65.166Y-130.44
X67.666Y-58.44
X67.666Y-82.44
X67.666Y-106.44
X67.666Y-130.44
X70.166Y-58.44
X70.166Y-82.44
X70.166Y-106.44
X70.166Y-130.44
X74.628Y-44.386
X79.708Y-44.386
X89.452Y-58.44
X89.452Y-82.44
X89.452Y-106.44
X89.452Y-130.44
X91.952Y-58.44
X91.952Y-82.44
X91.952Y-106.44
X91.952Y-130.44
X94.452Y-58.44
X94.452Y-82.44
X94.452Y-106.44
X94.452Y-130.44
X97.488Y-44.386
X102.568Y-44.386
X113.738Y-58.44
X113.738Y-82.44
X113.738Y-106.44
X113.738Y-130.44
X116.238Y-58.44
X116.238Y-82.44
X116.238Y-106.44
X116.238Y-130.44
X118.738Y-58.44
X118.738Y-82.44
X118.738Y-106.44
X118.738Y-130.44
X138.024Y-58.44
X138.024Y-82.44
X138.024Y-106.44
X138.024Y-130.44
X140.524Y-58.44
X140.524Y-82.44
X140.524Y-106.44
X140.524Y-130.44
X143.024Y-58.44
X143.024Y-82.44
X143.024Y-106.44
X143.024Y-130.44
X162.31Y-58.44
X162.31Y-82.44
X162.31Y-106.44
X162.31Y-130.44
X164.81Y-58.44
X164.81Y-82.44
X164.81Y-106.44
X164.81Y-130.44
X167.31Y-58.44
X167.31Y-82.44
X167.31Y-106.44
X167.31Y-130.44
X184.15Y-26.162
X184.15Y-28.702
X186.596Y-58.44
X186.596Y-82.44
X186.596Y-106.44
X186.596Y-130.44
X186.69Y-26.162
X186.69Y-28.702
X189.096Y-58.44
X189.096Y-82.44
X189.096Y-106.44
X189.096Y-130.44
X189.23Y-26.162
X189.23Y-28.702
X191.596Y-58.44
X191.596Y-82.44
X191.596Y-106.44
X191.596Y-130.44
X191.77Y-26.162
X191.77Y-28.702
X194.31Y-26.162
X194.31Y-28.702
X197.371Y-119.405
X197.371Y-121.945
X197.371Y-124.485
X197.371Y-127.025
X204.991Y-119.405
X204.991Y-121.945
X204.991Y-124.485
X204.991Y-127.025
X210.882Y-58.44
X210.882Y-82.44
X210.882Y-106.44
X210.882Y-130.44
X213.382Y-58.44
X213.382Y-82.44
X213.382Y-106.44
X213.382Y-130.44
X215.882Y-58.44
X215.882Y-82.44
X215.882Y-106.44
X215.882Y-130.44
T7
X64.48Y-29.99
X64.48Y-34.511
X64.483Y-39.614
X64.483Y-44.135
X70.983Y-29.99
X70.983Y-34.511
X70.985Y-39.614
X70.985Y-44.135
X84.788Y-44.446
X92.408Y-44.446
X194.818Y-33.782
X194.818Y-49.022
X197.077Y-76.862
X197.077Y-99.946
X197.358Y-33.782
X197.358Y-49.022
X197.637Y-53.061
X197.637Y-57.582
X198.454Y-140.371
X199.898Y-33.782
X199.898Y-49.022
X200.125Y-80.037
X200.125Y-103.396
X202.438Y-33.782
X202.438Y-49.022
X202.465Y-71.474
X202.465Y-94.558
X203.842Y-134.983
X204.14Y-53.061
X204.14Y-57.582
X204.978Y-33.782
X204.978Y-49.022
X205.513Y-74.649
X205.513Y-98.008
X207.518Y-33.782
X207.518Y-49.022
X210.058Y-33.782
X210.058Y-49.022
X212.598Y-33.782
X212.598Y-49.022
X215.138Y-33.782
X215.138Y-49.022
X217.678Y-33.782
X217.678Y-49.022
X220.218Y-33.782
X220.218Y-49.022
X222.758Y-33.782
X222.758Y-49.022
T8
X106.68Y-48.514
X109.22Y-48.514
X111.76Y-48.514
X114.3Y-48.514
X116.84Y-33.274
X116.84Y-48.514
X119.38Y-33.274
X119.38Y-48.514
X121.92Y-33.274
X121.92Y-48.514
X124.46Y-33.274
X124.46Y-48.514
X127.0Y-33.274
X127.0Y-48.514
X129.54Y-33.274
X129.54Y-48.514
X132.08Y-33.274
X132.08Y-48.514
X134.62Y-33.274
X134.62Y-48.514
X137.16Y-48.514
X139.7Y-48.514
X142.24Y-48.514
X144.78Y-48.514
X150.368Y-48.514
X152.908Y-48.514
X155.448Y-48.514
X157.988Y-48.514
X160.528Y-33.274
X160.528Y-48.514
X163.068Y-33.274
X163.068Y-48.514
X165.608Y-33.274
X165.608Y-48.514
X168.148Y-33.274
X168.148Y-48.514
X170.688Y-33.274
X170.688Y-48.514
X173.228Y-33.274
X173.228Y-48.514
X175.768Y-33.274
X175.768Y-48.514
X178.308Y-33.274
X178.308Y-48.514
X180.848Y-48.514
X183.388Y-48.514
X185.928Y-48.514
X188.468Y-48.514
T9
X38.58Y-65.44
X38.58Y-89.44
X38.58Y-113.44
X38.58Y-137.44
X48.18Y-65.44
X48.18Y-89.44
X48.18Y-113.44
X48.18Y-137.44
X62.866Y-65.44
X62.866Y-89.44
X62.866Y-113.44
X62.866Y-137.44
X72.466Y-65.44
X72.466Y-89.44
X72.466Y-113.44
X72.466Y-137.44
X87.152Y-65.44
X87.152Y-89.44
X87.152Y-113.44
X87.152Y-137.44
X96.752Y-65.44
X96.752Y-89.44
X96.752Y-113.44
X96.752Y-137.44
X111.438Y-65.44
X111.438Y-89.44
X111.438Y-113.44
X111.438Y-137.44
X121.038Y-65.44
X121.038Y-89.44
X121.038Y-113.44
X121.038Y-137.44
X135.724Y-65.44
X135.724Y-89.44
X135.724Y-113.44
X135.724Y-137.44
X145.324Y-65.44
X145.324Y-89.44
X145.324Y-113.44
X145.324Y-137.44
X160.01Y-65.44
X160.01Y-89.44
X160.01Y-113.44
X160.01Y-137.44
X169.61Y-65.44
X169.61Y-89.44
X169.61Y-113.44
X169.61Y-137.44
X184.296Y-65.44
X184.296Y-89.44
X184.296Y-113.44
X184.296Y-137.44
X193.896Y-65.44
X193.896Y-89.44
X193.896Y-113.44
X193.896Y-137.44
X208.582Y-65.44
X208.582Y-89.44
X208.582Y-113.44
X208.582Y-137.44
X218.182Y-65.44
X218.182Y-89.44
X218.182Y-113.44
X218.182Y-137.44
T2
X214.518Y-73.638G85X215.118Y-73.638
G05
X214.518Y-97.768G85X215.118Y-97.768
G05
X215.668Y-78.138G85X216.268Y-78.138
G05
X215.668Y-102.268G85X216.268Y-102.268
G05
X219.668Y-78.138G85X220.268Y-78.138
G05
X219.668Y-102.268G85X220.268Y-102.268
G05
X222.768Y-78.138G85X223.368Y-78.138
G05
X222.768Y-102.268G85X223.368Y-102.268
G05
T0
M30
