%FSLAX45Y45*%
G04 Gerber Fmt 4.5, Leading zero omitted, Abs format (unit mm)*
G04 Created by KiCad (PCBNEW (5.1.10-1-10_14)) date 2021-10-10 16:36:36*
%MOMM*%
%LPD*%
G01*
G04 APERTURE LIST*
%TA.AperFunction,Profile*%
%ADD10C,0.200000*%
%TD*%
%ADD11C,0.200000*%
%ADD12C,0.300000*%
G04 APERTURE END LIST*
D10*
X22619800Y-2635231D02*
G75*
G03*
X22619800Y-2635231I-175000J0D01*
G01*
X13019800Y-2635231D02*
G75*
G03*
X13019800Y-2635231I-175000J0D01*
G01*
X3419800Y-2635231D02*
G75*
G03*
X3419800Y-2635231I-175000J0D01*
G01*
X2844800Y-2235241D02*
X2844800Y-15235200D01*
X22619800Y-14835231D02*
G75*
G03*
X22619800Y-14835231I-175000J0D01*
G01*
X13019800Y-14835231D02*
G75*
G03*
X13019800Y-14835231I-175000J0D01*
G01*
X3419800Y-14835231D02*
G75*
G03*
X3419800Y-14835231I-175000J0D01*
G01*
X22844764Y-15235200D02*
X22844764Y-2235241D01*
X22844764Y-2235241D02*
X2844800Y-2235241D01*
X2844800Y-15235200D02*
X22844764Y-15235200D01*
D11*
X18649000Y-3307400D02*
X18689000Y-3347400D01*
X18689000Y-3307400D02*
X18649000Y-3347400D01*
X18776000Y-3307400D02*
X18816000Y-3347400D01*
X18816000Y-3307400D02*
X18776000Y-3347400D01*
X18776000Y-4196400D02*
X18816000Y-4236400D01*
X18816000Y-4196400D02*
X18776000Y-4236400D01*
X18903000Y-3307400D02*
X18943000Y-3347400D01*
X18943000Y-3307400D02*
X18903000Y-3347400D01*
X19030000Y-3713800D02*
X19070000Y-3753800D01*
X19070000Y-3713800D02*
X19030000Y-3753800D01*
X19030000Y-3307400D02*
X19070000Y-3347400D01*
X19070000Y-3307400D02*
X19030000Y-3347400D01*
X19157000Y-3307400D02*
X19197000Y-3347400D01*
X19197000Y-3307400D02*
X19157000Y-3347400D01*
X19284000Y-3307399D02*
X19324000Y-3347399D01*
X19324000Y-3307399D02*
X19284000Y-3347399D01*
X21511800Y-7363800D02*
G75*
G03*
X21511800Y-7363800I-30000J0D01*
G01*
X21451800Y-7383800D02*
X21511800Y-7383800D01*
X21451800Y-7343800D02*
X21511800Y-7343800D01*
X21511800Y-7383800D02*
G75*
G03*
X21511800Y-7343800I0J20000D01*
G01*
X21451800Y-7343800D02*
G75*
G03*
X21451800Y-7383800I0J-20000D01*
G01*
X21511800Y-9776800D02*
G75*
G03*
X21511800Y-9776800I-30000J0D01*
G01*
X21451800Y-9796800D02*
X21511800Y-9796800D01*
X21451800Y-9756800D02*
X21511800Y-9756800D01*
X21511800Y-9796800D02*
G75*
G03*
X21511800Y-9756800I0J20000D01*
G01*
X21451800Y-9756800D02*
G75*
G03*
X21451800Y-9796800I0J-20000D01*
G01*
X21626800Y-7813800D02*
G75*
G03*
X21626800Y-7813800I-30000J0D01*
G01*
X21566800Y-7833800D02*
X21626800Y-7833800D01*
X21566800Y-7793800D02*
X21626800Y-7793800D01*
X21626800Y-7833800D02*
G75*
G03*
X21626800Y-7793800I0J20000D01*
G01*
X21566800Y-7793800D02*
G75*
G03*
X21566800Y-7833800I0J-20000D01*
G01*
X21626800Y-10226800D02*
G75*
G03*
X21626800Y-10226800I-30000J0D01*
G01*
X21566800Y-10246800D02*
X21626800Y-10246800D01*
X21566800Y-10206800D02*
X21626800Y-10206800D01*
X21626800Y-10246800D02*
G75*
G03*
X21626800Y-10206800I0J20000D01*
G01*
X21566800Y-10206800D02*
G75*
G03*
X21566800Y-10246800I0J-20000D01*
G01*
X22026800Y-7813800D02*
G75*
G03*
X22026800Y-7813800I-30000J0D01*
G01*
X21966800Y-7833800D02*
X22026800Y-7833800D01*
X21966800Y-7793800D02*
X22026800Y-7793800D01*
X22026800Y-7833800D02*
G75*
G03*
X22026800Y-7793800I0J20000D01*
G01*
X21966800Y-7793800D02*
G75*
G03*
X21966800Y-7833800I0J-20000D01*
G01*
X22026800Y-10226800D02*
G75*
G03*
X22026800Y-10226800I-30000J0D01*
G01*
X21966800Y-10246800D02*
X22026800Y-10246800D01*
X21966800Y-10206800D02*
X22026800Y-10206800D01*
X22026800Y-10246800D02*
G75*
G03*
X22026800Y-10206800I0J20000D01*
G01*
X21966800Y-10206800D02*
G75*
G03*
X21966800Y-10246800I0J-20000D01*
G01*
X22336800Y-7813800D02*
G75*
G03*
X22336800Y-7813800I-30000J0D01*
G01*
X22276800Y-7833800D02*
X22336800Y-7833800D01*
X22276800Y-7793800D02*
X22336800Y-7793800D01*
X22336800Y-7833800D02*
G75*
G03*
X22336800Y-7793800I0J20000D01*
G01*
X22276800Y-7793800D02*
G75*
G03*
X22276800Y-7833800I0J-20000D01*
G01*
X22336800Y-10226800D02*
G75*
G03*
X22336800Y-10226800I-30000J0D01*
G01*
X22276800Y-10246800D02*
X22336800Y-10246800D01*
X22276800Y-10206800D02*
X22336800Y-10206800D01*
X22336800Y-10246800D02*
G75*
G03*
X22336800Y-10206800I0J20000D01*
G01*
X22276800Y-10206800D02*
G75*
G03*
X22276800Y-10246800I0J-20000D01*
G01*
X3842800Y-3145100D02*
X3842800Y-3221300D01*
X3804700Y-3183200D02*
X3880900Y-3183200D01*
X3842800Y-4157100D02*
X3842800Y-4233300D01*
X3804700Y-4195200D02*
X3880900Y-4195200D01*
X4096800Y-3145100D02*
X4096800Y-3221300D01*
X4058700Y-3183200D02*
X4134900Y-3183200D01*
X4096800Y-4157100D02*
X4096800Y-4233300D01*
X4058700Y-4195200D02*
X4134900Y-4195200D01*
X4350800Y-3145100D02*
X4350800Y-3221300D01*
X4312700Y-3183200D02*
X4388900Y-3183200D01*
X4350800Y-4157100D02*
X4350800Y-4233300D01*
X4312700Y-4195200D02*
X4388900Y-4195200D01*
X4604800Y-3145100D02*
X4604800Y-3221300D01*
X4566700Y-3183200D02*
X4642900Y-3183200D01*
X4604800Y-4157100D02*
X4604800Y-4233300D01*
X4566700Y-4195200D02*
X4642900Y-4195200D01*
X4858800Y-3145100D02*
X4858800Y-3221300D01*
X4820700Y-3183200D02*
X4896900Y-3183200D01*
X4858800Y-4157100D02*
X4858800Y-4233300D01*
X4820700Y-4195200D02*
X4896900Y-4195200D01*
X19905585Y-11380984D02*
X19905585Y-11324415D01*
X19849016Y-11324415D01*
X19849016Y-11380984D01*
X19905585Y-11380984D01*
X20444400Y-10842169D02*
X20444400Y-10785600D01*
X20387831Y-10785600D01*
X20387831Y-10842169D01*
X20444400Y-10842169D01*
X7462800Y-3164840D02*
X7503440Y-3124200D01*
X7462800Y-3083560D01*
X7422160Y-3124200D01*
X7462800Y-3164840D01*
X7462800Y-3926840D02*
X7503440Y-3886200D01*
X7462800Y-3845560D01*
X7422160Y-3886200D01*
X7462800Y-3926840D01*
X7716800Y-3164840D02*
X7757440Y-3124200D01*
X7716800Y-3083560D01*
X7676160Y-3124200D01*
X7716800Y-3164840D01*
X7716800Y-3926840D02*
X7757440Y-3886200D01*
X7716800Y-3845560D01*
X7676160Y-3886200D01*
X7716800Y-3926840D01*
X7970800Y-3164840D02*
X8011440Y-3124200D01*
X7970800Y-3083560D01*
X7930160Y-3124200D01*
X7970800Y-3164840D01*
X7970800Y-3926840D02*
X8011440Y-3886200D01*
X7970800Y-3845560D01*
X7930160Y-3886200D01*
X7970800Y-3926840D01*
X8224800Y-3164840D02*
X8265440Y-3124200D01*
X8224800Y-3083560D01*
X8184160Y-3124200D01*
X8224800Y-3164840D01*
X8224800Y-3926840D02*
X8265440Y-3886200D01*
X8224800Y-3845560D01*
X8184160Y-3886200D01*
X8224800Y-3926840D01*
X8478800Y-3164840D02*
X8519440Y-3124200D01*
X8478800Y-3083560D01*
X8438160Y-3124200D01*
X8478800Y-3164840D01*
X8478800Y-3926840D02*
X8519440Y-3886200D01*
X8478800Y-3845560D01*
X8438160Y-3886200D01*
X8478800Y-3926840D01*
X8732800Y-3164840D02*
X8773440Y-3124200D01*
X8732800Y-3083560D01*
X8692160Y-3124200D01*
X8732800Y-3164840D01*
X8732800Y-3926840D02*
X8773440Y-3886200D01*
X8732800Y-3845560D01*
X8692160Y-3886200D01*
X8732800Y-3926840D01*
X8986800Y-3164840D02*
X9027440Y-3124200D01*
X8986800Y-3083560D01*
X8946160Y-3124200D01*
X8986800Y-3164840D01*
X8986800Y-3926840D02*
X9027440Y-3886200D01*
X8986800Y-3845560D01*
X8946160Y-3886200D01*
X8986800Y-3926840D01*
X9240800Y-3164840D02*
X9281440Y-3124200D01*
X9240800Y-3083560D01*
X9200160Y-3124200D01*
X9240800Y-3164840D01*
X9240800Y-3926840D02*
X9281440Y-3886200D01*
X9240800Y-3845560D01*
X9200160Y-3886200D01*
X9240800Y-3926840D01*
X9494800Y-3164840D02*
X9535440Y-3124200D01*
X9494800Y-3083560D01*
X9454160Y-3124200D01*
X9494800Y-3164840D01*
X9494800Y-3926840D02*
X9535440Y-3886200D01*
X9494800Y-3845560D01*
X9454160Y-3886200D01*
X9494800Y-3926840D01*
X9748800Y-3164840D02*
X9789440Y-3124200D01*
X9748800Y-3083560D01*
X9708160Y-3124200D01*
X9748800Y-3164840D01*
X9748800Y-3926840D02*
X9789440Y-3886200D01*
X9748800Y-3845560D01*
X9708160Y-3886200D01*
X9748800Y-3926840D01*
X10002800Y-3164840D02*
X10043440Y-3124200D01*
X10002800Y-3083560D01*
X9962160Y-3124200D01*
X10002800Y-3164840D01*
X10002800Y-3926840D02*
X10043440Y-3886200D01*
X10002800Y-3845560D01*
X9962160Y-3886200D01*
X10002800Y-3926840D01*
X10256800Y-3164840D02*
X10297440Y-3124200D01*
X10256800Y-3083560D01*
X10216160Y-3124200D01*
X10256800Y-3164840D01*
X10256800Y-3926840D02*
X10297440Y-3886200D01*
X10256800Y-3845560D01*
X10216160Y-3886200D01*
X10256800Y-3926840D01*
X4038000Y-5794000D02*
X4138000Y-5894000D01*
X4138000Y-5794000D02*
X4038000Y-5894000D01*
X4138000Y-5844000D02*
G75*
G03*
X4138000Y-5844000I-50000J0D01*
G01*
X4038000Y-8194000D02*
X4138000Y-8294000D01*
X4138000Y-8194000D02*
X4038000Y-8294000D01*
X4138000Y-8244000D02*
G75*
G03*
X4138000Y-8244000I-50000J0D01*
G01*
X4038000Y-10594000D02*
X4138000Y-10694000D01*
X4138000Y-10594000D02*
X4038000Y-10694000D01*
X4138000Y-10644000D02*
G75*
G03*
X4138000Y-10644000I-50000J0D01*
G01*
X4038000Y-12994000D02*
X4138000Y-13094000D01*
X4138000Y-12994000D02*
X4038000Y-13094000D01*
X4138000Y-13044000D02*
G75*
G03*
X4138000Y-13044000I-50000J0D01*
G01*
X4288000Y-5794000D02*
X4388000Y-5894000D01*
X4388000Y-5794000D02*
X4288000Y-5894000D01*
X4388000Y-5844000D02*
G75*
G03*
X4388000Y-5844000I-50000J0D01*
G01*
X4288000Y-8194000D02*
X4388000Y-8294000D01*
X4388000Y-8194000D02*
X4288000Y-8294000D01*
X4388000Y-8244000D02*
G75*
G03*
X4388000Y-8244000I-50000J0D01*
G01*
X4288000Y-10594000D02*
X4388000Y-10694000D01*
X4388000Y-10594000D02*
X4288000Y-10694000D01*
X4388000Y-10644000D02*
G75*
G03*
X4388000Y-10644000I-50000J0D01*
G01*
X4288000Y-12994000D02*
X4388000Y-13094000D01*
X4388000Y-12994000D02*
X4288000Y-13094000D01*
X4388000Y-13044000D02*
G75*
G03*
X4388000Y-13044000I-50000J0D01*
G01*
X4538000Y-5794000D02*
X4638000Y-5894000D01*
X4638000Y-5794000D02*
X4538000Y-5894000D01*
X4638000Y-5844000D02*
G75*
G03*
X4638000Y-5844000I-50000J0D01*
G01*
X4538000Y-8194000D02*
X4638000Y-8294000D01*
X4638000Y-8194000D02*
X4538000Y-8294000D01*
X4638000Y-8244000D02*
G75*
G03*
X4638000Y-8244000I-50000J0D01*
G01*
X4538000Y-10594000D02*
X4638000Y-10694000D01*
X4638000Y-10594000D02*
X4538000Y-10694000D01*
X4638000Y-10644000D02*
G75*
G03*
X4638000Y-10644000I-50000J0D01*
G01*
X4538000Y-12994000D02*
X4638000Y-13094000D01*
X4638000Y-12994000D02*
X4538000Y-13094000D01*
X4638000Y-13044000D02*
G75*
G03*
X4638000Y-13044000I-50000J0D01*
G01*
X6466600Y-5794000D02*
X6566600Y-5894000D01*
X6566600Y-5794000D02*
X6466600Y-5894000D01*
X6566600Y-5844000D02*
G75*
G03*
X6566600Y-5844000I-50000J0D01*
G01*
X6466600Y-8194000D02*
X6566600Y-8294000D01*
X6566600Y-8194000D02*
X6466600Y-8294000D01*
X6566600Y-8244000D02*
G75*
G03*
X6566600Y-8244000I-50000J0D01*
G01*
X6466600Y-10594000D02*
X6566600Y-10694000D01*
X6566600Y-10594000D02*
X6466600Y-10694000D01*
X6566600Y-10644000D02*
G75*
G03*
X6566600Y-10644000I-50000J0D01*
G01*
X6466600Y-12994000D02*
X6566600Y-13094000D01*
X6566600Y-12994000D02*
X6466600Y-13094000D01*
X6566600Y-13044000D02*
G75*
G03*
X6566600Y-13044000I-50000J0D01*
G01*
X6716600Y-5794000D02*
X6816600Y-5894000D01*
X6816600Y-5794000D02*
X6716600Y-5894000D01*
X6816600Y-5844000D02*
G75*
G03*
X6816600Y-5844000I-50000J0D01*
G01*
X6716600Y-8194000D02*
X6816600Y-8294000D01*
X6816600Y-8194000D02*
X6716600Y-8294000D01*
X6816600Y-8244000D02*
G75*
G03*
X6816600Y-8244000I-50000J0D01*
G01*
X6716600Y-10594000D02*
X6816600Y-10694000D01*
X6816600Y-10594000D02*
X6716600Y-10694000D01*
X6816600Y-10644000D02*
G75*
G03*
X6816600Y-10644000I-50000J0D01*
G01*
X6716600Y-12994000D02*
X6816600Y-13094000D01*
X6816600Y-12994000D02*
X6716600Y-13094000D01*
X6816600Y-13044000D02*
G75*
G03*
X6816600Y-13044000I-50000J0D01*
G01*
X6966600Y-5794000D02*
X7066600Y-5894000D01*
X7066600Y-5794000D02*
X6966600Y-5894000D01*
X7066600Y-5844000D02*
G75*
G03*
X7066600Y-5844000I-50000J0D01*
G01*
X6966600Y-8194000D02*
X7066600Y-8294000D01*
X7066600Y-8194000D02*
X6966600Y-8294000D01*
X7066600Y-8244000D02*
G75*
G03*
X7066600Y-8244000I-50000J0D01*
G01*
X6966600Y-10594000D02*
X7066600Y-10694000D01*
X7066600Y-10594000D02*
X6966600Y-10694000D01*
X7066600Y-10644000D02*
G75*
G03*
X7066600Y-10644000I-50000J0D01*
G01*
X6966600Y-12994000D02*
X7066600Y-13094000D01*
X7066600Y-12994000D02*
X6966600Y-13094000D01*
X7066600Y-13044000D02*
G75*
G03*
X7066600Y-13044000I-50000J0D01*
G01*
X7412800Y-4388600D02*
X7512800Y-4488600D01*
X7512800Y-4388600D02*
X7412800Y-4488600D01*
X7512800Y-4438600D02*
G75*
G03*
X7512800Y-4438600I-50000J0D01*
G01*
X7920800Y-4388600D02*
X8020800Y-4488600D01*
X8020800Y-4388600D02*
X7920800Y-4488600D01*
X8020800Y-4438600D02*
G75*
G03*
X8020800Y-4438600I-50000J0D01*
G01*
X8895200Y-5794000D02*
X8995200Y-5894000D01*
X8995200Y-5794000D02*
X8895200Y-5894000D01*
X8995200Y-5844000D02*
G75*
G03*
X8995200Y-5844000I-50000J0D01*
G01*
X8895200Y-8194000D02*
X8995200Y-8294000D01*
X8995200Y-8194000D02*
X8895200Y-8294000D01*
X8995200Y-8244000D02*
G75*
G03*
X8995200Y-8244000I-50000J0D01*
G01*
X8895200Y-10594000D02*
X8995200Y-10694000D01*
X8995200Y-10594000D02*
X8895200Y-10694000D01*
X8995200Y-10644000D02*
G75*
G03*
X8995200Y-10644000I-50000J0D01*
G01*
X8895200Y-12994000D02*
X8995200Y-13094000D01*
X8995200Y-12994000D02*
X8895200Y-13094000D01*
X8995200Y-13044000D02*
G75*
G03*
X8995200Y-13044000I-50000J0D01*
G01*
X9145200Y-5794000D02*
X9245200Y-5894000D01*
X9245200Y-5794000D02*
X9145200Y-5894000D01*
X9245200Y-5844000D02*
G75*
G03*
X9245200Y-5844000I-50000J0D01*
G01*
X9145200Y-8194000D02*
X9245200Y-8294000D01*
X9245200Y-8194000D02*
X9145200Y-8294000D01*
X9245200Y-8244000D02*
G75*
G03*
X9245200Y-8244000I-50000J0D01*
G01*
X9145200Y-10594000D02*
X9245200Y-10694000D01*
X9245200Y-10594000D02*
X9145200Y-10694000D01*
X9245200Y-10644000D02*
G75*
G03*
X9245200Y-10644000I-50000J0D01*
G01*
X9145200Y-12994000D02*
X9245200Y-13094000D01*
X9245200Y-12994000D02*
X9145200Y-13094000D01*
X9245200Y-13044000D02*
G75*
G03*
X9245200Y-13044000I-50000J0D01*
G01*
X9395200Y-5794000D02*
X9495200Y-5894000D01*
X9495200Y-5794000D02*
X9395200Y-5894000D01*
X9495200Y-5844000D02*
G75*
G03*
X9495200Y-5844000I-50000J0D01*
G01*
X9395200Y-8194000D02*
X9495200Y-8294000D01*
X9495200Y-8194000D02*
X9395200Y-8294000D01*
X9495200Y-8244000D02*
G75*
G03*
X9495200Y-8244000I-50000J0D01*
G01*
X9395200Y-10594000D02*
X9495200Y-10694000D01*
X9495200Y-10594000D02*
X9395200Y-10694000D01*
X9495200Y-10644000D02*
G75*
G03*
X9495200Y-10644000I-50000J0D01*
G01*
X9395200Y-12994000D02*
X9495200Y-13094000D01*
X9495200Y-12994000D02*
X9395200Y-13094000D01*
X9495200Y-13044000D02*
G75*
G03*
X9495200Y-13044000I-50000J0D01*
G01*
X9698800Y-4388600D02*
X9798800Y-4488600D01*
X9798800Y-4388600D02*
X9698800Y-4488600D01*
X9798800Y-4438600D02*
G75*
G03*
X9798800Y-4438600I-50000J0D01*
G01*
X10206800Y-4388600D02*
X10306800Y-4488600D01*
X10306800Y-4388600D02*
X10206800Y-4488600D01*
X10306800Y-4438600D02*
G75*
G03*
X10306800Y-4438600I-50000J0D01*
G01*
X11323800Y-5794000D02*
X11423800Y-5894000D01*
X11423800Y-5794000D02*
X11323800Y-5894000D01*
X11423800Y-5844000D02*
G75*
G03*
X11423800Y-5844000I-50000J0D01*
G01*
X11323800Y-8194000D02*
X11423800Y-8294000D01*
X11423800Y-8194000D02*
X11323800Y-8294000D01*
X11423800Y-8244000D02*
G75*
G03*
X11423800Y-8244000I-50000J0D01*
G01*
X11323800Y-10594000D02*
X11423800Y-10694000D01*
X11423800Y-10594000D02*
X11323800Y-10694000D01*
X11423800Y-10644000D02*
G75*
G03*
X11423800Y-10644000I-50000J0D01*
G01*
X11323800Y-12994000D02*
X11423800Y-13094000D01*
X11423800Y-12994000D02*
X11323800Y-13094000D01*
X11423800Y-13044000D02*
G75*
G03*
X11423800Y-13044000I-50000J0D01*
G01*
X11573800Y-5794000D02*
X11673800Y-5894000D01*
X11673800Y-5794000D02*
X11573800Y-5894000D01*
X11673800Y-5844000D02*
G75*
G03*
X11673800Y-5844000I-50000J0D01*
G01*
X11573800Y-8194000D02*
X11673800Y-8294000D01*
X11673800Y-8194000D02*
X11573800Y-8294000D01*
X11673800Y-8244000D02*
G75*
G03*
X11673800Y-8244000I-50000J0D01*
G01*
X11573800Y-10594000D02*
X11673800Y-10694000D01*
X11673800Y-10594000D02*
X11573800Y-10694000D01*
X11673800Y-10644000D02*
G75*
G03*
X11673800Y-10644000I-50000J0D01*
G01*
X11573800Y-12994000D02*
X11673800Y-13094000D01*
X11673800Y-12994000D02*
X11573800Y-13094000D01*
X11673800Y-13044000D02*
G75*
G03*
X11673800Y-13044000I-50000J0D01*
G01*
X11823800Y-5794000D02*
X11923800Y-5894000D01*
X11923800Y-5794000D02*
X11823800Y-5894000D01*
X11923800Y-5844000D02*
G75*
G03*
X11923800Y-5844000I-50000J0D01*
G01*
X11823800Y-8194000D02*
X11923800Y-8294000D01*
X11923800Y-8194000D02*
X11823800Y-8294000D01*
X11923800Y-8244000D02*
G75*
G03*
X11923800Y-8244000I-50000J0D01*
G01*
X11823800Y-10594000D02*
X11923800Y-10694000D01*
X11923800Y-10594000D02*
X11823800Y-10694000D01*
X11923800Y-10644000D02*
G75*
G03*
X11923800Y-10644000I-50000J0D01*
G01*
X11823800Y-12994000D02*
X11923800Y-13094000D01*
X11923800Y-12994000D02*
X11823800Y-13094000D01*
X11923800Y-13044000D02*
G75*
G03*
X11923800Y-13044000I-50000J0D01*
G01*
X13752400Y-5794000D02*
X13852400Y-5894000D01*
X13852400Y-5794000D02*
X13752400Y-5894000D01*
X13852400Y-5844000D02*
G75*
G03*
X13852400Y-5844000I-50000J0D01*
G01*
X13752400Y-8194000D02*
X13852400Y-8294000D01*
X13852400Y-8194000D02*
X13752400Y-8294000D01*
X13852400Y-8244000D02*
G75*
G03*
X13852400Y-8244000I-50000J0D01*
G01*
X13752400Y-10594000D02*
X13852400Y-10694000D01*
X13852400Y-10594000D02*
X13752400Y-10694000D01*
X13852400Y-10644000D02*
G75*
G03*
X13852400Y-10644000I-50000J0D01*
G01*
X13752400Y-12994000D02*
X13852400Y-13094000D01*
X13852400Y-12994000D02*
X13752400Y-13094000D01*
X13852400Y-13044000D02*
G75*
G03*
X13852400Y-13044000I-50000J0D01*
G01*
X14002400Y-5794000D02*
X14102400Y-5894000D01*
X14102400Y-5794000D02*
X14002400Y-5894000D01*
X14102400Y-5844000D02*
G75*
G03*
X14102400Y-5844000I-50000J0D01*
G01*
X14002400Y-8194000D02*
X14102400Y-8294000D01*
X14102400Y-8194000D02*
X14002400Y-8294000D01*
X14102400Y-8244000D02*
G75*
G03*
X14102400Y-8244000I-50000J0D01*
G01*
X14002400Y-10594000D02*
X14102400Y-10694000D01*
X14102400Y-10594000D02*
X14002400Y-10694000D01*
X14102400Y-10644000D02*
G75*
G03*
X14102400Y-10644000I-50000J0D01*
G01*
X14002400Y-12994000D02*
X14102400Y-13094000D01*
X14102400Y-12994000D02*
X14002400Y-13094000D01*
X14102400Y-13044000D02*
G75*
G03*
X14102400Y-13044000I-50000J0D01*
G01*
X14252400Y-5794000D02*
X14352400Y-5894000D01*
X14352400Y-5794000D02*
X14252400Y-5894000D01*
X14352400Y-5844000D02*
G75*
G03*
X14352400Y-5844000I-50000J0D01*
G01*
X14252400Y-8194000D02*
X14352400Y-8294000D01*
X14352400Y-8194000D02*
X14252400Y-8294000D01*
X14352400Y-8244000D02*
G75*
G03*
X14352400Y-8244000I-50000J0D01*
G01*
X14252400Y-10594000D02*
X14352400Y-10694000D01*
X14352400Y-10594000D02*
X14252400Y-10694000D01*
X14352400Y-10644000D02*
G75*
G03*
X14352400Y-10644000I-50000J0D01*
G01*
X14252400Y-12994000D02*
X14352400Y-13094000D01*
X14352400Y-12994000D02*
X14252400Y-13094000D01*
X14352400Y-13044000D02*
G75*
G03*
X14352400Y-13044000I-50000J0D01*
G01*
X16181000Y-5794000D02*
X16281000Y-5894000D01*
X16281000Y-5794000D02*
X16181000Y-5894000D01*
X16281000Y-5844000D02*
G75*
G03*
X16281000Y-5844000I-50000J0D01*
G01*
X16181000Y-8194000D02*
X16281000Y-8294000D01*
X16281000Y-8194000D02*
X16181000Y-8294000D01*
X16281000Y-8244000D02*
G75*
G03*
X16281000Y-8244000I-50000J0D01*
G01*
X16181000Y-10594000D02*
X16281000Y-10694000D01*
X16281000Y-10594000D02*
X16181000Y-10694000D01*
X16281000Y-10644000D02*
G75*
G03*
X16281000Y-10644000I-50000J0D01*
G01*
X16181000Y-12994000D02*
X16281000Y-13094000D01*
X16281000Y-12994000D02*
X16181000Y-13094000D01*
X16281000Y-13044000D02*
G75*
G03*
X16281000Y-13044000I-50000J0D01*
G01*
X16431000Y-5794000D02*
X16531000Y-5894000D01*
X16531000Y-5794000D02*
X16431000Y-5894000D01*
X16531000Y-5844000D02*
G75*
G03*
X16531000Y-5844000I-50000J0D01*
G01*
X16431000Y-8194000D02*
X16531000Y-8294000D01*
X16531000Y-8194000D02*
X16431000Y-8294000D01*
X16531000Y-8244000D02*
G75*
G03*
X16531000Y-8244000I-50000J0D01*
G01*
X16431000Y-10594000D02*
X16531000Y-10694000D01*
X16531000Y-10594000D02*
X16431000Y-10694000D01*
X16531000Y-10644000D02*
G75*
G03*
X16531000Y-10644000I-50000J0D01*
G01*
X16431000Y-12994000D02*
X16531000Y-13094000D01*
X16531000Y-12994000D02*
X16431000Y-13094000D01*
X16531000Y-13044000D02*
G75*
G03*
X16531000Y-13044000I-50000J0D01*
G01*
X16681000Y-5794000D02*
X16781000Y-5894000D01*
X16781000Y-5794000D02*
X16681000Y-5894000D01*
X16781000Y-5844000D02*
G75*
G03*
X16781000Y-5844000I-50000J0D01*
G01*
X16681000Y-8194000D02*
X16781000Y-8294000D01*
X16781000Y-8194000D02*
X16681000Y-8294000D01*
X16781000Y-8244000D02*
G75*
G03*
X16781000Y-8244000I-50000J0D01*
G01*
X16681000Y-10594000D02*
X16781000Y-10694000D01*
X16781000Y-10594000D02*
X16681000Y-10694000D01*
X16781000Y-10644000D02*
G75*
G03*
X16781000Y-10644000I-50000J0D01*
G01*
X16681000Y-12994000D02*
X16781000Y-13094000D01*
X16781000Y-12994000D02*
X16681000Y-13094000D01*
X16781000Y-13044000D02*
G75*
G03*
X16781000Y-13044000I-50000J0D01*
G01*
X18365000Y-2566200D02*
X18465000Y-2666200D01*
X18465000Y-2566200D02*
X18365000Y-2666200D01*
X18465000Y-2616200D02*
G75*
G03*
X18465000Y-2616200I-50000J0D01*
G01*
X18365000Y-2820200D02*
X18465000Y-2920200D01*
X18465000Y-2820200D02*
X18365000Y-2920200D01*
X18465000Y-2870200D02*
G75*
G03*
X18465000Y-2870200I-50000J0D01*
G01*
X18609600Y-5794000D02*
X18709600Y-5894000D01*
X18709600Y-5794000D02*
X18609600Y-5894000D01*
X18709600Y-5844000D02*
G75*
G03*
X18709600Y-5844000I-50000J0D01*
G01*
X18609600Y-8194000D02*
X18709600Y-8294000D01*
X18709600Y-8194000D02*
X18609600Y-8294000D01*
X18709600Y-8244000D02*
G75*
G03*
X18709600Y-8244000I-50000J0D01*
G01*
X18609600Y-10594000D02*
X18709600Y-10694000D01*
X18709600Y-10594000D02*
X18609600Y-10694000D01*
X18709600Y-10644000D02*
G75*
G03*
X18709600Y-10644000I-50000J0D01*
G01*
X18609600Y-12994000D02*
X18709600Y-13094000D01*
X18709600Y-12994000D02*
X18609600Y-13094000D01*
X18709600Y-13044000D02*
G75*
G03*
X18709600Y-13044000I-50000J0D01*
G01*
X18619000Y-2566200D02*
X18719000Y-2666200D01*
X18719000Y-2566200D02*
X18619000Y-2666200D01*
X18719000Y-2616200D02*
G75*
G03*
X18719000Y-2616200I-50000J0D01*
G01*
X18619000Y-2820200D02*
X18719000Y-2920200D01*
X18719000Y-2820200D02*
X18619000Y-2920200D01*
X18719000Y-2870200D02*
G75*
G03*
X18719000Y-2870200I-50000J0D01*
G01*
X18859600Y-5794000D02*
X18959600Y-5894000D01*
X18959600Y-5794000D02*
X18859600Y-5894000D01*
X18959600Y-5844000D02*
G75*
G03*
X18959600Y-5844000I-50000J0D01*
G01*
X18859600Y-8194000D02*
X18959600Y-8294000D01*
X18959600Y-8194000D02*
X18859600Y-8294000D01*
X18959600Y-8244000D02*
G75*
G03*
X18959600Y-8244000I-50000J0D01*
G01*
X18859600Y-10594000D02*
X18959600Y-10694000D01*
X18959600Y-10594000D02*
X18859600Y-10694000D01*
X18959600Y-10644000D02*
G75*
G03*
X18959600Y-10644000I-50000J0D01*
G01*
X18859600Y-12994000D02*
X18959600Y-13094000D01*
X18959600Y-12994000D02*
X18859600Y-13094000D01*
X18959600Y-13044000D02*
G75*
G03*
X18959600Y-13044000I-50000J0D01*
G01*
X18873000Y-2566200D02*
X18973000Y-2666200D01*
X18973000Y-2566200D02*
X18873000Y-2666200D01*
X18973000Y-2616200D02*
G75*
G03*
X18973000Y-2616200I-50000J0D01*
G01*
X18873000Y-2820200D02*
X18973000Y-2920200D01*
X18973000Y-2820200D02*
X18873000Y-2920200D01*
X18973000Y-2870200D02*
G75*
G03*
X18973000Y-2870200I-50000J0D01*
G01*
X19109600Y-5794000D02*
X19209600Y-5894000D01*
X19209600Y-5794000D02*
X19109600Y-5894000D01*
X19209600Y-5844000D02*
G75*
G03*
X19209600Y-5844000I-50000J0D01*
G01*
X19109600Y-8194000D02*
X19209600Y-8294000D01*
X19209600Y-8194000D02*
X19109600Y-8294000D01*
X19209600Y-8244000D02*
G75*
G03*
X19209600Y-8244000I-50000J0D01*
G01*
X19109600Y-10594000D02*
X19209600Y-10694000D01*
X19209600Y-10594000D02*
X19109600Y-10694000D01*
X19209600Y-10644000D02*
G75*
G03*
X19209600Y-10644000I-50000J0D01*
G01*
X19109600Y-12994000D02*
X19209600Y-13094000D01*
X19209600Y-12994000D02*
X19109600Y-13094000D01*
X19209600Y-13044000D02*
G75*
G03*
X19209600Y-13044000I-50000J0D01*
G01*
X19127000Y-2566200D02*
X19227000Y-2666200D01*
X19227000Y-2566200D02*
X19127000Y-2666200D01*
X19227000Y-2616200D02*
G75*
G03*
X19227000Y-2616200I-50000J0D01*
G01*
X19127000Y-2820200D02*
X19227000Y-2920200D01*
X19227000Y-2820200D02*
X19127000Y-2920200D01*
X19227000Y-2870200D02*
G75*
G03*
X19227000Y-2870200I-50000J0D01*
G01*
X19381000Y-2566200D02*
X19481000Y-2666200D01*
X19481000Y-2566200D02*
X19381000Y-2666200D01*
X19481000Y-2616200D02*
G75*
G03*
X19481000Y-2616200I-50000J0D01*
G01*
X19381000Y-2820200D02*
X19481000Y-2920200D01*
X19481000Y-2820200D02*
X19381000Y-2920200D01*
X19481000Y-2870200D02*
G75*
G03*
X19481000Y-2870200I-50000J0D01*
G01*
X19687070Y-11890540D02*
X19787070Y-11990540D01*
X19787070Y-11890540D02*
X19687070Y-11990540D01*
X19787070Y-11940540D02*
G75*
G03*
X19787070Y-11940540I-50000J0D01*
G01*
X19687070Y-12144540D02*
X19787070Y-12244540D01*
X19787070Y-12144540D02*
X19687070Y-12244540D01*
X19787070Y-12194540D02*
G75*
G03*
X19787070Y-12194540I-50000J0D01*
G01*
X19687070Y-12398540D02*
X19787070Y-12498540D01*
X19787070Y-12398540D02*
X19687070Y-12498540D01*
X19787070Y-12448540D02*
G75*
G03*
X19787070Y-12448540I-50000J0D01*
G01*
X19687070Y-12652540D02*
X19787070Y-12752540D01*
X19787070Y-12652540D02*
X19687070Y-12752540D01*
X19787070Y-12702540D02*
G75*
G03*
X19787070Y-12702540I-50000J0D01*
G01*
X20449070Y-11890540D02*
X20549070Y-11990540D01*
X20549070Y-11890540D02*
X20449070Y-11990540D01*
X20549070Y-11940540D02*
G75*
G03*
X20549070Y-11940540I-50000J0D01*
G01*
X20449070Y-12144540D02*
X20549070Y-12244540D01*
X20549070Y-12144540D02*
X20449070Y-12244540D01*
X20549070Y-12194540D02*
G75*
G03*
X20549070Y-12194540I-50000J0D01*
G01*
X20449070Y-12398540D02*
X20549070Y-12498540D01*
X20549070Y-12398540D02*
X20449070Y-12498540D01*
X20549070Y-12448540D02*
G75*
G03*
X20549070Y-12448540I-50000J0D01*
G01*
X20449070Y-12652540D02*
X20549070Y-12752540D01*
X20549070Y-12652540D02*
X20449070Y-12752540D01*
X20549070Y-12702540D02*
G75*
G03*
X20549070Y-12702540I-50000J0D01*
G01*
X21038200Y-5794000D02*
X21138200Y-5894000D01*
X21138200Y-5794000D02*
X21038200Y-5894000D01*
X21138200Y-5844000D02*
G75*
G03*
X21138200Y-5844000I-50000J0D01*
G01*
X21038200Y-8194000D02*
X21138200Y-8294000D01*
X21138200Y-8194000D02*
X21038200Y-8294000D01*
X21138200Y-8244000D02*
G75*
G03*
X21138200Y-8244000I-50000J0D01*
G01*
X21038200Y-10594000D02*
X21138200Y-10694000D01*
X21138200Y-10594000D02*
X21038200Y-10694000D01*
X21138200Y-10644000D02*
G75*
G03*
X21138200Y-10644000I-50000J0D01*
G01*
X21038200Y-12994000D02*
X21138200Y-13094000D01*
X21138200Y-12994000D02*
X21038200Y-13094000D01*
X21138200Y-13044000D02*
G75*
G03*
X21138200Y-13044000I-50000J0D01*
G01*
X21288200Y-5794000D02*
X21388200Y-5894000D01*
X21388200Y-5794000D02*
X21288200Y-5894000D01*
X21388200Y-5844000D02*
G75*
G03*
X21388200Y-5844000I-50000J0D01*
G01*
X21288200Y-8194000D02*
X21388200Y-8294000D01*
X21388200Y-8194000D02*
X21288200Y-8294000D01*
X21388200Y-8244000D02*
G75*
G03*
X21388200Y-8244000I-50000J0D01*
G01*
X21288200Y-10594000D02*
X21388200Y-10694000D01*
X21388200Y-10594000D02*
X21288200Y-10694000D01*
X21388200Y-10644000D02*
G75*
G03*
X21388200Y-10644000I-50000J0D01*
G01*
X21288200Y-12994000D02*
X21388200Y-13094000D01*
X21388200Y-12994000D02*
X21288200Y-13094000D01*
X21388200Y-13044000D02*
G75*
G03*
X21388200Y-13044000I-50000J0D01*
G01*
X21538200Y-5794000D02*
X21638200Y-5894000D01*
X21638200Y-5794000D02*
X21538200Y-5894000D01*
X21638200Y-5844000D02*
G75*
G03*
X21638200Y-5844000I-50000J0D01*
G01*
X21538200Y-8194000D02*
X21638200Y-8294000D01*
X21638200Y-8194000D02*
X21538200Y-8294000D01*
X21638200Y-8244000D02*
G75*
G03*
X21638200Y-8244000I-50000J0D01*
G01*
X21538200Y-10594000D02*
X21638200Y-10694000D01*
X21638200Y-10594000D02*
X21538200Y-10694000D01*
X21638200Y-10644000D02*
G75*
G03*
X21638200Y-10644000I-50000J0D01*
G01*
X21538200Y-12994000D02*
X21638200Y-13094000D01*
X21638200Y-12994000D02*
X21538200Y-13094000D01*
X21638200Y-13044000D02*
G75*
G03*
X21638200Y-13044000I-50000J0D01*
G01*
X6397244Y-2948178D02*
X6498844Y-3049778D01*
X6498844Y-2948178D02*
X6397244Y-3049778D01*
X6448044Y-2948178D02*
X6448044Y-3049778D01*
X6397244Y-2998978D02*
X6498844Y-2998978D01*
X6397244Y-3400298D02*
X6498844Y-3501898D01*
X6498844Y-3400298D02*
X6397244Y-3501898D01*
X6448044Y-3400298D02*
X6448044Y-3501898D01*
X6397244Y-3451098D02*
X6498844Y-3451098D01*
X6397498Y-3910584D02*
X6499098Y-4012184D01*
X6499098Y-3910584D02*
X6397498Y-4012184D01*
X6448298Y-3910584D02*
X6448298Y-4012184D01*
X6397498Y-3961384D02*
X6499098Y-3961384D01*
X6397498Y-4362704D02*
X6499098Y-4464304D01*
X6499098Y-4362704D02*
X6397498Y-4464304D01*
X6448298Y-4362704D02*
X6448298Y-4464304D01*
X6397498Y-4413504D02*
X6499098Y-4413504D01*
X7047484Y-2948178D02*
X7149084Y-3049778D01*
X7149084Y-2948178D02*
X7047484Y-3049778D01*
X7098284Y-2948178D02*
X7098284Y-3049778D01*
X7047484Y-2998978D02*
X7149084Y-2998978D01*
X7047484Y-3400298D02*
X7149084Y-3501898D01*
X7149084Y-3400298D02*
X7047484Y-3501898D01*
X7098284Y-3400298D02*
X7098284Y-3501898D01*
X7047484Y-3451098D02*
X7149084Y-3451098D01*
X7047738Y-3910584D02*
X7149338Y-4012184D01*
X7149338Y-3910584D02*
X7047738Y-4012184D01*
X7098538Y-3910584D02*
X7098538Y-4012184D01*
X7047738Y-3961384D02*
X7149338Y-3961384D01*
X7047738Y-4362704D02*
X7149338Y-4464304D01*
X7149338Y-4362704D02*
X7047738Y-4464304D01*
X7098538Y-4362704D02*
X7098538Y-4464304D01*
X7047738Y-4413504D02*
X7149338Y-4413504D01*
X8428000Y-4393800D02*
X8529600Y-4495400D01*
X8529600Y-4393800D02*
X8428000Y-4495400D01*
X8478800Y-4393800D02*
X8478800Y-4495400D01*
X8428000Y-4444600D02*
X8529600Y-4444600D01*
X9190000Y-4393800D02*
X9291600Y-4495400D01*
X9291600Y-4393800D02*
X9190000Y-4495400D01*
X9240800Y-4393800D02*
X9240800Y-4495400D01*
X9190000Y-4444600D02*
X9291600Y-4444600D01*
X19431000Y-3327400D02*
X19532600Y-3429000D01*
X19532600Y-3327400D02*
X19431000Y-3429000D01*
X19481800Y-3327400D02*
X19481800Y-3429000D01*
X19431000Y-3378200D02*
X19532600Y-3378200D01*
X19431000Y-4851400D02*
X19532600Y-4953000D01*
X19532600Y-4851400D02*
X19431000Y-4953000D01*
X19481800Y-4851400D02*
X19481800Y-4953000D01*
X19431000Y-4902200D02*
X19532600Y-4902200D01*
X19656892Y-7635408D02*
X19758492Y-7737008D01*
X19758492Y-7635408D02*
X19656892Y-7737008D01*
X19707692Y-7635408D02*
X19707692Y-7737008D01*
X19656892Y-7686208D02*
X19758492Y-7686208D01*
X19656892Y-9943808D02*
X19758492Y-10045408D01*
X19758492Y-9943808D02*
X19656892Y-10045408D01*
X19707692Y-9943808D02*
X19707692Y-10045408D01*
X19656892Y-9994608D02*
X19758492Y-9994608D01*
X19685000Y-3327400D02*
X19786600Y-3429000D01*
X19786600Y-3327400D02*
X19685000Y-3429000D01*
X19735800Y-3327400D02*
X19735800Y-3429000D01*
X19685000Y-3378200D02*
X19786600Y-3378200D01*
X19685000Y-4851400D02*
X19786600Y-4953000D01*
X19786600Y-4851400D02*
X19685000Y-4953000D01*
X19735800Y-4851400D02*
X19735800Y-4953000D01*
X19685000Y-4902200D02*
X19786600Y-4902200D01*
X19712940Y-5255260D02*
X19814540Y-5356860D01*
X19814540Y-5255260D02*
X19712940Y-5356860D01*
X19763740Y-5255260D02*
X19763740Y-5356860D01*
X19712940Y-5306060D02*
X19814540Y-5306060D01*
X19712940Y-5707380D02*
X19814540Y-5808980D01*
X19814540Y-5707380D02*
X19712940Y-5808980D01*
X19763740Y-5707380D02*
X19763740Y-5808980D01*
X19712940Y-5758180D02*
X19814540Y-5758180D01*
X19794592Y-13986308D02*
X19896192Y-14087908D01*
X19896192Y-13986308D02*
X19794592Y-14087908D01*
X19845392Y-13986308D02*
X19845392Y-14087908D01*
X19794592Y-14037108D02*
X19896192Y-14037108D01*
X19939000Y-3327400D02*
X20040600Y-3429000D01*
X20040600Y-3327400D02*
X19939000Y-3429000D01*
X19989800Y-3327400D02*
X19989800Y-3429000D01*
X19939000Y-3378200D02*
X20040600Y-3378200D01*
X19939000Y-4851400D02*
X20040600Y-4953000D01*
X20040600Y-4851400D02*
X19939000Y-4953000D01*
X19989800Y-4851400D02*
X19989800Y-4953000D01*
X19939000Y-4902200D02*
X20040600Y-4902200D01*
X19961692Y-7952908D02*
X20063292Y-8054508D01*
X20063292Y-7952908D02*
X19961692Y-8054508D01*
X20012492Y-7952908D02*
X20012492Y-8054508D01*
X19961692Y-8003708D02*
X20063292Y-8003708D01*
X19961692Y-10288808D02*
X20063292Y-10390408D01*
X20063292Y-10288808D02*
X19961692Y-10390408D01*
X20012492Y-10288808D02*
X20012492Y-10390408D01*
X19961692Y-10339608D02*
X20063292Y-10339608D01*
X20193000Y-3327400D02*
X20294600Y-3429000D01*
X20294600Y-3327400D02*
X20193000Y-3429000D01*
X20243800Y-3327400D02*
X20243800Y-3429000D01*
X20193000Y-3378200D02*
X20294600Y-3378200D01*
X20193000Y-4851400D02*
X20294600Y-4953000D01*
X20294600Y-4851400D02*
X20193000Y-4953000D01*
X20243800Y-4851400D02*
X20243800Y-4953000D01*
X20193000Y-4902200D02*
X20294600Y-4902200D01*
X20195708Y-7096592D02*
X20297308Y-7198192D01*
X20297308Y-7096592D02*
X20195708Y-7198192D01*
X20246508Y-7096592D02*
X20246508Y-7198192D01*
X20195708Y-7147392D02*
X20297308Y-7147392D01*
X20195708Y-9404992D02*
X20297308Y-9506592D01*
X20297308Y-9404992D02*
X20195708Y-9506592D01*
X20246508Y-9404992D02*
X20246508Y-9506592D01*
X20195708Y-9455792D02*
X20297308Y-9455792D01*
X20333408Y-13447492D02*
X20435008Y-13549092D01*
X20435008Y-13447492D02*
X20333408Y-13549092D01*
X20384208Y-13447492D02*
X20384208Y-13549092D01*
X20333408Y-13498292D02*
X20435008Y-13498292D01*
X20363180Y-5255260D02*
X20464780Y-5356860D01*
X20464780Y-5255260D02*
X20363180Y-5356860D01*
X20413980Y-5255260D02*
X20413980Y-5356860D01*
X20363180Y-5306060D02*
X20464780Y-5306060D01*
X20363180Y-5707380D02*
X20464780Y-5808980D01*
X20464780Y-5707380D02*
X20363180Y-5808980D01*
X20413980Y-5707380D02*
X20413980Y-5808980D01*
X20363180Y-5758180D02*
X20464780Y-5758180D01*
X20447000Y-3327400D02*
X20548600Y-3429000D01*
X20548600Y-3327400D02*
X20447000Y-3429000D01*
X20497800Y-3327400D02*
X20497800Y-3429000D01*
X20447000Y-3378200D02*
X20548600Y-3378200D01*
X20447000Y-4851400D02*
X20548600Y-4953000D01*
X20548600Y-4851400D02*
X20447000Y-4953000D01*
X20497800Y-4851400D02*
X20497800Y-4953000D01*
X20447000Y-4902200D02*
X20548600Y-4902200D01*
X20500508Y-7414092D02*
X20602108Y-7515692D01*
X20602108Y-7414092D02*
X20500508Y-7515692D01*
X20551308Y-7414092D02*
X20551308Y-7515692D01*
X20500508Y-7464892D02*
X20602108Y-7464892D01*
X20500508Y-9749992D02*
X20602108Y-9851592D01*
X20602108Y-9749992D02*
X20500508Y-9851592D01*
X20551308Y-9749992D02*
X20551308Y-9851592D01*
X20500508Y-9800792D02*
X20602108Y-9800792D01*
X20701000Y-3327400D02*
X20802600Y-3429000D01*
X20802600Y-3327400D02*
X20701000Y-3429000D01*
X20751800Y-3327400D02*
X20751800Y-3429000D01*
X20701000Y-3378200D02*
X20802600Y-3378200D01*
X20701000Y-4851400D02*
X20802600Y-4953000D01*
X20802600Y-4851400D02*
X20701000Y-4953000D01*
X20751800Y-4851400D02*
X20751800Y-4953000D01*
X20701000Y-4902200D02*
X20802600Y-4902200D01*
X20955000Y-3327400D02*
X21056600Y-3429000D01*
X21056600Y-3327400D02*
X20955000Y-3429000D01*
X21005800Y-3327400D02*
X21005800Y-3429000D01*
X20955000Y-3378200D02*
X21056600Y-3378200D01*
X20955000Y-4851400D02*
X21056600Y-4953000D01*
X21056600Y-4851400D02*
X20955000Y-4953000D01*
X21005800Y-4851400D02*
X21005800Y-4953000D01*
X20955000Y-4902200D02*
X21056600Y-4902200D01*
X21209000Y-3327400D02*
X21310600Y-3429000D01*
X21310600Y-3327400D02*
X21209000Y-3429000D01*
X21259800Y-3327400D02*
X21259800Y-3429000D01*
X21209000Y-3378200D02*
X21310600Y-3378200D01*
X21209000Y-4851400D02*
X21310600Y-4953000D01*
X21310600Y-4851400D02*
X21209000Y-4953000D01*
X21259800Y-4851400D02*
X21259800Y-4953000D01*
X21209000Y-4902200D02*
X21310600Y-4902200D01*
X21463000Y-3327400D02*
X21564600Y-3429000D01*
X21564600Y-3327400D02*
X21463000Y-3429000D01*
X21513800Y-3327400D02*
X21513800Y-3429000D01*
X21463000Y-3378200D02*
X21564600Y-3378200D01*
X21463000Y-4851400D02*
X21564600Y-4953000D01*
X21564600Y-4851400D02*
X21463000Y-4953000D01*
X21513800Y-4851400D02*
X21513800Y-4953000D01*
X21463000Y-4902200D02*
X21564600Y-4902200D01*
X21717000Y-3327400D02*
X21818600Y-3429000D01*
X21818600Y-3327400D02*
X21717000Y-3429000D01*
X21767800Y-3327400D02*
X21767800Y-3429000D01*
X21717000Y-3378200D02*
X21818600Y-3378200D01*
X21717000Y-4851400D02*
X21818600Y-4953000D01*
X21818600Y-4851400D02*
X21717000Y-4953000D01*
X21767800Y-4851400D02*
X21767800Y-4953000D01*
X21717000Y-4902200D02*
X21818600Y-4902200D01*
X21971000Y-3327400D02*
X22072600Y-3429000D01*
X22072600Y-3327400D02*
X21971000Y-3429000D01*
X22021800Y-3327400D02*
X22021800Y-3429000D01*
X21971000Y-3378200D02*
X22072600Y-3378200D01*
X21971000Y-4851400D02*
X22072600Y-4953000D01*
X22072600Y-4851400D02*
X21971000Y-4953000D01*
X22021800Y-4851400D02*
X22021800Y-4953000D01*
X21971000Y-4902200D02*
X22072600Y-4902200D01*
X22225000Y-3327400D02*
X22326600Y-3429000D01*
X22326600Y-3327400D02*
X22225000Y-3429000D01*
X22275800Y-3327400D02*
X22275800Y-3429000D01*
X22225000Y-3378200D02*
X22326600Y-3378200D01*
X22225000Y-4851400D02*
X22326600Y-4953000D01*
X22326600Y-4851400D02*
X22225000Y-4953000D01*
X22275800Y-4851400D02*
X22275800Y-4953000D01*
X22225000Y-4902200D02*
X22326600Y-4902200D01*
X10617000Y-4800400D02*
X10719000Y-4902400D01*
X10719000Y-4800400D02*
X10617000Y-4902400D01*
X10704063Y-4887463D02*
X10704063Y-4815337D01*
X10631937Y-4815337D01*
X10631937Y-4887463D01*
X10704063Y-4887463D01*
X10871000Y-4800400D02*
X10973000Y-4902400D01*
X10973000Y-4800400D02*
X10871000Y-4902400D01*
X10958063Y-4887463D02*
X10958063Y-4815337D01*
X10885937Y-4815337D01*
X10885937Y-4887463D01*
X10958063Y-4887463D01*
X11125000Y-4800400D02*
X11227000Y-4902400D01*
X11227000Y-4800400D02*
X11125000Y-4902400D01*
X11212063Y-4887463D02*
X11212063Y-4815337D01*
X11139937Y-4815337D01*
X11139937Y-4887463D01*
X11212063Y-4887463D01*
X11379000Y-4800400D02*
X11481000Y-4902400D01*
X11481000Y-4800400D02*
X11379000Y-4902400D01*
X11466063Y-4887463D02*
X11466063Y-4815337D01*
X11393937Y-4815337D01*
X11393937Y-4887463D01*
X11466063Y-4887463D01*
X11633000Y-3276400D02*
X11735000Y-3378400D01*
X11735000Y-3276400D02*
X11633000Y-3378400D01*
X11720063Y-3363463D02*
X11720063Y-3291337D01*
X11647937Y-3291337D01*
X11647937Y-3363463D01*
X11720063Y-3363463D01*
X11633000Y-4800400D02*
X11735000Y-4902400D01*
X11735000Y-4800400D02*
X11633000Y-4902400D01*
X11720063Y-4887463D02*
X11720063Y-4815337D01*
X11647937Y-4815337D01*
X11647937Y-4887463D01*
X11720063Y-4887463D01*
X11887000Y-3276400D02*
X11989000Y-3378400D01*
X11989000Y-3276400D02*
X11887000Y-3378400D01*
X11974063Y-3363463D02*
X11974063Y-3291337D01*
X11901937Y-3291337D01*
X11901937Y-3363463D01*
X11974063Y-3363463D01*
X11887000Y-4800400D02*
X11989000Y-4902400D01*
X11989000Y-4800400D02*
X11887000Y-4902400D01*
X11974063Y-4887463D02*
X11974063Y-4815337D01*
X11901937Y-4815337D01*
X11901937Y-4887463D01*
X11974063Y-4887463D01*
X12141000Y-3276400D02*
X12243000Y-3378400D01*
X12243000Y-3276400D02*
X12141000Y-3378400D01*
X12228063Y-3363463D02*
X12228063Y-3291337D01*
X12155937Y-3291337D01*
X12155937Y-3363463D01*
X12228063Y-3363463D01*
X12141000Y-4800400D02*
X12243000Y-4902400D01*
X12243000Y-4800400D02*
X12141000Y-4902400D01*
X12228063Y-4887463D02*
X12228063Y-4815337D01*
X12155937Y-4815337D01*
X12155937Y-4887463D01*
X12228063Y-4887463D01*
X12395000Y-3276400D02*
X12497000Y-3378400D01*
X12497000Y-3276400D02*
X12395000Y-3378400D01*
X12482063Y-3363463D02*
X12482063Y-3291337D01*
X12409937Y-3291337D01*
X12409937Y-3363463D01*
X12482063Y-3363463D01*
X12395000Y-4800400D02*
X12497000Y-4902400D01*
X12497000Y-4800400D02*
X12395000Y-4902400D01*
X12482063Y-4887463D02*
X12482063Y-4815337D01*
X12409937Y-4815337D01*
X12409937Y-4887463D01*
X12482063Y-4887463D01*
X12649000Y-3276400D02*
X12751000Y-3378400D01*
X12751000Y-3276400D02*
X12649000Y-3378400D01*
X12736063Y-3363463D02*
X12736063Y-3291337D01*
X12663937Y-3291337D01*
X12663937Y-3363463D01*
X12736063Y-3363463D01*
X12649000Y-4800400D02*
X12751000Y-4902400D01*
X12751000Y-4800400D02*
X12649000Y-4902400D01*
X12736063Y-4887463D02*
X12736063Y-4815337D01*
X12663937Y-4815337D01*
X12663937Y-4887463D01*
X12736063Y-4887463D01*
X12903000Y-3276400D02*
X13005000Y-3378400D01*
X13005000Y-3276400D02*
X12903000Y-3378400D01*
X12990063Y-3363463D02*
X12990063Y-3291337D01*
X12917937Y-3291337D01*
X12917937Y-3363463D01*
X12990063Y-3363463D01*
X12903000Y-4800400D02*
X13005000Y-4902400D01*
X13005000Y-4800400D02*
X12903000Y-4902400D01*
X12990063Y-4887463D02*
X12990063Y-4815337D01*
X12917937Y-4815337D01*
X12917937Y-4887463D01*
X12990063Y-4887463D01*
X13157000Y-3276400D02*
X13259000Y-3378400D01*
X13259000Y-3276400D02*
X13157000Y-3378400D01*
X13244063Y-3363463D02*
X13244063Y-3291337D01*
X13171937Y-3291337D01*
X13171937Y-3363463D01*
X13244063Y-3363463D01*
X13157000Y-4800400D02*
X13259000Y-4902400D01*
X13259000Y-4800400D02*
X13157000Y-4902400D01*
X13244063Y-4887463D02*
X13244063Y-4815337D01*
X13171937Y-4815337D01*
X13171937Y-4887463D01*
X13244063Y-4887463D01*
X13411000Y-3276400D02*
X13513000Y-3378400D01*
X13513000Y-3276400D02*
X13411000Y-3378400D01*
X13498063Y-3363463D02*
X13498063Y-3291337D01*
X13425937Y-3291337D01*
X13425937Y-3363463D01*
X13498063Y-3363463D01*
X13411000Y-4800400D02*
X13513000Y-4902400D01*
X13513000Y-4800400D02*
X13411000Y-4902400D01*
X13498063Y-4887463D02*
X13498063Y-4815337D01*
X13425937Y-4815337D01*
X13425937Y-4887463D01*
X13498063Y-4887463D01*
X13665000Y-4800400D02*
X13767000Y-4902400D01*
X13767000Y-4800400D02*
X13665000Y-4902400D01*
X13752063Y-4887463D02*
X13752063Y-4815337D01*
X13679937Y-4815337D01*
X13679937Y-4887463D01*
X13752063Y-4887463D01*
X13919000Y-4800400D02*
X14021000Y-4902400D01*
X14021000Y-4800400D02*
X13919000Y-4902400D01*
X14006063Y-4887463D02*
X14006063Y-4815337D01*
X13933937Y-4815337D01*
X13933937Y-4887463D01*
X14006063Y-4887463D01*
X14173000Y-4800400D02*
X14275000Y-4902400D01*
X14275000Y-4800400D02*
X14173000Y-4902400D01*
X14260063Y-4887463D02*
X14260063Y-4815337D01*
X14187937Y-4815337D01*
X14187937Y-4887463D01*
X14260063Y-4887463D01*
X14427000Y-4800400D02*
X14529000Y-4902400D01*
X14529000Y-4800400D02*
X14427000Y-4902400D01*
X14514063Y-4887463D02*
X14514063Y-4815337D01*
X14441937Y-4815337D01*
X14441937Y-4887463D01*
X14514063Y-4887463D01*
X14985800Y-4800400D02*
X15087800Y-4902400D01*
X15087800Y-4800400D02*
X14985800Y-4902400D01*
X15072863Y-4887463D02*
X15072863Y-4815337D01*
X15000737Y-4815337D01*
X15000737Y-4887463D01*
X15072863Y-4887463D01*
X15239800Y-4800400D02*
X15341800Y-4902400D01*
X15341800Y-4800400D02*
X15239800Y-4902400D01*
X15326863Y-4887463D02*
X15326863Y-4815337D01*
X15254737Y-4815337D01*
X15254737Y-4887463D01*
X15326863Y-4887463D01*
X15493800Y-4800400D02*
X15595800Y-4902400D01*
X15595800Y-4800400D02*
X15493800Y-4902400D01*
X15580863Y-4887463D02*
X15580863Y-4815337D01*
X15508737Y-4815337D01*
X15508737Y-4887463D01*
X15580863Y-4887463D01*
X15747800Y-4800400D02*
X15849800Y-4902400D01*
X15849800Y-4800400D02*
X15747800Y-4902400D01*
X15834863Y-4887463D02*
X15834863Y-4815337D01*
X15762737Y-4815337D01*
X15762737Y-4887463D01*
X15834863Y-4887463D01*
X16001800Y-3276400D02*
X16103800Y-3378400D01*
X16103800Y-3276400D02*
X16001800Y-3378400D01*
X16088863Y-3363463D02*
X16088863Y-3291337D01*
X16016737Y-3291337D01*
X16016737Y-3363463D01*
X16088863Y-3363463D01*
X16001800Y-4800400D02*
X16103800Y-4902400D01*
X16103800Y-4800400D02*
X16001800Y-4902400D01*
X16088863Y-4887463D02*
X16088863Y-4815337D01*
X16016737Y-4815337D01*
X16016737Y-4887463D01*
X16088863Y-4887463D01*
X16255800Y-3276400D02*
X16357800Y-3378400D01*
X16357800Y-3276400D02*
X16255800Y-3378400D01*
X16342863Y-3363463D02*
X16342863Y-3291337D01*
X16270737Y-3291337D01*
X16270737Y-3363463D01*
X16342863Y-3363463D01*
X16255800Y-4800400D02*
X16357800Y-4902400D01*
X16357800Y-4800400D02*
X16255800Y-4902400D01*
X16342863Y-4887463D02*
X16342863Y-4815337D01*
X16270737Y-4815337D01*
X16270737Y-4887463D01*
X16342863Y-4887463D01*
X16509800Y-3276400D02*
X16611800Y-3378400D01*
X16611800Y-3276400D02*
X16509800Y-3378400D01*
X16596863Y-3363463D02*
X16596863Y-3291337D01*
X16524737Y-3291337D01*
X16524737Y-3363463D01*
X16596863Y-3363463D01*
X16509800Y-4800400D02*
X16611800Y-4902400D01*
X16611800Y-4800400D02*
X16509800Y-4902400D01*
X16596863Y-4887463D02*
X16596863Y-4815337D01*
X16524737Y-4815337D01*
X16524737Y-4887463D01*
X16596863Y-4887463D01*
X16763800Y-3276400D02*
X16865800Y-3378400D01*
X16865800Y-3276400D02*
X16763800Y-3378400D01*
X16850863Y-3363463D02*
X16850863Y-3291337D01*
X16778737Y-3291337D01*
X16778737Y-3363463D01*
X16850863Y-3363463D01*
X16763800Y-4800400D02*
X16865800Y-4902400D01*
X16865800Y-4800400D02*
X16763800Y-4902400D01*
X16850863Y-4887463D02*
X16850863Y-4815337D01*
X16778737Y-4815337D01*
X16778737Y-4887463D01*
X16850863Y-4887463D01*
X17017800Y-3276400D02*
X17119800Y-3378400D01*
X17119800Y-3276400D02*
X17017800Y-3378400D01*
X17104863Y-3363463D02*
X17104863Y-3291337D01*
X17032737Y-3291337D01*
X17032737Y-3363463D01*
X17104863Y-3363463D01*
X17017800Y-4800400D02*
X17119800Y-4902400D01*
X17119800Y-4800400D02*
X17017800Y-4902400D01*
X17104863Y-4887463D02*
X17104863Y-4815337D01*
X17032737Y-4815337D01*
X17032737Y-4887463D01*
X17104863Y-4887463D01*
X17271800Y-3276400D02*
X17373800Y-3378400D01*
X17373800Y-3276400D02*
X17271800Y-3378400D01*
X17358863Y-3363463D02*
X17358863Y-3291337D01*
X17286737Y-3291337D01*
X17286737Y-3363463D01*
X17358863Y-3363463D01*
X17271800Y-4800400D02*
X17373800Y-4902400D01*
X17373800Y-4800400D02*
X17271800Y-4902400D01*
X17358863Y-4887463D02*
X17358863Y-4815337D01*
X17286737Y-4815337D01*
X17286737Y-4887463D01*
X17358863Y-4887463D01*
X17525800Y-3276400D02*
X17627800Y-3378400D01*
X17627800Y-3276400D02*
X17525800Y-3378400D01*
X17612863Y-3363463D02*
X17612863Y-3291337D01*
X17540737Y-3291337D01*
X17540737Y-3363463D01*
X17612863Y-3363463D01*
X17525800Y-4800400D02*
X17627800Y-4902400D01*
X17627800Y-4800400D02*
X17525800Y-4902400D01*
X17612863Y-4887463D02*
X17612863Y-4815337D01*
X17540737Y-4815337D01*
X17540737Y-4887463D01*
X17612863Y-4887463D01*
X17779800Y-3276400D02*
X17881800Y-3378400D01*
X17881800Y-3276400D02*
X17779800Y-3378400D01*
X17866863Y-3363463D02*
X17866863Y-3291337D01*
X17794737Y-3291337D01*
X17794737Y-3363463D01*
X17866863Y-3363463D01*
X17779800Y-4800400D02*
X17881800Y-4902400D01*
X17881800Y-4800400D02*
X17779800Y-4902400D01*
X17866863Y-4887463D02*
X17866863Y-4815337D01*
X17794737Y-4815337D01*
X17794737Y-4887463D01*
X17866863Y-4887463D01*
X18033800Y-4800400D02*
X18135800Y-4902400D01*
X18135800Y-4800400D02*
X18033800Y-4902400D01*
X18120863Y-4887463D02*
X18120863Y-4815337D01*
X18048737Y-4815337D01*
X18048737Y-4887463D01*
X18120863Y-4887463D01*
X18287800Y-4800400D02*
X18389800Y-4902400D01*
X18389800Y-4800400D02*
X18287800Y-4902400D01*
X18374863Y-4887463D02*
X18374863Y-4815337D01*
X18302737Y-4815337D01*
X18302737Y-4887463D01*
X18374863Y-4887463D01*
X18541800Y-4800400D02*
X18643800Y-4902400D01*
X18643800Y-4800400D02*
X18541800Y-4902400D01*
X18628863Y-4887463D02*
X18628863Y-4815337D01*
X18556737Y-4815337D01*
X18556737Y-4887463D01*
X18628863Y-4887463D01*
X18795800Y-4800400D02*
X18897800Y-4902400D01*
X18897800Y-4800400D02*
X18795800Y-4902400D01*
X18882863Y-4887463D02*
X18882863Y-4815337D01*
X18810737Y-4815337D01*
X18810737Y-4887463D01*
X18882863Y-4887463D01*
X3758051Y-6444051D02*
X3957949Y-6643949D01*
X3957949Y-6444051D02*
X3758051Y-6643949D01*
X3858000Y-6643949D02*
X3957949Y-6544000D01*
X3858000Y-6444051D01*
X3758051Y-6544000D01*
X3858000Y-6643949D01*
X3758051Y-8844051D02*
X3957949Y-9043949D01*
X3957949Y-8844051D02*
X3758051Y-9043949D01*
X3858000Y-9043949D02*
X3957949Y-8944000D01*
X3858000Y-8844051D01*
X3758051Y-8944000D01*
X3858000Y-9043949D01*
X3758051Y-11244051D02*
X3957949Y-11443949D01*
X3957949Y-11244051D02*
X3758051Y-11443949D01*
X3858000Y-11443949D02*
X3957949Y-11344000D01*
X3858000Y-11244051D01*
X3758051Y-11344000D01*
X3858000Y-11443949D01*
X3758051Y-13644051D02*
X3957949Y-13843949D01*
X3957949Y-13644051D02*
X3758051Y-13843949D01*
X3858000Y-13843949D02*
X3957949Y-13744000D01*
X3858000Y-13644051D01*
X3758051Y-13744000D01*
X3858000Y-13843949D01*
X4718051Y-6444051D02*
X4917949Y-6643949D01*
X4917949Y-6444051D02*
X4718051Y-6643949D01*
X4818000Y-6643949D02*
X4917949Y-6544000D01*
X4818000Y-6444051D01*
X4718051Y-6544000D01*
X4818000Y-6643949D01*
X4718051Y-8844051D02*
X4917949Y-9043949D01*
X4917949Y-8844051D02*
X4718051Y-9043949D01*
X4818000Y-9043949D02*
X4917949Y-8944000D01*
X4818000Y-8844051D01*
X4718051Y-8944000D01*
X4818000Y-9043949D01*
X4718051Y-11244051D02*
X4917949Y-11443949D01*
X4917949Y-11244051D02*
X4718051Y-11443949D01*
X4818000Y-11443949D02*
X4917949Y-11344000D01*
X4818000Y-11244051D01*
X4718051Y-11344000D01*
X4818000Y-11443949D01*
X4718051Y-13644051D02*
X4917949Y-13843949D01*
X4917949Y-13644051D02*
X4718051Y-13843949D01*
X4818000Y-13843949D02*
X4917949Y-13744000D01*
X4818000Y-13644051D01*
X4718051Y-13744000D01*
X4818000Y-13843949D01*
X6186651Y-6444051D02*
X6386549Y-6643949D01*
X6386549Y-6444051D02*
X6186651Y-6643949D01*
X6286600Y-6643949D02*
X6386549Y-6544000D01*
X6286600Y-6444051D01*
X6186651Y-6544000D01*
X6286600Y-6643949D01*
X6186651Y-8844051D02*
X6386549Y-9043949D01*
X6386549Y-8844051D02*
X6186651Y-9043949D01*
X6286600Y-9043949D02*
X6386549Y-8944000D01*
X6286600Y-8844051D01*
X6186651Y-8944000D01*
X6286600Y-9043949D01*
X6186651Y-11244051D02*
X6386549Y-11443949D01*
X6386549Y-11244051D02*
X6186651Y-11443949D01*
X6286600Y-11443949D02*
X6386549Y-11344000D01*
X6286600Y-11244051D01*
X6186651Y-11344000D01*
X6286600Y-11443949D01*
X6186651Y-13644051D02*
X6386549Y-13843949D01*
X6386549Y-13644051D02*
X6186651Y-13843949D01*
X6286600Y-13843949D02*
X6386549Y-13744000D01*
X6286600Y-13644051D01*
X6186651Y-13744000D01*
X6286600Y-13843949D01*
X7146651Y-6444051D02*
X7346549Y-6643949D01*
X7346549Y-6444051D02*
X7146651Y-6643949D01*
X7246600Y-6643949D02*
X7346549Y-6544000D01*
X7246600Y-6444051D01*
X7146651Y-6544000D01*
X7246600Y-6643949D01*
X7146651Y-8844051D02*
X7346549Y-9043949D01*
X7346549Y-8844051D02*
X7146651Y-9043949D01*
X7246600Y-9043949D02*
X7346549Y-8944000D01*
X7246600Y-8844051D01*
X7146651Y-8944000D01*
X7246600Y-9043949D01*
X7146651Y-11244051D02*
X7346549Y-11443949D01*
X7346549Y-11244051D02*
X7146651Y-11443949D01*
X7246600Y-11443949D02*
X7346549Y-11344000D01*
X7246600Y-11244051D01*
X7146651Y-11344000D01*
X7246600Y-11443949D01*
X7146651Y-13644051D02*
X7346549Y-13843949D01*
X7346549Y-13644051D02*
X7146651Y-13843949D01*
X7246600Y-13843949D02*
X7346549Y-13744000D01*
X7246600Y-13644051D01*
X7146651Y-13744000D01*
X7246600Y-13843949D01*
X8615251Y-6444051D02*
X8815149Y-6643949D01*
X8815149Y-6444051D02*
X8615251Y-6643949D01*
X8715200Y-6643949D02*
X8815149Y-6544000D01*
X8715200Y-6444051D01*
X8615251Y-6544000D01*
X8715200Y-6643949D01*
X8615251Y-8844051D02*
X8815149Y-9043949D01*
X8815149Y-8844051D02*
X8615251Y-9043949D01*
X8715200Y-9043949D02*
X8815149Y-8944000D01*
X8715200Y-8844051D01*
X8615251Y-8944000D01*
X8715200Y-9043949D01*
X8615251Y-11244051D02*
X8815149Y-11443949D01*
X8815149Y-11244051D02*
X8615251Y-11443949D01*
X8715200Y-11443949D02*
X8815149Y-11344000D01*
X8715200Y-11244051D01*
X8615251Y-11344000D01*
X8715200Y-11443949D01*
X8615251Y-13644051D02*
X8815149Y-13843949D01*
X8815149Y-13644051D02*
X8615251Y-13843949D01*
X8715200Y-13843949D02*
X8815149Y-13744000D01*
X8715200Y-13644051D01*
X8615251Y-13744000D01*
X8715200Y-13843949D01*
X9575251Y-6444051D02*
X9775149Y-6643949D01*
X9775149Y-6444051D02*
X9575251Y-6643949D01*
X9675200Y-6643949D02*
X9775149Y-6544000D01*
X9675200Y-6444051D01*
X9575251Y-6544000D01*
X9675200Y-6643949D01*
X9575251Y-8844051D02*
X9775149Y-9043949D01*
X9775149Y-8844051D02*
X9575251Y-9043949D01*
X9675200Y-9043949D02*
X9775149Y-8944000D01*
X9675200Y-8844051D01*
X9575251Y-8944000D01*
X9675200Y-9043949D01*
X9575251Y-11244051D02*
X9775149Y-11443949D01*
X9775149Y-11244051D02*
X9575251Y-11443949D01*
X9675200Y-11443949D02*
X9775149Y-11344000D01*
X9675200Y-11244051D01*
X9575251Y-11344000D01*
X9675200Y-11443949D01*
X9575251Y-13644051D02*
X9775149Y-13843949D01*
X9775149Y-13644051D02*
X9575251Y-13843949D01*
X9675200Y-13843949D02*
X9775149Y-13744000D01*
X9675200Y-13644051D01*
X9575251Y-13744000D01*
X9675200Y-13843949D01*
X11043851Y-6444051D02*
X11243749Y-6643949D01*
X11243749Y-6444051D02*
X11043851Y-6643949D01*
X11143800Y-6643949D02*
X11243749Y-6544000D01*
X11143800Y-6444051D01*
X11043851Y-6544000D01*
X11143800Y-6643949D01*
X11043851Y-8844051D02*
X11243749Y-9043949D01*
X11243749Y-8844051D02*
X11043851Y-9043949D01*
X11143800Y-9043949D02*
X11243749Y-8944000D01*
X11143800Y-8844051D01*
X11043851Y-8944000D01*
X11143800Y-9043949D01*
X11043851Y-11244051D02*
X11243749Y-11443949D01*
X11243749Y-11244051D02*
X11043851Y-11443949D01*
X11143800Y-11443949D02*
X11243749Y-11344000D01*
X11143800Y-11244051D01*
X11043851Y-11344000D01*
X11143800Y-11443949D01*
X11043851Y-13644051D02*
X11243749Y-13843949D01*
X11243749Y-13644051D02*
X11043851Y-13843949D01*
X11143800Y-13843949D02*
X11243749Y-13744000D01*
X11143800Y-13644051D01*
X11043851Y-13744000D01*
X11143800Y-13843949D01*
X12003851Y-6444051D02*
X12203749Y-6643949D01*
X12203749Y-6444051D02*
X12003851Y-6643949D01*
X12103800Y-6643949D02*
X12203749Y-6544000D01*
X12103800Y-6444051D01*
X12003851Y-6544000D01*
X12103800Y-6643949D01*
X12003851Y-8844051D02*
X12203749Y-9043949D01*
X12203749Y-8844051D02*
X12003851Y-9043949D01*
X12103800Y-9043949D02*
X12203749Y-8944000D01*
X12103800Y-8844051D01*
X12003851Y-8944000D01*
X12103800Y-9043949D01*
X12003851Y-11244051D02*
X12203749Y-11443949D01*
X12203749Y-11244051D02*
X12003851Y-11443949D01*
X12103800Y-11443949D02*
X12203749Y-11344000D01*
X12103800Y-11244051D01*
X12003851Y-11344000D01*
X12103800Y-11443949D01*
X12003851Y-13644051D02*
X12203749Y-13843949D01*
X12203749Y-13644051D02*
X12003851Y-13843949D01*
X12103800Y-13843949D02*
X12203749Y-13744000D01*
X12103800Y-13644051D01*
X12003851Y-13744000D01*
X12103800Y-13843949D01*
X13472451Y-6444051D02*
X13672349Y-6643949D01*
X13672349Y-6444051D02*
X13472451Y-6643949D01*
X13572400Y-6643949D02*
X13672349Y-6544000D01*
X13572400Y-6444051D01*
X13472451Y-6544000D01*
X13572400Y-6643949D01*
X13472451Y-8844051D02*
X13672349Y-9043949D01*
X13672349Y-8844051D02*
X13472451Y-9043949D01*
X13572400Y-9043949D02*
X13672349Y-8944000D01*
X13572400Y-8844051D01*
X13472451Y-8944000D01*
X13572400Y-9043949D01*
X13472451Y-11244051D02*
X13672349Y-11443949D01*
X13672349Y-11244051D02*
X13472451Y-11443949D01*
X13572400Y-11443949D02*
X13672349Y-11344000D01*
X13572400Y-11244051D01*
X13472451Y-11344000D01*
X13572400Y-11443949D01*
X13472451Y-13644051D02*
X13672349Y-13843949D01*
X13672349Y-13644051D02*
X13472451Y-13843949D01*
X13572400Y-13843949D02*
X13672349Y-13744000D01*
X13572400Y-13644051D01*
X13472451Y-13744000D01*
X13572400Y-13843949D01*
X14432451Y-6444051D02*
X14632349Y-6643949D01*
X14632349Y-6444051D02*
X14432451Y-6643949D01*
X14532400Y-6643949D02*
X14632349Y-6544000D01*
X14532400Y-6444051D01*
X14432451Y-6544000D01*
X14532400Y-6643949D01*
X14432451Y-8844051D02*
X14632349Y-9043949D01*
X14632349Y-8844051D02*
X14432451Y-9043949D01*
X14532400Y-9043949D02*
X14632349Y-8944000D01*
X14532400Y-8844051D01*
X14432451Y-8944000D01*
X14532400Y-9043949D01*
X14432451Y-11244051D02*
X14632349Y-11443949D01*
X14632349Y-11244051D02*
X14432451Y-11443949D01*
X14532400Y-11443949D02*
X14632349Y-11344000D01*
X14532400Y-11244051D01*
X14432451Y-11344000D01*
X14532400Y-11443949D01*
X14432451Y-13644051D02*
X14632349Y-13843949D01*
X14632349Y-13644051D02*
X14432451Y-13843949D01*
X14532400Y-13843949D02*
X14632349Y-13744000D01*
X14532400Y-13644051D01*
X14432451Y-13744000D01*
X14532400Y-13843949D01*
X15901051Y-6444051D02*
X16100949Y-6643949D01*
X16100949Y-6444051D02*
X15901051Y-6643949D01*
X16001000Y-6643949D02*
X16100949Y-6544000D01*
X16001000Y-6444051D01*
X15901051Y-6544000D01*
X16001000Y-6643949D01*
X15901051Y-8844051D02*
X16100949Y-9043949D01*
X16100949Y-8844051D02*
X15901051Y-9043949D01*
X16001000Y-9043949D02*
X16100949Y-8944000D01*
X16001000Y-8844051D01*
X15901051Y-8944000D01*
X16001000Y-9043949D01*
X15901051Y-11244051D02*
X16100949Y-11443949D01*
X16100949Y-11244051D02*
X15901051Y-11443949D01*
X16001000Y-11443949D02*
X16100949Y-11344000D01*
X16001000Y-11244051D01*
X15901051Y-11344000D01*
X16001000Y-11443949D01*
X15901051Y-13644051D02*
X16100949Y-13843949D01*
X16100949Y-13644051D02*
X15901051Y-13843949D01*
X16001000Y-13843949D02*
X16100949Y-13744000D01*
X16001000Y-13644051D01*
X15901051Y-13744000D01*
X16001000Y-13843949D01*
X16861051Y-6444051D02*
X17060949Y-6643949D01*
X17060949Y-6444051D02*
X16861051Y-6643949D01*
X16961000Y-6643949D02*
X17060949Y-6544000D01*
X16961000Y-6444051D01*
X16861051Y-6544000D01*
X16961000Y-6643949D01*
X16861051Y-8844051D02*
X17060949Y-9043949D01*
X17060949Y-8844051D02*
X16861051Y-9043949D01*
X16961000Y-9043949D02*
X17060949Y-8944000D01*
X16961000Y-8844051D01*
X16861051Y-8944000D01*
X16961000Y-9043949D01*
X16861051Y-11244051D02*
X17060949Y-11443949D01*
X17060949Y-11244051D02*
X16861051Y-11443949D01*
X16961000Y-11443949D02*
X17060949Y-11344000D01*
X16961000Y-11244051D01*
X16861051Y-11344000D01*
X16961000Y-11443949D01*
X16861051Y-13644051D02*
X17060949Y-13843949D01*
X17060949Y-13644051D02*
X16861051Y-13843949D01*
X16961000Y-13843949D02*
X17060949Y-13744000D01*
X16961000Y-13644051D01*
X16861051Y-13744000D01*
X16961000Y-13843949D01*
X18329651Y-6444051D02*
X18529549Y-6643949D01*
X18529549Y-6444051D02*
X18329651Y-6643949D01*
X18429600Y-6643949D02*
X18529549Y-6544000D01*
X18429600Y-6444051D01*
X18329651Y-6544000D01*
X18429600Y-6643949D01*
X18329651Y-8844051D02*
X18529549Y-9043949D01*
X18529549Y-8844051D02*
X18329651Y-9043949D01*
X18429600Y-9043949D02*
X18529549Y-8944000D01*
X18429600Y-8844051D01*
X18329651Y-8944000D01*
X18429600Y-9043949D01*
X18329651Y-11244051D02*
X18529549Y-11443949D01*
X18529549Y-11244051D02*
X18329651Y-11443949D01*
X18429600Y-11443949D02*
X18529549Y-11344000D01*
X18429600Y-11244051D01*
X18329651Y-11344000D01*
X18429600Y-11443949D01*
X18329651Y-13644051D02*
X18529549Y-13843949D01*
X18529549Y-13644051D02*
X18329651Y-13843949D01*
X18429600Y-13843949D02*
X18529549Y-13744000D01*
X18429600Y-13644051D01*
X18329651Y-13744000D01*
X18429600Y-13843949D01*
X19289651Y-6444051D02*
X19489549Y-6643949D01*
X19489549Y-6444051D02*
X19289651Y-6643949D01*
X19389600Y-6643949D02*
X19489549Y-6544000D01*
X19389600Y-6444051D01*
X19289651Y-6544000D01*
X19389600Y-6643949D01*
X19289651Y-8844051D02*
X19489549Y-9043949D01*
X19489549Y-8844051D02*
X19289651Y-9043949D01*
X19389600Y-9043949D02*
X19489549Y-8944000D01*
X19389600Y-8844051D01*
X19289651Y-8944000D01*
X19389600Y-9043949D01*
X19289651Y-11244051D02*
X19489549Y-11443949D01*
X19489549Y-11244051D02*
X19289651Y-11443949D01*
X19389600Y-11443949D02*
X19489549Y-11344000D01*
X19389600Y-11244051D01*
X19289651Y-11344000D01*
X19389600Y-11443949D01*
X19289651Y-13644051D02*
X19489549Y-13843949D01*
X19489549Y-13644051D02*
X19289651Y-13843949D01*
X19389600Y-13843949D02*
X19489549Y-13744000D01*
X19389600Y-13644051D01*
X19289651Y-13744000D01*
X19389600Y-13843949D01*
X20758251Y-6444051D02*
X20958149Y-6643949D01*
X20958149Y-6444051D02*
X20758251Y-6643949D01*
X20858200Y-6643949D02*
X20958149Y-6544000D01*
X20858200Y-6444051D01*
X20758251Y-6544000D01*
X20858200Y-6643949D01*
X20758251Y-8844051D02*
X20958149Y-9043949D01*
X20958149Y-8844051D02*
X20758251Y-9043949D01*
X20858200Y-9043949D02*
X20958149Y-8944000D01*
X20858200Y-8844051D01*
X20758251Y-8944000D01*
X20858200Y-9043949D01*
X20758251Y-11244051D02*
X20958149Y-11443949D01*
X20958149Y-11244051D02*
X20758251Y-11443949D01*
X20858200Y-11443949D02*
X20958149Y-11344000D01*
X20858200Y-11244051D01*
X20758251Y-11344000D01*
X20858200Y-11443949D01*
X20758251Y-13644051D02*
X20958149Y-13843949D01*
X20958149Y-13644051D02*
X20758251Y-13843949D01*
X20858200Y-13843949D02*
X20958149Y-13744000D01*
X20858200Y-13644051D01*
X20758251Y-13744000D01*
X20858200Y-13843949D01*
X21718251Y-6444051D02*
X21918149Y-6643949D01*
X21918149Y-6444051D02*
X21718251Y-6643949D01*
X21818200Y-6643949D02*
X21918149Y-6544000D01*
X21818200Y-6444051D01*
X21718251Y-6544000D01*
X21818200Y-6643949D01*
X21718251Y-8844051D02*
X21918149Y-9043949D01*
X21918149Y-8844051D02*
X21718251Y-9043949D01*
X21818200Y-9043949D02*
X21918149Y-8944000D01*
X21818200Y-8844051D01*
X21718251Y-8944000D01*
X21818200Y-9043949D01*
X21718251Y-11244051D02*
X21918149Y-11443949D01*
X21918149Y-11244051D02*
X21718251Y-11443949D01*
X21818200Y-11443949D02*
X21918149Y-11344000D01*
X21818200Y-11244051D01*
X21718251Y-11344000D01*
X21818200Y-11443949D01*
X21718251Y-13644051D02*
X21918149Y-13843949D01*
X21918149Y-13644051D02*
X21718251Y-13843949D01*
X21818200Y-13843949D02*
X21918149Y-13744000D01*
X21818200Y-13644051D01*
X21718251Y-13744000D01*
X21818200Y-13843949D01*
D12*
X3121228Y-15710914D02*
X3121228Y-15410914D01*
X3192657Y-15410914D01*
X3235514Y-15425200D01*
X3264086Y-15453772D01*
X3278371Y-15482343D01*
X3292657Y-15539486D01*
X3292657Y-15582343D01*
X3278371Y-15639486D01*
X3264086Y-15668057D01*
X3235514Y-15696629D01*
X3192657Y-15710914D01*
X3121228Y-15710914D01*
X3421228Y-15710914D02*
X3421228Y-15510914D01*
X3421228Y-15568057D02*
X3435514Y-15539486D01*
X3449800Y-15525200D01*
X3478371Y-15510914D01*
X3506943Y-15510914D01*
X3606943Y-15710914D02*
X3606943Y-15510914D01*
X3606943Y-15410914D02*
X3592657Y-15425200D01*
X3606943Y-15439486D01*
X3621228Y-15425200D01*
X3606943Y-15410914D01*
X3606943Y-15439486D01*
X3792657Y-15710914D02*
X3764086Y-15696629D01*
X3749800Y-15668057D01*
X3749800Y-15410914D01*
X3949800Y-15710914D02*
X3921228Y-15696629D01*
X3906943Y-15668057D01*
X3906943Y-15410914D01*
X4292657Y-15710914D02*
X4292657Y-15410914D01*
X4392657Y-15625200D01*
X4492657Y-15410914D01*
X4492657Y-15710914D01*
X4764086Y-15710914D02*
X4764086Y-15553772D01*
X4749800Y-15525200D01*
X4721228Y-15510914D01*
X4664086Y-15510914D01*
X4635514Y-15525200D01*
X4764086Y-15696629D02*
X4735514Y-15710914D01*
X4664086Y-15710914D01*
X4635514Y-15696629D01*
X4621228Y-15668057D01*
X4621228Y-15639486D01*
X4635514Y-15610914D01*
X4664086Y-15596629D01*
X4735514Y-15596629D01*
X4764086Y-15582343D01*
X4906943Y-15510914D02*
X4906943Y-15810914D01*
X4906943Y-15525200D02*
X4935514Y-15510914D01*
X4992657Y-15510914D01*
X5021228Y-15525200D01*
X5035514Y-15539486D01*
X5049800Y-15568057D01*
X5049800Y-15653772D01*
X5035514Y-15682343D01*
X5021228Y-15696629D01*
X4992657Y-15710914D01*
X4935514Y-15710914D01*
X4906943Y-15696629D01*
X5178371Y-15682343D02*
X5192657Y-15696629D01*
X5178371Y-15710914D01*
X5164086Y-15696629D01*
X5178371Y-15682343D01*
X5178371Y-15710914D01*
X5178371Y-15525200D02*
X5192657Y-15539486D01*
X5178371Y-15553772D01*
X5164086Y-15539486D01*
X5178371Y-15525200D01*
X5178371Y-15553772D01*
X2794800Y-16185200D02*
X2834800Y-16225200D01*
X2834800Y-16185200D02*
X2794800Y-16225200D01*
X3178371Y-16040914D02*
X3206943Y-16040914D01*
X3235514Y-16055200D01*
X3249800Y-16069486D01*
X3264086Y-16098057D01*
X3278371Y-16155200D01*
X3278371Y-16226629D01*
X3264086Y-16283772D01*
X3249800Y-16312343D01*
X3235514Y-16326629D01*
X3206943Y-16340914D01*
X3178371Y-16340914D01*
X3149800Y-16326629D01*
X3135514Y-16312343D01*
X3121228Y-16283772D01*
X3106943Y-16226629D01*
X3106943Y-16155200D01*
X3121228Y-16098057D01*
X3135514Y-16069486D01*
X3149800Y-16055200D01*
X3178371Y-16040914D01*
X3406943Y-16312343D02*
X3421228Y-16326629D01*
X3406943Y-16340914D01*
X3392657Y-16326629D01*
X3406943Y-16312343D01*
X3406943Y-16340914D01*
X3678371Y-16140914D02*
X3678371Y-16340914D01*
X3606943Y-16026629D02*
X3535514Y-16240914D01*
X3721228Y-16240914D01*
X3892657Y-16040914D02*
X3921228Y-16040914D01*
X3949800Y-16055200D01*
X3964086Y-16069486D01*
X3978371Y-16098057D01*
X3992657Y-16155200D01*
X3992657Y-16226629D01*
X3978371Y-16283772D01*
X3964086Y-16312343D01*
X3949800Y-16326629D01*
X3921228Y-16340914D01*
X3892657Y-16340914D01*
X3864086Y-16326629D01*
X3849800Y-16312343D01*
X3835514Y-16283772D01*
X3821228Y-16226629D01*
X3821228Y-16155200D01*
X3835514Y-16098057D01*
X3849800Y-16069486D01*
X3864086Y-16055200D01*
X3892657Y-16040914D01*
X4178371Y-16040914D02*
X4206943Y-16040914D01*
X4235514Y-16055200D01*
X4249800Y-16069486D01*
X4264086Y-16098057D01*
X4278371Y-16155200D01*
X4278371Y-16226629D01*
X4264086Y-16283772D01*
X4249800Y-16312343D01*
X4235514Y-16326629D01*
X4206943Y-16340914D01*
X4178371Y-16340914D01*
X4149800Y-16326629D01*
X4135514Y-16312343D01*
X4121228Y-16283772D01*
X4106943Y-16226629D01*
X4106943Y-16155200D01*
X4121228Y-16098057D01*
X4135514Y-16069486D01*
X4149800Y-16055200D01*
X4178371Y-16040914D01*
X4406943Y-16340914D02*
X4406943Y-16140914D01*
X4406943Y-16169486D02*
X4421228Y-16155200D01*
X4449800Y-16140914D01*
X4492657Y-16140914D01*
X4521228Y-16155200D01*
X4535514Y-16183772D01*
X4535514Y-16340914D01*
X4535514Y-16183772D02*
X4549800Y-16155200D01*
X4578371Y-16140914D01*
X4621228Y-16140914D01*
X4649800Y-16155200D01*
X4664086Y-16183772D01*
X4664086Y-16340914D01*
X4806943Y-16340914D02*
X4806943Y-16140914D01*
X4806943Y-16169486D02*
X4821228Y-16155200D01*
X4849800Y-16140914D01*
X4892657Y-16140914D01*
X4921228Y-16155200D01*
X4935514Y-16183772D01*
X4935514Y-16340914D01*
X4935514Y-16183772D02*
X4949800Y-16155200D01*
X4978371Y-16140914D01*
X5021228Y-16140914D01*
X5049800Y-16155200D01*
X5064086Y-16183772D01*
X5064086Y-16340914D01*
X5649800Y-16026629D02*
X5392657Y-16412343D01*
X6035514Y-16040914D02*
X6064086Y-16040914D01*
X6092657Y-16055200D01*
X6106943Y-16069486D01*
X6121228Y-16098057D01*
X6135514Y-16155200D01*
X6135514Y-16226629D01*
X6121228Y-16283772D01*
X6106943Y-16312343D01*
X6092657Y-16326629D01*
X6064086Y-16340914D01*
X6035514Y-16340914D01*
X6006943Y-16326629D01*
X5992657Y-16312343D01*
X5978371Y-16283772D01*
X5964086Y-16226629D01*
X5964086Y-16155200D01*
X5978371Y-16098057D01*
X5992657Y-16069486D01*
X6006943Y-16055200D01*
X6035514Y-16040914D01*
X6264086Y-16312343D02*
X6278371Y-16326629D01*
X6264086Y-16340914D01*
X6249800Y-16326629D01*
X6264086Y-16312343D01*
X6264086Y-16340914D01*
X6464086Y-16040914D02*
X6492657Y-16040914D01*
X6521228Y-16055200D01*
X6535514Y-16069486D01*
X6549800Y-16098057D01*
X6564086Y-16155200D01*
X6564086Y-16226629D01*
X6549800Y-16283772D01*
X6535514Y-16312343D01*
X6521228Y-16326629D01*
X6492657Y-16340914D01*
X6464086Y-16340914D01*
X6435514Y-16326629D01*
X6421228Y-16312343D01*
X6406943Y-16283772D01*
X6392657Y-16226629D01*
X6392657Y-16155200D01*
X6406943Y-16098057D01*
X6421228Y-16069486D01*
X6435514Y-16055200D01*
X6464086Y-16040914D01*
X6849800Y-16340914D02*
X6678371Y-16340914D01*
X6764086Y-16340914D02*
X6764086Y-16040914D01*
X6735514Y-16083772D01*
X6706943Y-16112343D01*
X6678371Y-16126629D01*
X7121228Y-16040914D02*
X6978371Y-16040914D01*
X6964086Y-16183772D01*
X6978371Y-16169486D01*
X7006943Y-16155200D01*
X7078371Y-16155200D01*
X7106943Y-16169486D01*
X7121228Y-16183772D01*
X7135514Y-16212343D01*
X7135514Y-16283772D01*
X7121228Y-16312343D01*
X7106943Y-16326629D01*
X7078371Y-16340914D01*
X7006943Y-16340914D01*
X6978371Y-16326629D01*
X6964086Y-16312343D01*
X7235514Y-16040914D02*
X7435514Y-16040914D01*
X7306943Y-16340914D01*
X7535514Y-16040914D02*
X7535514Y-16098057D01*
X7649800Y-16040914D02*
X7649800Y-16098057D01*
X8092657Y-16455200D02*
X8078371Y-16440914D01*
X8049800Y-16398057D01*
X8035514Y-16369486D01*
X8021228Y-16326629D01*
X8006943Y-16255200D01*
X8006943Y-16198057D01*
X8021228Y-16126629D01*
X8035514Y-16083772D01*
X8049800Y-16055200D01*
X8078371Y-16012343D01*
X8092657Y-15998057D01*
X8249800Y-16169486D02*
X8221228Y-16155200D01*
X8206943Y-16140914D01*
X8192657Y-16112343D01*
X8192657Y-16098057D01*
X8206943Y-16069486D01*
X8221228Y-16055200D01*
X8249800Y-16040914D01*
X8306943Y-16040914D01*
X8335514Y-16055200D01*
X8349800Y-16069486D01*
X8364086Y-16098057D01*
X8364086Y-16112343D01*
X8349800Y-16140914D01*
X8335514Y-16155200D01*
X8306943Y-16169486D01*
X8249800Y-16169486D01*
X8221228Y-16183772D01*
X8206943Y-16198057D01*
X8192657Y-16226629D01*
X8192657Y-16283772D01*
X8206943Y-16312343D01*
X8221228Y-16326629D01*
X8249800Y-16340914D01*
X8306943Y-16340914D01*
X8335514Y-16326629D01*
X8349800Y-16312343D01*
X8364086Y-16283772D01*
X8364086Y-16226629D01*
X8349800Y-16198057D01*
X8335514Y-16183772D01*
X8306943Y-16169486D01*
X8721228Y-16340914D02*
X8721228Y-16040914D01*
X8849800Y-16340914D02*
X8849800Y-16183772D01*
X8835514Y-16155200D01*
X8806943Y-16140914D01*
X8764086Y-16140914D01*
X8735514Y-16155200D01*
X8721228Y-16169486D01*
X9035514Y-16340914D02*
X9006943Y-16326629D01*
X8992657Y-16312343D01*
X8978371Y-16283772D01*
X8978371Y-16198057D01*
X8992657Y-16169486D01*
X9006943Y-16155200D01*
X9035514Y-16140914D01*
X9078371Y-16140914D01*
X9106943Y-16155200D01*
X9121228Y-16169486D01*
X9135514Y-16198057D01*
X9135514Y-16283772D01*
X9121228Y-16312343D01*
X9106943Y-16326629D01*
X9078371Y-16340914D01*
X9035514Y-16340914D01*
X9306943Y-16340914D02*
X9278371Y-16326629D01*
X9264086Y-16298057D01*
X9264086Y-16040914D01*
X9535514Y-16326629D02*
X9506943Y-16340914D01*
X9449800Y-16340914D01*
X9421228Y-16326629D01*
X9406943Y-16298057D01*
X9406943Y-16183772D01*
X9421228Y-16155200D01*
X9449800Y-16140914D01*
X9506943Y-16140914D01*
X9535514Y-16155200D01*
X9549800Y-16183772D01*
X9549800Y-16212343D01*
X9406943Y-16240914D01*
X9664086Y-16326629D02*
X9692657Y-16340914D01*
X9749800Y-16340914D01*
X9778371Y-16326629D01*
X9792657Y-16298057D01*
X9792657Y-16283772D01*
X9778371Y-16255200D01*
X9749800Y-16240914D01*
X9706943Y-16240914D01*
X9678371Y-16226629D01*
X9664086Y-16198057D01*
X9664086Y-16183772D01*
X9678371Y-16155200D01*
X9706943Y-16140914D01*
X9749800Y-16140914D01*
X9778371Y-16155200D01*
X9892657Y-16455200D02*
X9906943Y-16440914D01*
X9935514Y-16398057D01*
X9949800Y-16369486D01*
X9964086Y-16326629D01*
X9978371Y-16255200D01*
X9978371Y-16198057D01*
X9964086Y-16126629D01*
X9949800Y-16083772D01*
X9935514Y-16055200D01*
X9906943Y-16012343D01*
X9892657Y-15998057D01*
X2834800Y-16601200D02*
G75*
G03*
X2834800Y-16601200I-30000J0D01*
G01*
X3178371Y-16436914D02*
X3206943Y-16436914D01*
X3235514Y-16451200D01*
X3249800Y-16465486D01*
X3264086Y-16494057D01*
X3278371Y-16551200D01*
X3278371Y-16622629D01*
X3264086Y-16679772D01*
X3249800Y-16708343D01*
X3235514Y-16722629D01*
X3206943Y-16736914D01*
X3178371Y-16736914D01*
X3149800Y-16722629D01*
X3135514Y-16708343D01*
X3121228Y-16679772D01*
X3106943Y-16622629D01*
X3106943Y-16551200D01*
X3121228Y-16494057D01*
X3135514Y-16465486D01*
X3149800Y-16451200D01*
X3178371Y-16436914D01*
X3406943Y-16708343D02*
X3421228Y-16722629D01*
X3406943Y-16736914D01*
X3392657Y-16722629D01*
X3406943Y-16708343D01*
X3406943Y-16736914D01*
X3678371Y-16436914D02*
X3621228Y-16436914D01*
X3592657Y-16451200D01*
X3578371Y-16465486D01*
X3549800Y-16508343D01*
X3535514Y-16565486D01*
X3535514Y-16679772D01*
X3549800Y-16708343D01*
X3564086Y-16722629D01*
X3592657Y-16736914D01*
X3649800Y-16736914D01*
X3678371Y-16722629D01*
X3692657Y-16708343D01*
X3706943Y-16679772D01*
X3706943Y-16608343D01*
X3692657Y-16579772D01*
X3678371Y-16565486D01*
X3649800Y-16551200D01*
X3592657Y-16551200D01*
X3564086Y-16565486D01*
X3549800Y-16579772D01*
X3535514Y-16608343D01*
X3892657Y-16436914D02*
X3921228Y-16436914D01*
X3949800Y-16451200D01*
X3964086Y-16465486D01*
X3978371Y-16494057D01*
X3992657Y-16551200D01*
X3992657Y-16622629D01*
X3978371Y-16679772D01*
X3964086Y-16708343D01*
X3949800Y-16722629D01*
X3921228Y-16736914D01*
X3892657Y-16736914D01*
X3864086Y-16722629D01*
X3849800Y-16708343D01*
X3835514Y-16679772D01*
X3821228Y-16622629D01*
X3821228Y-16551200D01*
X3835514Y-16494057D01*
X3849800Y-16465486D01*
X3864086Y-16451200D01*
X3892657Y-16436914D01*
X4178371Y-16436914D02*
X4206943Y-16436914D01*
X4235514Y-16451200D01*
X4249800Y-16465486D01*
X4264086Y-16494057D01*
X4278371Y-16551200D01*
X4278371Y-16622629D01*
X4264086Y-16679772D01*
X4249800Y-16708343D01*
X4235514Y-16722629D01*
X4206943Y-16736914D01*
X4178371Y-16736914D01*
X4149800Y-16722629D01*
X4135514Y-16708343D01*
X4121228Y-16679772D01*
X4106943Y-16622629D01*
X4106943Y-16551200D01*
X4121228Y-16494057D01*
X4135514Y-16465486D01*
X4149800Y-16451200D01*
X4178371Y-16436914D01*
X4406943Y-16736914D02*
X4406943Y-16536914D01*
X4406943Y-16565486D02*
X4421228Y-16551200D01*
X4449800Y-16536914D01*
X4492657Y-16536914D01*
X4521228Y-16551200D01*
X4535514Y-16579772D01*
X4535514Y-16736914D01*
X4535514Y-16579772D02*
X4549800Y-16551200D01*
X4578371Y-16536914D01*
X4621228Y-16536914D01*
X4649800Y-16551200D01*
X4664086Y-16579772D01*
X4664086Y-16736914D01*
X4806943Y-16736914D02*
X4806943Y-16536914D01*
X4806943Y-16565486D02*
X4821228Y-16551200D01*
X4849800Y-16536914D01*
X4892657Y-16536914D01*
X4921228Y-16551200D01*
X4935514Y-16579772D01*
X4935514Y-16736914D01*
X4935514Y-16579772D02*
X4949800Y-16551200D01*
X4978371Y-16536914D01*
X5021228Y-16536914D01*
X5049800Y-16551200D01*
X5064086Y-16579772D01*
X5064086Y-16736914D01*
X5649800Y-16422629D02*
X5392657Y-16808343D01*
X6035514Y-16436914D02*
X6064086Y-16436914D01*
X6092657Y-16451200D01*
X6106943Y-16465486D01*
X6121228Y-16494057D01*
X6135514Y-16551200D01*
X6135514Y-16622629D01*
X6121228Y-16679772D01*
X6106943Y-16708343D01*
X6092657Y-16722629D01*
X6064086Y-16736914D01*
X6035514Y-16736914D01*
X6006943Y-16722629D01*
X5992657Y-16708343D01*
X5978371Y-16679772D01*
X5964086Y-16622629D01*
X5964086Y-16551200D01*
X5978371Y-16494057D01*
X5992657Y-16465486D01*
X6006943Y-16451200D01*
X6035514Y-16436914D01*
X6264086Y-16708343D02*
X6278371Y-16722629D01*
X6264086Y-16736914D01*
X6249800Y-16722629D01*
X6264086Y-16708343D01*
X6264086Y-16736914D01*
X6464086Y-16436914D02*
X6492657Y-16436914D01*
X6521228Y-16451200D01*
X6535514Y-16465486D01*
X6549800Y-16494057D01*
X6564086Y-16551200D01*
X6564086Y-16622629D01*
X6549800Y-16679772D01*
X6535514Y-16708343D01*
X6521228Y-16722629D01*
X6492657Y-16736914D01*
X6464086Y-16736914D01*
X6435514Y-16722629D01*
X6421228Y-16708343D01*
X6406943Y-16679772D01*
X6392657Y-16622629D01*
X6392657Y-16551200D01*
X6406943Y-16494057D01*
X6421228Y-16465486D01*
X6435514Y-16451200D01*
X6464086Y-16436914D01*
X6678371Y-16465486D02*
X6692657Y-16451200D01*
X6721228Y-16436914D01*
X6792657Y-16436914D01*
X6821228Y-16451200D01*
X6835514Y-16465486D01*
X6849800Y-16494057D01*
X6849800Y-16522629D01*
X6835514Y-16565486D01*
X6664086Y-16736914D01*
X6849800Y-16736914D01*
X6949800Y-16436914D02*
X7135514Y-16436914D01*
X7035514Y-16551200D01*
X7078371Y-16551200D01*
X7106943Y-16565486D01*
X7121228Y-16579772D01*
X7135514Y-16608343D01*
X7135514Y-16679772D01*
X7121228Y-16708343D01*
X7106943Y-16722629D01*
X7078371Y-16736914D01*
X6992657Y-16736914D01*
X6964086Y-16722629D01*
X6949800Y-16708343D01*
X7392657Y-16436914D02*
X7335514Y-16436914D01*
X7306943Y-16451200D01*
X7292657Y-16465486D01*
X7264086Y-16508343D01*
X7249800Y-16565486D01*
X7249800Y-16679772D01*
X7264086Y-16708343D01*
X7278371Y-16722629D01*
X7306943Y-16736914D01*
X7364086Y-16736914D01*
X7392657Y-16722629D01*
X7406943Y-16708343D01*
X7421228Y-16679772D01*
X7421228Y-16608343D01*
X7406943Y-16579772D01*
X7392657Y-16565486D01*
X7364086Y-16551200D01*
X7306943Y-16551200D01*
X7278371Y-16565486D01*
X7264086Y-16579772D01*
X7249800Y-16608343D01*
X7535514Y-16436914D02*
X7535514Y-16494057D01*
X7649800Y-16436914D02*
X7649800Y-16494057D01*
X8092657Y-16851200D02*
X8078371Y-16836914D01*
X8049800Y-16794057D01*
X8035514Y-16765486D01*
X8021228Y-16722629D01*
X8006943Y-16651200D01*
X8006943Y-16594057D01*
X8021228Y-16522629D01*
X8035514Y-16479772D01*
X8049800Y-16451200D01*
X8078371Y-16408343D01*
X8092657Y-16394057D01*
X8264086Y-16436914D02*
X8292657Y-16436914D01*
X8321228Y-16451200D01*
X8335514Y-16465486D01*
X8349800Y-16494057D01*
X8364086Y-16551200D01*
X8364086Y-16622629D01*
X8349800Y-16679772D01*
X8335514Y-16708343D01*
X8321228Y-16722629D01*
X8292657Y-16736914D01*
X8264086Y-16736914D01*
X8235514Y-16722629D01*
X8221228Y-16708343D01*
X8206943Y-16679772D01*
X8192657Y-16622629D01*
X8192657Y-16551200D01*
X8206943Y-16494057D01*
X8221228Y-16465486D01*
X8235514Y-16451200D01*
X8264086Y-16436914D01*
X8721228Y-16736914D02*
X8721228Y-16436914D01*
X8849800Y-16736914D02*
X8849800Y-16579772D01*
X8835514Y-16551200D01*
X8806943Y-16536914D01*
X8764086Y-16536914D01*
X8735514Y-16551200D01*
X8721228Y-16565486D01*
X9035514Y-16736914D02*
X9006943Y-16722629D01*
X8992657Y-16708343D01*
X8978371Y-16679772D01*
X8978371Y-16594057D01*
X8992657Y-16565486D01*
X9006943Y-16551200D01*
X9035514Y-16536914D01*
X9078371Y-16536914D01*
X9106943Y-16551200D01*
X9121228Y-16565486D01*
X9135514Y-16594057D01*
X9135514Y-16679772D01*
X9121228Y-16708343D01*
X9106943Y-16722629D01*
X9078371Y-16736914D01*
X9035514Y-16736914D01*
X9306943Y-16736914D02*
X9278371Y-16722629D01*
X9264086Y-16694057D01*
X9264086Y-16436914D01*
X9535514Y-16722629D02*
X9506943Y-16736914D01*
X9449800Y-16736914D01*
X9421228Y-16722629D01*
X9406943Y-16694057D01*
X9406943Y-16579772D01*
X9421228Y-16551200D01*
X9449800Y-16536914D01*
X9506943Y-16536914D01*
X9535514Y-16551200D01*
X9549800Y-16579772D01*
X9549800Y-16608343D01*
X9406943Y-16636914D01*
X9664086Y-16722629D02*
X9692657Y-16736914D01*
X9749800Y-16736914D01*
X9778371Y-16722629D01*
X9792657Y-16694057D01*
X9792657Y-16679772D01*
X9778371Y-16651200D01*
X9749800Y-16636914D01*
X9706943Y-16636914D01*
X9678371Y-16622629D01*
X9664086Y-16594057D01*
X9664086Y-16579772D01*
X9678371Y-16551200D01*
X9706943Y-16536914D01*
X9749800Y-16536914D01*
X9778371Y-16551200D01*
X10149800Y-16622629D02*
X10378371Y-16622629D01*
X10264086Y-16736914D02*
X10264086Y-16508343D01*
X10792657Y-16565486D02*
X10764086Y-16551200D01*
X10749800Y-16536914D01*
X10735514Y-16508343D01*
X10735514Y-16494057D01*
X10749800Y-16465486D01*
X10764086Y-16451200D01*
X10792657Y-16436914D01*
X10849800Y-16436914D01*
X10878371Y-16451200D01*
X10892657Y-16465486D01*
X10906943Y-16494057D01*
X10906943Y-16508343D01*
X10892657Y-16536914D01*
X10878371Y-16551200D01*
X10849800Y-16565486D01*
X10792657Y-16565486D01*
X10764086Y-16579772D01*
X10749800Y-16594057D01*
X10735514Y-16622629D01*
X10735514Y-16679772D01*
X10749800Y-16708343D01*
X10764086Y-16722629D01*
X10792657Y-16736914D01*
X10849800Y-16736914D01*
X10878371Y-16722629D01*
X10892657Y-16708343D01*
X10906943Y-16679772D01*
X10906943Y-16622629D01*
X10892657Y-16594057D01*
X10878371Y-16579772D01*
X10849800Y-16565486D01*
X11249800Y-16722629D02*
X11278371Y-16736914D01*
X11335514Y-16736914D01*
X11364086Y-16722629D01*
X11378371Y-16694057D01*
X11378371Y-16679772D01*
X11364086Y-16651200D01*
X11335514Y-16636914D01*
X11292657Y-16636914D01*
X11264086Y-16622629D01*
X11249800Y-16594057D01*
X11249800Y-16579772D01*
X11264086Y-16551200D01*
X11292657Y-16536914D01*
X11335514Y-16536914D01*
X11364086Y-16551200D01*
X11549800Y-16736914D02*
X11521228Y-16722629D01*
X11506943Y-16694057D01*
X11506943Y-16436914D01*
X11706943Y-16736914D02*
X11678371Y-16722629D01*
X11664086Y-16708343D01*
X11649800Y-16679772D01*
X11649800Y-16594057D01*
X11664086Y-16565486D01*
X11678371Y-16551200D01*
X11706943Y-16536914D01*
X11749800Y-16536914D01*
X11778371Y-16551200D01*
X11792657Y-16565486D01*
X11806943Y-16594057D01*
X11806943Y-16679772D01*
X11792657Y-16708343D01*
X11778371Y-16722629D01*
X11749800Y-16736914D01*
X11706943Y-16736914D01*
X11892657Y-16536914D02*
X12006943Y-16536914D01*
X11935514Y-16436914D02*
X11935514Y-16694057D01*
X11949800Y-16722629D01*
X11978371Y-16736914D01*
X12006943Y-16736914D01*
X12092657Y-16722629D02*
X12121228Y-16736914D01*
X12178371Y-16736914D01*
X12206943Y-16722629D01*
X12221228Y-16694057D01*
X12221228Y-16679772D01*
X12206943Y-16651200D01*
X12178371Y-16636914D01*
X12135514Y-16636914D01*
X12106943Y-16622629D01*
X12092657Y-16594057D01*
X12092657Y-16579772D01*
X12106943Y-16551200D01*
X12135514Y-16536914D01*
X12178371Y-16536914D01*
X12206943Y-16551200D01*
X12321228Y-16851200D02*
X12335514Y-16836914D01*
X12364086Y-16794057D01*
X12378371Y-16765486D01*
X12392657Y-16722629D01*
X12406943Y-16651200D01*
X12406943Y-16594057D01*
X12392657Y-16522629D01*
X12378371Y-16479772D01*
X12364086Y-16451200D01*
X12335514Y-16408343D01*
X12321228Y-16394057D01*
X2796700Y-16959100D02*
X2796700Y-17035300D01*
X2758600Y-16997200D02*
X2834800Y-16997200D01*
X3178371Y-16832914D02*
X3206943Y-16832914D01*
X3235514Y-16847200D01*
X3249800Y-16861486D01*
X3264086Y-16890057D01*
X3278371Y-16947200D01*
X3278371Y-17018629D01*
X3264086Y-17075772D01*
X3249800Y-17104343D01*
X3235514Y-17118629D01*
X3206943Y-17132914D01*
X3178371Y-17132914D01*
X3149800Y-17118629D01*
X3135514Y-17104343D01*
X3121228Y-17075772D01*
X3106943Y-17018629D01*
X3106943Y-16947200D01*
X3121228Y-16890057D01*
X3135514Y-16861486D01*
X3149800Y-16847200D01*
X3178371Y-16832914D01*
X3406943Y-17104343D02*
X3421228Y-17118629D01*
X3406943Y-17132914D01*
X3392657Y-17118629D01*
X3406943Y-17104343D01*
X3406943Y-17132914D01*
X3521228Y-16832914D02*
X3721228Y-16832914D01*
X3592657Y-17132914D01*
X3964086Y-16832914D02*
X3906943Y-16832914D01*
X3878371Y-16847200D01*
X3864086Y-16861486D01*
X3835514Y-16904343D01*
X3821228Y-16961486D01*
X3821228Y-17075772D01*
X3835514Y-17104343D01*
X3849800Y-17118629D01*
X3878371Y-17132914D01*
X3935514Y-17132914D01*
X3964086Y-17118629D01*
X3978371Y-17104343D01*
X3992657Y-17075772D01*
X3992657Y-17004343D01*
X3978371Y-16975772D01*
X3964086Y-16961486D01*
X3935514Y-16947200D01*
X3878371Y-16947200D01*
X3849800Y-16961486D01*
X3835514Y-16975772D01*
X3821228Y-17004343D01*
X4106943Y-16861486D02*
X4121228Y-16847200D01*
X4149800Y-16832914D01*
X4221228Y-16832914D01*
X4249800Y-16847200D01*
X4264086Y-16861486D01*
X4278371Y-16890057D01*
X4278371Y-16918629D01*
X4264086Y-16961486D01*
X4092657Y-17132914D01*
X4278371Y-17132914D01*
X4406943Y-17132914D02*
X4406943Y-16932914D01*
X4406943Y-16961486D02*
X4421228Y-16947200D01*
X4449800Y-16932914D01*
X4492657Y-16932914D01*
X4521228Y-16947200D01*
X4535514Y-16975772D01*
X4535514Y-17132914D01*
X4535514Y-16975772D02*
X4549800Y-16947200D01*
X4578371Y-16932914D01*
X4621228Y-16932914D01*
X4649800Y-16947200D01*
X4664086Y-16975772D01*
X4664086Y-17132914D01*
X4806943Y-17132914D02*
X4806943Y-16932914D01*
X4806943Y-16961486D02*
X4821228Y-16947200D01*
X4849800Y-16932914D01*
X4892657Y-16932914D01*
X4921228Y-16947200D01*
X4935514Y-16975772D01*
X4935514Y-17132914D01*
X4935514Y-16975772D02*
X4949800Y-16947200D01*
X4978371Y-16932914D01*
X5021228Y-16932914D01*
X5049800Y-16947200D01*
X5064086Y-16975772D01*
X5064086Y-17132914D01*
X5649800Y-16818629D02*
X5392657Y-17204343D01*
X6035514Y-16832914D02*
X6064086Y-16832914D01*
X6092657Y-16847200D01*
X6106943Y-16861486D01*
X6121228Y-16890057D01*
X6135514Y-16947200D01*
X6135514Y-17018629D01*
X6121228Y-17075772D01*
X6106943Y-17104343D01*
X6092657Y-17118629D01*
X6064086Y-17132914D01*
X6035514Y-17132914D01*
X6006943Y-17118629D01*
X5992657Y-17104343D01*
X5978371Y-17075772D01*
X5964086Y-17018629D01*
X5964086Y-16947200D01*
X5978371Y-16890057D01*
X5992657Y-16861486D01*
X6006943Y-16847200D01*
X6035514Y-16832914D01*
X6264086Y-17104343D02*
X6278371Y-17118629D01*
X6264086Y-17132914D01*
X6249800Y-17118629D01*
X6264086Y-17104343D01*
X6264086Y-17132914D01*
X6464086Y-16832914D02*
X6492657Y-16832914D01*
X6521228Y-16847200D01*
X6535514Y-16861486D01*
X6549800Y-16890057D01*
X6564086Y-16947200D01*
X6564086Y-17018629D01*
X6549800Y-17075772D01*
X6535514Y-17104343D01*
X6521228Y-17118629D01*
X6492657Y-17132914D01*
X6464086Y-17132914D01*
X6435514Y-17118629D01*
X6421228Y-17104343D01*
X6406943Y-17075772D01*
X6392657Y-17018629D01*
X6392657Y-16947200D01*
X6406943Y-16890057D01*
X6421228Y-16861486D01*
X6435514Y-16847200D01*
X6464086Y-16832914D01*
X6664086Y-16832914D02*
X6849800Y-16832914D01*
X6749800Y-16947200D01*
X6792657Y-16947200D01*
X6821228Y-16961486D01*
X6835514Y-16975772D01*
X6849800Y-17004343D01*
X6849800Y-17075772D01*
X6835514Y-17104343D01*
X6821228Y-17118629D01*
X6792657Y-17132914D01*
X6706943Y-17132914D01*
X6678371Y-17118629D01*
X6664086Y-17104343D01*
X7035514Y-16832914D02*
X7064086Y-16832914D01*
X7092657Y-16847200D01*
X7106943Y-16861486D01*
X7121228Y-16890057D01*
X7135514Y-16947200D01*
X7135514Y-17018629D01*
X7121228Y-17075772D01*
X7106943Y-17104343D01*
X7092657Y-17118629D01*
X7064086Y-17132914D01*
X7035514Y-17132914D01*
X7006943Y-17118629D01*
X6992657Y-17104343D01*
X6978371Y-17075772D01*
X6964086Y-17018629D01*
X6964086Y-16947200D01*
X6978371Y-16890057D01*
X6992657Y-16861486D01*
X7006943Y-16847200D01*
X7035514Y-16832914D01*
X7321228Y-16832914D02*
X7349800Y-16832914D01*
X7378371Y-16847200D01*
X7392657Y-16861486D01*
X7406943Y-16890057D01*
X7421228Y-16947200D01*
X7421228Y-17018629D01*
X7406943Y-17075772D01*
X7392657Y-17104343D01*
X7378371Y-17118629D01*
X7349800Y-17132914D01*
X7321228Y-17132914D01*
X7292657Y-17118629D01*
X7278371Y-17104343D01*
X7264086Y-17075772D01*
X7249800Y-17018629D01*
X7249800Y-16947200D01*
X7264086Y-16890057D01*
X7278371Y-16861486D01*
X7292657Y-16847200D01*
X7321228Y-16832914D01*
X7535514Y-16832914D02*
X7535514Y-16890057D01*
X7649800Y-16832914D02*
X7649800Y-16890057D01*
X8092657Y-17247200D02*
X8078371Y-17232914D01*
X8049800Y-17190057D01*
X8035514Y-17161486D01*
X8021228Y-17118629D01*
X8006943Y-17047200D01*
X8006943Y-16990057D01*
X8021228Y-16918629D01*
X8035514Y-16875772D01*
X8049800Y-16847200D01*
X8078371Y-16804343D01*
X8092657Y-16790057D01*
X8364086Y-17132914D02*
X8192657Y-17132914D01*
X8278371Y-17132914D02*
X8278371Y-16832914D01*
X8249800Y-16875772D01*
X8221228Y-16904343D01*
X8192657Y-16918629D01*
X8549800Y-16832914D02*
X8578371Y-16832914D01*
X8606943Y-16847200D01*
X8621228Y-16861486D01*
X8635514Y-16890057D01*
X8649800Y-16947200D01*
X8649800Y-17018629D01*
X8635514Y-17075772D01*
X8621228Y-17104343D01*
X8606943Y-17118629D01*
X8578371Y-17132914D01*
X8549800Y-17132914D01*
X8521228Y-17118629D01*
X8506943Y-17104343D01*
X8492657Y-17075772D01*
X8478371Y-17018629D01*
X8478371Y-16947200D01*
X8492657Y-16890057D01*
X8506943Y-16861486D01*
X8521228Y-16847200D01*
X8549800Y-16832914D01*
X9006943Y-17132914D02*
X9006943Y-16832914D01*
X9135514Y-17132914D02*
X9135514Y-16975772D01*
X9121228Y-16947200D01*
X9092657Y-16932914D01*
X9049800Y-16932914D01*
X9021228Y-16947200D01*
X9006943Y-16961486D01*
X9321228Y-17132914D02*
X9292657Y-17118629D01*
X9278371Y-17104343D01*
X9264086Y-17075772D01*
X9264086Y-16990057D01*
X9278371Y-16961486D01*
X9292657Y-16947200D01*
X9321228Y-16932914D01*
X9364086Y-16932914D01*
X9392657Y-16947200D01*
X9406943Y-16961486D01*
X9421228Y-16990057D01*
X9421228Y-17075772D01*
X9406943Y-17104343D01*
X9392657Y-17118629D01*
X9364086Y-17132914D01*
X9321228Y-17132914D01*
X9592657Y-17132914D02*
X9564086Y-17118629D01*
X9549800Y-17090057D01*
X9549800Y-16832914D01*
X9821228Y-17118629D02*
X9792657Y-17132914D01*
X9735514Y-17132914D01*
X9706943Y-17118629D01*
X9692657Y-17090057D01*
X9692657Y-16975772D01*
X9706943Y-16947200D01*
X9735514Y-16932914D01*
X9792657Y-16932914D01*
X9821228Y-16947200D01*
X9835514Y-16975772D01*
X9835514Y-17004343D01*
X9692657Y-17032914D01*
X9949800Y-17118629D02*
X9978371Y-17132914D01*
X10035514Y-17132914D01*
X10064086Y-17118629D01*
X10078371Y-17090057D01*
X10078371Y-17075772D01*
X10064086Y-17047200D01*
X10035514Y-17032914D01*
X9992657Y-17032914D01*
X9964086Y-17018629D01*
X9949800Y-16990057D01*
X9949800Y-16975772D01*
X9964086Y-16947200D01*
X9992657Y-16932914D01*
X10035514Y-16932914D01*
X10064086Y-16947200D01*
X10178371Y-17247200D02*
X10192657Y-17232914D01*
X10221228Y-17190057D01*
X10235514Y-17161486D01*
X10249800Y-17118629D01*
X10264086Y-17047200D01*
X10264086Y-16990057D01*
X10249800Y-16918629D01*
X10235514Y-16875772D01*
X10221228Y-16847200D01*
X10192657Y-16804343D01*
X10178371Y-16790057D01*
X2823084Y-17421485D02*
X2823084Y-17364916D01*
X2766515Y-17364916D01*
X2766515Y-17421485D01*
X2823084Y-17421485D01*
X3178371Y-17228914D02*
X3206943Y-17228914D01*
X3235514Y-17243200D01*
X3249800Y-17257486D01*
X3264086Y-17286057D01*
X3278371Y-17343200D01*
X3278371Y-17414629D01*
X3264086Y-17471772D01*
X3249800Y-17500343D01*
X3235514Y-17514629D01*
X3206943Y-17528914D01*
X3178371Y-17528914D01*
X3149800Y-17514629D01*
X3135514Y-17500343D01*
X3121228Y-17471772D01*
X3106943Y-17414629D01*
X3106943Y-17343200D01*
X3121228Y-17286057D01*
X3135514Y-17257486D01*
X3149800Y-17243200D01*
X3178371Y-17228914D01*
X3406943Y-17500343D02*
X3421228Y-17514629D01*
X3406943Y-17528914D01*
X3392657Y-17514629D01*
X3406943Y-17500343D01*
X3406943Y-17528914D01*
X3592657Y-17357486D02*
X3564086Y-17343200D01*
X3549800Y-17328914D01*
X3535514Y-17300343D01*
X3535514Y-17286057D01*
X3549800Y-17257486D01*
X3564086Y-17243200D01*
X3592657Y-17228914D01*
X3649800Y-17228914D01*
X3678371Y-17243200D01*
X3692657Y-17257486D01*
X3706943Y-17286057D01*
X3706943Y-17300343D01*
X3692657Y-17328914D01*
X3678371Y-17343200D01*
X3649800Y-17357486D01*
X3592657Y-17357486D01*
X3564086Y-17371772D01*
X3549800Y-17386057D01*
X3535514Y-17414629D01*
X3535514Y-17471772D01*
X3549800Y-17500343D01*
X3564086Y-17514629D01*
X3592657Y-17528914D01*
X3649800Y-17528914D01*
X3678371Y-17514629D01*
X3692657Y-17500343D01*
X3706943Y-17471772D01*
X3706943Y-17414629D01*
X3692657Y-17386057D01*
X3678371Y-17371772D01*
X3649800Y-17357486D01*
X3892657Y-17228914D02*
X3921228Y-17228914D01*
X3949800Y-17243200D01*
X3964086Y-17257486D01*
X3978371Y-17286057D01*
X3992657Y-17343200D01*
X3992657Y-17414629D01*
X3978371Y-17471772D01*
X3964086Y-17500343D01*
X3949800Y-17514629D01*
X3921228Y-17528914D01*
X3892657Y-17528914D01*
X3864086Y-17514629D01*
X3849800Y-17500343D01*
X3835514Y-17471772D01*
X3821228Y-17414629D01*
X3821228Y-17343200D01*
X3835514Y-17286057D01*
X3849800Y-17257486D01*
X3864086Y-17243200D01*
X3892657Y-17228914D01*
X4178371Y-17228914D02*
X4206943Y-17228914D01*
X4235514Y-17243200D01*
X4249800Y-17257486D01*
X4264086Y-17286057D01*
X4278371Y-17343200D01*
X4278371Y-17414629D01*
X4264086Y-17471772D01*
X4249800Y-17500343D01*
X4235514Y-17514629D01*
X4206943Y-17528914D01*
X4178371Y-17528914D01*
X4149800Y-17514629D01*
X4135514Y-17500343D01*
X4121228Y-17471772D01*
X4106943Y-17414629D01*
X4106943Y-17343200D01*
X4121228Y-17286057D01*
X4135514Y-17257486D01*
X4149800Y-17243200D01*
X4178371Y-17228914D01*
X4406943Y-17528914D02*
X4406943Y-17328914D01*
X4406943Y-17357486D02*
X4421228Y-17343200D01*
X4449800Y-17328914D01*
X4492657Y-17328914D01*
X4521228Y-17343200D01*
X4535514Y-17371772D01*
X4535514Y-17528914D01*
X4535514Y-17371772D02*
X4549800Y-17343200D01*
X4578371Y-17328914D01*
X4621228Y-17328914D01*
X4649800Y-17343200D01*
X4664086Y-17371772D01*
X4664086Y-17528914D01*
X4806943Y-17528914D02*
X4806943Y-17328914D01*
X4806943Y-17357486D02*
X4821228Y-17343200D01*
X4849800Y-17328914D01*
X4892657Y-17328914D01*
X4921228Y-17343200D01*
X4935514Y-17371772D01*
X4935514Y-17528914D01*
X4935514Y-17371772D02*
X4949800Y-17343200D01*
X4978371Y-17328914D01*
X5021228Y-17328914D01*
X5049800Y-17343200D01*
X5064086Y-17371772D01*
X5064086Y-17528914D01*
X5649800Y-17214629D02*
X5392657Y-17600343D01*
X6035514Y-17228914D02*
X6064086Y-17228914D01*
X6092657Y-17243200D01*
X6106943Y-17257486D01*
X6121228Y-17286057D01*
X6135514Y-17343200D01*
X6135514Y-17414629D01*
X6121228Y-17471772D01*
X6106943Y-17500343D01*
X6092657Y-17514629D01*
X6064086Y-17528914D01*
X6035514Y-17528914D01*
X6006943Y-17514629D01*
X5992657Y-17500343D01*
X5978371Y-17471772D01*
X5964086Y-17414629D01*
X5964086Y-17343200D01*
X5978371Y-17286057D01*
X5992657Y-17257486D01*
X6006943Y-17243200D01*
X6035514Y-17228914D01*
X6264086Y-17500343D02*
X6278371Y-17514629D01*
X6264086Y-17528914D01*
X6249800Y-17514629D01*
X6264086Y-17500343D01*
X6264086Y-17528914D01*
X6464086Y-17228914D02*
X6492657Y-17228914D01*
X6521228Y-17243200D01*
X6535514Y-17257486D01*
X6549800Y-17286057D01*
X6564086Y-17343200D01*
X6564086Y-17414629D01*
X6549800Y-17471772D01*
X6535514Y-17500343D01*
X6521228Y-17514629D01*
X6492657Y-17528914D01*
X6464086Y-17528914D01*
X6435514Y-17514629D01*
X6421228Y-17500343D01*
X6406943Y-17471772D01*
X6392657Y-17414629D01*
X6392657Y-17343200D01*
X6406943Y-17286057D01*
X6421228Y-17257486D01*
X6435514Y-17243200D01*
X6464086Y-17228914D01*
X6664086Y-17228914D02*
X6849800Y-17228914D01*
X6749800Y-17343200D01*
X6792657Y-17343200D01*
X6821228Y-17357486D01*
X6835514Y-17371772D01*
X6849800Y-17400343D01*
X6849800Y-17471772D01*
X6835514Y-17500343D01*
X6821228Y-17514629D01*
X6792657Y-17528914D01*
X6706943Y-17528914D01*
X6678371Y-17514629D01*
X6664086Y-17500343D01*
X7135514Y-17528914D02*
X6964086Y-17528914D01*
X7049800Y-17528914D02*
X7049800Y-17228914D01*
X7021228Y-17271772D01*
X6992657Y-17300343D01*
X6964086Y-17314629D01*
X7406943Y-17228914D02*
X7264086Y-17228914D01*
X7249800Y-17371772D01*
X7264086Y-17357486D01*
X7292657Y-17343200D01*
X7364086Y-17343200D01*
X7392657Y-17357486D01*
X7406943Y-17371772D01*
X7421228Y-17400343D01*
X7421228Y-17471772D01*
X7406943Y-17500343D01*
X7392657Y-17514629D01*
X7364086Y-17528914D01*
X7292657Y-17528914D01*
X7264086Y-17514629D01*
X7249800Y-17500343D01*
X7535514Y-17228914D02*
X7535514Y-17286057D01*
X7649800Y-17228914D02*
X7649800Y-17286057D01*
X8092657Y-17643200D02*
X8078371Y-17628914D01*
X8049800Y-17586057D01*
X8035514Y-17557486D01*
X8021228Y-17514629D01*
X8006943Y-17443200D01*
X8006943Y-17386057D01*
X8021228Y-17314629D01*
X8035514Y-17271772D01*
X8049800Y-17243200D01*
X8078371Y-17200343D01*
X8092657Y-17186057D01*
X8192657Y-17257486D02*
X8206943Y-17243200D01*
X8235514Y-17228914D01*
X8306943Y-17228914D01*
X8335514Y-17243200D01*
X8349800Y-17257486D01*
X8364086Y-17286057D01*
X8364086Y-17314629D01*
X8349800Y-17357486D01*
X8178371Y-17528914D01*
X8364086Y-17528914D01*
X8721228Y-17528914D02*
X8721228Y-17228914D01*
X8849800Y-17528914D02*
X8849800Y-17371772D01*
X8835514Y-17343200D01*
X8806943Y-17328914D01*
X8764086Y-17328914D01*
X8735514Y-17343200D01*
X8721228Y-17357486D01*
X9035514Y-17528914D02*
X9006943Y-17514629D01*
X8992657Y-17500343D01*
X8978371Y-17471772D01*
X8978371Y-17386057D01*
X8992657Y-17357486D01*
X9006943Y-17343200D01*
X9035514Y-17328914D01*
X9078371Y-17328914D01*
X9106943Y-17343200D01*
X9121228Y-17357486D01*
X9135514Y-17386057D01*
X9135514Y-17471772D01*
X9121228Y-17500343D01*
X9106943Y-17514629D01*
X9078371Y-17528914D01*
X9035514Y-17528914D01*
X9306943Y-17528914D02*
X9278371Y-17514629D01*
X9264086Y-17486057D01*
X9264086Y-17228914D01*
X9535514Y-17514629D02*
X9506943Y-17528914D01*
X9449800Y-17528914D01*
X9421228Y-17514629D01*
X9406943Y-17486057D01*
X9406943Y-17371772D01*
X9421228Y-17343200D01*
X9449800Y-17328914D01*
X9506943Y-17328914D01*
X9535514Y-17343200D01*
X9549800Y-17371772D01*
X9549800Y-17400343D01*
X9406943Y-17428914D01*
X9664086Y-17514629D02*
X9692657Y-17528914D01*
X9749800Y-17528914D01*
X9778371Y-17514629D01*
X9792657Y-17486057D01*
X9792657Y-17471772D01*
X9778371Y-17443200D01*
X9749800Y-17428914D01*
X9706943Y-17428914D01*
X9678371Y-17414629D01*
X9664086Y-17386057D01*
X9664086Y-17371772D01*
X9678371Y-17343200D01*
X9706943Y-17328914D01*
X9749800Y-17328914D01*
X9778371Y-17343200D01*
X9892657Y-17643200D02*
X9906943Y-17628914D01*
X9935514Y-17586057D01*
X9949800Y-17557486D01*
X9964086Y-17514629D01*
X9978371Y-17443200D01*
X9978371Y-17386057D01*
X9964086Y-17314629D01*
X9949800Y-17271772D01*
X9935514Y-17243200D01*
X9906943Y-17200343D01*
X9892657Y-17186057D01*
X2794160Y-17829840D02*
X2834800Y-17789200D01*
X2794160Y-17748560D01*
X2753520Y-17789200D01*
X2794160Y-17829840D01*
X3178371Y-17624914D02*
X3206943Y-17624914D01*
X3235514Y-17639200D01*
X3249800Y-17653486D01*
X3264086Y-17682057D01*
X3278371Y-17739200D01*
X3278371Y-17810629D01*
X3264086Y-17867772D01*
X3249800Y-17896343D01*
X3235514Y-17910629D01*
X3206943Y-17924914D01*
X3178371Y-17924914D01*
X3149800Y-17910629D01*
X3135514Y-17896343D01*
X3121228Y-17867772D01*
X3106943Y-17810629D01*
X3106943Y-17739200D01*
X3121228Y-17682057D01*
X3135514Y-17653486D01*
X3149800Y-17639200D01*
X3178371Y-17624914D01*
X3406943Y-17896343D02*
X3421228Y-17910629D01*
X3406943Y-17924914D01*
X3392657Y-17910629D01*
X3406943Y-17896343D01*
X3406943Y-17924914D01*
X3592657Y-17753486D02*
X3564086Y-17739200D01*
X3549800Y-17724914D01*
X3535514Y-17696343D01*
X3535514Y-17682057D01*
X3549800Y-17653486D01*
X3564086Y-17639200D01*
X3592657Y-17624914D01*
X3649800Y-17624914D01*
X3678371Y-17639200D01*
X3692657Y-17653486D01*
X3706943Y-17682057D01*
X3706943Y-17696343D01*
X3692657Y-17724914D01*
X3678371Y-17739200D01*
X3649800Y-17753486D01*
X3592657Y-17753486D01*
X3564086Y-17767772D01*
X3549800Y-17782057D01*
X3535514Y-17810629D01*
X3535514Y-17867772D01*
X3549800Y-17896343D01*
X3564086Y-17910629D01*
X3592657Y-17924914D01*
X3649800Y-17924914D01*
X3678371Y-17910629D01*
X3692657Y-17896343D01*
X3706943Y-17867772D01*
X3706943Y-17810629D01*
X3692657Y-17782057D01*
X3678371Y-17767772D01*
X3649800Y-17753486D01*
X3992657Y-17924914D02*
X3821228Y-17924914D01*
X3906943Y-17924914D02*
X3906943Y-17624914D01*
X3878371Y-17667772D01*
X3849800Y-17696343D01*
X3821228Y-17710629D01*
X4092657Y-17624914D02*
X4278371Y-17624914D01*
X4178371Y-17739200D01*
X4221228Y-17739200D01*
X4249800Y-17753486D01*
X4264086Y-17767772D01*
X4278371Y-17796343D01*
X4278371Y-17867772D01*
X4264086Y-17896343D01*
X4249800Y-17910629D01*
X4221228Y-17924914D01*
X4135514Y-17924914D01*
X4106943Y-17910629D01*
X4092657Y-17896343D01*
X4406943Y-17924914D02*
X4406943Y-17724914D01*
X4406943Y-17753486D02*
X4421228Y-17739200D01*
X4449800Y-17724914D01*
X4492657Y-17724914D01*
X4521228Y-17739200D01*
X4535514Y-17767772D01*
X4535514Y-17924914D01*
X4535514Y-17767772D02*
X4549800Y-17739200D01*
X4578371Y-17724914D01*
X4621228Y-17724914D01*
X4649800Y-17739200D01*
X4664086Y-17767772D01*
X4664086Y-17924914D01*
X4806943Y-17924914D02*
X4806943Y-17724914D01*
X4806943Y-17753486D02*
X4821228Y-17739200D01*
X4849800Y-17724914D01*
X4892657Y-17724914D01*
X4921228Y-17739200D01*
X4935514Y-17767772D01*
X4935514Y-17924914D01*
X4935514Y-17767772D02*
X4949800Y-17739200D01*
X4978371Y-17724914D01*
X5021228Y-17724914D01*
X5049800Y-17739200D01*
X5064086Y-17767772D01*
X5064086Y-17924914D01*
X5649800Y-17610629D02*
X5392657Y-17996343D01*
X6035514Y-17624914D02*
X6064086Y-17624914D01*
X6092657Y-17639200D01*
X6106943Y-17653486D01*
X6121228Y-17682057D01*
X6135514Y-17739200D01*
X6135514Y-17810629D01*
X6121228Y-17867772D01*
X6106943Y-17896343D01*
X6092657Y-17910629D01*
X6064086Y-17924914D01*
X6035514Y-17924914D01*
X6006943Y-17910629D01*
X5992657Y-17896343D01*
X5978371Y-17867772D01*
X5964086Y-17810629D01*
X5964086Y-17739200D01*
X5978371Y-17682057D01*
X5992657Y-17653486D01*
X6006943Y-17639200D01*
X6035514Y-17624914D01*
X6264086Y-17896343D02*
X6278371Y-17910629D01*
X6264086Y-17924914D01*
X6249800Y-17910629D01*
X6264086Y-17896343D01*
X6264086Y-17924914D01*
X6464086Y-17624914D02*
X6492657Y-17624914D01*
X6521228Y-17639200D01*
X6535514Y-17653486D01*
X6549800Y-17682057D01*
X6564086Y-17739200D01*
X6564086Y-17810629D01*
X6549800Y-17867772D01*
X6535514Y-17896343D01*
X6521228Y-17910629D01*
X6492657Y-17924914D01*
X6464086Y-17924914D01*
X6435514Y-17910629D01*
X6421228Y-17896343D01*
X6406943Y-17867772D01*
X6392657Y-17810629D01*
X6392657Y-17739200D01*
X6406943Y-17682057D01*
X6421228Y-17653486D01*
X6435514Y-17639200D01*
X6464086Y-17624914D01*
X6664086Y-17624914D02*
X6849800Y-17624914D01*
X6749800Y-17739200D01*
X6792657Y-17739200D01*
X6821228Y-17753486D01*
X6835514Y-17767772D01*
X6849800Y-17796343D01*
X6849800Y-17867772D01*
X6835514Y-17896343D01*
X6821228Y-17910629D01*
X6792657Y-17924914D01*
X6706943Y-17924914D01*
X6678371Y-17910629D01*
X6664086Y-17896343D01*
X6964086Y-17653486D02*
X6978371Y-17639200D01*
X7006943Y-17624914D01*
X7078371Y-17624914D01*
X7106943Y-17639200D01*
X7121228Y-17653486D01*
X7135514Y-17682057D01*
X7135514Y-17710629D01*
X7121228Y-17753486D01*
X6949800Y-17924914D01*
X7135514Y-17924914D01*
X7321228Y-17624914D02*
X7349800Y-17624914D01*
X7378371Y-17639200D01*
X7392657Y-17653486D01*
X7406943Y-17682057D01*
X7421228Y-17739200D01*
X7421228Y-17810629D01*
X7406943Y-17867772D01*
X7392657Y-17896343D01*
X7378371Y-17910629D01*
X7349800Y-17924914D01*
X7321228Y-17924914D01*
X7292657Y-17910629D01*
X7278371Y-17896343D01*
X7264086Y-17867772D01*
X7249800Y-17810629D01*
X7249800Y-17739200D01*
X7264086Y-17682057D01*
X7278371Y-17653486D01*
X7292657Y-17639200D01*
X7321228Y-17624914D01*
X7535514Y-17624914D02*
X7535514Y-17682057D01*
X7649800Y-17624914D02*
X7649800Y-17682057D01*
X8092657Y-18039200D02*
X8078371Y-18024914D01*
X8049800Y-17982057D01*
X8035514Y-17953486D01*
X8021228Y-17910629D01*
X8006943Y-17839200D01*
X8006943Y-17782057D01*
X8021228Y-17710629D01*
X8035514Y-17667772D01*
X8049800Y-17639200D01*
X8078371Y-17596343D01*
X8092657Y-17582057D01*
X8192657Y-17653486D02*
X8206943Y-17639200D01*
X8235514Y-17624914D01*
X8306943Y-17624914D01*
X8335514Y-17639200D01*
X8349800Y-17653486D01*
X8364086Y-17682057D01*
X8364086Y-17710629D01*
X8349800Y-17753486D01*
X8178371Y-17924914D01*
X8364086Y-17924914D01*
X8621228Y-17724914D02*
X8621228Y-17924914D01*
X8549800Y-17610629D02*
X8478371Y-17824914D01*
X8664086Y-17824914D01*
X9006943Y-17924914D02*
X9006943Y-17624914D01*
X9135514Y-17924914D02*
X9135514Y-17767772D01*
X9121228Y-17739200D01*
X9092657Y-17724914D01*
X9049800Y-17724914D01*
X9021228Y-17739200D01*
X9006943Y-17753486D01*
X9321228Y-17924914D02*
X9292657Y-17910629D01*
X9278371Y-17896343D01*
X9264086Y-17867772D01*
X9264086Y-17782057D01*
X9278371Y-17753486D01*
X9292657Y-17739200D01*
X9321228Y-17724914D01*
X9364086Y-17724914D01*
X9392657Y-17739200D01*
X9406943Y-17753486D01*
X9421228Y-17782057D01*
X9421228Y-17867772D01*
X9406943Y-17896343D01*
X9392657Y-17910629D01*
X9364086Y-17924914D01*
X9321228Y-17924914D01*
X9592657Y-17924914D02*
X9564086Y-17910629D01*
X9549800Y-17882057D01*
X9549800Y-17624914D01*
X9821228Y-17910629D02*
X9792657Y-17924914D01*
X9735514Y-17924914D01*
X9706943Y-17910629D01*
X9692657Y-17882057D01*
X9692657Y-17767772D01*
X9706943Y-17739200D01*
X9735514Y-17724914D01*
X9792657Y-17724914D01*
X9821228Y-17739200D01*
X9835514Y-17767772D01*
X9835514Y-17796343D01*
X9692657Y-17824914D01*
X9949800Y-17910629D02*
X9978371Y-17924914D01*
X10035514Y-17924914D01*
X10064086Y-17910629D01*
X10078371Y-17882057D01*
X10078371Y-17867772D01*
X10064086Y-17839200D01*
X10035514Y-17824914D01*
X9992657Y-17824914D01*
X9964086Y-17810629D01*
X9949800Y-17782057D01*
X9949800Y-17767772D01*
X9964086Y-17739200D01*
X9992657Y-17724914D01*
X10035514Y-17724914D01*
X10064086Y-17739200D01*
X10178371Y-18039200D02*
X10192657Y-18024914D01*
X10221228Y-17982057D01*
X10235514Y-17953486D01*
X10249800Y-17910629D01*
X10264086Y-17839200D01*
X10264086Y-17782057D01*
X10249800Y-17710629D01*
X10235514Y-17667772D01*
X10221228Y-17639200D01*
X10192657Y-17596343D01*
X10178371Y-17582057D01*
X2734800Y-18135200D02*
X2834800Y-18235200D01*
X2834800Y-18135200D02*
X2734800Y-18235200D01*
X2834800Y-18185200D02*
G75*
G03*
X2834800Y-18185200I-50000J0D01*
G01*
X3278371Y-18320914D02*
X3106943Y-18320914D01*
X3192657Y-18320914D02*
X3192657Y-18020914D01*
X3164086Y-18063772D01*
X3135514Y-18092343D01*
X3106943Y-18106629D01*
X3406943Y-18292343D02*
X3421228Y-18306629D01*
X3406943Y-18320914D01*
X3392657Y-18306629D01*
X3406943Y-18292343D01*
X3406943Y-18320914D01*
X3606943Y-18020914D02*
X3635514Y-18020914D01*
X3664086Y-18035200D01*
X3678371Y-18049486D01*
X3692657Y-18078057D01*
X3706943Y-18135200D01*
X3706943Y-18206629D01*
X3692657Y-18263772D01*
X3678371Y-18292343D01*
X3664086Y-18306629D01*
X3635514Y-18320914D01*
X3606943Y-18320914D01*
X3578371Y-18306629D01*
X3564086Y-18292343D01*
X3549800Y-18263772D01*
X3535514Y-18206629D01*
X3535514Y-18135200D01*
X3549800Y-18078057D01*
X3564086Y-18049486D01*
X3578371Y-18035200D01*
X3606943Y-18020914D01*
X3892657Y-18020914D02*
X3921228Y-18020914D01*
X3949800Y-18035200D01*
X3964086Y-18049486D01*
X3978371Y-18078057D01*
X3992657Y-18135200D01*
X3992657Y-18206629D01*
X3978371Y-18263772D01*
X3964086Y-18292343D01*
X3949800Y-18306629D01*
X3921228Y-18320914D01*
X3892657Y-18320914D01*
X3864086Y-18306629D01*
X3849800Y-18292343D01*
X3835514Y-18263772D01*
X3821228Y-18206629D01*
X3821228Y-18135200D01*
X3835514Y-18078057D01*
X3849800Y-18049486D01*
X3864086Y-18035200D01*
X3892657Y-18020914D01*
X4178371Y-18020914D02*
X4206943Y-18020914D01*
X4235514Y-18035200D01*
X4249800Y-18049486D01*
X4264086Y-18078057D01*
X4278371Y-18135200D01*
X4278371Y-18206629D01*
X4264086Y-18263772D01*
X4249800Y-18292343D01*
X4235514Y-18306629D01*
X4206943Y-18320914D01*
X4178371Y-18320914D01*
X4149800Y-18306629D01*
X4135514Y-18292343D01*
X4121228Y-18263772D01*
X4106943Y-18206629D01*
X4106943Y-18135200D01*
X4121228Y-18078057D01*
X4135514Y-18049486D01*
X4149800Y-18035200D01*
X4178371Y-18020914D01*
X4406943Y-18320914D02*
X4406943Y-18120914D01*
X4406943Y-18149486D02*
X4421228Y-18135200D01*
X4449800Y-18120914D01*
X4492657Y-18120914D01*
X4521228Y-18135200D01*
X4535514Y-18163772D01*
X4535514Y-18320914D01*
X4535514Y-18163772D02*
X4549800Y-18135200D01*
X4578371Y-18120914D01*
X4621228Y-18120914D01*
X4649800Y-18135200D01*
X4664086Y-18163772D01*
X4664086Y-18320914D01*
X4806943Y-18320914D02*
X4806943Y-18120914D01*
X4806943Y-18149486D02*
X4821228Y-18135200D01*
X4849800Y-18120914D01*
X4892657Y-18120914D01*
X4921228Y-18135200D01*
X4935514Y-18163772D01*
X4935514Y-18320914D01*
X4935514Y-18163772D02*
X4949800Y-18135200D01*
X4978371Y-18120914D01*
X5021228Y-18120914D01*
X5049800Y-18135200D01*
X5064086Y-18163772D01*
X5064086Y-18320914D01*
X5649800Y-18006629D02*
X5392657Y-18392343D01*
X6035514Y-18020914D02*
X6064086Y-18020914D01*
X6092657Y-18035200D01*
X6106943Y-18049486D01*
X6121228Y-18078057D01*
X6135514Y-18135200D01*
X6135514Y-18206629D01*
X6121228Y-18263772D01*
X6106943Y-18292343D01*
X6092657Y-18306629D01*
X6064086Y-18320914D01*
X6035514Y-18320914D01*
X6006943Y-18306629D01*
X5992657Y-18292343D01*
X5978371Y-18263772D01*
X5964086Y-18206629D01*
X5964086Y-18135200D01*
X5978371Y-18078057D01*
X5992657Y-18049486D01*
X6006943Y-18035200D01*
X6035514Y-18020914D01*
X6264086Y-18292343D02*
X6278371Y-18306629D01*
X6264086Y-18320914D01*
X6249800Y-18306629D01*
X6264086Y-18292343D01*
X6264086Y-18320914D01*
X6464086Y-18020914D02*
X6492657Y-18020914D01*
X6521228Y-18035200D01*
X6535514Y-18049486D01*
X6549800Y-18078057D01*
X6564086Y-18135200D01*
X6564086Y-18206629D01*
X6549800Y-18263772D01*
X6535514Y-18292343D01*
X6521228Y-18306629D01*
X6492657Y-18320914D01*
X6464086Y-18320914D01*
X6435514Y-18306629D01*
X6421228Y-18292343D01*
X6406943Y-18263772D01*
X6392657Y-18206629D01*
X6392657Y-18135200D01*
X6406943Y-18078057D01*
X6421228Y-18049486D01*
X6435514Y-18035200D01*
X6464086Y-18020914D01*
X6664086Y-18020914D02*
X6849800Y-18020914D01*
X6749800Y-18135200D01*
X6792657Y-18135200D01*
X6821228Y-18149486D01*
X6835514Y-18163772D01*
X6849800Y-18192343D01*
X6849800Y-18263772D01*
X6835514Y-18292343D01*
X6821228Y-18306629D01*
X6792657Y-18320914D01*
X6706943Y-18320914D01*
X6678371Y-18306629D01*
X6664086Y-18292343D01*
X6992657Y-18320914D02*
X7049800Y-18320914D01*
X7078371Y-18306629D01*
X7092657Y-18292343D01*
X7121228Y-18249486D01*
X7135514Y-18192343D01*
X7135514Y-18078057D01*
X7121228Y-18049486D01*
X7106943Y-18035200D01*
X7078371Y-18020914D01*
X7021228Y-18020914D01*
X6992657Y-18035200D01*
X6978371Y-18049486D01*
X6964086Y-18078057D01*
X6964086Y-18149486D01*
X6978371Y-18178057D01*
X6992657Y-18192343D01*
X7021228Y-18206629D01*
X7078371Y-18206629D01*
X7106943Y-18192343D01*
X7121228Y-18178057D01*
X7135514Y-18149486D01*
X7392657Y-18120914D02*
X7392657Y-18320914D01*
X7321228Y-18006629D02*
X7249800Y-18220914D01*
X7435514Y-18220914D01*
X7535514Y-18020914D02*
X7535514Y-18078057D01*
X7649800Y-18020914D02*
X7649800Y-18078057D01*
X8092657Y-18435200D02*
X8078371Y-18420914D01*
X8049800Y-18378057D01*
X8035514Y-18349486D01*
X8021228Y-18306629D01*
X8006943Y-18235200D01*
X8006943Y-18178057D01*
X8021228Y-18106629D01*
X8035514Y-18063772D01*
X8049800Y-18035200D01*
X8078371Y-17992343D01*
X8092657Y-17978057D01*
X8364086Y-18320914D02*
X8192657Y-18320914D01*
X8278371Y-18320914D02*
X8278371Y-18020914D01*
X8249800Y-18063772D01*
X8221228Y-18092343D01*
X8192657Y-18106629D01*
X8649800Y-18320914D02*
X8478371Y-18320914D01*
X8564086Y-18320914D02*
X8564086Y-18020914D01*
X8535514Y-18063772D01*
X8506943Y-18092343D01*
X8478371Y-18106629D01*
X8821228Y-18149486D02*
X8792657Y-18135200D01*
X8778371Y-18120914D01*
X8764086Y-18092343D01*
X8764086Y-18078057D01*
X8778371Y-18049486D01*
X8792657Y-18035200D01*
X8821228Y-18020914D01*
X8878371Y-18020914D01*
X8906943Y-18035200D01*
X8921228Y-18049486D01*
X8935514Y-18078057D01*
X8935514Y-18092343D01*
X8921228Y-18120914D01*
X8906943Y-18135200D01*
X8878371Y-18149486D01*
X8821228Y-18149486D01*
X8792657Y-18163772D01*
X8778371Y-18178057D01*
X8764086Y-18206629D01*
X8764086Y-18263772D01*
X8778371Y-18292343D01*
X8792657Y-18306629D01*
X8821228Y-18320914D01*
X8878371Y-18320914D01*
X8906943Y-18306629D01*
X8921228Y-18292343D01*
X8935514Y-18263772D01*
X8935514Y-18206629D01*
X8921228Y-18178057D01*
X8906943Y-18163772D01*
X8878371Y-18149486D01*
X9292657Y-18320914D02*
X9292657Y-18020914D01*
X9421228Y-18320914D02*
X9421228Y-18163772D01*
X9406943Y-18135200D01*
X9378371Y-18120914D01*
X9335514Y-18120914D01*
X9306943Y-18135200D01*
X9292657Y-18149486D01*
X9606943Y-18320914D02*
X9578371Y-18306629D01*
X9564086Y-18292343D01*
X9549800Y-18263772D01*
X9549800Y-18178057D01*
X9564086Y-18149486D01*
X9578371Y-18135200D01*
X9606943Y-18120914D01*
X9649800Y-18120914D01*
X9678371Y-18135200D01*
X9692657Y-18149486D01*
X9706943Y-18178057D01*
X9706943Y-18263772D01*
X9692657Y-18292343D01*
X9678371Y-18306629D01*
X9649800Y-18320914D01*
X9606943Y-18320914D01*
X9878371Y-18320914D02*
X9849800Y-18306629D01*
X9835514Y-18278057D01*
X9835514Y-18020914D01*
X10106943Y-18306629D02*
X10078371Y-18320914D01*
X10021228Y-18320914D01*
X9992657Y-18306629D01*
X9978371Y-18278057D01*
X9978371Y-18163772D01*
X9992657Y-18135200D01*
X10021228Y-18120914D01*
X10078371Y-18120914D01*
X10106943Y-18135200D01*
X10121228Y-18163772D01*
X10121228Y-18192343D01*
X9978371Y-18220914D01*
X10235514Y-18306629D02*
X10264086Y-18320914D01*
X10321228Y-18320914D01*
X10349800Y-18306629D01*
X10364086Y-18278057D01*
X10364086Y-18263772D01*
X10349800Y-18235200D01*
X10321228Y-18220914D01*
X10278371Y-18220914D01*
X10249800Y-18206629D01*
X10235514Y-18178057D01*
X10235514Y-18163772D01*
X10249800Y-18135200D01*
X10278371Y-18120914D01*
X10321228Y-18120914D01*
X10349800Y-18135200D01*
X10464086Y-18435200D02*
X10478371Y-18420914D01*
X10506943Y-18378057D01*
X10521228Y-18349486D01*
X10535514Y-18306629D01*
X10549800Y-18235200D01*
X10549800Y-18178057D01*
X10535514Y-18106629D01*
X10521228Y-18063772D01*
X10506943Y-18035200D01*
X10478371Y-17992343D01*
X10464086Y-17978057D01*
X2733200Y-18530400D02*
X2834800Y-18632000D01*
X2834800Y-18530400D02*
X2733200Y-18632000D01*
X2784000Y-18530400D02*
X2784000Y-18632000D01*
X2733200Y-18581200D02*
X2834800Y-18581200D01*
X3278371Y-18716914D02*
X3106943Y-18716914D01*
X3192657Y-18716914D02*
X3192657Y-18416914D01*
X3164086Y-18459772D01*
X3135514Y-18488343D01*
X3106943Y-18502629D01*
X3406943Y-18688343D02*
X3421228Y-18702629D01*
X3406943Y-18716914D01*
X3392657Y-18702629D01*
X3406943Y-18688343D01*
X3406943Y-18716914D01*
X3606943Y-18416914D02*
X3635514Y-18416914D01*
X3664086Y-18431200D01*
X3678371Y-18445486D01*
X3692657Y-18474057D01*
X3706943Y-18531200D01*
X3706943Y-18602629D01*
X3692657Y-18659772D01*
X3678371Y-18688343D01*
X3664086Y-18702629D01*
X3635514Y-18716914D01*
X3606943Y-18716914D01*
X3578371Y-18702629D01*
X3564086Y-18688343D01*
X3549800Y-18659772D01*
X3535514Y-18602629D01*
X3535514Y-18531200D01*
X3549800Y-18474057D01*
X3564086Y-18445486D01*
X3578371Y-18431200D01*
X3606943Y-18416914D01*
X3992657Y-18716914D02*
X3821228Y-18716914D01*
X3906943Y-18716914D02*
X3906943Y-18416914D01*
X3878371Y-18459772D01*
X3849800Y-18488343D01*
X3821228Y-18502629D01*
X4249800Y-18416914D02*
X4192657Y-18416914D01*
X4164086Y-18431200D01*
X4149800Y-18445486D01*
X4121228Y-18488343D01*
X4106943Y-18545486D01*
X4106943Y-18659772D01*
X4121228Y-18688343D01*
X4135514Y-18702629D01*
X4164086Y-18716914D01*
X4221228Y-18716914D01*
X4249800Y-18702629D01*
X4264086Y-18688343D01*
X4278371Y-18659772D01*
X4278371Y-18588343D01*
X4264086Y-18559772D01*
X4249800Y-18545486D01*
X4221228Y-18531200D01*
X4164086Y-18531200D01*
X4135514Y-18545486D01*
X4121228Y-18559772D01*
X4106943Y-18588343D01*
X4406943Y-18716914D02*
X4406943Y-18516914D01*
X4406943Y-18545486D02*
X4421228Y-18531200D01*
X4449800Y-18516914D01*
X4492657Y-18516914D01*
X4521228Y-18531200D01*
X4535514Y-18559772D01*
X4535514Y-18716914D01*
X4535514Y-18559772D02*
X4549800Y-18531200D01*
X4578371Y-18516914D01*
X4621228Y-18516914D01*
X4649800Y-18531200D01*
X4664086Y-18559772D01*
X4664086Y-18716914D01*
X4806943Y-18716914D02*
X4806943Y-18516914D01*
X4806943Y-18545486D02*
X4821228Y-18531200D01*
X4849800Y-18516914D01*
X4892657Y-18516914D01*
X4921228Y-18531200D01*
X4935514Y-18559772D01*
X4935514Y-18716914D01*
X4935514Y-18559772D02*
X4949800Y-18531200D01*
X4978371Y-18516914D01*
X5021228Y-18516914D01*
X5049800Y-18531200D01*
X5064086Y-18559772D01*
X5064086Y-18716914D01*
X5649800Y-18402629D02*
X5392657Y-18788343D01*
X6035514Y-18416914D02*
X6064086Y-18416914D01*
X6092657Y-18431200D01*
X6106943Y-18445486D01*
X6121228Y-18474057D01*
X6135514Y-18531200D01*
X6135514Y-18602629D01*
X6121228Y-18659772D01*
X6106943Y-18688343D01*
X6092657Y-18702629D01*
X6064086Y-18716914D01*
X6035514Y-18716914D01*
X6006943Y-18702629D01*
X5992657Y-18688343D01*
X5978371Y-18659772D01*
X5964086Y-18602629D01*
X5964086Y-18531200D01*
X5978371Y-18474057D01*
X5992657Y-18445486D01*
X6006943Y-18431200D01*
X6035514Y-18416914D01*
X6264086Y-18688343D02*
X6278371Y-18702629D01*
X6264086Y-18716914D01*
X6249800Y-18702629D01*
X6264086Y-18688343D01*
X6264086Y-18716914D01*
X6464086Y-18416914D02*
X6492657Y-18416914D01*
X6521228Y-18431200D01*
X6535514Y-18445486D01*
X6549800Y-18474057D01*
X6564086Y-18531200D01*
X6564086Y-18602629D01*
X6549800Y-18659772D01*
X6535514Y-18688343D01*
X6521228Y-18702629D01*
X6492657Y-18716914D01*
X6464086Y-18716914D01*
X6435514Y-18702629D01*
X6421228Y-18688343D01*
X6406943Y-18659772D01*
X6392657Y-18602629D01*
X6392657Y-18531200D01*
X6406943Y-18474057D01*
X6421228Y-18445486D01*
X6435514Y-18431200D01*
X6464086Y-18416914D01*
X6821228Y-18516914D02*
X6821228Y-18716914D01*
X6749800Y-18402629D02*
X6678371Y-18616914D01*
X6864086Y-18616914D01*
X7035514Y-18416914D02*
X7064086Y-18416914D01*
X7092657Y-18431200D01*
X7106943Y-18445486D01*
X7121228Y-18474057D01*
X7135514Y-18531200D01*
X7135514Y-18602629D01*
X7121228Y-18659772D01*
X7106943Y-18688343D01*
X7092657Y-18702629D01*
X7064086Y-18716914D01*
X7035514Y-18716914D01*
X7006943Y-18702629D01*
X6992657Y-18688343D01*
X6978371Y-18659772D01*
X6964086Y-18602629D01*
X6964086Y-18531200D01*
X6978371Y-18474057D01*
X6992657Y-18445486D01*
X7006943Y-18431200D01*
X7035514Y-18416914D01*
X7321228Y-18416914D02*
X7349800Y-18416914D01*
X7378371Y-18431200D01*
X7392657Y-18445486D01*
X7406943Y-18474057D01*
X7421228Y-18531200D01*
X7421228Y-18602629D01*
X7406943Y-18659772D01*
X7392657Y-18688343D01*
X7378371Y-18702629D01*
X7349800Y-18716914D01*
X7321228Y-18716914D01*
X7292657Y-18702629D01*
X7278371Y-18688343D01*
X7264086Y-18659772D01*
X7249800Y-18602629D01*
X7249800Y-18531200D01*
X7264086Y-18474057D01*
X7278371Y-18445486D01*
X7292657Y-18431200D01*
X7321228Y-18416914D01*
X7535514Y-18416914D02*
X7535514Y-18474057D01*
X7649800Y-18416914D02*
X7649800Y-18474057D01*
X8092657Y-18831200D02*
X8078371Y-18816914D01*
X8049800Y-18774057D01*
X8035514Y-18745486D01*
X8021228Y-18702629D01*
X8006943Y-18631200D01*
X8006943Y-18574057D01*
X8021228Y-18502629D01*
X8035514Y-18459772D01*
X8049800Y-18431200D01*
X8078371Y-18388343D01*
X8092657Y-18374057D01*
X8335514Y-18516914D02*
X8335514Y-18716914D01*
X8264086Y-18402629D02*
X8192657Y-18616914D01*
X8378371Y-18616914D01*
X8535514Y-18545486D02*
X8506943Y-18531200D01*
X8492657Y-18516914D01*
X8478371Y-18488343D01*
X8478371Y-18474057D01*
X8492657Y-18445486D01*
X8506943Y-18431200D01*
X8535514Y-18416914D01*
X8592657Y-18416914D01*
X8621228Y-18431200D01*
X8635514Y-18445486D01*
X8649800Y-18474057D01*
X8649800Y-18488343D01*
X8635514Y-18516914D01*
X8621228Y-18531200D01*
X8592657Y-18545486D01*
X8535514Y-18545486D01*
X8506943Y-18559772D01*
X8492657Y-18574057D01*
X8478371Y-18602629D01*
X8478371Y-18659772D01*
X8492657Y-18688343D01*
X8506943Y-18702629D01*
X8535514Y-18716914D01*
X8592657Y-18716914D01*
X8621228Y-18702629D01*
X8635514Y-18688343D01*
X8649800Y-18659772D01*
X8649800Y-18602629D01*
X8635514Y-18574057D01*
X8621228Y-18559772D01*
X8592657Y-18545486D01*
X9006943Y-18716914D02*
X9006943Y-18416914D01*
X9135514Y-18716914D02*
X9135514Y-18559772D01*
X9121228Y-18531200D01*
X9092657Y-18516914D01*
X9049800Y-18516914D01*
X9021228Y-18531200D01*
X9006943Y-18545486D01*
X9321228Y-18716914D02*
X9292657Y-18702629D01*
X9278371Y-18688343D01*
X9264086Y-18659772D01*
X9264086Y-18574057D01*
X9278371Y-18545486D01*
X9292657Y-18531200D01*
X9321228Y-18516914D01*
X9364086Y-18516914D01*
X9392657Y-18531200D01*
X9406943Y-18545486D01*
X9421228Y-18574057D01*
X9421228Y-18659772D01*
X9406943Y-18688343D01*
X9392657Y-18702629D01*
X9364086Y-18716914D01*
X9321228Y-18716914D01*
X9592657Y-18716914D02*
X9564086Y-18702629D01*
X9549800Y-18674057D01*
X9549800Y-18416914D01*
X9821228Y-18702629D02*
X9792657Y-18716914D01*
X9735514Y-18716914D01*
X9706943Y-18702629D01*
X9692657Y-18674057D01*
X9692657Y-18559772D01*
X9706943Y-18531200D01*
X9735514Y-18516914D01*
X9792657Y-18516914D01*
X9821228Y-18531200D01*
X9835514Y-18559772D01*
X9835514Y-18588343D01*
X9692657Y-18616914D01*
X9949800Y-18702629D02*
X9978371Y-18716914D01*
X10035514Y-18716914D01*
X10064086Y-18702629D01*
X10078371Y-18674057D01*
X10078371Y-18659772D01*
X10064086Y-18631200D01*
X10035514Y-18616914D01*
X9992657Y-18616914D01*
X9964086Y-18602629D01*
X9949800Y-18574057D01*
X9949800Y-18559772D01*
X9964086Y-18531200D01*
X9992657Y-18516914D01*
X10035514Y-18516914D01*
X10064086Y-18531200D01*
X10178371Y-18831200D02*
X10192657Y-18816914D01*
X10221228Y-18774057D01*
X10235514Y-18745486D01*
X10249800Y-18702629D01*
X10264086Y-18631200D01*
X10264086Y-18574057D01*
X10249800Y-18502629D01*
X10235514Y-18459772D01*
X10221228Y-18431200D01*
X10192657Y-18388343D01*
X10178371Y-18374057D01*
X2732800Y-18926200D02*
X2834800Y-19028200D01*
X2834800Y-18926200D02*
X2732800Y-19028200D01*
X2819863Y-19013263D02*
X2819863Y-18941137D01*
X2747737Y-18941137D01*
X2747737Y-19013263D01*
X2819863Y-19013263D01*
X3278371Y-19112914D02*
X3106943Y-19112914D01*
X3192657Y-19112914D02*
X3192657Y-18812914D01*
X3164086Y-18855772D01*
X3135514Y-18884343D01*
X3106943Y-18898629D01*
X3406943Y-19084343D02*
X3421228Y-19098629D01*
X3406943Y-19112914D01*
X3392657Y-19098629D01*
X3406943Y-19084343D01*
X3406943Y-19112914D01*
X3606943Y-18812914D02*
X3635514Y-18812914D01*
X3664086Y-18827200D01*
X3678371Y-18841486D01*
X3692657Y-18870057D01*
X3706943Y-18927200D01*
X3706943Y-18998629D01*
X3692657Y-19055772D01*
X3678371Y-19084343D01*
X3664086Y-19098629D01*
X3635514Y-19112914D01*
X3606943Y-19112914D01*
X3578371Y-19098629D01*
X3564086Y-19084343D01*
X3549800Y-19055772D01*
X3535514Y-18998629D01*
X3535514Y-18927200D01*
X3549800Y-18870057D01*
X3564086Y-18841486D01*
X3578371Y-18827200D01*
X3606943Y-18812914D01*
X3821228Y-18841486D02*
X3835514Y-18827200D01*
X3864086Y-18812914D01*
X3935514Y-18812914D01*
X3964086Y-18827200D01*
X3978371Y-18841486D01*
X3992657Y-18870057D01*
X3992657Y-18898629D01*
X3978371Y-18941486D01*
X3806943Y-19112914D01*
X3992657Y-19112914D01*
X4178371Y-18812914D02*
X4206943Y-18812914D01*
X4235514Y-18827200D01*
X4249800Y-18841486D01*
X4264086Y-18870057D01*
X4278371Y-18927200D01*
X4278371Y-18998629D01*
X4264086Y-19055772D01*
X4249800Y-19084343D01*
X4235514Y-19098629D01*
X4206943Y-19112914D01*
X4178371Y-19112914D01*
X4149800Y-19098629D01*
X4135514Y-19084343D01*
X4121228Y-19055772D01*
X4106943Y-18998629D01*
X4106943Y-18927200D01*
X4121228Y-18870057D01*
X4135514Y-18841486D01*
X4149800Y-18827200D01*
X4178371Y-18812914D01*
X4406943Y-19112914D02*
X4406943Y-18912914D01*
X4406943Y-18941486D02*
X4421228Y-18927200D01*
X4449800Y-18912914D01*
X4492657Y-18912914D01*
X4521228Y-18927200D01*
X4535514Y-18955772D01*
X4535514Y-19112914D01*
X4535514Y-18955772D02*
X4549800Y-18927200D01*
X4578371Y-18912914D01*
X4621228Y-18912914D01*
X4649800Y-18927200D01*
X4664086Y-18955772D01*
X4664086Y-19112914D01*
X4806943Y-19112914D02*
X4806943Y-18912914D01*
X4806943Y-18941486D02*
X4821228Y-18927200D01*
X4849800Y-18912914D01*
X4892657Y-18912914D01*
X4921228Y-18927200D01*
X4935514Y-18955772D01*
X4935514Y-19112914D01*
X4935514Y-18955772D02*
X4949800Y-18927200D01*
X4978371Y-18912914D01*
X5021228Y-18912914D01*
X5049800Y-18927200D01*
X5064086Y-18955772D01*
X5064086Y-19112914D01*
X5649800Y-18798629D02*
X5392657Y-19184343D01*
X6035514Y-18812914D02*
X6064086Y-18812914D01*
X6092657Y-18827200D01*
X6106943Y-18841486D01*
X6121228Y-18870057D01*
X6135514Y-18927200D01*
X6135514Y-18998629D01*
X6121228Y-19055772D01*
X6106943Y-19084343D01*
X6092657Y-19098629D01*
X6064086Y-19112914D01*
X6035514Y-19112914D01*
X6006943Y-19098629D01*
X5992657Y-19084343D01*
X5978371Y-19055772D01*
X5964086Y-18998629D01*
X5964086Y-18927200D01*
X5978371Y-18870057D01*
X5992657Y-18841486D01*
X6006943Y-18827200D01*
X6035514Y-18812914D01*
X6264086Y-19084343D02*
X6278371Y-19098629D01*
X6264086Y-19112914D01*
X6249800Y-19098629D01*
X6264086Y-19084343D01*
X6264086Y-19112914D01*
X6464086Y-18812914D02*
X6492657Y-18812914D01*
X6521228Y-18827200D01*
X6535514Y-18841486D01*
X6549800Y-18870057D01*
X6564086Y-18927200D01*
X6564086Y-18998629D01*
X6549800Y-19055772D01*
X6535514Y-19084343D01*
X6521228Y-19098629D01*
X6492657Y-19112914D01*
X6464086Y-19112914D01*
X6435514Y-19098629D01*
X6421228Y-19084343D01*
X6406943Y-19055772D01*
X6392657Y-18998629D01*
X6392657Y-18927200D01*
X6406943Y-18870057D01*
X6421228Y-18841486D01*
X6435514Y-18827200D01*
X6464086Y-18812914D01*
X6821228Y-18912914D02*
X6821228Y-19112914D01*
X6749800Y-18798629D02*
X6678371Y-19012914D01*
X6864086Y-19012914D01*
X7035514Y-18812914D02*
X7064086Y-18812914D01*
X7092657Y-18827200D01*
X7106943Y-18841486D01*
X7121228Y-18870057D01*
X7135514Y-18927200D01*
X7135514Y-18998629D01*
X7121228Y-19055772D01*
X7106943Y-19084343D01*
X7092657Y-19098629D01*
X7064086Y-19112914D01*
X7035514Y-19112914D01*
X7006943Y-19098629D01*
X6992657Y-19084343D01*
X6978371Y-19055772D01*
X6964086Y-18998629D01*
X6964086Y-18927200D01*
X6978371Y-18870057D01*
X6992657Y-18841486D01*
X7006943Y-18827200D01*
X7035514Y-18812914D01*
X7249800Y-18841486D02*
X7264086Y-18827200D01*
X7292657Y-18812914D01*
X7364086Y-18812914D01*
X7392657Y-18827200D01*
X7406943Y-18841486D01*
X7421228Y-18870057D01*
X7421228Y-18898629D01*
X7406943Y-18941486D01*
X7235514Y-19112914D01*
X7421228Y-19112914D01*
X7535514Y-18812914D02*
X7535514Y-18870057D01*
X7649800Y-18812914D02*
X7649800Y-18870057D01*
X8092657Y-19227200D02*
X8078371Y-19212914D01*
X8049800Y-19170057D01*
X8035514Y-19141486D01*
X8021228Y-19098629D01*
X8006943Y-19027200D01*
X8006943Y-18970057D01*
X8021228Y-18898629D01*
X8035514Y-18855772D01*
X8049800Y-18827200D01*
X8078371Y-18784343D01*
X8092657Y-18770057D01*
X8335514Y-18912914D02*
X8335514Y-19112914D01*
X8264086Y-18798629D02*
X8192657Y-19012914D01*
X8378371Y-19012914D01*
X8535514Y-18941486D02*
X8506943Y-18927200D01*
X8492657Y-18912914D01*
X8478371Y-18884343D01*
X8478371Y-18870057D01*
X8492657Y-18841486D01*
X8506943Y-18827200D01*
X8535514Y-18812914D01*
X8592657Y-18812914D01*
X8621228Y-18827200D01*
X8635514Y-18841486D01*
X8649800Y-18870057D01*
X8649800Y-18884343D01*
X8635514Y-18912914D01*
X8621228Y-18927200D01*
X8592657Y-18941486D01*
X8535514Y-18941486D01*
X8506943Y-18955772D01*
X8492657Y-18970057D01*
X8478371Y-18998629D01*
X8478371Y-19055772D01*
X8492657Y-19084343D01*
X8506943Y-19098629D01*
X8535514Y-19112914D01*
X8592657Y-19112914D01*
X8621228Y-19098629D01*
X8635514Y-19084343D01*
X8649800Y-19055772D01*
X8649800Y-18998629D01*
X8635514Y-18970057D01*
X8621228Y-18955772D01*
X8592657Y-18941486D01*
X9006943Y-19112914D02*
X9006943Y-18812914D01*
X9135514Y-19112914D02*
X9135514Y-18955772D01*
X9121228Y-18927200D01*
X9092657Y-18912914D01*
X9049800Y-18912914D01*
X9021228Y-18927200D01*
X9006943Y-18941486D01*
X9321228Y-19112914D02*
X9292657Y-19098629D01*
X9278371Y-19084343D01*
X9264086Y-19055772D01*
X9264086Y-18970057D01*
X9278371Y-18941486D01*
X9292657Y-18927200D01*
X9321228Y-18912914D01*
X9364086Y-18912914D01*
X9392657Y-18927200D01*
X9406943Y-18941486D01*
X9421228Y-18970057D01*
X9421228Y-19055772D01*
X9406943Y-19084343D01*
X9392657Y-19098629D01*
X9364086Y-19112914D01*
X9321228Y-19112914D01*
X9592657Y-19112914D02*
X9564086Y-19098629D01*
X9549800Y-19070057D01*
X9549800Y-18812914D01*
X9821228Y-19098629D02*
X9792657Y-19112914D01*
X9735514Y-19112914D01*
X9706943Y-19098629D01*
X9692657Y-19070057D01*
X9692657Y-18955772D01*
X9706943Y-18927200D01*
X9735514Y-18912914D01*
X9792657Y-18912914D01*
X9821228Y-18927200D01*
X9835514Y-18955772D01*
X9835514Y-18984343D01*
X9692657Y-19012914D01*
X9949800Y-19098629D02*
X9978371Y-19112914D01*
X10035514Y-19112914D01*
X10064086Y-19098629D01*
X10078371Y-19070057D01*
X10078371Y-19055772D01*
X10064086Y-19027200D01*
X10035514Y-19012914D01*
X9992657Y-19012914D01*
X9964086Y-18998629D01*
X9949800Y-18970057D01*
X9949800Y-18955772D01*
X9964086Y-18927200D01*
X9992657Y-18912914D01*
X10035514Y-18912914D01*
X10064086Y-18927200D01*
X10178371Y-19227200D02*
X10192657Y-19212914D01*
X10221228Y-19170057D01*
X10235514Y-19141486D01*
X10249800Y-19098629D01*
X10264086Y-19027200D01*
X10264086Y-18970057D01*
X10249800Y-18898629D01*
X10235514Y-18855772D01*
X10221228Y-18827200D01*
X10192657Y-18784343D01*
X10178371Y-18770057D01*
X2634902Y-19273251D02*
X2834800Y-19473149D01*
X2834800Y-19273251D02*
X2634902Y-19473149D01*
X2734851Y-19473149D02*
X2834800Y-19373200D01*
X2734851Y-19273251D01*
X2634902Y-19373200D01*
X2734851Y-19473149D01*
X3278371Y-19508914D02*
X3106943Y-19508914D01*
X3192657Y-19508914D02*
X3192657Y-19208914D01*
X3164086Y-19251772D01*
X3135514Y-19280343D01*
X3106943Y-19294629D01*
X3406943Y-19480343D02*
X3421228Y-19494629D01*
X3406943Y-19508914D01*
X3392657Y-19494629D01*
X3406943Y-19480343D01*
X3406943Y-19508914D01*
X3564086Y-19508914D02*
X3621228Y-19508914D01*
X3649800Y-19494629D01*
X3664086Y-19480343D01*
X3692657Y-19437486D01*
X3706943Y-19380343D01*
X3706943Y-19266057D01*
X3692657Y-19237486D01*
X3678371Y-19223200D01*
X3649800Y-19208914D01*
X3592657Y-19208914D01*
X3564086Y-19223200D01*
X3549800Y-19237486D01*
X3535514Y-19266057D01*
X3535514Y-19337486D01*
X3549800Y-19366057D01*
X3564086Y-19380343D01*
X3592657Y-19394629D01*
X3649800Y-19394629D01*
X3678371Y-19380343D01*
X3692657Y-19366057D01*
X3706943Y-19337486D01*
X3849800Y-19508914D02*
X3906943Y-19508914D01*
X3935514Y-19494629D01*
X3949800Y-19480343D01*
X3978371Y-19437486D01*
X3992657Y-19380343D01*
X3992657Y-19266057D01*
X3978371Y-19237486D01*
X3964086Y-19223200D01*
X3935514Y-19208914D01*
X3878371Y-19208914D01*
X3849800Y-19223200D01*
X3835514Y-19237486D01*
X3821228Y-19266057D01*
X3821228Y-19337486D01*
X3835514Y-19366057D01*
X3849800Y-19380343D01*
X3878371Y-19394629D01*
X3935514Y-19394629D01*
X3964086Y-19380343D01*
X3978371Y-19366057D01*
X3992657Y-19337486D01*
X4135514Y-19508914D02*
X4192657Y-19508914D01*
X4221228Y-19494629D01*
X4235514Y-19480343D01*
X4264086Y-19437486D01*
X4278371Y-19380343D01*
X4278371Y-19266057D01*
X4264086Y-19237486D01*
X4249800Y-19223200D01*
X4221228Y-19208914D01*
X4164086Y-19208914D01*
X4135514Y-19223200D01*
X4121228Y-19237486D01*
X4106943Y-19266057D01*
X4106943Y-19337486D01*
X4121228Y-19366057D01*
X4135514Y-19380343D01*
X4164086Y-19394629D01*
X4221228Y-19394629D01*
X4249800Y-19380343D01*
X4264086Y-19366057D01*
X4278371Y-19337486D01*
X4406943Y-19508914D02*
X4406943Y-19308914D01*
X4406943Y-19337486D02*
X4421228Y-19323200D01*
X4449800Y-19308914D01*
X4492657Y-19308914D01*
X4521228Y-19323200D01*
X4535514Y-19351772D01*
X4535514Y-19508914D01*
X4535514Y-19351772D02*
X4549800Y-19323200D01*
X4578371Y-19308914D01*
X4621228Y-19308914D01*
X4649800Y-19323200D01*
X4664086Y-19351772D01*
X4664086Y-19508914D01*
X4806943Y-19508914D02*
X4806943Y-19308914D01*
X4806943Y-19337486D02*
X4821228Y-19323200D01*
X4849800Y-19308914D01*
X4892657Y-19308914D01*
X4921228Y-19323200D01*
X4935514Y-19351772D01*
X4935514Y-19508914D01*
X4935514Y-19351772D02*
X4949800Y-19323200D01*
X4978371Y-19308914D01*
X5021228Y-19308914D01*
X5049800Y-19323200D01*
X5064086Y-19351772D01*
X5064086Y-19508914D01*
X5649800Y-19194629D02*
X5392657Y-19580343D01*
X6035514Y-19208914D02*
X6064086Y-19208914D01*
X6092657Y-19223200D01*
X6106943Y-19237486D01*
X6121228Y-19266057D01*
X6135514Y-19323200D01*
X6135514Y-19394629D01*
X6121228Y-19451772D01*
X6106943Y-19480343D01*
X6092657Y-19494629D01*
X6064086Y-19508914D01*
X6035514Y-19508914D01*
X6006943Y-19494629D01*
X5992657Y-19480343D01*
X5978371Y-19451772D01*
X5964086Y-19394629D01*
X5964086Y-19323200D01*
X5978371Y-19266057D01*
X5992657Y-19237486D01*
X6006943Y-19223200D01*
X6035514Y-19208914D01*
X6264086Y-19480343D02*
X6278371Y-19494629D01*
X6264086Y-19508914D01*
X6249800Y-19494629D01*
X6264086Y-19480343D01*
X6264086Y-19508914D01*
X6464086Y-19208914D02*
X6492657Y-19208914D01*
X6521228Y-19223200D01*
X6535514Y-19237486D01*
X6549800Y-19266057D01*
X6564086Y-19323200D01*
X6564086Y-19394629D01*
X6549800Y-19451772D01*
X6535514Y-19480343D01*
X6521228Y-19494629D01*
X6492657Y-19508914D01*
X6464086Y-19508914D01*
X6435514Y-19494629D01*
X6421228Y-19480343D01*
X6406943Y-19451772D01*
X6392657Y-19394629D01*
X6392657Y-19323200D01*
X6406943Y-19266057D01*
X6421228Y-19237486D01*
X6435514Y-19223200D01*
X6464086Y-19208914D01*
X6664086Y-19208914D02*
X6864086Y-19208914D01*
X6735514Y-19508914D01*
X7021228Y-19337486D02*
X6992657Y-19323200D01*
X6978371Y-19308914D01*
X6964086Y-19280343D01*
X6964086Y-19266057D01*
X6978371Y-19237486D01*
X6992657Y-19223200D01*
X7021228Y-19208914D01*
X7078371Y-19208914D01*
X7106943Y-19223200D01*
X7121228Y-19237486D01*
X7135514Y-19266057D01*
X7135514Y-19280343D01*
X7121228Y-19308914D01*
X7106943Y-19323200D01*
X7078371Y-19337486D01*
X7021228Y-19337486D01*
X6992657Y-19351772D01*
X6978371Y-19366057D01*
X6964086Y-19394629D01*
X6964086Y-19451772D01*
X6978371Y-19480343D01*
X6992657Y-19494629D01*
X7021228Y-19508914D01*
X7078371Y-19508914D01*
X7106943Y-19494629D01*
X7121228Y-19480343D01*
X7135514Y-19451772D01*
X7135514Y-19394629D01*
X7121228Y-19366057D01*
X7106943Y-19351772D01*
X7078371Y-19337486D01*
X7235514Y-19208914D02*
X7435514Y-19208914D01*
X7306943Y-19508914D01*
X7535514Y-19208914D02*
X7535514Y-19266057D01*
X7649800Y-19208914D02*
X7649800Y-19266057D01*
X8092657Y-19623200D02*
X8078371Y-19608914D01*
X8049800Y-19566057D01*
X8035514Y-19537486D01*
X8021228Y-19494629D01*
X8006943Y-19423200D01*
X8006943Y-19366057D01*
X8021228Y-19294629D01*
X8035514Y-19251772D01*
X8049800Y-19223200D01*
X8078371Y-19180343D01*
X8092657Y-19166057D01*
X8335514Y-19208914D02*
X8278371Y-19208914D01*
X8249800Y-19223200D01*
X8235514Y-19237486D01*
X8206943Y-19280343D01*
X8192657Y-19337486D01*
X8192657Y-19451772D01*
X8206943Y-19480343D01*
X8221228Y-19494629D01*
X8249800Y-19508914D01*
X8306943Y-19508914D01*
X8335514Y-19494629D01*
X8349800Y-19480343D01*
X8364086Y-19451772D01*
X8364086Y-19380343D01*
X8349800Y-19351772D01*
X8335514Y-19337486D01*
X8306943Y-19323200D01*
X8249800Y-19323200D01*
X8221228Y-19337486D01*
X8206943Y-19351772D01*
X8192657Y-19380343D01*
X8621228Y-19308914D02*
X8621228Y-19508914D01*
X8549800Y-19194629D02*
X8478371Y-19408914D01*
X8664086Y-19408914D01*
X9006943Y-19508914D02*
X9006943Y-19208914D01*
X9135514Y-19508914D02*
X9135514Y-19351772D01*
X9121228Y-19323200D01*
X9092657Y-19308914D01*
X9049800Y-19308914D01*
X9021228Y-19323200D01*
X9006943Y-19337486D01*
X9321228Y-19508914D02*
X9292657Y-19494629D01*
X9278371Y-19480343D01*
X9264086Y-19451772D01*
X9264086Y-19366057D01*
X9278371Y-19337486D01*
X9292657Y-19323200D01*
X9321228Y-19308914D01*
X9364086Y-19308914D01*
X9392657Y-19323200D01*
X9406943Y-19337486D01*
X9421228Y-19366057D01*
X9421228Y-19451772D01*
X9406943Y-19480343D01*
X9392657Y-19494629D01*
X9364086Y-19508914D01*
X9321228Y-19508914D01*
X9592657Y-19508914D02*
X9564086Y-19494629D01*
X9549800Y-19466057D01*
X9549800Y-19208914D01*
X9821228Y-19494629D02*
X9792657Y-19508914D01*
X9735514Y-19508914D01*
X9706943Y-19494629D01*
X9692657Y-19466057D01*
X9692657Y-19351772D01*
X9706943Y-19323200D01*
X9735514Y-19308914D01*
X9792657Y-19308914D01*
X9821228Y-19323200D01*
X9835514Y-19351772D01*
X9835514Y-19380343D01*
X9692657Y-19408914D01*
X9949800Y-19494629D02*
X9978371Y-19508914D01*
X10035514Y-19508914D01*
X10064086Y-19494629D01*
X10078371Y-19466057D01*
X10078371Y-19451772D01*
X10064086Y-19423200D01*
X10035514Y-19408914D01*
X9992657Y-19408914D01*
X9964086Y-19394629D01*
X9949800Y-19366057D01*
X9949800Y-19351772D01*
X9964086Y-19323200D01*
X9992657Y-19308914D01*
X10035514Y-19308914D01*
X10064086Y-19323200D01*
X10178371Y-19623200D02*
X10192657Y-19608914D01*
X10221228Y-19566057D01*
X10235514Y-19537486D01*
X10249800Y-19494629D01*
X10264086Y-19423200D01*
X10264086Y-19366057D01*
X10249800Y-19294629D01*
X10235514Y-19251772D01*
X10221228Y-19223200D01*
X10192657Y-19180343D01*
X10178371Y-19166057D01*
M02*
