<?xml version="1.0" standalone="no"?>
 <!DOCTYPE svg PUBLIC "-//W3C//DTD SVG 1.1//EN" 
 "http://www.w3.org/Graphics/SVG/1.1/DTD/svg11.dtd"> 
<svg xmlns="http://www.w3.org/2000/svg" version="1.1" 
    width="20.066cm" height="12.4714cm" viewBox="0 0 79000 49100 ">
<title>SVG Picture created as N32B-F_SilkS.svg date 2020/07/05 01:19:30 </title>
  <desc>Picture generated by PCBNEW </desc>
<g style="fill:#000000; fill-opacity:1;stroke:#000000; stroke-opacity:1;
stroke-linecap:round; stroke-linejoin:round; "
 transform="translate(0 0) scale(1 1)">
</g>
<g style="fill:#000000; fill-opacity:0.0; 
stroke:#000000; stroke-width:-0.000393701; stroke-opacity:1; 
stroke-linecap:round; stroke-linejoin:round;">
</g>
<g style="fill:#000000; fill-opacity:0.0; 
stroke:#000000; stroke-width:47.2441; stroke-opacity:1; 
stroke-linecap:round; stroke-linejoin:round;">
<path d="M72904 12422
L72904 14233
" />
<path d="M72924 12422
L72904 12422
" />
<path d="M72904 15177
L72904 14784
" />
<path d="M72944 15177
L72904 15177
" />
<path d="M73829 13248
L73633 13051
" />
<path d="M73436 13248
L73829 13248
" />
<path d="M73633 13051
L73436 13248
" />
<path d="M77707 12422
L72924 12422
" />
<path d="M77707 14784
L77707 15177
" />
<path d="M77707 12422
L77707 12815
" />
<path d="M78495 14784
L78495 12815
" />
<path d="M77707 15177
L72944 15177
" />
<path d="M77707 14784
L78495 14784
" />
<path d="M77707 12815
L78495 12815
" />
<path d="M46271 2983
L46271 11566
" />
<path d="M62728 2983
L46271 2983
" />
<path d="M62728 11566
L62728 2983
" />
<path d="M46271 11566
L62728 11566
" />
<path d="M29071 2983
L29071 11566
" />
<path d="M45528 2983
L29071 2983
" />
<path d="M45528 11566
L45528 2983
" />
<path d="M29071 11566
L45528 11566
" />
<path d="M6012 17371
L6338 17371
" />
<path d="M6976 17371
L7185 17371
" />
<path d="M8118 17371
L8583 17371
" />
<path d="M4748 17371
L4748 19229
" />
<path d="M8583 20729
L8583 21934
" />
<path d="M8587 17371
L8587 19229
" />
<path d="M4748 20729
L4748 21934
" />
<path d="M4748 17371
L5335 17371
" />
<path d="M4748 21934
L8583 21934
" />
<path d="M24755 17371
L25081 17371
" />
<path d="M25719 17371
L25928 17371
" />
<path d="M26861 17371
L27325 17371
" />
<path d="M23491 17371
L23491 19229
" />
<path d="M27325 20729
L27325 21934
" />
<path d="M27329 17371
L27329 19229
" />
<path d="M23491 20729
L23491 21934
" />
<path d="M23491 17371
L24077 17371
" />
<path d="M23491 21934
L27325 21934
" />
</g>
<g style="fill:#000000; fill-opacity:0.0; 
stroke:#000000; stroke-width:80; stroke-opacity:1; 
stroke-linecap:round; stroke-linejoin:round;">
<path d="M18681 9424
L18681 9924
" />
<path d="M26181 9424
L26181 9924
" />
</g>
<g style="fill:#000000; fill-opacity:0.0; 
stroke:#000000; stroke-width:47.2441; stroke-opacity:1; 
stroke-linecap:round; stroke-linejoin:round;">
<path d="M4222 9730
L10127 9730
" />
<path d="M10127 9730
L10127 4218
" />
<path d="M10127 4218
L4222 4218
" />
<path d="M4222 9730
L4222 4218
" />
<circle cx="5174.8" cy="8374.8" r="100" /> 
</g>
<g style="fill:#000000; fill-opacity:0.0; 
stroke:#000000; stroke-width:60; stroke-opacity:1; 
stroke-linecap:round; stroke-linejoin:round;">
<path d="M28350 5928
L28350 5078
" />
<path d="M28350.4 5928.74 A250 250 0.0 0 0 28350.4 6428.74 " />
<path d="M16550 5078
L16550 7278
" />
<path d="M28350 5078
L16550 5078
" />
<path d="M28350 7278
L16550 7278
" />
<path d="M28350 7278
L28350 6428
" />
</g>
<g style="fill:#000000; fill-opacity:0.0; 
stroke:#000000; stroke-width:100; stroke-opacity:1; 
stroke-linecap:round; stroke-linejoin:round;">
<path d="M23450 10198
L21450 10198
" />
<path d="M21450 10198
L21450 9698
" />
<path d="M21450 9698
L21450 9198
" />
<path d="M21450 9198
L23450 9198
" />
<path d="M23450 9198
L23450 9698
" />
<path d="M23450 9698
L23450 10198
" />
<path d="M21450 9698
L21350 9698
" />
<path d="M23450 9698
L23550 9698
" />
</g>
<g style="fill:#000000; fill-opacity:0.0; 
stroke:#000000; stroke-width:50; stroke-opacity:1; 
stroke-linecap:round; stroke-linejoin:round;">
<path d="M20947 9326
L21019 9333
" />
<path d="M21019 9333
L21089 9353
" />
<path d="M21089 9353
L21153 9386
" />
<path d="M21153 9386
L21210 9432
" />
<path d="M21210 9432
L21257 9487
" />
<path d="M21257 9487
L21292 9551
" />
<path d="M21292 9551
L21314 9620
" />
<path d="M21314 9620
L21322 9693
" />
<path d="M21322 9693
L21317 9757
" />
<path d="M21317 9757
L21301 9822
" />
<path d="M21301 9822
L21274 9882
" />
<path d="M21274 9882
L21237 9937
" />
<path d="M21237 9937
L21190 9984
" />
<path d="M21190 9984
L21137 10022
" />
<path d="M21137 10022
L21077 10051
" />
<path d="M21077 10051
L21013 10069
" />
<path d="M21013 10069
L20948 10076
" />
<path d="M20948 10076
L20882 10069
" />
<path d="M20882 10069
L20818 10051
" />
<path d="M20818 10051
L20758 10022
" />
<path d="M20758 10022
L20705 9983
" />
<path d="M20705 9983
L20659 9936
" />
<path d="M20659 9936
L20622 9881
" />
<path d="M20622 9881
L20594 9821
" />
<path d="M20594 9821
L20578 9756
" />
<path d="M20578 9756
L20573 9691
" />
<path d="M20573 9691
L20581 9620
" />
<path d="M20581 9620
L20603 9551
" />
<path d="M20603 9551
L20638 9487
" />
<path d="M20638 9487
L20684 9432
" />
<path d="M20684 9432
L20741 9386
" />
<path d="M20741 9386
L20805 9353
" />
<path d="M20805 9353
L20874 9333
" />
<path d="M20874 9333
L20947 9326
" />
<path d="M20948 9526
L20986 9530
" />
<path d="M20986 9530
L21022 9542
" />
<path d="M21022 9542
L21055 9561
" />
<path d="M21055 9561
L21083 9588
" />
<path d="M21083 9588
L21104 9620
" />
<path d="M21104 9620
L21117 9656
" />
<path d="M21117 9656
L21123 9693
" />
<path d="M21123 9693
L21119 9733
" />
<path d="M21119 9733
L21107 9771
" />
<path d="M21107 9771
L21086 9805
" />
<path d="M21086 9805
L21058 9835
" />
<path d="M21058 9835
L21025 9857
" />
<path d="M21025 9857
L20987 9871
" />
<path d="M20987 9871
L20948 9876
" />
<path d="M20948 9876
L20908 9871
" />
<path d="M20908 9871
L20871 9858
" />
<path d="M20871 9858
L20838 9836
" />
<path d="M20838 9836
L20810 9808
" />
<path d="M20810 9808
L20790 9774
" />
<path d="M20790 9774
L20777 9736
" />
<path d="M20777 9736
L20774 9698
" />
<path d="M20774 9698
L20778 9659
" />
<path d="M20778 9659
L20791 9623
" />
<path d="M20791 9623
L20812 9590
" />
<path d="M20812 9590
L20840 9563
" />
<path d="M20840 9563
L20873 9543
" />
<path d="M20873 9543
L20909 9530
" />
<path d="M20909 9530
L20948 9526
" />
<path d="M23949 9323
L24021 9330
" />
<path d="M24021 9330
L24091 9350
" />
<path d="M24091 9350
L24155 9383
" />
<path d="M24155 9383
L24212 9429
" />
<path d="M24212 9429
L24259 9484
" />
<path d="M24259 9484
L24294 9548
" />
<path d="M24294 9548
L24316 9617
" />
<path d="M24316 9617
L24324 9690
" />
<path d="M24324 9690
L24319 9754
" />
<path d="M24319 9754
L24303 9819
" />
<path d="M24303 9819
L24276 9879
" />
<path d="M24276 9879
L24239 9934
" />
<path d="M24239 9934
L24192 9981
" />
<path d="M24192 9981
L24139 10019
" />
<path d="M24139 10019
L24079 10048
" />
<path d="M24079 10048
L24015 10066
" />
<path d="M24015 10066
L23950 10073
" />
<path d="M23950 10073
L23884 10066
" />
<path d="M23884 10066
L23820 10048
" />
<path d="M23820 10048
L23760 10019
" />
<path d="M23760 10019
L23707 9980
" />
<path d="M23707 9980
L23661 9933
" />
<path d="M23661 9933
L23624 9878
" />
<path d="M23624 9878
L23596 9818
" />
<path d="M23596 9818
L23580 9753
" />
<path d="M23580 9753
L23575 9688
" />
<path d="M23575 9688
L23583 9617
" />
<path d="M23583 9617
L23605 9548
" />
<path d="M23605 9548
L23640 9484
" />
<path d="M23640 9484
L23686 9429
" />
<path d="M23686 9429
L23743 9383
" />
<path d="M23743 9383
L23807 9350
" />
<path d="M23807 9350
L23876 9330
" />
<path d="M23876 9330
L23949 9323
" />
<path d="M23950 9523
L23988 9527
" />
<path d="M23988 9527
L24024 9539
" />
<path d="M24024 9539
L24057 9558
" />
<path d="M24057 9558
L24085 9585
" />
<path d="M24085 9585
L24106 9617
" />
<path d="M24106 9617
L24119 9653
" />
<path d="M24119 9653
L24125 9691
" />
<path d="M24125 9691
L24121 9730
" />
<path d="M24121 9730
L24109 9768
" />
<path d="M24109 9768
L24088 9802
" />
<path d="M24088 9802
L24060 9832
" />
<path d="M24060 9832
L24027 9854
" />
<path d="M24027 9854
L23989 9868
" />
<path d="M23989 9868
L23950 9873
" />
<path d="M23950 9873
L23910 9868
" />
<path d="M23910 9868
L23873 9855
" />
<path d="M23873 9855
L23840 9833
" />
<path d="M23840 9833
L23812 9805
" />
<path d="M23812 9805
L23792 9771
" />
<path d="M23792 9771
L23779 9733
" />
<path d="M23779 9733
L23776 9695
" />
<path d="M23776 9695
L23780 9656
" />
<path d="M23780 9656
L23793 9620
" />
<path d="M23793 9620
L23814 9587
" />
<path d="M23814 9587
L23842 9560
" />
<path d="M23842 9560
L23875 9540
" />
<path d="M23875 9540
L23911 9527
" />
<path d="M23911 9527
L23950 9523
" />
</g>
<g style="fill:#000000; fill-opacity:0.0; 
stroke:#000000; stroke-width:80; stroke-opacity:1; 
stroke-linecap:round; stroke-linejoin:round;">
<circle cx="12902.4" cy="8574.8" r="700" /> 
<path d="M14102 8978
L14102 8174
" />
<path d="M11702 8966
L11702 8174
" />
<path d="M13752 7374
L12052 7374
" />
<path d="M12052 9774
L13752 9774
" />
<path d="M12052 6574
L13752 6574
" />
<path d="M13752 4174
L12052 4174
" />
<path d="M11702 5766
L11702 4974
" />
<path d="M14102 5778
L14102 4974
" />
<circle cx="12902.4" cy="5374.8" r="700" /> 
</g>
<g style="fill:#000000; fill-opacity:0.0; 
stroke:#000000; stroke-width:47.2441; stroke-opacity:1; 
stroke-linecap:round; stroke-linejoin:round;">
<path d="M14119 21934
L17954 21934
" />
<path d="M14119 17371
L14706 17371
" />
<path d="M14119 20729
L14119 21934
" />
<path d="M17958 17371
L17958 19229
" />
<path d="M17954 20729
L17954 21934
" />
<path d="M14119 17371
L14119 19229
" />
<path d="M17489 17371
L17954 17371
" />
<path d="M16348 17371
L16556 17371
" />
<path d="M15383 17371
L15710 17371
" />
<path d="M32862 21934
L36697 21934
" />
<path d="M32862 17371
L33449 17371
" />
<path d="M32862 20729
L32862 21934
" />
<path d="M36701 17371
L36701 19229
" />
<path d="M36697 20729
L36697 21934
" />
<path d="M32862 17371
L32862 19229
" />
<path d="M36232 17371
L36697 17371
" />
<path d="M35091 17371
L35299 17371
" />
<path d="M34126 17371
L34453 17371
" />
<path d="M43497 17371
L43824 17371
" />
<path d="M44462 17371
L44671 17371
" />
<path d="M45604 17371
L46068 17371
" />
<path d="M42234 17371
L42234 19229
" />
<path d="M46068 20729
L46068 21934
" />
<path d="M46072 17371
L46072 19229
" />
<path d="M42234 20729
L42234 21934
" />
<path d="M42234 17371
L42820 17371
" />
<path d="M42234 21934
L46068 21934
" />
<path d="M51605 21934
L55440 21934
" />
<path d="M51605 17371
L52192 17371
" />
<path d="M51605 20729
L51605 21934
" />
<path d="M55444 17371
L55444 19229
" />
<path d="M55440 20729
L55440 21934
" />
<path d="M51605 17371
L51605 19229
" />
<path d="M54975 17371
L55440 17371
" />
<path d="M53833 17371
L54042 17371
" />
<path d="M52869 17371
L53196 17371
" />
<path d="M62240 17371
L62567 17371
" />
<path d="M63205 17371
L63414 17371
" />
<path d="M64347 17371
L64811 17371
" />
<path d="M60976 17371
L60976 19229
" />
<path d="M64811 20729
L64811 21934
" />
<path d="M64815 17371
L64815 19229
" />
<path d="M60976 20729
L60976 21934
" />
<path d="M60976 17371
L61563 17371
" />
<path d="M60976 21934
L64811 21934
" />
<path d="M70348 21934
L74183 21934
" />
<path d="M70348 17371
L70935 17371
" />
<path d="M70348 20729
L70348 21934
" />
<path d="M74187 17371
L74187 19229
" />
<path d="M74183 20729
L74183 21934
" />
<path d="M70348 17371
L70348 19229
" />
<path d="M73718 17371
L74183 17371
" />
<path d="M72576 17371
L72785 17371
" />
<path d="M71612 17371
L71938 17371
" />
<path d="M4748 29789
L8583 29789
" />
<path d="M4748 25226
L5335 25226
" />
<path d="M4748 28585
L4748 29789
" />
<path d="M8587 25226
L8587 27085
" />
<path d="M8583 28585
L8583 29789
" />
<path d="M4748 25226
L4748 27085
" />
<path d="M8118 25226
L8583 25226
" />
<path d="M6976 25226
L7185 25226
" />
<path d="M6012 25226
L6338 25226
" />
<path d="M15383 25226
L15710 25226
" />
<path d="M16348 25226
L16556 25226
" />
<path d="M17489 25226
L17954 25226
" />
<path d="M14119 25226
L14119 27085
" />
<path d="M17954 28585
L17954 29789
" />
<path d="M17958 25226
L17958 27085
" />
<path d="M14119 28585
L14119 29789
" />
<path d="M14119 25226
L14706 25226
" />
<path d="M14119 29789
L17954 29789
" />
<path d="M24755 25226
L25081 25226
" />
<path d="M25719 25226
L25928 25226
" />
<path d="M26861 25226
L27325 25226
" />
<path d="M23491 25226
L23491 27085
" />
<path d="M27325 28585
L27325 29789
" />
<path d="M27329 25226
L27329 27085
" />
<path d="M23491 28585
L23491 29789
" />
<path d="M23491 25226
L24077 25226
" />
<path d="M23491 29789
L27325 29789
" />
<path d="M32862 29789
L36697 29789
" />
<path d="M32862 25226
L33449 25226
" />
<path d="M32862 28585
L32862 29789
" />
<path d="M36701 25226
L36701 27085
" />
<path d="M36697 28585
L36697 29789
" />
<path d="M32862 25226
L32862 27085
" />
<path d="M36232 25226
L36697 25226
" />
<path d="M35091 25226
L35299 25226
" />
<path d="M34126 25226
L34453 25226
" />
<path d="M43497 25226
L43824 25226
" />
<path d="M44462 25226
L44671 25226
" />
<path d="M45604 25226
L46068 25226
" />
<path d="M42234 25226
L42234 27085
" />
<path d="M46068 28585
L46068 29789
" />
<path d="M46072 25226
L46072 27085
" />
<path d="M42234 28585
L42234 29789
" />
<path d="M42234 25226
L42820 25226
" />
<path d="M42234 29789
L46068 29789
" />
<path d="M51605 29789
L55440 29789
" />
<path d="M51605 25226
L52192 25226
" />
<path d="M51605 28585
L51605 29789
" />
<path d="M55444 25226
L55444 27085
" />
<path d="M55440 28585
L55440 29789
" />
<path d="M51605 25226
L51605 27085
" />
<path d="M54975 25226
L55440 25226
" />
<path d="M53833 25226
L54042 25226
" />
<path d="M52869 25226
L53196 25226
" />
<path d="M62240 25226
L62567 25226
" />
<path d="M63205 25226
L63414 25226
" />
<path d="M64347 25226
L64811 25226
" />
<path d="M60976 25226
L60976 27085
" />
<path d="M64811 28585
L64811 29789
" />
<path d="M64815 25226
L64815 27085
" />
<path d="M60976 28585
L60976 29789
" />
<path d="M60976 25226
L61563 25226
" />
<path d="M60976 29789
L64811 29789
" />
<path d="M70348 29789
L74183 29789
" />
<path d="M70348 25226
L70935 25226
" />
<path d="M70348 28585
L70348 29789
" />
<path d="M74187 25226
L74187 27085
" />
<path d="M74183 28585
L74183 29789
" />
<path d="M70348 25226
L70348 27085
" />
<path d="M73718 25226
L74183 25226
" />
<path d="M72576 25226
L72785 25226
" />
<path d="M71612 25226
L71938 25226
" />
<path d="M6012 33081
L6338 33081
" />
<path d="M6976 33081
L7185 33081
" />
<path d="M8118 33081
L8583 33081
" />
<path d="M4748 33081
L4748 34940
" />
<path d="M8583 36440
L8583 37644
" />
<path d="M8587 33081
L8587 34940
" />
<path d="M4748 36440
L4748 37644
" />
<path d="M4748 33081
L5335 33081
" />
<path d="M4748 37644
L8583 37644
" />
<path d="M14119 37644
L17954 37644
" />
<path d="M14119 33081
L14706 33081
" />
<path d="M14119 36440
L14119 37644
" />
<path d="M17958 33081
L17958 34940
" />
<path d="M17954 36440
L17954 37644
" />
<path d="M14119 33081
L14119 34940
" />
<path d="M17489 33081
L17954 33081
" />
<path d="M16348 33081
L16556 33081
" />
<path d="M15383 33081
L15710 33081
" />
<path d="M24755 33081
L25081 33081
" />
<path d="M25719 33081
L25928 33081
" />
<path d="M26861 33081
L27325 33081
" />
<path d="M23491 33081
L23491 34940
" />
<path d="M27325 36440
L27325 37644
" />
<path d="M27329 33081
L27329 34940
" />
<path d="M23491 36440
L23491 37644
" />
<path d="M23491 33081
L24077 33081
" />
<path d="M23491 37644
L27325 37644
" />
<path d="M32862 37644
L36697 37644
" />
<path d="M32862 33081
L33449 33081
" />
<path d="M32862 36440
L32862 37644
" />
<path d="M36701 33081
L36701 34940
" />
<path d="M36697 36440
L36697 37644
" />
<path d="M32862 33081
L32862 34940
" />
<path d="M36232 33081
L36697 33081
" />
<path d="M35091 33081
L35299 33081
" />
<path d="M34126 33081
L34453 33081
" />
<path d="M43497 33081
L43824 33081
" />
<path d="M44462 33081
L44671 33081
" />
<path d="M45604 33081
L46068 33081
" />
<path d="M42234 33081
L42234 34940
" />
<path d="M46068 36440
L46068 37644
" />
<path d="M46072 33081
L46072 34940
" />
<path d="M42234 36440
L42234 37644
" />
<path d="M42234 33081
L42820 33081
" />
<path d="M42234 37644
L46068 37644
" />
<path d="M51605 37644
L55440 37644
" />
<path d="M51605 33081
L52192 33081
" />
<path d="M51605 36440
L51605 37644
" />
<path d="M55444 33081
L55444 34940
" />
<path d="M55440 36440
L55440 37644
" />
<path d="M51605 33081
L51605 34940
" />
<path d="M54975 33081
L55440 33081
" />
<path d="M53833 33081
L54042 33081
" />
<path d="M52869 33081
L53196 33081
" />
<path d="M62240 33081
L62567 33081
" />
<path d="M63205 33081
L63414 33081
" />
<path d="M64347 33081
L64811 33081
" />
<path d="M60976 33081
L60976 34940
" />
<path d="M64811 36440
L64811 37644
" />
<path d="M64815 33081
L64815 34940
" />
<path d="M60976 36440
L60976 37644
" />
<path d="M60976 33081
L61563 33081
" />
<path d="M60976 37644
L64811 37644
" />
<path d="M70348 37644
L74183 37644
" />
<path d="M70348 33081
L70935 33081
" />
<path d="M70348 36440
L70348 37644
" />
<path d="M74187 33081
L74187 34940
" />
<path d="M74183 36440
L74183 37644
" />
<path d="M70348 33081
L70348 34940
" />
<path d="M73718 33081
L74183 33081
" />
<path d="M72576 33081
L72785 33081
" />
<path d="M71612 33081
L71938 33081
" />
<path d="M4748 45500
L8583 45500
" />
<path d="M4748 40937
L5335 40937
" />
<path d="M4748 44295
L4748 45500
" />
<path d="M8587 40937
L8587 42795
" />
<path d="M8583 44295
L8583 45500
" />
<path d="M4748 40937
L4748 42795
" />
<path d="M8118 40937
L8583 40937
" />
<path d="M6976 40937
L7185 40937
" />
<path d="M6012 40937
L6338 40937
" />
<path d="M15383 40937
L15710 40937
" />
<path d="M16348 40937
L16556 40937
" />
<path d="M17489 40937
L17954 40937
" />
<path d="M14119 40937
L14119 42795
" />
<path d="M17954 44295
L17954 45500
" />
<path d="M17958 40937
L17958 42795
" />
<path d="M14119 44295
L14119 45500
" />
<path d="M14119 40937
L14706 40937
" />
<path d="M14119 45500
L17954 45500
" />
<path d="M24755 40937
L25081 40937
" />
<path d="M25719 40937
L25928 40937
" />
<path d="M26861 40937
L27325 40937
" />
<path d="M23491 40937
L23491 42795
" />
<path d="M27325 44295
L27325 45500
" />
<path d="M27329 40937
L27329 42795
" />
<path d="M23491 44295
L23491 45500
" />
<path d="M23491 40937
L24077 40937
" />
<path d="M23491 45500
L27325 45500
" />
<path d="M32862 45500
L36697 45500
" />
<path d="M32862 40937
L33449 40937
" />
<path d="M32862 44295
L32862 45500
" />
<path d="M36701 40937
L36701 42795
" />
<path d="M36697 44295
L36697 45500
" />
<path d="M32862 40937
L32862 42795
" />
<path d="M36232 40937
L36697 40937
" />
<path d="M35091 40937
L35299 40937
" />
<path d="M34126 40937
L34453 40937
" />
<path d="M43497 40937
L43824 40937
" />
<path d="M44462 40937
L44671 40937
" />
<path d="M45604 40937
L46068 40937
" />
<path d="M42234 40937
L42234 42795
" />
<path d="M46068 44295
L46068 45500
" />
<path d="M46072 40937
L46072 42795
" />
<path d="M42234 44295
L42234 45500
" />
<path d="M42234 40937
L42820 40937
" />
<path d="M42234 45500
L46068 45500
" />
<path d="M51605 45500
L55440 45500
" />
<path d="M51605 40937
L52192 40937
" />
<path d="M51605 44295
L51605 45500
" />
<path d="M55444 40937
L55444 42795
" />
<path d="M55440 44295
L55440 45500
" />
<path d="M51605 40937
L51605 42795
" />
<path d="M54975 40937
L55440 40937
" />
<path d="M53833 40937
L54042 40937
" />
<path d="M52869 40937
L53196 40937
" />
<path d="M62240 40937
L62567 40937
" />
<path d="M63205 40937
L63414 40937
" />
<path d="M64347 40937
L64811 40937
" />
<path d="M60976 40937
L60976 42795
" />
<path d="M64811 44295
L64811 45500
" />
<path d="M64815 40937
L64815 42795
" />
<path d="M60976 44295
L60976 45500
" />
<path d="M60976 40937
L61563 40937
" />
<path d="M60976 45500
L64811 45500
" />
<path d="M70348 45500
L74183 45500
" />
<path d="M70348 40937
L70935 40937
" />
<path d="M70348 44295
L70348 45500
" />
<path d="M74187 40937
L74187 42795
" />
<path d="M74183 44295
L74183 45500
" />
<path d="M70348 40937
L70348 42795
" />
<path d="M73718 40937
L74183 40937
" />
<path d="M72576 40937
L72785 40937
" />
<path d="M71612 40937
L71938 40937
" />
</g>
<g style="fill:#000000; fill-opacity:0.0; 
stroke:#000000; stroke-width:59.0551; stroke-opacity:1; 
stroke-linecap:round; stroke-linejoin:round;">
<path d="M75484 13931
L75765 13931
L75821 13949
L75859 13987
L75878 14043
L75878 14081
" />
<path d="M75878 13537
L75878 13762
" />
<path d="M75878 13650
L75484 13650
L75540 13687
L75578 13725
L75596 13762
" />
<path d="M53787 12352
L53787 11959
L53918 12240
L54050 11959
L54050 12352
" />
<path d="M54237 11959
L54237 12277
L54256 12315
L54275 12334
L54312 12352
L54387 12352
L54425 12334
L54443 12315
L54462 12277
L54462 11959
" />
<path d="M54612 11959
L54874 12352
" />
<path d="M54874 11959
L54612 12352
" />
<path d="M55006 11996
L55024 11977
L55062 11959
L55156 11959
L55193 11977
L55212 11996
L55231 12034
L55231 12071
L55212 12127
L54987 12352
L55231 12352
" />
<path d="M36587 12352
L36587 11959
L36718 12240
L36850 11959
L36850 12352
" />
<path d="M37037 11959
L37037 12277
L37056 12315
L37075 12334
L37112 12352
L37187 12352
L37225 12334
L37243 12315
L37262 12277
L37262 11959
" />
<path d="M37412 11959
L37674 12352
" />
<path d="M37674 11959
L37412 12352
" />
<path d="M38031 12352
L37806 12352
" />
<path d="M37918 12352
L37918 11959
L37881 12015
L37843 12052
L37806 12071
" />
<path d="M6184 18974
L6315 19367
L6446 18974
" />
<path d="M6803 19367
L6671 19180
" />
<path d="M6578 19367
L6578 18974
L6728 18974
L6765 18992
L6784 19011
L6803 19049
L6803 19105
L6784 19142
L6765 19161
L6728 19180
L6578 19180
" />
<path d="M7178 19367
L6953 19367
" />
<path d="M7065 19367
L7065 18974
L7028 19030
L6990 19067
L6953 19086
" />
<path d="M24884 18774
L25015 19167
L25146 18774
" />
<path d="M25503 19167
L25371 18980
" />
<path d="M25278 19167
L25278 18774
L25428 18774
L25465 18792
L25484 18811
L25503 18849
L25503 18905
L25484 18942
L25465 18961
L25428 18980
L25278 18980
" />
<path d="M25634 18774
L25878 18774
L25746 18924
L25803 18924
L25840 18942
L25859 18961
L25878 18999
L25878 19092
L25859 19130
L25840 19149
L25803 19167
L25690 19167
L25653 19149
L25634 19130
" />
</g>
<g style="fill:#000000; fill-opacity:0.0; 
stroke:#000000; stroke-width:50; stroke-opacity:1; 
stroke-linecap:round; stroke-linejoin:round;">
<path d="M18641 9240
L18629 9251
L18595 9263
L18572 9263
L18538 9251
L18515 9229
L18503 9206
L18492 9160
L18492 9126
L18503 9080
L18515 9057
L18538 9034
L18572 9023
L18595 9023
L18629 9034
L18641 9046
" />
<path d="M18732 9046
L18743 9034
L18766 9023
L18823 9023
L18846 9034
L18858 9046
L18869 9069
L18869 9091
L18858 9126
L18721 9263
L18869 9263
" />
<path d="M18423 10333
L18286 10333
" />
<path d="M18355 10333
L18355 10093
L18332 10127
L18309 10150
L18286 10161
" />
<path d="M18572 10093
L18595 10093
L18618 10104
L18629 10116
L18641 10139
L18652 10184
L18652 10241
L18641 10287
L18629 10310
L18618 10321
L18595 10333
L18572 10333
L18549 10321
L18538 10310
L18526 10287
L18515 10241
L18515 10184
L18526 10139
L18538 10116
L18549 10104
L18572 10093
" />
<path d="M18858 10173
L18858 10333
" />
<path d="M18755 10173
L18755 10299
L18766 10321
L18789 10333
L18823 10333
L18846 10321
L18858 10310
" />
<path d="M19052 10207
L18972 10207
" />
<path d="M18972 10333
L18972 10093
L19086 10093
" />
<path d="M26141 9240
L26129 9251
L26095 9263
L26072 9263
L26038 9251
L26015 9229
L26003 9206
L25992 9160
L25992 9126
L26003 9080
L26015 9057
L26038 9034
L26072 9023
L26095 9023
L26129 9034
L26141 9046
" />
<path d="M26369 9263
L26232 9263
" />
<path d="M26301 9263
L26301 9023
L26278 9057
L26255 9080
L26232 9091
" />
<path d="M25809 10333
L25672 10333
" />
<path d="M25741 10333
L25741 10093
L25718 10127
L25695 10150
L25672 10161
" />
<path d="M25958 10093
L25981 10093
L26003 10104
L26015 10116
L26026 10139
L26038 10184
L26038 10241
L26026 10287
L26015 10310
L26003 10321
L25981 10333
L25958 10333
L25935 10321
L25923 10310
L25912 10287
L25901 10241
L25901 10184
L25912 10139
L25923 10116
L25935 10104
L25958 10093
" />
<path d="M26186 10093
L26209 10093
L26232 10104
L26243 10116
L26255 10139
L26266 10184
L26266 10241
L26255 10287
L26243 10310
L26232 10321
L26209 10333
L26186 10333
L26163 10321
L26152 10310
L26141 10287
L26129 10241
L26129 10184
L26141 10139
L26152 10116
L26163 10104
L26186 10093
" />
<path d="M26369 10173
L26369 10333
" />
<path d="M26369 10196
L26381 10184
L26403 10173
L26438 10173
L26461 10184
L26472 10207
L26472 10333
" />
<path d="M26666 10207
L26586 10207
" />
<path d="M26586 10333
L26586 10093
L26701 10093
" />
<path d="M77752 7803
L77763 7769
L77775 7757
L77797 7746
L77832 7746
L77855 7757
L77866 7769
L77877 7792
L77877 7883
L77637 7883
L77637 7803
L77649 7780
L77660 7769
L77683 7757
L77706 7757
L77729 7769
L77740 7780
L77752 7803
L77752 7883
" />
<path d="M77877 7517
L77877 7654
" />
<path d="M77877 7586
L77637 7586
L77672 7609
L77695 7632
L77706 7654
" />
<path d="M69782 7834
L69817 7846
L69874 7846
L69897 7834
L69908 7823
L69920 7800
L69920 7777
L69908 7754
L69897 7743
L69874 7732
L69828 7720
L69805 7709
L69794 7697
L69782 7674
L69782 7652
L69794 7629
L69805 7617
L69828 7606
L69885 7606
L69920 7617
" />
<path d="M70022 7846
L70022 7606
L70114 7606
L70137 7617
L70148 7629
L70160 7652
L70160 7686
L70148 7709
L70137 7720
L70114 7732
L70022 7732
" />
<path d="M70251 7777
L70365 7777
" />
<path d="M70228 7846
L70308 7606
L70388 7846
" />
<path d="M70605 7846
L70525 7732
" />
<path d="M70468 7846
L70468 7606
L70560 7606
L70582 7617
L70594 7629
L70605 7652
L70605 7686
L70594 7709
L70582 7720
L70560 7732
L70468 7732
" />
<path d="M70708 7846
L70708 7606
" />
<path d="M70845 7846
L70742 7709
" />
<path d="M70845 7606
L70708 7743
" />
<path d="M71028 7720
L70948 7720
" />
<path d="M70948 7846
L70948 7606
L71062 7606
" />
<path d="M71154 7606
L71154 7800
L71165 7823
L71177 7834
L71200 7846
L71245 7846
L71268 7834
L71280 7823
L71291 7800
L71291 7606
" />
<path d="M71405 7846
L71405 7606
L71542 7846
L71542 7606
" />
<path d="M71600 7869
L71782 7869
" />
<path d="M71840 7846
L71840 7606
L71931 7606
L71954 7617
L71965 7629
L71977 7652
L71977 7686
L71965 7709
L71954 7720
L71931 7732
L71840 7732
" />
<path d="M72217 7846
L72137 7732
" />
<path d="M72080 7846
L72080 7606
L72171 7606
L72194 7617
L72205 7629
L72217 7652
L72217 7686
L72205 7709
L72194 7720
L72171 7732
L72080 7732
" />
<path d="M72365 7606
L72411 7606
L72434 7617
L72457 7640
L72468 7686
L72468 7766
L72457 7812
L72434 7834
L72411 7846
L72365 7846
L72342 7834
L72320 7812
L72308 7766
L72308 7686
L72320 7640
L72342 7617
L72365 7606
" />
<path d="M72514 7869
L72697 7869
" />
<path d="M72754 7846
L72754 7606
L72834 7777
L72914 7606
L72914 7846
" />
<path d="M73028 7846
L73028 7606
" />
<path d="M73280 7823
L73268 7834
L73234 7846
L73211 7846
L73177 7834
L73154 7812
L73142 7789
L73131 7743
L73131 7709
L73142 7663
L73154 7640
L73177 7617
L73211 7606
L73234 7606
L73268 7617
L73280 7629
" />
<path d="M73520 7846
L73440 7732
" />
<path d="M73382 7846
L73382 7606
L73474 7606
L73497 7617
L73508 7629
L73520 7652
L73520 7686
L73508 7709
L73497 7720
L73474 7732
L73382 7732
" />
<path d="M73668 7606
L73714 7606
L73737 7617
L73760 7640
L73771 7686
L73771 7766
L73760 7812
L73737 7834
L73714 7846
L73668 7846
L73645 7834
L73622 7812
L73611 7766
L73611 7686
L73622 7640
L73645 7617
L73668 7606
" />
</g>
<g style="fill:#000000; fill-opacity:0.0; 
stroke:#000000; stroke-width:59.0551; stroke-opacity:1; 
stroke-linecap:round; stroke-linejoin:round;">
<path d="M6021 7152
L6021 6759
L6115 6759
L6171 6777
L6209 6815
L6228 6852
L6246 6927
L6246 6984
L6228 7059
L6209 7096
L6171 7134
L6115 7152
L6021 7152
" />
<path d="M6415 7152
L6415 6890
" />
<path d="M6415 6759
L6396 6777
L6415 6796
L6434 6777
L6415 6759
L6415 6796
" />
<path d="M6584 7134
L6621 7152
L6696 7152
L6734 7134
L6752 7096
L6752 7077
L6734 7040
L6696 7021
L6640 7021
L6602 7002
L6584 6965
L6584 6946
L6602 6909
L6640 6890
L6696 6890
L6734 6909
" />
<path d="M6921 6890
L6921 7284
" />
<path d="M6921 6909
L6959 6890
L7034 6890
L7071 6909
L7090 6927
L7109 6965
L7109 7077
L7090 7115
L7071 7134
L7034 7152
L6959 7152
L6921 7134
" />
<path d="M7334 7152
L7296 7134
L7277 7096
L7277 6759
" />
<path d="M7652 7152
L7652 6946
L7634 6909
L7596 6890
L7521 6890
L7484 6909
" />
<path d="M7652 7134
L7615 7152
L7521 7152
L7484 7134
L7465 7096
L7465 7059
L7484 7021
L7521 7002
L7615 7002
L7652 6984
" />
<path d="M7802 6890
L7896 7152
" />
<path d="M7990 6890
L7896 7152
L7859 7246
L7840 7265
L7802 7284
" />
<path d="M8346 7152
L8121 7152
" />
<path d="M8234 7152
L8234 6759
L8196 6815
L8159 6852
L8121 6871
" />
</g>
<g style="fill:#000000; fill-opacity:0.0; 
stroke:#000000; stroke-width:5.90551; stroke-opacity:1; 
stroke-linecap:round; stroke-linejoin:round;">
<path d="M17011 6428
L17011 5876
" />
<path d="M17589 6375
L17563 6402
L17484 6428
L17432 6428
L17353 6402
L17300 6349
L17274 6296
L17248 6191
L17248 6113
L17274 6007
L17300 5955
L17353 5902
L17432 5876
L17484 5876
L17563 5902
L17589 5929
" />
<path d="M18115 6428
L17799 6428
" />
<path d="M17957 6428
L17957 5876
L17905 5955
L17852 6007
L17799 6034
" />
</g>
<g style="fill:#000000; fill-opacity:0.0; 
stroke:#000000; stroke-width:50; stroke-opacity:1; 
stroke-linecap:round; stroke-linejoin:round;">
<path d="M22796 10006
L22716 9892
" />
<path d="M22658 10006
L22658 9766
L22750 9766
L22773 9778
L22784 9789
L22796 9812
L22796 9846
L22784 9869
L22773 9881
L22750 9892
L22658 9892
" />
<path d="M23024 10006
L22887 10006
" />
<path d="M22956 10006
L22956 9766
L22933 9801
L22910 9824
L22887 9835
" />
<path d="M23173 9766
L23196 9766
L23218 9778
L23230 9789
L23241 9812
L23253 9858
L23253 9915
L23241 9961
L23230 9984
L23218 9995
L23196 10006
L23173 10006
L23150 9995
L23138 9984
L23127 9961
L23116 9915
L23116 9858
L23127 9812
L23138 9789
L23150 9778
L23173 9766
" />
<path d="M21784 9606
L21647 9606
" />
<path d="M21716 9606
L21716 9366
L21693 9401
L21670 9424
L21647 9435
" />
<path d="M21933 9366
L21956 9366
L21978 9378
L21990 9389
L22001 9412
L22013 9458
L22013 9515
L22001 9561
L21990 9584
L21978 9595
L21956 9606
L21933 9606
L21910 9595
L21898 9584
L21887 9561
L21876 9515
L21876 9458
L21887 9412
L21898 9389
L21910 9378
L21933 9366
" />
<path d="M22116 9606
L22116 9366
" />
<path d="M22253 9606
L22150 9469
" />
<path d="M22253 9366
L22116 9504
" />
<path d="M12490 8671
L12525 8683
L12582 8683
L12605 8671
L12616 8660
L12628 8637
L12628 8614
L12616 8591
L12605 8580
L12582 8569
L12536 8557
L12513 8546
L12502 8534
L12490 8511
L12490 8489
L12502 8466
L12513 8454
L12536 8443
L12593 8443
L12628 8454
" />
<path d="M12708 8443
L12765 8683
L12810 8511
L12856 8683
L12913 8443
" />
<path d="M12970 8443
L13108 8443
" />
<path d="M13039 8683
L13039 8443
" />
<path d="M13313 8683
L13176 8683
" />
<path d="M13245 8683
L13245 8443
L13222 8477
L13199 8500
L13176 8511
" />
<path d="M12490 5471
L12525 5483
L12582 5483
L12605 5471
L12616 5460
L12628 5437
L12628 5414
L12616 5391
L12605 5380
L12582 5369
L12536 5357
L12513 5346
L12502 5334
L12490 5311
L12490 5289
L12502 5266
L12513 5254
L12536 5243
L12593 5243
L12628 5254
" />
<path d="M12708 5243
L12765 5483
L12810 5311
L12856 5483
L12913 5243
" />
<path d="M12970 5243
L13108 5243
" />
<path d="M13039 5483
L13039 5243
" />
<path d="M13176 5266
L13188 5254
L13210 5243
L13268 5243
L13290 5254
L13302 5266
L13313 5289
L13313 5311
L13302 5346
L13165 5483
L13313 5483
" />
</g>
<g style="fill:#000000; fill-opacity:0.0; 
stroke:#000000; stroke-width:59.0551; stroke-opacity:1; 
stroke-linecap:round; stroke-linejoin:round;">
<path d="M15484 18874
L15615 19267
L15746 18874
" />
<path d="M16103 19267
L15971 19080
" />
<path d="M15878 19267
L15878 18874
L16028 18874
L16065 18892
L16084 18911
L16103 18949
L16103 19005
L16084 19042
L16065 19061
L16028 19080
L15878 19080
" />
<path d="M16253 18911
L16271 18892
L16309 18874
L16403 18874
L16440 18892
L16459 18911
L16478 18949
L16478 18986
L16459 19042
L16234 19267
L16478 19267
" />
<path d="M34284 18774
L34415 19167
L34546 18774
" />
<path d="M34903 19167
L34771 18980
" />
<path d="M34678 19167
L34678 18774
L34828 18774
L34865 18792
L34884 18811
L34903 18849
L34903 18905
L34884 18942
L34865 18961
L34828 18980
L34678 18980
" />
<path d="M35240 18905
L35240 19167
" />
<path d="M35146 18755
L35053 19036
L35296 19036
" />
<path d="M43584 18774
L43715 19167
L43846 18774
" />
<path d="M44203 19167
L44071 18980
" />
<path d="M43978 19167
L43978 18774
L44128 18774
L44165 18792
L44184 18811
L44203 18849
L44203 18905
L44184 18942
L44165 18961
L44128 18980
L43978 18980
" />
<path d="M44559 18774
L44371 18774
L44353 18961
L44371 18942
L44409 18924
L44503 18924
L44540 18942
L44559 18961
L44578 18999
L44578 19092
L44559 19130
L44540 19149
L44503 19167
L44409 19167
L44371 19149
L44353 19130
" />
<path d="M52984 18874
L53115 19267
L53246 18874
" />
<path d="M53603 19267
L53471 19080
" />
<path d="M53378 19267
L53378 18874
L53528 18874
L53565 18892
L53584 18911
L53603 18949
L53603 19005
L53584 19042
L53565 19061
L53528 19080
L53378 19080
" />
<path d="M53940 18874
L53865 18874
L53828 18892
L53809 18911
L53771 18967
L53753 19042
L53753 19192
L53771 19230
L53790 19249
L53828 19267
L53903 19267
L53940 19249
L53959 19230
L53978 19192
L53978 19099
L53959 19061
L53940 19042
L53903 19024
L53828 19024
L53790 19042
L53771 19061
L53753 19099
" />
<path d="M62384 18874
L62515 19267
L62646 18874
" />
<path d="M63003 19267
L62871 19080
" />
<path d="M62778 19267
L62778 18874
L62928 18874
L62965 18892
L62984 18911
L63003 18949
L63003 19005
L62984 19042
L62965 19061
L62928 19080
L62778 19080
" />
<path d="M63134 18874
L63396 18874
L63228 19267
" />
<path d="M71784 18774
L71915 19167
L72046 18774
" />
<path d="M72403 19167
L72271 18980
" />
<path d="M72178 19167
L72178 18774
L72328 18774
L72365 18792
L72384 18811
L72403 18849
L72403 18905
L72384 18942
L72365 18961
L72328 18980
L72178 18980
" />
<path d="M72628 18942
L72590 18924
L72571 18905
L72553 18867
L72553 18849
L72571 18811
L72590 18792
L72628 18774
L72703 18774
L72740 18792
L72759 18811
L72778 18849
L72778 18867
L72759 18905
L72740 18924
L72703 18942
L72628 18942
L72590 18961
L72571 18980
L72553 19017
L72553 19092
L72571 19130
L72590 19149
L72628 19167
L72703 19167
L72740 19149
L72759 19130
L72778 19092
L72778 19017
L72759 18980
L72740 18961
L72703 18942
" />
<path d="M6184 26641
L6315 27034
L6446 26641
" />
<path d="M6803 27034
L6671 26847
" />
<path d="M6578 27034
L6578 26641
L6728 26641
L6765 26659
L6784 26678
L6803 26716
L6803 26772
L6784 26809
L6765 26828
L6728 26847
L6578 26847
" />
<path d="M6990 27034
L7065 27034
L7103 27016
L7121 26997
L7159 26941
L7178 26866
L7178 26716
L7159 26678
L7140 26659
L7103 26641
L7028 26641
L6990 26659
L6971 26678
L6953 26716
L6953 26809
L6971 26847
L6990 26866
L7028 26884
L7103 26884
L7140 26866
L7159 26847
L7178 26809
" />
<path d="M15396 26641
L15528 27034
L15659 26641
" />
<path d="M16015 27034
L15884 26847
" />
<path d="M15790 27034
L15790 26641
L15940 26641
L15978 26659
L15996 26678
L16015 26716
L16015 26772
L15996 26809
L15978 26828
L15940 26847
L15790 26847
" />
<path d="M16390 27034
L16165 27034
" />
<path d="M16278 27034
L16278 26641
L16240 26697
L16203 26734
L16165 26753
" />
<path d="M16634 26641
L16671 26641
L16709 26659
L16728 26678
L16746 26716
L16765 26791
L16765 26884
L16746 26959
L16728 26997
L16709 27016
L16671 27034
L16634 27034
L16596 27016
L16578 26997
L16559 26959
L16540 26884
L16540 26791
L16559 26716
L16578 26678
L16596 26659
L16634 26641
" />
<path d="M24796 26641
L24928 27034
L25059 26641
" />
<path d="M25415 27034
L25284 26847
" />
<path d="M25190 27034
L25190 26641
L25340 26641
L25378 26659
L25396 26678
L25415 26716
L25415 26772
L25396 26809
L25378 26828
L25340 26847
L25190 26847
" />
<path d="M25790 27034
L25565 27034
" />
<path d="M25678 27034
L25678 26641
L25640 26697
L25603 26734
L25565 26753
" />
<path d="M26165 27034
L25940 27034
" />
<path d="M26053 27034
L26053 26641
L26015 26697
L25978 26734
L25940 26753
" />
<path d="M34096 26641
L34228 27034
L34359 26641
" />
<path d="M34715 27034
L34584 26847
" />
<path d="M34490 27034
L34490 26641
L34640 26641
L34678 26659
L34696 26678
L34715 26716
L34715 26772
L34696 26809
L34678 26828
L34640 26847
L34490 26847
" />
<path d="M35090 27034
L34865 27034
" />
<path d="M34978 27034
L34978 26641
L34940 26697
L34903 26734
L34865 26753
" />
<path d="M35240 26678
L35259 26659
L35296 26641
L35390 26641
L35428 26659
L35446 26678
L35465 26716
L35465 26753
L35446 26809
L35221 27034
L35465 27034
" />
<path d="M43496 26641
L43628 27034
L43759 26641
" />
<path d="M44115 27034
L43984 26847
" />
<path d="M43890 27034
L43890 26641
L44040 26641
L44078 26659
L44096 26678
L44115 26716
L44115 26772
L44096 26809
L44078 26828
L44040 26847
L43890 26847
" />
<path d="M44490 27034
L44265 27034
" />
<path d="M44378 27034
L44378 26641
L44340 26697
L44303 26734
L44265 26753
" />
<path d="M44621 26641
L44865 26641
L44734 26791
L44790 26791
L44828 26809
L44846 26828
L44865 26866
L44865 26959
L44846 26997
L44828 27016
L44790 27034
L44678 27034
L44640 27016
L44621 26997
" />
<path d="M52796 26641
L52928 27034
L53059 26641
" />
<path d="M53415 27034
L53284 26847
" />
<path d="M53190 27034
L53190 26641
L53340 26641
L53378 26659
L53396 26678
L53415 26716
L53415 26772
L53396 26809
L53378 26828
L53340 26847
L53190 26847
" />
<path d="M53790 27034
L53565 27034
" />
<path d="M53678 27034
L53678 26641
L53640 26697
L53603 26734
L53565 26753
" />
<path d="M54128 26772
L54128 27034
" />
<path d="M54034 26622
L53940 26903
L54184 26903
" />
<path d="M62196 26641
L62328 27034
L62459 26641
" />
<path d="M62815 27034
L62684 26847
" />
<path d="M62590 27034
L62590 26641
L62740 26641
L62778 26659
L62796 26678
L62815 26716
L62815 26772
L62796 26809
L62778 26828
L62740 26847
L62590 26847
" />
<path d="M63190 27034
L62965 27034
" />
<path d="M63078 27034
L63078 26641
L63040 26697
L63003 26734
L62965 26753
" />
<path d="M63546 26641
L63359 26641
L63340 26828
L63359 26809
L63396 26791
L63490 26791
L63528 26809
L63546 26828
L63565 26866
L63565 26959
L63546 26997
L63528 27016
L63490 27034
L63396 27034
L63359 27016
L63340 26997
" />
<path d="M71596 26541
L71728 26934
L71859 26541
" />
<path d="M72215 26934
L72084 26747
" />
<path d="M71990 26934
L71990 26541
L72140 26541
L72178 26559
L72196 26578
L72215 26616
L72215 26672
L72196 26709
L72178 26728
L72140 26747
L71990 26747
" />
<path d="M72590 26934
L72365 26934
" />
<path d="M72478 26934
L72478 26541
L72440 26597
L72403 26634
L72365 26653
" />
<path d="M72928 26541
L72853 26541
L72815 26559
L72796 26578
L72759 26634
L72740 26709
L72740 26859
L72759 26897
L72778 26916
L72815 26934
L72890 26934
L72928 26916
L72946 26897
L72965 26859
L72965 26766
L72946 26728
L72928 26709
L72890 26691
L72815 26691
L72778 26709
L72759 26728
L72740 26766
" />
<path d="M5996 34485
L6128 34878
L6259 34485
" />
<path d="M6615 34878
L6484 34691
" />
<path d="M6390 34878
L6390 34485
L6540 34485
L6578 34503
L6596 34522
L6615 34560
L6615 34616
L6596 34653
L6578 34672
L6540 34691
L6390 34691
" />
<path d="M6990 34878
L6765 34878
" />
<path d="M6878 34878
L6878 34485
L6840 34541
L6803 34578
L6765 34597
" />
<path d="M7121 34485
L7384 34485
L7215 34878
" />
<path d="M15396 34485
L15528 34878
L15659 34485
" />
<path d="M16015 34878
L15884 34691
" />
<path d="M15790 34878
L15790 34485
L15940 34485
L15978 34503
L15996 34522
L16015 34560
L16015 34616
L15996 34653
L15978 34672
L15940 34691
L15790 34691
" />
<path d="M16390 34878
L16165 34878
" />
<path d="M16278 34878
L16278 34485
L16240 34541
L16203 34578
L16165 34597
" />
<path d="M16615 34653
L16578 34635
L16559 34616
L16540 34578
L16540 34560
L16559 34522
L16578 34503
L16615 34485
L16690 34485
L16728 34503
L16746 34522
L16765 34560
L16765 34578
L16746 34616
L16728 34635
L16690 34653
L16615 34653
L16578 34672
L16559 34691
L16540 34728
L16540 34803
L16559 34841
L16578 34860
L16615 34878
L16690 34878
L16728 34860
L16746 34841
L16765 34803
L16765 34728
L16746 34691
L16728 34672
L16690 34653
" />
<path d="M24696 34585
L24828 34978
L24959 34585
" />
<path d="M25315 34978
L25184 34791
" />
<path d="M25090 34978
L25090 34585
L25240 34585
L25278 34603
L25296 34622
L25315 34660
L25315 34716
L25296 34753
L25278 34772
L25240 34791
L25090 34791
" />
<path d="M25690 34978
L25465 34978
" />
<path d="M25578 34978
L25578 34585
L25540 34641
L25503 34678
L25465 34697
" />
<path d="M25878 34978
L25953 34978
L25990 34960
L26009 34941
L26046 34885
L26065 34810
L26065 34660
L26046 34622
L26028 34603
L25990 34585
L25915 34585
L25878 34603
L25859 34622
L25840 34660
L25840 34753
L25859 34791
L25878 34810
L25915 34828
L25990 34828
L26028 34810
L26046 34791
L26065 34753
" />
<path d="M34096 34485
L34228 34878
L34359 34485
" />
<path d="M34715 34878
L34584 34691
" />
<path d="M34490 34878
L34490 34485
L34640 34485
L34678 34503
L34696 34522
L34715 34560
L34715 34616
L34696 34653
L34678 34672
L34640 34691
L34490 34691
" />
<path d="M34865 34522
L34884 34503
L34921 34485
L35015 34485
L35053 34503
L35071 34522
L35090 34560
L35090 34597
L35071 34653
L34846 34878
L35090 34878
" />
<path d="M35334 34485
L35371 34485
L35409 34503
L35428 34522
L35446 34560
L35465 34635
L35465 34728
L35446 34803
L35428 34841
L35409 34860
L35371 34878
L35334 34878
L35296 34860
L35278 34841
L35259 34803
L35240 34728
L35240 34635
L35259 34560
L35278 34522
L35296 34503
L35334 34485
" />
<path d="M43496 34485
L43628 34878
L43759 34485
" />
<path d="M44115 34878
L43984 34691
" />
<path d="M43890 34878
L43890 34485
L44040 34485
L44078 34503
L44096 34522
L44115 34560
L44115 34616
L44096 34653
L44078 34672
L44040 34691
L43890 34691
" />
<path d="M44265 34522
L44284 34503
L44321 34485
L44415 34485
L44453 34503
L44471 34522
L44490 34560
L44490 34597
L44471 34653
L44246 34878
L44490 34878
" />
<path d="M44865 34878
L44640 34878
" />
<path d="M44753 34878
L44753 34485
L44715 34541
L44678 34578
L44640 34597
" />
<path d="M52796 34485
L52928 34878
L53059 34485
" />
<path d="M53415 34878
L53284 34691
" />
<path d="M53190 34878
L53190 34485
L53340 34485
L53378 34503
L53396 34522
L53415 34560
L53415 34616
L53396 34653
L53378 34672
L53340 34691
L53190 34691
" />
<path d="M53565 34522
L53584 34503
L53621 34485
L53715 34485
L53753 34503
L53771 34522
L53790 34560
L53790 34597
L53771 34653
L53546 34878
L53790 34878
" />
<path d="M53940 34522
L53959 34503
L53996 34485
L54090 34485
L54128 34503
L54146 34522
L54165 34560
L54165 34597
L54146 34653
L53921 34878
L54165 34878
" />
<path d="M62196 34485
L62328 34878
L62459 34485
" />
<path d="M62815 34878
L62684 34691
" />
<path d="M62590 34878
L62590 34485
L62740 34485
L62778 34503
L62796 34522
L62815 34560
L62815 34616
L62796 34653
L62778 34672
L62740 34691
L62590 34691
" />
<path d="M62965 34522
L62984 34503
L63021 34485
L63115 34485
L63153 34503
L63171 34522
L63190 34560
L63190 34597
L63171 34653
L62946 34878
L63190 34878
" />
<path d="M63321 34485
L63565 34485
L63434 34635
L63490 34635
L63528 34653
L63546 34672
L63565 34710
L63565 34803
L63546 34841
L63528 34860
L63490 34878
L63378 34878
L63340 34860
L63321 34841
" />
<path d="M71596 34585
L71728 34978
L71859 34585
" />
<path d="M72215 34978
L72084 34791
" />
<path d="M71990 34978
L71990 34585
L72140 34585
L72178 34603
L72196 34622
L72215 34660
L72215 34716
L72196 34753
L72178 34772
L72140 34791
L71990 34791
" />
<path d="M72365 34622
L72384 34603
L72421 34585
L72515 34585
L72553 34603
L72571 34622
L72590 34660
L72590 34697
L72571 34753
L72346 34978
L72590 34978
" />
<path d="M72928 34716
L72928 34978
" />
<path d="M72834 34566
L72740 34847
L72984 34847
" />
<path d="M5996 42374
L6128 42768
L6259 42374
" />
<path d="M6615 42768
L6484 42581
" />
<path d="M6390 42768
L6390 42374
L6540 42374
L6578 42393
L6596 42412
L6615 42449
L6615 42506
L6596 42543
L6578 42562
L6540 42581
L6390 42581
" />
<path d="M6765 42412
L6784 42393
L6821 42374
L6915 42374
L6953 42393
L6971 42412
L6990 42449
L6990 42487
L6971 42543
L6746 42768
L6990 42768
" />
<path d="M7346 42374
L7159 42374
L7140 42562
L7159 42543
L7196 42524
L7290 42524
L7328 42543
L7346 42562
L7365 42599
L7365 42693
L7346 42731
L7328 42749
L7290 42768
L7196 42768
L7159 42749
L7140 42731
" />
<path d="M15396 42374
L15528 42768
L15659 42374
" />
<path d="M16015 42768
L15884 42581
" />
<path d="M15790 42768
L15790 42374
L15940 42374
L15978 42393
L15996 42412
L16015 42449
L16015 42506
L15996 42543
L15978 42562
L15940 42581
L15790 42581
" />
<path d="M16165 42412
L16184 42393
L16221 42374
L16315 42374
L16353 42393
L16371 42412
L16390 42449
L16390 42487
L16371 42543
L16146 42768
L16390 42768
" />
<path d="M16728 42374
L16653 42374
L16615 42393
L16596 42412
L16559 42468
L16540 42543
L16540 42693
L16559 42731
L16578 42749
L16615 42768
L16690 42768
L16728 42749
L16746 42731
L16765 42693
L16765 42599
L16746 42562
L16728 42543
L16690 42524
L16615 42524
L16578 42543
L16559 42562
L16540 42599
" />
<path d="M24696 42374
L24828 42768
L24959 42374
" />
<path d="M25315 42768
L25184 42581
" />
<path d="M25090 42768
L25090 42374
L25240 42374
L25278 42393
L25296 42412
L25315 42449
L25315 42506
L25296 42543
L25278 42562
L25240 42581
L25090 42581
" />
<path d="M25465 42412
L25484 42393
L25521 42374
L25615 42374
L25653 42393
L25671 42412
L25690 42449
L25690 42487
L25671 42543
L25446 42768
L25690 42768
" />
<path d="M25821 42374
L26084 42374
L25915 42768
" />
<path d="M34096 42374
L34228 42768
L34359 42374
" />
<path d="M34715 42768
L34584 42581
" />
<path d="M34490 42768
L34490 42374
L34640 42374
L34678 42393
L34696 42412
L34715 42449
L34715 42506
L34696 42543
L34678 42562
L34640 42581
L34490 42581
" />
<path d="M34865 42412
L34884 42393
L34921 42374
L35015 42374
L35053 42393
L35071 42412
L35090 42449
L35090 42487
L35071 42543
L34846 42768
L35090 42768
" />
<path d="M35315 42543
L35278 42524
L35259 42506
L35240 42468
L35240 42449
L35259 42412
L35278 42393
L35315 42374
L35390 42374
L35428 42393
L35446 42412
L35465 42449
L35465 42468
L35446 42506
L35428 42524
L35390 42543
L35315 42543
L35278 42562
L35259 42581
L35240 42618
L35240 42693
L35259 42731
L35278 42749
L35315 42768
L35390 42768
L35428 42749
L35446 42731
L35465 42693
L35465 42618
L35446 42581
L35428 42562
L35390 42543
" />
<path d="M43396 42374
L43528 42768
L43659 42374
" />
<path d="M44015 42768
L43884 42581
" />
<path d="M43790 42768
L43790 42374
L43940 42374
L43978 42393
L43996 42412
L44015 42449
L44015 42506
L43996 42543
L43978 42562
L43940 42581
L43790 42581
" />
<path d="M44165 42412
L44184 42393
L44221 42374
L44315 42374
L44353 42393
L44371 42412
L44390 42449
L44390 42487
L44371 42543
L44146 42768
L44390 42768
" />
<path d="M44578 42768
L44653 42768
L44690 42749
L44709 42731
L44746 42674
L44765 42599
L44765 42449
L44746 42412
L44728 42393
L44690 42374
L44615 42374
L44578 42393
L44559 42412
L44540 42449
L44540 42543
L44559 42581
L44578 42599
L44615 42618
L44690 42618
L44728 42599
L44746 42581
L44765 42543
" />
<path d="M52796 42374
L52928 42768
L53059 42374
" />
<path d="M53415 42768
L53284 42581
" />
<path d="M53190 42768
L53190 42374
L53340 42374
L53378 42393
L53396 42412
L53415 42449
L53415 42506
L53396 42543
L53378 42562
L53340 42581
L53190 42581
" />
<path d="M53546 42374
L53790 42374
L53659 42524
L53715 42524
L53753 42543
L53771 42562
L53790 42599
L53790 42693
L53771 42731
L53753 42749
L53715 42768
L53603 42768
L53565 42749
L53546 42731
" />
<path d="M54034 42374
L54071 42374
L54109 42393
L54128 42412
L54146 42449
L54165 42524
L54165 42618
L54146 42693
L54128 42731
L54109 42749
L54071 42768
L54034 42768
L53996 42749
L53978 42731
L53959 42693
L53940 42618
L53940 42524
L53959 42449
L53978 42412
L53996 42393
L54034 42374
" />
<path d="M62196 42374
L62328 42768
L62459 42374
" />
<path d="M62815 42768
L62684 42581
" />
<path d="M62590 42768
L62590 42374
L62740 42374
L62778 42393
L62796 42412
L62815 42449
L62815 42506
L62796 42543
L62778 42562
L62740 42581
L62590 42581
" />
<path d="M62946 42374
L63190 42374
L63059 42524
L63115 42524
L63153 42543
L63171 42562
L63190 42599
L63190 42693
L63171 42731
L63153 42749
L63115 42768
L63003 42768
L62965 42749
L62946 42731
" />
<path d="M63565 42768
L63340 42768
" />
<path d="M63453 42768
L63453 42374
L63415 42431
L63378 42468
L63340 42487
" />
<path d="M71596 42374
L71728 42768
L71859 42374
" />
<path d="M72215 42768
L72084 42581
" />
<path d="M71990 42768
L71990 42374
L72140 42374
L72178 42393
L72196 42412
L72215 42449
L72215 42506
L72196 42543
L72178 42562
L72140 42581
L71990 42581
" />
<path d="M72346 42374
L72590 42374
L72459 42524
L72515 42524
L72553 42543
L72571 42562
L72590 42599
L72590 42693
L72571 42731
L72553 42749
L72515 42768
L72403 42768
L72365 42749
L72346 42731
" />
<path d="M72740 42412
L72759 42393
L72796 42374
L72890 42374
L72928 42393
L72946 42412
L72965 42449
L72965 42487
L72946 42543
L72721 42768
L72965 42768
" />
<g >
</g>
<path d="M100 47344.1 A1574.8 1574.8 0.0 0 0 1674.8 48918.9 " />
<path d="M77265.4 48918.9 A1574.8 1574.8 0.0 0 0 78840.2 47344.1 " />
<path d="M78840.2 1674.8 A1574.8 1574.8 0.0 0 0 77265.4 100 " />
<path d="M1674.8 100 A1574.8 1574.8 0.0 0 0 100 1674.8 " />
<path d="M100 47344
L100 1674
" />
<path d="M77265 48918
L1674 48918
" />
<path d="M78840 47344
L78840 1674
" />
<path d="M1674 100
L77265 100
" />
<g >
</g>
<g >
</g>
<g >
</g>
<g >
</g>
<g >
</g>
<g >
</g>
<g >
</g>
<g >
</g>
<g >
</g>
<g >
</g>
<g >
</g>
<g >
</g>
<g >
</g>
<g >
</g>
<g >
</g>
<g >
</g>
<g >
</g>
<g >
</g>
<g >
</g>
<g >
</g>
<g >
</g>
<g >
</g>
<g >
</g>
<g >
</g>
<g >
</g>
<g >
</g>
<g >
</g>
<g >
</g>
<g >
</g>
<g >
</g>
<g >
</g>
<g >
</g>
<g >
</g>
<g >
</g>
<g >
</g>
<g >
</g>
<g >
</g>
<g >
</g>
<g >
</g>
<g >
</g>
<g >
</g>
<g >
</g>
<g >
</g>
<g >
</g>
</g> 
</svg>
