G04 #@! TF.GenerationSoftware,KiCad,Pcbnew,(5.1.2-1)-1*
G04 #@! TF.CreationDate,2020-09-14T17:56:04+03:00*
G04 #@! TF.ProjectId,N32B_Top_panel_v1.2,4e333242-5f54-46f7-905f-70616e656c5f,rev?*
G04 #@! TF.SameCoordinates,Original*
G04 #@! TF.FileFunction,Soldermask,Bot*
G04 #@! TF.FilePolarity,Negative*
%FSLAX46Y46*%
G04 Gerber Fmt 4.6, Leading zero omitted, Abs format (unit mm)*
G04 Created by KiCad (PCBNEW (5.1.2-1)-1) date 2020-09-14 17:56:04*
%MOMM*%
%LPD*%
G04 APERTURE LIST*
%ADD10C,0.100000*%
G04 APERTURE END LIST*
D10*
G36*
X149821606Y-151260562D02*
G01*
X150340455Y-151475476D01*
X150807407Y-151787484D01*
X151204516Y-152184593D01*
X151516524Y-152651545D01*
X151731438Y-153170394D01*
X151841000Y-153721201D01*
X151841000Y-154282799D01*
X151731438Y-154833606D01*
X151516524Y-155352455D01*
X151204516Y-155819407D01*
X150807407Y-156216516D01*
X150340455Y-156528524D01*
X149821606Y-156743438D01*
X149546202Y-156798219D01*
X149270800Y-156853000D01*
X148709200Y-156853000D01*
X148433798Y-156798219D01*
X148158394Y-156743438D01*
X147639545Y-156528524D01*
X147172593Y-156216516D01*
X146775484Y-155819407D01*
X146463476Y-155352455D01*
X146248562Y-154833606D01*
X146139000Y-154282799D01*
X146139000Y-153721201D01*
X146248562Y-153170394D01*
X146463476Y-152651545D01*
X146775484Y-152184593D01*
X147172593Y-151787484D01*
X147639545Y-151475476D01*
X148158394Y-151260562D01*
X148709200Y-151151000D01*
X149270800Y-151151000D01*
X149821606Y-151260562D01*
X149821606Y-151260562D01*
G37*
G36*
X53821606Y-151260562D02*
G01*
X54340455Y-151475476D01*
X54807407Y-151787484D01*
X55204516Y-152184593D01*
X55516524Y-152651545D01*
X55731438Y-153170394D01*
X55841000Y-153721201D01*
X55841000Y-154282799D01*
X55731438Y-154833606D01*
X55516524Y-155352455D01*
X55204516Y-155819407D01*
X54807407Y-156216516D01*
X54340455Y-156528524D01*
X53821606Y-156743438D01*
X53546202Y-156798219D01*
X53270800Y-156853000D01*
X52709200Y-156853000D01*
X52433798Y-156798219D01*
X52158394Y-156743438D01*
X51639545Y-156528524D01*
X51172593Y-156216516D01*
X50775484Y-155819407D01*
X50463476Y-155352455D01*
X50248562Y-154833606D01*
X50139000Y-154282799D01*
X50139000Y-153721201D01*
X50248562Y-153170394D01*
X50463476Y-152651545D01*
X50775484Y-152184593D01*
X51172593Y-151787484D01*
X51639545Y-151475476D01*
X52158394Y-151260562D01*
X52709200Y-151151000D01*
X53270800Y-151151000D01*
X53821606Y-151260562D01*
X53821606Y-151260562D01*
G37*
G36*
X245734098Y-151549033D02*
G01*
X246198350Y-151741332D01*
X246198352Y-151741333D01*
X246616168Y-152020509D01*
X246971491Y-152375832D01*
X247155718Y-152651547D01*
X247250668Y-152793650D01*
X247442967Y-153257902D01*
X247541000Y-153750747D01*
X247541000Y-154253253D01*
X247442967Y-154746098D01*
X247406720Y-154833606D01*
X247250667Y-155210352D01*
X246971491Y-155628168D01*
X246616168Y-155983491D01*
X246198352Y-156262667D01*
X246198351Y-156262668D01*
X246198350Y-156262668D01*
X245734098Y-156454967D01*
X245241253Y-156553000D01*
X244738747Y-156553000D01*
X244245902Y-156454967D01*
X243781650Y-156262668D01*
X243781649Y-156262668D01*
X243781648Y-156262667D01*
X243363832Y-155983491D01*
X243008509Y-155628168D01*
X242729333Y-155210352D01*
X242573280Y-154833606D01*
X242537033Y-154746098D01*
X242439000Y-154253253D01*
X242439000Y-153750747D01*
X242537033Y-153257902D01*
X242729332Y-152793650D01*
X242824282Y-152651547D01*
X243008509Y-152375832D01*
X243363832Y-152020509D01*
X243781648Y-151741333D01*
X243781650Y-151741332D01*
X244245902Y-151549033D01*
X244738747Y-151451000D01*
X245241253Y-151451000D01*
X245734098Y-151549033D01*
X245734098Y-151549033D01*
G37*
G36*
X245821606Y-29260562D02*
G01*
X246340455Y-29475476D01*
X246807407Y-29787484D01*
X247204516Y-30184593D01*
X247516524Y-30651545D01*
X247731438Y-31170394D01*
X247841000Y-31721201D01*
X247841000Y-32282799D01*
X247731438Y-32833606D01*
X247516524Y-33352455D01*
X247204516Y-33819407D01*
X246807407Y-34216516D01*
X246340455Y-34528524D01*
X245821606Y-34743438D01*
X245270800Y-34853000D01*
X244709200Y-34853000D01*
X244158394Y-34743438D01*
X243639545Y-34528524D01*
X243172593Y-34216516D01*
X242775484Y-33819407D01*
X242463476Y-33352455D01*
X242248562Y-32833606D01*
X242139000Y-32282799D01*
X242139000Y-31721201D01*
X242248562Y-31170394D01*
X242463476Y-30651545D01*
X242775484Y-30184593D01*
X243172593Y-29787484D01*
X243639545Y-29475476D01*
X244158394Y-29260562D01*
X244433798Y-29205781D01*
X244709200Y-29151000D01*
X245270800Y-29151000D01*
X245821606Y-29260562D01*
X245821606Y-29260562D01*
G37*
G36*
X149734098Y-29549033D02*
G01*
X150198350Y-29741332D01*
X150198352Y-29741333D01*
X150616168Y-30020509D01*
X150971491Y-30375832D01*
X151155718Y-30651547D01*
X151250668Y-30793650D01*
X151442967Y-31257902D01*
X151541000Y-31750747D01*
X151541000Y-32253253D01*
X151442967Y-32746098D01*
X151406720Y-32833606D01*
X151250667Y-33210352D01*
X150971491Y-33628168D01*
X150616168Y-33983491D01*
X150198352Y-34262667D01*
X150198351Y-34262668D01*
X150198350Y-34262668D01*
X149734098Y-34454967D01*
X149241253Y-34553000D01*
X148738747Y-34553000D01*
X148245902Y-34454967D01*
X147781650Y-34262668D01*
X147781649Y-34262668D01*
X147781648Y-34262667D01*
X147363832Y-33983491D01*
X147008509Y-33628168D01*
X146729333Y-33210352D01*
X146573280Y-32833606D01*
X146537033Y-32746098D01*
X146439000Y-32253253D01*
X146439000Y-31750747D01*
X146537033Y-31257902D01*
X146729332Y-30793650D01*
X146824282Y-30651547D01*
X147008509Y-30375832D01*
X147363832Y-30020509D01*
X147781648Y-29741333D01*
X147781650Y-29741332D01*
X148245902Y-29549033D01*
X148738747Y-29451000D01*
X149241253Y-29451000D01*
X149734098Y-29549033D01*
X149734098Y-29549033D01*
G37*
G36*
X53734098Y-29549033D02*
G01*
X54198350Y-29741332D01*
X54198352Y-29741333D01*
X54616168Y-30020509D01*
X54971491Y-30375832D01*
X55155718Y-30651547D01*
X55250668Y-30793650D01*
X55442967Y-31257902D01*
X55541000Y-31750747D01*
X55541000Y-32253253D01*
X55442967Y-32746098D01*
X55406720Y-32833606D01*
X55250667Y-33210352D01*
X54971491Y-33628168D01*
X54616168Y-33983491D01*
X54198352Y-34262667D01*
X54198351Y-34262668D01*
X54198350Y-34262668D01*
X53734098Y-34454967D01*
X53241253Y-34553000D01*
X52738747Y-34553000D01*
X52245902Y-34454967D01*
X51781650Y-34262668D01*
X51781649Y-34262668D01*
X51781648Y-34262667D01*
X51363832Y-33983491D01*
X51008509Y-33628168D01*
X50729333Y-33210352D01*
X50573280Y-32833606D01*
X50537033Y-32746098D01*
X50439000Y-32253253D01*
X50439000Y-31750747D01*
X50537033Y-31257902D01*
X50729332Y-30793650D01*
X50824282Y-30651547D01*
X51008509Y-30375832D01*
X51363832Y-30020509D01*
X51781648Y-29741333D01*
X51781650Y-29741332D01*
X52245902Y-29549033D01*
X52738747Y-29451000D01*
X53241253Y-29451000D01*
X53734098Y-29549033D01*
X53734098Y-29549033D01*
G37*
M02*
