G04 #@! TF.GenerationSoftware,KiCad,Pcbnew,(5.1.2-1)-1*
G04 #@! TF.CreationDate,2020-09-14T17:56:04+03:00*
G04 #@! TF.ProjectId,N32B_Top_panel_v1.2,4e333242-5f54-46f7-905f-70616e656c5f,rev?*
G04 #@! TF.SameCoordinates,Original*
G04 #@! TF.FileFunction,Copper,L2,Bot*
G04 #@! TF.FilePolarity,Positive*
%FSLAX46Y46*%
G04 Gerber Fmt 4.6, Leading zero omitted, Abs format (unit mm)*
G04 Created by KiCad (PCBNEW (5.1.2-1)-1) date 2020-09-14 17:56:04*
%MOMM*%
%LPD*%
G04 APERTURE LIST*
%ADD10C,5.600000*%
%ADD11C,5.000000*%
%ADD12C,0.254000*%
G04 APERTURE END LIST*
D10*
X52990000Y-154002000D03*
X148990000Y-154002000D03*
D11*
X52990000Y-32002000D03*
X148990000Y-32002000D03*
X244990000Y-154002000D03*
D10*
X244990000Y-32002000D03*
D12*
G36*
X247506217Y-29468158D02*
G01*
X247950454Y-30005149D01*
X248281930Y-30618203D01*
X248488016Y-31283960D01*
X248562981Y-31997200D01*
X248563000Y-32002620D01*
X248563001Y-153981207D01*
X248492944Y-154695704D01*
X248291510Y-155362884D01*
X247964322Y-155978234D01*
X247523845Y-156518314D01*
X246986853Y-156962552D01*
X246373799Y-157294029D01*
X245708031Y-157500119D01*
X244995895Y-157575000D01*
X53010883Y-157575000D01*
X52296396Y-157504944D01*
X51629216Y-157303510D01*
X51013866Y-156976322D01*
X50473786Y-156535845D01*
X50029548Y-155998853D01*
X49698071Y-155385799D01*
X49491984Y-154720040D01*
X49417019Y-154006801D01*
X49417000Y-154001381D01*
X49417000Y-143057109D01*
X60043385Y-143057109D01*
X60129251Y-143822627D01*
X60362173Y-144556889D01*
X60733277Y-145231925D01*
X61228429Y-145822024D01*
X61828768Y-146304709D01*
X62511428Y-146661595D01*
X63250406Y-146879088D01*
X64017555Y-146948904D01*
X64783655Y-146868384D01*
X65519524Y-146640594D01*
X66197134Y-146274211D01*
X66790676Y-145783191D01*
X67277540Y-145186236D01*
X67639183Y-144506085D01*
X67861830Y-143768643D01*
X67931596Y-143057109D01*
X84329386Y-143057109D01*
X84415252Y-143822627D01*
X84648174Y-144556888D01*
X85019278Y-145231924D01*
X85514429Y-145822023D01*
X86114769Y-146304708D01*
X86797428Y-146661594D01*
X87536406Y-146879087D01*
X88303555Y-146948903D01*
X89069654Y-146868383D01*
X89805524Y-146640593D01*
X90483134Y-146274210D01*
X91076675Y-145783191D01*
X91563539Y-145186236D01*
X91925182Y-144506084D01*
X92147829Y-143768643D01*
X92217595Y-143057109D01*
X108615385Y-143057109D01*
X108701251Y-143822627D01*
X108934173Y-144556889D01*
X109305277Y-145231925D01*
X109800429Y-145822024D01*
X110400768Y-146304709D01*
X111083428Y-146661595D01*
X111822406Y-146879088D01*
X112589555Y-146948904D01*
X113355655Y-146868384D01*
X114091524Y-146640594D01*
X114769134Y-146274211D01*
X115362676Y-145783191D01*
X115849540Y-145186236D01*
X116211183Y-144506085D01*
X116433830Y-143768643D01*
X116503596Y-143057109D01*
X132901385Y-143057109D01*
X132987251Y-143822627D01*
X133220173Y-144556889D01*
X133591277Y-145231925D01*
X134086429Y-145822024D01*
X134686768Y-146304709D01*
X135369428Y-146661595D01*
X136108406Y-146879088D01*
X136875555Y-146948904D01*
X137641655Y-146868384D01*
X138377524Y-146640594D01*
X139055134Y-146274211D01*
X139648676Y-145783191D01*
X140135540Y-145186236D01*
X140497183Y-144506085D01*
X140719830Y-143768643D01*
X140789596Y-143057109D01*
X157187385Y-143057109D01*
X157273251Y-143822627D01*
X157506173Y-144556889D01*
X157877277Y-145231925D01*
X158372429Y-145822024D01*
X158972768Y-146304709D01*
X159655428Y-146661595D01*
X160394406Y-146879088D01*
X161161555Y-146948904D01*
X161927655Y-146868384D01*
X162663524Y-146640594D01*
X163341134Y-146274211D01*
X163934676Y-145783191D01*
X164421540Y-145186236D01*
X164783183Y-144506085D01*
X165005830Y-143768643D01*
X165075596Y-143057109D01*
X181473385Y-143057109D01*
X181559251Y-143822627D01*
X181792173Y-144556889D01*
X182163277Y-145231925D01*
X182658429Y-145822024D01*
X183258768Y-146304709D01*
X183941428Y-146661595D01*
X184680406Y-146879088D01*
X185447555Y-146948904D01*
X186213655Y-146868384D01*
X186949524Y-146640594D01*
X187627134Y-146274211D01*
X188220676Y-145783191D01*
X188707540Y-145186236D01*
X189069183Y-144506085D01*
X189291830Y-143768643D01*
X189361596Y-143057109D01*
X205759385Y-143057109D01*
X205845251Y-143822627D01*
X206078173Y-144556889D01*
X206449277Y-145231925D01*
X206944429Y-145822024D01*
X207544768Y-146304709D01*
X208227428Y-146661595D01*
X208966406Y-146879088D01*
X209733555Y-146948904D01*
X210499655Y-146868384D01*
X211235524Y-146640594D01*
X211913134Y-146274211D01*
X212506676Y-145783191D01*
X212993540Y-145186236D01*
X213355183Y-144506085D01*
X213577830Y-143768643D01*
X213647596Y-143057109D01*
X230045385Y-143057109D01*
X230131251Y-143822627D01*
X230364173Y-144556889D01*
X230735277Y-145231925D01*
X231230429Y-145822024D01*
X231830768Y-146304709D01*
X232513428Y-146661595D01*
X233252406Y-146879088D01*
X234019555Y-146948904D01*
X234785655Y-146868384D01*
X235521524Y-146640594D01*
X236199134Y-146274211D01*
X236792676Y-145783191D01*
X237279540Y-145186236D01*
X237641183Y-144506085D01*
X237863830Y-143768643D01*
X237939000Y-143002000D01*
X237937461Y-142891793D01*
X237840915Y-142127548D01*
X237597764Y-141396610D01*
X237217271Y-140726822D01*
X236713928Y-140143694D01*
X236106908Y-139669438D01*
X235419332Y-139322118D01*
X234677389Y-139114964D01*
X233909340Y-139055866D01*
X233144440Y-139147075D01*
X232411822Y-139385116D01*
X231739394Y-139760924D01*
X231152766Y-140260183D01*
X230674284Y-140863878D01*
X230322172Y-141549012D01*
X230109843Y-142289491D01*
X230045385Y-143057109D01*
X213647596Y-143057109D01*
X213653000Y-143002000D01*
X213651461Y-142891793D01*
X213554915Y-142127548D01*
X213311764Y-141396610D01*
X212931271Y-140726822D01*
X212427928Y-140143694D01*
X211820908Y-139669438D01*
X211133332Y-139322118D01*
X210391389Y-139114964D01*
X209623340Y-139055866D01*
X208858440Y-139147075D01*
X208125822Y-139385116D01*
X207453394Y-139760924D01*
X206866766Y-140260183D01*
X206388284Y-140863878D01*
X206036172Y-141549012D01*
X205823843Y-142289491D01*
X205759385Y-143057109D01*
X189361596Y-143057109D01*
X189367000Y-143002000D01*
X189365461Y-142891793D01*
X189268915Y-142127548D01*
X189025764Y-141396610D01*
X188645271Y-140726822D01*
X188141928Y-140143694D01*
X187534908Y-139669438D01*
X186847332Y-139322118D01*
X186105389Y-139114964D01*
X185337340Y-139055866D01*
X184572440Y-139147075D01*
X183839822Y-139385116D01*
X183167394Y-139760924D01*
X182580766Y-140260183D01*
X182102284Y-140863878D01*
X181750172Y-141549012D01*
X181537843Y-142289491D01*
X181473385Y-143057109D01*
X165075596Y-143057109D01*
X165081000Y-143002000D01*
X165079461Y-142891793D01*
X164982915Y-142127548D01*
X164739764Y-141396610D01*
X164359271Y-140726822D01*
X163855928Y-140143694D01*
X163248908Y-139669438D01*
X162561332Y-139322118D01*
X161819389Y-139114964D01*
X161051340Y-139055866D01*
X160286440Y-139147075D01*
X159553822Y-139385116D01*
X158881394Y-139760924D01*
X158294766Y-140260183D01*
X157816284Y-140863878D01*
X157464172Y-141549012D01*
X157251843Y-142289491D01*
X157187385Y-143057109D01*
X140789596Y-143057109D01*
X140795000Y-143002000D01*
X140793461Y-142891793D01*
X140696915Y-142127548D01*
X140453764Y-141396610D01*
X140073271Y-140726822D01*
X139569928Y-140143694D01*
X138962908Y-139669438D01*
X138275332Y-139322118D01*
X137533389Y-139114964D01*
X136765340Y-139055866D01*
X136000440Y-139147075D01*
X135267822Y-139385116D01*
X134595394Y-139760924D01*
X134008766Y-140260183D01*
X133530284Y-140863878D01*
X133178172Y-141549012D01*
X132965843Y-142289491D01*
X132901385Y-143057109D01*
X116503596Y-143057109D01*
X116509000Y-143002000D01*
X116507461Y-142891793D01*
X116410915Y-142127548D01*
X116167764Y-141396610D01*
X115787271Y-140726822D01*
X115283928Y-140143694D01*
X114676908Y-139669438D01*
X113989332Y-139322118D01*
X113247389Y-139114964D01*
X112479340Y-139055866D01*
X111714440Y-139147075D01*
X110981822Y-139385116D01*
X110309394Y-139760924D01*
X109722766Y-140260183D01*
X109244284Y-140863878D01*
X108892172Y-141549012D01*
X108679843Y-142289491D01*
X108615385Y-143057109D01*
X92217595Y-143057109D01*
X92222999Y-143002000D01*
X92221460Y-142891793D01*
X92124914Y-142127548D01*
X91881763Y-141396611D01*
X91501270Y-140726822D01*
X90997928Y-140143694D01*
X90390908Y-139669439D01*
X89703332Y-139322119D01*
X88961389Y-139114965D01*
X88193340Y-139055867D01*
X87428440Y-139147075D01*
X86695823Y-139385117D01*
X86023394Y-139760925D01*
X85436767Y-140260184D01*
X84958284Y-140863878D01*
X84606173Y-141549013D01*
X84393844Y-142289491D01*
X84329386Y-143057109D01*
X67931596Y-143057109D01*
X67937000Y-143002000D01*
X67935461Y-142891793D01*
X67838915Y-142127548D01*
X67595764Y-141396610D01*
X67215271Y-140726822D01*
X66711928Y-140143694D01*
X66104908Y-139669438D01*
X65417332Y-139322118D01*
X64675389Y-139114964D01*
X63907340Y-139055866D01*
X63142440Y-139147075D01*
X62409822Y-139385116D01*
X61737394Y-139760924D01*
X61150766Y-140260183D01*
X60672284Y-140863878D01*
X60320172Y-141549012D01*
X60107843Y-142289491D01*
X60043385Y-143057109D01*
X49417000Y-143057109D01*
X49417000Y-119057109D01*
X60043385Y-119057109D01*
X60129251Y-119822627D01*
X60362173Y-120556889D01*
X60733277Y-121231925D01*
X61228429Y-121822024D01*
X61828768Y-122304709D01*
X62511428Y-122661595D01*
X63250406Y-122879088D01*
X64017555Y-122948904D01*
X64783655Y-122868384D01*
X65519524Y-122640594D01*
X66197134Y-122274211D01*
X66790676Y-121783191D01*
X67277540Y-121186236D01*
X67639183Y-120506085D01*
X67861830Y-119768643D01*
X67931596Y-119057109D01*
X84329386Y-119057109D01*
X84415252Y-119822627D01*
X84648174Y-120556888D01*
X85019278Y-121231924D01*
X85514429Y-121822023D01*
X86114769Y-122304708D01*
X86797428Y-122661594D01*
X87536406Y-122879087D01*
X88303555Y-122948903D01*
X89069654Y-122868383D01*
X89805524Y-122640593D01*
X90483134Y-122274210D01*
X91076675Y-121783191D01*
X91563539Y-121186236D01*
X91925182Y-120506084D01*
X92147829Y-119768643D01*
X92217595Y-119057109D01*
X108615385Y-119057109D01*
X108701251Y-119822627D01*
X108934173Y-120556889D01*
X109305277Y-121231925D01*
X109800429Y-121822024D01*
X110400768Y-122304709D01*
X111083428Y-122661595D01*
X111822406Y-122879088D01*
X112589555Y-122948904D01*
X113355655Y-122868384D01*
X114091524Y-122640594D01*
X114769134Y-122274211D01*
X115362676Y-121783191D01*
X115849540Y-121186236D01*
X116211183Y-120506085D01*
X116433830Y-119768643D01*
X116503596Y-119057109D01*
X132901385Y-119057109D01*
X132987251Y-119822627D01*
X133220173Y-120556889D01*
X133591277Y-121231925D01*
X134086429Y-121822024D01*
X134686768Y-122304709D01*
X135369428Y-122661595D01*
X136108406Y-122879088D01*
X136875555Y-122948904D01*
X137641655Y-122868384D01*
X138377524Y-122640594D01*
X139055134Y-122274211D01*
X139648676Y-121783191D01*
X140135540Y-121186236D01*
X140497183Y-120506085D01*
X140719830Y-119768643D01*
X140789596Y-119057109D01*
X157187385Y-119057109D01*
X157273251Y-119822627D01*
X157506173Y-120556889D01*
X157877277Y-121231925D01*
X158372429Y-121822024D01*
X158972768Y-122304709D01*
X159655428Y-122661595D01*
X160394406Y-122879088D01*
X161161555Y-122948904D01*
X161927655Y-122868384D01*
X162663524Y-122640594D01*
X163341134Y-122274211D01*
X163934676Y-121783191D01*
X164421540Y-121186236D01*
X164783183Y-120506085D01*
X165005830Y-119768643D01*
X165075596Y-119057109D01*
X181473385Y-119057109D01*
X181559251Y-119822627D01*
X181792173Y-120556889D01*
X182163277Y-121231925D01*
X182658429Y-121822024D01*
X183258768Y-122304709D01*
X183941428Y-122661595D01*
X184680406Y-122879088D01*
X185447555Y-122948904D01*
X186213655Y-122868384D01*
X186949524Y-122640594D01*
X187627134Y-122274211D01*
X188220676Y-121783191D01*
X188707540Y-121186236D01*
X189069183Y-120506085D01*
X189291830Y-119768643D01*
X189361596Y-119057109D01*
X205759385Y-119057109D01*
X205845251Y-119822627D01*
X206078173Y-120556889D01*
X206449277Y-121231925D01*
X206944429Y-121822024D01*
X207544768Y-122304709D01*
X208227428Y-122661595D01*
X208966406Y-122879088D01*
X209733555Y-122948904D01*
X210499655Y-122868384D01*
X211235524Y-122640594D01*
X211913134Y-122274211D01*
X212506676Y-121783191D01*
X212993540Y-121186236D01*
X213355183Y-120506085D01*
X213577830Y-119768643D01*
X213647596Y-119057109D01*
X230045385Y-119057109D01*
X230131251Y-119822627D01*
X230364173Y-120556889D01*
X230735277Y-121231925D01*
X231230429Y-121822024D01*
X231830768Y-122304709D01*
X232513428Y-122661595D01*
X233252406Y-122879088D01*
X234019555Y-122948904D01*
X234785655Y-122868384D01*
X235521524Y-122640594D01*
X236199134Y-122274211D01*
X236792676Y-121783191D01*
X237279540Y-121186236D01*
X237641183Y-120506085D01*
X237863830Y-119768643D01*
X237939000Y-119002000D01*
X237937461Y-118891793D01*
X237840915Y-118127548D01*
X237597764Y-117396610D01*
X237217271Y-116726822D01*
X236713928Y-116143694D01*
X236106908Y-115669438D01*
X235419332Y-115322118D01*
X234677389Y-115114964D01*
X233909340Y-115055866D01*
X233144440Y-115147075D01*
X232411822Y-115385116D01*
X231739394Y-115760924D01*
X231152766Y-116260183D01*
X230674284Y-116863878D01*
X230322172Y-117549012D01*
X230109843Y-118289491D01*
X230045385Y-119057109D01*
X213647596Y-119057109D01*
X213653000Y-119002000D01*
X213651461Y-118891793D01*
X213554915Y-118127548D01*
X213311764Y-117396610D01*
X212931271Y-116726822D01*
X212427928Y-116143694D01*
X211820908Y-115669438D01*
X211133332Y-115322118D01*
X210391389Y-115114964D01*
X209623340Y-115055866D01*
X208858440Y-115147075D01*
X208125822Y-115385116D01*
X207453394Y-115760924D01*
X206866766Y-116260183D01*
X206388284Y-116863878D01*
X206036172Y-117549012D01*
X205823843Y-118289491D01*
X205759385Y-119057109D01*
X189361596Y-119057109D01*
X189367000Y-119002000D01*
X189365461Y-118891793D01*
X189268915Y-118127548D01*
X189025764Y-117396610D01*
X188645271Y-116726822D01*
X188141928Y-116143694D01*
X187534908Y-115669438D01*
X186847332Y-115322118D01*
X186105389Y-115114964D01*
X185337340Y-115055866D01*
X184572440Y-115147075D01*
X183839822Y-115385116D01*
X183167394Y-115760924D01*
X182580766Y-116260183D01*
X182102284Y-116863878D01*
X181750172Y-117549012D01*
X181537843Y-118289491D01*
X181473385Y-119057109D01*
X165075596Y-119057109D01*
X165081000Y-119002000D01*
X165079461Y-118891793D01*
X164982915Y-118127548D01*
X164739764Y-117396610D01*
X164359271Y-116726822D01*
X163855928Y-116143694D01*
X163248908Y-115669438D01*
X162561332Y-115322118D01*
X161819389Y-115114964D01*
X161051340Y-115055866D01*
X160286440Y-115147075D01*
X159553822Y-115385116D01*
X158881394Y-115760924D01*
X158294766Y-116260183D01*
X157816284Y-116863878D01*
X157464172Y-117549012D01*
X157251843Y-118289491D01*
X157187385Y-119057109D01*
X140789596Y-119057109D01*
X140795000Y-119002000D01*
X140793461Y-118891793D01*
X140696915Y-118127548D01*
X140453764Y-117396610D01*
X140073271Y-116726822D01*
X139569928Y-116143694D01*
X138962908Y-115669438D01*
X138275332Y-115322118D01*
X137533389Y-115114964D01*
X136765340Y-115055866D01*
X136000440Y-115147075D01*
X135267822Y-115385116D01*
X134595394Y-115760924D01*
X134008766Y-116260183D01*
X133530284Y-116863878D01*
X133178172Y-117549012D01*
X132965843Y-118289491D01*
X132901385Y-119057109D01*
X116503596Y-119057109D01*
X116509000Y-119002000D01*
X116507461Y-118891793D01*
X116410915Y-118127548D01*
X116167764Y-117396610D01*
X115787271Y-116726822D01*
X115283928Y-116143694D01*
X114676908Y-115669438D01*
X113989332Y-115322118D01*
X113247389Y-115114964D01*
X112479340Y-115055866D01*
X111714440Y-115147075D01*
X110981822Y-115385116D01*
X110309394Y-115760924D01*
X109722766Y-116260183D01*
X109244284Y-116863878D01*
X108892172Y-117549012D01*
X108679843Y-118289491D01*
X108615385Y-119057109D01*
X92217595Y-119057109D01*
X92222999Y-119002000D01*
X92221460Y-118891793D01*
X92124914Y-118127548D01*
X91881763Y-117396611D01*
X91501270Y-116726822D01*
X90997928Y-116143694D01*
X90390908Y-115669439D01*
X89703332Y-115322119D01*
X88961389Y-115114965D01*
X88193340Y-115055867D01*
X87428440Y-115147075D01*
X86695823Y-115385117D01*
X86023394Y-115760925D01*
X85436767Y-116260184D01*
X84958284Y-116863878D01*
X84606173Y-117549013D01*
X84393844Y-118289491D01*
X84329386Y-119057109D01*
X67931596Y-119057109D01*
X67937000Y-119002000D01*
X67935461Y-118891793D01*
X67838915Y-118127548D01*
X67595764Y-117396610D01*
X67215271Y-116726822D01*
X66711928Y-116143694D01*
X66104908Y-115669438D01*
X65417332Y-115322118D01*
X64675389Y-115114964D01*
X63907340Y-115055866D01*
X63142440Y-115147075D01*
X62409822Y-115385116D01*
X61737394Y-115760924D01*
X61150766Y-116260183D01*
X60672284Y-116863878D01*
X60320172Y-117549012D01*
X60107843Y-118289491D01*
X60043385Y-119057109D01*
X49417000Y-119057109D01*
X49417000Y-95057109D01*
X60043385Y-95057109D01*
X60129251Y-95822627D01*
X60362173Y-96556889D01*
X60733277Y-97231925D01*
X61228429Y-97822024D01*
X61828768Y-98304709D01*
X62511428Y-98661595D01*
X63250406Y-98879088D01*
X64017555Y-98948904D01*
X64783655Y-98868384D01*
X65519524Y-98640594D01*
X66197134Y-98274211D01*
X66790676Y-97783191D01*
X67277540Y-97186236D01*
X67639183Y-96506085D01*
X67861830Y-95768643D01*
X67931596Y-95057109D01*
X84329386Y-95057109D01*
X84415252Y-95822627D01*
X84648174Y-96556888D01*
X85019278Y-97231924D01*
X85514429Y-97822023D01*
X86114769Y-98304708D01*
X86797428Y-98661594D01*
X87536406Y-98879087D01*
X88303555Y-98948903D01*
X89069654Y-98868383D01*
X89805524Y-98640593D01*
X90483134Y-98274210D01*
X91076675Y-97783191D01*
X91563539Y-97186236D01*
X91925182Y-96506084D01*
X92147829Y-95768643D01*
X92217595Y-95057109D01*
X108615385Y-95057109D01*
X108701251Y-95822627D01*
X108934173Y-96556889D01*
X109305277Y-97231925D01*
X109800429Y-97822024D01*
X110400768Y-98304709D01*
X111083428Y-98661595D01*
X111822406Y-98879088D01*
X112589555Y-98948904D01*
X113355655Y-98868384D01*
X114091524Y-98640594D01*
X114769134Y-98274211D01*
X115362676Y-97783191D01*
X115849540Y-97186236D01*
X116211183Y-96506085D01*
X116433830Y-95768643D01*
X116503596Y-95057109D01*
X132901385Y-95057109D01*
X132987251Y-95822627D01*
X133220173Y-96556889D01*
X133591277Y-97231925D01*
X134086429Y-97822024D01*
X134686768Y-98304709D01*
X135369428Y-98661595D01*
X136108406Y-98879088D01*
X136875555Y-98948904D01*
X137641655Y-98868384D01*
X138377524Y-98640594D01*
X139055134Y-98274211D01*
X139648676Y-97783191D01*
X140135540Y-97186236D01*
X140497183Y-96506085D01*
X140719830Y-95768643D01*
X140789596Y-95057109D01*
X157187385Y-95057109D01*
X157273251Y-95822627D01*
X157506173Y-96556889D01*
X157877277Y-97231925D01*
X158372429Y-97822024D01*
X158972768Y-98304709D01*
X159655428Y-98661595D01*
X160394406Y-98879088D01*
X161161555Y-98948904D01*
X161927655Y-98868384D01*
X162663524Y-98640594D01*
X163341134Y-98274211D01*
X163934676Y-97783191D01*
X164421540Y-97186236D01*
X164783183Y-96506085D01*
X165005830Y-95768643D01*
X165075596Y-95057109D01*
X181473385Y-95057109D01*
X181559251Y-95822627D01*
X181792173Y-96556889D01*
X182163277Y-97231925D01*
X182658429Y-97822024D01*
X183258768Y-98304709D01*
X183941428Y-98661595D01*
X184680406Y-98879088D01*
X185447555Y-98948904D01*
X186213655Y-98868384D01*
X186949524Y-98640594D01*
X187627134Y-98274211D01*
X188220676Y-97783191D01*
X188707540Y-97186236D01*
X189069183Y-96506085D01*
X189291830Y-95768643D01*
X189361596Y-95057109D01*
X205759385Y-95057109D01*
X205845251Y-95822627D01*
X206078173Y-96556889D01*
X206449277Y-97231925D01*
X206944429Y-97822024D01*
X207544768Y-98304709D01*
X208227428Y-98661595D01*
X208966406Y-98879088D01*
X209733555Y-98948904D01*
X210499655Y-98868384D01*
X211235524Y-98640594D01*
X211913134Y-98274211D01*
X212506676Y-97783191D01*
X212993540Y-97186236D01*
X213355183Y-96506085D01*
X213577830Y-95768643D01*
X213647596Y-95057109D01*
X230045385Y-95057109D01*
X230131251Y-95822627D01*
X230364173Y-96556889D01*
X230735277Y-97231925D01*
X231230429Y-97822024D01*
X231830768Y-98304709D01*
X232513428Y-98661595D01*
X233252406Y-98879088D01*
X234019555Y-98948904D01*
X234785655Y-98868384D01*
X235521524Y-98640594D01*
X236199134Y-98274211D01*
X236792676Y-97783191D01*
X237279540Y-97186236D01*
X237641183Y-96506085D01*
X237863830Y-95768643D01*
X237939000Y-95002000D01*
X237937461Y-94891793D01*
X237840915Y-94127548D01*
X237597764Y-93396610D01*
X237217271Y-92726822D01*
X236713928Y-92143694D01*
X236106908Y-91669438D01*
X235419332Y-91322118D01*
X234677389Y-91114964D01*
X233909340Y-91055866D01*
X233144440Y-91147075D01*
X232411822Y-91385116D01*
X231739394Y-91760924D01*
X231152766Y-92260183D01*
X230674284Y-92863878D01*
X230322172Y-93549012D01*
X230109843Y-94289491D01*
X230045385Y-95057109D01*
X213647596Y-95057109D01*
X213653000Y-95002000D01*
X213651461Y-94891793D01*
X213554915Y-94127548D01*
X213311764Y-93396610D01*
X212931271Y-92726822D01*
X212427928Y-92143694D01*
X211820908Y-91669438D01*
X211133332Y-91322118D01*
X210391389Y-91114964D01*
X209623340Y-91055866D01*
X208858440Y-91147075D01*
X208125822Y-91385116D01*
X207453394Y-91760924D01*
X206866766Y-92260183D01*
X206388284Y-92863878D01*
X206036172Y-93549012D01*
X205823843Y-94289491D01*
X205759385Y-95057109D01*
X189361596Y-95057109D01*
X189367000Y-95002000D01*
X189365461Y-94891793D01*
X189268915Y-94127548D01*
X189025764Y-93396610D01*
X188645271Y-92726822D01*
X188141928Y-92143694D01*
X187534908Y-91669438D01*
X186847332Y-91322118D01*
X186105389Y-91114964D01*
X185337340Y-91055866D01*
X184572440Y-91147075D01*
X183839822Y-91385116D01*
X183167394Y-91760924D01*
X182580766Y-92260183D01*
X182102284Y-92863878D01*
X181750172Y-93549012D01*
X181537843Y-94289491D01*
X181473385Y-95057109D01*
X165075596Y-95057109D01*
X165081000Y-95002000D01*
X165079461Y-94891793D01*
X164982915Y-94127548D01*
X164739764Y-93396610D01*
X164359271Y-92726822D01*
X163855928Y-92143694D01*
X163248908Y-91669438D01*
X162561332Y-91322118D01*
X161819389Y-91114964D01*
X161051340Y-91055866D01*
X160286440Y-91147075D01*
X159553822Y-91385116D01*
X158881394Y-91760924D01*
X158294766Y-92260183D01*
X157816284Y-92863878D01*
X157464172Y-93549012D01*
X157251843Y-94289491D01*
X157187385Y-95057109D01*
X140789596Y-95057109D01*
X140795000Y-95002000D01*
X140793461Y-94891793D01*
X140696915Y-94127548D01*
X140453764Y-93396610D01*
X140073271Y-92726822D01*
X139569928Y-92143694D01*
X138962908Y-91669438D01*
X138275332Y-91322118D01*
X137533389Y-91114964D01*
X136765340Y-91055866D01*
X136000440Y-91147075D01*
X135267822Y-91385116D01*
X134595394Y-91760924D01*
X134008766Y-92260183D01*
X133530284Y-92863878D01*
X133178172Y-93549012D01*
X132965843Y-94289491D01*
X132901385Y-95057109D01*
X116503596Y-95057109D01*
X116509000Y-95002000D01*
X116507461Y-94891793D01*
X116410915Y-94127548D01*
X116167764Y-93396610D01*
X115787271Y-92726822D01*
X115283928Y-92143694D01*
X114676908Y-91669438D01*
X113989332Y-91322118D01*
X113247389Y-91114964D01*
X112479340Y-91055866D01*
X111714440Y-91147075D01*
X110981822Y-91385116D01*
X110309394Y-91760924D01*
X109722766Y-92260183D01*
X109244284Y-92863878D01*
X108892172Y-93549012D01*
X108679843Y-94289491D01*
X108615385Y-95057109D01*
X92217595Y-95057109D01*
X92222999Y-95002000D01*
X92221460Y-94891793D01*
X92124914Y-94127548D01*
X91881763Y-93396611D01*
X91501270Y-92726822D01*
X90997928Y-92143694D01*
X90390908Y-91669439D01*
X89703332Y-91322119D01*
X88961389Y-91114965D01*
X88193340Y-91055867D01*
X87428440Y-91147075D01*
X86695823Y-91385117D01*
X86023394Y-91760925D01*
X85436767Y-92260184D01*
X84958284Y-92863878D01*
X84606173Y-93549013D01*
X84393844Y-94289491D01*
X84329386Y-95057109D01*
X67931596Y-95057109D01*
X67937000Y-95002000D01*
X67935461Y-94891793D01*
X67838915Y-94127548D01*
X67595764Y-93396610D01*
X67215271Y-92726822D01*
X66711928Y-92143694D01*
X66104908Y-91669438D01*
X65417332Y-91322118D01*
X64675389Y-91114964D01*
X63907340Y-91055866D01*
X63142440Y-91147075D01*
X62409822Y-91385116D01*
X61737394Y-91760924D01*
X61150766Y-92260183D01*
X60672284Y-92863878D01*
X60320172Y-93549012D01*
X60107843Y-94289491D01*
X60043385Y-95057109D01*
X49417000Y-95057109D01*
X49417000Y-71057109D01*
X60043385Y-71057109D01*
X60129251Y-71822627D01*
X60362173Y-72556889D01*
X60733277Y-73231925D01*
X61228429Y-73822024D01*
X61828768Y-74304709D01*
X62511428Y-74661595D01*
X63250406Y-74879088D01*
X64017555Y-74948904D01*
X64783655Y-74868384D01*
X65519524Y-74640594D01*
X66197134Y-74274211D01*
X66790676Y-73783191D01*
X67277540Y-73186236D01*
X67639183Y-72506085D01*
X67861830Y-71768643D01*
X67931596Y-71057109D01*
X84329386Y-71057109D01*
X84415252Y-71822627D01*
X84648174Y-72556888D01*
X85019278Y-73231924D01*
X85514429Y-73822023D01*
X86114769Y-74304708D01*
X86797428Y-74661594D01*
X87536406Y-74879087D01*
X88303555Y-74948903D01*
X89069654Y-74868383D01*
X89805524Y-74640593D01*
X90483134Y-74274210D01*
X91076675Y-73783191D01*
X91563539Y-73186236D01*
X91925182Y-72506084D01*
X92147829Y-71768643D01*
X92217595Y-71057109D01*
X108615385Y-71057109D01*
X108701251Y-71822627D01*
X108934173Y-72556889D01*
X109305277Y-73231925D01*
X109800429Y-73822024D01*
X110400768Y-74304709D01*
X111083428Y-74661595D01*
X111822406Y-74879088D01*
X112589555Y-74948904D01*
X113355655Y-74868384D01*
X114091524Y-74640594D01*
X114769134Y-74274211D01*
X115362676Y-73783191D01*
X115849540Y-73186236D01*
X116211183Y-72506085D01*
X116433830Y-71768643D01*
X116503596Y-71057109D01*
X132901385Y-71057109D01*
X132987251Y-71822627D01*
X133220173Y-72556889D01*
X133591277Y-73231925D01*
X134086429Y-73822024D01*
X134686768Y-74304709D01*
X135369428Y-74661595D01*
X136108406Y-74879088D01*
X136875555Y-74948904D01*
X137641655Y-74868384D01*
X138377524Y-74640594D01*
X139055134Y-74274211D01*
X139648676Y-73783191D01*
X140135540Y-73186236D01*
X140497183Y-72506085D01*
X140719830Y-71768643D01*
X140789596Y-71057109D01*
X157187385Y-71057109D01*
X157273251Y-71822627D01*
X157506173Y-72556889D01*
X157877277Y-73231925D01*
X158372429Y-73822024D01*
X158972768Y-74304709D01*
X159655428Y-74661595D01*
X160394406Y-74879088D01*
X161161555Y-74948904D01*
X161927655Y-74868384D01*
X162663524Y-74640594D01*
X163341134Y-74274211D01*
X163934676Y-73783191D01*
X164421540Y-73186236D01*
X164783183Y-72506085D01*
X165005830Y-71768643D01*
X165075596Y-71057109D01*
X181473385Y-71057109D01*
X181559251Y-71822627D01*
X181792173Y-72556889D01*
X182163277Y-73231925D01*
X182658429Y-73822024D01*
X183258768Y-74304709D01*
X183941428Y-74661595D01*
X184680406Y-74879088D01*
X185447555Y-74948904D01*
X186213655Y-74868384D01*
X186949524Y-74640594D01*
X187627134Y-74274211D01*
X188220676Y-73783191D01*
X188707540Y-73186236D01*
X189069183Y-72506085D01*
X189291830Y-71768643D01*
X189361596Y-71057109D01*
X205759385Y-71057109D01*
X205845251Y-71822627D01*
X206078173Y-72556889D01*
X206449277Y-73231925D01*
X206944429Y-73822024D01*
X207544768Y-74304709D01*
X208227428Y-74661595D01*
X208966406Y-74879088D01*
X209733555Y-74948904D01*
X210499655Y-74868384D01*
X211235524Y-74640594D01*
X211913134Y-74274211D01*
X212506676Y-73783191D01*
X212993540Y-73186236D01*
X213355183Y-72506085D01*
X213577830Y-71768643D01*
X213647596Y-71057109D01*
X230045385Y-71057109D01*
X230131251Y-71822627D01*
X230364173Y-72556889D01*
X230735277Y-73231925D01*
X231230429Y-73822024D01*
X231830768Y-74304709D01*
X232513428Y-74661595D01*
X233252406Y-74879088D01*
X234019555Y-74948904D01*
X234785655Y-74868384D01*
X235521524Y-74640594D01*
X236199134Y-74274211D01*
X236792676Y-73783191D01*
X237279540Y-73186236D01*
X237641183Y-72506085D01*
X237863830Y-71768643D01*
X237939000Y-71002000D01*
X237937461Y-70891793D01*
X237840915Y-70127548D01*
X237597764Y-69396610D01*
X237217271Y-68726822D01*
X236713928Y-68143694D01*
X236106908Y-67669438D01*
X235419332Y-67322118D01*
X234677389Y-67114964D01*
X233909340Y-67055866D01*
X233144440Y-67147075D01*
X232411822Y-67385116D01*
X231739394Y-67760924D01*
X231152766Y-68260183D01*
X230674284Y-68863878D01*
X230322172Y-69549012D01*
X230109843Y-70289491D01*
X230045385Y-71057109D01*
X213647596Y-71057109D01*
X213653000Y-71002000D01*
X213651461Y-70891793D01*
X213554915Y-70127548D01*
X213311764Y-69396610D01*
X212931271Y-68726822D01*
X212427928Y-68143694D01*
X211820908Y-67669438D01*
X211133332Y-67322118D01*
X210391389Y-67114964D01*
X209623340Y-67055866D01*
X208858440Y-67147075D01*
X208125822Y-67385116D01*
X207453394Y-67760924D01*
X206866766Y-68260183D01*
X206388284Y-68863878D01*
X206036172Y-69549012D01*
X205823843Y-70289491D01*
X205759385Y-71057109D01*
X189361596Y-71057109D01*
X189367000Y-71002000D01*
X189365461Y-70891793D01*
X189268915Y-70127548D01*
X189025764Y-69396610D01*
X188645271Y-68726822D01*
X188141928Y-68143694D01*
X187534908Y-67669438D01*
X186847332Y-67322118D01*
X186105389Y-67114964D01*
X185337340Y-67055866D01*
X184572440Y-67147075D01*
X183839822Y-67385116D01*
X183167394Y-67760924D01*
X182580766Y-68260183D01*
X182102284Y-68863878D01*
X181750172Y-69549012D01*
X181537843Y-70289491D01*
X181473385Y-71057109D01*
X165075596Y-71057109D01*
X165081000Y-71002000D01*
X165079461Y-70891793D01*
X164982915Y-70127548D01*
X164739764Y-69396610D01*
X164359271Y-68726822D01*
X163855928Y-68143694D01*
X163248908Y-67669438D01*
X162561332Y-67322118D01*
X161819389Y-67114964D01*
X161051340Y-67055866D01*
X160286440Y-67147075D01*
X159553822Y-67385116D01*
X158881394Y-67760924D01*
X158294766Y-68260183D01*
X157816284Y-68863878D01*
X157464172Y-69549012D01*
X157251843Y-70289491D01*
X157187385Y-71057109D01*
X140789596Y-71057109D01*
X140795000Y-71002000D01*
X140793461Y-70891793D01*
X140696915Y-70127548D01*
X140453764Y-69396610D01*
X140073271Y-68726822D01*
X139569928Y-68143694D01*
X138962908Y-67669438D01*
X138275332Y-67322118D01*
X137533389Y-67114964D01*
X136765340Y-67055866D01*
X136000440Y-67147075D01*
X135267822Y-67385116D01*
X134595394Y-67760924D01*
X134008766Y-68260183D01*
X133530284Y-68863878D01*
X133178172Y-69549012D01*
X132965843Y-70289491D01*
X132901385Y-71057109D01*
X116503596Y-71057109D01*
X116509000Y-71002000D01*
X116507461Y-70891793D01*
X116410915Y-70127548D01*
X116167764Y-69396610D01*
X115787271Y-68726822D01*
X115283928Y-68143694D01*
X114676908Y-67669438D01*
X113989332Y-67322118D01*
X113247389Y-67114964D01*
X112479340Y-67055866D01*
X111714440Y-67147075D01*
X110981822Y-67385116D01*
X110309394Y-67760924D01*
X109722766Y-68260183D01*
X109244284Y-68863878D01*
X108892172Y-69549012D01*
X108679843Y-70289491D01*
X108615385Y-71057109D01*
X92217595Y-71057109D01*
X92222999Y-71002000D01*
X92221460Y-70891793D01*
X92124914Y-70127548D01*
X91881763Y-69396611D01*
X91501270Y-68726822D01*
X90997928Y-68143694D01*
X90390908Y-67669439D01*
X89703332Y-67322119D01*
X88961389Y-67114965D01*
X88193340Y-67055867D01*
X87428440Y-67147075D01*
X86695823Y-67385117D01*
X86023394Y-67760925D01*
X85436767Y-68260184D01*
X84958284Y-68863878D01*
X84606173Y-69549013D01*
X84393844Y-70289491D01*
X84329386Y-71057109D01*
X67931596Y-71057109D01*
X67937000Y-71002000D01*
X67935461Y-70891793D01*
X67838915Y-70127548D01*
X67595764Y-69396610D01*
X67215271Y-68726822D01*
X66711928Y-68143694D01*
X66104908Y-67669438D01*
X65417332Y-67322118D01*
X64675389Y-67114964D01*
X63907340Y-67055866D01*
X63142440Y-67147075D01*
X62409822Y-67385116D01*
X61737394Y-67760924D01*
X61150766Y-68260183D01*
X60672284Y-68863878D01*
X60320172Y-69549012D01*
X60107843Y-70289491D01*
X60043385Y-71057109D01*
X49417000Y-71057109D01*
X49417000Y-35502002D01*
X56060933Y-35502002D01*
X56062999Y-35522980D01*
X56063000Y-49681014D01*
X56060933Y-49702002D01*
X56069177Y-49785709D01*
X56093594Y-49866198D01*
X56133244Y-49940378D01*
X56186604Y-50005397D01*
X56251623Y-50058757D01*
X56325803Y-50098407D01*
X56406292Y-50122824D01*
X56469021Y-50129002D01*
X56469022Y-50129002D01*
X56489999Y-50131068D01*
X56510977Y-50129002D01*
X71669021Y-50129002D01*
X71689999Y-50131068D01*
X71710976Y-50129002D01*
X71710977Y-50129002D01*
X71773706Y-50122824D01*
X71854195Y-50098407D01*
X71928375Y-50058757D01*
X71993394Y-50005397D01*
X72046754Y-49940378D01*
X72086404Y-49866198D01*
X72110821Y-49785709D01*
X72119065Y-49702002D01*
X72116999Y-49681024D01*
X72116999Y-47336167D01*
X85829238Y-47336167D01*
X85882472Y-47810762D01*
X86026875Y-48265978D01*
X86256946Y-48684476D01*
X86563923Y-49050317D01*
X86936112Y-49349564D01*
X87359337Y-49570821D01*
X87817477Y-49705659D01*
X88293082Y-49748942D01*
X88768037Y-49699023D01*
X89224250Y-49557801D01*
X89644344Y-49330657D01*
X90012319Y-49026242D01*
X90314157Y-48656151D01*
X90538363Y-48234481D01*
X90676396Y-47777293D01*
X90722999Y-47302002D01*
X90722045Y-47233678D01*
X90662189Y-46759873D01*
X90511445Y-46306717D01*
X90275553Y-45891472D01*
X89963498Y-45529953D01*
X89587167Y-45235932D01*
X89160894Y-45020606D01*
X88700916Y-44892177D01*
X88224753Y-44855539D01*
X87750542Y-44912085D01*
X87296345Y-45059662D01*
X86879463Y-45292650D01*
X86515775Y-45602173D01*
X86219133Y-45976442D01*
X86000836Y-46401201D01*
X85869200Y-46860272D01*
X85829238Y-47336167D01*
X72116999Y-47336167D01*
X72116999Y-37936167D01*
X85829239Y-37936167D01*
X85882473Y-38410762D01*
X86026876Y-38865978D01*
X86256947Y-39284476D01*
X86563924Y-39650317D01*
X86936113Y-39949564D01*
X87359338Y-40170821D01*
X87817478Y-40305659D01*
X88293083Y-40348942D01*
X88768038Y-40299023D01*
X89224251Y-40157801D01*
X89644345Y-39930657D01*
X90012320Y-39626242D01*
X90314158Y-39256151D01*
X90538364Y-38834481D01*
X90676397Y-38377293D01*
X90723000Y-37902002D01*
X90722046Y-37833678D01*
X90662190Y-37359873D01*
X90511446Y-36906717D01*
X90275554Y-36491472D01*
X89963499Y-36129953D01*
X89587168Y-35835932D01*
X89160895Y-35620606D01*
X88700917Y-35492177D01*
X88224754Y-35455539D01*
X87750543Y-35512085D01*
X87296346Y-35659662D01*
X86879464Y-35892650D01*
X86515776Y-36202173D01*
X86219134Y-36576442D01*
X86000837Y-37001201D01*
X85869201Y-37460272D01*
X85829239Y-37936167D01*
X72116999Y-37936167D01*
X72116999Y-35522980D01*
X72119065Y-35502002D01*
X72110821Y-35418295D01*
X72086404Y-35337806D01*
X72046754Y-35263626D01*
X71993394Y-35198607D01*
X71928375Y-35145247D01*
X71854195Y-35105597D01*
X71773706Y-35081180D01*
X71710977Y-35075002D01*
X71689999Y-35072936D01*
X71669022Y-35075002D01*
X56510976Y-35075002D01*
X56489999Y-35072936D01*
X56469021Y-35075002D01*
X56406292Y-35081180D01*
X56325803Y-35105597D01*
X56251623Y-35145247D01*
X56186604Y-35198607D01*
X56133244Y-35263626D01*
X56093594Y-35337806D01*
X56069177Y-35418295D01*
X56060933Y-35502002D01*
X49417000Y-35502002D01*
X49417000Y-32022873D01*
X49487054Y-31308398D01*
X49688488Y-30641218D01*
X50015679Y-30025862D01*
X50456156Y-29485784D01*
X50638084Y-29335281D01*
X247039238Y-29087299D01*
X247506217Y-29468158D01*
X247506217Y-29468158D01*
G37*
X247506217Y-29468158D02*
X247950454Y-30005149D01*
X248281930Y-30618203D01*
X248488016Y-31283960D01*
X248562981Y-31997200D01*
X248563000Y-32002620D01*
X248563001Y-153981207D01*
X248492944Y-154695704D01*
X248291510Y-155362884D01*
X247964322Y-155978234D01*
X247523845Y-156518314D01*
X246986853Y-156962552D01*
X246373799Y-157294029D01*
X245708031Y-157500119D01*
X244995895Y-157575000D01*
X53010883Y-157575000D01*
X52296396Y-157504944D01*
X51629216Y-157303510D01*
X51013866Y-156976322D01*
X50473786Y-156535845D01*
X50029548Y-155998853D01*
X49698071Y-155385799D01*
X49491984Y-154720040D01*
X49417019Y-154006801D01*
X49417000Y-154001381D01*
X49417000Y-143057109D01*
X60043385Y-143057109D01*
X60129251Y-143822627D01*
X60362173Y-144556889D01*
X60733277Y-145231925D01*
X61228429Y-145822024D01*
X61828768Y-146304709D01*
X62511428Y-146661595D01*
X63250406Y-146879088D01*
X64017555Y-146948904D01*
X64783655Y-146868384D01*
X65519524Y-146640594D01*
X66197134Y-146274211D01*
X66790676Y-145783191D01*
X67277540Y-145186236D01*
X67639183Y-144506085D01*
X67861830Y-143768643D01*
X67931596Y-143057109D01*
X84329386Y-143057109D01*
X84415252Y-143822627D01*
X84648174Y-144556888D01*
X85019278Y-145231924D01*
X85514429Y-145822023D01*
X86114769Y-146304708D01*
X86797428Y-146661594D01*
X87536406Y-146879087D01*
X88303555Y-146948903D01*
X89069654Y-146868383D01*
X89805524Y-146640593D01*
X90483134Y-146274210D01*
X91076675Y-145783191D01*
X91563539Y-145186236D01*
X91925182Y-144506084D01*
X92147829Y-143768643D01*
X92217595Y-143057109D01*
X108615385Y-143057109D01*
X108701251Y-143822627D01*
X108934173Y-144556889D01*
X109305277Y-145231925D01*
X109800429Y-145822024D01*
X110400768Y-146304709D01*
X111083428Y-146661595D01*
X111822406Y-146879088D01*
X112589555Y-146948904D01*
X113355655Y-146868384D01*
X114091524Y-146640594D01*
X114769134Y-146274211D01*
X115362676Y-145783191D01*
X115849540Y-145186236D01*
X116211183Y-144506085D01*
X116433830Y-143768643D01*
X116503596Y-143057109D01*
X132901385Y-143057109D01*
X132987251Y-143822627D01*
X133220173Y-144556889D01*
X133591277Y-145231925D01*
X134086429Y-145822024D01*
X134686768Y-146304709D01*
X135369428Y-146661595D01*
X136108406Y-146879088D01*
X136875555Y-146948904D01*
X137641655Y-146868384D01*
X138377524Y-146640594D01*
X139055134Y-146274211D01*
X139648676Y-145783191D01*
X140135540Y-145186236D01*
X140497183Y-144506085D01*
X140719830Y-143768643D01*
X140789596Y-143057109D01*
X157187385Y-143057109D01*
X157273251Y-143822627D01*
X157506173Y-144556889D01*
X157877277Y-145231925D01*
X158372429Y-145822024D01*
X158972768Y-146304709D01*
X159655428Y-146661595D01*
X160394406Y-146879088D01*
X161161555Y-146948904D01*
X161927655Y-146868384D01*
X162663524Y-146640594D01*
X163341134Y-146274211D01*
X163934676Y-145783191D01*
X164421540Y-145186236D01*
X164783183Y-144506085D01*
X165005830Y-143768643D01*
X165075596Y-143057109D01*
X181473385Y-143057109D01*
X181559251Y-143822627D01*
X181792173Y-144556889D01*
X182163277Y-145231925D01*
X182658429Y-145822024D01*
X183258768Y-146304709D01*
X183941428Y-146661595D01*
X184680406Y-146879088D01*
X185447555Y-146948904D01*
X186213655Y-146868384D01*
X186949524Y-146640594D01*
X187627134Y-146274211D01*
X188220676Y-145783191D01*
X188707540Y-145186236D01*
X189069183Y-144506085D01*
X189291830Y-143768643D01*
X189361596Y-143057109D01*
X205759385Y-143057109D01*
X205845251Y-143822627D01*
X206078173Y-144556889D01*
X206449277Y-145231925D01*
X206944429Y-145822024D01*
X207544768Y-146304709D01*
X208227428Y-146661595D01*
X208966406Y-146879088D01*
X209733555Y-146948904D01*
X210499655Y-146868384D01*
X211235524Y-146640594D01*
X211913134Y-146274211D01*
X212506676Y-145783191D01*
X212993540Y-145186236D01*
X213355183Y-144506085D01*
X213577830Y-143768643D01*
X213647596Y-143057109D01*
X230045385Y-143057109D01*
X230131251Y-143822627D01*
X230364173Y-144556889D01*
X230735277Y-145231925D01*
X231230429Y-145822024D01*
X231830768Y-146304709D01*
X232513428Y-146661595D01*
X233252406Y-146879088D01*
X234019555Y-146948904D01*
X234785655Y-146868384D01*
X235521524Y-146640594D01*
X236199134Y-146274211D01*
X236792676Y-145783191D01*
X237279540Y-145186236D01*
X237641183Y-144506085D01*
X237863830Y-143768643D01*
X237939000Y-143002000D01*
X237937461Y-142891793D01*
X237840915Y-142127548D01*
X237597764Y-141396610D01*
X237217271Y-140726822D01*
X236713928Y-140143694D01*
X236106908Y-139669438D01*
X235419332Y-139322118D01*
X234677389Y-139114964D01*
X233909340Y-139055866D01*
X233144440Y-139147075D01*
X232411822Y-139385116D01*
X231739394Y-139760924D01*
X231152766Y-140260183D01*
X230674284Y-140863878D01*
X230322172Y-141549012D01*
X230109843Y-142289491D01*
X230045385Y-143057109D01*
X213647596Y-143057109D01*
X213653000Y-143002000D01*
X213651461Y-142891793D01*
X213554915Y-142127548D01*
X213311764Y-141396610D01*
X212931271Y-140726822D01*
X212427928Y-140143694D01*
X211820908Y-139669438D01*
X211133332Y-139322118D01*
X210391389Y-139114964D01*
X209623340Y-139055866D01*
X208858440Y-139147075D01*
X208125822Y-139385116D01*
X207453394Y-139760924D01*
X206866766Y-140260183D01*
X206388284Y-140863878D01*
X206036172Y-141549012D01*
X205823843Y-142289491D01*
X205759385Y-143057109D01*
X189361596Y-143057109D01*
X189367000Y-143002000D01*
X189365461Y-142891793D01*
X189268915Y-142127548D01*
X189025764Y-141396610D01*
X188645271Y-140726822D01*
X188141928Y-140143694D01*
X187534908Y-139669438D01*
X186847332Y-139322118D01*
X186105389Y-139114964D01*
X185337340Y-139055866D01*
X184572440Y-139147075D01*
X183839822Y-139385116D01*
X183167394Y-139760924D01*
X182580766Y-140260183D01*
X182102284Y-140863878D01*
X181750172Y-141549012D01*
X181537843Y-142289491D01*
X181473385Y-143057109D01*
X165075596Y-143057109D01*
X165081000Y-143002000D01*
X165079461Y-142891793D01*
X164982915Y-142127548D01*
X164739764Y-141396610D01*
X164359271Y-140726822D01*
X163855928Y-140143694D01*
X163248908Y-139669438D01*
X162561332Y-139322118D01*
X161819389Y-139114964D01*
X161051340Y-139055866D01*
X160286440Y-139147075D01*
X159553822Y-139385116D01*
X158881394Y-139760924D01*
X158294766Y-140260183D01*
X157816284Y-140863878D01*
X157464172Y-141549012D01*
X157251843Y-142289491D01*
X157187385Y-143057109D01*
X140789596Y-143057109D01*
X140795000Y-143002000D01*
X140793461Y-142891793D01*
X140696915Y-142127548D01*
X140453764Y-141396610D01*
X140073271Y-140726822D01*
X139569928Y-140143694D01*
X138962908Y-139669438D01*
X138275332Y-139322118D01*
X137533389Y-139114964D01*
X136765340Y-139055866D01*
X136000440Y-139147075D01*
X135267822Y-139385116D01*
X134595394Y-139760924D01*
X134008766Y-140260183D01*
X133530284Y-140863878D01*
X133178172Y-141549012D01*
X132965843Y-142289491D01*
X132901385Y-143057109D01*
X116503596Y-143057109D01*
X116509000Y-143002000D01*
X116507461Y-142891793D01*
X116410915Y-142127548D01*
X116167764Y-141396610D01*
X115787271Y-140726822D01*
X115283928Y-140143694D01*
X114676908Y-139669438D01*
X113989332Y-139322118D01*
X113247389Y-139114964D01*
X112479340Y-139055866D01*
X111714440Y-139147075D01*
X110981822Y-139385116D01*
X110309394Y-139760924D01*
X109722766Y-140260183D01*
X109244284Y-140863878D01*
X108892172Y-141549012D01*
X108679843Y-142289491D01*
X108615385Y-143057109D01*
X92217595Y-143057109D01*
X92222999Y-143002000D01*
X92221460Y-142891793D01*
X92124914Y-142127548D01*
X91881763Y-141396611D01*
X91501270Y-140726822D01*
X90997928Y-140143694D01*
X90390908Y-139669439D01*
X89703332Y-139322119D01*
X88961389Y-139114965D01*
X88193340Y-139055867D01*
X87428440Y-139147075D01*
X86695823Y-139385117D01*
X86023394Y-139760925D01*
X85436767Y-140260184D01*
X84958284Y-140863878D01*
X84606173Y-141549013D01*
X84393844Y-142289491D01*
X84329386Y-143057109D01*
X67931596Y-143057109D01*
X67937000Y-143002000D01*
X67935461Y-142891793D01*
X67838915Y-142127548D01*
X67595764Y-141396610D01*
X67215271Y-140726822D01*
X66711928Y-140143694D01*
X66104908Y-139669438D01*
X65417332Y-139322118D01*
X64675389Y-139114964D01*
X63907340Y-139055866D01*
X63142440Y-139147075D01*
X62409822Y-139385116D01*
X61737394Y-139760924D01*
X61150766Y-140260183D01*
X60672284Y-140863878D01*
X60320172Y-141549012D01*
X60107843Y-142289491D01*
X60043385Y-143057109D01*
X49417000Y-143057109D01*
X49417000Y-119057109D01*
X60043385Y-119057109D01*
X60129251Y-119822627D01*
X60362173Y-120556889D01*
X60733277Y-121231925D01*
X61228429Y-121822024D01*
X61828768Y-122304709D01*
X62511428Y-122661595D01*
X63250406Y-122879088D01*
X64017555Y-122948904D01*
X64783655Y-122868384D01*
X65519524Y-122640594D01*
X66197134Y-122274211D01*
X66790676Y-121783191D01*
X67277540Y-121186236D01*
X67639183Y-120506085D01*
X67861830Y-119768643D01*
X67931596Y-119057109D01*
X84329386Y-119057109D01*
X84415252Y-119822627D01*
X84648174Y-120556888D01*
X85019278Y-121231924D01*
X85514429Y-121822023D01*
X86114769Y-122304708D01*
X86797428Y-122661594D01*
X87536406Y-122879087D01*
X88303555Y-122948903D01*
X89069654Y-122868383D01*
X89805524Y-122640593D01*
X90483134Y-122274210D01*
X91076675Y-121783191D01*
X91563539Y-121186236D01*
X91925182Y-120506084D01*
X92147829Y-119768643D01*
X92217595Y-119057109D01*
X108615385Y-119057109D01*
X108701251Y-119822627D01*
X108934173Y-120556889D01*
X109305277Y-121231925D01*
X109800429Y-121822024D01*
X110400768Y-122304709D01*
X111083428Y-122661595D01*
X111822406Y-122879088D01*
X112589555Y-122948904D01*
X113355655Y-122868384D01*
X114091524Y-122640594D01*
X114769134Y-122274211D01*
X115362676Y-121783191D01*
X115849540Y-121186236D01*
X116211183Y-120506085D01*
X116433830Y-119768643D01*
X116503596Y-119057109D01*
X132901385Y-119057109D01*
X132987251Y-119822627D01*
X133220173Y-120556889D01*
X133591277Y-121231925D01*
X134086429Y-121822024D01*
X134686768Y-122304709D01*
X135369428Y-122661595D01*
X136108406Y-122879088D01*
X136875555Y-122948904D01*
X137641655Y-122868384D01*
X138377524Y-122640594D01*
X139055134Y-122274211D01*
X139648676Y-121783191D01*
X140135540Y-121186236D01*
X140497183Y-120506085D01*
X140719830Y-119768643D01*
X140789596Y-119057109D01*
X157187385Y-119057109D01*
X157273251Y-119822627D01*
X157506173Y-120556889D01*
X157877277Y-121231925D01*
X158372429Y-121822024D01*
X158972768Y-122304709D01*
X159655428Y-122661595D01*
X160394406Y-122879088D01*
X161161555Y-122948904D01*
X161927655Y-122868384D01*
X162663524Y-122640594D01*
X163341134Y-122274211D01*
X163934676Y-121783191D01*
X164421540Y-121186236D01*
X164783183Y-120506085D01*
X165005830Y-119768643D01*
X165075596Y-119057109D01*
X181473385Y-119057109D01*
X181559251Y-119822627D01*
X181792173Y-120556889D01*
X182163277Y-121231925D01*
X182658429Y-121822024D01*
X183258768Y-122304709D01*
X183941428Y-122661595D01*
X184680406Y-122879088D01*
X185447555Y-122948904D01*
X186213655Y-122868384D01*
X186949524Y-122640594D01*
X187627134Y-122274211D01*
X188220676Y-121783191D01*
X188707540Y-121186236D01*
X189069183Y-120506085D01*
X189291830Y-119768643D01*
X189361596Y-119057109D01*
X205759385Y-119057109D01*
X205845251Y-119822627D01*
X206078173Y-120556889D01*
X206449277Y-121231925D01*
X206944429Y-121822024D01*
X207544768Y-122304709D01*
X208227428Y-122661595D01*
X208966406Y-122879088D01*
X209733555Y-122948904D01*
X210499655Y-122868384D01*
X211235524Y-122640594D01*
X211913134Y-122274211D01*
X212506676Y-121783191D01*
X212993540Y-121186236D01*
X213355183Y-120506085D01*
X213577830Y-119768643D01*
X213647596Y-119057109D01*
X230045385Y-119057109D01*
X230131251Y-119822627D01*
X230364173Y-120556889D01*
X230735277Y-121231925D01*
X231230429Y-121822024D01*
X231830768Y-122304709D01*
X232513428Y-122661595D01*
X233252406Y-122879088D01*
X234019555Y-122948904D01*
X234785655Y-122868384D01*
X235521524Y-122640594D01*
X236199134Y-122274211D01*
X236792676Y-121783191D01*
X237279540Y-121186236D01*
X237641183Y-120506085D01*
X237863830Y-119768643D01*
X237939000Y-119002000D01*
X237937461Y-118891793D01*
X237840915Y-118127548D01*
X237597764Y-117396610D01*
X237217271Y-116726822D01*
X236713928Y-116143694D01*
X236106908Y-115669438D01*
X235419332Y-115322118D01*
X234677389Y-115114964D01*
X233909340Y-115055866D01*
X233144440Y-115147075D01*
X232411822Y-115385116D01*
X231739394Y-115760924D01*
X231152766Y-116260183D01*
X230674284Y-116863878D01*
X230322172Y-117549012D01*
X230109843Y-118289491D01*
X230045385Y-119057109D01*
X213647596Y-119057109D01*
X213653000Y-119002000D01*
X213651461Y-118891793D01*
X213554915Y-118127548D01*
X213311764Y-117396610D01*
X212931271Y-116726822D01*
X212427928Y-116143694D01*
X211820908Y-115669438D01*
X211133332Y-115322118D01*
X210391389Y-115114964D01*
X209623340Y-115055866D01*
X208858440Y-115147075D01*
X208125822Y-115385116D01*
X207453394Y-115760924D01*
X206866766Y-116260183D01*
X206388284Y-116863878D01*
X206036172Y-117549012D01*
X205823843Y-118289491D01*
X205759385Y-119057109D01*
X189361596Y-119057109D01*
X189367000Y-119002000D01*
X189365461Y-118891793D01*
X189268915Y-118127548D01*
X189025764Y-117396610D01*
X188645271Y-116726822D01*
X188141928Y-116143694D01*
X187534908Y-115669438D01*
X186847332Y-115322118D01*
X186105389Y-115114964D01*
X185337340Y-115055866D01*
X184572440Y-115147075D01*
X183839822Y-115385116D01*
X183167394Y-115760924D01*
X182580766Y-116260183D01*
X182102284Y-116863878D01*
X181750172Y-117549012D01*
X181537843Y-118289491D01*
X181473385Y-119057109D01*
X165075596Y-119057109D01*
X165081000Y-119002000D01*
X165079461Y-118891793D01*
X164982915Y-118127548D01*
X164739764Y-117396610D01*
X164359271Y-116726822D01*
X163855928Y-116143694D01*
X163248908Y-115669438D01*
X162561332Y-115322118D01*
X161819389Y-115114964D01*
X161051340Y-115055866D01*
X160286440Y-115147075D01*
X159553822Y-115385116D01*
X158881394Y-115760924D01*
X158294766Y-116260183D01*
X157816284Y-116863878D01*
X157464172Y-117549012D01*
X157251843Y-118289491D01*
X157187385Y-119057109D01*
X140789596Y-119057109D01*
X140795000Y-119002000D01*
X140793461Y-118891793D01*
X140696915Y-118127548D01*
X140453764Y-117396610D01*
X140073271Y-116726822D01*
X139569928Y-116143694D01*
X138962908Y-115669438D01*
X138275332Y-115322118D01*
X137533389Y-115114964D01*
X136765340Y-115055866D01*
X136000440Y-115147075D01*
X135267822Y-115385116D01*
X134595394Y-115760924D01*
X134008766Y-116260183D01*
X133530284Y-116863878D01*
X133178172Y-117549012D01*
X132965843Y-118289491D01*
X132901385Y-119057109D01*
X116503596Y-119057109D01*
X116509000Y-119002000D01*
X116507461Y-118891793D01*
X116410915Y-118127548D01*
X116167764Y-117396610D01*
X115787271Y-116726822D01*
X115283928Y-116143694D01*
X114676908Y-115669438D01*
X113989332Y-115322118D01*
X113247389Y-115114964D01*
X112479340Y-115055866D01*
X111714440Y-115147075D01*
X110981822Y-115385116D01*
X110309394Y-115760924D01*
X109722766Y-116260183D01*
X109244284Y-116863878D01*
X108892172Y-117549012D01*
X108679843Y-118289491D01*
X108615385Y-119057109D01*
X92217595Y-119057109D01*
X92222999Y-119002000D01*
X92221460Y-118891793D01*
X92124914Y-118127548D01*
X91881763Y-117396611D01*
X91501270Y-116726822D01*
X90997928Y-116143694D01*
X90390908Y-115669439D01*
X89703332Y-115322119D01*
X88961389Y-115114965D01*
X88193340Y-115055867D01*
X87428440Y-115147075D01*
X86695823Y-115385117D01*
X86023394Y-115760925D01*
X85436767Y-116260184D01*
X84958284Y-116863878D01*
X84606173Y-117549013D01*
X84393844Y-118289491D01*
X84329386Y-119057109D01*
X67931596Y-119057109D01*
X67937000Y-119002000D01*
X67935461Y-118891793D01*
X67838915Y-118127548D01*
X67595764Y-117396610D01*
X67215271Y-116726822D01*
X66711928Y-116143694D01*
X66104908Y-115669438D01*
X65417332Y-115322118D01*
X64675389Y-115114964D01*
X63907340Y-115055866D01*
X63142440Y-115147075D01*
X62409822Y-115385116D01*
X61737394Y-115760924D01*
X61150766Y-116260183D01*
X60672284Y-116863878D01*
X60320172Y-117549012D01*
X60107843Y-118289491D01*
X60043385Y-119057109D01*
X49417000Y-119057109D01*
X49417000Y-95057109D01*
X60043385Y-95057109D01*
X60129251Y-95822627D01*
X60362173Y-96556889D01*
X60733277Y-97231925D01*
X61228429Y-97822024D01*
X61828768Y-98304709D01*
X62511428Y-98661595D01*
X63250406Y-98879088D01*
X64017555Y-98948904D01*
X64783655Y-98868384D01*
X65519524Y-98640594D01*
X66197134Y-98274211D01*
X66790676Y-97783191D01*
X67277540Y-97186236D01*
X67639183Y-96506085D01*
X67861830Y-95768643D01*
X67931596Y-95057109D01*
X84329386Y-95057109D01*
X84415252Y-95822627D01*
X84648174Y-96556888D01*
X85019278Y-97231924D01*
X85514429Y-97822023D01*
X86114769Y-98304708D01*
X86797428Y-98661594D01*
X87536406Y-98879087D01*
X88303555Y-98948903D01*
X89069654Y-98868383D01*
X89805524Y-98640593D01*
X90483134Y-98274210D01*
X91076675Y-97783191D01*
X91563539Y-97186236D01*
X91925182Y-96506084D01*
X92147829Y-95768643D01*
X92217595Y-95057109D01*
X108615385Y-95057109D01*
X108701251Y-95822627D01*
X108934173Y-96556889D01*
X109305277Y-97231925D01*
X109800429Y-97822024D01*
X110400768Y-98304709D01*
X111083428Y-98661595D01*
X111822406Y-98879088D01*
X112589555Y-98948904D01*
X113355655Y-98868384D01*
X114091524Y-98640594D01*
X114769134Y-98274211D01*
X115362676Y-97783191D01*
X115849540Y-97186236D01*
X116211183Y-96506085D01*
X116433830Y-95768643D01*
X116503596Y-95057109D01*
X132901385Y-95057109D01*
X132987251Y-95822627D01*
X133220173Y-96556889D01*
X133591277Y-97231925D01*
X134086429Y-97822024D01*
X134686768Y-98304709D01*
X135369428Y-98661595D01*
X136108406Y-98879088D01*
X136875555Y-98948904D01*
X137641655Y-98868384D01*
X138377524Y-98640594D01*
X139055134Y-98274211D01*
X139648676Y-97783191D01*
X140135540Y-97186236D01*
X140497183Y-96506085D01*
X140719830Y-95768643D01*
X140789596Y-95057109D01*
X157187385Y-95057109D01*
X157273251Y-95822627D01*
X157506173Y-96556889D01*
X157877277Y-97231925D01*
X158372429Y-97822024D01*
X158972768Y-98304709D01*
X159655428Y-98661595D01*
X160394406Y-98879088D01*
X161161555Y-98948904D01*
X161927655Y-98868384D01*
X162663524Y-98640594D01*
X163341134Y-98274211D01*
X163934676Y-97783191D01*
X164421540Y-97186236D01*
X164783183Y-96506085D01*
X165005830Y-95768643D01*
X165075596Y-95057109D01*
X181473385Y-95057109D01*
X181559251Y-95822627D01*
X181792173Y-96556889D01*
X182163277Y-97231925D01*
X182658429Y-97822024D01*
X183258768Y-98304709D01*
X183941428Y-98661595D01*
X184680406Y-98879088D01*
X185447555Y-98948904D01*
X186213655Y-98868384D01*
X186949524Y-98640594D01*
X187627134Y-98274211D01*
X188220676Y-97783191D01*
X188707540Y-97186236D01*
X189069183Y-96506085D01*
X189291830Y-95768643D01*
X189361596Y-95057109D01*
X205759385Y-95057109D01*
X205845251Y-95822627D01*
X206078173Y-96556889D01*
X206449277Y-97231925D01*
X206944429Y-97822024D01*
X207544768Y-98304709D01*
X208227428Y-98661595D01*
X208966406Y-98879088D01*
X209733555Y-98948904D01*
X210499655Y-98868384D01*
X211235524Y-98640594D01*
X211913134Y-98274211D01*
X212506676Y-97783191D01*
X212993540Y-97186236D01*
X213355183Y-96506085D01*
X213577830Y-95768643D01*
X213647596Y-95057109D01*
X230045385Y-95057109D01*
X230131251Y-95822627D01*
X230364173Y-96556889D01*
X230735277Y-97231925D01*
X231230429Y-97822024D01*
X231830768Y-98304709D01*
X232513428Y-98661595D01*
X233252406Y-98879088D01*
X234019555Y-98948904D01*
X234785655Y-98868384D01*
X235521524Y-98640594D01*
X236199134Y-98274211D01*
X236792676Y-97783191D01*
X237279540Y-97186236D01*
X237641183Y-96506085D01*
X237863830Y-95768643D01*
X237939000Y-95002000D01*
X237937461Y-94891793D01*
X237840915Y-94127548D01*
X237597764Y-93396610D01*
X237217271Y-92726822D01*
X236713928Y-92143694D01*
X236106908Y-91669438D01*
X235419332Y-91322118D01*
X234677389Y-91114964D01*
X233909340Y-91055866D01*
X233144440Y-91147075D01*
X232411822Y-91385116D01*
X231739394Y-91760924D01*
X231152766Y-92260183D01*
X230674284Y-92863878D01*
X230322172Y-93549012D01*
X230109843Y-94289491D01*
X230045385Y-95057109D01*
X213647596Y-95057109D01*
X213653000Y-95002000D01*
X213651461Y-94891793D01*
X213554915Y-94127548D01*
X213311764Y-93396610D01*
X212931271Y-92726822D01*
X212427928Y-92143694D01*
X211820908Y-91669438D01*
X211133332Y-91322118D01*
X210391389Y-91114964D01*
X209623340Y-91055866D01*
X208858440Y-91147075D01*
X208125822Y-91385116D01*
X207453394Y-91760924D01*
X206866766Y-92260183D01*
X206388284Y-92863878D01*
X206036172Y-93549012D01*
X205823843Y-94289491D01*
X205759385Y-95057109D01*
X189361596Y-95057109D01*
X189367000Y-95002000D01*
X189365461Y-94891793D01*
X189268915Y-94127548D01*
X189025764Y-93396610D01*
X188645271Y-92726822D01*
X188141928Y-92143694D01*
X187534908Y-91669438D01*
X186847332Y-91322118D01*
X186105389Y-91114964D01*
X185337340Y-91055866D01*
X184572440Y-91147075D01*
X183839822Y-91385116D01*
X183167394Y-91760924D01*
X182580766Y-92260183D01*
X182102284Y-92863878D01*
X181750172Y-93549012D01*
X181537843Y-94289491D01*
X181473385Y-95057109D01*
X165075596Y-95057109D01*
X165081000Y-95002000D01*
X165079461Y-94891793D01*
X164982915Y-94127548D01*
X164739764Y-93396610D01*
X164359271Y-92726822D01*
X163855928Y-92143694D01*
X163248908Y-91669438D01*
X162561332Y-91322118D01*
X161819389Y-91114964D01*
X161051340Y-91055866D01*
X160286440Y-91147075D01*
X159553822Y-91385116D01*
X158881394Y-91760924D01*
X158294766Y-92260183D01*
X157816284Y-92863878D01*
X157464172Y-93549012D01*
X157251843Y-94289491D01*
X157187385Y-95057109D01*
X140789596Y-95057109D01*
X140795000Y-95002000D01*
X140793461Y-94891793D01*
X140696915Y-94127548D01*
X140453764Y-93396610D01*
X140073271Y-92726822D01*
X139569928Y-92143694D01*
X138962908Y-91669438D01*
X138275332Y-91322118D01*
X137533389Y-91114964D01*
X136765340Y-91055866D01*
X136000440Y-91147075D01*
X135267822Y-91385116D01*
X134595394Y-91760924D01*
X134008766Y-92260183D01*
X133530284Y-92863878D01*
X133178172Y-93549012D01*
X132965843Y-94289491D01*
X132901385Y-95057109D01*
X116503596Y-95057109D01*
X116509000Y-95002000D01*
X116507461Y-94891793D01*
X116410915Y-94127548D01*
X116167764Y-93396610D01*
X115787271Y-92726822D01*
X115283928Y-92143694D01*
X114676908Y-91669438D01*
X113989332Y-91322118D01*
X113247389Y-91114964D01*
X112479340Y-91055866D01*
X111714440Y-91147075D01*
X110981822Y-91385116D01*
X110309394Y-91760924D01*
X109722766Y-92260183D01*
X109244284Y-92863878D01*
X108892172Y-93549012D01*
X108679843Y-94289491D01*
X108615385Y-95057109D01*
X92217595Y-95057109D01*
X92222999Y-95002000D01*
X92221460Y-94891793D01*
X92124914Y-94127548D01*
X91881763Y-93396611D01*
X91501270Y-92726822D01*
X90997928Y-92143694D01*
X90390908Y-91669439D01*
X89703332Y-91322119D01*
X88961389Y-91114965D01*
X88193340Y-91055867D01*
X87428440Y-91147075D01*
X86695823Y-91385117D01*
X86023394Y-91760925D01*
X85436767Y-92260184D01*
X84958284Y-92863878D01*
X84606173Y-93549013D01*
X84393844Y-94289491D01*
X84329386Y-95057109D01*
X67931596Y-95057109D01*
X67937000Y-95002000D01*
X67935461Y-94891793D01*
X67838915Y-94127548D01*
X67595764Y-93396610D01*
X67215271Y-92726822D01*
X66711928Y-92143694D01*
X66104908Y-91669438D01*
X65417332Y-91322118D01*
X64675389Y-91114964D01*
X63907340Y-91055866D01*
X63142440Y-91147075D01*
X62409822Y-91385116D01*
X61737394Y-91760924D01*
X61150766Y-92260183D01*
X60672284Y-92863878D01*
X60320172Y-93549012D01*
X60107843Y-94289491D01*
X60043385Y-95057109D01*
X49417000Y-95057109D01*
X49417000Y-71057109D01*
X60043385Y-71057109D01*
X60129251Y-71822627D01*
X60362173Y-72556889D01*
X60733277Y-73231925D01*
X61228429Y-73822024D01*
X61828768Y-74304709D01*
X62511428Y-74661595D01*
X63250406Y-74879088D01*
X64017555Y-74948904D01*
X64783655Y-74868384D01*
X65519524Y-74640594D01*
X66197134Y-74274211D01*
X66790676Y-73783191D01*
X67277540Y-73186236D01*
X67639183Y-72506085D01*
X67861830Y-71768643D01*
X67931596Y-71057109D01*
X84329386Y-71057109D01*
X84415252Y-71822627D01*
X84648174Y-72556888D01*
X85019278Y-73231924D01*
X85514429Y-73822023D01*
X86114769Y-74304708D01*
X86797428Y-74661594D01*
X87536406Y-74879087D01*
X88303555Y-74948903D01*
X89069654Y-74868383D01*
X89805524Y-74640593D01*
X90483134Y-74274210D01*
X91076675Y-73783191D01*
X91563539Y-73186236D01*
X91925182Y-72506084D01*
X92147829Y-71768643D01*
X92217595Y-71057109D01*
X108615385Y-71057109D01*
X108701251Y-71822627D01*
X108934173Y-72556889D01*
X109305277Y-73231925D01*
X109800429Y-73822024D01*
X110400768Y-74304709D01*
X111083428Y-74661595D01*
X111822406Y-74879088D01*
X112589555Y-74948904D01*
X113355655Y-74868384D01*
X114091524Y-74640594D01*
X114769134Y-74274211D01*
X115362676Y-73783191D01*
X115849540Y-73186236D01*
X116211183Y-72506085D01*
X116433830Y-71768643D01*
X116503596Y-71057109D01*
X132901385Y-71057109D01*
X132987251Y-71822627D01*
X133220173Y-72556889D01*
X133591277Y-73231925D01*
X134086429Y-73822024D01*
X134686768Y-74304709D01*
X135369428Y-74661595D01*
X136108406Y-74879088D01*
X136875555Y-74948904D01*
X137641655Y-74868384D01*
X138377524Y-74640594D01*
X139055134Y-74274211D01*
X139648676Y-73783191D01*
X140135540Y-73186236D01*
X140497183Y-72506085D01*
X140719830Y-71768643D01*
X140789596Y-71057109D01*
X157187385Y-71057109D01*
X157273251Y-71822627D01*
X157506173Y-72556889D01*
X157877277Y-73231925D01*
X158372429Y-73822024D01*
X158972768Y-74304709D01*
X159655428Y-74661595D01*
X160394406Y-74879088D01*
X161161555Y-74948904D01*
X161927655Y-74868384D01*
X162663524Y-74640594D01*
X163341134Y-74274211D01*
X163934676Y-73783191D01*
X164421540Y-73186236D01*
X164783183Y-72506085D01*
X165005830Y-71768643D01*
X165075596Y-71057109D01*
X181473385Y-71057109D01*
X181559251Y-71822627D01*
X181792173Y-72556889D01*
X182163277Y-73231925D01*
X182658429Y-73822024D01*
X183258768Y-74304709D01*
X183941428Y-74661595D01*
X184680406Y-74879088D01*
X185447555Y-74948904D01*
X186213655Y-74868384D01*
X186949524Y-74640594D01*
X187627134Y-74274211D01*
X188220676Y-73783191D01*
X188707540Y-73186236D01*
X189069183Y-72506085D01*
X189291830Y-71768643D01*
X189361596Y-71057109D01*
X205759385Y-71057109D01*
X205845251Y-71822627D01*
X206078173Y-72556889D01*
X206449277Y-73231925D01*
X206944429Y-73822024D01*
X207544768Y-74304709D01*
X208227428Y-74661595D01*
X208966406Y-74879088D01*
X209733555Y-74948904D01*
X210499655Y-74868384D01*
X211235524Y-74640594D01*
X211913134Y-74274211D01*
X212506676Y-73783191D01*
X212993540Y-73186236D01*
X213355183Y-72506085D01*
X213577830Y-71768643D01*
X213647596Y-71057109D01*
X230045385Y-71057109D01*
X230131251Y-71822627D01*
X230364173Y-72556889D01*
X230735277Y-73231925D01*
X231230429Y-73822024D01*
X231830768Y-74304709D01*
X232513428Y-74661595D01*
X233252406Y-74879088D01*
X234019555Y-74948904D01*
X234785655Y-74868384D01*
X235521524Y-74640594D01*
X236199134Y-74274211D01*
X236792676Y-73783191D01*
X237279540Y-73186236D01*
X237641183Y-72506085D01*
X237863830Y-71768643D01*
X237939000Y-71002000D01*
X237937461Y-70891793D01*
X237840915Y-70127548D01*
X237597764Y-69396610D01*
X237217271Y-68726822D01*
X236713928Y-68143694D01*
X236106908Y-67669438D01*
X235419332Y-67322118D01*
X234677389Y-67114964D01*
X233909340Y-67055866D01*
X233144440Y-67147075D01*
X232411822Y-67385116D01*
X231739394Y-67760924D01*
X231152766Y-68260183D01*
X230674284Y-68863878D01*
X230322172Y-69549012D01*
X230109843Y-70289491D01*
X230045385Y-71057109D01*
X213647596Y-71057109D01*
X213653000Y-71002000D01*
X213651461Y-70891793D01*
X213554915Y-70127548D01*
X213311764Y-69396610D01*
X212931271Y-68726822D01*
X212427928Y-68143694D01*
X211820908Y-67669438D01*
X211133332Y-67322118D01*
X210391389Y-67114964D01*
X209623340Y-67055866D01*
X208858440Y-67147075D01*
X208125822Y-67385116D01*
X207453394Y-67760924D01*
X206866766Y-68260183D01*
X206388284Y-68863878D01*
X206036172Y-69549012D01*
X205823843Y-70289491D01*
X205759385Y-71057109D01*
X189361596Y-71057109D01*
X189367000Y-71002000D01*
X189365461Y-70891793D01*
X189268915Y-70127548D01*
X189025764Y-69396610D01*
X188645271Y-68726822D01*
X188141928Y-68143694D01*
X187534908Y-67669438D01*
X186847332Y-67322118D01*
X186105389Y-67114964D01*
X185337340Y-67055866D01*
X184572440Y-67147075D01*
X183839822Y-67385116D01*
X183167394Y-67760924D01*
X182580766Y-68260183D01*
X182102284Y-68863878D01*
X181750172Y-69549012D01*
X181537843Y-70289491D01*
X181473385Y-71057109D01*
X165075596Y-71057109D01*
X165081000Y-71002000D01*
X165079461Y-70891793D01*
X164982915Y-70127548D01*
X164739764Y-69396610D01*
X164359271Y-68726822D01*
X163855928Y-68143694D01*
X163248908Y-67669438D01*
X162561332Y-67322118D01*
X161819389Y-67114964D01*
X161051340Y-67055866D01*
X160286440Y-67147075D01*
X159553822Y-67385116D01*
X158881394Y-67760924D01*
X158294766Y-68260183D01*
X157816284Y-68863878D01*
X157464172Y-69549012D01*
X157251843Y-70289491D01*
X157187385Y-71057109D01*
X140789596Y-71057109D01*
X140795000Y-71002000D01*
X140793461Y-70891793D01*
X140696915Y-70127548D01*
X140453764Y-69396610D01*
X140073271Y-68726822D01*
X139569928Y-68143694D01*
X138962908Y-67669438D01*
X138275332Y-67322118D01*
X137533389Y-67114964D01*
X136765340Y-67055866D01*
X136000440Y-67147075D01*
X135267822Y-67385116D01*
X134595394Y-67760924D01*
X134008766Y-68260183D01*
X133530284Y-68863878D01*
X133178172Y-69549012D01*
X132965843Y-70289491D01*
X132901385Y-71057109D01*
X116503596Y-71057109D01*
X116509000Y-71002000D01*
X116507461Y-70891793D01*
X116410915Y-70127548D01*
X116167764Y-69396610D01*
X115787271Y-68726822D01*
X115283928Y-68143694D01*
X114676908Y-67669438D01*
X113989332Y-67322118D01*
X113247389Y-67114964D01*
X112479340Y-67055866D01*
X111714440Y-67147075D01*
X110981822Y-67385116D01*
X110309394Y-67760924D01*
X109722766Y-68260183D01*
X109244284Y-68863878D01*
X108892172Y-69549012D01*
X108679843Y-70289491D01*
X108615385Y-71057109D01*
X92217595Y-71057109D01*
X92222999Y-71002000D01*
X92221460Y-70891793D01*
X92124914Y-70127548D01*
X91881763Y-69396611D01*
X91501270Y-68726822D01*
X90997928Y-68143694D01*
X90390908Y-67669439D01*
X89703332Y-67322119D01*
X88961389Y-67114965D01*
X88193340Y-67055867D01*
X87428440Y-67147075D01*
X86695823Y-67385117D01*
X86023394Y-67760925D01*
X85436767Y-68260184D01*
X84958284Y-68863878D01*
X84606173Y-69549013D01*
X84393844Y-70289491D01*
X84329386Y-71057109D01*
X67931596Y-71057109D01*
X67937000Y-71002000D01*
X67935461Y-70891793D01*
X67838915Y-70127548D01*
X67595764Y-69396610D01*
X67215271Y-68726822D01*
X66711928Y-68143694D01*
X66104908Y-67669438D01*
X65417332Y-67322118D01*
X64675389Y-67114964D01*
X63907340Y-67055866D01*
X63142440Y-67147075D01*
X62409822Y-67385116D01*
X61737394Y-67760924D01*
X61150766Y-68260183D01*
X60672284Y-68863878D01*
X60320172Y-69549012D01*
X60107843Y-70289491D01*
X60043385Y-71057109D01*
X49417000Y-71057109D01*
X49417000Y-35502002D01*
X56060933Y-35502002D01*
X56062999Y-35522980D01*
X56063000Y-49681014D01*
X56060933Y-49702002D01*
X56069177Y-49785709D01*
X56093594Y-49866198D01*
X56133244Y-49940378D01*
X56186604Y-50005397D01*
X56251623Y-50058757D01*
X56325803Y-50098407D01*
X56406292Y-50122824D01*
X56469021Y-50129002D01*
X56469022Y-50129002D01*
X56489999Y-50131068D01*
X56510977Y-50129002D01*
X71669021Y-50129002D01*
X71689999Y-50131068D01*
X71710976Y-50129002D01*
X71710977Y-50129002D01*
X71773706Y-50122824D01*
X71854195Y-50098407D01*
X71928375Y-50058757D01*
X71993394Y-50005397D01*
X72046754Y-49940378D01*
X72086404Y-49866198D01*
X72110821Y-49785709D01*
X72119065Y-49702002D01*
X72116999Y-49681024D01*
X72116999Y-47336167D01*
X85829238Y-47336167D01*
X85882472Y-47810762D01*
X86026875Y-48265978D01*
X86256946Y-48684476D01*
X86563923Y-49050317D01*
X86936112Y-49349564D01*
X87359337Y-49570821D01*
X87817477Y-49705659D01*
X88293082Y-49748942D01*
X88768037Y-49699023D01*
X89224250Y-49557801D01*
X89644344Y-49330657D01*
X90012319Y-49026242D01*
X90314157Y-48656151D01*
X90538363Y-48234481D01*
X90676396Y-47777293D01*
X90722999Y-47302002D01*
X90722045Y-47233678D01*
X90662189Y-46759873D01*
X90511445Y-46306717D01*
X90275553Y-45891472D01*
X89963498Y-45529953D01*
X89587167Y-45235932D01*
X89160894Y-45020606D01*
X88700916Y-44892177D01*
X88224753Y-44855539D01*
X87750542Y-44912085D01*
X87296345Y-45059662D01*
X86879463Y-45292650D01*
X86515775Y-45602173D01*
X86219133Y-45976442D01*
X86000836Y-46401201D01*
X85869200Y-46860272D01*
X85829238Y-47336167D01*
X72116999Y-47336167D01*
X72116999Y-37936167D01*
X85829239Y-37936167D01*
X85882473Y-38410762D01*
X86026876Y-38865978D01*
X86256947Y-39284476D01*
X86563924Y-39650317D01*
X86936113Y-39949564D01*
X87359338Y-40170821D01*
X87817478Y-40305659D01*
X88293083Y-40348942D01*
X88768038Y-40299023D01*
X89224251Y-40157801D01*
X89644345Y-39930657D01*
X90012320Y-39626242D01*
X90314158Y-39256151D01*
X90538364Y-38834481D01*
X90676397Y-38377293D01*
X90723000Y-37902002D01*
X90722046Y-37833678D01*
X90662190Y-37359873D01*
X90511446Y-36906717D01*
X90275554Y-36491472D01*
X89963499Y-36129953D01*
X89587168Y-35835932D01*
X89160895Y-35620606D01*
X88700917Y-35492177D01*
X88224754Y-35455539D01*
X87750543Y-35512085D01*
X87296346Y-35659662D01*
X86879464Y-35892650D01*
X86515776Y-36202173D01*
X86219134Y-36576442D01*
X86000837Y-37001201D01*
X85869201Y-37460272D01*
X85829239Y-37936167D01*
X72116999Y-37936167D01*
X72116999Y-35522980D01*
X72119065Y-35502002D01*
X72110821Y-35418295D01*
X72086404Y-35337806D01*
X72046754Y-35263626D01*
X71993394Y-35198607D01*
X71928375Y-35145247D01*
X71854195Y-35105597D01*
X71773706Y-35081180D01*
X71710977Y-35075002D01*
X71689999Y-35072936D01*
X71669022Y-35075002D01*
X56510976Y-35075002D01*
X56489999Y-35072936D01*
X56469021Y-35075002D01*
X56406292Y-35081180D01*
X56325803Y-35105597D01*
X56251623Y-35145247D01*
X56186604Y-35198607D01*
X56133244Y-35263626D01*
X56093594Y-35337806D01*
X56069177Y-35418295D01*
X56060933Y-35502002D01*
X49417000Y-35502002D01*
X49417000Y-32022873D01*
X49487054Y-31308398D01*
X49688488Y-30641218D01*
X50015679Y-30025862D01*
X50456156Y-29485784D01*
X50638084Y-29335281D01*
X247039238Y-29087299D01*
X247506217Y-29468158D01*
M02*
