M48
; DRILL file {KiCad (5.1.2-1)-1} date 2020 August 28, Friday 12:41:28
; FORMAT={-:-/ absolute / inch / decimal}
; #@! TF.CreationDate,2020-08-28T12:41:28+03:00
; #@! TF.GenerationSoftware,Kicad,Pcbnew,(5.1.2-1)-1
FMAT,2
INCH
T1C0.0236
T2C0.0300
T3C0.0320
T4C0.0394
T5C0.0400
T6C0.0433
T7C0.0472
T8C0.1260
%
G90
G05
T2
X1.5129Y-1.2532
X1.5129Y-1.6517
X1.6129Y-1.2532
X1.6129Y-1.6517
X1.7129Y-1.2532
X1.7129Y-1.6517
X1.8129Y-1.2532
X1.8129Y-1.6517
X1.9129Y-1.2532
X1.9129Y-1.6517
T3
X2.9381Y-1.23
X2.9381Y-1.53
X3.0381Y-1.23
X3.0381Y-1.53
X3.1381Y-1.23
X3.1381Y-1.53
X3.2381Y-1.23
X3.2381Y-1.53
X3.3381Y-1.23
X3.3381Y-1.53
X3.4381Y-1.23
X3.4381Y-1.53
X3.5381Y-1.23
X3.5381Y-1.53
X3.6381Y-1.23
X3.6381Y-1.53
X3.7381Y-1.23
X3.7381Y-1.53
X3.8381Y-1.23
X3.8381Y-1.53
X3.9381Y-1.23
X3.9381Y-1.53
X4.0381Y-1.23
X4.0381Y-1.53
T4
X4.4779Y-4.1709
X4.5763Y-4.1709
X4.6747Y-4.1709
X2.5656Y-2.2811
X2.664Y-2.2811
X2.7624Y-2.2811
X5.92Y-2.0156
X6.02Y-2.0156
X6.12Y-2.0156
X6.22Y-2.0156
X6.32Y-1.3156
X6.32Y-2.0156
X6.42Y-1.3156
X6.42Y-2.0156
X6.52Y-1.3156
X6.52Y-2.0156
X6.62Y-1.3156
X6.62Y-2.0156
X6.72Y-1.3156
X6.72Y-2.0156
X6.82Y-1.3156
X6.82Y-2.0156
X6.92Y-1.3156
X6.92Y-2.0156
X7.02Y-1.3156
X7.02Y-2.0156
X7.12Y-2.0156
X7.22Y-2.0156
X7.32Y-2.0156
X7.42Y-2.0156
X2.5656Y-3.226
X2.664Y-3.226
X2.7624Y-3.226
X6.3902Y-3.226
X6.4886Y-3.226
X6.587Y-3.226
X6.3902Y-5.1157
X6.4886Y-5.1157
X6.587Y-5.1157
X6.3902Y-2.2811
X6.4886Y-2.2811
X6.587Y-2.2811
X8.3024Y-3.226
X8.4009Y-3.226
X8.4993Y-3.226
X7.3463Y-4.1709
X7.4447Y-4.1709
X7.5431Y-4.1709
X3.5217Y-4.1709
X3.6202Y-4.1709
X3.7186Y-4.1709
X3.5217Y-5.1157
X3.6202Y-5.1157
X3.7186Y-5.1157
X3.5217Y-2.2811
X3.6202Y-2.2811
X3.7186Y-2.2811
X6.3902Y-4.1709
X6.4886Y-4.1709
X6.587Y-4.1709
X1.6094Y-3.226
X1.7079Y-3.226
X1.8063Y-3.226
X4.2Y-2.0156
X4.3Y-2.0156
X4.4Y-2.0156
X4.5Y-2.0156
X4.6Y-1.3156
X4.6Y-2.0156
X4.7Y-1.3156
X4.7Y-2.0156
X4.8Y-1.3156
X4.8Y-2.0156
X4.9Y-1.3156
X4.9Y-2.0156
X5.0Y-1.3156
X5.0Y-2.0156
X5.1Y-1.3156
X5.1Y-2.0156
X5.2Y-1.3156
X5.2Y-2.0156
X5.3Y-1.3156
X5.3Y-2.0156
X5.4Y-2.0156
X5.5Y-2.0156
X5.6Y-2.0156
X5.7Y-2.0156
X5.434Y-5.1157
X5.5324Y-5.1157
X5.6309Y-5.1157
X5.434Y-2.2811
X5.5324Y-2.2811
X5.6309Y-2.2811
X3.8881Y-1.7475
X3.9881Y-1.7475
X7.3463Y-3.226
X7.4447Y-3.226
X7.5431Y-3.226
X5.434Y-3.226
X5.5324Y-3.226
X5.6309Y-3.226
X2.5656Y-4.1709
X2.664Y-4.1709
X2.7624Y-4.1709
X2.5656Y-5.1157
X2.664Y-5.1157
X2.7624Y-5.1157
X4.4779Y-3.226
X4.5763Y-3.226
X4.6747Y-3.226
X1.6094Y-5.1157
X1.7079Y-5.1157
X1.8063Y-5.1157
X8.3024Y-5.1157
X8.4009Y-5.1157
X8.4993Y-5.1157
X5.434Y-4.1709
X5.5324Y-4.1709
X5.6309Y-4.1709
X8.3024Y-2.2811
X8.4009Y-2.2811
X8.4993Y-2.2811
X4.4779Y-2.2811
X4.5763Y-2.2811
X4.6747Y-2.2811
X1.6094Y-4.1709
X1.7079Y-4.1709
X1.8063Y-4.1709
X4.4779Y-5.1157
X4.5763Y-5.1157
X4.6747Y-5.1157
X8.3024Y-4.1709
X8.4009Y-4.1709
X8.4993Y-4.1709
X3.5217Y-3.226
X3.6202Y-3.226
X3.7186Y-3.226
X1.6094Y-2.2811
X1.7079Y-2.2811
X1.8063Y-2.2811
X7.3463Y-5.1157
X7.4447Y-5.1157
X7.5431Y-5.1157
X7.3463Y-2.2811
X7.4447Y-2.2811
X7.5431Y-2.2811
X2.9881Y-1.7475
X3.0881Y-1.7475
T5
X7.8789Y-3.1511
X8.0911Y-2.9389
X7.67Y-1.33
X7.67Y-1.93
X7.77Y-1.33
X7.77Y-1.93
X7.87Y-1.33
X7.87Y-1.93
X7.97Y-1.33
X7.97Y-1.93
X8.07Y-1.33
X8.07Y-1.93
X8.17Y-1.33
X8.17Y-1.93
X8.27Y-1.33
X8.27Y-1.93
X8.37Y-1.33
X8.37Y-1.93
X8.47Y-1.33
X8.47Y-1.93
X8.57Y-1.33
X8.57Y-1.93
X8.67Y-1.33
X8.67Y-1.93
X8.77Y-1.33
X8.77Y-1.93
X7.7589Y-3.0261
X7.9711Y-2.8139
X3.3381Y-1.7498
X3.6381Y-1.7498
X2.5374Y-1.5493
X2.5374Y-1.7273
X2.7934Y-1.5493
X2.7934Y-1.7273
X2.5374Y-1.1792
X2.5374Y-1.3572
X2.7934Y-1.1792
X2.7934Y-1.3572
T7
X8.5696Y-2.9857
X8.8452Y-2.9857
T8
X8.8353Y-5.8391
X5.0557Y-1.0359
X5.0557Y-5.8391
X8.8353Y-1.0359
X1.2762Y-5.8391
X1.2762Y-1.0359
T1
G00X8.4456Y-2.8991
M15
G01X8.4692Y-2.8991
M16
G05
G00X8.4909Y-3.0763
M15
G01X8.5145Y-3.0763
M16
G05
G00X8.6483Y-3.0763
M15
G01X8.672Y-3.0763
M16
G05
G00X8.7704Y-3.0763
M15
G01X8.794Y-3.0763
M16
G05
T6
G00X6.2996Y-4.4484
M15
G01X6.2996Y-4.4839
M16
G05
G00X6.6776Y-4.4484
M15
G01X6.6776Y-4.4839
M16
G05
G00X1.5189Y-3.5035
M15
G01X1.5189Y-3.539
M16
G05
G00X1.8969Y-3.5035
M15
G01X1.8969Y-3.539
M16
G05
G00X5.3435Y-5.3933
M15
G01X5.3435Y-5.4287
M16
G05
G00X5.7214Y-5.3933
M15
G01X5.7214Y-5.4287
M16
G05
G00X5.3435Y-2.5587
M15
G01X5.3435Y-2.5941
M16
G05
G00X5.7214Y-2.5587
M15
G01X5.7214Y-2.5941
M16
G05
G00X7.2557Y-3.5035
M15
G01X7.2557Y-3.539
M16
G05
G00X7.6337Y-3.5035
M15
G01X7.6337Y-3.539
M16
G05
G00X5.3435Y-3.5035
M15
G01X5.3435Y-3.539
M16
G05
G00X5.7214Y-3.5035
M15
G01X5.7214Y-3.539
M16
G05
G00X2.475Y-4.4484
M15
G01X2.475Y-4.4839
M16
G05
G00X2.853Y-4.4484
M15
G01X2.853Y-4.4839
M16
G05
G00X2.475Y-5.3933
M15
G01X2.475Y-5.4287
M16
G05
G00X2.853Y-5.3933
M15
G01X2.853Y-5.4287
M16
G05
G00X4.3873Y-3.5035
M15
G01X4.3873Y-3.539
M16
G05
G00X4.7653Y-3.5035
M15
G01X4.7653Y-3.539
M16
G05
G00X1.5189Y-5.3933
M15
G01X1.5189Y-5.4287
M16
G05
G00X1.8969Y-5.3933
M15
G01X1.8969Y-5.4287
M16
G05
G00X8.2119Y-5.3933
M15
G01X8.2119Y-5.4287
M16
G05
G00X8.5898Y-5.3933
M15
G01X8.5898Y-5.4287
M16
G05
G00X5.3435Y-4.4484
M15
G01X5.3435Y-4.4839
M16
G05
G00X5.7214Y-4.4484
M15
G01X5.7214Y-4.4839
M16
G05
G00X8.2119Y-2.5587
M15
G01X8.2119Y-2.5941
M16
G05
G00X8.5898Y-2.5587
M15
G01X8.5898Y-2.5941
M16
G05
G00X4.3873Y-2.5587
M15
G01X4.3873Y-2.5941
M16
G05
G00X4.7653Y-2.5587
M15
G01X4.7653Y-2.5941
M16
G05
G00X1.5189Y-4.4484
M15
G01X1.5189Y-4.4839
M16
G05
G00X1.8969Y-4.4484
M15
G01X1.8969Y-4.4839
M16
G05
G00X4.3873Y-5.3933
M15
G01X4.3873Y-5.4287
M16
G05
G00X4.7653Y-5.3933
M15
G01X4.7653Y-5.4287
M16
G05
G00X8.2119Y-4.4484
M15
G01X8.2119Y-4.4839
M16
G05
G00X8.5898Y-4.4484
M15
G01X8.5898Y-4.4839
M16
G05
G00X3.4312Y-3.5035
M15
G01X3.4312Y-3.539
M16
G05
G00X3.8091Y-3.5035
M15
G01X3.8091Y-3.539
M16
G05
G00X1.5189Y-2.5587
M15
G01X1.5189Y-2.5941
M16
G05
G00X1.8969Y-2.5587
M15
G01X1.8969Y-2.5941
M16
G05
G00X7.2557Y-5.3933
M15
G01X7.2557Y-5.4287
M16
G05
G00X7.6337Y-5.3933
M15
G01X7.6337Y-5.4287
M16
G05
G00X7.2557Y-2.5587
M15
G01X7.2557Y-2.5941
M16
G05
G00X7.6337Y-2.5587
M15
G01X7.6337Y-2.5941
M16
G05
G00X4.3873Y-4.4484
M15
G01X4.3873Y-4.4839
M16
G05
G00X4.7653Y-4.4484
M15
G01X4.7653Y-4.4839
M16
G05
G00X2.475Y-2.5587
M15
G01X2.475Y-2.5941
M16
G05
G00X2.853Y-2.5587
M15
G01X2.853Y-2.5941
M16
G05
G00X2.475Y-3.5035
M15
G01X2.475Y-3.539
M16
G05
G00X2.853Y-3.5035
M15
G01X2.853Y-3.539
M16
G05
G00X6.2996Y-3.5035
M15
G01X6.2996Y-3.539
M16
G05
G00X6.6776Y-3.5035
M15
G01X6.6776Y-3.539
M16
G05
G00X6.2996Y-5.3933
M15
G01X6.2996Y-5.4287
M16
G05
G00X6.6776Y-5.3933
M15
G01X6.6776Y-5.4287
M16
G05
G00X6.2996Y-2.5587
M15
G01X6.2996Y-2.5941
M16
G05
G00X6.6776Y-2.5587
M15
G01X6.6776Y-2.5941
M16
G05
G00X8.2119Y-3.5035
M15
G01X8.2119Y-3.539
M16
G05
G00X8.5898Y-3.5035
M15
G01X8.5898Y-3.539
M16
G05
G00X7.2557Y-4.4484
M15
G01X7.2557Y-4.4839
M16
G05
G00X7.6337Y-4.4484
M15
G01X7.6337Y-4.4839
M16
G05
G00X3.4312Y-4.4484
M15
G01X3.4312Y-4.4839
M16
G05
G00X3.8091Y-4.4484
M15
G01X3.8091Y-4.4839
M16
G05
G00X3.4312Y-5.3933
M15
G01X3.4312Y-5.4287
M16
G05
G00X3.8091Y-5.3933
M15
G01X3.8091Y-5.4287
M16
G05
G00X3.4312Y-2.5587
M15
G01X3.4312Y-2.5941
M16
G05
G00X3.8091Y-2.5587
M15
G01X3.8091Y-2.5941
M16
G05
T0
M30
