G04 #@! TF.GenerationSoftware,KiCad,Pcbnew,(5.1.2-1)-1*
G04 #@! TF.CreationDate,2020-09-14T16:18:28+03:00*
G04 #@! TF.ProjectId,N32B,4e333242-2e6b-4696-9361-645f70636258,V0.1*
G04 #@! TF.SameCoordinates,Original*
G04 #@! TF.FileFunction,Legend,Top*
G04 #@! TF.FilePolarity,Positive*
%FSLAX46Y46*%
G04 Gerber Fmt 4.6, Leading zero omitted, Abs format (unit mm)*
G04 Created by KiCad (PCBNEW (5.1.2-1)-1) date 2020-09-14 16:18:28*
%MOMM*%
%LPD*%
G04 APERTURE LIST*
%ADD10C,0.120000*%
%ADD11C,0.010000*%
%ADD12C,0.127000*%
%ADD13C,0.254000*%
%ADD14C,0.203200*%
%ADD15C,0.152400*%
%ADD16C,0.150000*%
%ADD17C,0.015000*%
G04 APERTURE END LIST*
D10*
X38682000Y-40448000D02*
G75*
G03X38682000Y-40448000I-254000J0D01*
G01*
X36008000Y-43892000D02*
X36008000Y-29892000D01*
X51008000Y-29892000D02*
X36008000Y-29892000D01*
X51008000Y-43892000D02*
X51008000Y-29892000D01*
X36008000Y-43892000D02*
X51008000Y-43892000D01*
D11*
G36*
X33717053Y-30085112D02*
G01*
X33920753Y-30157126D01*
X34109402Y-30267944D01*
X34276974Y-30416323D01*
X34417437Y-30601022D01*
X34482597Y-30721094D01*
X34564341Y-30893672D01*
X34571410Y-32972200D01*
X34578480Y-35050729D01*
X34146280Y-35050729D01*
X34139194Y-33023051D01*
X34132109Y-30995374D01*
X34075883Y-30890253D01*
X33963189Y-30731971D01*
X33813629Y-30608340D01*
X33716095Y-30555656D01*
X33623128Y-30518684D01*
X33540813Y-30503115D01*
X33441474Y-30504294D01*
X33420081Y-30505891D01*
X33252130Y-30539962D01*
X33096180Y-30610067D01*
X32961983Y-30709149D01*
X32859290Y-30830151D01*
X32801356Y-30953636D01*
X32794516Y-30995046D01*
X32788640Y-31071690D01*
X32783691Y-31185629D01*
X32779630Y-31338923D01*
X32776421Y-31533635D01*
X32774025Y-31771823D01*
X32772405Y-32055550D01*
X32771524Y-32386875D01*
X32771337Y-32600125D01*
X32770857Y-32881386D01*
X32769652Y-33151603D01*
X32767794Y-33405774D01*
X32765353Y-33638897D01*
X32762400Y-33845971D01*
X32759005Y-34021993D01*
X32755241Y-34161962D01*
X32751177Y-34260876D01*
X32747067Y-34312520D01*
X32690947Y-34535028D01*
X32593552Y-34735662D01*
X32460672Y-34910565D01*
X32298101Y-35055881D01*
X32111628Y-35167754D01*
X31907047Y-35242328D01*
X31690148Y-35275746D01*
X31466723Y-35264153D01*
X31353876Y-35240138D01*
X31132706Y-35156334D01*
X30936514Y-35033277D01*
X30771021Y-34876323D01*
X30641952Y-34690827D01*
X30559385Y-34496634D01*
X30550214Y-34465334D01*
X30542227Y-34432455D01*
X30535342Y-34394442D01*
X30529479Y-34347736D01*
X30524554Y-34288780D01*
X30520487Y-34214018D01*
X30517196Y-34119891D01*
X30514598Y-34002843D01*
X30512613Y-33859316D01*
X30511159Y-33685753D01*
X30510153Y-33478597D01*
X30509515Y-33234290D01*
X30509162Y-32949276D01*
X30509013Y-32619997D01*
X30508985Y-32302105D01*
X30508985Y-30270749D01*
X30939759Y-30270749D01*
X30946845Y-32298427D01*
X30953930Y-34326104D01*
X31022600Y-34456276D01*
X31128978Y-34606973D01*
X31265843Y-34720463D01*
X31426260Y-34793971D01*
X31603297Y-34824723D01*
X31790019Y-34809943D01*
X31861444Y-34791999D01*
X31971615Y-34738979D01*
X32083668Y-34651508D01*
X32182887Y-34543202D01*
X32254044Y-34428775D01*
X32313694Y-34300679D01*
X32313942Y-32693772D01*
X32314470Y-32300244D01*
X32315929Y-31957261D01*
X32318322Y-31664529D01*
X32321656Y-31421750D01*
X32325933Y-31228628D01*
X32331161Y-31084868D01*
X32337343Y-30990172D01*
X32342403Y-30952131D01*
X32397475Y-30778713D01*
X32485932Y-30602641D01*
X32596628Y-30443553D01*
X32683833Y-30350559D01*
X32872343Y-30209927D01*
X33075950Y-30114308D01*
X33288623Y-30062461D01*
X33504334Y-30053142D01*
X33717053Y-30085112D01*
X33717053Y-30085112D01*
G37*
X33717053Y-30085112D02*
X33920753Y-30157126D01*
X34109402Y-30267944D01*
X34276974Y-30416323D01*
X34417437Y-30601022D01*
X34482597Y-30721094D01*
X34564341Y-30893672D01*
X34571410Y-32972200D01*
X34578480Y-35050729D01*
X34146280Y-35050729D01*
X34139194Y-33023051D01*
X34132109Y-30995374D01*
X34075883Y-30890253D01*
X33963189Y-30731971D01*
X33813629Y-30608340D01*
X33716095Y-30555656D01*
X33623128Y-30518684D01*
X33540813Y-30503115D01*
X33441474Y-30504294D01*
X33420081Y-30505891D01*
X33252130Y-30539962D01*
X33096180Y-30610067D01*
X32961983Y-30709149D01*
X32859290Y-30830151D01*
X32801356Y-30953636D01*
X32794516Y-30995046D01*
X32788640Y-31071690D01*
X32783691Y-31185629D01*
X32779630Y-31338923D01*
X32776421Y-31533635D01*
X32774025Y-31771823D01*
X32772405Y-32055550D01*
X32771524Y-32386875D01*
X32771337Y-32600125D01*
X32770857Y-32881386D01*
X32769652Y-33151603D01*
X32767794Y-33405774D01*
X32765353Y-33638897D01*
X32762400Y-33845971D01*
X32759005Y-34021993D01*
X32755241Y-34161962D01*
X32751177Y-34260876D01*
X32747067Y-34312520D01*
X32690947Y-34535028D01*
X32593552Y-34735662D01*
X32460672Y-34910565D01*
X32298101Y-35055881D01*
X32111628Y-35167754D01*
X31907047Y-35242328D01*
X31690148Y-35275746D01*
X31466723Y-35264153D01*
X31353876Y-35240138D01*
X31132706Y-35156334D01*
X30936514Y-35033277D01*
X30771021Y-34876323D01*
X30641952Y-34690827D01*
X30559385Y-34496634D01*
X30550214Y-34465334D01*
X30542227Y-34432455D01*
X30535342Y-34394442D01*
X30529479Y-34347736D01*
X30524554Y-34288780D01*
X30520487Y-34214018D01*
X30517196Y-34119891D01*
X30514598Y-34002843D01*
X30512613Y-33859316D01*
X30511159Y-33685753D01*
X30510153Y-33478597D01*
X30509515Y-33234290D01*
X30509162Y-32949276D01*
X30509013Y-32619997D01*
X30508985Y-32302105D01*
X30508985Y-30270749D01*
X30939759Y-30270749D01*
X30946845Y-32298427D01*
X30953930Y-34326104D01*
X31022600Y-34456276D01*
X31128978Y-34606973D01*
X31265843Y-34720463D01*
X31426260Y-34793971D01*
X31603297Y-34824723D01*
X31790019Y-34809943D01*
X31861444Y-34791999D01*
X31971615Y-34738979D01*
X32083668Y-34651508D01*
X32182887Y-34543202D01*
X32254044Y-34428775D01*
X32313694Y-34300679D01*
X32313942Y-32693772D01*
X32314470Y-32300244D01*
X32315929Y-31957261D01*
X32318322Y-31664529D01*
X32321656Y-31421750D01*
X32325933Y-31228628D01*
X32331161Y-31084868D01*
X32337343Y-30990172D01*
X32342403Y-30952131D01*
X32397475Y-30778713D01*
X32485932Y-30602641D01*
X32596628Y-30443553D01*
X32683833Y-30350559D01*
X32872343Y-30209927D01*
X33075950Y-30114308D01*
X33288623Y-30062461D01*
X33504334Y-30053142D01*
X33717053Y-30085112D01*
G36*
X34571687Y-36633462D02*
G01*
X34579033Y-36855934D01*
X32998697Y-36855934D01*
X33006044Y-36633462D01*
X33013390Y-36410989D01*
X34564341Y-36410989D01*
X34571687Y-36633462D01*
X34571687Y-36633462D01*
G37*
X34571687Y-36633462D02*
X34579033Y-36855934D01*
X32998697Y-36855934D01*
X33006044Y-36633462D01*
X33013390Y-36410989D01*
X34564341Y-36410989D01*
X34571687Y-36633462D01*
G36*
X31328955Y-36404281D02*
G01*
X32148925Y-36410989D01*
X32156272Y-36633462D01*
X32163618Y-36855934D01*
X30508985Y-36855934D01*
X30508985Y-36397572D01*
X31328955Y-36404281D01*
X31328955Y-36404281D01*
G37*
X31328955Y-36404281D02*
X32148925Y-36410989D01*
X32156272Y-36633462D01*
X32163618Y-36855934D01*
X30508985Y-36855934D01*
X30508985Y-36397572D01*
X31328955Y-36404281D01*
G36*
X32649673Y-35874212D02*
G01*
X32711836Y-35901468D01*
X32746292Y-35929893D01*
X32772973Y-35965229D01*
X32792737Y-36013739D01*
X32806438Y-36081683D01*
X32814933Y-36175324D01*
X32819077Y-36300922D01*
X32819727Y-36464740D01*
X32817739Y-36673039D01*
X32817701Y-36675919D01*
X32809986Y-37267002D01*
X32726953Y-37341148D01*
X32639139Y-37400161D01*
X32557509Y-37410463D01*
X32475008Y-37371764D01*
X32426062Y-37328847D01*
X32339616Y-37242401D01*
X32339616Y-36653811D01*
X32340396Y-36444769D01*
X32343408Y-36280443D01*
X32349660Y-36154713D01*
X32360160Y-36061460D01*
X32375916Y-35994562D01*
X32397936Y-35947901D01*
X32427227Y-35915357D01*
X32464799Y-35890809D01*
X32465335Y-35890522D01*
X32553756Y-35866438D01*
X32649673Y-35874212D01*
X32649673Y-35874212D01*
G37*
X32649673Y-35874212D02*
X32711836Y-35901468D01*
X32746292Y-35929893D01*
X32772973Y-35965229D01*
X32792737Y-36013739D01*
X32806438Y-36081683D01*
X32814933Y-36175324D01*
X32819077Y-36300922D01*
X32819727Y-36464740D01*
X32817739Y-36673039D01*
X32817701Y-36675919D01*
X32809986Y-37267002D01*
X32726953Y-37341148D01*
X32639139Y-37400161D01*
X32557509Y-37410463D01*
X32475008Y-37371764D01*
X32426062Y-37328847D01*
X32339616Y-37242401D01*
X32339616Y-36653811D01*
X32340396Y-36444769D01*
X32343408Y-36280443D01*
X32349660Y-36154713D01*
X32360160Y-36061460D01*
X32375916Y-35994562D01*
X32397936Y-35947901D01*
X32427227Y-35915357D01*
X32464799Y-35890809D01*
X32465335Y-35890522D01*
X32553756Y-35866438D01*
X32649673Y-35874212D01*
G36*
X34571687Y-41248176D02*
G01*
X34564341Y-41470649D01*
X33799825Y-41477371D01*
X33607509Y-41478502D01*
X33431788Y-41478462D01*
X33279056Y-41477339D01*
X33155710Y-41475218D01*
X33068145Y-41472186D01*
X33022757Y-41468330D01*
X33017993Y-41466777D01*
X33010032Y-41434945D01*
X33004002Y-41365377D01*
X33000893Y-41271183D01*
X33000677Y-41237582D01*
X33000677Y-41025704D01*
X34579033Y-41025704D01*
X34571687Y-41248176D01*
X34571687Y-41248176D01*
G37*
X34571687Y-41248176D02*
X34564341Y-41470649D01*
X33799825Y-41477371D01*
X33607509Y-41478502D01*
X33431788Y-41478462D01*
X33279056Y-41477339D01*
X33155710Y-41475218D01*
X33068145Y-41472186D01*
X33022757Y-41468330D01*
X33017993Y-41466777D01*
X33010032Y-41434945D01*
X33004002Y-41365377D01*
X33000893Y-41271183D01*
X33000677Y-41237582D01*
X33000677Y-41025704D01*
X34579033Y-41025704D01*
X34571687Y-41248176D01*
G36*
X32156272Y-41248176D02*
G01*
X32148925Y-41470649D01*
X31328955Y-41477357D01*
X30508985Y-41484066D01*
X30508985Y-41025704D01*
X32163618Y-41025704D01*
X32156272Y-41248176D01*
X32156272Y-41248176D01*
G37*
X32156272Y-41248176D02*
X32148925Y-41470649D01*
X31328955Y-41477357D01*
X30508985Y-41484066D01*
X30508985Y-41025704D01*
X32163618Y-41025704D01*
X32156272Y-41248176D01*
G36*
X32676853Y-40501623D02*
G01*
X32726953Y-40540490D01*
X32809986Y-40614636D01*
X32817701Y-41205719D01*
X32819717Y-41414607D01*
X32819105Y-41578936D01*
X32815009Y-41704969D01*
X32806573Y-41798967D01*
X32792941Y-41867191D01*
X32773258Y-41915902D01*
X32746667Y-41951363D01*
X32712313Y-41979835D01*
X32711836Y-41980170D01*
X32633137Y-42010222D01*
X32539174Y-42013444D01*
X32460386Y-41989833D01*
X32424053Y-41964241D01*
X32395742Y-41930731D01*
X32374477Y-41883134D01*
X32359280Y-41815281D01*
X32349173Y-41721005D01*
X32343179Y-41594138D01*
X32340319Y-41428510D01*
X32339616Y-41227827D01*
X32339616Y-40639237D01*
X32426062Y-40552791D01*
X32512109Y-40486670D01*
X32593354Y-40469710D01*
X32676853Y-40501623D01*
X32676853Y-40501623D01*
G37*
X32676853Y-40501623D02*
X32726953Y-40540490D01*
X32809986Y-40614636D01*
X32817701Y-41205719D01*
X32819717Y-41414607D01*
X32819105Y-41578936D01*
X32815009Y-41704969D01*
X32806573Y-41798967D01*
X32792941Y-41867191D01*
X32773258Y-41915902D01*
X32746667Y-41951363D01*
X32712313Y-41979835D01*
X32711836Y-41980170D01*
X32633137Y-42010222D01*
X32539174Y-42013444D01*
X32460386Y-41989833D01*
X32424053Y-41964241D01*
X32395742Y-41930731D01*
X32374477Y-41883134D01*
X32359280Y-41815281D01*
X32349173Y-41721005D01*
X32343179Y-41594138D01*
X32340319Y-41428510D01*
X32339616Y-41227827D01*
X32339616Y-40639237D01*
X32426062Y-40552791D01*
X32512109Y-40486670D01*
X32593354Y-40469710D01*
X32676853Y-40501623D01*
G36*
X34571687Y-43129658D02*
G01*
X34564341Y-43352130D01*
X34221097Y-43367166D01*
X34221097Y-42907185D01*
X34579033Y-42907185D01*
X34571687Y-43129658D01*
X34571687Y-43129658D01*
G37*
X34571687Y-43129658D02*
X34564341Y-43352130D01*
X34221097Y-43367166D01*
X34221097Y-42907185D01*
X34579033Y-42907185D01*
X34571687Y-43129658D01*
G36*
X33432909Y-43364843D02*
G01*
X30508985Y-43364843D01*
X30508985Y-42907185D01*
X33432909Y-42907185D01*
X33432909Y-43364843D01*
X33432909Y-43364843D01*
G37*
X33432909Y-43364843D02*
X30508985Y-43364843D01*
X30508985Y-42907185D01*
X33432909Y-42907185D01*
X33432909Y-43364843D01*
G36*
X33926709Y-42381320D02*
G01*
X33935906Y-42387508D01*
X33976870Y-42419833D01*
X34008468Y-42456771D01*
X34031900Y-42505016D01*
X34048363Y-42571264D01*
X34059057Y-42662210D01*
X34065178Y-42784551D01*
X34067926Y-42944982D01*
X34068505Y-43128395D01*
X34068004Y-43315761D01*
X34066194Y-43459531D01*
X34062573Y-43566953D01*
X34056640Y-43645277D01*
X34047891Y-43701751D01*
X34035825Y-43743623D01*
X34024011Y-43770369D01*
X33958335Y-43850782D01*
X33867543Y-43898451D01*
X33770664Y-43904930D01*
X33717777Y-43879806D01*
X33659777Y-43830041D01*
X33649893Y-43818895D01*
X33585462Y-43742323D01*
X33585462Y-42520719D01*
X33671908Y-42434272D01*
X33759691Y-42367656D01*
X33843092Y-42350277D01*
X33926709Y-42381320D01*
X33926709Y-42381320D01*
G37*
X33926709Y-42381320D02*
X33935906Y-42387508D01*
X33976870Y-42419833D01*
X34008468Y-42456771D01*
X34031900Y-42505016D01*
X34048363Y-42571264D01*
X34059057Y-42662210D01*
X34065178Y-42784551D01*
X34067926Y-42944982D01*
X34068505Y-43128395D01*
X34068004Y-43315761D01*
X34066194Y-43459531D01*
X34062573Y-43566953D01*
X34056640Y-43645277D01*
X34047891Y-43701751D01*
X34035825Y-43743623D01*
X34024011Y-43770369D01*
X33958335Y-43850782D01*
X33867543Y-43898451D01*
X33770664Y-43904930D01*
X33717777Y-43879806D01*
X33659777Y-43830041D01*
X33649893Y-43818895D01*
X33585462Y-43742323D01*
X33585462Y-42520719D01*
X33671908Y-42434272D01*
X33759691Y-42367656D01*
X33843092Y-42350277D01*
X33926709Y-42381320D01*
G36*
X34571687Y-45150979D02*
G01*
X34579033Y-45373452D01*
X32998697Y-45373452D01*
X33006044Y-45150979D01*
X33013390Y-44928507D01*
X34564341Y-44928507D01*
X34571687Y-45150979D01*
X34571687Y-45150979D01*
G37*
X34571687Y-45150979D02*
X34579033Y-45373452D01*
X32998697Y-45373452D01*
X33006044Y-45150979D01*
X33013390Y-44928507D01*
X34564341Y-44928507D01*
X34571687Y-45150979D01*
G36*
X31328955Y-44921798D02*
G01*
X32148925Y-44928507D01*
X32156272Y-45150979D01*
X32163618Y-45373452D01*
X30508985Y-45373452D01*
X30508985Y-44915090D01*
X31328955Y-44921798D01*
X31328955Y-44921798D01*
G37*
X31328955Y-44921798D02*
X32148925Y-44928507D01*
X32156272Y-45150979D01*
X32163618Y-45373452D01*
X30508985Y-45373452D01*
X30508985Y-44915090D01*
X31328955Y-44921798D01*
G36*
X32716675Y-44401116D02*
G01*
X32790004Y-44469245D01*
X32841313Y-44575430D01*
X32861502Y-44670766D01*
X32866625Y-44741826D01*
X32870007Y-44852097D01*
X32871496Y-44989967D01*
X32870945Y-45143822D01*
X32869113Y-45262170D01*
X32863689Y-45451671D01*
X32855209Y-45597161D01*
X32841965Y-45705463D01*
X32822253Y-45783398D01*
X32794365Y-45837790D01*
X32756595Y-45875460D01*
X32708995Y-45902436D01*
X32636098Y-45928371D01*
X32576222Y-45924892D01*
X32517594Y-45900301D01*
X32471046Y-45871969D01*
X32434900Y-45834927D01*
X32407883Y-45782896D01*
X32388722Y-45709595D01*
X32376142Y-45608746D01*
X32368869Y-45474069D01*
X32365630Y-45299284D01*
X32365081Y-45148465D01*
X32366204Y-44940333D01*
X32370471Y-44776886D01*
X32379176Y-44651991D01*
X32393614Y-44559517D01*
X32415081Y-44493330D01*
X32444871Y-44447299D01*
X32484279Y-44415290D01*
X32524088Y-44395454D01*
X32626358Y-44375149D01*
X32716675Y-44401116D01*
X32716675Y-44401116D01*
G37*
X32716675Y-44401116D02*
X32790004Y-44469245D01*
X32841313Y-44575430D01*
X32861502Y-44670766D01*
X32866625Y-44741826D01*
X32870007Y-44852097D01*
X32871496Y-44989967D01*
X32870945Y-45143822D01*
X32869113Y-45262170D01*
X32863689Y-45451671D01*
X32855209Y-45597161D01*
X32841965Y-45705463D01*
X32822253Y-45783398D01*
X32794365Y-45837790D01*
X32756595Y-45875460D01*
X32708995Y-45902436D01*
X32636098Y-45928371D01*
X32576222Y-45924892D01*
X32517594Y-45900301D01*
X32471046Y-45871969D01*
X32434900Y-45834927D01*
X32407883Y-45782896D01*
X32388722Y-45709595D01*
X32376142Y-45608746D01*
X32368869Y-45474069D01*
X32365630Y-45299284D01*
X32365081Y-45148465D01*
X32366204Y-44940333D01*
X32370471Y-44776886D01*
X32379176Y-44651991D01*
X32393614Y-44559517D01*
X32415081Y-44493330D01*
X32444871Y-44447299D01*
X32484279Y-44415290D01*
X32524088Y-44395454D01*
X32626358Y-44375149D01*
X32716675Y-44401116D01*
G36*
X32656299Y-46235790D02*
G01*
X32727188Y-46297226D01*
X32773915Y-46384101D01*
X32782401Y-46419410D01*
X32785500Y-46462448D01*
X32788684Y-46550630D01*
X32791851Y-46678250D01*
X32794902Y-46839602D01*
X32797736Y-47028979D01*
X32800253Y-47240675D01*
X32802351Y-47468985D01*
X32803364Y-47610889D01*
X32810405Y-48716895D01*
X32909550Y-48920298D01*
X33043691Y-49140700D01*
X33213233Y-49326690D01*
X33414501Y-49474559D01*
X33509186Y-49525164D01*
X33586904Y-49561357D01*
X33652722Y-49587260D01*
X33718691Y-49605302D01*
X33796862Y-49617909D01*
X33899285Y-49627512D01*
X34038013Y-49636540D01*
X34071626Y-49638516D01*
X34244031Y-49650705D01*
X34372939Y-49665934D01*
X34465699Y-49686613D01*
X34529660Y-49715153D01*
X34572173Y-49753964D01*
X34600585Y-49805455D01*
X34603528Y-49812947D01*
X34609584Y-49894176D01*
X34574594Y-49974055D01*
X34506380Y-50037172D01*
X34483615Y-50049189D01*
X34416039Y-50065912D01*
X34309836Y-50075678D01*
X34176734Y-50078623D01*
X34028461Y-50074880D01*
X33876745Y-50064583D01*
X33733312Y-50047865D01*
X33684678Y-50040076D01*
X33475948Y-49989842D01*
X33287533Y-49912715D01*
X33107538Y-49802348D01*
X32924065Y-49652394D01*
X32877987Y-49609614D01*
X32759168Y-49501457D01*
X32665379Y-49430926D01*
X32588081Y-49397446D01*
X32518736Y-49400445D01*
X32448809Y-49439348D01*
X32369762Y-49513582D01*
X32316968Y-49571922D01*
X32129274Y-49747542D01*
X31908300Y-49886710D01*
X31657893Y-49987720D01*
X31381903Y-50048864D01*
X31203238Y-50065826D01*
X31083492Y-50072259D01*
X30977037Y-50078748D01*
X30897652Y-50084410D01*
X30864941Y-50087487D01*
X30794099Y-50087394D01*
X30717084Y-50076418D01*
X30615822Y-50034979D01*
X30548081Y-49970373D01*
X30515115Y-49892869D01*
X30518180Y-49812738D01*
X30558532Y-49740250D01*
X30637425Y-49685675D01*
X30667973Y-49674580D01*
X30724099Y-49664090D01*
X30818582Y-49653328D01*
X30938952Y-49643461D01*
X31072736Y-49635657D01*
X31093770Y-49634711D01*
X31233531Y-49628159D01*
X31335492Y-49620714D01*
X31412666Y-49609634D01*
X31478072Y-49592180D01*
X31544725Y-49565608D01*
X31625640Y-49527178D01*
X31641662Y-49519313D01*
X31856236Y-49387214D01*
X32035674Y-49218759D01*
X32181183Y-49012713D01*
X32232269Y-48915085D01*
X32326903Y-48716895D01*
X32339616Y-47560038D01*
X32342719Y-47321318D01*
X32346553Y-47097563D01*
X32350959Y-46894043D01*
X32355782Y-46716029D01*
X32360864Y-46568791D01*
X32366048Y-46457599D01*
X32371178Y-46387725D01*
X32375180Y-46365043D01*
X32448756Y-46271110D01*
X32528789Y-46220294D01*
X32574033Y-46212491D01*
X32656299Y-46235790D01*
X32656299Y-46235790D01*
G37*
X32656299Y-46235790D02*
X32727188Y-46297226D01*
X32773915Y-46384101D01*
X32782401Y-46419410D01*
X32785500Y-46462448D01*
X32788684Y-46550630D01*
X32791851Y-46678250D01*
X32794902Y-46839602D01*
X32797736Y-47028979D01*
X32800253Y-47240675D01*
X32802351Y-47468985D01*
X32803364Y-47610889D01*
X32810405Y-48716895D01*
X32909550Y-48920298D01*
X33043691Y-49140700D01*
X33213233Y-49326690D01*
X33414501Y-49474559D01*
X33509186Y-49525164D01*
X33586904Y-49561357D01*
X33652722Y-49587260D01*
X33718691Y-49605302D01*
X33796862Y-49617909D01*
X33899285Y-49627512D01*
X34038013Y-49636540D01*
X34071626Y-49638516D01*
X34244031Y-49650705D01*
X34372939Y-49665934D01*
X34465699Y-49686613D01*
X34529660Y-49715153D01*
X34572173Y-49753964D01*
X34600585Y-49805455D01*
X34603528Y-49812947D01*
X34609584Y-49894176D01*
X34574594Y-49974055D01*
X34506380Y-50037172D01*
X34483615Y-50049189D01*
X34416039Y-50065912D01*
X34309836Y-50075678D01*
X34176734Y-50078623D01*
X34028461Y-50074880D01*
X33876745Y-50064583D01*
X33733312Y-50047865D01*
X33684678Y-50040076D01*
X33475948Y-49989842D01*
X33287533Y-49912715D01*
X33107538Y-49802348D01*
X32924065Y-49652394D01*
X32877987Y-49609614D01*
X32759168Y-49501457D01*
X32665379Y-49430926D01*
X32588081Y-49397446D01*
X32518736Y-49400445D01*
X32448809Y-49439348D01*
X32369762Y-49513582D01*
X32316968Y-49571922D01*
X32129274Y-49747542D01*
X31908300Y-49886710D01*
X31657893Y-49987720D01*
X31381903Y-50048864D01*
X31203238Y-50065826D01*
X31083492Y-50072259D01*
X30977037Y-50078748D01*
X30897652Y-50084410D01*
X30864941Y-50087487D01*
X30794099Y-50087394D01*
X30717084Y-50076418D01*
X30615822Y-50034979D01*
X30548081Y-49970373D01*
X30515115Y-49892869D01*
X30518180Y-49812738D01*
X30558532Y-49740250D01*
X30637425Y-49685675D01*
X30667973Y-49674580D01*
X30724099Y-49664090D01*
X30818582Y-49653328D01*
X30938952Y-49643461D01*
X31072736Y-49635657D01*
X31093770Y-49634711D01*
X31233531Y-49628159D01*
X31335492Y-49620714D01*
X31412666Y-49609634D01*
X31478072Y-49592180D01*
X31544725Y-49565608D01*
X31625640Y-49527178D01*
X31641662Y-49519313D01*
X31856236Y-49387214D01*
X32035674Y-49218759D01*
X32181183Y-49012713D01*
X32232269Y-48915085D01*
X32326903Y-48716895D01*
X32339616Y-47560038D01*
X32342719Y-47321318D01*
X32346553Y-47097563D01*
X32350959Y-46894043D01*
X32355782Y-46716029D01*
X32360864Y-46568791D01*
X32366048Y-46457599D01*
X32371178Y-46387725D01*
X32375180Y-46365043D01*
X32448756Y-46271110D01*
X32528789Y-46220294D01*
X32574033Y-46212491D01*
X32656299Y-46235790D01*
G36*
X37316840Y-147081510D02*
G01*
X37349419Y-147165736D01*
X37397520Y-147290120D01*
X37458330Y-147447387D01*
X37529037Y-147630265D01*
X37606829Y-147831479D01*
X37688893Y-148043757D01*
X37769644Y-148252648D01*
X37872271Y-148515946D01*
X37958121Y-148731454D01*
X38027274Y-148899356D01*
X38079809Y-149019839D01*
X38115805Y-149093088D01*
X38135341Y-149119288D01*
X38138407Y-149117112D01*
X38142699Y-149081804D01*
X38147500Y-149001663D01*
X38152604Y-148882700D01*
X38157805Y-148730929D01*
X38162895Y-148552360D01*
X38167669Y-148353008D01*
X38171847Y-148143021D01*
X38176144Y-147921747D01*
X38180893Y-147708954D01*
X38185886Y-147511866D01*
X38190918Y-147337710D01*
X38195780Y-147193709D01*
X38200267Y-147087091D01*
X38203680Y-147030659D01*
X38218864Y-146846324D01*
X38464024Y-146846324D01*
X38452240Y-147157786D01*
X38448970Y-147252901D01*
X38444839Y-147386724D01*
X38440018Y-147552491D01*
X38434681Y-147743443D01*
X38429000Y-147952816D01*
X38423149Y-148173849D01*
X38417298Y-148399781D01*
X38411623Y-148623849D01*
X38406294Y-148839293D01*
X38401486Y-149039349D01*
X38397370Y-149217257D01*
X38394119Y-149366255D01*
X38391907Y-149479581D01*
X38390905Y-149550474D01*
X38390864Y-149560489D01*
X38390867Y-149668547D01*
X38226497Y-149668547D01*
X38131689Y-149665652D01*
X38075565Y-149655068D01*
X38046186Y-149633941D01*
X38040268Y-149624052D01*
X38026891Y-149591986D01*
X37997027Y-149517333D01*
X37952568Y-149404918D01*
X37895409Y-149259565D01*
X37827443Y-149086101D01*
X37750564Y-148889350D01*
X37666665Y-148674138D01*
X37577641Y-148445289D01*
X37576611Y-148442638D01*
X37488205Y-148215901D01*
X37405266Y-148004657D01*
X37329613Y-147813438D01*
X37263067Y-147646774D01*
X37207447Y-147509195D01*
X37164572Y-147405232D01*
X37136263Y-147339416D01*
X37124339Y-147316278D01*
X37124202Y-147316327D01*
X37121406Y-147343133D01*
X37117615Y-147415659D01*
X37113002Y-147528786D01*
X37107740Y-147677397D01*
X37102004Y-147856375D01*
X37095966Y-148060600D01*
X37089800Y-148284955D01*
X37084812Y-148478672D01*
X37056032Y-149630409D01*
X36944520Y-149638396D01*
X36872639Y-149638936D01*
X36823668Y-149630856D01*
X36814952Y-149625683D01*
X36811964Y-149596802D01*
X36810493Y-149522201D01*
X36810477Y-149406984D01*
X36811854Y-149256256D01*
X36814564Y-149075124D01*
X36818544Y-148868692D01*
X36823733Y-148642065D01*
X36829451Y-148422701D01*
X36836216Y-148173761D01*
X36842579Y-147933431D01*
X36848387Y-147707951D01*
X36853485Y-147503559D01*
X36857720Y-147326496D01*
X36860940Y-147182999D01*
X36862989Y-147079309D01*
X36863673Y-147030659D01*
X36865342Y-146820899D01*
X37216009Y-146820899D01*
X37316840Y-147081510D01*
X37316840Y-147081510D01*
G37*
X37316840Y-147081510D02*
X37349419Y-147165736D01*
X37397520Y-147290120D01*
X37458330Y-147447387D01*
X37529037Y-147630265D01*
X37606829Y-147831479D01*
X37688893Y-148043757D01*
X37769644Y-148252648D01*
X37872271Y-148515946D01*
X37958121Y-148731454D01*
X38027274Y-148899356D01*
X38079809Y-149019839D01*
X38115805Y-149093088D01*
X38135341Y-149119288D01*
X38138407Y-149117112D01*
X38142699Y-149081804D01*
X38147500Y-149001663D01*
X38152604Y-148882700D01*
X38157805Y-148730929D01*
X38162895Y-148552360D01*
X38167669Y-148353008D01*
X38171847Y-148143021D01*
X38176144Y-147921747D01*
X38180893Y-147708954D01*
X38185886Y-147511866D01*
X38190918Y-147337710D01*
X38195780Y-147193709D01*
X38200267Y-147087091D01*
X38203680Y-147030659D01*
X38218864Y-146846324D01*
X38464024Y-146846324D01*
X38452240Y-147157786D01*
X38448970Y-147252901D01*
X38444839Y-147386724D01*
X38440018Y-147552491D01*
X38434681Y-147743443D01*
X38429000Y-147952816D01*
X38423149Y-148173849D01*
X38417298Y-148399781D01*
X38411623Y-148623849D01*
X38406294Y-148839293D01*
X38401486Y-149039349D01*
X38397370Y-149217257D01*
X38394119Y-149366255D01*
X38391907Y-149479581D01*
X38390905Y-149550474D01*
X38390864Y-149560489D01*
X38390867Y-149668547D01*
X38226497Y-149668547D01*
X38131689Y-149665652D01*
X38075565Y-149655068D01*
X38046186Y-149633941D01*
X38040268Y-149624052D01*
X38026891Y-149591986D01*
X37997027Y-149517333D01*
X37952568Y-149404918D01*
X37895409Y-149259565D01*
X37827443Y-149086101D01*
X37750564Y-148889350D01*
X37666665Y-148674138D01*
X37577641Y-148445289D01*
X37576611Y-148442638D01*
X37488205Y-148215901D01*
X37405266Y-148004657D01*
X37329613Y-147813438D01*
X37263067Y-147646774D01*
X37207447Y-147509195D01*
X37164572Y-147405232D01*
X37136263Y-147339416D01*
X37124339Y-147316278D01*
X37124202Y-147316327D01*
X37121406Y-147343133D01*
X37117615Y-147415659D01*
X37113002Y-147528786D01*
X37107740Y-147677397D01*
X37102004Y-147856375D01*
X37095966Y-148060600D01*
X37089800Y-148284955D01*
X37084812Y-148478672D01*
X37056032Y-149630409D01*
X36944520Y-149638396D01*
X36872639Y-149638936D01*
X36823668Y-149630856D01*
X36814952Y-149625683D01*
X36811964Y-149596802D01*
X36810493Y-149522201D01*
X36810477Y-149406984D01*
X36811854Y-149256256D01*
X36814564Y-149075124D01*
X36818544Y-148868692D01*
X36823733Y-148642065D01*
X36829451Y-148422701D01*
X36836216Y-148173761D01*
X36842579Y-147933431D01*
X36848387Y-147707951D01*
X36853485Y-147503559D01*
X36857720Y-147326496D01*
X36860940Y-147182999D01*
X36862989Y-147079309D01*
X36863673Y-147030659D01*
X36865342Y-146820899D01*
X37216009Y-146820899D01*
X37316840Y-147081510D01*
G36*
X39892956Y-146881485D02*
G01*
X39950628Y-146904831D01*
X40092489Y-146996222D01*
X40201804Y-147125988D01*
X40279302Y-147295031D01*
X40288869Y-147326029D01*
X40316435Y-147492346D01*
X40307673Y-147661531D01*
X40266437Y-147824111D01*
X40196581Y-147970617D01*
X40101962Y-148091576D01*
X39986432Y-148177519D01*
X39932826Y-148200817D01*
X39859586Y-148226348D01*
X39954737Y-148259060D01*
X40065613Y-148318603D01*
X40172706Y-148413814D01*
X40261109Y-148530740D01*
X40278967Y-148562541D01*
X40317922Y-148673419D01*
X40340735Y-148814736D01*
X40346487Y-148968411D01*
X40334264Y-149116366D01*
X40312030Y-149215006D01*
X40231627Y-149395313D01*
X40117101Y-149542116D01*
X39973531Y-149651574D01*
X39805997Y-149719846D01*
X39619579Y-149743092D01*
X39613583Y-149743052D01*
X39503754Y-149736334D01*
X39394680Y-149720827D01*
X39330829Y-149705771D01*
X39196599Y-149641752D01*
X39070588Y-149540755D01*
X38968111Y-149416155D01*
X38936497Y-149361435D01*
X38901533Y-149288124D01*
X38878832Y-149232249D01*
X38873950Y-149212929D01*
X38895808Y-149192776D01*
X38949224Y-149168820D01*
X39015966Y-149147581D01*
X39077802Y-149135579D01*
X39092561Y-149134755D01*
X39118822Y-149155834D01*
X39152918Y-149209280D01*
X39168109Y-149240232D01*
X39247837Y-149359186D01*
X39359302Y-149446166D01*
X39491436Y-149496647D01*
X39633172Y-149506108D01*
X39752022Y-149478866D01*
X39878442Y-149404302D01*
X39976876Y-149287685D01*
X40047619Y-149128641D01*
X40058968Y-149089879D01*
X40086046Y-148912210D01*
X40070594Y-148748807D01*
X40016076Y-148605487D01*
X39925959Y-148488069D01*
X39803708Y-148402370D01*
X39652790Y-148354206D01*
X39617812Y-148349408D01*
X39523616Y-148333253D01*
X39472661Y-148304556D01*
X39457495Y-148254750D01*
X39469681Y-148179148D01*
X39489377Y-148137120D01*
X39530875Y-148119974D01*
X39578319Y-148117596D01*
X39704807Y-148095294D01*
X39828781Y-148035316D01*
X39931136Y-147948054D01*
X39960492Y-147909744D01*
X39998056Y-147842159D01*
X40020802Y-147767945D01*
X40033419Y-147668963D01*
X40036908Y-147614076D01*
X40040044Y-147504643D01*
X40033694Y-147426738D01*
X40014885Y-147361455D01*
X39988130Y-147304187D01*
X39902510Y-147183995D01*
X39793855Y-147107014D01*
X39665923Y-147075747D01*
X39644403Y-147075153D01*
X39512122Y-147093931D01*
X39399917Y-147153794D01*
X39313039Y-147240139D01*
X39265708Y-147294292D01*
X39230072Y-147315605D01*
X39185716Y-147310665D01*
X39140561Y-147295813D01*
X39076591Y-147268423D01*
X39037494Y-147241807D01*
X39033274Y-147235308D01*
X39042535Y-147201829D01*
X39075724Y-147143797D01*
X39108122Y-147097531D01*
X39228507Y-146977640D01*
X39377013Y-146893841D01*
X39543811Y-146848383D01*
X39719069Y-146843515D01*
X39892956Y-146881485D01*
X39892956Y-146881485D01*
G37*
X39892956Y-146881485D02*
X39950628Y-146904831D01*
X40092489Y-146996222D01*
X40201804Y-147125988D01*
X40279302Y-147295031D01*
X40288869Y-147326029D01*
X40316435Y-147492346D01*
X40307673Y-147661531D01*
X40266437Y-147824111D01*
X40196581Y-147970617D01*
X40101962Y-148091576D01*
X39986432Y-148177519D01*
X39932826Y-148200817D01*
X39859586Y-148226348D01*
X39954737Y-148259060D01*
X40065613Y-148318603D01*
X40172706Y-148413814D01*
X40261109Y-148530740D01*
X40278967Y-148562541D01*
X40317922Y-148673419D01*
X40340735Y-148814736D01*
X40346487Y-148968411D01*
X40334264Y-149116366D01*
X40312030Y-149215006D01*
X40231627Y-149395313D01*
X40117101Y-149542116D01*
X39973531Y-149651574D01*
X39805997Y-149719846D01*
X39619579Y-149743092D01*
X39613583Y-149743052D01*
X39503754Y-149736334D01*
X39394680Y-149720827D01*
X39330829Y-149705771D01*
X39196599Y-149641752D01*
X39070588Y-149540755D01*
X38968111Y-149416155D01*
X38936497Y-149361435D01*
X38901533Y-149288124D01*
X38878832Y-149232249D01*
X38873950Y-149212929D01*
X38895808Y-149192776D01*
X38949224Y-149168820D01*
X39015966Y-149147581D01*
X39077802Y-149135579D01*
X39092561Y-149134755D01*
X39118822Y-149155834D01*
X39152918Y-149209280D01*
X39168109Y-149240232D01*
X39247837Y-149359186D01*
X39359302Y-149446166D01*
X39491436Y-149496647D01*
X39633172Y-149506108D01*
X39752022Y-149478866D01*
X39878442Y-149404302D01*
X39976876Y-149287685D01*
X40047619Y-149128641D01*
X40058968Y-149089879D01*
X40086046Y-148912210D01*
X40070594Y-148748807D01*
X40016076Y-148605487D01*
X39925959Y-148488069D01*
X39803708Y-148402370D01*
X39652790Y-148354206D01*
X39617812Y-148349408D01*
X39523616Y-148333253D01*
X39472661Y-148304556D01*
X39457495Y-148254750D01*
X39469681Y-148179148D01*
X39489377Y-148137120D01*
X39530875Y-148119974D01*
X39578319Y-148117596D01*
X39704807Y-148095294D01*
X39828781Y-148035316D01*
X39931136Y-147948054D01*
X39960492Y-147909744D01*
X39998056Y-147842159D01*
X40020802Y-147767945D01*
X40033419Y-147668963D01*
X40036908Y-147614076D01*
X40040044Y-147504643D01*
X40033694Y-147426738D01*
X40014885Y-147361455D01*
X39988130Y-147304187D01*
X39902510Y-147183995D01*
X39793855Y-147107014D01*
X39665923Y-147075747D01*
X39644403Y-147075153D01*
X39512122Y-147093931D01*
X39399917Y-147153794D01*
X39313039Y-147240139D01*
X39265708Y-147294292D01*
X39230072Y-147315605D01*
X39185716Y-147310665D01*
X39140561Y-147295813D01*
X39076591Y-147268423D01*
X39037494Y-147241807D01*
X39033274Y-147235308D01*
X39042535Y-147201829D01*
X39075724Y-147143797D01*
X39108122Y-147097531D01*
X39228507Y-146977640D01*
X39377013Y-146893841D01*
X39543811Y-146848383D01*
X39719069Y-146843515D01*
X39892956Y-146881485D01*
G36*
X41663819Y-146890979D02*
G01*
X41797328Y-146923175D01*
X41837747Y-146941164D01*
X41982176Y-147043817D01*
X42092082Y-147179608D01*
X42165581Y-147342679D01*
X42200784Y-147527170D01*
X42195806Y-147727225D01*
X42153524Y-147921911D01*
X42125958Y-147998088D01*
X42086615Y-148083040D01*
X42032619Y-148181252D01*
X41961096Y-148297207D01*
X41869172Y-148435388D01*
X41753970Y-148600280D01*
X41612618Y-148796366D01*
X41457511Y-149007486D01*
X41109711Y-149477856D01*
X41294884Y-149493602D01*
X41396065Y-149500174D01*
X41529737Y-149506026D01*
X41677537Y-149510472D01*
X41804231Y-149512671D01*
X42128405Y-149515994D01*
X42128405Y-149770248D01*
X41982209Y-149764689D01*
X41911212Y-149762301D01*
X41799977Y-149758939D01*
X41659103Y-149754906D01*
X41499187Y-149750504D01*
X41330826Y-149746037D01*
X41314791Y-149745620D01*
X40793570Y-149732110D01*
X40802582Y-149592270D01*
X40806227Y-149549577D01*
X40813476Y-149510307D01*
X40827751Y-149468814D01*
X40852475Y-149419448D01*
X40891068Y-149356562D01*
X40946953Y-149274507D01*
X41023551Y-149167637D01*
X41124284Y-149030302D01*
X41228090Y-148889919D01*
X41343818Y-148732527D01*
X41454854Y-148579491D01*
X41555939Y-148438213D01*
X41641814Y-148316096D01*
X41707220Y-148220542D01*
X41744462Y-148163008D01*
X41846977Y-147962538D01*
X41906940Y-147771144D01*
X41924233Y-147592754D01*
X41898739Y-147431294D01*
X41830339Y-147290691D01*
X41772648Y-147221923D01*
X41709293Y-147164267D01*
X41654607Y-147135818D01*
X41584882Y-147126569D01*
X41545349Y-147126004D01*
X41403491Y-147143208D01*
X41291556Y-147197407D01*
X41204432Y-147292483D01*
X41137008Y-147432317D01*
X41135157Y-147437466D01*
X41106901Y-147500406D01*
X41072230Y-147527396D01*
X41023647Y-147532464D01*
X40947582Y-147527290D01*
X40891367Y-147517427D01*
X40836612Y-147502737D01*
X40886314Y-147355564D01*
X40966187Y-147188261D01*
X41080009Y-147050347D01*
X41220568Y-146950387D01*
X41232227Y-146944542D01*
X41362083Y-146901769D01*
X41512342Y-146883879D01*
X41663819Y-146890979D01*
X41663819Y-146890979D01*
G37*
X41663819Y-146890979D02*
X41797328Y-146923175D01*
X41837747Y-146941164D01*
X41982176Y-147043817D01*
X42092082Y-147179608D01*
X42165581Y-147342679D01*
X42200784Y-147527170D01*
X42195806Y-147727225D01*
X42153524Y-147921911D01*
X42125958Y-147998088D01*
X42086615Y-148083040D01*
X42032619Y-148181252D01*
X41961096Y-148297207D01*
X41869172Y-148435388D01*
X41753970Y-148600280D01*
X41612618Y-148796366D01*
X41457511Y-149007486D01*
X41109711Y-149477856D01*
X41294884Y-149493602D01*
X41396065Y-149500174D01*
X41529737Y-149506026D01*
X41677537Y-149510472D01*
X41804231Y-149512671D01*
X42128405Y-149515994D01*
X42128405Y-149770248D01*
X41982209Y-149764689D01*
X41911212Y-149762301D01*
X41799977Y-149758939D01*
X41659103Y-149754906D01*
X41499187Y-149750504D01*
X41330826Y-149746037D01*
X41314791Y-149745620D01*
X40793570Y-149732110D01*
X40802582Y-149592270D01*
X40806227Y-149549577D01*
X40813476Y-149510307D01*
X40827751Y-149468814D01*
X40852475Y-149419448D01*
X40891068Y-149356562D01*
X40946953Y-149274507D01*
X41023551Y-149167637D01*
X41124284Y-149030302D01*
X41228090Y-148889919D01*
X41343818Y-148732527D01*
X41454854Y-148579491D01*
X41555939Y-148438213D01*
X41641814Y-148316096D01*
X41707220Y-148220542D01*
X41744462Y-148163008D01*
X41846977Y-147962538D01*
X41906940Y-147771144D01*
X41924233Y-147592754D01*
X41898739Y-147431294D01*
X41830339Y-147290691D01*
X41772648Y-147221923D01*
X41709293Y-147164267D01*
X41654607Y-147135818D01*
X41584882Y-147126569D01*
X41545349Y-147126004D01*
X41403491Y-147143208D01*
X41291556Y-147197407D01*
X41204432Y-147292483D01*
X41137008Y-147432317D01*
X41135157Y-147437466D01*
X41106901Y-147500406D01*
X41072230Y-147527396D01*
X41023647Y-147532464D01*
X40947582Y-147527290D01*
X40891367Y-147517427D01*
X40836612Y-147502737D01*
X40886314Y-147355564D01*
X40966187Y-147188261D01*
X41080009Y-147050347D01*
X41220568Y-146950387D01*
X41232227Y-146944542D01*
X41362083Y-146901769D01*
X41512342Y-146883879D01*
X41663819Y-146890979D01*
G36*
X43281573Y-146978351D02*
G01*
X43441107Y-146982986D01*
X43559915Y-146988807D01*
X43648122Y-146997105D01*
X43715853Y-147009169D01*
X43773232Y-147026289D01*
X43825737Y-147047683D01*
X43968083Y-147134862D01*
X44084074Y-147253704D01*
X44154024Y-147373910D01*
X44173021Y-147447089D01*
X44185962Y-147552642D01*
X44190549Y-147665098D01*
X44173330Y-147860062D01*
X44119734Y-148021270D01*
X44028258Y-148151971D01*
X43926063Y-148237242D01*
X43804102Y-148318751D01*
X43903045Y-148369228D01*
X44014020Y-148446484D01*
X44117002Y-148554032D01*
X44193973Y-148672313D01*
X44205523Y-148697583D01*
X44242945Y-148832380D01*
X44258327Y-148991763D01*
X44250868Y-149154113D01*
X44226956Y-149274935D01*
X44152643Y-149456786D01*
X44045883Y-149600018D01*
X43904954Y-149706532D01*
X43788238Y-149759133D01*
X43731983Y-149770482D01*
X43638883Y-149779908D01*
X43519367Y-149787250D01*
X43383862Y-149792345D01*
X43242795Y-149795031D01*
X43106596Y-149795148D01*
X42985690Y-149792532D01*
X42890508Y-149787023D01*
X42831475Y-149778459D01*
X42820328Y-149774146D01*
X42812405Y-149760528D01*
X42806353Y-149728234D01*
X42802149Y-149673230D01*
X42799772Y-149591483D01*
X42799647Y-149566845D01*
X43069146Y-149566845D01*
X43329756Y-149566287D01*
X43469635Y-149563227D01*
X43571710Y-149553626D01*
X43648798Y-149535805D01*
X43692068Y-149518790D01*
X43823110Y-149434165D01*
X43914889Y-149318688D01*
X43968188Y-149170974D01*
X43983902Y-149001946D01*
X43964826Y-148824698D01*
X43908462Y-148680543D01*
X43814074Y-148568879D01*
X43680925Y-148489104D01*
X43508279Y-148440618D01*
X43295400Y-148422818D01*
X43274624Y-148422701D01*
X43101224Y-148422701D01*
X43085465Y-148518046D01*
X43080405Y-148573776D01*
X43075987Y-148670256D01*
X43072496Y-148797388D01*
X43070214Y-148945074D01*
X43069425Y-149090118D01*
X43069146Y-149566845D01*
X42799647Y-149566845D01*
X42799200Y-149478960D01*
X42800411Y-149331626D01*
X42803384Y-149145448D01*
X42808098Y-148916394D01*
X42814312Y-148649460D01*
X42820424Y-148404478D01*
X42826768Y-148164506D01*
X42832920Y-147944206D01*
X43094703Y-147944206D01*
X43095312Y-148057790D01*
X43098747Y-148130442D01*
X43107194Y-148172074D01*
X43122842Y-148192600D01*
X43147879Y-148201934D01*
X43151778Y-148202807D01*
X43243388Y-148212610D01*
X43360852Y-148211502D01*
X43485520Y-148201105D01*
X43598740Y-148183042D01*
X43681863Y-148158935D01*
X43687981Y-148156169D01*
X43790258Y-148081051D01*
X43867492Y-147972257D01*
X43917360Y-147841604D01*
X43937537Y-147700911D01*
X43925701Y-147561995D01*
X43879527Y-147436674D01*
X43840581Y-147380094D01*
X43771081Y-147310352D01*
X43692743Y-147262224D01*
X43593855Y-147231401D01*
X43462704Y-147213574D01*
X43371940Y-147207718D01*
X43128087Y-147195871D01*
X43111460Y-147446974D01*
X43103613Y-147594456D01*
X43097725Y-147760199D01*
X43094834Y-147913363D01*
X43094703Y-147944206D01*
X42832920Y-147944206D01*
X42833131Y-147936669D01*
X42839298Y-147728094D01*
X42845057Y-147545907D01*
X42850193Y-147397233D01*
X42854494Y-147289198D01*
X42856038Y-147256930D01*
X42871078Y-146968336D01*
X43281573Y-146978351D01*
X43281573Y-146978351D01*
G37*
X43281573Y-146978351D02*
X43441107Y-146982986D01*
X43559915Y-146988807D01*
X43648122Y-146997105D01*
X43715853Y-147009169D01*
X43773232Y-147026289D01*
X43825737Y-147047683D01*
X43968083Y-147134862D01*
X44084074Y-147253704D01*
X44154024Y-147373910D01*
X44173021Y-147447089D01*
X44185962Y-147552642D01*
X44190549Y-147665098D01*
X44173330Y-147860062D01*
X44119734Y-148021270D01*
X44028258Y-148151971D01*
X43926063Y-148237242D01*
X43804102Y-148318751D01*
X43903045Y-148369228D01*
X44014020Y-148446484D01*
X44117002Y-148554032D01*
X44193973Y-148672313D01*
X44205523Y-148697583D01*
X44242945Y-148832380D01*
X44258327Y-148991763D01*
X44250868Y-149154113D01*
X44226956Y-149274935D01*
X44152643Y-149456786D01*
X44045883Y-149600018D01*
X43904954Y-149706532D01*
X43788238Y-149759133D01*
X43731983Y-149770482D01*
X43638883Y-149779908D01*
X43519367Y-149787250D01*
X43383862Y-149792345D01*
X43242795Y-149795031D01*
X43106596Y-149795148D01*
X42985690Y-149792532D01*
X42890508Y-149787023D01*
X42831475Y-149778459D01*
X42820328Y-149774146D01*
X42812405Y-149760528D01*
X42806353Y-149728234D01*
X42802149Y-149673230D01*
X42799772Y-149591483D01*
X42799647Y-149566845D01*
X43069146Y-149566845D01*
X43329756Y-149566287D01*
X43469635Y-149563227D01*
X43571710Y-149553626D01*
X43648798Y-149535805D01*
X43692068Y-149518790D01*
X43823110Y-149434165D01*
X43914889Y-149318688D01*
X43968188Y-149170974D01*
X43983902Y-149001946D01*
X43964826Y-148824698D01*
X43908462Y-148680543D01*
X43814074Y-148568879D01*
X43680925Y-148489104D01*
X43508279Y-148440618D01*
X43295400Y-148422818D01*
X43274624Y-148422701D01*
X43101224Y-148422701D01*
X43085465Y-148518046D01*
X43080405Y-148573776D01*
X43075987Y-148670256D01*
X43072496Y-148797388D01*
X43070214Y-148945074D01*
X43069425Y-149090118D01*
X43069146Y-149566845D01*
X42799647Y-149566845D01*
X42799200Y-149478960D01*
X42800411Y-149331626D01*
X42803384Y-149145448D01*
X42808098Y-148916394D01*
X42814312Y-148649460D01*
X42820424Y-148404478D01*
X42826768Y-148164506D01*
X42832920Y-147944206D01*
X43094703Y-147944206D01*
X43095312Y-148057790D01*
X43098747Y-148130442D01*
X43107194Y-148172074D01*
X43122842Y-148192600D01*
X43147879Y-148201934D01*
X43151778Y-148202807D01*
X43243388Y-148212610D01*
X43360852Y-148211502D01*
X43485520Y-148201105D01*
X43598740Y-148183042D01*
X43681863Y-148158935D01*
X43687981Y-148156169D01*
X43790258Y-148081051D01*
X43867492Y-147972257D01*
X43917360Y-147841604D01*
X43937537Y-147700911D01*
X43925701Y-147561995D01*
X43879527Y-147436674D01*
X43840581Y-147380094D01*
X43771081Y-147310352D01*
X43692743Y-147262224D01*
X43593855Y-147231401D01*
X43462704Y-147213574D01*
X43371940Y-147207718D01*
X43128087Y-147195871D01*
X43111460Y-147446974D01*
X43103613Y-147594456D01*
X43097725Y-147760199D01*
X43094834Y-147913363D01*
X43094703Y-147944206D01*
X42832920Y-147944206D01*
X42833131Y-147936669D01*
X42839298Y-147728094D01*
X42845057Y-147545907D01*
X42850193Y-147397233D01*
X42854494Y-147289198D01*
X42856038Y-147256930D01*
X42871078Y-146968336D01*
X43281573Y-146978351D01*
D10*
X199600315Y-111115766D02*
X201184234Y-112699685D01*
X199770021Y-110946060D02*
X201353940Y-112529979D01*
X199685168Y-111030913D02*
X201269087Y-112614832D01*
X203425763Y-108874237D02*
X202966143Y-109333857D01*
X199508391Y-112791609D02*
X199968010Y-112331990D01*
X202174184Y-108541897D02*
X199176051Y-111540030D01*
X203758103Y-110125816D02*
X202174184Y-108541897D01*
X200759970Y-113123949D02*
X203758103Y-110125816D01*
X199176051Y-111540030D02*
X200759970Y-113123949D01*
X208512001Y-142410000D02*
X218252001Y-142410000D01*
X208512001Y-130820000D02*
X210002001Y-130820000D01*
X208512001Y-139350000D02*
X208512001Y-142410000D01*
X218262001Y-130820000D02*
X218262001Y-135540000D01*
X218252001Y-139350000D02*
X218252001Y-142410000D01*
X208512001Y-130820000D02*
X208512001Y-135540000D01*
X217072001Y-130820000D02*
X218252001Y-130820000D01*
X214172001Y-130820000D02*
X214702001Y-130820000D01*
X211722001Y-130820000D02*
X212552001Y-130820000D01*
X184226001Y-142410000D02*
X193966001Y-142410000D01*
X184226001Y-130820000D02*
X185716001Y-130820000D01*
X184226001Y-139350000D02*
X184226001Y-142410000D01*
X193976001Y-130820000D02*
X193976001Y-135540000D01*
X193966001Y-139350000D02*
X193966001Y-142410000D01*
X184226001Y-130820000D02*
X184226001Y-135540000D01*
X192786001Y-130820000D02*
X193966001Y-130820000D01*
X189886001Y-130820000D02*
X190416001Y-130820000D01*
X187436001Y-130820000D02*
X188266001Y-130820000D01*
X159940001Y-142410000D02*
X169680001Y-142410000D01*
X159940001Y-130820000D02*
X161430001Y-130820000D01*
X159940001Y-139350000D02*
X159940001Y-142410000D01*
X169690001Y-130820000D02*
X169690001Y-135540000D01*
X169680001Y-139350000D02*
X169680001Y-142410000D01*
X159940001Y-130820000D02*
X159940001Y-135540000D01*
X168500001Y-130820000D02*
X169680001Y-130820000D01*
X165600001Y-130820000D02*
X166130001Y-130820000D01*
X163150001Y-130820000D02*
X163980001Y-130820000D01*
X135654001Y-142410000D02*
X145394001Y-142410000D01*
X135654001Y-130820000D02*
X137144001Y-130820000D01*
X135654001Y-139350000D02*
X135654001Y-142410000D01*
X145404001Y-130820000D02*
X145404001Y-135540000D01*
X145394001Y-139350000D02*
X145394001Y-142410000D01*
X135654001Y-130820000D02*
X135654001Y-135540000D01*
X144214001Y-130820000D02*
X145394001Y-130820000D01*
X141314001Y-130820000D02*
X141844001Y-130820000D01*
X138864001Y-130820000D02*
X139694001Y-130820000D01*
X111368002Y-142410000D02*
X121108002Y-142410000D01*
X111368002Y-130820000D02*
X112858002Y-130820000D01*
X111368002Y-139350000D02*
X111368002Y-142410000D01*
X121118002Y-130820000D02*
X121118002Y-135540000D01*
X121108002Y-139350000D02*
X121108002Y-142410000D01*
X111368002Y-130820000D02*
X111368002Y-135540000D01*
X119928002Y-130820000D02*
X121108002Y-130820000D01*
X117028002Y-130820000D02*
X117558002Y-130820000D01*
X114578002Y-130820000D02*
X115408002Y-130820000D01*
X87082001Y-142410000D02*
X96822001Y-142410000D01*
X87082001Y-130820000D02*
X88572001Y-130820000D01*
X87082001Y-139350000D02*
X87082001Y-142410000D01*
X96832001Y-130820000D02*
X96832001Y-135540000D01*
X96822001Y-139350000D02*
X96822001Y-142410000D01*
X87082001Y-130820000D02*
X87082001Y-135540000D01*
X95642001Y-130820000D02*
X96822001Y-130820000D01*
X92742001Y-130820000D02*
X93272001Y-130820000D01*
X90292001Y-130820000D02*
X91122001Y-130820000D01*
X62796001Y-142410000D02*
X72536001Y-142410000D01*
X62796001Y-130820000D02*
X64286001Y-130820000D01*
X62796001Y-139350000D02*
X62796001Y-142410000D01*
X72546001Y-130820000D02*
X72546001Y-135540000D01*
X72536001Y-139350000D02*
X72536001Y-142410000D01*
X62796001Y-130820000D02*
X62796001Y-135540000D01*
X71356001Y-130820000D02*
X72536001Y-130820000D01*
X68456001Y-130820000D02*
X68986001Y-130820000D01*
X66006001Y-130820000D02*
X66836001Y-130820000D01*
X208512001Y-118409999D02*
X218252001Y-118409999D01*
X208512001Y-106819999D02*
X210002001Y-106819999D01*
X208512001Y-115349999D02*
X208512001Y-118409999D01*
X218262001Y-106819999D02*
X218262001Y-111539999D01*
X218252001Y-115349999D02*
X218252001Y-118409999D01*
X208512001Y-106819999D02*
X208512001Y-111539999D01*
X217072001Y-106819999D02*
X218252001Y-106819999D01*
X214172001Y-106819999D02*
X214702001Y-106819999D01*
X211722001Y-106819999D02*
X212552001Y-106819999D01*
X184226001Y-118409999D02*
X193966001Y-118409999D01*
X184226001Y-106819999D02*
X185716001Y-106819999D01*
X184226001Y-115349999D02*
X184226001Y-118409999D01*
X193976001Y-106819999D02*
X193976001Y-111539999D01*
X193966001Y-115349999D02*
X193966001Y-118409999D01*
X184226001Y-106819999D02*
X184226001Y-111539999D01*
X192786001Y-106819999D02*
X193966001Y-106819999D01*
X189886001Y-106819999D02*
X190416001Y-106819999D01*
X187436001Y-106819999D02*
X188266001Y-106819999D01*
X159940001Y-118409999D02*
X169680001Y-118409999D01*
X159940001Y-106819999D02*
X161430001Y-106819999D01*
X159940001Y-115349999D02*
X159940001Y-118409999D01*
X169690001Y-106819999D02*
X169690001Y-111539999D01*
X169680001Y-115349999D02*
X169680001Y-118409999D01*
X159940001Y-106819999D02*
X159940001Y-111539999D01*
X168500001Y-106819999D02*
X169680001Y-106819999D01*
X165600001Y-106819999D02*
X166130001Y-106819999D01*
X163150001Y-106819999D02*
X163980001Y-106819999D01*
X135654001Y-118409999D02*
X145394001Y-118409999D01*
X135654001Y-106819999D02*
X137144001Y-106819999D01*
X135654001Y-115349999D02*
X135654001Y-118409999D01*
X145404001Y-106819999D02*
X145404001Y-111539999D01*
X145394001Y-115349999D02*
X145394001Y-118409999D01*
X135654001Y-106819999D02*
X135654001Y-111539999D01*
X144214001Y-106819999D02*
X145394001Y-106819999D01*
X141314001Y-106819999D02*
X141844001Y-106819999D01*
X138864001Y-106819999D02*
X139694001Y-106819999D01*
X111368002Y-118409999D02*
X121108002Y-118409999D01*
X111368002Y-106819999D02*
X112858002Y-106819999D01*
X111368002Y-115349999D02*
X111368002Y-118409999D01*
X121118002Y-106819999D02*
X121118002Y-111539999D01*
X121108002Y-115349999D02*
X121108002Y-118409999D01*
X111368002Y-106819999D02*
X111368002Y-111539999D01*
X119928002Y-106819999D02*
X121108002Y-106819999D01*
X117028002Y-106819999D02*
X117558002Y-106819999D01*
X114578002Y-106819999D02*
X115408002Y-106819999D01*
X87082001Y-118409999D02*
X96822001Y-118409999D01*
X87082001Y-106819999D02*
X88572001Y-106819999D01*
X87082001Y-115349999D02*
X87082001Y-118409999D01*
X96832001Y-106819999D02*
X96832001Y-111539999D01*
X96822001Y-115349999D02*
X96822001Y-118409999D01*
X87082001Y-106819999D02*
X87082001Y-111539999D01*
X95642001Y-106819999D02*
X96822001Y-106819999D01*
X92742001Y-106819999D02*
X93272001Y-106819999D01*
X90292001Y-106819999D02*
X91122001Y-106819999D01*
X62796001Y-118409999D02*
X72536001Y-118409999D01*
X62796001Y-106819999D02*
X64286001Y-106819999D01*
X62796001Y-115349999D02*
X62796001Y-118409999D01*
X72546001Y-106819999D02*
X72546001Y-111539999D01*
X72536001Y-115349999D02*
X72536001Y-118409999D01*
X62796001Y-106819999D02*
X62796001Y-111539999D01*
X71356001Y-106819999D02*
X72536001Y-106819999D01*
X68456001Y-106819999D02*
X68986001Y-106819999D01*
X66006001Y-106819999D02*
X66836001Y-106819999D01*
X38510001Y-118409999D02*
X48250001Y-118409999D01*
X38510001Y-106819999D02*
X40000001Y-106819999D01*
X38510001Y-115349999D02*
X38510001Y-118409999D01*
X48260001Y-106819999D02*
X48260001Y-111539999D01*
X48250001Y-115349999D02*
X48250001Y-118409999D01*
X38510001Y-106819999D02*
X38510001Y-111539999D01*
X47070001Y-106819999D02*
X48250001Y-106819999D01*
X44170001Y-106819999D02*
X44700001Y-106819999D01*
X41720001Y-106819999D02*
X42550001Y-106819999D01*
X208512001Y-94409999D02*
X218252001Y-94409999D01*
X208512001Y-82819999D02*
X210002001Y-82819999D01*
X208512001Y-91349999D02*
X208512001Y-94409999D01*
X218262001Y-82819999D02*
X218262001Y-87539999D01*
X218252001Y-91349999D02*
X218252001Y-94409999D01*
X208512001Y-82819999D02*
X208512001Y-87539999D01*
X217072001Y-82819999D02*
X218252001Y-82819999D01*
X214172001Y-82819999D02*
X214702001Y-82819999D01*
X211722001Y-82819999D02*
X212552001Y-82819999D01*
X184226001Y-94409999D02*
X193966001Y-94409999D01*
X184226001Y-82819999D02*
X185716001Y-82819999D01*
X184226001Y-91349999D02*
X184226001Y-94409999D01*
X193976001Y-82819999D02*
X193976001Y-87539999D01*
X193966001Y-91349999D02*
X193966001Y-94409999D01*
X184226001Y-82819999D02*
X184226001Y-87539999D01*
X192786001Y-82819999D02*
X193966001Y-82819999D01*
X189886001Y-82819999D02*
X190416001Y-82819999D01*
X187436001Y-82819999D02*
X188266001Y-82819999D01*
X159940001Y-94409999D02*
X169680001Y-94409999D01*
X159940001Y-82819999D02*
X161430001Y-82819999D01*
X159940001Y-91349999D02*
X159940001Y-94409999D01*
X169690001Y-82819999D02*
X169690001Y-87539999D01*
X169680001Y-91349999D02*
X169680001Y-94409999D01*
X159940001Y-82819999D02*
X159940001Y-87539999D01*
X168500001Y-82819999D02*
X169680001Y-82819999D01*
X165600001Y-82819999D02*
X166130001Y-82819999D01*
X163150001Y-82819999D02*
X163980001Y-82819999D01*
X135654001Y-94409999D02*
X145394001Y-94409999D01*
X135654001Y-82819999D02*
X137144001Y-82819999D01*
X135654001Y-91349999D02*
X135654001Y-94409999D01*
X145404001Y-82819999D02*
X145404001Y-87539999D01*
X145394001Y-91349999D02*
X145394001Y-94409999D01*
X135654001Y-82819999D02*
X135654001Y-87539999D01*
X144214001Y-82819999D02*
X145394001Y-82819999D01*
X141314001Y-82819999D02*
X141844001Y-82819999D01*
X138864001Y-82819999D02*
X139694001Y-82819999D01*
X111368002Y-94409999D02*
X121108002Y-94409999D01*
X111368002Y-82819999D02*
X112858002Y-82819999D01*
X111368002Y-91349999D02*
X111368002Y-94409999D01*
X121118002Y-82819999D02*
X121118002Y-87539999D01*
X121108002Y-91349999D02*
X121108002Y-94409999D01*
X111368002Y-82819999D02*
X111368002Y-87539999D01*
X119928002Y-82819999D02*
X121108002Y-82819999D01*
X117028002Y-82819999D02*
X117558002Y-82819999D01*
X114578002Y-82819999D02*
X115408002Y-82819999D01*
X87082001Y-94409999D02*
X96822001Y-94409999D01*
X87082001Y-82819999D02*
X88572001Y-82819999D01*
X87082001Y-91349999D02*
X87082001Y-94409999D01*
X96832001Y-82819999D02*
X96832001Y-87539999D01*
X96822001Y-91349999D02*
X96822001Y-94409999D01*
X87082001Y-82819999D02*
X87082001Y-87539999D01*
X95642001Y-82819999D02*
X96822001Y-82819999D01*
X92742001Y-82819999D02*
X93272001Y-82819999D01*
X90292001Y-82819999D02*
X91122001Y-82819999D01*
X62796001Y-94409999D02*
X72536001Y-94409999D01*
X62796001Y-82819999D02*
X64286001Y-82819999D01*
X62796001Y-91349999D02*
X62796001Y-94409999D01*
X72546001Y-82819999D02*
X72546001Y-87539999D01*
X72536001Y-91349999D02*
X72536001Y-94409999D01*
X62796001Y-82819999D02*
X62796001Y-87539999D01*
X71356001Y-82819999D02*
X72536001Y-82819999D01*
X68456001Y-82819999D02*
X68986001Y-82819999D01*
X66006001Y-82819999D02*
X66836001Y-82819999D01*
X38510001Y-94409999D02*
X48250001Y-94409999D01*
X38510001Y-82819999D02*
X40000001Y-82819999D01*
X38510001Y-91349999D02*
X38510001Y-94409999D01*
X48260001Y-82819999D02*
X48260001Y-87539999D01*
X48250001Y-91349999D02*
X48250001Y-94409999D01*
X38510001Y-82819999D02*
X38510001Y-87539999D01*
X47070001Y-82819999D02*
X48250001Y-82819999D01*
X44170001Y-82819999D02*
X44700001Y-82819999D01*
X41720001Y-82819999D02*
X42550001Y-82819999D01*
X208512001Y-70410000D02*
X218252001Y-70410000D01*
X208512001Y-58820000D02*
X210002001Y-58820000D01*
X208512001Y-67350000D02*
X208512001Y-70410000D01*
X218262001Y-58820000D02*
X218262001Y-63540000D01*
X218252001Y-67350000D02*
X218252001Y-70410000D01*
X208512001Y-58820000D02*
X208512001Y-63540000D01*
X217072001Y-58820000D02*
X218252001Y-58820000D01*
X214172001Y-58820000D02*
X214702001Y-58820000D01*
X211722001Y-58820000D02*
X212552001Y-58820000D01*
X184226001Y-70410000D02*
X193966001Y-70410000D01*
X184226001Y-58820000D02*
X185716001Y-58820000D01*
X184226001Y-67350000D02*
X184226001Y-70410000D01*
X193976001Y-58820000D02*
X193976001Y-63540000D01*
X193966001Y-67350000D02*
X193966001Y-70410000D01*
X184226001Y-58820000D02*
X184226001Y-63540000D01*
X192786001Y-58820000D02*
X193966001Y-58820000D01*
X189886001Y-58820000D02*
X190416001Y-58820000D01*
X187436001Y-58820000D02*
X188266001Y-58820000D01*
X159940001Y-70410000D02*
X169680001Y-70410000D01*
X159940001Y-58820000D02*
X161430001Y-58820000D01*
X159940001Y-67350000D02*
X159940001Y-70410000D01*
X169690001Y-58820000D02*
X169690001Y-63540000D01*
X169680001Y-67350000D02*
X169680001Y-70410000D01*
X159940001Y-58820000D02*
X159940001Y-63540000D01*
X168500001Y-58820000D02*
X169680001Y-58820000D01*
X165600001Y-58820000D02*
X166130001Y-58820000D01*
X163150001Y-58820000D02*
X163980001Y-58820000D01*
X135654001Y-70410000D02*
X145394001Y-70410000D01*
X135654001Y-58820000D02*
X137144001Y-58820000D01*
X135654001Y-67350000D02*
X135654001Y-70410000D01*
X145404001Y-58820000D02*
X145404001Y-63540000D01*
X145394001Y-67350000D02*
X145394001Y-70410000D01*
X135654001Y-58820000D02*
X135654001Y-63540000D01*
X144214001Y-58820000D02*
X145394001Y-58820000D01*
X141314001Y-58820000D02*
X141844001Y-58820000D01*
X138864001Y-58820000D02*
X139694001Y-58820000D01*
X111368002Y-70410000D02*
X121108002Y-70410000D01*
X111368002Y-58820000D02*
X112858002Y-58820000D01*
X111368002Y-67350000D02*
X111368002Y-70410000D01*
X121118002Y-58820000D02*
X121118002Y-63540000D01*
X121108002Y-67350000D02*
X121108002Y-70410000D01*
X111368002Y-58820000D02*
X111368002Y-63540000D01*
X119928002Y-58820000D02*
X121108002Y-58820000D01*
X117028002Y-58820000D02*
X117558002Y-58820000D01*
X114578002Y-58820000D02*
X115408002Y-58820000D01*
X62796001Y-70410000D02*
X72536001Y-70410000D01*
X62796001Y-58820000D02*
X64286001Y-58820000D01*
X62796001Y-67350000D02*
X62796001Y-70410000D01*
X72546001Y-58820000D02*
X72546001Y-63540000D01*
X72536001Y-67350000D02*
X72536001Y-70410000D01*
X62796001Y-58820000D02*
X62796001Y-63540000D01*
X71356001Y-58820000D02*
X72536001Y-58820000D01*
X68456001Y-58820000D02*
X68986001Y-58820000D01*
X66006001Y-58820000D02*
X66836001Y-58820000D01*
X87082001Y-70410000D02*
X96822001Y-70410000D01*
X87082001Y-58820000D02*
X88572001Y-58820000D01*
X87082001Y-67350000D02*
X87082001Y-70410000D01*
X96832001Y-58820000D02*
X96832001Y-63540000D01*
X96822001Y-67350000D02*
X96822001Y-70410000D01*
X87082001Y-58820000D02*
X87082001Y-63540000D01*
X95642001Y-58820000D02*
X96822001Y-58820000D01*
X92742001Y-58820000D02*
X93272001Y-58820000D01*
X90292001Y-58820000D02*
X91122001Y-58820000D01*
X38510001Y-142410000D02*
X48250001Y-142410000D01*
X38510001Y-130820000D02*
X40000001Y-130820000D01*
X38510001Y-139350000D02*
X38510001Y-142410000D01*
X48260001Y-130820000D02*
X48260001Y-135540000D01*
X48250001Y-139350000D02*
X48250001Y-142410000D01*
X38510001Y-130820000D02*
X38510001Y-135540000D01*
X47070001Y-130820000D02*
X48250001Y-130820000D01*
X44170001Y-130820000D02*
X44700001Y-130820000D01*
X41720001Y-130820000D02*
X42550001Y-130820000D01*
X38510001Y-70410000D02*
X48250001Y-70410000D01*
X38510001Y-58820000D02*
X40000001Y-58820000D01*
X38510001Y-67350000D02*
X38510001Y-70410000D01*
X48260001Y-58820000D02*
X48260001Y-63540000D01*
X48250001Y-67350000D02*
X48250001Y-70410000D01*
X38510001Y-58820000D02*
X38510001Y-63540000D01*
X47070001Y-58820000D02*
X48250001Y-58820000D01*
X44170001Y-58820000D02*
X44700001Y-58820000D01*
X41720001Y-58820000D02*
X42550001Y-58820000D01*
X203238298Y-127025400D02*
G75*
G03X203238298Y-127025400I-406598J0D01*
G01*
X202017366Y-128325400D02*
X203690699Y-128325400D01*
X202017366Y-127965400D02*
X202017366Y-128325400D01*
X200344034Y-127965400D02*
X202017366Y-127965400D01*
X200344034Y-128325400D02*
X200344034Y-127965400D01*
X198670700Y-128325400D02*
X200344034Y-128325400D01*
X198670701Y-118105400D02*
X198670700Y-128325400D01*
X203690700Y-118105400D02*
X198670701Y-118105400D01*
X203690699Y-128325400D02*
X203690700Y-118105400D01*
D12*
X197454094Y-77099156D02*
X197391232Y-77176386D01*
X197495403Y-77011149D02*
X197454094Y-77099156D01*
X197518752Y-76915958D02*
X197495403Y-77011149D01*
X197520548Y-76817176D02*
X197518752Y-76915958D01*
X197498995Y-76720189D02*
X197520548Y-76817176D01*
X197457686Y-76632182D02*
X197498995Y-76720189D01*
X197394824Y-76554952D02*
X197457686Y-76632182D01*
X197321186Y-76492090D02*
X197394824Y-76554952D01*
X197229588Y-76447189D02*
X197321186Y-76492090D01*
X197132601Y-76422044D02*
X197229588Y-76447189D01*
X197032022Y-76422044D02*
X197132601Y-76422044D01*
X196933239Y-76441801D02*
X197032022Y-76422044D01*
X196843437Y-76484906D02*
X196933239Y-76441801D01*
X196762614Y-76547768D02*
X196843437Y-76484906D01*
X196701548Y-76626794D02*
X196762614Y-76547768D01*
X196658443Y-76720189D02*
X196701548Y-76626794D01*
X196638687Y-76818972D02*
X196658443Y-76720189D01*
X196642279Y-76923143D02*
X196638687Y-76818972D01*
X196665627Y-77021925D02*
X196642279Y-76923143D01*
X196712325Y-77111728D02*
X196665627Y-77021925D01*
X196775187Y-77188958D02*
X196712325Y-77111728D01*
X196854213Y-77246432D02*
X196775187Y-77188958D01*
X196942219Y-77287741D02*
X196854213Y-77246432D01*
X197037410Y-77307498D02*
X196942219Y-77287741D01*
X197136193Y-77305701D02*
X197037410Y-77307498D01*
X197229588Y-77280557D02*
X197136193Y-77305701D01*
X197315798Y-77237452D02*
X197229588Y-77280557D01*
X197391232Y-77176386D02*
X197315798Y-77237452D01*
X197870778Y-77390116D02*
X197752238Y-77533800D01*
X197958784Y-77230267D02*
X197870778Y-77390116D01*
X198014462Y-77056050D02*
X197958784Y-77230267D01*
X198034218Y-76871057D02*
X198014462Y-77056050D01*
X198018054Y-76689656D02*
X198034218Y-76871057D01*
X197965969Y-76511847D02*
X198018054Y-76689656D01*
X197881554Y-76348406D02*
X197965969Y-76511847D01*
X197768403Y-76206518D02*
X197881554Y-76348406D01*
X197642679Y-76098755D02*
X197768403Y-76206518D01*
X197497199Y-76010749D02*
X197642679Y-76098755D01*
X197339147Y-75953275D02*
X197497199Y-76010749D01*
X197173910Y-75920946D02*
X197339147Y-75953275D01*
X197006877Y-75919150D02*
X197173910Y-75920946D01*
X196841640Y-75944295D02*
X197006877Y-75919150D01*
X196681792Y-75999972D02*
X196841640Y-75944295D01*
X196534516Y-76082591D02*
X196681792Y-75999972D01*
X196403404Y-76188558D02*
X196534516Y-76082591D01*
X196299233Y-76317873D02*
X196403404Y-76188558D01*
X196216615Y-76465150D02*
X196299233Y-76317873D01*
X196160937Y-76624998D02*
X196216615Y-76465150D01*
X196133996Y-76788439D02*
X196160937Y-76624998D01*
X196133996Y-76957268D02*
X196133996Y-76788439D01*
X196166325Y-77122504D02*
X196133996Y-76957268D01*
X196225595Y-77278761D02*
X196166325Y-77122504D01*
X196313601Y-77424241D02*
X196225595Y-77278761D01*
X196419568Y-77548168D02*
X196313601Y-77424241D01*
X196565049Y-77664912D02*
X196419568Y-77548168D01*
X196728489Y-77749326D02*
X196565049Y-77664912D01*
X196906298Y-77801412D02*
X196728489Y-77749326D01*
X197089496Y-77815780D02*
X196906298Y-77801412D01*
X197274489Y-77796023D02*
X197089496Y-77815780D01*
X197448706Y-77740346D02*
X197274489Y-77796023D01*
X197610350Y-77650543D02*
X197448706Y-77740346D01*
X197752238Y-77533800D02*
X197610350Y-77650543D01*
X202840452Y-71702022D02*
X202777590Y-71779252D01*
X202881761Y-71614015D02*
X202840452Y-71702022D01*
X202905109Y-71518824D02*
X202881761Y-71614015D01*
X202906905Y-71420042D02*
X202905109Y-71518824D01*
X202885353Y-71323055D02*
X202906905Y-71420042D01*
X202844044Y-71235048D02*
X202885353Y-71323055D01*
X202781182Y-71157818D02*
X202844044Y-71235048D01*
X202707544Y-71094956D02*
X202781182Y-71157818D01*
X202615945Y-71050055D02*
X202707544Y-71094956D01*
X202518958Y-71024910D02*
X202615945Y-71050055D01*
X202418380Y-71024910D02*
X202518958Y-71024910D01*
X202319597Y-71044667D02*
X202418380Y-71024910D01*
X202229794Y-71087772D02*
X202319597Y-71044667D01*
X202148972Y-71150634D02*
X202229794Y-71087772D01*
X202087906Y-71229660D02*
X202148972Y-71150634D01*
X202044801Y-71323055D02*
X202087906Y-71229660D01*
X202025044Y-71421838D02*
X202044801Y-71323055D01*
X202028636Y-71526009D02*
X202025044Y-71421838D01*
X202051985Y-71624791D02*
X202028636Y-71526009D01*
X202098682Y-71714594D02*
X202051985Y-71624791D01*
X202163340Y-71793620D02*
X202098682Y-71714594D01*
X202240570Y-71849298D02*
X202163340Y-71793620D01*
X202328577Y-71890607D02*
X202240570Y-71849298D01*
X202423768Y-71910364D02*
X202328577Y-71890607D01*
X202522550Y-71908568D02*
X202423768Y-71910364D01*
X202615945Y-71883423D02*
X202522550Y-71908568D01*
X202702156Y-71840318D02*
X202615945Y-71883423D01*
X202777590Y-71779252D02*
X202702156Y-71840318D01*
X203257135Y-71992982D02*
X203138596Y-72136666D01*
X203345142Y-71833133D02*
X203257135Y-71992982D01*
X203400820Y-71658916D02*
X203345142Y-71833133D01*
X203420576Y-71473923D02*
X203400820Y-71658916D01*
X203404412Y-71292522D02*
X203420576Y-71473923D01*
X203352326Y-71114713D02*
X203404412Y-71292522D01*
X203267912Y-70951272D02*
X203352326Y-71114713D01*
X203154761Y-70809384D02*
X203267912Y-70951272D01*
X203029037Y-70701621D02*
X203154761Y-70809384D01*
X202883557Y-70613615D02*
X203029037Y-70701621D01*
X202725504Y-70556141D02*
X202883557Y-70613615D01*
X202560268Y-70523812D02*
X202725504Y-70556141D01*
X202393235Y-70522016D02*
X202560268Y-70523812D01*
X202227998Y-70547161D02*
X202393235Y-70522016D01*
X202068150Y-70602838D02*
X202227998Y-70547161D01*
X201920873Y-70685457D02*
X202068150Y-70602838D01*
X201789762Y-70791424D02*
X201920873Y-70685457D01*
X201685591Y-70920739D02*
X201789762Y-70791424D01*
X201602972Y-71068016D02*
X201685591Y-70920739D01*
X201547295Y-71227864D02*
X201602972Y-71068016D01*
X201520354Y-71391305D02*
X201547295Y-71227864D01*
X201520354Y-71560134D02*
X201520354Y-71391305D01*
X201552683Y-71725370D02*
X201520354Y-71560134D01*
X201611953Y-71881627D02*
X201552683Y-71725370D01*
X201699959Y-72027107D02*
X201611953Y-71881627D01*
X201805926Y-72151034D02*
X201699959Y-72027107D01*
X201951406Y-72267778D02*
X201805926Y-72151034D01*
X202114847Y-72352192D02*
X201951406Y-72267778D01*
X202292656Y-72404278D02*
X202114847Y-72352192D01*
X202475853Y-72418646D02*
X202292656Y-72404278D01*
X202660846Y-72398890D02*
X202475853Y-72418646D01*
X202835063Y-72343212D02*
X202660846Y-72398890D01*
X202996708Y-72253409D02*
X202835063Y-72343212D01*
X203138596Y-72136666D02*
X202996708Y-72253409D01*
D13*
X197974949Y-75964051D02*
X197795344Y-76143656D01*
X201567051Y-72371949D02*
X201746656Y-72192344D01*
X197974949Y-75964051D02*
X197076923Y-75066026D01*
X198872974Y-76862077D02*
X197974949Y-75964051D01*
X202465077Y-73269974D02*
X198872974Y-76862077D01*
X201567051Y-72371949D02*
X202465077Y-73269974D01*
X200669026Y-71473923D02*
X201567051Y-72371949D01*
X197076923Y-75066026D02*
X200669026Y-71473923D01*
D12*
X205135906Y-74411844D02*
X205198768Y-74334614D01*
X205094597Y-74499851D02*
X205135906Y-74411844D01*
X205071248Y-74595042D02*
X205094597Y-74499851D01*
X205069452Y-74693824D02*
X205071248Y-74595042D01*
X205091005Y-74790811D02*
X205069452Y-74693824D01*
X205132314Y-74878818D02*
X205091005Y-74790811D01*
X205195176Y-74956048D02*
X205132314Y-74878818D01*
X205268814Y-75018910D02*
X205195176Y-74956048D01*
X205360412Y-75063811D02*
X205268814Y-75018910D01*
X205457399Y-75088956D02*
X205360412Y-75063811D01*
X205557978Y-75088956D02*
X205457399Y-75088956D01*
X205656761Y-75069199D02*
X205557978Y-75088956D01*
X205746563Y-75026094D02*
X205656761Y-75069199D01*
X205827386Y-74963232D02*
X205746563Y-75026094D01*
X205888452Y-74884206D02*
X205827386Y-74963232D01*
X205931557Y-74790811D02*
X205888452Y-74884206D01*
X205951313Y-74692028D02*
X205931557Y-74790811D01*
X205947721Y-74587857D02*
X205951313Y-74692028D01*
X205924373Y-74489075D02*
X205947721Y-74587857D01*
X205877675Y-74399272D02*
X205924373Y-74489075D01*
X205814813Y-74322042D02*
X205877675Y-74399272D01*
X205735787Y-74264568D02*
X205814813Y-74322042D01*
X205647781Y-74223259D02*
X205735787Y-74264568D01*
X205552590Y-74203502D02*
X205647781Y-74223259D01*
X205453807Y-74205299D02*
X205552590Y-74203502D01*
X205360412Y-74230443D02*
X205453807Y-74205299D01*
X205274202Y-74273548D02*
X205360412Y-74230443D01*
X205198768Y-74334614D02*
X205274202Y-74273548D01*
X204719222Y-74120884D02*
X204837762Y-73977200D01*
X204631216Y-74280733D02*
X204719222Y-74120884D01*
X204575538Y-74454950D02*
X204631216Y-74280733D01*
X204555782Y-74639943D02*
X204575538Y-74454950D01*
X204571946Y-74821344D02*
X204555782Y-74639943D01*
X204624031Y-74999153D02*
X204571946Y-74821344D01*
X204708446Y-75162594D02*
X204624031Y-74999153D01*
X204821597Y-75304482D02*
X204708446Y-75162594D01*
X204947321Y-75412245D02*
X204821597Y-75304482D01*
X205092801Y-75500251D02*
X204947321Y-75412245D01*
X205250853Y-75557725D02*
X205092801Y-75500251D01*
X205416090Y-75590054D02*
X205250853Y-75557725D01*
X205583123Y-75591850D02*
X205416090Y-75590054D01*
X205748360Y-75566705D02*
X205583123Y-75591850D01*
X205908208Y-75511028D02*
X205748360Y-75566705D01*
X206055484Y-75428409D02*
X205908208Y-75511028D01*
X206186596Y-75322442D02*
X206055484Y-75428409D01*
X206290767Y-75193127D02*
X206186596Y-75322442D01*
X206373385Y-75045850D02*
X206290767Y-75193127D01*
X206429063Y-74886002D02*
X206373385Y-75045850D01*
X206456004Y-74722561D02*
X206429063Y-74886002D01*
X206456004Y-74553732D02*
X206456004Y-74722561D01*
X206423675Y-74388496D02*
X206456004Y-74553732D01*
X206364405Y-74232239D02*
X206423675Y-74388496D01*
X206276399Y-74086759D02*
X206364405Y-74232239D01*
X206170432Y-73962832D02*
X206276399Y-74086759D01*
X206024951Y-73846088D02*
X206170432Y-73962832D01*
X205861511Y-73761674D02*
X206024951Y-73846088D01*
X205683702Y-73709588D02*
X205861511Y-73761674D01*
X205500504Y-73695220D02*
X205683702Y-73709588D01*
X205315511Y-73714977D02*
X205500504Y-73695220D01*
X205141294Y-73770654D02*
X205315511Y-73714977D01*
X204979650Y-73860457D02*
X205141294Y-73770654D01*
X204837762Y-73977200D02*
X204979650Y-73860457D01*
X199749548Y-79808978D02*
X199812410Y-79731748D01*
X199708239Y-79896985D02*
X199749548Y-79808978D01*
X199684891Y-79992176D02*
X199708239Y-79896985D01*
X199683095Y-80090958D02*
X199684891Y-79992176D01*
X199704647Y-80187945D02*
X199683095Y-80090958D01*
X199745956Y-80275952D02*
X199704647Y-80187945D01*
X199808818Y-80353182D02*
X199745956Y-80275952D01*
X199882456Y-80416044D02*
X199808818Y-80353182D01*
X199974055Y-80460945D02*
X199882456Y-80416044D01*
X200071042Y-80486090D02*
X199974055Y-80460945D01*
X200171620Y-80486090D02*
X200071042Y-80486090D01*
X200270403Y-80466333D02*
X200171620Y-80486090D01*
X200360206Y-80423228D02*
X200270403Y-80466333D01*
X200441028Y-80360366D02*
X200360206Y-80423228D01*
X200502094Y-80281340D02*
X200441028Y-80360366D01*
X200545199Y-80187945D02*
X200502094Y-80281340D01*
X200564956Y-80089162D02*
X200545199Y-80187945D01*
X200561364Y-79984991D02*
X200564956Y-80089162D01*
X200538015Y-79886209D02*
X200561364Y-79984991D01*
X200491318Y-79796406D02*
X200538015Y-79886209D01*
X200426660Y-79717380D02*
X200491318Y-79796406D01*
X200349430Y-79661702D02*
X200426660Y-79717380D01*
X200261423Y-79620393D02*
X200349430Y-79661702D01*
X200166232Y-79600636D02*
X200261423Y-79620393D01*
X200067450Y-79602432D02*
X200166232Y-79600636D01*
X199974055Y-79627577D02*
X200067450Y-79602432D01*
X199887844Y-79670682D02*
X199974055Y-79627577D01*
X199812410Y-79731748D02*
X199887844Y-79670682D01*
X199332865Y-79518018D02*
X199451404Y-79374334D01*
X199244858Y-79677867D02*
X199332865Y-79518018D01*
X199189180Y-79852084D02*
X199244858Y-79677867D01*
X199169424Y-80037077D02*
X199189180Y-79852084D01*
X199185588Y-80218478D02*
X199169424Y-80037077D01*
X199237674Y-80396287D02*
X199185588Y-80218478D01*
X199322088Y-80559728D02*
X199237674Y-80396287D01*
X199435239Y-80701616D02*
X199322088Y-80559728D01*
X199560963Y-80809379D02*
X199435239Y-80701616D01*
X199706443Y-80897385D02*
X199560963Y-80809379D01*
X199864496Y-80954859D02*
X199706443Y-80897385D01*
X200029732Y-80987188D02*
X199864496Y-80954859D01*
X200196765Y-80988984D02*
X200029732Y-80987188D01*
X200362002Y-80963839D02*
X200196765Y-80988984D01*
X200521850Y-80908162D02*
X200362002Y-80963839D01*
X200669127Y-80825543D02*
X200521850Y-80908162D01*
X200800238Y-80719576D02*
X200669127Y-80825543D01*
X200904409Y-80590261D02*
X200800238Y-80719576D01*
X200987028Y-80442984D02*
X200904409Y-80590261D01*
X201042705Y-80283136D02*
X200987028Y-80442984D01*
X201069646Y-80119695D02*
X201042705Y-80283136D01*
X201069646Y-79950866D02*
X201069646Y-80119695D01*
X201037317Y-79785630D02*
X201069646Y-79950866D01*
X200978047Y-79629373D02*
X201037317Y-79785630D01*
X200890041Y-79483893D02*
X200978047Y-79629373D01*
X200784074Y-79359966D02*
X200890041Y-79483893D01*
X200638594Y-79243222D02*
X200784074Y-79359966D01*
X200475153Y-79158808D02*
X200638594Y-79243222D01*
X200297344Y-79106722D02*
X200475153Y-79158808D01*
X200114147Y-79092354D02*
X200297344Y-79106722D01*
X199929154Y-79112110D02*
X200114147Y-79092354D01*
X199754937Y-79167788D02*
X199929154Y-79112110D01*
X199593292Y-79257591D02*
X199754937Y-79167788D01*
X199451404Y-79374334D02*
X199593292Y-79257591D01*
D13*
X204615051Y-75546949D02*
X204794656Y-75367344D01*
X201022949Y-79139051D02*
X200843344Y-79318656D01*
X204615051Y-75546949D02*
X205513077Y-76444974D01*
X203717026Y-74648923D02*
X204615051Y-75546949D01*
X200124923Y-78241026D02*
X203717026Y-74648923D01*
X201022949Y-79139051D02*
X200124923Y-78241026D01*
X201920974Y-80037077D02*
X201022949Y-79139051D01*
X205513077Y-76444974D02*
X201920974Y-80037077D01*
D12*
X92308940Y-44011660D02*
X92408000Y-44001500D01*
X92217500Y-44044680D02*
X92308940Y-44011660D01*
X92133680Y-44095480D02*
X92217500Y-44044680D01*
X92062560Y-44164060D02*
X92133680Y-44095480D01*
X92009220Y-44247880D02*
X92062560Y-44164060D01*
X91976200Y-44339320D02*
X92009220Y-44247880D01*
X91966040Y-44438380D02*
X91976200Y-44339320D01*
X91973660Y-44534900D02*
X91966040Y-44438380D01*
X92006680Y-44631420D02*
X91973660Y-44534900D01*
X92057480Y-44717780D02*
X92006680Y-44631420D01*
X92128600Y-44788900D02*
X92057480Y-44717780D01*
X92212420Y-44844780D02*
X92128600Y-44788900D01*
X92306400Y-44877800D02*
X92212420Y-44844780D01*
X92408000Y-44890500D02*
X92306400Y-44877800D01*
X92507060Y-44877800D02*
X92408000Y-44890500D01*
X92603580Y-44842240D02*
X92507060Y-44877800D01*
X92687400Y-44786360D02*
X92603580Y-44842240D01*
X92758520Y-44710160D02*
X92687400Y-44786360D01*
X92811860Y-44623800D02*
X92758520Y-44710160D01*
X92842340Y-44527280D02*
X92811860Y-44623800D01*
X92852500Y-44428220D02*
X92842340Y-44527280D01*
X92837260Y-44331700D02*
X92852500Y-44428220D01*
X92804240Y-44240260D02*
X92837260Y-44331700D01*
X92750900Y-44158980D02*
X92804240Y-44240260D01*
X92679780Y-44090400D02*
X92750900Y-44158980D01*
X92595960Y-44042140D02*
X92679780Y-44090400D01*
X92504520Y-44011660D02*
X92595960Y-44042140D01*
X92408000Y-44001500D02*
X92504520Y-44011660D01*
X92220040Y-43511280D02*
X92405460Y-43493500D01*
X92044780Y-43562080D02*
X92220040Y-43511280D01*
X91882220Y-43645900D02*
X92044780Y-43562080D01*
X91737440Y-43762740D02*
X91882220Y-43645900D01*
X91620600Y-43902440D02*
X91737440Y-43762740D01*
X91531700Y-44065000D02*
X91620600Y-43902440D01*
X91475820Y-44240260D02*
X91531700Y-44065000D01*
X91455500Y-44420600D02*
X91475820Y-44240260D01*
X91468200Y-44585700D02*
X91455500Y-44420600D01*
X91508840Y-44750800D02*
X91468200Y-44585700D01*
X91579960Y-44903200D02*
X91508840Y-44750800D01*
X91673940Y-45042900D02*
X91579960Y-44903200D01*
X91790780Y-45162280D02*
X91673940Y-45042900D01*
X91925400Y-45261340D02*
X91790780Y-45162280D01*
X92077800Y-45335000D02*
X91925400Y-45261340D01*
X92240360Y-45380720D02*
X92077800Y-45335000D01*
X92408000Y-45398500D02*
X92240360Y-45380720D01*
X92573100Y-45380720D02*
X92408000Y-45398500D01*
X92735660Y-45335000D02*
X92573100Y-45380720D01*
X92888060Y-45261340D02*
X92735660Y-45335000D01*
X93022680Y-45164820D02*
X92888060Y-45261340D01*
X93142060Y-45045440D02*
X93022680Y-45164820D01*
X93236040Y-44905740D02*
X93142060Y-45045440D01*
X93304620Y-44753340D02*
X93236040Y-44905740D01*
X93345260Y-44588240D02*
X93304620Y-44753340D01*
X93357960Y-44425680D02*
X93345260Y-44588240D01*
X93337640Y-44240260D02*
X93357960Y-44425680D01*
X93281760Y-44065000D02*
X93337640Y-44240260D01*
X93192860Y-43902440D02*
X93281760Y-44065000D01*
X93073480Y-43762740D02*
X93192860Y-43902440D01*
X92928700Y-43645900D02*
X93073480Y-43762740D01*
X92766140Y-43562080D02*
X92928700Y-43645900D01*
X92588340Y-43511280D02*
X92766140Y-43562080D01*
X92405460Y-43493500D02*
X92588340Y-43511280D01*
X84683860Y-44019280D02*
X84782920Y-44009120D01*
X84592420Y-44052300D02*
X84683860Y-44019280D01*
X84508600Y-44103100D02*
X84592420Y-44052300D01*
X84437480Y-44171680D02*
X84508600Y-44103100D01*
X84384140Y-44255500D02*
X84437480Y-44171680D01*
X84351120Y-44346940D02*
X84384140Y-44255500D01*
X84340960Y-44446000D02*
X84351120Y-44346940D01*
X84348580Y-44542520D02*
X84340960Y-44446000D01*
X84381600Y-44639040D02*
X84348580Y-44542520D01*
X84432400Y-44725400D02*
X84381600Y-44639040D01*
X84503520Y-44796520D02*
X84432400Y-44725400D01*
X84587340Y-44852400D02*
X84503520Y-44796520D01*
X84681320Y-44885420D02*
X84587340Y-44852400D01*
X84782920Y-44898120D02*
X84681320Y-44885420D01*
X84881980Y-44885420D02*
X84782920Y-44898120D01*
X84978500Y-44849860D02*
X84881980Y-44885420D01*
X85062320Y-44793980D02*
X84978500Y-44849860D01*
X85133440Y-44717780D02*
X85062320Y-44793980D01*
X85186780Y-44631420D02*
X85133440Y-44717780D01*
X85217260Y-44534900D02*
X85186780Y-44631420D01*
X85227420Y-44433300D02*
X85217260Y-44534900D01*
X85212180Y-44339320D02*
X85227420Y-44433300D01*
X85179160Y-44247880D02*
X85212180Y-44339320D01*
X85125820Y-44166600D02*
X85179160Y-44247880D01*
X85054700Y-44098020D02*
X85125820Y-44166600D01*
X84970880Y-44049760D02*
X85054700Y-44098020D01*
X84879440Y-44019280D02*
X84970880Y-44049760D01*
X84782920Y-44009120D02*
X84879440Y-44019280D01*
X84594960Y-43518900D02*
X84780380Y-43501120D01*
X84419700Y-43569700D02*
X84594960Y-43518900D01*
X84257140Y-43653520D02*
X84419700Y-43569700D01*
X84112360Y-43770360D02*
X84257140Y-43653520D01*
X83995520Y-43910060D02*
X84112360Y-43770360D01*
X83906620Y-44072620D02*
X83995520Y-43910060D01*
X83850740Y-44247880D02*
X83906620Y-44072620D01*
X83830420Y-44428220D02*
X83850740Y-44247880D01*
X83843120Y-44593320D02*
X83830420Y-44428220D01*
X83883760Y-44758420D02*
X83843120Y-44593320D01*
X83954880Y-44910820D02*
X83883760Y-44758420D01*
X84048860Y-45050520D02*
X83954880Y-44910820D01*
X84165700Y-45169900D02*
X84048860Y-45050520D01*
X84300320Y-45268960D02*
X84165700Y-45169900D01*
X84452720Y-45342620D02*
X84300320Y-45268960D01*
X84615280Y-45388340D02*
X84452720Y-45342620D01*
X84782920Y-45406120D02*
X84615280Y-45388340D01*
X84948020Y-45388340D02*
X84782920Y-45406120D01*
X85110580Y-45342620D02*
X84948020Y-45388340D01*
X85262980Y-45268960D02*
X85110580Y-45342620D01*
X85397600Y-45172440D02*
X85262980Y-45268960D01*
X85516980Y-45053060D02*
X85397600Y-45172440D01*
X85610960Y-44913360D02*
X85516980Y-45053060D01*
X85679540Y-44760960D02*
X85610960Y-44913360D01*
X85720180Y-44595860D02*
X85679540Y-44760960D01*
X85732880Y-44433300D02*
X85720180Y-44595860D01*
X85712560Y-44247880D02*
X85732880Y-44433300D01*
X85656680Y-44072620D02*
X85712560Y-44247880D01*
X85567780Y-43910060D02*
X85656680Y-44072620D01*
X85448400Y-43770360D02*
X85567780Y-43910060D01*
X85303620Y-43653520D02*
X85448400Y-43770360D01*
X85141060Y-43569700D02*
X85303620Y-43653520D01*
X84963260Y-43518900D02*
X85141060Y-43569700D01*
X84780380Y-43501120D02*
X84963260Y-43518900D01*
D13*
X91138000Y-44446000D02*
X91392000Y-44446000D01*
X86058000Y-44446000D02*
X85804000Y-44446000D01*
X91138000Y-44446000D02*
X91138000Y-45716000D01*
X91138000Y-43176000D02*
X91138000Y-44446000D01*
X86058000Y-43176000D02*
X91138000Y-43176000D01*
X86058000Y-44446000D02*
X86058000Y-43176000D01*
X86058000Y-45716000D02*
X86058000Y-44446000D01*
X91138000Y-45716000D02*
X86058000Y-45716000D01*
D12*
X205135906Y-97770844D02*
X205198768Y-97693614D01*
X205094597Y-97858851D02*
X205135906Y-97770844D01*
X205071248Y-97954042D02*
X205094597Y-97858851D01*
X205069452Y-98052824D02*
X205071248Y-97954042D01*
X205091005Y-98149811D02*
X205069452Y-98052824D01*
X205132314Y-98237818D02*
X205091005Y-98149811D01*
X205195176Y-98315048D02*
X205132314Y-98237818D01*
X205268814Y-98377910D02*
X205195176Y-98315048D01*
X205360412Y-98422811D02*
X205268814Y-98377910D01*
X205457399Y-98447956D02*
X205360412Y-98422811D01*
X205557978Y-98447956D02*
X205457399Y-98447956D01*
X205656761Y-98428199D02*
X205557978Y-98447956D01*
X205746563Y-98385094D02*
X205656761Y-98428199D01*
X205827386Y-98322232D02*
X205746563Y-98385094D01*
X205888452Y-98243206D02*
X205827386Y-98322232D01*
X205931557Y-98149811D02*
X205888452Y-98243206D01*
X205951313Y-98051028D02*
X205931557Y-98149811D01*
X205947721Y-97946857D02*
X205951313Y-98051028D01*
X205924373Y-97848075D02*
X205947721Y-97946857D01*
X205877675Y-97758272D02*
X205924373Y-97848075D01*
X205814813Y-97681042D02*
X205877675Y-97758272D01*
X205735787Y-97623568D02*
X205814813Y-97681042D01*
X205647781Y-97582259D02*
X205735787Y-97623568D01*
X205552590Y-97562502D02*
X205647781Y-97582259D01*
X205453807Y-97564299D02*
X205552590Y-97562502D01*
X205360412Y-97589443D02*
X205453807Y-97564299D01*
X205274202Y-97632548D02*
X205360412Y-97589443D01*
X205198768Y-97693614D02*
X205274202Y-97632548D01*
X204719222Y-97479884D02*
X204837762Y-97336200D01*
X204631216Y-97639733D02*
X204719222Y-97479884D01*
X204575538Y-97813950D02*
X204631216Y-97639733D01*
X204555782Y-97998943D02*
X204575538Y-97813950D01*
X204571946Y-98180344D02*
X204555782Y-97998943D01*
X204624031Y-98358153D02*
X204571946Y-98180344D01*
X204708446Y-98521594D02*
X204624031Y-98358153D01*
X204821597Y-98663482D02*
X204708446Y-98521594D01*
X204947321Y-98771245D02*
X204821597Y-98663482D01*
X205092801Y-98859251D02*
X204947321Y-98771245D01*
X205250853Y-98916725D02*
X205092801Y-98859251D01*
X205416090Y-98949054D02*
X205250853Y-98916725D01*
X205583123Y-98950850D02*
X205416090Y-98949054D01*
X205748360Y-98925705D02*
X205583123Y-98950850D01*
X205908208Y-98870028D02*
X205748360Y-98925705D01*
X206055484Y-98787409D02*
X205908208Y-98870028D01*
X206186596Y-98681442D02*
X206055484Y-98787409D01*
X206290767Y-98552127D02*
X206186596Y-98681442D01*
X206373385Y-98404850D02*
X206290767Y-98552127D01*
X206429063Y-98245002D02*
X206373385Y-98404850D01*
X206456004Y-98081561D02*
X206429063Y-98245002D01*
X206456004Y-97912732D02*
X206456004Y-98081561D01*
X206423675Y-97747496D02*
X206456004Y-97912732D01*
X206364405Y-97591239D02*
X206423675Y-97747496D01*
X206276399Y-97445759D02*
X206364405Y-97591239D01*
X206170432Y-97321832D02*
X206276399Y-97445759D01*
X206024951Y-97205088D02*
X206170432Y-97321832D01*
X205861511Y-97120674D02*
X206024951Y-97205088D01*
X205683702Y-97068588D02*
X205861511Y-97120674D01*
X205500504Y-97054220D02*
X205683702Y-97068588D01*
X205315511Y-97073977D02*
X205500504Y-97054220D01*
X205141294Y-97129654D02*
X205315511Y-97073977D01*
X204979650Y-97219457D02*
X205141294Y-97129654D01*
X204837762Y-97336200D02*
X204979650Y-97219457D01*
X199749548Y-103167978D02*
X199812410Y-103090748D01*
X199708239Y-103255985D02*
X199749548Y-103167978D01*
X199684891Y-103351176D02*
X199708239Y-103255985D01*
X199683095Y-103449958D02*
X199684891Y-103351176D01*
X199704647Y-103546945D02*
X199683095Y-103449958D01*
X199745956Y-103634952D02*
X199704647Y-103546945D01*
X199808818Y-103712182D02*
X199745956Y-103634952D01*
X199882456Y-103775044D02*
X199808818Y-103712182D01*
X199974055Y-103819945D02*
X199882456Y-103775044D01*
X200071042Y-103845090D02*
X199974055Y-103819945D01*
X200171620Y-103845090D02*
X200071042Y-103845090D01*
X200270403Y-103825333D02*
X200171620Y-103845090D01*
X200360206Y-103782228D02*
X200270403Y-103825333D01*
X200441028Y-103719366D02*
X200360206Y-103782228D01*
X200502094Y-103640340D02*
X200441028Y-103719366D01*
X200545199Y-103546945D02*
X200502094Y-103640340D01*
X200564956Y-103448162D02*
X200545199Y-103546945D01*
X200561364Y-103343991D02*
X200564956Y-103448162D01*
X200538015Y-103245209D02*
X200561364Y-103343991D01*
X200491318Y-103155406D02*
X200538015Y-103245209D01*
X200426660Y-103076380D02*
X200491318Y-103155406D01*
X200349430Y-103020702D02*
X200426660Y-103076380D01*
X200261423Y-102979393D02*
X200349430Y-103020702D01*
X200166232Y-102959636D02*
X200261423Y-102979393D01*
X200067450Y-102961432D02*
X200166232Y-102959636D01*
X199974055Y-102986577D02*
X200067450Y-102961432D01*
X199887844Y-103029682D02*
X199974055Y-102986577D01*
X199812410Y-103090748D02*
X199887844Y-103029682D01*
X199332865Y-102877018D02*
X199451404Y-102733334D01*
X199244858Y-103036867D02*
X199332865Y-102877018D01*
X199189180Y-103211084D02*
X199244858Y-103036867D01*
X199169424Y-103396077D02*
X199189180Y-103211084D01*
X199185588Y-103577478D02*
X199169424Y-103396077D01*
X199237674Y-103755287D02*
X199185588Y-103577478D01*
X199322088Y-103918728D02*
X199237674Y-103755287D01*
X199435239Y-104060616D02*
X199322088Y-103918728D01*
X199560963Y-104168379D02*
X199435239Y-104060616D01*
X199706443Y-104256385D02*
X199560963Y-104168379D01*
X199864496Y-104313859D02*
X199706443Y-104256385D01*
X200029732Y-104346188D02*
X199864496Y-104313859D01*
X200196765Y-104347984D02*
X200029732Y-104346188D01*
X200362002Y-104322839D02*
X200196765Y-104347984D01*
X200521850Y-104267162D02*
X200362002Y-104322839D01*
X200669127Y-104184543D02*
X200521850Y-104267162D01*
X200800238Y-104078576D02*
X200669127Y-104184543D01*
X200904409Y-103949261D02*
X200800238Y-104078576D01*
X200987028Y-103801984D02*
X200904409Y-103949261D01*
X201042705Y-103642136D02*
X200987028Y-103801984D01*
X201069646Y-103478695D02*
X201042705Y-103642136D01*
X201069646Y-103309866D02*
X201069646Y-103478695D01*
X201037317Y-103144630D02*
X201069646Y-103309866D01*
X200978047Y-102988373D02*
X201037317Y-103144630D01*
X200890041Y-102842893D02*
X200978047Y-102988373D01*
X200784074Y-102718966D02*
X200890041Y-102842893D01*
X200638594Y-102602222D02*
X200784074Y-102718966D01*
X200475153Y-102517808D02*
X200638594Y-102602222D01*
X200297344Y-102465722D02*
X200475153Y-102517808D01*
X200114147Y-102451354D02*
X200297344Y-102465722D01*
X199929154Y-102471110D02*
X200114147Y-102451354D01*
X199754937Y-102526788D02*
X199929154Y-102471110D01*
X199593292Y-102616591D02*
X199754937Y-102526788D01*
X199451404Y-102733334D02*
X199593292Y-102616591D01*
D13*
X204615051Y-98905949D02*
X204794656Y-98726344D01*
X201022949Y-102498051D02*
X200843344Y-102677656D01*
X204615051Y-98905949D02*
X205513077Y-99803974D01*
X203717026Y-98007923D02*
X204615051Y-98905949D01*
X200124923Y-101600026D02*
X203717026Y-98007923D01*
X201022949Y-102498051D02*
X200124923Y-101600026D01*
X201920974Y-103396077D02*
X201022949Y-102498051D01*
X205513077Y-99803974D02*
X201920974Y-103396077D01*
D12*
X203464906Y-134745844D02*
X203527768Y-134668614D01*
X203423597Y-134833851D02*
X203464906Y-134745844D01*
X203400248Y-134929042D02*
X203423597Y-134833851D01*
X203398452Y-135027824D02*
X203400248Y-134929042D01*
X203420005Y-135124811D02*
X203398452Y-135027824D01*
X203461314Y-135212818D02*
X203420005Y-135124811D01*
X203524176Y-135290048D02*
X203461314Y-135212818D01*
X203597814Y-135352910D02*
X203524176Y-135290048D01*
X203689412Y-135397811D02*
X203597814Y-135352910D01*
X203786399Y-135422956D02*
X203689412Y-135397811D01*
X203886978Y-135422956D02*
X203786399Y-135422956D01*
X203985761Y-135403199D02*
X203886978Y-135422956D01*
X204075563Y-135360094D02*
X203985761Y-135403199D01*
X204156386Y-135297232D02*
X204075563Y-135360094D01*
X204217452Y-135218206D02*
X204156386Y-135297232D01*
X204260557Y-135124811D02*
X204217452Y-135218206D01*
X204280313Y-135026028D02*
X204260557Y-135124811D01*
X204276721Y-134921857D02*
X204280313Y-135026028D01*
X204253373Y-134823075D02*
X204276721Y-134921857D01*
X204206675Y-134733272D02*
X204253373Y-134823075D01*
X204143813Y-134656042D02*
X204206675Y-134733272D01*
X204064787Y-134598568D02*
X204143813Y-134656042D01*
X203976781Y-134557259D02*
X204064787Y-134598568D01*
X203881590Y-134537502D02*
X203976781Y-134557259D01*
X203782807Y-134539299D02*
X203881590Y-134537502D01*
X203689412Y-134564443D02*
X203782807Y-134539299D01*
X203603202Y-134607548D02*
X203689412Y-134564443D01*
X203527768Y-134668614D02*
X203603202Y-134607548D01*
X203048222Y-134454884D02*
X203166762Y-134311200D01*
X202960216Y-134614733D02*
X203048222Y-134454884D01*
X202904538Y-134788950D02*
X202960216Y-134614733D01*
X202884782Y-134973943D02*
X202904538Y-134788950D01*
X202900946Y-135155344D02*
X202884782Y-134973943D01*
X202953031Y-135333153D02*
X202900946Y-135155344D01*
X203037446Y-135496594D02*
X202953031Y-135333153D01*
X203150597Y-135638482D02*
X203037446Y-135496594D01*
X203276321Y-135746245D02*
X203150597Y-135638482D01*
X203421801Y-135834251D02*
X203276321Y-135746245D01*
X203579853Y-135891725D02*
X203421801Y-135834251D01*
X203745090Y-135924054D02*
X203579853Y-135891725D01*
X203912123Y-135925850D02*
X203745090Y-135924054D01*
X204077360Y-135900705D02*
X203912123Y-135925850D01*
X204237208Y-135845028D02*
X204077360Y-135900705D01*
X204384484Y-135762409D02*
X204237208Y-135845028D01*
X204515596Y-135656442D02*
X204384484Y-135762409D01*
X204619767Y-135527127D02*
X204515596Y-135656442D01*
X204702385Y-135379850D02*
X204619767Y-135527127D01*
X204758063Y-135220002D02*
X204702385Y-135379850D01*
X204785004Y-135056561D02*
X204758063Y-135220002D01*
X204785004Y-134887732D02*
X204785004Y-135056561D01*
X204752675Y-134722496D02*
X204785004Y-134887732D01*
X204693405Y-134566239D02*
X204752675Y-134722496D01*
X204605399Y-134420759D02*
X204693405Y-134566239D01*
X204499432Y-134296832D02*
X204605399Y-134420759D01*
X204353951Y-134180088D02*
X204499432Y-134296832D01*
X204190511Y-134095674D02*
X204353951Y-134180088D01*
X204012702Y-134043588D02*
X204190511Y-134095674D01*
X203829504Y-134029220D02*
X204012702Y-134043588D01*
X203644511Y-134048977D02*
X203829504Y-134029220D01*
X203470294Y-134104654D02*
X203644511Y-134048977D01*
X203308650Y-134194457D02*
X203470294Y-134104654D01*
X203166762Y-134311200D02*
X203308650Y-134194457D01*
X198078548Y-140142978D02*
X198141410Y-140065748D01*
X198037239Y-140230985D02*
X198078548Y-140142978D01*
X198013891Y-140326176D02*
X198037239Y-140230985D01*
X198012095Y-140424958D02*
X198013891Y-140326176D01*
X198033647Y-140521945D02*
X198012095Y-140424958D01*
X198074956Y-140609952D02*
X198033647Y-140521945D01*
X198137818Y-140687182D02*
X198074956Y-140609952D01*
X198211456Y-140750044D02*
X198137818Y-140687182D01*
X198303055Y-140794945D02*
X198211456Y-140750044D01*
X198400042Y-140820090D02*
X198303055Y-140794945D01*
X198500620Y-140820090D02*
X198400042Y-140820090D01*
X198599403Y-140800333D02*
X198500620Y-140820090D01*
X198689206Y-140757228D02*
X198599403Y-140800333D01*
X198770028Y-140694366D02*
X198689206Y-140757228D01*
X198831094Y-140615340D02*
X198770028Y-140694366D01*
X198874199Y-140521945D02*
X198831094Y-140615340D01*
X198893956Y-140423162D02*
X198874199Y-140521945D01*
X198890364Y-140318991D02*
X198893956Y-140423162D01*
X198867015Y-140220209D02*
X198890364Y-140318991D01*
X198820318Y-140130406D02*
X198867015Y-140220209D01*
X198755660Y-140051380D02*
X198820318Y-140130406D01*
X198678430Y-139995702D02*
X198755660Y-140051380D01*
X198590423Y-139954393D02*
X198678430Y-139995702D01*
X198495232Y-139934636D02*
X198590423Y-139954393D01*
X198396450Y-139936432D02*
X198495232Y-139934636D01*
X198303055Y-139961577D02*
X198396450Y-139936432D01*
X198216844Y-140004682D02*
X198303055Y-139961577D01*
X198141410Y-140065748D02*
X198216844Y-140004682D01*
X197661865Y-139852018D02*
X197780404Y-139708334D01*
X197573858Y-140011867D02*
X197661865Y-139852018D01*
X197518180Y-140186084D02*
X197573858Y-140011867D01*
X197498424Y-140371077D02*
X197518180Y-140186084D01*
X197514588Y-140552478D02*
X197498424Y-140371077D01*
X197566674Y-140730287D02*
X197514588Y-140552478D01*
X197651088Y-140893728D02*
X197566674Y-140730287D01*
X197764239Y-141035616D02*
X197651088Y-140893728D01*
X197889963Y-141143379D02*
X197764239Y-141035616D01*
X198035443Y-141231385D02*
X197889963Y-141143379D01*
X198193496Y-141288859D02*
X198035443Y-141231385D01*
X198358732Y-141321188D02*
X198193496Y-141288859D01*
X198525765Y-141322984D02*
X198358732Y-141321188D01*
X198691002Y-141297839D02*
X198525765Y-141322984D01*
X198850850Y-141242162D02*
X198691002Y-141297839D01*
X198998127Y-141159543D02*
X198850850Y-141242162D01*
X199129238Y-141053576D02*
X198998127Y-141159543D01*
X199233409Y-140924261D02*
X199129238Y-141053576D01*
X199316028Y-140776984D02*
X199233409Y-140924261D01*
X199371705Y-140617136D02*
X199316028Y-140776984D01*
X199398646Y-140453695D02*
X199371705Y-140617136D01*
X199398646Y-140284866D02*
X199398646Y-140453695D01*
X199366317Y-140119630D02*
X199398646Y-140284866D01*
X199307047Y-139963373D02*
X199366317Y-140119630D01*
X199219041Y-139817893D02*
X199307047Y-139963373D01*
X199113074Y-139693966D02*
X199219041Y-139817893D01*
X198967594Y-139577222D02*
X199113074Y-139693966D01*
X198804153Y-139492808D02*
X198967594Y-139577222D01*
X198626344Y-139440722D02*
X198804153Y-139492808D01*
X198443147Y-139426354D02*
X198626344Y-139440722D01*
X198258154Y-139446110D02*
X198443147Y-139426354D01*
X198083937Y-139501788D02*
X198258154Y-139446110D01*
X197922292Y-139591591D02*
X198083937Y-139501788D01*
X197780404Y-139708334D02*
X197922292Y-139591591D01*
D13*
X202944051Y-135880949D02*
X203123656Y-135701344D01*
X199351949Y-139473051D02*
X199172344Y-139652656D01*
X202944051Y-135880949D02*
X203842077Y-136778974D01*
X202046026Y-134982923D02*
X202944051Y-135880949D01*
X198453923Y-138575026D02*
X202046026Y-134982923D01*
X199351949Y-139473051D02*
X198453923Y-138575026D01*
X200249974Y-140371077D02*
X199351949Y-139473051D01*
X203842077Y-136778974D02*
X200249974Y-140371077D01*
D12*
X197454094Y-100183156D02*
X197391232Y-100260386D01*
X197495403Y-100095149D02*
X197454094Y-100183156D01*
X197518752Y-99999958D02*
X197495403Y-100095149D01*
X197520548Y-99901176D02*
X197518752Y-99999958D01*
X197498995Y-99804189D02*
X197520548Y-99901176D01*
X197457686Y-99716182D02*
X197498995Y-99804189D01*
X197394824Y-99638952D02*
X197457686Y-99716182D01*
X197321186Y-99576090D02*
X197394824Y-99638952D01*
X197229588Y-99531189D02*
X197321186Y-99576090D01*
X197132601Y-99506044D02*
X197229588Y-99531189D01*
X197032022Y-99506044D02*
X197132601Y-99506044D01*
X196933239Y-99525801D02*
X197032022Y-99506044D01*
X196843437Y-99568906D02*
X196933239Y-99525801D01*
X196762614Y-99631768D02*
X196843437Y-99568906D01*
X196701548Y-99710794D02*
X196762614Y-99631768D01*
X196658443Y-99804189D02*
X196701548Y-99710794D01*
X196638687Y-99902972D02*
X196658443Y-99804189D01*
X196642279Y-100007143D02*
X196638687Y-99902972D01*
X196665627Y-100105925D02*
X196642279Y-100007143D01*
X196712325Y-100195728D02*
X196665627Y-100105925D01*
X196775187Y-100272958D02*
X196712325Y-100195728D01*
X196854213Y-100330432D02*
X196775187Y-100272958D01*
X196942219Y-100371741D02*
X196854213Y-100330432D01*
X197037410Y-100391498D02*
X196942219Y-100371741D01*
X197136193Y-100389701D02*
X197037410Y-100391498D01*
X197229588Y-100364557D02*
X197136193Y-100389701D01*
X197315798Y-100321452D02*
X197229588Y-100364557D01*
X197391232Y-100260386D02*
X197315798Y-100321452D01*
X197870778Y-100474116D02*
X197752238Y-100617800D01*
X197958784Y-100314267D02*
X197870778Y-100474116D01*
X198014462Y-100140050D02*
X197958784Y-100314267D01*
X198034218Y-99955057D02*
X198014462Y-100140050D01*
X198018054Y-99773656D02*
X198034218Y-99955057D01*
X197965969Y-99595847D02*
X198018054Y-99773656D01*
X197881554Y-99432406D02*
X197965969Y-99595847D01*
X197768403Y-99290518D02*
X197881554Y-99432406D01*
X197642679Y-99182755D02*
X197768403Y-99290518D01*
X197497199Y-99094749D02*
X197642679Y-99182755D01*
X197339147Y-99037275D02*
X197497199Y-99094749D01*
X197173910Y-99004946D02*
X197339147Y-99037275D01*
X197006877Y-99003150D02*
X197173910Y-99004946D01*
X196841640Y-99028295D02*
X197006877Y-99003150D01*
X196681792Y-99083972D02*
X196841640Y-99028295D01*
X196534516Y-99166591D02*
X196681792Y-99083972D01*
X196403404Y-99272558D02*
X196534516Y-99166591D01*
X196299233Y-99401873D02*
X196403404Y-99272558D01*
X196216615Y-99549150D02*
X196299233Y-99401873D01*
X196160937Y-99708998D02*
X196216615Y-99549150D01*
X196133996Y-99872439D02*
X196160937Y-99708998D01*
X196133996Y-100041268D02*
X196133996Y-99872439D01*
X196166325Y-100206504D02*
X196133996Y-100041268D01*
X196225595Y-100362761D02*
X196166325Y-100206504D01*
X196313601Y-100508241D02*
X196225595Y-100362761D01*
X196419568Y-100632168D02*
X196313601Y-100508241D01*
X196565049Y-100748912D02*
X196419568Y-100632168D01*
X196728489Y-100833326D02*
X196565049Y-100748912D01*
X196906298Y-100885412D02*
X196728489Y-100833326D01*
X197089496Y-100899780D02*
X196906298Y-100885412D01*
X197274489Y-100880023D02*
X197089496Y-100899780D01*
X197448706Y-100824346D02*
X197274489Y-100880023D01*
X197610350Y-100734543D02*
X197448706Y-100824346D01*
X197752238Y-100617800D02*
X197610350Y-100734543D01*
X202840452Y-94786022D02*
X202777590Y-94863252D01*
X202881761Y-94698015D02*
X202840452Y-94786022D01*
X202905109Y-94602824D02*
X202881761Y-94698015D01*
X202906905Y-94504042D02*
X202905109Y-94602824D01*
X202885353Y-94407055D02*
X202906905Y-94504042D01*
X202844044Y-94319048D02*
X202885353Y-94407055D01*
X202781182Y-94241818D02*
X202844044Y-94319048D01*
X202707544Y-94178956D02*
X202781182Y-94241818D01*
X202615945Y-94134055D02*
X202707544Y-94178956D01*
X202518958Y-94108910D02*
X202615945Y-94134055D01*
X202418380Y-94108910D02*
X202518958Y-94108910D01*
X202319597Y-94128667D02*
X202418380Y-94108910D01*
X202229794Y-94171772D02*
X202319597Y-94128667D01*
X202148972Y-94234634D02*
X202229794Y-94171772D01*
X202087906Y-94313660D02*
X202148972Y-94234634D01*
X202044801Y-94407055D02*
X202087906Y-94313660D01*
X202025044Y-94505838D02*
X202044801Y-94407055D01*
X202028636Y-94610009D02*
X202025044Y-94505838D01*
X202051985Y-94708791D02*
X202028636Y-94610009D01*
X202098682Y-94798594D02*
X202051985Y-94708791D01*
X202163340Y-94877620D02*
X202098682Y-94798594D01*
X202240570Y-94933298D02*
X202163340Y-94877620D01*
X202328577Y-94974607D02*
X202240570Y-94933298D01*
X202423768Y-94994364D02*
X202328577Y-94974607D01*
X202522550Y-94992568D02*
X202423768Y-94994364D01*
X202615945Y-94967423D02*
X202522550Y-94992568D01*
X202702156Y-94924318D02*
X202615945Y-94967423D01*
X202777590Y-94863252D02*
X202702156Y-94924318D01*
X203257135Y-95076982D02*
X203138596Y-95220666D01*
X203345142Y-94917133D02*
X203257135Y-95076982D01*
X203400820Y-94742916D02*
X203345142Y-94917133D01*
X203420576Y-94557923D02*
X203400820Y-94742916D01*
X203404412Y-94376522D02*
X203420576Y-94557923D01*
X203352326Y-94198713D02*
X203404412Y-94376522D01*
X203267912Y-94035272D02*
X203352326Y-94198713D01*
X203154761Y-93893384D02*
X203267912Y-94035272D01*
X203029037Y-93785621D02*
X203154761Y-93893384D01*
X202883557Y-93697615D02*
X203029037Y-93785621D01*
X202725504Y-93640141D02*
X202883557Y-93697615D01*
X202560268Y-93607812D02*
X202725504Y-93640141D01*
X202393235Y-93606016D02*
X202560268Y-93607812D01*
X202227998Y-93631161D02*
X202393235Y-93606016D01*
X202068150Y-93686838D02*
X202227998Y-93631161D01*
X201920873Y-93769457D02*
X202068150Y-93686838D01*
X201789762Y-93875424D02*
X201920873Y-93769457D01*
X201685591Y-94004739D02*
X201789762Y-93875424D01*
X201602972Y-94152016D02*
X201685591Y-94004739D01*
X201547295Y-94311864D02*
X201602972Y-94152016D01*
X201520354Y-94475305D02*
X201547295Y-94311864D01*
X201520354Y-94644134D02*
X201520354Y-94475305D01*
X201552683Y-94809370D02*
X201520354Y-94644134D01*
X201611953Y-94965627D02*
X201552683Y-94809370D01*
X201699959Y-95111107D02*
X201611953Y-94965627D01*
X201805926Y-95235034D02*
X201699959Y-95111107D01*
X201951406Y-95351778D02*
X201805926Y-95235034D01*
X202114847Y-95436192D02*
X201951406Y-95351778D01*
X202292656Y-95488278D02*
X202114847Y-95436192D01*
X202475853Y-95502646D02*
X202292656Y-95488278D01*
X202660846Y-95482890D02*
X202475853Y-95502646D01*
X202835063Y-95427212D02*
X202660846Y-95482890D01*
X202996708Y-95337409D02*
X202835063Y-95427212D01*
X203138596Y-95220666D02*
X202996708Y-95337409D01*
D13*
X197974949Y-99048051D02*
X197795344Y-99227656D01*
X201567051Y-95455949D02*
X201746656Y-95276344D01*
X197974949Y-99048051D02*
X197076923Y-98150026D01*
X198872974Y-99946077D02*
X197974949Y-99048051D01*
X202465077Y-96353974D02*
X198872974Y-99946077D01*
X201567051Y-95455949D02*
X202465077Y-96353974D01*
X200669026Y-94557923D02*
X201567051Y-95455949D01*
X197076923Y-98150026D02*
X200669026Y-94557923D01*
D10*
X226318000Y-77938000D02*
X228318000Y-77938000D01*
X226318000Y-72938000D02*
X228318000Y-72938000D01*
X226318000Y-71938000D02*
X214218000Y-71938000D01*
X228318000Y-72938000D02*
X228318000Y-77938000D01*
X226318000Y-78938000D02*
X226318000Y-77938000D01*
X226318000Y-72938000D02*
X226318000Y-71938000D01*
X226318000Y-78938000D02*
X214168000Y-78938000D01*
X215968000Y-77338000D02*
X215468000Y-76838000D01*
X215468000Y-76838000D02*
X216468000Y-76838000D01*
X216468000Y-76838000D02*
X215968000Y-77338000D01*
X214218000Y-71938000D02*
X214118000Y-71938000D01*
X214118000Y-71938000D02*
X214118000Y-72938000D01*
X214168000Y-78938000D02*
X214118000Y-78938000D01*
X214118000Y-78938000D02*
X214118000Y-74338000D01*
D14*
X77168000Y-43751000D02*
X77168000Y-45021000D01*
X100028000Y-43751000D02*
X100028000Y-45021000D01*
D10*
X104830000Y-53206000D02*
X146630000Y-53206000D01*
X146630000Y-53206000D02*
X146630000Y-31406000D01*
X146630000Y-31406000D02*
X104830000Y-31406000D01*
X104830000Y-31406000D02*
X104830000Y-53206000D01*
X148518000Y-53206000D02*
X190318000Y-53206000D01*
X190318000Y-53206000D02*
X190318000Y-31406000D01*
X190318000Y-31406000D02*
X148518000Y-31406000D01*
X148518000Y-31406000D02*
X148518000Y-53206000D01*
D15*
X103584000Y-37846000D02*
X103584000Y-35687000D01*
X103584000Y-37846000D02*
X73612000Y-37846000D01*
X103584000Y-32258000D02*
X73612000Y-32258000D01*
X73612000Y-32258000D02*
X73612000Y-37846000D01*
X103584000Y-35687000D02*
G75*
G02X103584000Y-34417000I0J635000D01*
G01*
X103584000Y-34417000D02*
X103584000Y-32258000D01*
D14*
X69479999Y-41612002D02*
G75*
G03X69479999Y-41612002I-1778000J0D01*
G01*
X70749999Y-42638162D02*
X70749999Y-40596002D01*
X64653999Y-42607682D02*
X64653999Y-40596002D01*
X69860999Y-38564002D02*
X65542999Y-38564002D01*
X65542999Y-44660002D02*
X69860999Y-44660002D01*
X69480000Y-32212002D02*
G75*
G03X69480000Y-32212002I-1778000J0D01*
G01*
X70750000Y-33238162D02*
X70750000Y-31196002D01*
X64654000Y-33207682D02*
X64654000Y-31196002D01*
X69861000Y-29164002D02*
X65543000Y-29164002D01*
X65543000Y-35260002D02*
X69861000Y-35260002D01*
D10*
X227848000Y-45212000D02*
X226568000Y-45212000D01*
X227848000Y-37582000D02*
X227848000Y-45212000D01*
X226568000Y-37582000D02*
X227848000Y-37582000D01*
X193548000Y-50272000D02*
X226538000Y-50272000D01*
X193548000Y-32502000D02*
X193548000Y-50272000D01*
X226558000Y-32502000D02*
X193548000Y-32502000D01*
X226558000Y-50272000D02*
X226558000Y-32502000D01*
X214118000Y-103068000D02*
X214118000Y-98468000D01*
X214168000Y-103068000D02*
X214118000Y-103068000D01*
X214118000Y-96068000D02*
X214118000Y-97068000D01*
X214218000Y-96068000D02*
X214118000Y-96068000D01*
X216468000Y-100968000D02*
X215968000Y-101468000D01*
X215468000Y-100968000D02*
X216468000Y-100968000D01*
X215968000Y-101468000D02*
X215468000Y-100968000D01*
X226318000Y-103068000D02*
X214168000Y-103068000D01*
X226318000Y-97068000D02*
X226318000Y-96068000D01*
X226318000Y-103068000D02*
X226318000Y-102068000D01*
X228318000Y-97068000D02*
X228318000Y-102068000D01*
X226318000Y-96068000D02*
X214218000Y-96068000D01*
X226318000Y-97068000D02*
X228318000Y-97068000D01*
X226318000Y-102068000D02*
X228318000Y-102068000D01*
D14*
X198729600Y-58369200D02*
X203047600Y-58369200D01*
X203047600Y-52273200D02*
X198729600Y-52273200D01*
X197840600Y-56316880D02*
X197840600Y-54305200D01*
X203936600Y-56347360D02*
X203936600Y-54305200D01*
X202666600Y-55321200D02*
G75*
G03X202666600Y-55321200I-1778000J0D01*
G01*
D16*
X40579428Y-37344380D02*
X40579428Y-36344380D01*
X40817523Y-36344380D01*
X40960380Y-36392000D01*
X41055619Y-36487238D01*
X41103238Y-36582476D01*
X41150857Y-36772952D01*
X41150857Y-36915809D01*
X41103238Y-37106285D01*
X41055619Y-37201523D01*
X40960380Y-37296761D01*
X40817523Y-37344380D01*
X40579428Y-37344380D01*
X41579428Y-37344380D02*
X41579428Y-36677714D01*
X41579428Y-36344380D02*
X41531809Y-36392000D01*
X41579428Y-36439619D01*
X41627047Y-36392000D01*
X41579428Y-36344380D01*
X41579428Y-36439619D01*
X42008000Y-37296761D02*
X42103238Y-37344380D01*
X42293714Y-37344380D01*
X42388952Y-37296761D01*
X42436571Y-37201523D01*
X42436571Y-37153904D01*
X42388952Y-37058666D01*
X42293714Y-37011047D01*
X42150857Y-37011047D01*
X42055619Y-36963428D01*
X42008000Y-36868190D01*
X42008000Y-36820571D01*
X42055619Y-36725333D01*
X42150857Y-36677714D01*
X42293714Y-36677714D01*
X42388952Y-36725333D01*
X42865142Y-36677714D02*
X42865142Y-37677714D01*
X42865142Y-36725333D02*
X42960380Y-36677714D01*
X43150857Y-36677714D01*
X43246095Y-36725333D01*
X43293714Y-36772952D01*
X43341333Y-36868190D01*
X43341333Y-37153904D01*
X43293714Y-37249142D01*
X43246095Y-37296761D01*
X43150857Y-37344380D01*
X42960380Y-37344380D01*
X42865142Y-37296761D01*
X43912761Y-37344380D02*
X43817523Y-37296761D01*
X43769904Y-37201523D01*
X43769904Y-36344380D01*
X44722285Y-37344380D02*
X44722285Y-36820571D01*
X44674666Y-36725333D01*
X44579428Y-36677714D01*
X44388952Y-36677714D01*
X44293714Y-36725333D01*
X44722285Y-37296761D02*
X44627047Y-37344380D01*
X44388952Y-37344380D01*
X44293714Y-37296761D01*
X44246095Y-37201523D01*
X44246095Y-37106285D01*
X44293714Y-37011047D01*
X44388952Y-36963428D01*
X44627047Y-36963428D01*
X44722285Y-36915809D01*
X45103238Y-36677714D02*
X45341333Y-37344380D01*
X45579428Y-36677714D02*
X45341333Y-37344380D01*
X45246095Y-37582476D01*
X45198476Y-37630095D01*
X45103238Y-37677714D01*
X46484190Y-37344380D02*
X45912761Y-37344380D01*
X46198476Y-37344380D02*
X46198476Y-36344380D01*
X46103238Y-36487238D01*
X46008000Y-36582476D01*
X45912761Y-36630095D01*
X201498532Y-111441230D02*
X200791425Y-110734124D01*
X200959784Y-110565765D01*
X201094471Y-110498421D01*
X201229158Y-110498421D01*
X201330173Y-110532093D01*
X201498532Y-110633108D01*
X201599547Y-110734124D01*
X201700563Y-110902482D01*
X201734234Y-111003498D01*
X201734234Y-111138185D01*
X201666891Y-111272872D01*
X201498532Y-111441230D01*
X202576028Y-110363734D02*
X202171967Y-110767795D01*
X202373998Y-110565765D02*
X201666891Y-109858658D01*
X201700563Y-110027017D01*
X201700563Y-110161704D01*
X201666891Y-110262719D01*
X209406286Y-131822380D02*
X209739620Y-132822380D01*
X210072953Y-131822380D01*
X210977715Y-132822380D02*
X210644381Y-132346190D01*
X210406286Y-132822380D02*
X210406286Y-131822380D01*
X210787239Y-131822380D01*
X210882477Y-131870000D01*
X210930096Y-131917619D01*
X210977715Y-132012857D01*
X210977715Y-132155714D01*
X210930096Y-132250952D01*
X210882477Y-132298571D01*
X210787239Y-132346190D01*
X210406286Y-132346190D01*
X211311048Y-131822380D02*
X211930096Y-131822380D01*
X211596762Y-132203333D01*
X211739620Y-132203333D01*
X211834858Y-132250952D01*
X211882477Y-132298571D01*
X211930096Y-132393809D01*
X211930096Y-132631904D01*
X211882477Y-132727142D01*
X211834858Y-132774761D01*
X211739620Y-132822380D01*
X211453905Y-132822380D01*
X211358667Y-132774761D01*
X211311048Y-132727142D01*
X212311048Y-131917619D02*
X212358667Y-131870000D01*
X212453905Y-131822380D01*
X212692001Y-131822380D01*
X212787239Y-131870000D01*
X212834858Y-131917619D01*
X212882477Y-132012857D01*
X212882477Y-132108095D01*
X212834858Y-132250952D01*
X212263429Y-132822380D01*
X212882477Y-132822380D01*
X185120286Y-131822380D02*
X185453620Y-132822380D01*
X185786953Y-131822380D01*
X186691715Y-132822380D02*
X186358381Y-132346190D01*
X186120286Y-132822380D02*
X186120286Y-131822380D01*
X186501239Y-131822380D01*
X186596477Y-131870000D01*
X186644096Y-131917619D01*
X186691715Y-132012857D01*
X186691715Y-132155714D01*
X186644096Y-132250952D01*
X186596477Y-132298571D01*
X186501239Y-132346190D01*
X186120286Y-132346190D01*
X187025048Y-131822380D02*
X187644096Y-131822380D01*
X187310762Y-132203333D01*
X187453620Y-132203333D01*
X187548858Y-132250952D01*
X187596477Y-132298571D01*
X187644096Y-132393809D01*
X187644096Y-132631904D01*
X187596477Y-132727142D01*
X187548858Y-132774761D01*
X187453620Y-132822380D01*
X187167905Y-132822380D01*
X187072667Y-132774761D01*
X187025048Y-132727142D01*
X188596477Y-132822380D02*
X188025048Y-132822380D01*
X188310762Y-132822380D02*
X188310762Y-131822380D01*
X188215524Y-131965238D01*
X188120286Y-132060476D01*
X188025048Y-132108095D01*
X160834286Y-131822380D02*
X161167620Y-132822380D01*
X161500953Y-131822380D01*
X162405715Y-132822380D02*
X162072381Y-132346190D01*
X161834286Y-132822380D02*
X161834286Y-131822380D01*
X162215239Y-131822380D01*
X162310477Y-131870000D01*
X162358096Y-131917619D01*
X162405715Y-132012857D01*
X162405715Y-132155714D01*
X162358096Y-132250952D01*
X162310477Y-132298571D01*
X162215239Y-132346190D01*
X161834286Y-132346190D01*
X162739048Y-131822380D02*
X163358096Y-131822380D01*
X163024762Y-132203333D01*
X163167620Y-132203333D01*
X163262858Y-132250952D01*
X163310477Y-132298571D01*
X163358096Y-132393809D01*
X163358096Y-132631904D01*
X163310477Y-132727142D01*
X163262858Y-132774761D01*
X163167620Y-132822380D01*
X162881905Y-132822380D01*
X162786667Y-132774761D01*
X162739048Y-132727142D01*
X163977143Y-131822380D02*
X164072381Y-131822380D01*
X164167620Y-131870000D01*
X164215239Y-131917619D01*
X164262858Y-132012857D01*
X164310477Y-132203333D01*
X164310477Y-132441428D01*
X164262858Y-132631904D01*
X164215239Y-132727142D01*
X164167620Y-132774761D01*
X164072381Y-132822380D01*
X163977143Y-132822380D01*
X163881905Y-132774761D01*
X163834286Y-132727142D01*
X163786667Y-132631904D01*
X163739048Y-132441428D01*
X163739048Y-132203333D01*
X163786667Y-132012857D01*
X163834286Y-131917619D01*
X163881905Y-131870000D01*
X163977143Y-131822380D01*
X136548286Y-131822380D02*
X136881620Y-132822380D01*
X137214953Y-131822380D01*
X138119715Y-132822380D02*
X137786381Y-132346190D01*
X137548286Y-132822380D02*
X137548286Y-131822380D01*
X137929239Y-131822380D01*
X138024477Y-131870000D01*
X138072096Y-131917619D01*
X138119715Y-132012857D01*
X138119715Y-132155714D01*
X138072096Y-132250952D01*
X138024477Y-132298571D01*
X137929239Y-132346190D01*
X137548286Y-132346190D01*
X138500667Y-131917619D02*
X138548286Y-131870000D01*
X138643524Y-131822380D01*
X138881620Y-131822380D01*
X138976858Y-131870000D01*
X139024477Y-131917619D01*
X139072096Y-132012857D01*
X139072096Y-132108095D01*
X139024477Y-132250952D01*
X138453048Y-132822380D01*
X139072096Y-132822380D01*
X139548286Y-132822380D02*
X139738762Y-132822380D01*
X139834001Y-132774761D01*
X139881620Y-132727142D01*
X139976858Y-132584285D01*
X140024477Y-132393809D01*
X140024477Y-132012857D01*
X139976858Y-131917619D01*
X139929239Y-131870000D01*
X139834001Y-131822380D01*
X139643524Y-131822380D01*
X139548286Y-131870000D01*
X139500667Y-131917619D01*
X139453048Y-132012857D01*
X139453048Y-132250952D01*
X139500667Y-132346190D01*
X139548286Y-132393809D01*
X139643524Y-132441428D01*
X139834001Y-132441428D01*
X139929239Y-132393809D01*
X139976858Y-132346190D01*
X140024477Y-132250952D01*
X112262287Y-131822380D02*
X112595621Y-132822380D01*
X112928954Y-131822380D01*
X113833716Y-132822380D02*
X113500382Y-132346190D01*
X113262287Y-132822380D02*
X113262287Y-131822380D01*
X113643240Y-131822380D01*
X113738478Y-131870000D01*
X113786097Y-131917619D01*
X113833716Y-132012857D01*
X113833716Y-132155714D01*
X113786097Y-132250952D01*
X113738478Y-132298571D01*
X113643240Y-132346190D01*
X113262287Y-132346190D01*
X114214668Y-131917619D02*
X114262287Y-131870000D01*
X114357525Y-131822380D01*
X114595621Y-131822380D01*
X114690859Y-131870000D01*
X114738478Y-131917619D01*
X114786097Y-132012857D01*
X114786097Y-132108095D01*
X114738478Y-132250952D01*
X114167049Y-132822380D01*
X114786097Y-132822380D01*
X115357525Y-132250952D02*
X115262287Y-132203333D01*
X115214668Y-132155714D01*
X115167049Y-132060476D01*
X115167049Y-132012857D01*
X115214668Y-131917619D01*
X115262287Y-131870000D01*
X115357525Y-131822380D01*
X115548002Y-131822380D01*
X115643240Y-131870000D01*
X115690859Y-131917619D01*
X115738478Y-132012857D01*
X115738478Y-132060476D01*
X115690859Y-132155714D01*
X115643240Y-132203333D01*
X115548002Y-132250952D01*
X115357525Y-132250952D01*
X115262287Y-132298571D01*
X115214668Y-132346190D01*
X115167049Y-132441428D01*
X115167049Y-132631904D01*
X115214668Y-132727142D01*
X115262287Y-132774761D01*
X115357525Y-132822380D01*
X115548002Y-132822380D01*
X115643240Y-132774761D01*
X115690859Y-132727142D01*
X115738478Y-132631904D01*
X115738478Y-132441428D01*
X115690859Y-132346190D01*
X115643240Y-132298571D01*
X115548002Y-132250952D01*
X87976286Y-131822380D02*
X88309620Y-132822380D01*
X88642953Y-131822380D01*
X89547715Y-132822380D02*
X89214381Y-132346190D01*
X88976286Y-132822380D02*
X88976286Y-131822380D01*
X89357239Y-131822380D01*
X89452477Y-131870000D01*
X89500096Y-131917619D01*
X89547715Y-132012857D01*
X89547715Y-132155714D01*
X89500096Y-132250952D01*
X89452477Y-132298571D01*
X89357239Y-132346190D01*
X88976286Y-132346190D01*
X89928667Y-131917619D02*
X89976286Y-131870000D01*
X90071524Y-131822380D01*
X90309620Y-131822380D01*
X90404858Y-131870000D01*
X90452477Y-131917619D01*
X90500096Y-132012857D01*
X90500096Y-132108095D01*
X90452477Y-132250952D01*
X89881048Y-132822380D01*
X90500096Y-132822380D01*
X90833429Y-131822380D02*
X91500096Y-131822380D01*
X91071524Y-132822380D01*
X63690286Y-131822380D02*
X64023620Y-132822380D01*
X64356953Y-131822380D01*
X65261715Y-132822380D02*
X64928381Y-132346190D01*
X64690286Y-132822380D02*
X64690286Y-131822380D01*
X65071239Y-131822380D01*
X65166477Y-131870000D01*
X65214096Y-131917619D01*
X65261715Y-132012857D01*
X65261715Y-132155714D01*
X65214096Y-132250952D01*
X65166477Y-132298571D01*
X65071239Y-132346190D01*
X64690286Y-132346190D01*
X65642667Y-131917619D02*
X65690286Y-131870000D01*
X65785524Y-131822380D01*
X66023620Y-131822380D01*
X66118858Y-131870000D01*
X66166477Y-131917619D01*
X66214096Y-132012857D01*
X66214096Y-132108095D01*
X66166477Y-132250952D01*
X65595048Y-132822380D01*
X66214096Y-132822380D01*
X67071239Y-131822380D02*
X66880762Y-131822380D01*
X66785524Y-131870000D01*
X66737905Y-131917619D01*
X66642667Y-132060476D01*
X66595048Y-132250952D01*
X66595048Y-132631904D01*
X66642667Y-132727142D01*
X66690286Y-132774761D01*
X66785524Y-132822380D01*
X66976001Y-132822380D01*
X67071239Y-132774761D01*
X67118858Y-132727142D01*
X67166477Y-132631904D01*
X67166477Y-132393809D01*
X67118858Y-132298571D01*
X67071239Y-132250952D01*
X66976001Y-132203333D01*
X66785524Y-132203333D01*
X66690286Y-132250952D01*
X66642667Y-132298571D01*
X66595048Y-132393809D01*
X209406286Y-107822379D02*
X209739620Y-108822379D01*
X210072953Y-107822379D01*
X210977715Y-108822379D02*
X210644381Y-108346189D01*
X210406286Y-108822379D02*
X210406286Y-107822379D01*
X210787239Y-107822379D01*
X210882477Y-107869999D01*
X210930096Y-107917618D01*
X210977715Y-108012856D01*
X210977715Y-108155713D01*
X210930096Y-108250951D01*
X210882477Y-108298570D01*
X210787239Y-108346189D01*
X210406286Y-108346189D01*
X211358667Y-107917618D02*
X211406286Y-107869999D01*
X211501524Y-107822379D01*
X211739620Y-107822379D01*
X211834858Y-107869999D01*
X211882477Y-107917618D01*
X211930096Y-108012856D01*
X211930096Y-108108094D01*
X211882477Y-108250951D01*
X211311048Y-108822379D01*
X211930096Y-108822379D01*
X212787239Y-108155713D02*
X212787239Y-108822379D01*
X212549143Y-107774760D02*
X212311048Y-108489046D01*
X212930096Y-108489046D01*
X185120286Y-107822379D02*
X185453620Y-108822379D01*
X185786953Y-107822379D01*
X186691715Y-108822379D02*
X186358381Y-108346189D01*
X186120286Y-108822379D02*
X186120286Y-107822379D01*
X186501239Y-107822379D01*
X186596477Y-107869999D01*
X186644096Y-107917618D01*
X186691715Y-108012856D01*
X186691715Y-108155713D01*
X186644096Y-108250951D01*
X186596477Y-108298570D01*
X186501239Y-108346189D01*
X186120286Y-108346189D01*
X187072667Y-107917618D02*
X187120286Y-107869999D01*
X187215524Y-107822379D01*
X187453620Y-107822379D01*
X187548858Y-107869999D01*
X187596477Y-107917618D01*
X187644096Y-108012856D01*
X187644096Y-108108094D01*
X187596477Y-108250951D01*
X187025048Y-108822379D01*
X187644096Y-108822379D01*
X187977429Y-107822379D02*
X188596477Y-107822379D01*
X188263143Y-108203332D01*
X188406001Y-108203332D01*
X188501239Y-108250951D01*
X188548858Y-108298570D01*
X188596477Y-108393808D01*
X188596477Y-108631903D01*
X188548858Y-108727141D01*
X188501239Y-108774760D01*
X188406001Y-108822379D01*
X188120286Y-108822379D01*
X188025048Y-108774760D01*
X187977429Y-108727141D01*
X160834286Y-107822379D02*
X161167620Y-108822379D01*
X161500953Y-107822379D01*
X162405715Y-108822379D02*
X162072381Y-108346189D01*
X161834286Y-108822379D02*
X161834286Y-107822379D01*
X162215239Y-107822379D01*
X162310477Y-107869999D01*
X162358096Y-107917618D01*
X162405715Y-108012856D01*
X162405715Y-108155713D01*
X162358096Y-108250951D01*
X162310477Y-108298570D01*
X162215239Y-108346189D01*
X161834286Y-108346189D01*
X162786667Y-107917618D02*
X162834286Y-107869999D01*
X162929524Y-107822379D01*
X163167620Y-107822379D01*
X163262858Y-107869999D01*
X163310477Y-107917618D01*
X163358096Y-108012856D01*
X163358096Y-108108094D01*
X163310477Y-108250951D01*
X162739048Y-108822379D01*
X163358096Y-108822379D01*
X163739048Y-107917618D02*
X163786667Y-107869999D01*
X163881905Y-107822379D01*
X164120001Y-107822379D01*
X164215239Y-107869999D01*
X164262858Y-107917618D01*
X164310477Y-108012856D01*
X164310477Y-108108094D01*
X164262858Y-108250951D01*
X163691429Y-108822379D01*
X164310477Y-108822379D01*
X136548286Y-107822379D02*
X136881620Y-108822379D01*
X137214953Y-107822379D01*
X138119715Y-108822379D02*
X137786381Y-108346189D01*
X137548286Y-108822379D02*
X137548286Y-107822379D01*
X137929239Y-107822379D01*
X138024477Y-107869999D01*
X138072096Y-107917618D01*
X138119715Y-108012856D01*
X138119715Y-108155713D01*
X138072096Y-108250951D01*
X138024477Y-108298570D01*
X137929239Y-108346189D01*
X137548286Y-108346189D01*
X138500667Y-107917618D02*
X138548286Y-107869999D01*
X138643524Y-107822379D01*
X138881620Y-107822379D01*
X138976858Y-107869999D01*
X139024477Y-107917618D01*
X139072096Y-108012856D01*
X139072096Y-108108094D01*
X139024477Y-108250951D01*
X138453048Y-108822379D01*
X139072096Y-108822379D01*
X140024477Y-108822379D02*
X139453048Y-108822379D01*
X139738762Y-108822379D02*
X139738762Y-107822379D01*
X139643524Y-107965237D01*
X139548286Y-108060475D01*
X139453048Y-108108094D01*
X112262287Y-107822379D02*
X112595621Y-108822379D01*
X112928954Y-107822379D01*
X113833716Y-108822379D02*
X113500382Y-108346189D01*
X113262287Y-108822379D02*
X113262287Y-107822379D01*
X113643240Y-107822379D01*
X113738478Y-107869999D01*
X113786097Y-107917618D01*
X113833716Y-108012856D01*
X113833716Y-108155713D01*
X113786097Y-108250951D01*
X113738478Y-108298570D01*
X113643240Y-108346189D01*
X113262287Y-108346189D01*
X114214668Y-107917618D02*
X114262287Y-107869999D01*
X114357525Y-107822379D01*
X114595621Y-107822379D01*
X114690859Y-107869999D01*
X114738478Y-107917618D01*
X114786097Y-108012856D01*
X114786097Y-108108094D01*
X114738478Y-108250951D01*
X114167049Y-108822379D01*
X114786097Y-108822379D01*
X115405144Y-107822379D02*
X115500382Y-107822379D01*
X115595621Y-107869999D01*
X115643240Y-107917618D01*
X115690859Y-108012856D01*
X115738478Y-108203332D01*
X115738478Y-108441427D01*
X115690859Y-108631903D01*
X115643240Y-108727141D01*
X115595621Y-108774760D01*
X115500382Y-108822379D01*
X115405144Y-108822379D01*
X115309906Y-108774760D01*
X115262287Y-108727141D01*
X115214668Y-108631903D01*
X115167049Y-108441427D01*
X115167049Y-108203332D01*
X115214668Y-108012856D01*
X115262287Y-107917618D01*
X115309906Y-107869999D01*
X115405144Y-107822379D01*
X87976286Y-107822379D02*
X88309620Y-108822379D01*
X88642953Y-107822379D01*
X89547715Y-108822379D02*
X89214381Y-108346189D01*
X88976286Y-108822379D02*
X88976286Y-107822379D01*
X89357239Y-107822379D01*
X89452477Y-107869999D01*
X89500096Y-107917618D01*
X89547715Y-108012856D01*
X89547715Y-108155713D01*
X89500096Y-108250951D01*
X89452477Y-108298570D01*
X89357239Y-108346189D01*
X88976286Y-108346189D01*
X90500096Y-108822379D02*
X89928667Y-108822379D01*
X90214381Y-108822379D02*
X90214381Y-107822379D01*
X90119143Y-107965237D01*
X90023905Y-108060475D01*
X89928667Y-108108094D01*
X90976286Y-108822379D02*
X91166762Y-108822379D01*
X91262001Y-108774760D01*
X91309620Y-108727141D01*
X91404858Y-108584284D01*
X91452477Y-108393808D01*
X91452477Y-108012856D01*
X91404858Y-107917618D01*
X91357239Y-107869999D01*
X91262001Y-107822379D01*
X91071524Y-107822379D01*
X90976286Y-107869999D01*
X90928667Y-107917618D01*
X90881048Y-108012856D01*
X90881048Y-108250951D01*
X90928667Y-108346189D01*
X90976286Y-108393808D01*
X91071524Y-108441427D01*
X91262001Y-108441427D01*
X91357239Y-108393808D01*
X91404858Y-108346189D01*
X91452477Y-108250951D01*
X63690286Y-107822379D02*
X64023620Y-108822379D01*
X64356953Y-107822379D01*
X65261715Y-108822379D02*
X64928381Y-108346189D01*
X64690286Y-108822379D02*
X64690286Y-107822379D01*
X65071239Y-107822379D01*
X65166477Y-107869999D01*
X65214096Y-107917618D01*
X65261715Y-108012856D01*
X65261715Y-108155713D01*
X65214096Y-108250951D01*
X65166477Y-108298570D01*
X65071239Y-108346189D01*
X64690286Y-108346189D01*
X66214096Y-108822379D02*
X65642667Y-108822379D01*
X65928381Y-108822379D02*
X65928381Y-107822379D01*
X65833143Y-107965237D01*
X65737905Y-108060475D01*
X65642667Y-108108094D01*
X66785524Y-108250951D02*
X66690286Y-108203332D01*
X66642667Y-108155713D01*
X66595048Y-108060475D01*
X66595048Y-108012856D01*
X66642667Y-107917618D01*
X66690286Y-107869999D01*
X66785524Y-107822379D01*
X66976001Y-107822379D01*
X67071239Y-107869999D01*
X67118858Y-107917618D01*
X67166477Y-108012856D01*
X67166477Y-108060475D01*
X67118858Y-108155713D01*
X67071239Y-108203332D01*
X66976001Y-108250951D01*
X66785524Y-108250951D01*
X66690286Y-108298570D01*
X66642667Y-108346189D01*
X66595048Y-108441427D01*
X66595048Y-108631903D01*
X66642667Y-108727141D01*
X66690286Y-108774760D01*
X66785524Y-108822379D01*
X66976001Y-108822379D01*
X67071239Y-108774760D01*
X67118858Y-108727141D01*
X67166477Y-108631903D01*
X67166477Y-108441427D01*
X67118858Y-108346189D01*
X67071239Y-108298570D01*
X66976001Y-108250951D01*
X39404286Y-107822379D02*
X39737620Y-108822379D01*
X40070953Y-107822379D01*
X40975715Y-108822379D02*
X40642381Y-108346189D01*
X40404286Y-108822379D02*
X40404286Y-107822379D01*
X40785239Y-107822379D01*
X40880477Y-107869999D01*
X40928096Y-107917618D01*
X40975715Y-108012856D01*
X40975715Y-108155713D01*
X40928096Y-108250951D01*
X40880477Y-108298570D01*
X40785239Y-108346189D01*
X40404286Y-108346189D01*
X41928096Y-108822379D02*
X41356667Y-108822379D01*
X41642381Y-108822379D02*
X41642381Y-107822379D01*
X41547143Y-107965237D01*
X41451905Y-108060475D01*
X41356667Y-108108094D01*
X42261429Y-107822379D02*
X42928096Y-107822379D01*
X42499524Y-108822379D01*
X209406286Y-83822379D02*
X209739620Y-84822379D01*
X210072953Y-83822379D01*
X210977715Y-84822379D02*
X210644381Y-84346189D01*
X210406286Y-84822379D02*
X210406286Y-83822379D01*
X210787239Y-83822379D01*
X210882477Y-83869999D01*
X210930096Y-83917618D01*
X210977715Y-84012856D01*
X210977715Y-84155713D01*
X210930096Y-84250951D01*
X210882477Y-84298570D01*
X210787239Y-84346189D01*
X210406286Y-84346189D01*
X211930096Y-84822379D02*
X211358667Y-84822379D01*
X211644381Y-84822379D02*
X211644381Y-83822379D01*
X211549143Y-83965237D01*
X211453905Y-84060475D01*
X211358667Y-84108094D01*
X212787239Y-83822379D02*
X212596762Y-83822379D01*
X212501524Y-83869999D01*
X212453905Y-83917618D01*
X212358667Y-84060475D01*
X212311048Y-84250951D01*
X212311048Y-84631903D01*
X212358667Y-84727141D01*
X212406286Y-84774760D01*
X212501524Y-84822379D01*
X212692001Y-84822379D01*
X212787239Y-84774760D01*
X212834858Y-84727141D01*
X212882477Y-84631903D01*
X212882477Y-84393808D01*
X212834858Y-84298570D01*
X212787239Y-84250951D01*
X212692001Y-84203332D01*
X212501524Y-84203332D01*
X212406286Y-84250951D01*
X212358667Y-84298570D01*
X212311048Y-84393808D01*
X185120286Y-83822379D02*
X185453620Y-84822379D01*
X185786953Y-83822379D01*
X186691715Y-84822379D02*
X186358381Y-84346189D01*
X186120286Y-84822379D02*
X186120286Y-83822379D01*
X186501239Y-83822379D01*
X186596477Y-83869999D01*
X186644096Y-83917618D01*
X186691715Y-84012856D01*
X186691715Y-84155713D01*
X186644096Y-84250951D01*
X186596477Y-84298570D01*
X186501239Y-84346189D01*
X186120286Y-84346189D01*
X187644096Y-84822379D02*
X187072667Y-84822379D01*
X187358381Y-84822379D02*
X187358381Y-83822379D01*
X187263143Y-83965237D01*
X187167905Y-84060475D01*
X187072667Y-84108094D01*
X188548858Y-83822379D02*
X188072667Y-83822379D01*
X188025048Y-84298570D01*
X188072667Y-84250951D01*
X188167905Y-84203332D01*
X188406001Y-84203332D01*
X188501239Y-84250951D01*
X188548858Y-84298570D01*
X188596477Y-84393808D01*
X188596477Y-84631903D01*
X188548858Y-84727141D01*
X188501239Y-84774760D01*
X188406001Y-84822379D01*
X188167905Y-84822379D01*
X188072667Y-84774760D01*
X188025048Y-84727141D01*
X160834286Y-83822379D02*
X161167620Y-84822379D01*
X161500953Y-83822379D01*
X162405715Y-84822379D02*
X162072381Y-84346189D01*
X161834286Y-84822379D02*
X161834286Y-83822379D01*
X162215239Y-83822379D01*
X162310477Y-83869999D01*
X162358096Y-83917618D01*
X162405715Y-84012856D01*
X162405715Y-84155713D01*
X162358096Y-84250951D01*
X162310477Y-84298570D01*
X162215239Y-84346189D01*
X161834286Y-84346189D01*
X163358096Y-84822379D02*
X162786667Y-84822379D01*
X163072381Y-84822379D02*
X163072381Y-83822379D01*
X162977143Y-83965237D01*
X162881905Y-84060475D01*
X162786667Y-84108094D01*
X164215239Y-84155713D02*
X164215239Y-84822379D01*
X163977143Y-83774760D02*
X163739048Y-84489046D01*
X164358096Y-84489046D01*
X136548286Y-83822379D02*
X136881620Y-84822379D01*
X137214953Y-83822379D01*
X138119715Y-84822379D02*
X137786381Y-84346189D01*
X137548286Y-84822379D02*
X137548286Y-83822379D01*
X137929239Y-83822379D01*
X138024477Y-83869999D01*
X138072096Y-83917618D01*
X138119715Y-84012856D01*
X138119715Y-84155713D01*
X138072096Y-84250951D01*
X138024477Y-84298570D01*
X137929239Y-84346189D01*
X137548286Y-84346189D01*
X139072096Y-84822379D02*
X138500667Y-84822379D01*
X138786381Y-84822379D02*
X138786381Y-83822379D01*
X138691143Y-83965237D01*
X138595905Y-84060475D01*
X138500667Y-84108094D01*
X139405429Y-83822379D02*
X140024477Y-83822379D01*
X139691143Y-84203332D01*
X139834001Y-84203332D01*
X139929239Y-84250951D01*
X139976858Y-84298570D01*
X140024477Y-84393808D01*
X140024477Y-84631903D01*
X139976858Y-84727141D01*
X139929239Y-84774760D01*
X139834001Y-84822379D01*
X139548286Y-84822379D01*
X139453048Y-84774760D01*
X139405429Y-84727141D01*
X112262287Y-83822379D02*
X112595621Y-84822379D01*
X112928954Y-83822379D01*
X113833716Y-84822379D02*
X113500382Y-84346189D01*
X113262287Y-84822379D02*
X113262287Y-83822379D01*
X113643240Y-83822379D01*
X113738478Y-83869999D01*
X113786097Y-83917618D01*
X113833716Y-84012856D01*
X113833716Y-84155713D01*
X113786097Y-84250951D01*
X113738478Y-84298570D01*
X113643240Y-84346189D01*
X113262287Y-84346189D01*
X114786097Y-84822379D02*
X114214668Y-84822379D01*
X114500382Y-84822379D02*
X114500382Y-83822379D01*
X114405144Y-83965237D01*
X114309906Y-84060475D01*
X114214668Y-84108094D01*
X115167049Y-83917618D02*
X115214668Y-83869999D01*
X115309906Y-83822379D01*
X115548002Y-83822379D01*
X115643240Y-83869999D01*
X115690859Y-83917618D01*
X115738478Y-84012856D01*
X115738478Y-84108094D01*
X115690859Y-84250951D01*
X115119430Y-84822379D01*
X115738478Y-84822379D01*
X87976286Y-83822379D02*
X88309620Y-84822379D01*
X88642953Y-83822379D01*
X89547715Y-84822379D02*
X89214381Y-84346189D01*
X88976286Y-84822379D02*
X88976286Y-83822379D01*
X89357239Y-83822379D01*
X89452477Y-83869999D01*
X89500096Y-83917618D01*
X89547715Y-84012856D01*
X89547715Y-84155713D01*
X89500096Y-84250951D01*
X89452477Y-84298570D01*
X89357239Y-84346189D01*
X88976286Y-84346189D01*
X90500096Y-84822379D02*
X89928667Y-84822379D01*
X90214381Y-84822379D02*
X90214381Y-83822379D01*
X90119143Y-83965237D01*
X90023905Y-84060475D01*
X89928667Y-84108094D01*
X91452477Y-84822379D02*
X90881048Y-84822379D01*
X91166762Y-84822379D02*
X91166762Y-83822379D01*
X91071524Y-83965237D01*
X90976286Y-84060475D01*
X90881048Y-84108094D01*
X63690286Y-83822379D02*
X64023620Y-84822379D01*
X64356953Y-83822379D01*
X65261715Y-84822379D02*
X64928381Y-84346189D01*
X64690286Y-84822379D02*
X64690286Y-83822379D01*
X65071239Y-83822379D01*
X65166477Y-83869999D01*
X65214096Y-83917618D01*
X65261715Y-84012856D01*
X65261715Y-84155713D01*
X65214096Y-84250951D01*
X65166477Y-84298570D01*
X65071239Y-84346189D01*
X64690286Y-84346189D01*
X66214096Y-84822379D02*
X65642667Y-84822379D01*
X65928381Y-84822379D02*
X65928381Y-83822379D01*
X65833143Y-83965237D01*
X65737905Y-84060475D01*
X65642667Y-84108094D01*
X66833143Y-83822379D02*
X66928381Y-83822379D01*
X67023620Y-83869999D01*
X67071239Y-83917618D01*
X67118858Y-84012856D01*
X67166477Y-84203332D01*
X67166477Y-84441427D01*
X67118858Y-84631903D01*
X67071239Y-84727141D01*
X67023620Y-84774760D01*
X66928381Y-84822379D01*
X66833143Y-84822379D01*
X66737905Y-84774760D01*
X66690286Y-84727141D01*
X66642667Y-84631903D01*
X66595048Y-84441427D01*
X66595048Y-84203332D01*
X66642667Y-84012856D01*
X66690286Y-83917618D01*
X66737905Y-83869999D01*
X66833143Y-83822379D01*
X39880477Y-83822379D02*
X40213810Y-84822379D01*
X40547143Y-83822379D01*
X41451905Y-84822379D02*
X41118572Y-84346189D01*
X40880477Y-84822379D02*
X40880477Y-83822379D01*
X41261429Y-83822379D01*
X41356667Y-83869999D01*
X41404286Y-83917618D01*
X41451905Y-84012856D01*
X41451905Y-84155713D01*
X41404286Y-84250951D01*
X41356667Y-84298570D01*
X41261429Y-84346189D01*
X40880477Y-84346189D01*
X41928096Y-84822379D02*
X42118572Y-84822379D01*
X42213810Y-84774760D01*
X42261429Y-84727141D01*
X42356667Y-84584284D01*
X42404286Y-84393808D01*
X42404286Y-84012856D01*
X42356667Y-83917618D01*
X42309048Y-83869999D01*
X42213810Y-83822379D01*
X42023334Y-83822379D01*
X41928096Y-83869999D01*
X41880477Y-83917618D01*
X41832858Y-84012856D01*
X41832858Y-84250951D01*
X41880477Y-84346189D01*
X41928096Y-84393808D01*
X42023334Y-84441427D01*
X42213810Y-84441427D01*
X42309048Y-84393808D01*
X42356667Y-84346189D01*
X42404286Y-84250951D01*
X209882477Y-59822380D02*
X210215810Y-60822380D01*
X210549143Y-59822380D01*
X211453905Y-60822380D02*
X211120572Y-60346190D01*
X210882477Y-60822380D02*
X210882477Y-59822380D01*
X211263429Y-59822380D01*
X211358667Y-59870000D01*
X211406286Y-59917619D01*
X211453905Y-60012857D01*
X211453905Y-60155714D01*
X211406286Y-60250952D01*
X211358667Y-60298571D01*
X211263429Y-60346190D01*
X210882477Y-60346190D01*
X212025334Y-60250952D02*
X211930096Y-60203333D01*
X211882477Y-60155714D01*
X211834858Y-60060476D01*
X211834858Y-60012857D01*
X211882477Y-59917619D01*
X211930096Y-59870000D01*
X212025334Y-59822380D01*
X212215810Y-59822380D01*
X212311048Y-59870000D01*
X212358667Y-59917619D01*
X212406286Y-60012857D01*
X212406286Y-60060476D01*
X212358667Y-60155714D01*
X212311048Y-60203333D01*
X212215810Y-60250952D01*
X212025334Y-60250952D01*
X211930096Y-60298571D01*
X211882477Y-60346190D01*
X211834858Y-60441428D01*
X211834858Y-60631904D01*
X211882477Y-60727142D01*
X211930096Y-60774761D01*
X212025334Y-60822380D01*
X212215810Y-60822380D01*
X212311048Y-60774761D01*
X212358667Y-60727142D01*
X212406286Y-60631904D01*
X212406286Y-60441428D01*
X212358667Y-60346190D01*
X212311048Y-60298571D01*
X212215810Y-60250952D01*
X185596477Y-59822380D02*
X185929810Y-60822380D01*
X186263143Y-59822380D01*
X187167905Y-60822380D02*
X186834572Y-60346190D01*
X186596477Y-60822380D02*
X186596477Y-59822380D01*
X186977429Y-59822380D01*
X187072667Y-59870000D01*
X187120286Y-59917619D01*
X187167905Y-60012857D01*
X187167905Y-60155714D01*
X187120286Y-60250952D01*
X187072667Y-60298571D01*
X186977429Y-60346190D01*
X186596477Y-60346190D01*
X187501239Y-59822380D02*
X188167905Y-59822380D01*
X187739334Y-60822380D01*
X161310477Y-59822380D02*
X161643810Y-60822380D01*
X161977143Y-59822380D01*
X162881905Y-60822380D02*
X162548572Y-60346190D01*
X162310477Y-60822380D02*
X162310477Y-59822380D01*
X162691429Y-59822380D01*
X162786667Y-59870000D01*
X162834286Y-59917619D01*
X162881905Y-60012857D01*
X162881905Y-60155714D01*
X162834286Y-60250952D01*
X162786667Y-60298571D01*
X162691429Y-60346190D01*
X162310477Y-60346190D01*
X163739048Y-59822380D02*
X163548572Y-59822380D01*
X163453334Y-59870000D01*
X163405715Y-59917619D01*
X163310477Y-60060476D01*
X163262858Y-60250952D01*
X163262858Y-60631904D01*
X163310477Y-60727142D01*
X163358096Y-60774761D01*
X163453334Y-60822380D01*
X163643810Y-60822380D01*
X163739048Y-60774761D01*
X163786667Y-60727142D01*
X163834286Y-60631904D01*
X163834286Y-60393809D01*
X163786667Y-60298571D01*
X163739048Y-60250952D01*
X163643810Y-60203333D01*
X163453334Y-60203333D01*
X163358096Y-60250952D01*
X163310477Y-60298571D01*
X163262858Y-60393809D01*
X137024477Y-59822380D02*
X137357810Y-60822380D01*
X137691143Y-59822380D01*
X138595905Y-60822380D02*
X138262572Y-60346190D01*
X138024477Y-60822380D02*
X138024477Y-59822380D01*
X138405429Y-59822380D01*
X138500667Y-59870000D01*
X138548286Y-59917619D01*
X138595905Y-60012857D01*
X138595905Y-60155714D01*
X138548286Y-60250952D01*
X138500667Y-60298571D01*
X138405429Y-60346190D01*
X138024477Y-60346190D01*
X139500667Y-59822380D02*
X139024477Y-59822380D01*
X138976858Y-60298571D01*
X139024477Y-60250952D01*
X139119715Y-60203333D01*
X139357810Y-60203333D01*
X139453048Y-60250952D01*
X139500667Y-60298571D01*
X139548286Y-60393809D01*
X139548286Y-60631904D01*
X139500667Y-60727142D01*
X139453048Y-60774761D01*
X139357810Y-60822380D01*
X139119715Y-60822380D01*
X139024477Y-60774761D01*
X138976858Y-60727142D01*
X112738478Y-59822380D02*
X113071811Y-60822380D01*
X113405144Y-59822380D01*
X114309906Y-60822380D02*
X113976573Y-60346190D01*
X113738478Y-60822380D02*
X113738478Y-59822380D01*
X114119430Y-59822380D01*
X114214668Y-59870000D01*
X114262287Y-59917619D01*
X114309906Y-60012857D01*
X114309906Y-60155714D01*
X114262287Y-60250952D01*
X114214668Y-60298571D01*
X114119430Y-60346190D01*
X113738478Y-60346190D01*
X115167049Y-60155714D02*
X115167049Y-60822380D01*
X114928954Y-59774761D02*
X114690859Y-60489047D01*
X115309906Y-60489047D01*
X64166477Y-59822380D02*
X64499810Y-60822380D01*
X64833143Y-59822380D01*
X65737905Y-60822380D02*
X65404572Y-60346190D01*
X65166477Y-60822380D02*
X65166477Y-59822380D01*
X65547429Y-59822380D01*
X65642667Y-59870000D01*
X65690286Y-59917619D01*
X65737905Y-60012857D01*
X65737905Y-60155714D01*
X65690286Y-60250952D01*
X65642667Y-60298571D01*
X65547429Y-60346190D01*
X65166477Y-60346190D01*
X66118858Y-59917619D02*
X66166477Y-59870000D01*
X66261715Y-59822380D01*
X66499810Y-59822380D01*
X66595048Y-59870000D01*
X66642667Y-59917619D01*
X66690286Y-60012857D01*
X66690286Y-60108095D01*
X66642667Y-60250952D01*
X66071239Y-60822380D01*
X66690286Y-60822380D01*
X88452477Y-59822380D02*
X88785810Y-60822380D01*
X89119143Y-59822380D01*
X90023905Y-60822380D02*
X89690572Y-60346190D01*
X89452477Y-60822380D02*
X89452477Y-59822380D01*
X89833429Y-59822380D01*
X89928667Y-59870000D01*
X89976286Y-59917619D01*
X90023905Y-60012857D01*
X90023905Y-60155714D01*
X89976286Y-60250952D01*
X89928667Y-60298571D01*
X89833429Y-60346190D01*
X89452477Y-60346190D01*
X90357239Y-59822380D02*
X90976286Y-59822380D01*
X90642953Y-60203333D01*
X90785810Y-60203333D01*
X90881048Y-60250952D01*
X90928667Y-60298571D01*
X90976286Y-60393809D01*
X90976286Y-60631904D01*
X90928667Y-60727142D01*
X90881048Y-60774761D01*
X90785810Y-60822380D01*
X90500096Y-60822380D01*
X90404858Y-60774761D01*
X90357239Y-60727142D01*
X39404286Y-131822380D02*
X39737620Y-132822380D01*
X40070953Y-131822380D01*
X40975715Y-132822380D02*
X40642381Y-132346190D01*
X40404286Y-132822380D02*
X40404286Y-131822380D01*
X40785239Y-131822380D01*
X40880477Y-131870000D01*
X40928096Y-131917619D01*
X40975715Y-132012857D01*
X40975715Y-132155714D01*
X40928096Y-132250952D01*
X40880477Y-132298571D01*
X40785239Y-132346190D01*
X40404286Y-132346190D01*
X41356667Y-131917619D02*
X41404286Y-131870000D01*
X41499524Y-131822380D01*
X41737620Y-131822380D01*
X41832858Y-131870000D01*
X41880477Y-131917619D01*
X41928096Y-132012857D01*
X41928096Y-132108095D01*
X41880477Y-132250952D01*
X41309048Y-132822380D01*
X41928096Y-132822380D01*
X42832858Y-131822380D02*
X42356667Y-131822380D01*
X42309048Y-132298571D01*
X42356667Y-132250952D01*
X42451905Y-132203333D01*
X42690001Y-132203333D01*
X42785239Y-132250952D01*
X42832858Y-132298571D01*
X42880477Y-132393809D01*
X42880477Y-132631904D01*
X42832858Y-132727142D01*
X42785239Y-132774761D01*
X42690001Y-132822380D01*
X42451905Y-132822380D01*
X42356667Y-132774761D01*
X42309048Y-132727142D01*
X39880477Y-59822380D02*
X40213810Y-60822380D01*
X40547143Y-59822380D01*
X41451905Y-60822380D02*
X41118572Y-60346190D01*
X40880477Y-60822380D02*
X40880477Y-59822380D01*
X41261429Y-59822380D01*
X41356667Y-59870000D01*
X41404286Y-59917619D01*
X41451905Y-60012857D01*
X41451905Y-60155714D01*
X41404286Y-60250952D01*
X41356667Y-60298571D01*
X41261429Y-60346190D01*
X40880477Y-60346190D01*
X42404286Y-60822380D02*
X41832858Y-60822380D01*
X42118572Y-60822380D02*
X42118572Y-59822380D01*
X42023334Y-59965238D01*
X41928096Y-60060476D01*
X41832858Y-60108095D01*
X199083080Y-123947304D02*
X199892604Y-123947304D01*
X199987842Y-123899685D01*
X200035461Y-123852066D01*
X200083080Y-123756828D01*
X200083080Y-123566352D01*
X200035461Y-123471114D01*
X199987842Y-123423495D01*
X199892604Y-123375876D01*
X199083080Y-123375876D01*
X200083080Y-122375876D02*
X200083080Y-122947304D01*
X200083080Y-122661590D02*
X199083080Y-122661590D01*
X199225938Y-122756828D01*
X199321176Y-122852066D01*
X199368795Y-122947304D01*
D12*
X199534947Y-74075631D02*
X199186000Y-74014052D01*
X199288632Y-74321947D02*
X198857579Y-73890895D01*
X199021790Y-73726684D01*
X199083369Y-73706158D01*
X199124421Y-73706158D01*
X199186000Y-73726684D01*
X199247579Y-73788263D01*
X199268105Y-73849842D01*
X199268105Y-73890895D01*
X199247579Y-73952474D01*
X199083369Y-74116684D01*
X199309158Y-73521421D02*
X199309158Y-73480369D01*
X199329684Y-73418790D01*
X199432316Y-73316158D01*
X199493895Y-73295632D01*
X199534947Y-73295632D01*
X199596526Y-73316158D01*
X199637579Y-73357211D01*
X199678631Y-73439316D01*
X199678631Y-73931947D01*
X199945473Y-73665105D01*
X202582947Y-77250631D02*
X202234000Y-77189052D01*
X202336632Y-77496947D02*
X201905579Y-77065895D01*
X202069790Y-76901684D01*
X202131369Y-76881158D01*
X202172421Y-76881158D01*
X202234000Y-76901684D01*
X202295579Y-76963263D01*
X202316105Y-77024842D01*
X202316105Y-77065895D01*
X202295579Y-77127474D01*
X202131369Y-77291684D01*
X202993473Y-76840105D02*
X202747158Y-77086421D01*
X202870315Y-76963263D02*
X202439263Y-76532211D01*
X202459790Y-76634842D01*
X202459790Y-76716948D01*
X202439263Y-76778527D01*
X88206114Y-44217771D02*
X88002914Y-43927485D01*
X87857771Y-44217771D02*
X87857771Y-43608171D01*
X88090000Y-43608171D01*
X88148057Y-43637200D01*
X88177085Y-43666228D01*
X88206114Y-43724285D01*
X88206114Y-43811371D01*
X88177085Y-43869428D01*
X88148057Y-43898457D01*
X88090000Y-43927485D01*
X87857771Y-43927485D01*
X88786685Y-44217771D02*
X88438342Y-44217771D01*
X88612514Y-44217771D02*
X88612514Y-43608171D01*
X88554457Y-43695257D01*
X88496400Y-43753314D01*
X88438342Y-43782342D01*
X89164057Y-43608171D02*
X89222114Y-43608171D01*
X89280171Y-43637200D01*
X89309200Y-43666228D01*
X89338228Y-43724285D01*
X89367257Y-43840400D01*
X89367257Y-43985542D01*
X89338228Y-44101657D01*
X89309200Y-44159714D01*
X89280171Y-44188742D01*
X89222114Y-44217771D01*
X89164057Y-44217771D01*
X89106000Y-44188742D01*
X89076971Y-44159714D01*
X89047942Y-44101657D01*
X89018914Y-43985542D01*
X89018914Y-43840400D01*
X89047942Y-43724285D01*
X89076971Y-43666228D01*
X89106000Y-43637200D01*
X89164057Y-43608171D01*
X203355249Y-101381933D02*
X203006302Y-101320354D01*
X203108934Y-101628249D02*
X202677881Y-101197197D01*
X202842092Y-101032986D01*
X202903671Y-101012460D01*
X202944723Y-101012460D01*
X203006302Y-101032986D01*
X203067881Y-101094565D01*
X203088407Y-101156144D01*
X203088407Y-101197197D01*
X203067881Y-101258776D01*
X202903671Y-101422986D01*
X203067881Y-100807197D02*
X203334723Y-100540355D01*
X203355249Y-100848250D01*
X203416828Y-100786671D01*
X203478407Y-100766144D01*
X203519460Y-100766144D01*
X203581039Y-100786671D01*
X203683670Y-100889302D01*
X203704196Y-100950881D01*
X203704196Y-100991934D01*
X203683670Y-101053513D01*
X203560512Y-101176670D01*
X203498933Y-101197197D01*
X203457881Y-101197197D01*
X201675269Y-138383874D02*
X201326322Y-138322295D01*
X201428954Y-138630190D02*
X200997901Y-138199138D01*
X201162112Y-138034927D01*
X201223691Y-138014401D01*
X201264743Y-138014401D01*
X201326322Y-138034927D01*
X201387901Y-138096506D01*
X201408427Y-138158085D01*
X201408427Y-138199138D01*
X201387901Y-138260717D01*
X201223691Y-138424927D01*
X201757374Y-137727033D02*
X202044743Y-138014401D01*
X201490533Y-137665454D02*
X201695796Y-138075980D01*
X201962637Y-137809138D01*
X199487757Y-97074341D02*
X199138810Y-97012762D01*
X199241442Y-97320657D02*
X198810389Y-96889605D01*
X198974600Y-96725394D01*
X199036179Y-96704868D01*
X199077231Y-96704868D01*
X199138810Y-96725394D01*
X199200389Y-96786973D01*
X199220915Y-96848552D01*
X199220915Y-96889605D01*
X199200389Y-96951184D01*
X199036179Y-97115394D01*
X199446705Y-96253289D02*
X199241442Y-96458552D01*
X199426178Y-96684342D01*
X199426178Y-96643289D01*
X199446705Y-96581710D01*
X199549336Y-96479079D01*
X199610915Y-96458552D01*
X199651968Y-96458552D01*
X199713547Y-96479079D01*
X199816178Y-96581710D01*
X199836704Y-96643289D01*
X199836704Y-96684342D01*
X199816178Y-96745921D01*
X199713547Y-96848552D01*
X199651968Y-96869078D01*
X199610915Y-96869078D01*
D16*
X220884666Y-74890380D02*
X220884666Y-75604666D01*
X220837047Y-75747523D01*
X220741809Y-75842761D01*
X220598952Y-75890380D01*
X220503714Y-75890380D01*
X221884666Y-75890380D02*
X221313238Y-75890380D01*
X221598952Y-75890380D02*
X221598952Y-74890380D01*
X221503714Y-75033238D01*
X221408476Y-75128476D01*
X221313238Y-75176095D01*
D12*
X77066400Y-43282914D02*
X77037371Y-43311942D01*
X76950285Y-43340971D01*
X76892228Y-43340971D01*
X76805142Y-43311942D01*
X76747085Y-43253885D01*
X76718057Y-43195828D01*
X76689028Y-43079714D01*
X76689028Y-42992628D01*
X76718057Y-42876514D01*
X76747085Y-42818457D01*
X76805142Y-42760400D01*
X76892228Y-42731371D01*
X76950285Y-42731371D01*
X77037371Y-42760400D01*
X77066400Y-42789428D01*
X77298628Y-42789428D02*
X77327657Y-42760400D01*
X77385714Y-42731371D01*
X77530857Y-42731371D01*
X77588914Y-42760400D01*
X77617942Y-42789428D01*
X77646971Y-42847485D01*
X77646971Y-42905542D01*
X77617942Y-42992628D01*
X77269600Y-43340971D01*
X77646971Y-43340971D01*
X99926400Y-43282914D02*
X99897371Y-43311942D01*
X99810285Y-43340971D01*
X99752228Y-43340971D01*
X99665142Y-43311942D01*
X99607085Y-43253885D01*
X99578057Y-43195828D01*
X99549028Y-43079714D01*
X99549028Y-42992628D01*
X99578057Y-42876514D01*
X99607085Y-42818457D01*
X99665142Y-42760400D01*
X99752228Y-42731371D01*
X99810285Y-42731371D01*
X99897371Y-42760400D01*
X99926400Y-42789428D01*
X100506971Y-43340971D02*
X100158628Y-43340971D01*
X100332800Y-43340971D02*
X100332800Y-42731371D01*
X100274742Y-42818457D01*
X100216685Y-42876514D01*
X100158628Y-42905542D01*
D16*
X123920476Y-42822380D02*
X123920476Y-41822380D01*
X124253809Y-42536666D01*
X124587142Y-41822380D01*
X124587142Y-42822380D01*
X125063333Y-41822380D02*
X125063333Y-42631904D01*
X125110952Y-42727142D01*
X125158571Y-42774761D01*
X125253809Y-42822380D01*
X125444285Y-42822380D01*
X125539523Y-42774761D01*
X125587142Y-42727142D01*
X125634761Y-42631904D01*
X125634761Y-41822380D01*
X126015714Y-41822380D02*
X126682380Y-42822380D01*
X126682380Y-41822380D02*
X126015714Y-42822380D01*
X127587142Y-42822380D02*
X127015714Y-42822380D01*
X127301428Y-42822380D02*
X127301428Y-41822380D01*
X127206190Y-41965238D01*
X127110952Y-42060476D01*
X127015714Y-42108095D01*
X167608476Y-42822380D02*
X167608476Y-41822380D01*
X167941809Y-42536666D01*
X168275142Y-41822380D01*
X168275142Y-42822380D01*
X168751333Y-41822380D02*
X168751333Y-42631904D01*
X168798952Y-42727142D01*
X168846571Y-42774761D01*
X168941809Y-42822380D01*
X169132285Y-42822380D01*
X169227523Y-42774761D01*
X169275142Y-42727142D01*
X169322761Y-42631904D01*
X169322761Y-41822380D01*
X169703714Y-41822380D02*
X170370380Y-42822380D01*
X170370380Y-41822380D02*
X169703714Y-42822380D01*
X170703714Y-41917619D02*
X170751333Y-41870000D01*
X170846571Y-41822380D01*
X171084666Y-41822380D01*
X171179904Y-41870000D01*
X171227523Y-41917619D01*
X171275142Y-42012857D01*
X171275142Y-42108095D01*
X171227523Y-42250952D01*
X170656095Y-42822380D01*
X171275142Y-42822380D01*
D17*
X77280019Y-35685942D02*
X77280019Y-34284596D01*
X78748096Y-35552480D02*
X78681365Y-35619211D01*
X78481173Y-35685942D01*
X78347711Y-35685942D01*
X78147519Y-35619211D01*
X78014057Y-35485749D01*
X77947327Y-35352288D01*
X77880596Y-35085365D01*
X77880596Y-34885173D01*
X77947327Y-34618250D01*
X78014057Y-34484788D01*
X78147519Y-34351327D01*
X78347711Y-34284596D01*
X78481173Y-34284596D01*
X78681365Y-34351327D01*
X78748096Y-34418057D01*
X80082711Y-35685942D02*
X79281942Y-35685942D01*
X79682326Y-35685942D02*
X79682326Y-34284596D01*
X79548865Y-34484788D01*
X79415403Y-34618250D01*
X79281942Y-34684980D01*
D12*
X66656970Y-41858744D02*
X66744056Y-41887773D01*
X66889199Y-41887773D01*
X66947256Y-41858744D01*
X66976284Y-41829716D01*
X67005313Y-41771659D01*
X67005313Y-41713602D01*
X66976284Y-41655544D01*
X66947256Y-41626516D01*
X66889199Y-41597487D01*
X66773084Y-41568459D01*
X66715027Y-41539430D01*
X66685999Y-41510402D01*
X66656970Y-41452344D01*
X66656970Y-41394287D01*
X66685999Y-41336230D01*
X66715027Y-41307202D01*
X66773084Y-41278173D01*
X66918227Y-41278173D01*
X67005313Y-41307202D01*
X67208513Y-41278173D02*
X67353656Y-41887773D01*
X67469770Y-41452344D01*
X67585884Y-41887773D01*
X67731027Y-41278173D01*
X67876170Y-41278173D02*
X68224513Y-41278173D01*
X68050341Y-41887773D02*
X68050341Y-41278173D01*
X68747027Y-41887773D02*
X68398684Y-41887773D01*
X68572856Y-41887773D02*
X68572856Y-41278173D01*
X68514799Y-41365259D01*
X68456741Y-41423316D01*
X68398684Y-41452344D01*
X66656971Y-32458744D02*
X66744057Y-32487773D01*
X66889200Y-32487773D01*
X66947257Y-32458744D01*
X66976285Y-32429716D01*
X67005314Y-32371659D01*
X67005314Y-32313602D01*
X66976285Y-32255544D01*
X66947257Y-32226516D01*
X66889200Y-32197487D01*
X66773085Y-32168459D01*
X66715028Y-32139430D01*
X66686000Y-32110402D01*
X66656971Y-32052344D01*
X66656971Y-31994287D01*
X66686000Y-31936230D01*
X66715028Y-31907202D01*
X66773085Y-31878173D01*
X66918228Y-31878173D01*
X67005314Y-31907202D01*
X67208514Y-31878173D02*
X67353657Y-32487773D01*
X67469771Y-32052344D01*
X67585885Y-32487773D01*
X67731028Y-31878173D01*
X67876171Y-31878173D02*
X68224514Y-31878173D01*
X68050342Y-32487773D02*
X68050342Y-31878173D01*
X68398685Y-31936230D02*
X68427714Y-31907202D01*
X68485771Y-31878173D01*
X68630914Y-31878173D01*
X68688971Y-31907202D01*
X68718000Y-31936230D01*
X68747028Y-31994287D01*
X68747028Y-32052344D01*
X68718000Y-32139430D01*
X68369657Y-32487773D01*
X68747028Y-32487773D01*
D16*
X220884666Y-99020380D02*
X220884666Y-99734666D01*
X220837047Y-99877523D01*
X220741809Y-99972761D01*
X220598952Y-100020380D01*
X220503714Y-100020380D01*
X221313238Y-99115619D02*
X221360857Y-99068000D01*
X221456095Y-99020380D01*
X221694190Y-99020380D01*
X221789428Y-99068000D01*
X221837047Y-99115619D01*
X221884666Y-99210857D01*
X221884666Y-99306095D01*
X221837047Y-99448952D01*
X221265619Y-100020380D01*
X221884666Y-100020380D01*
D12*
X199611342Y-57997271D02*
X199408142Y-57706985D01*
X199263000Y-57997271D02*
X199263000Y-57387671D01*
X199495228Y-57387671D01*
X199553285Y-57416700D01*
X199582314Y-57445728D01*
X199611342Y-57503785D01*
X199611342Y-57590871D01*
X199582314Y-57648928D01*
X199553285Y-57677957D01*
X199495228Y-57706985D01*
X199263000Y-57706985D01*
X199872600Y-57677957D02*
X200075800Y-57677957D01*
X200162885Y-57997271D02*
X199872600Y-57997271D01*
X199872600Y-57387671D01*
X200162885Y-57387671D01*
X200395114Y-57968242D02*
X200482200Y-57997271D01*
X200627342Y-57997271D01*
X200685400Y-57968242D01*
X200714428Y-57939214D01*
X200743457Y-57881157D01*
X200743457Y-57823100D01*
X200714428Y-57765042D01*
X200685400Y-57736014D01*
X200627342Y-57706985D01*
X200511228Y-57677957D01*
X200453171Y-57648928D01*
X200424142Y-57619900D01*
X200395114Y-57561842D01*
X200395114Y-57503785D01*
X200424142Y-57445728D01*
X200453171Y-57416700D01*
X200511228Y-57387671D01*
X200656371Y-57387671D01*
X200743457Y-57416700D01*
X201004714Y-57677957D02*
X201207914Y-57677957D01*
X201295000Y-57997271D02*
X201004714Y-57997271D01*
X201004714Y-57387671D01*
X201295000Y-57387671D01*
X201469171Y-57387671D02*
X201817514Y-57387671D01*
X201643342Y-57997271D02*
X201643342Y-57387671D01*
X202340028Y-57997271D02*
X201991685Y-57997271D01*
X202165857Y-57997271D02*
X202165857Y-57387671D01*
X202107800Y-57474757D01*
X202049742Y-57532814D01*
X201991685Y-57561842D01*
M02*
